%TF.GenerationSoftware,KiCad,Pcbnew,9.0.0*%
%TF.CreationDate,2025-03-14T14:53:35-04:00*%
%TF.ProjectId,MiniCamel_FrontPlate,4d696e69-4361-46d6-956c-5f46726f6e74,rev?*%
%TF.SameCoordinates,Original*%
%TF.FileFunction,Copper,L1,Top*%
%TF.FilePolarity,Positive*%
%FSLAX46Y46*%
G04 Gerber Fmt 4.6, Leading zero omitted, Abs format (unit mm)*
G04 Created by KiCad (PCBNEW 9.0.0) date 2025-03-14 14:53:35*
%MOMM*%
%LPD*%
G01*
G04 APERTURE LIST*
%TA.AperFunction,NonConductor*%
%ADD10C,0.000000*%
%TD*%
%TA.AperFunction,ComponentPad*%
%ADD11C,4.064000*%
%TD*%
G04 APERTURE END LIST*
D10*
%TA.AperFunction,NonConductor*%
G36*
X102189098Y-80290559D02*
G01*
X104535784Y-78313169D01*
X105042832Y-78313169D01*
X104159650Y-82564949D01*
X103180724Y-82564949D01*
X103702427Y-80054132D01*
X101803195Y-81655388D01*
X100575142Y-80045339D01*
X100051485Y-82564949D01*
X99530759Y-82564949D01*
X100413941Y-78313169D01*
X100662092Y-78313169D01*
X102189098Y-80290559D01*
G37*
%TD.AperFunction*%
%TA.AperFunction,NonConductor*%
G36*
X113303886Y-78368801D02*
G01*
X113517369Y-78432304D01*
X113679714Y-78544655D01*
X113790921Y-78705856D01*
X113850990Y-78915905D01*
X113862225Y-79119115D01*
X113840731Y-79353588D01*
X113320983Y-79353588D01*
X113320311Y-79134746D01*
X113246141Y-78949122D01*
X113070448Y-78857775D01*
X113005421Y-78853378D01*
X112547221Y-78853378D01*
X112355258Y-78897892D01*
X112214074Y-78994062D01*
X112086579Y-79147691D01*
X112016726Y-79329163D01*
X111528240Y-81676826D01*
X111534575Y-81875884D01*
X111587835Y-81977733D01*
X111748020Y-82089732D01*
X111858456Y-82104739D01*
X112316656Y-82104739D01*
X112512183Y-82065172D01*
X112672316Y-81946470D01*
X112784942Y-81774523D01*
X112851059Y-81604530D01*
X113373739Y-81604530D01*
X113295963Y-81839003D01*
X113199411Y-82042213D01*
X113084082Y-82214160D01*
X112913518Y-82385130D01*
X112713616Y-82507251D01*
X112484375Y-82580524D01*
X112279860Y-82603972D01*
X112225798Y-82604949D01*
X111310375Y-82604949D01*
X111104081Y-82582383D01*
X110906588Y-82504378D01*
X110742487Y-82370655D01*
X110699768Y-82319673D01*
X110600000Y-82150000D01*
X110545160Y-81941173D01*
X110546216Y-81734955D01*
X110562015Y-81637747D01*
X111046593Y-79306693D01*
X111111362Y-79098132D01*
X111215544Y-78905490D01*
X111341238Y-78747617D01*
X111455944Y-78637468D01*
X111624716Y-78513087D01*
X111801792Y-78424244D01*
X112010929Y-78366773D01*
X112180857Y-78353169D01*
X113096279Y-78353169D01*
X113303886Y-78368801D01*
G37*
%TD.AperFunction*%
D11*
%TO.P,REF\u002A\u002A,1*%
%TO.N,GND*%
X81310000Y-71791723D03*
%TO.P,REF\u002A\u002A,2*%
X182460000Y-71791723D03*
%TO.P,REF\u002A\u002A,3*%
X81310000Y-109010000D03*
%TO.P,REF\u002A\u002A,4*%
X182460000Y-109010000D03*
%TD*%
%TA.AperFunction,Conductor*%
%TO.N,GND*%
G36*
X183304558Y-68710725D02*
G01*
X183571615Y-68726882D01*
X183586480Y-68728687D01*
X183845951Y-68776238D01*
X183860484Y-68779821D01*
X184112328Y-68858300D01*
X184126327Y-68863610D01*
X184366871Y-68971872D01*
X184380128Y-68978829D01*
X184605882Y-69115303D01*
X184618193Y-69123801D01*
X184733486Y-69214127D01*
X184825851Y-69286490D01*
X184837059Y-69296420D01*
X185023579Y-69482940D01*
X185033509Y-69494148D01*
X185196194Y-69701800D01*
X185204700Y-69714123D01*
X185341169Y-69939870D01*
X185348127Y-69953128D01*
X185456389Y-70193672D01*
X185461699Y-70207673D01*
X185540177Y-70459512D01*
X185543761Y-70474051D01*
X185591312Y-70733520D01*
X185593117Y-70748384D01*
X185609274Y-71015441D01*
X185609500Y-71022929D01*
X185609500Y-109697070D01*
X185609274Y-109704558D01*
X185593117Y-109971615D01*
X185591312Y-109986479D01*
X185543761Y-110245948D01*
X185540177Y-110260487D01*
X185461699Y-110512326D01*
X185456389Y-110526327D01*
X185348127Y-110766871D01*
X185341169Y-110780129D01*
X185204700Y-111005876D01*
X185196194Y-111018199D01*
X185033509Y-111225851D01*
X185023579Y-111237059D01*
X184837059Y-111423579D01*
X184825851Y-111433509D01*
X184618199Y-111596194D01*
X184605876Y-111604700D01*
X184380129Y-111741169D01*
X184366871Y-111748127D01*
X184126327Y-111856389D01*
X184112326Y-111861699D01*
X183860487Y-111940177D01*
X183845948Y-111943761D01*
X183586479Y-111991312D01*
X183571615Y-111993117D01*
X183304559Y-112009274D01*
X183297071Y-112009500D01*
X80440655Y-112009500D01*
X80433168Y-112009274D01*
X80163971Y-111992990D01*
X80149107Y-111991185D01*
X79887532Y-111943251D01*
X79872993Y-111939667D01*
X79619116Y-111860556D01*
X79605115Y-111855247D01*
X79362608Y-111746104D01*
X79349349Y-111739145D01*
X79121773Y-111601570D01*
X79109450Y-111593064D01*
X78900113Y-111429059D01*
X78888905Y-111419129D01*
X78700870Y-111231094D01*
X78690940Y-111219886D01*
X78679627Y-111205446D01*
X78526931Y-111010543D01*
X78518433Y-110998232D01*
X78380851Y-110770644D01*
X78373899Y-110757398D01*
X78264750Y-110514880D01*
X78259443Y-110500883D01*
X78180329Y-110246995D01*
X78176750Y-110232477D01*
X78128813Y-109970888D01*
X78127009Y-109956028D01*
X78110726Y-109686832D01*
X78110500Y-109679345D01*
X78110500Y-105178543D01*
X160739499Y-105178543D01*
X160777947Y-105371829D01*
X160777950Y-105371839D01*
X160853364Y-105553907D01*
X160853371Y-105553920D01*
X160962860Y-105717781D01*
X160962863Y-105717785D01*
X161102214Y-105857136D01*
X161102218Y-105857139D01*
X161266079Y-105966628D01*
X161266092Y-105966635D01*
X161448160Y-106042049D01*
X161448165Y-106042051D01*
X161448169Y-106042051D01*
X161448170Y-106042052D01*
X161641456Y-106080500D01*
X161641459Y-106080500D01*
X161838543Y-106080500D01*
X161968582Y-106054632D01*
X162031835Y-106042051D01*
X162213914Y-105966632D01*
X162377782Y-105857139D01*
X162517139Y-105717782D01*
X162626632Y-105553914D01*
X162702051Y-105371835D01*
X162740500Y-105178541D01*
X162740500Y-104981459D01*
X162740500Y-104981456D01*
X162702052Y-104788170D01*
X162702051Y-104788169D01*
X162702051Y-104788165D01*
X162702049Y-104788160D01*
X162626635Y-104606092D01*
X162626628Y-104606079D01*
X162517139Y-104442218D01*
X162517136Y-104442214D01*
X162377785Y-104302863D01*
X162377781Y-104302860D01*
X162213920Y-104193371D01*
X162213907Y-104193364D01*
X162031839Y-104117950D01*
X162031829Y-104117947D01*
X161838543Y-104079500D01*
X161838541Y-104079500D01*
X161641459Y-104079500D01*
X161641457Y-104079500D01*
X161448170Y-104117947D01*
X161448160Y-104117950D01*
X161266092Y-104193364D01*
X161266079Y-104193371D01*
X161102218Y-104302860D01*
X161102214Y-104302863D01*
X160962863Y-104442214D01*
X160962860Y-104442218D01*
X160853371Y-104606079D01*
X160853364Y-104606092D01*
X160777950Y-104788160D01*
X160777947Y-104788170D01*
X160739500Y-104981456D01*
X160739500Y-104981459D01*
X160739500Y-105178541D01*
X160739500Y-105178543D01*
X160739499Y-105178543D01*
X78110500Y-105178543D01*
X78110500Y-100057107D01*
X103589500Y-100057107D01*
X103589500Y-101808891D01*
X103623608Y-101936187D01*
X103656554Y-101993250D01*
X103689500Y-102050314D01*
X103782686Y-102143500D01*
X103881521Y-102200563D01*
X103896628Y-102209285D01*
X103896814Y-102209392D01*
X104024108Y-102243500D01*
X118854256Y-102243500D01*
X118854394Y-102243537D01*
X118919407Y-102243500D01*
X118985892Y-102243500D01*
X118985892Y-102243499D01*
X118986177Y-102243462D01*
X118986178Y-102243462D01*
X119048926Y-102226609D01*
X119113186Y-102209392D01*
X119113311Y-102209319D01*
X119113440Y-102209285D01*
X119113445Y-102209282D01*
X119113452Y-102209281D01*
X119150948Y-102187603D01*
X119169698Y-102176764D01*
X119169699Y-102176766D01*
X119169748Y-102176734D01*
X119227314Y-102143500D01*
X119227417Y-102143396D01*
X119227543Y-102143324D01*
X119273673Y-102097140D01*
X119320500Y-102050314D01*
X119320503Y-102050309D01*
X119320671Y-102050088D01*
X119320675Y-102050085D01*
X119353035Y-101993962D01*
X119353071Y-101993900D01*
X119379744Y-101947700D01*
X119386392Y-101936186D01*
X119386430Y-101936043D01*
X119386502Y-101935919D01*
X119403481Y-101872406D01*
X119420500Y-101808892D01*
X119420500Y-101808883D01*
X119420535Y-101808613D01*
X119420538Y-101808606D01*
X119420500Y-101742120D01*
X119420500Y-101677108D01*
X119420462Y-101676969D01*
X119419581Y-100133884D01*
X119419586Y-100058062D01*
X119389982Y-99909192D01*
X119331901Y-99768958D01*
X119247576Y-99642752D01*
X119140248Y-99535424D01*
X119014042Y-99451099D01*
X119014038Y-99451097D01*
X119014036Y-99451096D01*
X119014037Y-99451096D01*
X118873811Y-99393019D01*
X118873809Y-99393018D01*
X118873808Y-99393018D01*
X118724938Y-99363414D01*
X118650895Y-99363417D01*
X118650882Y-99363417D01*
X104433524Y-99362504D01*
X104433524Y-99362503D01*
X104425902Y-99362502D01*
X104425892Y-99362500D01*
X104360000Y-99362500D01*
X104356368Y-99362500D01*
X104356366Y-99362500D01*
X104356355Y-99362499D01*
X104286094Y-99362495D01*
X104286018Y-99362500D01*
X104284109Y-99362500D01*
X104135260Y-99392108D01*
X104135252Y-99392110D01*
X103995032Y-99450190D01*
X103868834Y-99534513D01*
X103761513Y-99641834D01*
X103677190Y-99768032D01*
X103619110Y-99908252D01*
X103619108Y-99908260D01*
X103589500Y-100057107D01*
X78110500Y-100057107D01*
X78110500Y-95593952D01*
X88749500Y-95593952D01*
X88749500Y-95886047D01*
X88782199Y-96176271D01*
X88782201Y-96176283D01*
X88782202Y-96176286D01*
X88793251Y-96224694D01*
X88847196Y-96461044D01*
X88847197Y-96461046D01*
X88943665Y-96736738D01*
X89070393Y-96999890D01*
X89070395Y-96999893D01*
X89225792Y-97247206D01*
X89407902Y-97475565D01*
X89614435Y-97682098D01*
X89842794Y-97864208D01*
X90090107Y-98019605D01*
X90353263Y-98146335D01*
X90628955Y-98242803D01*
X90913714Y-98307798D01*
X90913723Y-98307799D01*
X90913728Y-98307800D01*
X91107210Y-98329599D01*
X91203953Y-98340499D01*
X91203956Y-98340500D01*
X91203959Y-98340500D01*
X91496044Y-98340500D01*
X91496045Y-98340499D01*
X91677482Y-98320057D01*
X91786271Y-98307800D01*
X91786274Y-98307799D01*
X91786286Y-98307798D01*
X92071045Y-98242803D01*
X92346737Y-98146335D01*
X92609893Y-98019605D01*
X92857206Y-97864208D01*
X93085565Y-97682098D01*
X93292098Y-97475565D01*
X93474208Y-97247206D01*
X93629605Y-96999893D01*
X93756335Y-96736737D01*
X93852803Y-96461045D01*
X93917798Y-96176286D01*
X93950500Y-95886041D01*
X93950500Y-95593959D01*
X93939599Y-95497210D01*
X93917800Y-95303728D01*
X93917799Y-95303723D01*
X93917798Y-95303714D01*
X93852803Y-95018955D01*
X93756335Y-94743263D01*
X93629605Y-94480107D01*
X93474208Y-94232794D01*
X93292098Y-94004435D01*
X93085565Y-93797902D01*
X92857206Y-93615792D01*
X92658430Y-93490893D01*
X92609890Y-93460393D01*
X92346738Y-93333665D01*
X92071046Y-93237197D01*
X92071044Y-93237196D01*
X91851280Y-93187036D01*
X91786286Y-93172202D01*
X91786283Y-93172201D01*
X91786271Y-93172199D01*
X91496047Y-93139500D01*
X91496041Y-93139500D01*
X91203959Y-93139500D01*
X91203952Y-93139500D01*
X90913728Y-93172199D01*
X90913714Y-93172202D01*
X90628955Y-93237196D01*
X90628953Y-93237197D01*
X90353261Y-93333665D01*
X90090109Y-93460393D01*
X89842795Y-93615791D01*
X89614435Y-93797901D01*
X89407901Y-94004435D01*
X89225791Y-94232795D01*
X89070393Y-94480109D01*
X88943665Y-94743261D01*
X88847197Y-95018953D01*
X88847196Y-95018955D01*
X88782202Y-95303714D01*
X88782199Y-95303728D01*
X88749500Y-95593952D01*
X78110500Y-95593952D01*
X78110500Y-91048689D01*
X104003391Y-91048689D01*
X104003391Y-91221310D01*
X104028809Y-91381790D01*
X104030393Y-91391790D01*
X104080484Y-91545954D01*
X104083734Y-91555954D01*
X104162095Y-91709746D01*
X104162096Y-91709748D01*
X104263549Y-91849389D01*
X104385610Y-91971450D01*
X104479419Y-92039605D01*
X104525252Y-92072904D01*
X104679048Y-92151267D01*
X104843210Y-92204607D01*
X104907141Y-92214732D01*
X105013690Y-92231609D01*
X105013695Y-92231609D01*
X105186310Y-92231609D01*
X105281018Y-92216607D01*
X105356790Y-92204607D01*
X105520952Y-92151267D01*
X105674748Y-92072904D01*
X105814393Y-91971447D01*
X105936447Y-91849393D01*
X106037904Y-91709748D01*
X106116267Y-91555952D01*
X106169607Y-91391790D01*
X106181607Y-91316018D01*
X106196609Y-91221310D01*
X106196609Y-91048688D01*
X106196608Y-91048687D01*
X106195024Y-91038689D01*
X116643391Y-91038689D01*
X116643391Y-91211310D01*
X116670392Y-91381786D01*
X116670393Y-91381790D01*
X116715408Y-91520332D01*
X116723734Y-91545954D01*
X116802095Y-91699746D01*
X116802096Y-91699748D01*
X116903549Y-91839389D01*
X117025610Y-91961450D01*
X117095989Y-92012582D01*
X117165252Y-92062904D01*
X117319048Y-92141267D01*
X117483210Y-92194607D01*
X117546348Y-92204607D01*
X117653690Y-92221609D01*
X117653695Y-92221609D01*
X117826310Y-92221609D01*
X117921018Y-92206607D01*
X117996790Y-92194607D01*
X118160952Y-92141267D01*
X118314748Y-92062904D01*
X118454393Y-91961447D01*
X118576447Y-91839393D01*
X118677904Y-91699748D01*
X118756267Y-91545952D01*
X118809607Y-91381790D01*
X118821607Y-91306018D01*
X118836609Y-91211310D01*
X118836609Y-91038689D01*
X118811191Y-90878213D01*
X118809607Y-90868210D01*
X118756267Y-90704048D01*
X118677904Y-90550252D01*
X118614947Y-90463598D01*
X118576450Y-90410610D01*
X118454389Y-90288549D01*
X118314748Y-90187096D01*
X118314746Y-90187095D01*
X118160954Y-90108734D01*
X118160953Y-90108733D01*
X118160952Y-90108733D01*
X117996790Y-90055393D01*
X117996788Y-90055392D01*
X117996786Y-90055392D01*
X117826310Y-90028391D01*
X117826305Y-90028391D01*
X117653695Y-90028391D01*
X117653690Y-90028391D01*
X117483213Y-90055392D01*
X117319045Y-90108734D01*
X117165253Y-90187095D01*
X117165251Y-90187096D01*
X117025610Y-90288549D01*
X116903549Y-90410610D01*
X116802096Y-90550251D01*
X116802095Y-90550253D01*
X116723734Y-90704045D01*
X116670392Y-90868213D01*
X116643391Y-91038689D01*
X106195024Y-91038689D01*
X106169607Y-90878213D01*
X106169607Y-90878210D01*
X106116267Y-90714048D01*
X106037904Y-90560252D01*
X106012539Y-90525340D01*
X105936450Y-90420610D01*
X105814389Y-90298549D01*
X105674748Y-90197096D01*
X105674746Y-90197095D01*
X105520954Y-90118734D01*
X105520953Y-90118733D01*
X105520952Y-90118733D01*
X105356790Y-90065393D01*
X105356788Y-90065392D01*
X105356786Y-90065392D01*
X105186310Y-90038391D01*
X105186305Y-90038391D01*
X105013695Y-90038391D01*
X105013690Y-90038391D01*
X104843213Y-90065392D01*
X104679045Y-90118734D01*
X104525253Y-90197095D01*
X104525251Y-90197096D01*
X104385610Y-90298549D01*
X104263549Y-90420610D01*
X104162096Y-90560251D01*
X104162095Y-90560253D01*
X104083734Y-90714045D01*
X104030392Y-90878213D01*
X104003391Y-91048689D01*
X78110500Y-91048689D01*
X78110500Y-88609484D01*
X125695483Y-88609484D01*
X125695483Y-100590516D01*
X125695705Y-100605498D01*
X125697882Y-100678801D01*
X125714882Y-100794622D01*
X125714882Y-100794626D01*
X125714884Y-100794632D01*
X125752830Y-100936253D01*
X125752831Y-100936254D01*
X125752834Y-100936264D01*
X125798608Y-101046770D01*
X125803332Y-101058175D01*
X125876642Y-101185151D01*
X125876645Y-101185155D01*
X125876649Y-101185161D01*
X125956975Y-101289842D01*
X125956983Y-101289851D01*
X126060641Y-101393509D01*
X126060649Y-101393516D01*
X126060650Y-101393517D01*
X126076239Y-101405479D01*
X126165330Y-101473842D01*
X126165333Y-101473844D01*
X126165341Y-101473850D01*
X126292317Y-101547160D01*
X126414237Y-101597661D01*
X126555860Y-101635608D01*
X126671686Y-101652609D01*
X126720558Y-101654060D01*
X126744993Y-101654786D01*
X126759976Y-101655009D01*
X126760000Y-101655009D01*
X131360024Y-101655009D01*
X131375006Y-101654786D01*
X131448296Y-101652610D01*
X131448302Y-101652609D01*
X131448314Y-101652609D01*
X131496965Y-101645467D01*
X131564133Y-101635609D01*
X131564137Y-101635607D01*
X131564143Y-101635607D01*
X131705766Y-101597659D01*
X131827680Y-101547161D01*
X131954656Y-101473852D01*
X132059352Y-101393516D01*
X132163027Y-101289840D01*
X132243357Y-101185151D01*
X132316667Y-101058176D01*
X132367169Y-100936254D01*
X132405116Y-100794630D01*
X132422117Y-100678805D01*
X132424294Y-100605496D01*
X132424517Y-100590515D01*
X132424517Y-95910731D01*
X133983740Y-95910731D01*
X133983740Y-96247748D01*
X134021471Y-96582620D01*
X134021473Y-96582636D01*
X134096463Y-96911190D01*
X134096467Y-96911202D01*
X134207768Y-97229280D01*
X134207777Y-97229302D01*
X134353989Y-97532915D01*
X134430389Y-97654505D01*
X134533292Y-97818273D01*
X134743413Y-98081757D01*
X134981713Y-98320057D01*
X135245197Y-98530178D01*
X135530549Y-98709477D01*
X135530554Y-98709480D01*
X135834167Y-98855692D01*
X135834176Y-98855695D01*
X135834183Y-98855699D01*
X135834189Y-98855701D01*
X136152267Y-98967002D01*
X136152279Y-98967006D01*
X136480837Y-99041997D01*
X136815722Y-99079729D01*
X136815723Y-99079730D01*
X136815726Y-99079730D01*
X137152737Y-99079730D01*
X137152737Y-99079729D01*
X137487623Y-99041997D01*
X137816181Y-98967006D01*
X138134277Y-98855699D01*
X138210916Y-98818792D01*
X138437905Y-98709480D01*
X138437905Y-98709479D01*
X138437911Y-98709477D01*
X138723263Y-98530178D01*
X138986747Y-98320057D01*
X139225047Y-98081757D01*
X139261580Y-98035946D01*
X139305904Y-97980366D01*
X139363092Y-97940225D01*
X139432903Y-97937375D01*
X139493174Y-97972720D01*
X139524767Y-98035039D01*
X139524932Y-98035946D01*
X139772604Y-99427243D01*
X139772640Y-99427437D01*
X139772967Y-99429273D01*
X139791060Y-99548198D01*
X139807339Y-99619770D01*
X139807519Y-99620155D01*
X139807550Y-99620352D01*
X139810269Y-99629323D01*
X139810270Y-99629325D01*
X139895112Y-99909192D01*
X139929980Y-100024212D01*
X139929983Y-100024219D01*
X139964612Y-100106802D01*
X139966810Y-100112424D01*
X139968716Y-100117673D01*
X140100635Y-100364403D01*
X140201898Y-100553796D01*
X140203159Y-100556130D01*
X140204014Y-100557711D01*
X140204016Y-100557715D01*
X140228380Y-100590261D01*
X140235188Y-100600352D01*
X140257918Y-100637897D01*
X140257920Y-100637899D01*
X140571609Y-101020169D01*
X140618089Y-101069627D01*
X140620009Y-101070959D01*
X140640835Y-101089159D01*
X140643243Y-101091792D01*
X140643248Y-101091797D01*
X141025513Y-101405482D01*
X141025522Y-101405488D01*
X141087343Y-101448915D01*
X141093259Y-101452174D01*
X141093105Y-101452453D01*
X141105631Y-101459529D01*
X141105867Y-101459156D01*
X141109605Y-101461512D01*
X141109610Y-101461515D01*
X141109612Y-101461516D01*
X141545732Y-101694686D01*
X141627694Y-101728213D01*
X141633201Y-101730625D01*
X141639143Y-101733403D01*
X142112343Y-101876913D01*
X142116634Y-101878194D01*
X142139726Y-101881514D01*
X142157483Y-101884067D01*
X142169382Y-101886375D01*
X142211733Y-101896766D01*
X142703733Y-101945026D01*
X142747175Y-101947151D01*
X142750386Y-101947458D01*
X142750391Y-101947388D01*
X142754794Y-101947698D01*
X142754808Y-101947700D01*
X156110857Y-101935589D01*
X156119851Y-101935909D01*
X156130420Y-101936669D01*
X156133048Y-101937571D01*
X156159132Y-101938737D01*
X156160797Y-101938857D01*
X156161621Y-101939164D01*
X156175867Y-101940877D01*
X156200600Y-101945752D01*
X156230156Y-101943053D01*
X156246957Y-101942664D01*
X156276785Y-101943999D01*
X156756845Y-101896749D01*
X156781136Y-101893373D01*
X156796854Y-101891190D01*
X156796855Y-101891189D01*
X156796859Y-101891189D01*
X156815995Y-101884828D01*
X156836365Y-101879925D01*
X156856077Y-101876913D01*
X157329277Y-101733403D01*
X157410421Y-101699368D01*
X157416006Y-101697184D01*
X157423049Y-101694627D01*
X157858909Y-101461457D01*
X157859815Y-101460971D01*
X157894221Y-101435563D01*
X157903648Y-101429248D01*
X157942907Y-101405482D01*
X158325177Y-101091792D01*
X158373274Y-101046770D01*
X158375289Y-101043888D01*
X158393226Y-101023446D01*
X158396812Y-101020167D01*
X158710502Y-100637897D01*
X158756908Y-100571013D01*
X158756910Y-100571006D01*
X158760200Y-100564912D01*
X158760481Y-100565063D01*
X158765049Y-100556130D01*
X158766520Y-100553796D01*
X158766526Y-100553788D01*
X158999696Y-100117668D01*
X159033118Y-100035960D01*
X159035534Y-100030445D01*
X159038424Y-100024265D01*
X159181934Y-99551055D01*
X159183214Y-99546766D01*
X159189118Y-99505696D01*
X159189827Y-99501327D01*
X159190504Y-99497575D01*
X159201790Y-99451515D01*
X159205256Y-99416059D01*
X159446519Y-98040144D01*
X159477487Y-97977513D01*
X159537400Y-97941566D01*
X159607236Y-97943716D01*
X159664824Y-97983282D01*
X159665603Y-97984249D01*
X159693798Y-98019605D01*
X159743363Y-98081757D01*
X159981663Y-98320057D01*
X160245147Y-98530178D01*
X160530499Y-98709477D01*
X160530504Y-98709480D01*
X160834117Y-98855692D01*
X160834126Y-98855695D01*
X160834133Y-98855699D01*
X160834139Y-98855701D01*
X161152217Y-98967002D01*
X161152229Y-98967006D01*
X161480787Y-99041997D01*
X161815672Y-99079729D01*
X161815673Y-99079730D01*
X161815676Y-99079730D01*
X162152687Y-99079730D01*
X162152687Y-99079729D01*
X162487573Y-99041997D01*
X162816131Y-98967006D01*
X163134227Y-98855699D01*
X163210866Y-98818792D01*
X163437855Y-98709480D01*
X163437855Y-98709479D01*
X163437861Y-98709477D01*
X163723213Y-98530178D01*
X163986697Y-98320057D01*
X164224997Y-98081757D01*
X164435118Y-97818273D01*
X164550935Y-97633952D01*
X168919500Y-97633952D01*
X168919500Y-97926047D01*
X168952199Y-98216271D01*
X168952201Y-98216283D01*
X168952202Y-98216286D01*
X168967036Y-98281280D01*
X169017196Y-98501044D01*
X169017197Y-98501046D01*
X169113665Y-98776738D01*
X169240393Y-99039890D01*
X169240395Y-99039893D01*
X169395792Y-99287206D01*
X169479450Y-99392110D01*
X169566547Y-99501327D01*
X169577902Y-99515565D01*
X169784435Y-99722098D01*
X170012794Y-99904208D01*
X170260107Y-100059605D01*
X170523263Y-100186335D01*
X170798955Y-100282803D01*
X171083714Y-100347798D01*
X171083723Y-100347799D01*
X171083728Y-100347800D01*
X171277210Y-100369599D01*
X171373953Y-100380499D01*
X171373956Y-100380500D01*
X171373959Y-100380500D01*
X171666044Y-100380500D01*
X171666045Y-100380499D01*
X171816791Y-100363515D01*
X171956271Y-100347800D01*
X171956274Y-100347799D01*
X171956286Y-100347798D01*
X172241045Y-100282803D01*
X172516737Y-100186335D01*
X172779893Y-100059605D01*
X173027206Y-99904208D01*
X173255565Y-99722098D01*
X173462098Y-99515565D01*
X173644208Y-99287206D01*
X173799605Y-99039893D01*
X173926335Y-98776737D01*
X174022803Y-98501045D01*
X174087798Y-98216286D01*
X174095680Y-98146335D01*
X174109958Y-98019605D01*
X174120500Y-97926041D01*
X174120500Y-97633959D01*
X174087798Y-97343714D01*
X174022803Y-97058955D01*
X173926335Y-96783263D01*
X173799605Y-96520107D01*
X173644208Y-96272794D01*
X173462098Y-96044435D01*
X173255565Y-95837902D01*
X173027206Y-95655792D01*
X172779893Y-95500395D01*
X172779890Y-95500393D01*
X172516738Y-95373665D01*
X172241046Y-95277197D01*
X172241044Y-95277196D01*
X172021280Y-95227036D01*
X171956286Y-95212202D01*
X171956283Y-95212201D01*
X171956271Y-95212199D01*
X171666047Y-95179500D01*
X171666041Y-95179500D01*
X171373959Y-95179500D01*
X171373952Y-95179500D01*
X171083728Y-95212199D01*
X171083714Y-95212202D01*
X170798955Y-95277196D01*
X170798953Y-95277197D01*
X170523261Y-95373665D01*
X170260109Y-95500393D01*
X170012795Y-95655791D01*
X169784435Y-95837901D01*
X169577901Y-96044435D01*
X169395791Y-96272795D01*
X169240393Y-96520109D01*
X169113665Y-96783261D01*
X169017197Y-97058953D01*
X169017196Y-97058955D01*
X168952202Y-97343714D01*
X168952199Y-97343728D01*
X168919500Y-97633952D01*
X164550935Y-97633952D01*
X164614417Y-97532921D01*
X164760639Y-97229287D01*
X164871946Y-96911191D01*
X164946937Y-96582633D01*
X164984670Y-96247744D01*
X164984670Y-95910736D01*
X164946937Y-95575847D01*
X164871946Y-95247289D01*
X164859668Y-95212202D01*
X164760641Y-94929199D01*
X164760632Y-94929177D01*
X164614420Y-94625564D01*
X164457735Y-94376202D01*
X164435118Y-94340207D01*
X164224997Y-94076723D01*
X163986697Y-93838423D01*
X163723213Y-93628302D01*
X163554320Y-93522179D01*
X163437855Y-93448999D01*
X163134242Y-93302787D01*
X163134220Y-93302778D01*
X162816142Y-93191477D01*
X162816130Y-93191473D01*
X162487576Y-93116483D01*
X162487560Y-93116481D01*
X162152688Y-93078750D01*
X162152684Y-93078750D01*
X161815676Y-93078750D01*
X161815671Y-93078750D01*
X161480799Y-93116481D01*
X161480783Y-93116483D01*
X161152229Y-93191473D01*
X161152217Y-93191477D01*
X160834139Y-93302778D01*
X160834117Y-93302787D01*
X160530504Y-93448999D01*
X160430263Y-93511985D01*
X160419227Y-93515103D01*
X160410202Y-93522179D01*
X160386213Y-93524432D01*
X160363026Y-93530985D01*
X160352054Y-93527641D01*
X160340639Y-93528714D01*
X160319240Y-93517641D01*
X160296191Y-93510617D01*
X160288770Y-93501874D01*
X160278585Y-93496604D01*
X160266568Y-93475718D01*
X160250977Y-93457349D01*
X160248564Y-93444424D01*
X160243742Y-93436042D01*
X160241824Y-93408316D01*
X160240441Y-93400902D01*
X160240590Y-93397856D01*
X160250265Y-93299844D01*
X160252382Y-93268390D01*
X160248692Y-93233971D01*
X160250270Y-93198549D01*
X160201750Y-92706549D01*
X160196200Y-92666633D01*
X160189896Y-92647666D01*
X160184992Y-92627303D01*
X160181901Y-92607093D01*
X160064931Y-92221609D01*
X160038391Y-92134142D01*
X160036624Y-92129682D01*
X160014134Y-92072903D01*
X160007696Y-92056649D01*
X160007196Y-92055639D01*
X160000090Y-92041286D01*
X160000090Y-92041285D01*
X159999266Y-92039622D01*
X159999265Y-92039619D01*
X159999258Y-92039605D01*
X159989331Y-92019553D01*
X159984742Y-92012582D01*
X159766517Y-91604415D01*
X159766187Y-91603805D01*
X159764407Y-91600510D01*
X159739953Y-91567844D01*
X159733143Y-91557749D01*
X159710493Y-91520334D01*
X159710491Y-91520332D01*
X159710489Y-91520330D01*
X159396802Y-91138063D01*
X159385732Y-91126237D01*
X159351786Y-91089972D01*
X159351784Y-91089970D01*
X159351780Y-91089966D01*
X159351773Y-91089961D01*
X159348790Y-91087874D01*
X159328401Y-91069993D01*
X159325016Y-91066295D01*
X158942757Y-90752873D01*
X158942745Y-90752865D01*
X158922391Y-90739669D01*
X158881961Y-90713457D01*
X158875994Y-90709335D01*
X158858916Y-90696777D01*
X158423056Y-90463597D01*
X158423049Y-90463594D01*
X158423047Y-90463593D01*
X158339025Y-90429209D01*
X158333504Y-90426792D01*
X158331532Y-90425870D01*
X158329275Y-90424816D01*
X158329272Y-90424815D01*
X158329270Y-90424814D01*
X158329271Y-90424814D01*
X157856064Y-90281305D01*
X157800949Y-90272182D01*
X157791594Y-90270260D01*
X157779509Y-90267289D01*
X157756938Y-90261739D01*
X157264975Y-90213222D01*
X157264930Y-90213219D01*
X157215333Y-90210780D01*
X157215330Y-90210780D01*
X157213929Y-90210780D01*
X155329804Y-90212235D01*
X141857579Y-90222642D01*
X141847801Y-90222263D01*
X141837615Y-90221465D01*
X141835116Y-90220610D01*
X141815782Y-90219755D01*
X141813672Y-90219590D01*
X141812599Y-90219181D01*
X141797865Y-90217321D01*
X141783358Y-90214274D01*
X141777712Y-90213088D01*
X141777709Y-90213087D01*
X141761848Y-90214221D01*
X141761119Y-90214274D01*
X141752277Y-90214590D01*
X141701679Y-90214590D01*
X141696203Y-90214469D01*
X141691385Y-90214256D01*
X141691372Y-90214256D01*
X141211315Y-90261755D01*
X141171567Y-90267289D01*
X141171553Y-90267292D01*
X141153865Y-90273170D01*
X141133506Y-90278072D01*
X141112341Y-90281307D01*
X140639145Y-90424816D01*
X140557969Y-90458861D01*
X140552360Y-90461054D01*
X140545368Y-90463594D01*
X140545359Y-90463598D01*
X140109455Y-90696803D01*
X140108610Y-90697255D01*
X140108602Y-90697261D01*
X140093151Y-90708670D01*
X140087160Y-90712827D01*
X140025673Y-90752866D01*
X139643412Y-91066288D01*
X139643404Y-91066295D01*
X139643402Y-91066297D01*
X139618212Y-91089961D01*
X139593779Y-91112913D01*
X139593776Y-91112916D01*
X139592461Y-91114813D01*
X139574277Y-91135621D01*
X139571609Y-91138061D01*
X139571607Y-91138063D01*
X139257919Y-91520330D01*
X139257918Y-91520331D01*
X139212095Y-91586214D01*
X139208810Y-91592278D01*
X139208572Y-91592149D01*
X139203922Y-91601213D01*
X139201898Y-91604424D01*
X138968724Y-92040552D01*
X138934531Y-92124137D01*
X138932103Y-92129682D01*
X138930021Y-92134136D01*
X138930018Y-92134143D01*
X138786482Y-92607179D01*
X138785206Y-92611451D01*
X138785203Y-92611464D01*
X138779247Y-92652886D01*
X138776924Y-92664839D01*
X138766669Y-92706550D01*
X138718150Y-93198538D01*
X138718150Y-93198556D01*
X138719230Y-93224359D01*
X138720337Y-93250774D01*
X138718158Y-93299882D01*
X138727826Y-93397759D01*
X138727977Y-93400736D01*
X138720504Y-93431939D01*
X138714535Y-93463463D01*
X138712420Y-93465694D01*
X138711705Y-93468684D01*
X138688550Y-93490893D01*
X138666484Y-93514187D01*
X138663499Y-93514921D01*
X138661281Y-93517049D01*
X138629793Y-93523214D01*
X138598638Y-93530880D01*
X138595557Y-93529918D01*
X138592713Y-93530475D01*
X138575641Y-93523699D01*
X138538164Y-93511996D01*
X138437911Y-93449003D01*
X138437912Y-93449003D01*
X138437905Y-93448999D01*
X138134292Y-93302787D01*
X138134270Y-93302778D01*
X137816192Y-93191477D01*
X137816180Y-93191473D01*
X137487626Y-93116483D01*
X137487610Y-93116481D01*
X137152738Y-93078750D01*
X137152734Y-93078750D01*
X136815726Y-93078750D01*
X136815721Y-93078750D01*
X136480849Y-93116481D01*
X136480833Y-93116483D01*
X136152279Y-93191473D01*
X136152267Y-93191477D01*
X135834189Y-93302778D01*
X135834167Y-93302787D01*
X135530554Y-93448999D01*
X135245198Y-93628301D01*
X134981713Y-93838422D01*
X134743412Y-94076723D01*
X134533291Y-94340208D01*
X134353989Y-94625564D01*
X134207777Y-94929177D01*
X134207768Y-94929199D01*
X134096467Y-95247277D01*
X134096463Y-95247289D01*
X134021473Y-95575843D01*
X134021471Y-95575859D01*
X133983740Y-95910731D01*
X132424517Y-95910731D01*
X132424517Y-88609504D01*
X132424487Y-88607521D01*
X132424291Y-88594401D01*
X132422099Y-88521092D01*
X132405104Y-88405381D01*
X132367161Y-88263759D01*
X132316663Y-88141837D01*
X132243357Y-88014861D01*
X132243354Y-88014858D01*
X132243353Y-88014855D01*
X132163028Y-87910169D01*
X132163018Y-87910158D01*
X132059354Y-87806492D01*
X132059345Y-87806484D01*
X131954661Y-87726156D01*
X131954655Y-87726152D01*
X131905396Y-87697711D01*
X131827685Y-87652844D01*
X131705765Y-87602342D01*
X131705763Y-87602341D01*
X131705762Y-87602341D01*
X131564134Y-87564391D01*
X131564135Y-87564391D01*
X131448325Y-87547393D01*
X131448296Y-87547390D01*
X131375006Y-87545214D01*
X131360024Y-87544992D01*
X131360000Y-87544992D01*
X126760000Y-87544992D01*
X126759976Y-87544992D01*
X126744993Y-87545214D01*
X126671690Y-87547391D01*
X126555869Y-87564391D01*
X126555865Y-87564391D01*
X126414237Y-87602340D01*
X126414227Y-87602343D01*
X126292320Y-87652839D01*
X126292316Y-87652841D01*
X126165341Y-87726151D01*
X126165330Y-87726158D01*
X126060649Y-87806484D01*
X125956975Y-87910158D01*
X125876649Y-88014839D01*
X125876642Y-88014850D01*
X125803332Y-88141825D01*
X125803330Y-88141829D01*
X125752834Y-88263736D01*
X125752831Y-88263746D01*
X125714882Y-88405374D01*
X125714882Y-88405378D01*
X125697882Y-88521199D01*
X125695705Y-88594502D01*
X125695483Y-88609484D01*
X78110500Y-88609484D01*
X78110500Y-83123952D01*
X88749500Y-83123952D01*
X88749500Y-83416047D01*
X88782199Y-83706271D01*
X88782202Y-83706285D01*
X88847196Y-83991044D01*
X88847197Y-83991046D01*
X88943665Y-84266738D01*
X89070393Y-84529890D01*
X89070395Y-84529893D01*
X89225792Y-84777206D01*
X89407902Y-85005565D01*
X89614435Y-85212098D01*
X89842794Y-85394208D01*
X90090107Y-85549605D01*
X90353263Y-85676335D01*
X90628955Y-85772803D01*
X90913714Y-85837798D01*
X90913723Y-85837799D01*
X90913728Y-85837800D01*
X91107210Y-85859599D01*
X91203953Y-85870499D01*
X91203956Y-85870500D01*
X91203959Y-85870500D01*
X91496044Y-85870500D01*
X91496045Y-85870499D01*
X91644371Y-85853787D01*
X91786271Y-85837800D01*
X91786274Y-85837799D01*
X91786286Y-85837798D01*
X92071045Y-85772803D01*
X92346737Y-85676335D01*
X92609893Y-85549605D01*
X92857206Y-85394208D01*
X93085565Y-85212098D01*
X93292098Y-85005565D01*
X93474208Y-84777206D01*
X93629605Y-84529893D01*
X93756335Y-84266737D01*
X93852803Y-83991045D01*
X93917798Y-83706286D01*
X93950500Y-83416041D01*
X93950500Y-83123959D01*
X93937246Y-83006321D01*
X93917800Y-82833728D01*
X93917799Y-82833723D01*
X93917798Y-82833714D01*
X93852803Y-82548955D01*
X93851233Y-82544469D01*
X93845676Y-82528585D01*
X93845671Y-82528572D01*
X93833225Y-82493003D01*
X99030404Y-82493003D01*
X99030404Y-82493009D01*
X99030404Y-82636889D01*
X99067293Y-82762522D01*
X99070941Y-82774943D01*
X99148726Y-82895979D01*
X99148730Y-82895983D01*
X99255793Y-82988754D01*
X99257465Y-82990203D01*
X99297933Y-83008684D01*
X99388339Y-83049972D01*
X99388342Y-83049972D01*
X99388343Y-83049973D01*
X99530759Y-83070449D01*
X99530762Y-83070449D01*
X100051482Y-83070449D01*
X100051485Y-83070449D01*
X100163518Y-83057878D01*
X100297854Y-83006347D01*
X100412231Y-82919058D01*
X100497382Y-82803080D01*
X100546409Y-82667810D01*
X100789477Y-81498265D01*
X100822391Y-81436636D01*
X100883401Y-81402583D01*
X100953136Y-81406920D01*
X101009456Y-81448270D01*
X101009477Y-81448297D01*
X101401266Y-81961955D01*
X101467027Y-82032909D01*
X101467029Y-82032910D01*
X101587004Y-82112325D01*
X101587011Y-82112328D01*
X101630209Y-82125648D01*
X101724497Y-82154724D01*
X101868364Y-82156670D01*
X101868364Y-82156669D01*
X101868365Y-82156670D01*
X102006952Y-82118004D01*
X102016057Y-82112325D01*
X102129032Y-82041860D01*
X102635580Y-81614784D01*
X102699521Y-81586623D01*
X102768538Y-81597500D01*
X102820719Y-81643965D01*
X102839496Y-81711264D01*
X102836914Y-81734814D01*
X102824979Y-81792255D01*
X102685795Y-82462112D01*
X102680369Y-82493009D01*
X102680369Y-82636889D01*
X102717258Y-82762522D01*
X102720906Y-82774943D01*
X102798691Y-82895979D01*
X102798695Y-82895983D01*
X102905758Y-82988754D01*
X102907430Y-82990203D01*
X102947898Y-83008684D01*
X103038304Y-83049972D01*
X103038307Y-83049972D01*
X103038308Y-83049973D01*
X103180724Y-83070449D01*
X103180727Y-83070449D01*
X104159647Y-83070449D01*
X104159650Y-83070449D01*
X104271736Y-83057866D01*
X104292309Y-83049972D01*
X104406063Y-83006322D01*
X104406062Y-83006322D01*
X104406066Y-83006321D01*
X104520434Y-82919019D01*
X104605572Y-82803032D01*
X104654585Y-82667757D01*
X104654585Y-82667753D01*
X104654587Y-82667750D01*
X104806052Y-81938577D01*
X110039666Y-81938577D01*
X110056238Y-82069571D01*
X110111077Y-82278394D01*
X110111081Y-82278405D01*
X110164245Y-82406217D01*
X110164250Y-82406227D01*
X110197111Y-82462112D01*
X110261241Y-82571177D01*
X110264020Y-82575902D01*
X110264021Y-82575904D01*
X110312300Y-82644324D01*
X110312303Y-82644329D01*
X110312307Y-82644334D01*
X110312308Y-82644335D01*
X110355027Y-82695317D01*
X110423160Y-82762523D01*
X110587261Y-82896246D01*
X110595952Y-82903171D01*
X110658023Y-82938625D01*
X110720882Y-82974530D01*
X110720883Y-82974530D01*
X110720888Y-82974533D01*
X110918381Y-83052538D01*
X111049113Y-83084886D01*
X111255407Y-83107452D01*
X111310375Y-83110449D01*
X111310376Y-83110449D01*
X112225788Y-83110449D01*
X112225798Y-83110449D01*
X112234932Y-83110366D01*
X112288994Y-83109389D01*
X112289009Y-83109388D01*
X112289017Y-83109388D01*
X112321151Y-83107260D01*
X112337439Y-83106182D01*
X112541954Y-83082734D01*
X112638279Y-83062026D01*
X112848052Y-82994975D01*
X112867517Y-82988754D01*
X112867517Y-82988753D01*
X112867520Y-82988753D01*
X112977144Y-82938625D01*
X113177046Y-82816504D01*
X113271385Y-82742147D01*
X113441949Y-82571177D01*
X113503896Y-82495739D01*
X113619225Y-82323792D01*
X113645047Y-82278396D01*
X113655986Y-82259166D01*
X113655989Y-82259160D01*
X113655989Y-82259158D01*
X113655994Y-82259151D01*
X113752546Y-82055941D01*
X113775756Y-81998153D01*
X113853532Y-81763680D01*
X113874094Y-81676470D01*
X113874094Y-81532590D01*
X113870452Y-81520188D01*
X113849335Y-81448270D01*
X113833558Y-81394538D01*
X113820510Y-81374235D01*
X113755771Y-81273499D01*
X113755767Y-81273495D01*
X113647038Y-81179280D01*
X113647036Y-81179278D01*
X113647033Y-81179276D01*
X113647029Y-81179274D01*
X113516158Y-81119506D01*
X113516153Y-81119505D01*
X113373739Y-81099030D01*
X112851059Y-81099030D01*
X112822027Y-81099864D01*
X112681022Y-81128486D01*
X112681021Y-81128486D01*
X112553791Y-81195675D01*
X112450647Y-81295983D01*
X112379937Y-81421296D01*
X112341474Y-81520188D01*
X112328471Y-81537061D01*
X112319621Y-81556442D01*
X112307569Y-81564187D01*
X112298827Y-81575532D01*
X112278766Y-81582697D01*
X112260843Y-81594216D01*
X112236866Y-81597663D01*
X112233029Y-81599034D01*
X112225908Y-81599239D01*
X112213167Y-81599239D01*
X112146128Y-81579554D01*
X112100373Y-81526750D01*
X112090429Y-81457592D01*
X112091767Y-81449979D01*
X112158661Y-81128486D01*
X112501197Y-79482254D01*
X112506874Y-79462973D01*
X112516360Y-79438331D01*
X112558815Y-79382838D01*
X112624531Y-79359108D01*
X112632082Y-79358878D01*
X112708233Y-79358878D01*
X112775272Y-79378563D01*
X112821027Y-79431367D01*
X112827210Y-79447943D01*
X112861164Y-79563580D01*
X112861165Y-79563582D01*
X112938950Y-79684618D01*
X112938954Y-79684622D01*
X113030841Y-79764243D01*
X113047689Y-79778842D01*
X113088157Y-79797323D01*
X113178563Y-79838611D01*
X113178566Y-79838611D01*
X113178567Y-79838612D01*
X113320983Y-79859088D01*
X113320986Y-79859088D01*
X113840735Y-79859088D01*
X113866695Y-79858421D01*
X114007871Y-79830657D01*
X114135507Y-79764243D01*
X114239261Y-79664561D01*
X114310729Y-79539685D01*
X114344120Y-79399733D01*
X114365614Y-79165260D01*
X114366954Y-79091210D01*
X114355719Y-78888000D01*
X114337007Y-78776916D01*
X114276938Y-78566867D01*
X114271030Y-78547662D01*
X114213938Y-78432744D01*
X114207019Y-78418817D01*
X114207007Y-78418797D01*
X114095814Y-78257616D01*
X114072833Y-78226870D01*
X113967375Y-78128985D01*
X113805070Y-78016662D01*
X113805056Y-78016653D01*
X113805032Y-78016636D01*
X113792161Y-78008017D01*
X113661495Y-77947786D01*
X113538404Y-77911171D01*
X113448013Y-77884283D01*
X113448014Y-77884283D01*
X113424755Y-77879999D01*
X135969499Y-77879999D01*
X135969499Y-87080002D01*
X135974643Y-87151940D01*
X136015181Y-87289994D01*
X136092966Y-87411030D01*
X136092970Y-87411034D01*
X136201699Y-87505249D01*
X136201705Y-87505254D01*
X136242173Y-87523735D01*
X136332579Y-87565023D01*
X136332582Y-87565023D01*
X136332583Y-87565024D01*
X136474999Y-87585500D01*
X136475002Y-87585500D01*
X162445001Y-87585500D01*
X162516941Y-87580355D01*
X162654993Y-87539819D01*
X162776033Y-87462031D01*
X162870255Y-87353294D01*
X162930025Y-87222416D01*
X162950501Y-87080000D01*
X162950501Y-77880000D01*
X162949914Y-77871798D01*
X162945356Y-77808059D01*
X162936930Y-77779365D01*
X162904820Y-77670008D01*
X162827032Y-77548968D01*
X162768174Y-77497967D01*
X162718300Y-77454750D01*
X162718298Y-77454748D01*
X162718295Y-77454746D01*
X162718291Y-77454744D01*
X162587420Y-77394976D01*
X162587415Y-77394975D01*
X162445001Y-77374500D01*
X136474999Y-77374500D01*
X136474996Y-77374500D01*
X136403058Y-77379644D01*
X136265004Y-77420182D01*
X136143968Y-77497967D01*
X136143964Y-77497971D01*
X136049749Y-77606700D01*
X136049743Y-77606709D01*
X135989975Y-77737580D01*
X135989974Y-77737585D01*
X135969499Y-77879999D01*
X113424755Y-77879999D01*
X113341843Y-77864728D01*
X113341837Y-77864727D01*
X113134221Y-77849094D01*
X113096292Y-77847669D01*
X113096279Y-77847669D01*
X112180857Y-77847669D01*
X112180855Y-77847669D01*
X112140530Y-77849280D01*
X112140518Y-77849280D01*
X112140517Y-77849281D01*
X112130919Y-77850049D01*
X111970593Y-77862884D01*
X111876983Y-77879342D01*
X111667842Y-77936814D01*
X111575095Y-77972425D01*
X111398052Y-78061252D01*
X111398032Y-78061263D01*
X111398027Y-78061266D01*
X111375491Y-78075085D01*
X111324819Y-78106156D01*
X111324815Y-78106158D01*
X111156056Y-78230530D01*
X111156043Y-78230540D01*
X111105820Y-78272853D01*
X110991112Y-78383004D01*
X110945783Y-78432744D01*
X110945777Y-78432750D01*
X110945771Y-78432758D01*
X110820077Y-78590631D01*
X110820074Y-78590635D01*
X110820072Y-78590638D01*
X110770905Y-78665018D01*
X110666720Y-78857666D01*
X110628605Y-78948209D01*
X110628603Y-78948214D01*
X110563840Y-79156759D01*
X110563826Y-79156807D01*
X110551680Y-79203783D01*
X110551678Y-79203792D01*
X110551674Y-79203809D01*
X110415455Y-79859088D01*
X110067090Y-81534891D01*
X110063061Y-81556652D01*
X110047263Y-81653856D01*
X110040723Y-81732356D01*
X110040722Y-81732379D01*
X110039666Y-81938577D01*
X104806052Y-81938577D01*
X104810577Y-81916791D01*
X105537768Y-78415972D01*
X105543186Y-78385114D01*
X105543187Y-78385108D01*
X105543187Y-78241228D01*
X105534123Y-78210361D01*
X105502651Y-78103177D01*
X105424863Y-77982137D01*
X105385222Y-77947788D01*
X105316131Y-77887919D01*
X105316127Y-77887916D01*
X105316126Y-77887915D01*
X105316122Y-77887913D01*
X105185251Y-77828145D01*
X105185246Y-77828144D01*
X105042832Y-77807669D01*
X104535784Y-77807669D01*
X104535780Y-77807669D01*
X104470755Y-77811868D01*
X104332155Y-77850496D01*
X104210052Y-77926608D01*
X102365722Y-79480697D01*
X102301772Y-79508843D01*
X102232757Y-79497946D01*
X102187677Y-79461662D01*
X102169660Y-79438331D01*
X101062182Y-78004206D01*
X101062173Y-78004195D01*
X101044124Y-77982138D01*
X101044123Y-77982137D01*
X100980040Y-77926608D01*
X100935386Y-77887915D01*
X100935382Y-77887913D01*
X100804511Y-77828145D01*
X100804506Y-77828144D01*
X100662092Y-77807669D01*
X100413941Y-77807669D01*
X100413933Y-77807669D01*
X100301851Y-77820252D01*
X100167527Y-77871795D01*
X100167523Y-77871798D01*
X100053157Y-77959098D01*
X99968018Y-78075085D01*
X99919003Y-78210367D01*
X99035822Y-82462145D01*
X99030404Y-82493003D01*
X93833225Y-82493003D01*
X93802857Y-82406217D01*
X93756335Y-82273263D01*
X93629605Y-82010107D01*
X93474208Y-81762794D01*
X93292098Y-81534435D01*
X93085565Y-81327902D01*
X92857206Y-81145792D01*
X92609893Y-80990395D01*
X92609890Y-80990393D01*
X92346738Y-80863665D01*
X92071046Y-80767197D01*
X92071044Y-80767196D01*
X91851280Y-80717036D01*
X91786286Y-80702202D01*
X91786283Y-80702201D01*
X91786271Y-80702199D01*
X91496047Y-80669500D01*
X91496041Y-80669500D01*
X91203959Y-80669500D01*
X91203952Y-80669500D01*
X90913728Y-80702199D01*
X90913714Y-80702202D01*
X90628955Y-80767196D01*
X90628953Y-80767197D01*
X90353261Y-80863665D01*
X90090109Y-80990393D01*
X89842795Y-81145791D01*
X89614435Y-81327901D01*
X89407901Y-81534435D01*
X89225791Y-81762795D01*
X89070393Y-82010109D01*
X88943665Y-82273261D01*
X88847197Y-82548953D01*
X88847196Y-82548955D01*
X88782202Y-82833714D01*
X88782199Y-82833728D01*
X88749500Y-83123952D01*
X78110500Y-83123952D01*
X78110500Y-71022929D01*
X78110726Y-71015441D01*
X78126882Y-70748384D01*
X78128687Y-70733520D01*
X78176238Y-70474051D01*
X78179822Y-70459512D01*
X78258300Y-70207673D01*
X78263610Y-70193672D01*
X78371876Y-69953119D01*
X78378825Y-69939877D01*
X78515308Y-69714109D01*
X78523795Y-69701813D01*
X78686497Y-69494139D01*
X78696412Y-69482948D01*
X78882948Y-69296412D01*
X78894139Y-69286497D01*
X79101813Y-69123795D01*
X79114109Y-69115308D01*
X79339877Y-68978825D01*
X79353119Y-68971876D01*
X79593678Y-68863607D01*
X79607665Y-68858302D01*
X79859518Y-68779820D01*
X79874044Y-68776239D01*
X80133521Y-68728686D01*
X80148382Y-68726882D01*
X80415441Y-68710725D01*
X80422929Y-68710500D01*
X80485069Y-68710500D01*
X183234931Y-68710500D01*
X183297071Y-68710500D01*
X183304558Y-68710725D01*
G37*
%TD.AperFunction*%
%TD*%
M02*
