G04 #@! TF.GenerationSoftware,KiCad,Pcbnew,8.0.2-1*
G04 #@! TF.CreationDate,2024-06-26T09:27:31-04:00*
G04 #@! TF.ProjectId,MiniCamel,4d696e69-4361-46d6-956c-2e6b69636164,2.1*
G04 #@! TF.SameCoordinates,PX16e3600PY6052340*
G04 #@! TF.FileFunction,Soldermask,Bot*
G04 #@! TF.FilePolarity,Negative*
%FSLAX46Y46*%
G04 Gerber Fmt 4.6, Leading zero omitted, Abs format (unit mm)*
G04 Created by KiCad (PCBNEW 8.0.2-1) date 2024-06-26 09:27:31*
%MOMM*%
%LPD*%
G01*
G04 APERTURE LIST*
G04 Aperture macros list*
%AMRoundRect*
0 Rectangle with rounded corners*
0 $1 Rounding radius*
0 $2 $3 $4 $5 $6 $7 $8 $9 X,Y pos of 4 corners*
0 Add a 4 corners polygon primitive as box body*
4,1,4,$2,$3,$4,$5,$6,$7,$8,$9,$2,$3,0*
0 Add four circle primitives for the rounded corners*
1,1,$1+$1,$2,$3*
1,1,$1+$1,$4,$5*
1,1,$1+$1,$6,$7*
1,1,$1+$1,$8,$9*
0 Add four rect primitives between the rounded corners*
20,1,$1+$1,$2,$3,$4,$5,0*
20,1,$1+$1,$4,$5,$6,$7,0*
20,1,$1+$1,$6,$7,$8,$9,0*
20,1,$1+$1,$8,$9,$2,$3,0*%
G04 Aperture macros list end*
%ADD10C,1.500000*%
%ADD11C,3.000000*%
%ADD12R,1.397000X1.397000*%
%ADD13C,1.397000*%
%ADD14C,4.064000*%
%ADD15C,3.250000*%
%ADD16RoundRect,0.102000X-0.704000X-0.704000X0.704000X-0.704000X0.704000X0.704000X-0.704000X0.704000X0*%
%ADD17C,1.612000*%
%ADD18C,1.734000*%
%ADD19C,2.604000*%
%ADD20C,1.600000*%
%ADD21C,5.000000*%
%ADD22R,1.070000X1.800000*%
%ADD23O,1.070000X1.800000*%
%ADD24C,0.600000*%
%ADD25O,0.900000X2.000000*%
%ADD26O,0.900000X1.700000*%
%ADD27C,1.300000*%
%ADD28C,1.700000*%
%ADD29R,1.600000X1.600000*%
%ADD30O,1.600000X1.600000*%
%ADD31R,1.530000X1.530000*%
%ADD32C,1.550000*%
%ADD33C,0.800000*%
%ADD34C,1.000000*%
%ADD35RoundRect,0.218750X-0.256250X0.218750X-0.256250X-0.218750X0.256250X-0.218750X0.256250X0.218750X0*%
%ADD36RoundRect,0.160000X-0.160000X0.197500X-0.160000X-0.197500X0.160000X-0.197500X0.160000X0.197500X0*%
%ADD37RoundRect,0.160000X0.197500X0.160000X-0.197500X0.160000X-0.197500X-0.160000X0.197500X-0.160000X0*%
%ADD38RoundRect,0.155000X-0.212500X-0.155000X0.212500X-0.155000X0.212500X0.155000X-0.212500X0.155000X0*%
%ADD39RoundRect,0.160000X0.160000X-0.197500X0.160000X0.197500X-0.160000X0.197500X-0.160000X-0.197500X0*%
%ADD40RoundRect,0.237500X0.300000X0.237500X-0.300000X0.237500X-0.300000X-0.237500X0.300000X-0.237500X0*%
%ADD41R,1.000000X2.510000*%
%ADD42RoundRect,0.155000X0.212500X0.155000X-0.212500X0.155000X-0.212500X-0.155000X0.212500X-0.155000X0*%
%ADD43RoundRect,0.155000X-0.155000X0.212500X-0.155000X-0.212500X0.155000X-0.212500X0.155000X0.212500X0*%
%ADD44R,1.600000X1.400000*%
%ADD45RoundRect,0.160000X-0.197500X-0.160000X0.197500X-0.160000X0.197500X0.160000X-0.197500X0.160000X0*%
%ADD46R,1.200000X0.600000*%
%ADD47RoundRect,0.155000X0.155000X-0.212500X0.155000X0.212500X-0.155000X0.212500X-0.155000X-0.212500X0*%
%ADD48R,0.450000X1.750000*%
%ADD49O,0.300000X1.400000*%
%ADD50O,1.400000X0.300000*%
%ADD51R,0.600000X1.200000*%
%ADD52RoundRect,0.237500X-0.300000X-0.237500X0.300000X-0.237500X0.300000X0.237500X-0.300000X0.237500X0*%
%ADD53RoundRect,0.237500X0.237500X-0.300000X0.237500X0.300000X-0.237500X0.300000X-0.237500X-0.300000X0*%
%ADD54RoundRect,0.250000X0.650000X-0.412500X0.650000X0.412500X-0.650000X0.412500X-0.650000X-0.412500X0*%
%ADD55C,1.400000*%
%ADD56C,2.600000*%
%ADD57C,0.900000*%
%ADD58R,2.400000X0.600000*%
%ADD59R,3.200000X1.900000*%
%ADD60R,4.200000X3.900000*%
G04 APERTURE END LIST*
D10*
X50220000Y64990000D03*
X47720000Y64990000D03*
X45720000Y64990000D03*
X43220000Y64990000D03*
X50220000Y67590000D03*
X47720000Y67590000D03*
X45720000Y67590000D03*
X43220000Y67590000D03*
D11*
X53270000Y64640000D03*
X53220000Y70440000D03*
X40220000Y70440000D03*
X40170000Y64640000D03*
D12*
X51875000Y58560000D03*
D13*
X51875000Y56020000D03*
X51875000Y53480000D03*
X51875000Y50940000D03*
D14*
X97000000Y-20000000D03*
D10*
X34000000Y65000000D03*
X31500000Y65000000D03*
X29500000Y65000000D03*
X27000000Y65000000D03*
X34000000Y67600000D03*
X31500000Y67600000D03*
X29500000Y67600000D03*
X27000000Y67600000D03*
D11*
X37050000Y64650000D03*
X37000000Y70450000D03*
X24000000Y70450000D03*
X23950000Y64650000D03*
D14*
X3000000Y-20000000D03*
D15*
X57890000Y69900000D03*
X69320000Y69900000D03*
D16*
X68050000Y63550000D03*
D17*
X66780000Y61010000D03*
X65510000Y63550000D03*
X64240000Y61010000D03*
X62970000Y63550000D03*
X61700000Y61010000D03*
X60430000Y63550000D03*
X59160000Y61010000D03*
D18*
X69930000Y74800000D03*
X67390000Y73280000D03*
X59820000Y74800000D03*
X57280000Y73280000D03*
D19*
X71480000Y66850000D03*
X55730000Y66850000D03*
D12*
X7480000Y-2350000D03*
D13*
X7480000Y-4890000D03*
X7480000Y-7430000D03*
X7480000Y-9970000D03*
X7480000Y-12510000D03*
X7480000Y-15050000D03*
X10020000Y-15050000D03*
X10020000Y-12510000D03*
X10020000Y-9970000D03*
X10020000Y-7430000D03*
X10020000Y-4890000D03*
X10020000Y-2350000D03*
D12*
X79500000Y-4250000D03*
D13*
X82040000Y-4250000D03*
X84580000Y-4250000D03*
X65348800Y-14375000D03*
X71851200Y-14375000D03*
D20*
X11420000Y44045000D03*
X11420000Y41275000D03*
X11420000Y38505000D03*
X11420000Y35735000D03*
X11420000Y32965000D03*
X8580000Y42660000D03*
X8580000Y39890000D03*
X8580000Y37120000D03*
X8580000Y34350000D03*
D21*
X10000000Y26010000D03*
X10000000Y51000000D03*
D22*
X91520000Y-6210000D03*
D23*
X92790000Y-6210000D03*
X94060000Y-6210000D03*
X95330000Y-6210000D03*
D12*
X53670000Y35110000D03*
D13*
X56210000Y35110000D03*
X53670000Y32570000D03*
X56210000Y32570000D03*
X53670000Y30030000D03*
X56210000Y30030000D03*
X53670000Y27490000D03*
X56210000Y27490000D03*
X53670000Y24950000D03*
X56210000Y24950000D03*
X53670000Y22410000D03*
X56210000Y22410000D03*
X53670000Y19870000D03*
X56210000Y19870000D03*
X53670000Y17330000D03*
X56210000Y17330000D03*
X53670000Y14790000D03*
X56210000Y14790000D03*
X53670000Y12250000D03*
X56210000Y12250000D03*
D12*
X94760000Y-250000D03*
D13*
X92220000Y-250000D03*
D14*
X3000000Y74000000D03*
D20*
X88010000Y74420000D03*
X88010000Y68420000D03*
D13*
X78748800Y-14375000D03*
X85251200Y-14375000D03*
D24*
X15890000Y72070000D03*
X10110000Y72070000D03*
D25*
X17325000Y71570000D03*
D26*
X17325000Y75750000D03*
D25*
X8675000Y71570000D03*
D26*
X8675000Y75750000D03*
D12*
X56650000Y1990000D03*
D13*
X54110000Y1990000D03*
D14*
X97000000Y74000000D03*
D27*
X80640000Y68170000D03*
X78100000Y68170000D03*
X75560000Y68170000D03*
D28*
X80640000Y70790000D03*
X75560000Y70790000D03*
D29*
X57260000Y-1530000D03*
D30*
X54720000Y-1530000D03*
X52180000Y-1530000D03*
X49640000Y-1530000D03*
X47100000Y-1530000D03*
X44560000Y-1530000D03*
X42020000Y-1530000D03*
X42020000Y-9150000D03*
X44560000Y-9150000D03*
X47100000Y-9150000D03*
X49640000Y-9150000D03*
X52180000Y-9150000D03*
X54720000Y-9150000D03*
X57260000Y-9150000D03*
D27*
X19000000Y29380000D03*
D31*
X16840000Y34460000D03*
D32*
X16840000Y31920000D03*
X16840000Y29380000D03*
X16840000Y26840000D03*
D33*
X24000000Y44000000D03*
X24000000Y5900000D03*
X46000000Y44000000D03*
X46000000Y5900000D03*
D12*
X66250000Y-4250000D03*
D13*
X68790000Y-4250000D03*
X71330000Y-4250000D03*
D34*
X4000000Y19690000D03*
X4000000Y11690000D03*
D35*
X31425000Y71525000D03*
X31425000Y69950000D03*
D36*
X10040000Y2117500D03*
X10040000Y922500D03*
D37*
X88337500Y-4210000D03*
X87142500Y-4210000D03*
D38*
X62810000Y72570000D03*
X63945000Y72570000D03*
D39*
X94060000Y-10217500D03*
X94060000Y-9022500D03*
D35*
X47700000Y71575000D03*
X47700000Y70000000D03*
D40*
X91475000Y69925000D03*
X89750000Y69925000D03*
D41*
X66290000Y1625000D03*
X68830000Y4935000D03*
X71370000Y1625000D03*
X73910000Y4935000D03*
X76450000Y1625000D03*
X78990000Y4935000D03*
X81530000Y1625000D03*
X84070000Y4935000D03*
X84040000Y-17910000D03*
X81500000Y-21220000D03*
X78960000Y-17910000D03*
X76420000Y-21220000D03*
X73880000Y-17910000D03*
X71340000Y-21220000D03*
X68800000Y-17910000D03*
X66260000Y-21220000D03*
D42*
X62882500Y70340000D03*
X61747500Y70340000D03*
D43*
X16050000Y510000D03*
X16050000Y-625000D03*
D37*
X19885000Y-9350000D03*
X18690000Y-9350000D03*
D44*
X21000000Y56750000D03*
X13000000Y56750000D03*
X21000000Y61250000D03*
X13000000Y61250000D03*
D40*
X74850000Y62825000D03*
X73125000Y62825000D03*
D42*
X38567500Y55500000D03*
X37432500Y55500000D03*
D36*
X42260000Y1627500D03*
X42260000Y432500D03*
D43*
X7250000Y9067500D03*
X7250000Y7932500D03*
D45*
X63972500Y69350000D03*
X65167500Y69350000D03*
D39*
X43300000Y420000D03*
X43300000Y1615000D03*
D36*
X7500000Y2157500D03*
X7500000Y962500D03*
D42*
X88307500Y-5240000D03*
X87172500Y-5240000D03*
D46*
X62040000Y-4030000D03*
X62040000Y-5930000D03*
X59840000Y-4980000D03*
D37*
X19545000Y-2100000D03*
X18350000Y-2100000D03*
X49367500Y1500000D03*
X48172500Y1500000D03*
D44*
X30100000Y-6650000D03*
X22100000Y-6650000D03*
X30100000Y-2150000D03*
X22100000Y-2150000D03*
D47*
X2575000Y13157500D03*
X2575000Y14292500D03*
D36*
X22000000Y49597500D03*
X22000000Y48402500D03*
D47*
X89950000Y55382500D03*
X89950000Y56517500D03*
D37*
X62912500Y68350000D03*
X61717500Y68350000D03*
D35*
X27025000Y71512500D03*
X27025000Y69937500D03*
D48*
X5275000Y19100000D03*
X5925000Y19100000D03*
X6575000Y19100000D03*
X7225000Y19100000D03*
X7875000Y19100000D03*
X8525000Y19100000D03*
X9175000Y19100000D03*
X9825000Y19100000D03*
X10475000Y19100000D03*
X11125000Y19100000D03*
X11775000Y19100000D03*
X12425000Y19100000D03*
X13075000Y19100000D03*
X13725000Y19100000D03*
X13725000Y11900000D03*
X13075000Y11900000D03*
X12425000Y11900000D03*
X11775000Y11900000D03*
X11125000Y11900000D03*
X10475000Y11900000D03*
X9825000Y11900000D03*
X9175000Y11900000D03*
X8525000Y11900000D03*
X7875000Y11900000D03*
X7225000Y11900000D03*
X6575000Y11900000D03*
X5925000Y11900000D03*
X5275000Y11900000D03*
D49*
X32750000Y49300000D03*
X32250000Y49300000D03*
X31750000Y49300000D03*
X31250000Y49300000D03*
X30750000Y49300000D03*
X30250000Y49300000D03*
X29750000Y49300000D03*
X29250000Y49300000D03*
X28750000Y49300000D03*
X28250000Y49300000D03*
X27750000Y49300000D03*
X27250000Y49300000D03*
D50*
X25800000Y50750000D03*
X25800000Y51250000D03*
X25800000Y51750000D03*
X25800000Y52250000D03*
X25800000Y52750000D03*
X25800000Y53250000D03*
X25800000Y53750000D03*
X25800000Y54250000D03*
X25800000Y54750000D03*
X25800000Y55250000D03*
X25800000Y55750000D03*
X25800000Y56250000D03*
D49*
X27250000Y57700000D03*
X27750000Y57700000D03*
X28250000Y57700000D03*
X28750000Y57700000D03*
X29250000Y57700000D03*
X29750000Y57700000D03*
X30250000Y57700000D03*
X30750000Y57700000D03*
X31250000Y57700000D03*
X31750000Y57700000D03*
X32250000Y57700000D03*
X32750000Y57700000D03*
D50*
X34200000Y56250000D03*
X34200000Y55750000D03*
X34200000Y55250000D03*
X34200000Y54750000D03*
X34200000Y54250000D03*
X34200000Y53750000D03*
X34200000Y53250000D03*
X34200000Y52750000D03*
X34200000Y52250000D03*
X34200000Y51750000D03*
X34200000Y51250000D03*
X34200000Y50750000D03*
D37*
X5422500Y-6600000D03*
X4227500Y-6600000D03*
X5425000Y-5125000D03*
X4230000Y-5125000D03*
D45*
X65052500Y-5920000D03*
X66247500Y-5920000D03*
D38*
X84432500Y68160000D03*
X85567500Y68160000D03*
X64002500Y70340000D03*
X65137500Y70340000D03*
D51*
X87370000Y620000D03*
X89270000Y620000D03*
X88320000Y-1580000D03*
D47*
X34500000Y47432500D03*
X34500000Y48567500D03*
D52*
X84375000Y69940000D03*
X86100000Y69940000D03*
D42*
X57947500Y-4980000D03*
X56812500Y-4980000D03*
D53*
X49969994Y70665999D03*
X49969994Y72390999D03*
D47*
X3250000Y22932505D03*
X3250000Y24067505D03*
D53*
X29250000Y70637500D03*
X29250000Y72362500D03*
D46*
X17180000Y-6440000D03*
X17180000Y-8340000D03*
X14980000Y-7390000D03*
D53*
X45469994Y70665999D03*
X45469994Y72390999D03*
D37*
X63975000Y74550000D03*
X62780000Y74550000D03*
X63230000Y-2630000D03*
X62035000Y-2630000D03*
D43*
X5250000Y24067500D03*
X5250000Y22932500D03*
D42*
X91482500Y68210000D03*
X90347500Y68210000D03*
D40*
X74862500Y61250000D03*
X73137500Y61250000D03*
D35*
X43275000Y71550000D03*
X43275000Y69975000D03*
D36*
X87375000Y5745000D03*
X87375000Y4550000D03*
D54*
X33750000Y69937500D03*
X33750000Y73062500D03*
D52*
X81012500Y-14350000D03*
X82737500Y-14350000D03*
D51*
X91830000Y-14360000D03*
X89930000Y-14360000D03*
X90880000Y-12160000D03*
D36*
X79510000Y-732500D03*
X79510000Y-1927500D03*
D51*
X95830000Y-14380000D03*
X93930000Y-14380000D03*
X94880000Y-12180000D03*
D55*
X35330500Y8400000D03*
D56*
X83380500Y8800000D03*
X83380500Y33000000D03*
D57*
X35330500Y33400000D03*
D58*
X31030500Y9100000D03*
X39630500Y9500000D03*
X31030500Y9900000D03*
X39630500Y10300000D03*
X31030500Y10700000D03*
X39630500Y11100000D03*
X31030500Y11500000D03*
X39630500Y11900000D03*
X31030500Y12300000D03*
X39630500Y12700000D03*
X31030500Y13100000D03*
X39630500Y13500000D03*
X31030500Y13900000D03*
X39630500Y14300000D03*
X31030500Y14700000D03*
X39630500Y15100000D03*
X31030500Y18700000D03*
X39630500Y19100000D03*
X31030500Y19500000D03*
X39630500Y19900000D03*
X31030500Y20300000D03*
X39630500Y20700000D03*
X31030500Y21100000D03*
X39630500Y21500000D03*
X31030500Y21900000D03*
X39630500Y22300000D03*
X31030500Y22700000D03*
X39630500Y23100000D03*
X31030500Y23500000D03*
X39630500Y23900000D03*
X31030500Y24300000D03*
X39630500Y24700000D03*
X31030500Y25100000D03*
X39630500Y25500000D03*
X31030500Y25900000D03*
X39630500Y26300000D03*
X31030500Y26700000D03*
X39630500Y27100000D03*
X31030500Y27500000D03*
X39630500Y27900000D03*
X31030500Y28300000D03*
X39630500Y28700000D03*
X31030500Y29100000D03*
X39630500Y29500000D03*
X31030500Y29900000D03*
X39630500Y30300000D03*
X31030500Y30700000D03*
X39630500Y31100000D03*
X31030500Y31500000D03*
X39630500Y31900000D03*
X31030500Y32300000D03*
X39630500Y32700000D03*
D59*
X31830500Y6450000D03*
X31830500Y35350000D03*
D12*
X42580000Y56925000D03*
D13*
X45120000Y56925000D03*
D36*
X23500000Y49597500D03*
X23500000Y48402500D03*
D46*
X17190000Y-3200000D03*
X17190000Y-5100000D03*
X14990000Y-4150000D03*
D60*
X94000000Y14950000D03*
X94000000Y30050000D03*
D21*
X94000000Y22500000D03*
D45*
X70142500Y-5950000D03*
X71337500Y-5950000D03*
X63972500Y68350000D03*
X65167500Y68350000D03*
X62780000Y73550000D03*
X63975000Y73550000D03*
D43*
X5250000Y9067500D03*
X5250000Y7932500D03*
D37*
X62910000Y69350000D03*
X61715000Y69350000D03*
D39*
X91520000Y-10217500D03*
X91520000Y-9022500D03*
M02*
