G04 #@! TF.GenerationSoftware,KiCad,Pcbnew,8.0.2-1*
G04 #@! TF.CreationDate,2024-06-26T09:27:30-04:00*
G04 #@! TF.ProjectId,MiniCamel,4d696e69-4361-46d6-956c-2e6b69636164,2.1*
G04 #@! TF.SameCoordinates,PX16e3600PY6052340*
G04 #@! TF.FileFunction,Paste,Top*
G04 #@! TF.FilePolarity,Positive*
%FSLAX46Y46*%
G04 Gerber Fmt 4.6, Leading zero omitted, Abs format (unit mm)*
G04 Created by KiCad (PCBNEW 8.0.2-1) date 2024-06-26 09:27:30*
%MOMM*%
%LPD*%
G01*
G04 APERTURE LIST*
G04 Aperture macros list*
%AMRoundRect*
0 Rectangle with rounded corners*
0 $1 Rounding radius*
0 $2 $3 $4 $5 $6 $7 $8 $9 X,Y pos of 4 corners*
0 Add a 4 corners polygon primitive as box body*
4,1,4,$2,$3,$4,$5,$6,$7,$8,$9,$2,$3,0*
0 Add four circle primitives for the rounded corners*
1,1,$1+$1,$2,$3*
1,1,$1+$1,$4,$5*
1,1,$1+$1,$6,$7*
1,1,$1+$1,$8,$9*
0 Add four rect primitives between the rounded corners*
20,1,$1+$1,$2,$3,$4,$5,0*
20,1,$1+$1,$4,$5,$6,$7,0*
20,1,$1+$1,$6,$7,$8,$9,0*
20,1,$1+$1,$8,$9,$2,$3,0*%
G04 Aperture macros list end*
%ADD10C,0.010000*%
%ADD11RoundRect,0.155000X0.155000X-0.212500X0.155000X0.212500X-0.155000X0.212500X-0.155000X-0.212500X0*%
%ADD12RoundRect,0.237500X-0.250000X-0.237500X0.250000X-0.237500X0.250000X0.237500X-0.250000X0.237500X0*%
%ADD13RoundRect,0.237500X0.300000X0.237500X-0.300000X0.237500X-0.300000X-0.237500X0.300000X-0.237500X0*%
%ADD14RoundRect,0.160000X-0.197500X-0.160000X0.197500X-0.160000X0.197500X0.160000X-0.197500X0.160000X0*%
%ADD15R,0.600000X1.200000*%
%ADD16RoundRect,0.155000X0.212500X0.155000X-0.212500X0.155000X-0.212500X-0.155000X0.212500X-0.155000X0*%
%ADD17RoundRect,0.250000X-0.650000X0.412500X-0.650000X-0.412500X0.650000X-0.412500X0.650000X0.412500X0*%
%ADD18RoundRect,0.160000X-0.160000X0.197500X-0.160000X-0.197500X0.160000X-0.197500X0.160000X0.197500X0*%
%ADD19RoundRect,0.200000X0.275000X-0.200000X0.275000X0.200000X-0.275000X0.200000X-0.275000X-0.200000X0*%
%ADD20RoundRect,0.155000X-0.212500X-0.155000X0.212500X-0.155000X0.212500X0.155000X-0.212500X0.155000X0*%
%ADD21RoundRect,0.125000X-0.125000X0.125000X-0.125000X-0.125000X0.125000X-0.125000X0.125000X0.125000X0*%
%ADD22R,0.600000X2.800000*%
%ADD23RoundRect,0.112500X-0.112500X0.637500X-0.112500X-0.637500X0.112500X-0.637500X0.112500X0.637500X0*%
%ADD24R,1.600000X1.400000*%
%ADD25R,2.300000X1.020000*%
%ADD26R,0.700000X0.700000*%
%ADD27O,0.950000X0.370000*%
%ADD28O,0.370000X0.950000*%
%ADD29RoundRect,0.237500X-0.237500X0.300000X-0.237500X-0.300000X0.237500X-0.300000X0.237500X0.300000X0*%
%ADD30R,1.200000X0.600000*%
%ADD31RoundRect,0.155000X-0.155000X0.212500X-0.155000X-0.212500X0.155000X-0.212500X0.155000X0.212500X0*%
%ADD32RoundRect,0.160000X0.197500X0.160000X-0.197500X0.160000X-0.197500X-0.160000X0.197500X-0.160000X0*%
%ADD33RoundRect,0.075000X-1.162500X-0.075000X1.162500X-0.075000X1.162500X0.075000X-1.162500X0.075000X0*%
%ADD34RoundRect,0.075000X-0.075000X-1.162500X0.075000X-1.162500X0.075000X1.162500X-0.075000X1.162500X0*%
%ADD35RoundRect,0.243750X0.456250X-0.243750X0.456250X0.243750X-0.456250X0.243750X-0.456250X-0.243750X0*%
%ADD36RoundRect,0.237500X-0.300000X-0.237500X0.300000X-0.237500X0.300000X0.237500X-0.300000X0.237500X0*%
%ADD37R,2.200000X1.600000*%
%ADD38RoundRect,0.237500X0.237500X-0.300000X0.237500X0.300000X-0.237500X0.300000X-0.237500X-0.300000X0*%
%ADD39R,0.600000X1.440000*%
%ADD40R,0.300000X1.500000*%
%ADD41R,2.000000X3.800000*%
%ADD42R,2.000000X1.500000*%
%ADD43RoundRect,0.160000X0.160000X-0.197500X0.160000X0.197500X-0.160000X0.197500X-0.160000X-0.197500X0*%
%ADD44R,2.600000X0.630000*%
%ADD45RoundRect,0.250000X-0.325000X-0.650000X0.325000X-0.650000X0.325000X0.650000X-0.325000X0.650000X0*%
%ADD46R,1.300000X0.700000*%
%ADD47R,2.000000X1.200000*%
%ADD48R,1.400000X1.200000*%
G04 APERTURE END LIST*
D10*
X21105700Y50544300D02*
X19714300Y50544300D01*
X19714300Y51935700D01*
X21105700Y51935700D01*
X21105700Y50544300D01*
G36*
X21105700Y50544300D02*
G01*
X19714300Y50544300D01*
X19714300Y51935700D01*
X21105700Y51935700D01*
X21105700Y50544300D01*
G37*
D11*
X37249989Y10682492D03*
X37249989Y11817492D03*
D12*
X56200000Y47375000D03*
X58025000Y47375000D03*
D13*
X32887506Y11000005D03*
X31162506Y11000005D03*
D14*
X16850000Y13275000D03*
X18045000Y13275000D03*
D15*
X39050000Y38150000D03*
X40000000Y38150000D03*
X40950000Y38150000D03*
X40950000Y40350000D03*
X39050000Y40350000D03*
D16*
X75842500Y31500000D03*
X74707500Y31500000D03*
X82817500Y46310000D03*
X81682500Y46310000D03*
D14*
X30402500Y53000000D03*
X31597500Y53000000D03*
D16*
X66810000Y30000000D03*
X65675000Y30000000D03*
X39075000Y-10330000D03*
X37940000Y-10330000D03*
D17*
X53000000Y44312500D03*
X53000000Y41187500D03*
D14*
X16852500Y18775000D03*
X18047500Y18775000D03*
D16*
X75367500Y8030000D03*
X74232500Y8030000D03*
D18*
X24225000Y53195000D03*
X24225000Y52000000D03*
D11*
X80630000Y56690000D03*
X80630000Y57825000D03*
D19*
X9000000Y3174994D03*
X9000000Y4824994D03*
D14*
X75627500Y41550000D03*
X76822500Y41550000D03*
D20*
X12432500Y68500000D03*
X13567500Y68500000D03*
D21*
X68770000Y447500D03*
X68770000Y-1752500D03*
D22*
X64460000Y43585000D03*
X64460000Y38435000D03*
D23*
X75550000Y56600000D03*
X74900000Y56600000D03*
X74250000Y56600000D03*
X73600000Y56600000D03*
X72950000Y56600000D03*
X72300000Y56600000D03*
X71650000Y56600000D03*
X71000000Y56600000D03*
X70350000Y56600000D03*
X69700000Y56600000D03*
X69700000Y50800000D03*
X70350000Y50800000D03*
X71000000Y50800000D03*
X71650000Y50800000D03*
X72300000Y50800000D03*
X72950000Y50800000D03*
X73600000Y50800000D03*
X74250000Y50800000D03*
X74900000Y50800000D03*
X75550000Y50800000D03*
D24*
X28150000Y-19000000D03*
X36150000Y-19000000D03*
X28150000Y-14500000D03*
X36150000Y-14500000D03*
D25*
X92100000Y58130000D03*
X97900000Y58130000D03*
X92100000Y55590000D03*
X97900000Y55590000D03*
X92100000Y53050000D03*
X97900000Y53050000D03*
X92100000Y50510000D03*
X97900000Y50510000D03*
X92100000Y47970000D03*
X97900000Y47970000D03*
X92100000Y45430000D03*
X97900000Y45430000D03*
X92100000Y42890000D03*
X97900000Y42890000D03*
X92100000Y40350000D03*
X97900000Y40350000D03*
X92100000Y37810000D03*
X97900000Y37810000D03*
X92100000Y35270000D03*
X97900000Y35270000D03*
X92100000Y32730000D03*
X97900000Y32730000D03*
X92100000Y30190000D03*
X97900000Y30190000D03*
X92100000Y27650000D03*
X97900000Y27650000D03*
X92100000Y25110000D03*
X97900000Y25110000D03*
X92100000Y22570000D03*
X97900000Y22570000D03*
X92100000Y20030000D03*
X97900000Y20030000D03*
X92100000Y17490000D03*
X97900000Y17490000D03*
X92100000Y14950000D03*
X97900000Y14950000D03*
X92100000Y12410000D03*
X97900000Y12410000D03*
X92100000Y9870000D03*
X97900000Y9870000D03*
D11*
X80900000Y37357500D03*
X80900000Y38492500D03*
D26*
X49650000Y62400000D03*
X49650000Y60800000D03*
X48350000Y60800000D03*
X48350000Y62400000D03*
D27*
X22410000Y50440000D03*
X22410000Y51240000D03*
X22410000Y52040000D03*
D28*
X21210000Y53240000D03*
X20410000Y53240000D03*
X19610000Y53240000D03*
D27*
X18410000Y52040000D03*
X18410000Y51240000D03*
X18410000Y50440000D03*
D28*
X19610000Y49240000D03*
X20410000Y49240000D03*
X21210000Y49240000D03*
D21*
X82060000Y460000D03*
X82060000Y-1740000D03*
D20*
X34082500Y-2460000D03*
X35217500Y-2460000D03*
D29*
X62550000Y54600000D03*
X62550000Y52875000D03*
D20*
X65807500Y49700000D03*
X66942500Y49700000D03*
D19*
X13500001Y3174994D03*
X13500001Y4824994D03*
D11*
X81980000Y62532500D03*
X81980000Y63667500D03*
X58500000Y33975000D03*
X58500000Y35110000D03*
D14*
X87012500Y5410000D03*
X88207500Y5410000D03*
X64477500Y31775000D03*
X65672500Y31775000D03*
D19*
X15000000Y3174994D03*
X15000000Y4824994D03*
D30*
X9900000Y66950000D03*
X9900000Y66000000D03*
X9900000Y65050000D03*
X12100000Y65050000D03*
X12100000Y66000000D03*
X12100000Y66950000D03*
D19*
X16500000Y3174994D03*
X16500000Y4824994D03*
D29*
X61000000Y54587500D03*
X61000000Y52862500D03*
D31*
X63975000Y54292500D03*
X63975000Y53157500D03*
D14*
X87012500Y3890000D03*
X88207500Y3890000D03*
D32*
X20785000Y56310000D03*
X19590000Y56310000D03*
D15*
X17350000Y69048500D03*
X16400000Y66848500D03*
X15450000Y69048500D03*
D16*
X58225000Y43550000D03*
X57090000Y43550000D03*
D14*
X69577500Y32700000D03*
X70772500Y32700000D03*
D20*
X75507500Y44800000D03*
X76642500Y44800000D03*
D24*
X39650000Y-19000000D03*
X47650000Y-19000000D03*
X39650000Y-14500000D03*
X47650000Y-14500000D03*
D32*
X7347500Y68500000D03*
X6152500Y68500000D03*
D15*
X77400000Y52500000D03*
X78350000Y52500000D03*
X79300000Y52500000D03*
X79300000Y54700000D03*
X77400000Y54700000D03*
D11*
X75650000Y37257500D03*
X75650000Y38392500D03*
X59700000Y33975000D03*
X59700000Y35110000D03*
D31*
X32410000Y-6940000D03*
X32410000Y-8075000D03*
D20*
X16875000Y15475000D03*
X18010000Y15475000D03*
D26*
X32030000Y60880000D03*
X32030000Y62480000D03*
X33330000Y62480000D03*
X33330000Y60880000D03*
D20*
X70242500Y41560000D03*
X71377500Y41560000D03*
D33*
X62499995Y24999989D03*
X62499995Y24499989D03*
X62499995Y23999989D03*
X62499995Y23499989D03*
X62499995Y22999989D03*
X62499995Y22499989D03*
X62499995Y21999989D03*
X62499995Y21499989D03*
X62499995Y20999989D03*
X62499995Y20499989D03*
X62499995Y19999989D03*
X62499995Y19499989D03*
X62499995Y18999989D03*
X62499995Y18499989D03*
X62499995Y17999989D03*
X62499995Y17499989D03*
X62499995Y16999989D03*
X62499995Y16499989D03*
X62499995Y15999989D03*
X62499995Y15499989D03*
X62499995Y14999989D03*
X62499995Y14499989D03*
X62499995Y13999989D03*
X62499995Y13499989D03*
X62499995Y12999989D03*
D34*
X64662495Y10837489D03*
X65162495Y10837489D03*
X65662495Y10837489D03*
X66162495Y10837489D03*
X66662495Y10837489D03*
X67162495Y10837489D03*
X67662495Y10837489D03*
X68162495Y10837489D03*
X68662495Y10837489D03*
X69162495Y10837489D03*
X69662495Y10837489D03*
X70162495Y10837489D03*
X70662495Y10837489D03*
X71162495Y10837489D03*
X71662495Y10837489D03*
X72162495Y10837489D03*
X72662495Y10837489D03*
X73162495Y10837489D03*
X73662495Y10837489D03*
X74162495Y10837489D03*
X74662495Y10837489D03*
X75162495Y10837489D03*
X75662495Y10837489D03*
X76162495Y10837489D03*
X76662495Y10837489D03*
D33*
X78824995Y12999989D03*
X78824995Y13499989D03*
X78824995Y13999989D03*
X78824995Y14499989D03*
X78824995Y14999989D03*
X78824995Y15499989D03*
X78824995Y15999989D03*
X78824995Y16499989D03*
X78824995Y16999989D03*
X78824995Y17499989D03*
X78824995Y17999989D03*
X78824995Y18499989D03*
X78824995Y18999989D03*
X78824995Y19499989D03*
X78824995Y19999989D03*
X78824995Y20499989D03*
X78824995Y20999989D03*
X78824995Y21499989D03*
X78824995Y21999989D03*
X78824995Y22499989D03*
X78824995Y22999989D03*
X78824995Y23499989D03*
X78824995Y23999989D03*
X78824995Y24499989D03*
X78824995Y24999989D03*
D34*
X76662495Y27162489D03*
X76162495Y27162489D03*
X75662495Y27162489D03*
X75162495Y27162489D03*
X74662495Y27162489D03*
X74162495Y27162489D03*
X73662495Y27162489D03*
X73162495Y27162489D03*
X72662495Y27162489D03*
X72162495Y27162489D03*
X71662495Y27162489D03*
X71162495Y27162489D03*
X70662495Y27162489D03*
X70162495Y27162489D03*
X69662495Y27162489D03*
X69162495Y27162489D03*
X68662495Y27162489D03*
X68162495Y27162489D03*
X67662495Y27162489D03*
X67162495Y27162489D03*
X66662495Y27162489D03*
X66162495Y27162489D03*
X65662495Y27162489D03*
X65162495Y27162489D03*
X64662495Y27162489D03*
D24*
X16550000Y-19000000D03*
X24550000Y-19000000D03*
X16550000Y-14500000D03*
X24550000Y-14500000D03*
D19*
X10499999Y3174994D03*
X10499999Y4824994D03*
D11*
X81500000Y13675000D03*
X81500000Y14810000D03*
D14*
X16852500Y16575000D03*
X18047500Y16575000D03*
X90292500Y-14540000D03*
X91487500Y-14540000D03*
D31*
X37249989Y32567488D03*
X37249989Y31432488D03*
D16*
X80817500Y42900000D03*
X79682500Y42900000D03*
D11*
X26275000Y51975000D03*
X26275000Y53110000D03*
D13*
X71970000Y47780000D03*
X70245000Y47780000D03*
D20*
X73207500Y30000000D03*
X74342500Y30000000D03*
D35*
X7000000Y55912500D03*
X7000000Y57787500D03*
D36*
X75237500Y46250000D03*
X76962500Y46250000D03*
D15*
X36080000Y-4720000D03*
X35130000Y-4720000D03*
X34180000Y-4720000D03*
X34180000Y-6920000D03*
X36080000Y-6920000D03*
D20*
X78457488Y27999996D03*
X79592488Y27999996D03*
D35*
X4850000Y55912500D03*
X4850000Y57787500D03*
D14*
X16850000Y14375000D03*
X18045000Y14375000D03*
X75627500Y40030000D03*
X76822500Y40030000D03*
D15*
X65900000Y52700000D03*
X66850000Y52700000D03*
X67800000Y52700000D03*
X67800000Y54900000D03*
X65900000Y54900000D03*
D35*
X2700000Y55912500D03*
X2700000Y57787500D03*
D37*
X84460000Y71920000D03*
X91560000Y71920000D03*
X84460000Y75120000D03*
X91560000Y75120000D03*
X84460000Y68420000D03*
X91560000Y68420000D03*
D14*
X57050000Y44550000D03*
X58245000Y44550000D03*
D38*
X29499992Y5087502D03*
X29499992Y6812502D03*
D36*
X75230000Y47800000D03*
X76955000Y47800000D03*
D39*
X16200000Y70790000D03*
X15400000Y70790000D03*
D40*
X14250000Y70820000D03*
X13250000Y70820000D03*
X12750000Y70820000D03*
X11750000Y70820000D03*
D39*
X10600000Y70790000D03*
X9800000Y70790000D03*
D40*
X11250000Y70820000D03*
X12250000Y70820000D03*
X13750000Y70820000D03*
X14750000Y70820000D03*
D11*
X67800000Y56375000D03*
X67800000Y57510000D03*
X79300000Y56700000D03*
X79300000Y57835000D03*
D20*
X78457488Y29499993D03*
X79592488Y29499993D03*
D36*
X56250000Y45850000D03*
X57975000Y45850000D03*
D14*
X79642500Y41550000D03*
X80837500Y41550000D03*
D31*
X37500000Y38567500D03*
X37500000Y37432500D03*
D20*
X37942500Y-9330000D03*
X39077500Y-9330000D03*
D19*
X11999999Y3174994D03*
X11999999Y4824994D03*
D31*
X81675000Y20510000D03*
X81675000Y19375000D03*
D11*
X77216000Y62424500D03*
X77216000Y63559500D03*
D15*
X78670000Y61850000D03*
X79620000Y61850000D03*
X80570000Y61850000D03*
X80570000Y64050000D03*
X78670000Y64050000D03*
D41*
X38150000Y6000000D03*
D42*
X31850000Y8300000D03*
X31850000Y6000000D03*
X31850000Y3700000D03*
D32*
X17602500Y54790000D03*
X16407500Y54790000D03*
D24*
X51250000Y-19000000D03*
X59250000Y-19000000D03*
X51250000Y-14500000D03*
X59250000Y-14500000D03*
D14*
X16850000Y12175000D03*
X18045000Y12175000D03*
D43*
X37249989Y20061007D03*
X37249989Y21256007D03*
D44*
X21950000Y44635000D03*
X26050000Y44635000D03*
X21950000Y43365000D03*
X26050000Y43365000D03*
X21950000Y42095000D03*
X26050000Y42095000D03*
X21950000Y40825000D03*
X26050000Y40825000D03*
X21950000Y39555000D03*
X26050000Y39555000D03*
X21950000Y38285000D03*
X26050000Y38285000D03*
X21950000Y37015000D03*
X26050000Y37015000D03*
X21950000Y35745000D03*
X26050000Y35745000D03*
X21950000Y34475000D03*
X26050000Y34475000D03*
X21950000Y33205000D03*
X26050000Y33205000D03*
X21950000Y31935000D03*
X26050000Y31935000D03*
X21950000Y30665000D03*
X26050000Y30665000D03*
X21950000Y29395000D03*
X26050000Y29395000D03*
X21950000Y28125000D03*
X26050000Y28125000D03*
X21950000Y26855000D03*
X26050000Y26855000D03*
X21950000Y25585000D03*
X26050000Y25585000D03*
X21950000Y24315000D03*
X26050000Y24315000D03*
X21950000Y23045000D03*
X26050000Y23045000D03*
X21950000Y21775000D03*
X26050000Y21775000D03*
X21950000Y20505000D03*
X26050000Y20505000D03*
X21950000Y19235000D03*
X26050000Y19235000D03*
X21950000Y17965000D03*
X26050000Y17965000D03*
X21950000Y16695000D03*
X26050000Y16695000D03*
X21950000Y15425000D03*
X26050000Y15425000D03*
X21950000Y14155000D03*
X26050000Y14155000D03*
X21950000Y12885000D03*
X26050000Y12885000D03*
X21950000Y11615000D03*
X26050000Y11615000D03*
X21950000Y10345000D03*
X26050000Y10345000D03*
X21950000Y9075000D03*
X26050000Y9075000D03*
X21950000Y7805000D03*
X26050000Y7805000D03*
X21950000Y6535000D03*
X26050000Y6535000D03*
X21950000Y5265000D03*
X26050000Y5265000D03*
X43950000Y44635000D03*
X48050000Y44635000D03*
X43950000Y43365000D03*
X48050000Y43365000D03*
X43950000Y42095000D03*
X48050000Y42095000D03*
X43950000Y40825000D03*
X48050000Y40825000D03*
X43950000Y39555000D03*
X48050000Y39555000D03*
X43950000Y38285000D03*
X48050000Y38285000D03*
X43950000Y37015000D03*
X48050000Y37015000D03*
X43950000Y35745000D03*
X48050000Y35745000D03*
X43950000Y34475000D03*
X48050000Y34475000D03*
X43950000Y33205000D03*
X48050000Y33195000D03*
X43950000Y31935000D03*
X48050000Y31935000D03*
X43950000Y30665000D03*
X48050000Y30665000D03*
X43950000Y29395000D03*
X48050000Y29395000D03*
X43950000Y28125000D03*
X48050000Y28125000D03*
X43950000Y26855000D03*
X48050000Y26855000D03*
X43950000Y25585000D03*
X48050000Y25585000D03*
X43950000Y24315000D03*
X48050000Y24315000D03*
X43950000Y23045000D03*
X48050000Y23045000D03*
X43950000Y21775000D03*
X48050000Y21775000D03*
X43950000Y20505000D03*
X48050000Y20505000D03*
X43950000Y19235000D03*
X48050000Y19235000D03*
X43950000Y17965000D03*
X48050000Y17965000D03*
X43950000Y16695000D03*
X48050000Y16695000D03*
X43950000Y15425000D03*
X48050000Y15425000D03*
X43950000Y14155000D03*
X48050000Y14155000D03*
X43950000Y12885000D03*
X48050000Y12885000D03*
X43950000Y11615000D03*
X48050000Y11615000D03*
X43950000Y10345000D03*
X48050000Y10345000D03*
X43950000Y9075000D03*
X48050000Y9075000D03*
X43950000Y7805000D03*
X48050000Y7805000D03*
X43950000Y6535000D03*
X48050000Y6535000D03*
X43950000Y5265000D03*
X48050000Y5265000D03*
D11*
X60000007Y16157513D03*
X60000007Y17292513D03*
D32*
X17597500Y57800000D03*
X16402500Y57800000D03*
D11*
X67440000Y43097500D03*
X67440000Y44232500D03*
D14*
X70195000Y42550000D03*
X71390000Y42550000D03*
D19*
X13625000Y65275000D03*
X13625000Y66925000D03*
D14*
X77142500Y42875000D03*
X78337500Y42875000D03*
D13*
X83102500Y47840000D03*
X81377500Y47840000D03*
D31*
X67440000Y40652500D03*
X67440000Y39517500D03*
D32*
X17597500Y56300000D03*
X16402500Y56300000D03*
D26*
X46890000Y62400000D03*
X46890000Y60800000D03*
X45590000Y60800000D03*
X45590000Y62400000D03*
D16*
X75767500Y33500000D03*
X74632500Y33500000D03*
D14*
X94282500Y-14560000D03*
X95477500Y-14560000D03*
D32*
X80837500Y40030000D03*
X79642500Y40030000D03*
D16*
X71675000Y46260000D03*
X70540000Y46260000D03*
D14*
X16852500Y19875000D03*
X18047500Y19875000D03*
D32*
X7347500Y67000000D03*
X6152500Y67000000D03*
D45*
X18425000Y65500000D03*
X21375000Y65500000D03*
D14*
X30402500Y51500000D03*
X31597500Y51500000D03*
D29*
X51000000Y44362500D03*
X51000000Y42637500D03*
D26*
X29310000Y60880000D03*
X29310000Y62480000D03*
X30610000Y62480000D03*
X30610000Y60880000D03*
D46*
X14550000Y12180000D03*
X14550000Y13280000D03*
X14550000Y14380000D03*
X14550000Y15480000D03*
X14550000Y16580000D03*
X14550000Y17680000D03*
X14550000Y18780000D03*
X14550000Y19880000D03*
X14550000Y20980000D03*
D47*
X4000000Y22500000D03*
D48*
X13700000Y22080000D03*
X13700000Y7400000D03*
D47*
X4000000Y6980000D03*
M02*
