%TF.GenerationSoftware,KiCad,Pcbnew,8.0.2-1*%
%TF.CreationDate,2024-06-26T09:27:26-04:00*%
%TF.ProjectId,MiniCamel,4d696e69-4361-46d6-956c-2e6b69636164,2.1*%
%TF.SameCoordinates,PX16e3600PY6052340*%
%TF.FileFunction,Drillmap*%
%TF.FilePolarity,Positive*%
%FSLAX45Y45*%
G04 Gerber Fmt 4.5, Leading zero omitted, Abs format (unit mm)*
G04 Created by KiCad (PCBNEW 8.0.2-1) date 2024-06-26 09:27:26*
%MOMM*%
%LPD*%
G01*
G04 APERTURE LIST*
%ADD10C,0.100000*%
%ADD11C,0.200000*%
%ADD12C,0.130000*%
%ADD13C,0.140000*%
%ADD14C,0.160000*%
%ADD15C,0.260000*%
%ADD16C,0.325000*%
G04 APERTURE END LIST*
D10*
X0Y7400000D02*
G75*
G02*
X300000Y7700000I300000J0D01*
G01*
X300000Y-2300000D02*
G75*
G02*
X0Y-2000000I0J300000D01*
G01*
X300000Y-2300000D02*
X9700000Y-2300000D01*
X9700000Y7700043D02*
G75*
G02*
X9999993Y7400000I2770J-297223D01*
G01*
X0Y7400000D02*
X0Y-2000000D01*
X10000000Y-2000000D02*
G75*
G02*
X9700000Y-2300000I-300000J0D01*
G01*
X300000Y7700000D02*
X9700000Y7700000D01*
X10000000Y-2000000D02*
X10000000Y7400000D01*
D11*
D10*
X981000Y7237000D02*
X1041000Y7177000D01*
X1041000Y7237000D02*
X981000Y7177000D01*
X1559000Y7237000D02*
X1619000Y7177000D01*
X1619000Y7237000D02*
X1559000Y7177000D01*
X2440000Y4400000D02*
G75*
G02*
X2360000Y4400000I-40000J0D01*
G01*
X2360000Y4400000D02*
G75*
G02*
X2440000Y4400000I40000J0D01*
G01*
X2440000Y590000D02*
G75*
G02*
X2360000Y590000I-40000J0D01*
G01*
X2360000Y590000D02*
G75*
G02*
X2440000Y590000I40000J0D01*
G01*
X4640000Y4400000D02*
G75*
G02*
X4560000Y4400000I-40000J0D01*
G01*
X4560000Y4400000D02*
G75*
G02*
X4640000Y4400000I40000J0D01*
G01*
X4640000Y590000D02*
G75*
G02*
X4560000Y590000I-40000J0D01*
G01*
X4560000Y590000D02*
G75*
G02*
X4640000Y590000I40000J0D01*
G01*
X3533050Y3385000D02*
X3533050Y3295000D01*
X3488050Y3340000D02*
X3578050Y3340000D01*
X435356Y1933644D02*
X435356Y2004356D01*
X364644Y2004356D01*
X364644Y1933644D01*
X435356Y1933644D01*
X435356Y1133644D02*
X435356Y1204356D01*
X364644Y1204356D01*
X364644Y1133644D01*
X435356Y1133644D01*
D12*
X1900000Y2873000D02*
X1965000Y2938000D01*
X1900000Y3003000D01*
X1835000Y2938000D01*
X1900000Y2873000D01*
D13*
X3463050Y910000D02*
X3603050Y770000D01*
X3603050Y910000D02*
X3463050Y770000D01*
X3603050Y840000D02*
G75*
G02*
X3463050Y840000I-70000J0D01*
G01*
X3463050Y840000D02*
G75*
G02*
X3603050Y840000I70000J0D01*
G01*
D14*
X8721000Y7522000D02*
X8881000Y7362000D01*
X8881000Y7522000D02*
X8721000Y7362000D01*
X8801000Y7522000D02*
X8801000Y7362000D01*
X8721000Y7442000D02*
X8881000Y7442000D01*
X8721000Y6922000D02*
X8881000Y6762000D01*
X8881000Y6922000D02*
X8721000Y6762000D01*
X8801000Y6922000D02*
X8801000Y6762000D01*
X8721000Y6842000D02*
X8881000Y6842000D01*
D15*
X8208050Y3430000D02*
X8468050Y3170000D01*
X8468050Y3430000D02*
X8208050Y3170000D01*
X8429975Y3208075D02*
X8429975Y3391925D01*
X8246125Y3391925D01*
X8246125Y3208075D01*
X8429975Y3208075D01*
X8208050Y1010000D02*
X8468050Y750000D01*
X8468050Y1010000D02*
X8208050Y750000D01*
X8429975Y788075D02*
X8429975Y971925D01*
X8246125Y971925D01*
X8246125Y788075D01*
X8429975Y788075D01*
D16*
X5626500Y7152500D02*
X5951500Y6827500D01*
X5951500Y7152500D02*
X5626500Y6827500D01*
X5789000Y6827500D02*
X5951500Y6990000D01*
X5789000Y7152500D01*
X5626500Y6990000D01*
X5789000Y6827500D01*
X6769500Y7152500D02*
X7094500Y6827500D01*
X7094500Y7152500D02*
X6769500Y6827500D01*
X6932000Y6827500D02*
X7094500Y6990000D01*
X6932000Y7152500D01*
X6769500Y6990000D01*
X6932000Y6827500D01*
D11*
X255777Y-2616484D02*
X255777Y-2416484D01*
X255777Y-2416484D02*
X303396Y-2416484D01*
X303396Y-2416484D02*
X331967Y-2426008D01*
X331967Y-2426008D02*
X351015Y-2445055D01*
X351015Y-2445055D02*
X360539Y-2464103D01*
X360539Y-2464103D02*
X370062Y-2502198D01*
X370062Y-2502198D02*
X370062Y-2530770D01*
X370062Y-2530770D02*
X360539Y-2568865D01*
X360539Y-2568865D02*
X351015Y-2587912D01*
X351015Y-2587912D02*
X331967Y-2606960D01*
X331967Y-2606960D02*
X303396Y-2616484D01*
X303396Y-2616484D02*
X255777Y-2616484D01*
X455777Y-2616484D02*
X455777Y-2483150D01*
X455777Y-2521246D02*
X465301Y-2502198D01*
X465301Y-2502198D02*
X474824Y-2492674D01*
X474824Y-2492674D02*
X493872Y-2483150D01*
X493872Y-2483150D02*
X512920Y-2483150D01*
X579586Y-2616484D02*
X579586Y-2483150D01*
X579586Y-2416484D02*
X570063Y-2426008D01*
X570063Y-2426008D02*
X579586Y-2435531D01*
X579586Y-2435531D02*
X589110Y-2426008D01*
X589110Y-2426008D02*
X579586Y-2416484D01*
X579586Y-2416484D02*
X579586Y-2435531D01*
X703396Y-2616484D02*
X684348Y-2606960D01*
X684348Y-2606960D02*
X674824Y-2587912D01*
X674824Y-2587912D02*
X674824Y-2416484D01*
X808158Y-2616484D02*
X789110Y-2606960D01*
X789110Y-2606960D02*
X779586Y-2587912D01*
X779586Y-2587912D02*
X779586Y-2416484D01*
X1036729Y-2616484D02*
X1036729Y-2416484D01*
X1036729Y-2416484D02*
X1103396Y-2559341D01*
X1103396Y-2559341D02*
X1170063Y-2416484D01*
X1170063Y-2416484D02*
X1170063Y-2616484D01*
X1351015Y-2616484D02*
X1351015Y-2511722D01*
X1351015Y-2511722D02*
X1341491Y-2492674D01*
X1341491Y-2492674D02*
X1322444Y-2483150D01*
X1322444Y-2483150D02*
X1284348Y-2483150D01*
X1284348Y-2483150D02*
X1265301Y-2492674D01*
X1351015Y-2606960D02*
X1331967Y-2616484D01*
X1331967Y-2616484D02*
X1284348Y-2616484D01*
X1284348Y-2616484D02*
X1265301Y-2606960D01*
X1265301Y-2606960D02*
X1255777Y-2587912D01*
X1255777Y-2587912D02*
X1255777Y-2568865D01*
X1255777Y-2568865D02*
X1265301Y-2549817D01*
X1265301Y-2549817D02*
X1284348Y-2540293D01*
X1284348Y-2540293D02*
X1331967Y-2540293D01*
X1331967Y-2540293D02*
X1351015Y-2530770D01*
X1446253Y-2483150D02*
X1446253Y-2683150D01*
X1446253Y-2492674D02*
X1465301Y-2483150D01*
X1465301Y-2483150D02*
X1503396Y-2483150D01*
X1503396Y-2483150D02*
X1522443Y-2492674D01*
X1522443Y-2492674D02*
X1531967Y-2502198D01*
X1531967Y-2502198D02*
X1541491Y-2521246D01*
X1541491Y-2521246D02*
X1541491Y-2578389D01*
X1541491Y-2578389D02*
X1531967Y-2597436D01*
X1531967Y-2597436D02*
X1522443Y-2606960D01*
X1522443Y-2606960D02*
X1503396Y-2616484D01*
X1503396Y-2616484D02*
X1465301Y-2616484D01*
X1465301Y-2616484D02*
X1446253Y-2606960D01*
X1627205Y-2597436D02*
X1636729Y-2606960D01*
X1636729Y-2606960D02*
X1627205Y-2616484D01*
X1627205Y-2616484D02*
X1617682Y-2606960D01*
X1617682Y-2606960D02*
X1627205Y-2597436D01*
X1627205Y-2597436D02*
X1627205Y-2616484D01*
X1627205Y-2492674D02*
X1636729Y-2502198D01*
X1636729Y-2502198D02*
X1627205Y-2511722D01*
X1627205Y-2511722D02*
X1617682Y-2502198D01*
X1617682Y-2502198D02*
X1627205Y-2492674D01*
X1627205Y-2492674D02*
X1627205Y-2511722D01*
D10*
X-65000Y-2915000D02*
X-5000Y-2975000D01*
X-5000Y-2915000D02*
X-65000Y-2975000D01*
D11*
X293872Y-2836484D02*
X312920Y-2836484D01*
X312920Y-2836484D02*
X331967Y-2846008D01*
X331967Y-2846008D02*
X341491Y-2855531D01*
X341491Y-2855531D02*
X351015Y-2874579D01*
X351015Y-2874579D02*
X360539Y-2912674D01*
X360539Y-2912674D02*
X360539Y-2960293D01*
X360539Y-2960293D02*
X351015Y-2998388D01*
X351015Y-2998388D02*
X341491Y-3017436D01*
X341491Y-3017436D02*
X331967Y-3026960D01*
X331967Y-3026960D02*
X312920Y-3036484D01*
X312920Y-3036484D02*
X293872Y-3036484D01*
X293872Y-3036484D02*
X274824Y-3026960D01*
X274824Y-3026960D02*
X265301Y-3017436D01*
X265301Y-3017436D02*
X255777Y-2998388D01*
X255777Y-2998388D02*
X246253Y-2960293D01*
X246253Y-2960293D02*
X246253Y-2912674D01*
X246253Y-2912674D02*
X255777Y-2874579D01*
X255777Y-2874579D02*
X265301Y-2855531D01*
X265301Y-2855531D02*
X274824Y-2846008D01*
X274824Y-2846008D02*
X293872Y-2836484D01*
X446253Y-3017436D02*
X455777Y-3026960D01*
X455777Y-3026960D02*
X446253Y-3036484D01*
X446253Y-3036484D02*
X436729Y-3026960D01*
X436729Y-3026960D02*
X446253Y-3017436D01*
X446253Y-3017436D02*
X446253Y-3036484D01*
X627205Y-2836484D02*
X589110Y-2836484D01*
X589110Y-2836484D02*
X570063Y-2846008D01*
X570063Y-2846008D02*
X560539Y-2855531D01*
X560539Y-2855531D02*
X541491Y-2884103D01*
X541491Y-2884103D02*
X531967Y-2922198D01*
X531967Y-2922198D02*
X531967Y-2998388D01*
X531967Y-2998388D02*
X541491Y-3017436D01*
X541491Y-3017436D02*
X551015Y-3026960D01*
X551015Y-3026960D02*
X570063Y-3036484D01*
X570063Y-3036484D02*
X608158Y-3036484D01*
X608158Y-3036484D02*
X627205Y-3026960D01*
X627205Y-3026960D02*
X636729Y-3017436D01*
X636729Y-3017436D02*
X646253Y-2998388D01*
X646253Y-2998388D02*
X646253Y-2950769D01*
X646253Y-2950769D02*
X636729Y-2931722D01*
X636729Y-2931722D02*
X627205Y-2922198D01*
X627205Y-2922198D02*
X608158Y-2912674D01*
X608158Y-2912674D02*
X570063Y-2912674D01*
X570063Y-2912674D02*
X551015Y-2922198D01*
X551015Y-2922198D02*
X541491Y-2931722D01*
X541491Y-2931722D02*
X531967Y-2950769D01*
X770062Y-2836484D02*
X789110Y-2836484D01*
X789110Y-2836484D02*
X808158Y-2846008D01*
X808158Y-2846008D02*
X817682Y-2855531D01*
X817682Y-2855531D02*
X827205Y-2874579D01*
X827205Y-2874579D02*
X836729Y-2912674D01*
X836729Y-2912674D02*
X836729Y-2960293D01*
X836729Y-2960293D02*
X827205Y-2998388D01*
X827205Y-2998388D02*
X817682Y-3017436D01*
X817682Y-3017436D02*
X808158Y-3026960D01*
X808158Y-3026960D02*
X789110Y-3036484D01*
X789110Y-3036484D02*
X770062Y-3036484D01*
X770062Y-3036484D02*
X751015Y-3026960D01*
X751015Y-3026960D02*
X741491Y-3017436D01*
X741491Y-3017436D02*
X731967Y-2998388D01*
X731967Y-2998388D02*
X722443Y-2960293D01*
X722443Y-2960293D02*
X722443Y-2912674D01*
X722443Y-2912674D02*
X731967Y-2874579D01*
X731967Y-2874579D02*
X741491Y-2855531D01*
X741491Y-2855531D02*
X751015Y-2846008D01*
X751015Y-2846008D02*
X770062Y-2836484D01*
X960539Y-2836484D02*
X979586Y-2836484D01*
X979586Y-2836484D02*
X998634Y-2846008D01*
X998634Y-2846008D02*
X1008158Y-2855531D01*
X1008158Y-2855531D02*
X1017682Y-2874579D01*
X1017682Y-2874579D02*
X1027205Y-2912674D01*
X1027205Y-2912674D02*
X1027205Y-2960293D01*
X1027205Y-2960293D02*
X1017682Y-2998388D01*
X1017682Y-2998388D02*
X1008158Y-3017436D01*
X1008158Y-3017436D02*
X998634Y-3026960D01*
X998634Y-3026960D02*
X979586Y-3036484D01*
X979586Y-3036484D02*
X960539Y-3036484D01*
X960539Y-3036484D02*
X941491Y-3026960D01*
X941491Y-3026960D02*
X931967Y-3017436D01*
X931967Y-3017436D02*
X922443Y-2998388D01*
X922443Y-2998388D02*
X912920Y-2960293D01*
X912920Y-2960293D02*
X912920Y-2912674D01*
X912920Y-2912674D02*
X922443Y-2874579D01*
X922443Y-2874579D02*
X931967Y-2855531D01*
X931967Y-2855531D02*
X941491Y-2846008D01*
X941491Y-2846008D02*
X960539Y-2836484D01*
X1112920Y-3036484D02*
X1112920Y-2903150D01*
X1112920Y-2922198D02*
X1122444Y-2912674D01*
X1122444Y-2912674D02*
X1141491Y-2903150D01*
X1141491Y-2903150D02*
X1170063Y-2903150D01*
X1170063Y-2903150D02*
X1189110Y-2912674D01*
X1189110Y-2912674D02*
X1198634Y-2931722D01*
X1198634Y-2931722D02*
X1198634Y-3036484D01*
X1198634Y-2931722D02*
X1208158Y-2912674D01*
X1208158Y-2912674D02*
X1227205Y-2903150D01*
X1227205Y-2903150D02*
X1255777Y-2903150D01*
X1255777Y-2903150D02*
X1274825Y-2912674D01*
X1274825Y-2912674D02*
X1284348Y-2931722D01*
X1284348Y-2931722D02*
X1284348Y-3036484D01*
X1379586Y-3036484D02*
X1379586Y-2903150D01*
X1379586Y-2922198D02*
X1389110Y-2912674D01*
X1389110Y-2912674D02*
X1408158Y-2903150D01*
X1408158Y-2903150D02*
X1436729Y-2903150D01*
X1436729Y-2903150D02*
X1455777Y-2912674D01*
X1455777Y-2912674D02*
X1465301Y-2931722D01*
X1465301Y-2931722D02*
X1465301Y-3036484D01*
X1465301Y-2931722D02*
X1474824Y-2912674D01*
X1474824Y-2912674D02*
X1493872Y-2903150D01*
X1493872Y-2903150D02*
X1522443Y-2903150D01*
X1522443Y-2903150D02*
X1541491Y-2912674D01*
X1541491Y-2912674D02*
X1551015Y-2931722D01*
X1551015Y-2931722D02*
X1551015Y-3036484D01*
X1941491Y-2826960D02*
X1770063Y-3084103D01*
X2198634Y-2836484D02*
X2217682Y-2836484D01*
X2217682Y-2836484D02*
X2236729Y-2846008D01*
X2236729Y-2846008D02*
X2246253Y-2855531D01*
X2246253Y-2855531D02*
X2255777Y-2874579D01*
X2255777Y-2874579D02*
X2265301Y-2912674D01*
X2265301Y-2912674D02*
X2265301Y-2960293D01*
X2265301Y-2960293D02*
X2255777Y-2998388D01*
X2255777Y-2998388D02*
X2246253Y-3017436D01*
X2246253Y-3017436D02*
X2236729Y-3026960D01*
X2236729Y-3026960D02*
X2217682Y-3036484D01*
X2217682Y-3036484D02*
X2198634Y-3036484D01*
X2198634Y-3036484D02*
X2179587Y-3026960D01*
X2179587Y-3026960D02*
X2170063Y-3017436D01*
X2170063Y-3017436D02*
X2160539Y-2998388D01*
X2160539Y-2998388D02*
X2151015Y-2960293D01*
X2151015Y-2960293D02*
X2151015Y-2912674D01*
X2151015Y-2912674D02*
X2160539Y-2874579D01*
X2160539Y-2874579D02*
X2170063Y-2855531D01*
X2170063Y-2855531D02*
X2179587Y-2846008D01*
X2179587Y-2846008D02*
X2198634Y-2836484D01*
X2351015Y-3017436D02*
X2360539Y-3026960D01*
X2360539Y-3026960D02*
X2351015Y-3036484D01*
X2351015Y-3036484D02*
X2341491Y-3026960D01*
X2341491Y-3026960D02*
X2351015Y-3017436D01*
X2351015Y-3017436D02*
X2351015Y-3036484D01*
X2484348Y-2836484D02*
X2503396Y-2836484D01*
X2503396Y-2836484D02*
X2522444Y-2846008D01*
X2522444Y-2846008D02*
X2531968Y-2855531D01*
X2531968Y-2855531D02*
X2541491Y-2874579D01*
X2541491Y-2874579D02*
X2551015Y-2912674D01*
X2551015Y-2912674D02*
X2551015Y-2960293D01*
X2551015Y-2960293D02*
X2541491Y-2998388D01*
X2541491Y-2998388D02*
X2531968Y-3017436D01*
X2531968Y-3017436D02*
X2522444Y-3026960D01*
X2522444Y-3026960D02*
X2503396Y-3036484D01*
X2503396Y-3036484D02*
X2484348Y-3036484D01*
X2484348Y-3036484D02*
X2465301Y-3026960D01*
X2465301Y-3026960D02*
X2455777Y-3017436D01*
X2455777Y-3017436D02*
X2446253Y-2998388D01*
X2446253Y-2998388D02*
X2436729Y-2960293D01*
X2436729Y-2960293D02*
X2436729Y-2912674D01*
X2436729Y-2912674D02*
X2446253Y-2874579D01*
X2446253Y-2874579D02*
X2455777Y-2855531D01*
X2455777Y-2855531D02*
X2465301Y-2846008D01*
X2465301Y-2846008D02*
X2484348Y-2836484D01*
X2627206Y-2855531D02*
X2636729Y-2846008D01*
X2636729Y-2846008D02*
X2655777Y-2836484D01*
X2655777Y-2836484D02*
X2703396Y-2836484D01*
X2703396Y-2836484D02*
X2722444Y-2846008D01*
X2722444Y-2846008D02*
X2731968Y-2855531D01*
X2731968Y-2855531D02*
X2741491Y-2874579D01*
X2741491Y-2874579D02*
X2741491Y-2893627D01*
X2741491Y-2893627D02*
X2731968Y-2922198D01*
X2731968Y-2922198D02*
X2617682Y-3036484D01*
X2617682Y-3036484D02*
X2741491Y-3036484D01*
X2808158Y-2836484D02*
X2931967Y-2836484D01*
X2931967Y-2836484D02*
X2865301Y-2912674D01*
X2865301Y-2912674D02*
X2893872Y-2912674D01*
X2893872Y-2912674D02*
X2912920Y-2922198D01*
X2912920Y-2922198D02*
X2922444Y-2931722D01*
X2922444Y-2931722D02*
X2931967Y-2950769D01*
X2931967Y-2950769D02*
X2931967Y-2998388D01*
X2931967Y-2998388D02*
X2922444Y-3017436D01*
X2922444Y-3017436D02*
X2912920Y-3026960D01*
X2912920Y-3026960D02*
X2893872Y-3036484D01*
X2893872Y-3036484D02*
X2836729Y-3036484D01*
X2836729Y-3036484D02*
X2817682Y-3026960D01*
X2817682Y-3026960D02*
X2808158Y-3017436D01*
X3103396Y-2836484D02*
X3065301Y-2836484D01*
X3065301Y-2836484D02*
X3046253Y-2846008D01*
X3046253Y-2846008D02*
X3036729Y-2855531D01*
X3036729Y-2855531D02*
X3017682Y-2884103D01*
X3017682Y-2884103D02*
X3008158Y-2922198D01*
X3008158Y-2922198D02*
X3008158Y-2998388D01*
X3008158Y-2998388D02*
X3017682Y-3017436D01*
X3017682Y-3017436D02*
X3027206Y-3026960D01*
X3027206Y-3026960D02*
X3046253Y-3036484D01*
X3046253Y-3036484D02*
X3084348Y-3036484D01*
X3084348Y-3036484D02*
X3103396Y-3026960D01*
X3103396Y-3026960D02*
X3112920Y-3017436D01*
X3112920Y-3017436D02*
X3122444Y-2998388D01*
X3122444Y-2998388D02*
X3122444Y-2950769D01*
X3122444Y-2950769D02*
X3112920Y-2931722D01*
X3112920Y-2931722D02*
X3103396Y-2922198D01*
X3103396Y-2922198D02*
X3084348Y-2912674D01*
X3084348Y-2912674D02*
X3046253Y-2912674D01*
X3046253Y-2912674D02*
X3027206Y-2922198D01*
X3027206Y-2922198D02*
X3017682Y-2931722D01*
X3017682Y-2931722D02*
X3008158Y-2950769D01*
X3198634Y-2836484D02*
X3198634Y-2874579D01*
X3274825Y-2836484D02*
X3274825Y-2874579D01*
X3570063Y-3112674D02*
X3560539Y-3103150D01*
X3560539Y-3103150D02*
X3541491Y-3074579D01*
X3541491Y-3074579D02*
X3531968Y-3055531D01*
X3531968Y-3055531D02*
X3522444Y-3026960D01*
X3522444Y-3026960D02*
X3512920Y-2979341D01*
X3512920Y-2979341D02*
X3512920Y-2941246D01*
X3512920Y-2941246D02*
X3522444Y-2893627D01*
X3522444Y-2893627D02*
X3531968Y-2865055D01*
X3531968Y-2865055D02*
X3541491Y-2846008D01*
X3541491Y-2846008D02*
X3560539Y-2817436D01*
X3560539Y-2817436D02*
X3570063Y-2807912D01*
X3636729Y-2855531D02*
X3646253Y-2846008D01*
X3646253Y-2846008D02*
X3665301Y-2836484D01*
X3665301Y-2836484D02*
X3712920Y-2836484D01*
X3712920Y-2836484D02*
X3731968Y-2846008D01*
X3731968Y-2846008D02*
X3741491Y-2855531D01*
X3741491Y-2855531D02*
X3751015Y-2874579D01*
X3751015Y-2874579D02*
X3751015Y-2893627D01*
X3751015Y-2893627D02*
X3741491Y-2922198D01*
X3741491Y-2922198D02*
X3627206Y-3036484D01*
X3627206Y-3036484D02*
X3751015Y-3036484D01*
X3989110Y-3036484D02*
X3989110Y-2836484D01*
X4074825Y-3036484D02*
X4074825Y-2931722D01*
X4074825Y-2931722D02*
X4065301Y-2912674D01*
X4065301Y-2912674D02*
X4046253Y-2903150D01*
X4046253Y-2903150D02*
X4017682Y-2903150D01*
X4017682Y-2903150D02*
X3998634Y-2912674D01*
X3998634Y-2912674D02*
X3989110Y-2922198D01*
X4198634Y-3036484D02*
X4179587Y-3026960D01*
X4179587Y-3026960D02*
X4170063Y-3017436D01*
X4170063Y-3017436D02*
X4160539Y-2998388D01*
X4160539Y-2998388D02*
X4160539Y-2941246D01*
X4160539Y-2941246D02*
X4170063Y-2922198D01*
X4170063Y-2922198D02*
X4179587Y-2912674D01*
X4179587Y-2912674D02*
X4198634Y-2903150D01*
X4198634Y-2903150D02*
X4227206Y-2903150D01*
X4227206Y-2903150D02*
X4246253Y-2912674D01*
X4246253Y-2912674D02*
X4255777Y-2922198D01*
X4255777Y-2922198D02*
X4265301Y-2941246D01*
X4265301Y-2941246D02*
X4265301Y-2998388D01*
X4265301Y-2998388D02*
X4255777Y-3017436D01*
X4255777Y-3017436D02*
X4246253Y-3026960D01*
X4246253Y-3026960D02*
X4227206Y-3036484D01*
X4227206Y-3036484D02*
X4198634Y-3036484D01*
X4379587Y-3036484D02*
X4360539Y-3026960D01*
X4360539Y-3026960D02*
X4351015Y-3007912D01*
X4351015Y-3007912D02*
X4351015Y-2836484D01*
X4531968Y-3026960D02*
X4512920Y-3036484D01*
X4512920Y-3036484D02*
X4474825Y-3036484D01*
X4474825Y-3036484D02*
X4455777Y-3026960D01*
X4455777Y-3026960D02*
X4446253Y-3007912D01*
X4446253Y-3007912D02*
X4446253Y-2931722D01*
X4446253Y-2931722D02*
X4455777Y-2912674D01*
X4455777Y-2912674D02*
X4474825Y-2903150D01*
X4474825Y-2903150D02*
X4512920Y-2903150D01*
X4512920Y-2903150D02*
X4531968Y-2912674D01*
X4531968Y-2912674D02*
X4541492Y-2931722D01*
X4541492Y-2931722D02*
X4541492Y-2950769D01*
X4541492Y-2950769D02*
X4446253Y-2969817D01*
X4617682Y-3026960D02*
X4636730Y-3036484D01*
X4636730Y-3036484D02*
X4674825Y-3036484D01*
X4674825Y-3036484D02*
X4693873Y-3026960D01*
X4693873Y-3026960D02*
X4703396Y-3007912D01*
X4703396Y-3007912D02*
X4703396Y-2998388D01*
X4703396Y-2998388D02*
X4693873Y-2979341D01*
X4693873Y-2979341D02*
X4674825Y-2969817D01*
X4674825Y-2969817D02*
X4646253Y-2969817D01*
X4646253Y-2969817D02*
X4627206Y-2960293D01*
X4627206Y-2960293D02*
X4617682Y-2941246D01*
X4617682Y-2941246D02*
X4617682Y-2931722D01*
X4617682Y-2931722D02*
X4627206Y-2912674D01*
X4627206Y-2912674D02*
X4646253Y-2903150D01*
X4646253Y-2903150D02*
X4674825Y-2903150D01*
X4674825Y-2903150D02*
X4693873Y-2912674D01*
X4770063Y-3112674D02*
X4779587Y-3103150D01*
X4779587Y-3103150D02*
X4798634Y-3074579D01*
X4798634Y-3074579D02*
X4808158Y-3055531D01*
X4808158Y-3055531D02*
X4817682Y-3026960D01*
X4817682Y-3026960D02*
X4827206Y-2979341D01*
X4827206Y-2979341D02*
X4827206Y-2941246D01*
X4827206Y-2941246D02*
X4817682Y-2893627D01*
X4817682Y-2893627D02*
X4808158Y-2865055D01*
X4808158Y-2865055D02*
X4798634Y-2846008D01*
X4798634Y-2846008D02*
X4779587Y-2817436D01*
X4779587Y-2817436D02*
X4770063Y-2807912D01*
X5131968Y-3112674D02*
X5122444Y-3103150D01*
X5122444Y-3103150D02*
X5103396Y-3074579D01*
X5103396Y-3074579D02*
X5093873Y-3055531D01*
X5093873Y-3055531D02*
X5084349Y-3026960D01*
X5084349Y-3026960D02*
X5074825Y-2979341D01*
X5074825Y-2979341D02*
X5074825Y-2941246D01*
X5074825Y-2941246D02*
X5084349Y-2893627D01*
X5084349Y-2893627D02*
X5093873Y-2865055D01*
X5093873Y-2865055D02*
X5103396Y-2846008D01*
X5103396Y-2846008D02*
X5122444Y-2817436D01*
X5122444Y-2817436D02*
X5131968Y-2807912D01*
X5208158Y-2903150D02*
X5208158Y-3036484D01*
X5208158Y-2922198D02*
X5217682Y-2912674D01*
X5217682Y-2912674D02*
X5236730Y-2903150D01*
X5236730Y-2903150D02*
X5265301Y-2903150D01*
X5265301Y-2903150D02*
X5284349Y-2912674D01*
X5284349Y-2912674D02*
X5293873Y-2931722D01*
X5293873Y-2931722D02*
X5293873Y-3036484D01*
X5417682Y-3036484D02*
X5398634Y-3026960D01*
X5398634Y-3026960D02*
X5389111Y-3017436D01*
X5389111Y-3017436D02*
X5379587Y-2998388D01*
X5379587Y-2998388D02*
X5379587Y-2941246D01*
X5379587Y-2941246D02*
X5389111Y-2922198D01*
X5389111Y-2922198D02*
X5398634Y-2912674D01*
X5398634Y-2912674D02*
X5417682Y-2903150D01*
X5417682Y-2903150D02*
X5446254Y-2903150D01*
X5446254Y-2903150D02*
X5465301Y-2912674D01*
X5465301Y-2912674D02*
X5474825Y-2922198D01*
X5474825Y-2922198D02*
X5484349Y-2941246D01*
X5484349Y-2941246D02*
X5484349Y-2998388D01*
X5484349Y-2998388D02*
X5474825Y-3017436D01*
X5474825Y-3017436D02*
X5465301Y-3026960D01*
X5465301Y-3026960D02*
X5446254Y-3036484D01*
X5446254Y-3036484D02*
X5417682Y-3036484D01*
X5541492Y-2903150D02*
X5617682Y-2903150D01*
X5570063Y-2836484D02*
X5570063Y-3007912D01*
X5570063Y-3007912D02*
X5579587Y-3026960D01*
X5579587Y-3026960D02*
X5598634Y-3036484D01*
X5598634Y-3036484D02*
X5617682Y-3036484D01*
X5836730Y-2903150D02*
X5836730Y-3103150D01*
X5836730Y-2912674D02*
X5855777Y-2903150D01*
X5855777Y-2903150D02*
X5893873Y-2903150D01*
X5893873Y-2903150D02*
X5912920Y-2912674D01*
X5912920Y-2912674D02*
X5922444Y-2922198D01*
X5922444Y-2922198D02*
X5931968Y-2941246D01*
X5931968Y-2941246D02*
X5931968Y-2998388D01*
X5931968Y-2998388D02*
X5922444Y-3017436D01*
X5922444Y-3017436D02*
X5912920Y-3026960D01*
X5912920Y-3026960D02*
X5893873Y-3036484D01*
X5893873Y-3036484D02*
X5855777Y-3036484D01*
X5855777Y-3036484D02*
X5836730Y-3026960D01*
X6046253Y-3036484D02*
X6027206Y-3026960D01*
X6027206Y-3026960D02*
X6017682Y-3007912D01*
X6017682Y-3007912D02*
X6017682Y-2836484D01*
X6208158Y-3036484D02*
X6208158Y-2931722D01*
X6208158Y-2931722D02*
X6198634Y-2912674D01*
X6198634Y-2912674D02*
X6179587Y-2903150D01*
X6179587Y-2903150D02*
X6141492Y-2903150D01*
X6141492Y-2903150D02*
X6122444Y-2912674D01*
X6208158Y-3026960D02*
X6189111Y-3036484D01*
X6189111Y-3036484D02*
X6141492Y-3036484D01*
X6141492Y-3036484D02*
X6122444Y-3026960D01*
X6122444Y-3026960D02*
X6112920Y-3007912D01*
X6112920Y-3007912D02*
X6112920Y-2988865D01*
X6112920Y-2988865D02*
X6122444Y-2969817D01*
X6122444Y-2969817D02*
X6141492Y-2960293D01*
X6141492Y-2960293D02*
X6189111Y-2960293D01*
X6189111Y-2960293D02*
X6208158Y-2950769D01*
X6274825Y-2903150D02*
X6351015Y-2903150D01*
X6303396Y-2836484D02*
X6303396Y-3007912D01*
X6303396Y-3007912D02*
X6312920Y-3026960D01*
X6312920Y-3026960D02*
X6331968Y-3036484D01*
X6331968Y-3036484D02*
X6351015Y-3036484D01*
X6493873Y-3026960D02*
X6474825Y-3036484D01*
X6474825Y-3036484D02*
X6436730Y-3036484D01*
X6436730Y-3036484D02*
X6417682Y-3026960D01*
X6417682Y-3026960D02*
X6408158Y-3007912D01*
X6408158Y-3007912D02*
X6408158Y-2931722D01*
X6408158Y-2931722D02*
X6417682Y-2912674D01*
X6417682Y-2912674D02*
X6436730Y-2903150D01*
X6436730Y-2903150D02*
X6474825Y-2903150D01*
X6474825Y-2903150D02*
X6493873Y-2912674D01*
X6493873Y-2912674D02*
X6503396Y-2931722D01*
X6503396Y-2931722D02*
X6503396Y-2950769D01*
X6503396Y-2950769D02*
X6408158Y-2969817D01*
X6674825Y-3036484D02*
X6674825Y-2836484D01*
X6674825Y-3026960D02*
X6655777Y-3036484D01*
X6655777Y-3036484D02*
X6617682Y-3036484D01*
X6617682Y-3036484D02*
X6598634Y-3026960D01*
X6598634Y-3026960D02*
X6589111Y-3017436D01*
X6589111Y-3017436D02*
X6579587Y-2998388D01*
X6579587Y-2998388D02*
X6579587Y-2941246D01*
X6579587Y-2941246D02*
X6589111Y-2922198D01*
X6589111Y-2922198D02*
X6598634Y-2912674D01*
X6598634Y-2912674D02*
X6617682Y-2903150D01*
X6617682Y-2903150D02*
X6655777Y-2903150D01*
X6655777Y-2903150D02*
X6674825Y-2912674D01*
X6751015Y-3112674D02*
X6760539Y-3103150D01*
X6760539Y-3103150D02*
X6779587Y-3074579D01*
X6779587Y-3074579D02*
X6789111Y-3055531D01*
X6789111Y-3055531D02*
X6798634Y-3026960D01*
X6798634Y-3026960D02*
X6808158Y-2979341D01*
X6808158Y-2979341D02*
X6808158Y-2941246D01*
X6808158Y-2941246D02*
X6798634Y-2893627D01*
X6798634Y-2893627D02*
X6789111Y-2865055D01*
X6789111Y-2865055D02*
X6779587Y-2846008D01*
X6779587Y-2846008D02*
X6760539Y-2817436D01*
X6760539Y-2817436D02*
X6751015Y-2807912D01*
D10*
X-5000Y-3209000D02*
G75*
G02*
X-85000Y-3209000I-40000J0D01*
G01*
X-85000Y-3209000D02*
G75*
G02*
X-5000Y-3209000I40000J0D01*
G01*
D11*
X293872Y-3100484D02*
X312920Y-3100484D01*
X312920Y-3100484D02*
X331967Y-3110008D01*
X331967Y-3110008D02*
X341491Y-3119531D01*
X341491Y-3119531D02*
X351015Y-3138579D01*
X351015Y-3138579D02*
X360539Y-3176674D01*
X360539Y-3176674D02*
X360539Y-3224293D01*
X360539Y-3224293D02*
X351015Y-3262388D01*
X351015Y-3262388D02*
X341491Y-3281436D01*
X341491Y-3281436D02*
X331967Y-3290960D01*
X331967Y-3290960D02*
X312920Y-3300484D01*
X312920Y-3300484D02*
X293872Y-3300484D01*
X293872Y-3300484D02*
X274824Y-3290960D01*
X274824Y-3290960D02*
X265301Y-3281436D01*
X265301Y-3281436D02*
X255777Y-3262388D01*
X255777Y-3262388D02*
X246253Y-3224293D01*
X246253Y-3224293D02*
X246253Y-3176674D01*
X246253Y-3176674D02*
X255777Y-3138579D01*
X255777Y-3138579D02*
X265301Y-3119531D01*
X265301Y-3119531D02*
X274824Y-3110008D01*
X274824Y-3110008D02*
X293872Y-3100484D01*
X446253Y-3281436D02*
X455777Y-3290960D01*
X455777Y-3290960D02*
X446253Y-3300484D01*
X446253Y-3300484D02*
X436729Y-3290960D01*
X436729Y-3290960D02*
X446253Y-3281436D01*
X446253Y-3281436D02*
X446253Y-3300484D01*
X570063Y-3186198D02*
X551015Y-3176674D01*
X551015Y-3176674D02*
X541491Y-3167150D01*
X541491Y-3167150D02*
X531967Y-3148103D01*
X531967Y-3148103D02*
X531967Y-3138579D01*
X531967Y-3138579D02*
X541491Y-3119531D01*
X541491Y-3119531D02*
X551015Y-3110008D01*
X551015Y-3110008D02*
X570063Y-3100484D01*
X570063Y-3100484D02*
X608158Y-3100484D01*
X608158Y-3100484D02*
X627205Y-3110008D01*
X627205Y-3110008D02*
X636729Y-3119531D01*
X636729Y-3119531D02*
X646253Y-3138579D01*
X646253Y-3138579D02*
X646253Y-3148103D01*
X646253Y-3148103D02*
X636729Y-3167150D01*
X636729Y-3167150D02*
X627205Y-3176674D01*
X627205Y-3176674D02*
X608158Y-3186198D01*
X608158Y-3186198D02*
X570063Y-3186198D01*
X570063Y-3186198D02*
X551015Y-3195722D01*
X551015Y-3195722D02*
X541491Y-3205246D01*
X541491Y-3205246D02*
X531967Y-3224293D01*
X531967Y-3224293D02*
X531967Y-3262388D01*
X531967Y-3262388D02*
X541491Y-3281436D01*
X541491Y-3281436D02*
X551015Y-3290960D01*
X551015Y-3290960D02*
X570063Y-3300484D01*
X570063Y-3300484D02*
X608158Y-3300484D01*
X608158Y-3300484D02*
X627205Y-3290960D01*
X627205Y-3290960D02*
X636729Y-3281436D01*
X636729Y-3281436D02*
X646253Y-3262388D01*
X646253Y-3262388D02*
X646253Y-3224293D01*
X646253Y-3224293D02*
X636729Y-3205246D01*
X636729Y-3205246D02*
X627205Y-3195722D01*
X627205Y-3195722D02*
X608158Y-3186198D01*
X770062Y-3100484D02*
X789110Y-3100484D01*
X789110Y-3100484D02*
X808158Y-3110008D01*
X808158Y-3110008D02*
X817682Y-3119531D01*
X817682Y-3119531D02*
X827205Y-3138579D01*
X827205Y-3138579D02*
X836729Y-3176674D01*
X836729Y-3176674D02*
X836729Y-3224293D01*
X836729Y-3224293D02*
X827205Y-3262388D01*
X827205Y-3262388D02*
X817682Y-3281436D01*
X817682Y-3281436D02*
X808158Y-3290960D01*
X808158Y-3290960D02*
X789110Y-3300484D01*
X789110Y-3300484D02*
X770062Y-3300484D01*
X770062Y-3300484D02*
X751015Y-3290960D01*
X751015Y-3290960D02*
X741491Y-3281436D01*
X741491Y-3281436D02*
X731967Y-3262388D01*
X731967Y-3262388D02*
X722443Y-3224293D01*
X722443Y-3224293D02*
X722443Y-3176674D01*
X722443Y-3176674D02*
X731967Y-3138579D01*
X731967Y-3138579D02*
X741491Y-3119531D01*
X741491Y-3119531D02*
X751015Y-3110008D01*
X751015Y-3110008D02*
X770062Y-3100484D01*
X960539Y-3100484D02*
X979586Y-3100484D01*
X979586Y-3100484D02*
X998634Y-3110008D01*
X998634Y-3110008D02*
X1008158Y-3119531D01*
X1008158Y-3119531D02*
X1017682Y-3138579D01*
X1017682Y-3138579D02*
X1027205Y-3176674D01*
X1027205Y-3176674D02*
X1027205Y-3224293D01*
X1027205Y-3224293D02*
X1017682Y-3262388D01*
X1017682Y-3262388D02*
X1008158Y-3281436D01*
X1008158Y-3281436D02*
X998634Y-3290960D01*
X998634Y-3290960D02*
X979586Y-3300484D01*
X979586Y-3300484D02*
X960539Y-3300484D01*
X960539Y-3300484D02*
X941491Y-3290960D01*
X941491Y-3290960D02*
X931967Y-3281436D01*
X931967Y-3281436D02*
X922443Y-3262388D01*
X922443Y-3262388D02*
X912920Y-3224293D01*
X912920Y-3224293D02*
X912920Y-3176674D01*
X912920Y-3176674D02*
X922443Y-3138579D01*
X922443Y-3138579D02*
X931967Y-3119531D01*
X931967Y-3119531D02*
X941491Y-3110008D01*
X941491Y-3110008D02*
X960539Y-3100484D01*
X1112920Y-3300484D02*
X1112920Y-3167150D01*
X1112920Y-3186198D02*
X1122444Y-3176674D01*
X1122444Y-3176674D02*
X1141491Y-3167150D01*
X1141491Y-3167150D02*
X1170063Y-3167150D01*
X1170063Y-3167150D02*
X1189110Y-3176674D01*
X1189110Y-3176674D02*
X1198634Y-3195722D01*
X1198634Y-3195722D02*
X1198634Y-3300484D01*
X1198634Y-3195722D02*
X1208158Y-3176674D01*
X1208158Y-3176674D02*
X1227205Y-3167150D01*
X1227205Y-3167150D02*
X1255777Y-3167150D01*
X1255777Y-3167150D02*
X1274825Y-3176674D01*
X1274825Y-3176674D02*
X1284348Y-3195722D01*
X1284348Y-3195722D02*
X1284348Y-3300484D01*
X1379586Y-3300484D02*
X1379586Y-3167150D01*
X1379586Y-3186198D02*
X1389110Y-3176674D01*
X1389110Y-3176674D02*
X1408158Y-3167150D01*
X1408158Y-3167150D02*
X1436729Y-3167150D01*
X1436729Y-3167150D02*
X1455777Y-3176674D01*
X1455777Y-3176674D02*
X1465301Y-3195722D01*
X1465301Y-3195722D02*
X1465301Y-3300484D01*
X1465301Y-3195722D02*
X1474824Y-3176674D01*
X1474824Y-3176674D02*
X1493872Y-3167150D01*
X1493872Y-3167150D02*
X1522443Y-3167150D01*
X1522443Y-3167150D02*
X1541491Y-3176674D01*
X1541491Y-3176674D02*
X1551015Y-3195722D01*
X1551015Y-3195722D02*
X1551015Y-3300484D01*
X1941491Y-3090960D02*
X1770063Y-3348103D01*
X2198634Y-3100484D02*
X2217682Y-3100484D01*
X2217682Y-3100484D02*
X2236729Y-3110008D01*
X2236729Y-3110008D02*
X2246253Y-3119531D01*
X2246253Y-3119531D02*
X2255777Y-3138579D01*
X2255777Y-3138579D02*
X2265301Y-3176674D01*
X2265301Y-3176674D02*
X2265301Y-3224293D01*
X2265301Y-3224293D02*
X2255777Y-3262388D01*
X2255777Y-3262388D02*
X2246253Y-3281436D01*
X2246253Y-3281436D02*
X2236729Y-3290960D01*
X2236729Y-3290960D02*
X2217682Y-3300484D01*
X2217682Y-3300484D02*
X2198634Y-3300484D01*
X2198634Y-3300484D02*
X2179587Y-3290960D01*
X2179587Y-3290960D02*
X2170063Y-3281436D01*
X2170063Y-3281436D02*
X2160539Y-3262388D01*
X2160539Y-3262388D02*
X2151015Y-3224293D01*
X2151015Y-3224293D02*
X2151015Y-3176674D01*
X2151015Y-3176674D02*
X2160539Y-3138579D01*
X2160539Y-3138579D02*
X2170063Y-3119531D01*
X2170063Y-3119531D02*
X2179587Y-3110008D01*
X2179587Y-3110008D02*
X2198634Y-3100484D01*
X2351015Y-3281436D02*
X2360539Y-3290960D01*
X2360539Y-3290960D02*
X2351015Y-3300484D01*
X2351015Y-3300484D02*
X2341491Y-3290960D01*
X2341491Y-3290960D02*
X2351015Y-3281436D01*
X2351015Y-3281436D02*
X2351015Y-3300484D01*
X2484348Y-3100484D02*
X2503396Y-3100484D01*
X2503396Y-3100484D02*
X2522444Y-3110008D01*
X2522444Y-3110008D02*
X2531968Y-3119531D01*
X2531968Y-3119531D02*
X2541491Y-3138579D01*
X2541491Y-3138579D02*
X2551015Y-3176674D01*
X2551015Y-3176674D02*
X2551015Y-3224293D01*
X2551015Y-3224293D02*
X2541491Y-3262388D01*
X2541491Y-3262388D02*
X2531968Y-3281436D01*
X2531968Y-3281436D02*
X2522444Y-3290960D01*
X2522444Y-3290960D02*
X2503396Y-3300484D01*
X2503396Y-3300484D02*
X2484348Y-3300484D01*
X2484348Y-3300484D02*
X2465301Y-3290960D01*
X2465301Y-3290960D02*
X2455777Y-3281436D01*
X2455777Y-3281436D02*
X2446253Y-3262388D01*
X2446253Y-3262388D02*
X2436729Y-3224293D01*
X2436729Y-3224293D02*
X2436729Y-3176674D01*
X2436729Y-3176674D02*
X2446253Y-3138579D01*
X2446253Y-3138579D02*
X2455777Y-3119531D01*
X2455777Y-3119531D02*
X2465301Y-3110008D01*
X2465301Y-3110008D02*
X2484348Y-3100484D01*
X2617682Y-3100484D02*
X2741491Y-3100484D01*
X2741491Y-3100484D02*
X2674825Y-3176674D01*
X2674825Y-3176674D02*
X2703396Y-3176674D01*
X2703396Y-3176674D02*
X2722444Y-3186198D01*
X2722444Y-3186198D02*
X2731968Y-3195722D01*
X2731968Y-3195722D02*
X2741491Y-3214769D01*
X2741491Y-3214769D02*
X2741491Y-3262388D01*
X2741491Y-3262388D02*
X2731968Y-3281436D01*
X2731968Y-3281436D02*
X2722444Y-3290960D01*
X2722444Y-3290960D02*
X2703396Y-3300484D01*
X2703396Y-3300484D02*
X2646253Y-3300484D01*
X2646253Y-3300484D02*
X2627206Y-3290960D01*
X2627206Y-3290960D02*
X2617682Y-3281436D01*
X2931967Y-3300484D02*
X2817682Y-3300484D01*
X2874825Y-3300484D02*
X2874825Y-3100484D01*
X2874825Y-3100484D02*
X2855777Y-3129055D01*
X2855777Y-3129055D02*
X2836729Y-3148103D01*
X2836729Y-3148103D02*
X2817682Y-3157627D01*
X3112920Y-3100484D02*
X3017682Y-3100484D01*
X3017682Y-3100484D02*
X3008158Y-3195722D01*
X3008158Y-3195722D02*
X3017682Y-3186198D01*
X3017682Y-3186198D02*
X3036729Y-3176674D01*
X3036729Y-3176674D02*
X3084348Y-3176674D01*
X3084348Y-3176674D02*
X3103396Y-3186198D01*
X3103396Y-3186198D02*
X3112920Y-3195722D01*
X3112920Y-3195722D02*
X3122444Y-3214769D01*
X3122444Y-3214769D02*
X3122444Y-3262388D01*
X3122444Y-3262388D02*
X3112920Y-3281436D01*
X3112920Y-3281436D02*
X3103396Y-3290960D01*
X3103396Y-3290960D02*
X3084348Y-3300484D01*
X3084348Y-3300484D02*
X3036729Y-3300484D01*
X3036729Y-3300484D02*
X3017682Y-3290960D01*
X3017682Y-3290960D02*
X3008158Y-3281436D01*
X3198634Y-3100484D02*
X3198634Y-3138579D01*
X3274825Y-3100484D02*
X3274825Y-3138579D01*
X3570063Y-3376674D02*
X3560539Y-3367150D01*
X3560539Y-3367150D02*
X3541491Y-3338579D01*
X3541491Y-3338579D02*
X3531968Y-3319531D01*
X3531968Y-3319531D02*
X3522444Y-3290960D01*
X3522444Y-3290960D02*
X3512920Y-3243341D01*
X3512920Y-3243341D02*
X3512920Y-3205246D01*
X3512920Y-3205246D02*
X3522444Y-3157627D01*
X3522444Y-3157627D02*
X3531968Y-3129055D01*
X3531968Y-3129055D02*
X3541491Y-3110008D01*
X3541491Y-3110008D02*
X3560539Y-3081436D01*
X3560539Y-3081436D02*
X3570063Y-3071912D01*
X3731968Y-3167150D02*
X3731968Y-3300484D01*
X3684348Y-3090960D02*
X3636729Y-3233817D01*
X3636729Y-3233817D02*
X3760539Y-3233817D01*
X3989110Y-3300484D02*
X3989110Y-3100484D01*
X4074825Y-3300484D02*
X4074825Y-3195722D01*
X4074825Y-3195722D02*
X4065301Y-3176674D01*
X4065301Y-3176674D02*
X4046253Y-3167150D01*
X4046253Y-3167150D02*
X4017682Y-3167150D01*
X4017682Y-3167150D02*
X3998634Y-3176674D01*
X3998634Y-3176674D02*
X3989110Y-3186198D01*
X4198634Y-3300484D02*
X4179587Y-3290960D01*
X4179587Y-3290960D02*
X4170063Y-3281436D01*
X4170063Y-3281436D02*
X4160539Y-3262388D01*
X4160539Y-3262388D02*
X4160539Y-3205246D01*
X4160539Y-3205246D02*
X4170063Y-3186198D01*
X4170063Y-3186198D02*
X4179587Y-3176674D01*
X4179587Y-3176674D02*
X4198634Y-3167150D01*
X4198634Y-3167150D02*
X4227206Y-3167150D01*
X4227206Y-3167150D02*
X4246253Y-3176674D01*
X4246253Y-3176674D02*
X4255777Y-3186198D01*
X4255777Y-3186198D02*
X4265301Y-3205246D01*
X4265301Y-3205246D02*
X4265301Y-3262388D01*
X4265301Y-3262388D02*
X4255777Y-3281436D01*
X4255777Y-3281436D02*
X4246253Y-3290960D01*
X4246253Y-3290960D02*
X4227206Y-3300484D01*
X4227206Y-3300484D02*
X4198634Y-3300484D01*
X4379587Y-3300484D02*
X4360539Y-3290960D01*
X4360539Y-3290960D02*
X4351015Y-3271912D01*
X4351015Y-3271912D02*
X4351015Y-3100484D01*
X4531968Y-3290960D02*
X4512920Y-3300484D01*
X4512920Y-3300484D02*
X4474825Y-3300484D01*
X4474825Y-3300484D02*
X4455777Y-3290960D01*
X4455777Y-3290960D02*
X4446253Y-3271912D01*
X4446253Y-3271912D02*
X4446253Y-3195722D01*
X4446253Y-3195722D02*
X4455777Y-3176674D01*
X4455777Y-3176674D02*
X4474825Y-3167150D01*
X4474825Y-3167150D02*
X4512920Y-3167150D01*
X4512920Y-3167150D02*
X4531968Y-3176674D01*
X4531968Y-3176674D02*
X4541492Y-3195722D01*
X4541492Y-3195722D02*
X4541492Y-3214769D01*
X4541492Y-3214769D02*
X4446253Y-3233817D01*
X4617682Y-3290960D02*
X4636730Y-3300484D01*
X4636730Y-3300484D02*
X4674825Y-3300484D01*
X4674825Y-3300484D02*
X4693873Y-3290960D01*
X4693873Y-3290960D02*
X4703396Y-3271912D01*
X4703396Y-3271912D02*
X4703396Y-3262388D01*
X4703396Y-3262388D02*
X4693873Y-3243341D01*
X4693873Y-3243341D02*
X4674825Y-3233817D01*
X4674825Y-3233817D02*
X4646253Y-3233817D01*
X4646253Y-3233817D02*
X4627206Y-3224293D01*
X4627206Y-3224293D02*
X4617682Y-3205246D01*
X4617682Y-3205246D02*
X4617682Y-3195722D01*
X4617682Y-3195722D02*
X4627206Y-3176674D01*
X4627206Y-3176674D02*
X4646253Y-3167150D01*
X4646253Y-3167150D02*
X4674825Y-3167150D01*
X4674825Y-3167150D02*
X4693873Y-3176674D01*
X4770063Y-3376674D02*
X4779587Y-3367150D01*
X4779587Y-3367150D02*
X4798634Y-3338579D01*
X4798634Y-3338579D02*
X4808158Y-3319531D01*
X4808158Y-3319531D02*
X4817682Y-3290960D01*
X4817682Y-3290960D02*
X4827206Y-3243341D01*
X4827206Y-3243341D02*
X4827206Y-3205246D01*
X4827206Y-3205246D02*
X4817682Y-3157627D01*
X4817682Y-3157627D02*
X4808158Y-3129055D01*
X4808158Y-3129055D02*
X4798634Y-3110008D01*
X4798634Y-3110008D02*
X4779587Y-3081436D01*
X4779587Y-3081436D02*
X4770063Y-3071912D01*
X5131968Y-3376674D02*
X5122444Y-3367150D01*
X5122444Y-3367150D02*
X5103396Y-3338579D01*
X5103396Y-3338579D02*
X5093873Y-3319531D01*
X5093873Y-3319531D02*
X5084349Y-3290960D01*
X5084349Y-3290960D02*
X5074825Y-3243341D01*
X5074825Y-3243341D02*
X5074825Y-3205246D01*
X5074825Y-3205246D02*
X5084349Y-3157627D01*
X5084349Y-3157627D02*
X5093873Y-3129055D01*
X5093873Y-3129055D02*
X5103396Y-3110008D01*
X5103396Y-3110008D02*
X5122444Y-3081436D01*
X5122444Y-3081436D02*
X5131968Y-3071912D01*
X5208158Y-3167150D02*
X5208158Y-3300484D01*
X5208158Y-3186198D02*
X5217682Y-3176674D01*
X5217682Y-3176674D02*
X5236730Y-3167150D01*
X5236730Y-3167150D02*
X5265301Y-3167150D01*
X5265301Y-3167150D02*
X5284349Y-3176674D01*
X5284349Y-3176674D02*
X5293873Y-3195722D01*
X5293873Y-3195722D02*
X5293873Y-3300484D01*
X5417682Y-3300484D02*
X5398634Y-3290960D01*
X5398634Y-3290960D02*
X5389111Y-3281436D01*
X5389111Y-3281436D02*
X5379587Y-3262388D01*
X5379587Y-3262388D02*
X5379587Y-3205246D01*
X5379587Y-3205246D02*
X5389111Y-3186198D01*
X5389111Y-3186198D02*
X5398634Y-3176674D01*
X5398634Y-3176674D02*
X5417682Y-3167150D01*
X5417682Y-3167150D02*
X5446254Y-3167150D01*
X5446254Y-3167150D02*
X5465301Y-3176674D01*
X5465301Y-3176674D02*
X5474825Y-3186198D01*
X5474825Y-3186198D02*
X5484349Y-3205246D01*
X5484349Y-3205246D02*
X5484349Y-3262388D01*
X5484349Y-3262388D02*
X5474825Y-3281436D01*
X5474825Y-3281436D02*
X5465301Y-3290960D01*
X5465301Y-3290960D02*
X5446254Y-3300484D01*
X5446254Y-3300484D02*
X5417682Y-3300484D01*
X5541492Y-3167150D02*
X5617682Y-3167150D01*
X5570063Y-3100484D02*
X5570063Y-3271912D01*
X5570063Y-3271912D02*
X5579587Y-3290960D01*
X5579587Y-3290960D02*
X5598634Y-3300484D01*
X5598634Y-3300484D02*
X5617682Y-3300484D01*
X5836730Y-3167150D02*
X5836730Y-3367150D01*
X5836730Y-3176674D02*
X5855777Y-3167150D01*
X5855777Y-3167150D02*
X5893873Y-3167150D01*
X5893873Y-3167150D02*
X5912920Y-3176674D01*
X5912920Y-3176674D02*
X5922444Y-3186198D01*
X5922444Y-3186198D02*
X5931968Y-3205246D01*
X5931968Y-3205246D02*
X5931968Y-3262388D01*
X5931968Y-3262388D02*
X5922444Y-3281436D01*
X5922444Y-3281436D02*
X5912920Y-3290960D01*
X5912920Y-3290960D02*
X5893873Y-3300484D01*
X5893873Y-3300484D02*
X5855777Y-3300484D01*
X5855777Y-3300484D02*
X5836730Y-3290960D01*
X6046253Y-3300484D02*
X6027206Y-3290960D01*
X6027206Y-3290960D02*
X6017682Y-3271912D01*
X6017682Y-3271912D02*
X6017682Y-3100484D01*
X6208158Y-3300484D02*
X6208158Y-3195722D01*
X6208158Y-3195722D02*
X6198634Y-3176674D01*
X6198634Y-3176674D02*
X6179587Y-3167150D01*
X6179587Y-3167150D02*
X6141492Y-3167150D01*
X6141492Y-3167150D02*
X6122444Y-3176674D01*
X6208158Y-3290960D02*
X6189111Y-3300484D01*
X6189111Y-3300484D02*
X6141492Y-3300484D01*
X6141492Y-3300484D02*
X6122444Y-3290960D01*
X6122444Y-3290960D02*
X6112920Y-3271912D01*
X6112920Y-3271912D02*
X6112920Y-3252865D01*
X6112920Y-3252865D02*
X6122444Y-3233817D01*
X6122444Y-3233817D02*
X6141492Y-3224293D01*
X6141492Y-3224293D02*
X6189111Y-3224293D01*
X6189111Y-3224293D02*
X6208158Y-3214769D01*
X6274825Y-3167150D02*
X6351015Y-3167150D01*
X6303396Y-3100484D02*
X6303396Y-3271912D01*
X6303396Y-3271912D02*
X6312920Y-3290960D01*
X6312920Y-3290960D02*
X6331968Y-3300484D01*
X6331968Y-3300484D02*
X6351015Y-3300484D01*
X6493873Y-3290960D02*
X6474825Y-3300484D01*
X6474825Y-3300484D02*
X6436730Y-3300484D01*
X6436730Y-3300484D02*
X6417682Y-3290960D01*
X6417682Y-3290960D02*
X6408158Y-3271912D01*
X6408158Y-3271912D02*
X6408158Y-3195722D01*
X6408158Y-3195722D02*
X6417682Y-3176674D01*
X6417682Y-3176674D02*
X6436730Y-3167150D01*
X6436730Y-3167150D02*
X6474825Y-3167150D01*
X6474825Y-3167150D02*
X6493873Y-3176674D01*
X6493873Y-3176674D02*
X6503396Y-3195722D01*
X6503396Y-3195722D02*
X6503396Y-3214769D01*
X6503396Y-3214769D02*
X6408158Y-3233817D01*
X6674825Y-3300484D02*
X6674825Y-3100484D01*
X6674825Y-3290960D02*
X6655777Y-3300484D01*
X6655777Y-3300484D02*
X6617682Y-3300484D01*
X6617682Y-3300484D02*
X6598634Y-3290960D01*
X6598634Y-3290960D02*
X6589111Y-3281436D01*
X6589111Y-3281436D02*
X6579587Y-3262388D01*
X6579587Y-3262388D02*
X6579587Y-3205246D01*
X6579587Y-3205246D02*
X6589111Y-3186198D01*
X6589111Y-3186198D02*
X6598634Y-3176674D01*
X6598634Y-3176674D02*
X6617682Y-3167150D01*
X6617682Y-3167150D02*
X6655777Y-3167150D01*
X6655777Y-3167150D02*
X6674825Y-3176674D01*
X6751015Y-3376674D02*
X6760539Y-3367150D01*
X6760539Y-3367150D02*
X6779587Y-3338579D01*
X6779587Y-3338579D02*
X6789111Y-3319531D01*
X6789111Y-3319531D02*
X6798634Y-3290960D01*
X6798634Y-3290960D02*
X6808158Y-3243341D01*
X6808158Y-3243341D02*
X6808158Y-3205246D01*
X6808158Y-3205246D02*
X6798634Y-3157627D01*
X6798634Y-3157627D02*
X6789111Y-3129055D01*
X6789111Y-3129055D02*
X6779587Y-3110008D01*
X6779587Y-3110008D02*
X6760539Y-3081436D01*
X6760539Y-3081436D02*
X6751015Y-3071912D01*
D10*
X-50000Y-3428000D02*
X-50000Y-3518000D01*
X-95000Y-3473000D02*
X-5000Y-3473000D01*
D11*
X293872Y-3364484D02*
X312920Y-3364484D01*
X312920Y-3364484D02*
X331967Y-3374008D01*
X331967Y-3374008D02*
X341491Y-3383531D01*
X341491Y-3383531D02*
X351015Y-3402579D01*
X351015Y-3402579D02*
X360539Y-3440674D01*
X360539Y-3440674D02*
X360539Y-3488293D01*
X360539Y-3488293D02*
X351015Y-3526388D01*
X351015Y-3526388D02*
X341491Y-3545436D01*
X341491Y-3545436D02*
X331967Y-3554960D01*
X331967Y-3554960D02*
X312920Y-3564484D01*
X312920Y-3564484D02*
X293872Y-3564484D01*
X293872Y-3564484D02*
X274824Y-3554960D01*
X274824Y-3554960D02*
X265301Y-3545436D01*
X265301Y-3545436D02*
X255777Y-3526388D01*
X255777Y-3526388D02*
X246253Y-3488293D01*
X246253Y-3488293D02*
X246253Y-3440674D01*
X246253Y-3440674D02*
X255777Y-3402579D01*
X255777Y-3402579D02*
X265301Y-3383531D01*
X265301Y-3383531D02*
X274824Y-3374008D01*
X274824Y-3374008D02*
X293872Y-3364484D01*
X446253Y-3545436D02*
X455777Y-3554960D01*
X455777Y-3554960D02*
X446253Y-3564484D01*
X446253Y-3564484D02*
X436729Y-3554960D01*
X436729Y-3554960D02*
X446253Y-3545436D01*
X446253Y-3545436D02*
X446253Y-3564484D01*
X551015Y-3564484D02*
X589110Y-3564484D01*
X589110Y-3564484D02*
X608158Y-3554960D01*
X608158Y-3554960D02*
X617682Y-3545436D01*
X617682Y-3545436D02*
X636729Y-3516865D01*
X636729Y-3516865D02*
X646253Y-3478769D01*
X646253Y-3478769D02*
X646253Y-3402579D01*
X646253Y-3402579D02*
X636729Y-3383531D01*
X636729Y-3383531D02*
X627205Y-3374008D01*
X627205Y-3374008D02*
X608158Y-3364484D01*
X608158Y-3364484D02*
X570063Y-3364484D01*
X570063Y-3364484D02*
X551015Y-3374008D01*
X551015Y-3374008D02*
X541491Y-3383531D01*
X541491Y-3383531D02*
X531967Y-3402579D01*
X531967Y-3402579D02*
X531967Y-3450198D01*
X531967Y-3450198D02*
X541491Y-3469246D01*
X541491Y-3469246D02*
X551015Y-3478769D01*
X551015Y-3478769D02*
X570063Y-3488293D01*
X570063Y-3488293D02*
X608158Y-3488293D01*
X608158Y-3488293D02*
X627205Y-3478769D01*
X627205Y-3478769D02*
X636729Y-3469246D01*
X636729Y-3469246D02*
X646253Y-3450198D01*
X770062Y-3364484D02*
X789110Y-3364484D01*
X789110Y-3364484D02*
X808158Y-3374008D01*
X808158Y-3374008D02*
X817682Y-3383531D01*
X817682Y-3383531D02*
X827205Y-3402579D01*
X827205Y-3402579D02*
X836729Y-3440674D01*
X836729Y-3440674D02*
X836729Y-3488293D01*
X836729Y-3488293D02*
X827205Y-3526388D01*
X827205Y-3526388D02*
X817682Y-3545436D01*
X817682Y-3545436D02*
X808158Y-3554960D01*
X808158Y-3554960D02*
X789110Y-3564484D01*
X789110Y-3564484D02*
X770062Y-3564484D01*
X770062Y-3564484D02*
X751015Y-3554960D01*
X751015Y-3554960D02*
X741491Y-3545436D01*
X741491Y-3545436D02*
X731967Y-3526388D01*
X731967Y-3526388D02*
X722443Y-3488293D01*
X722443Y-3488293D02*
X722443Y-3440674D01*
X722443Y-3440674D02*
X731967Y-3402579D01*
X731967Y-3402579D02*
X741491Y-3383531D01*
X741491Y-3383531D02*
X751015Y-3374008D01*
X751015Y-3374008D02*
X770062Y-3364484D01*
X960539Y-3364484D02*
X979586Y-3364484D01*
X979586Y-3364484D02*
X998634Y-3374008D01*
X998634Y-3374008D02*
X1008158Y-3383531D01*
X1008158Y-3383531D02*
X1017682Y-3402579D01*
X1017682Y-3402579D02*
X1027205Y-3440674D01*
X1027205Y-3440674D02*
X1027205Y-3488293D01*
X1027205Y-3488293D02*
X1017682Y-3526388D01*
X1017682Y-3526388D02*
X1008158Y-3545436D01*
X1008158Y-3545436D02*
X998634Y-3554960D01*
X998634Y-3554960D02*
X979586Y-3564484D01*
X979586Y-3564484D02*
X960539Y-3564484D01*
X960539Y-3564484D02*
X941491Y-3554960D01*
X941491Y-3554960D02*
X931967Y-3545436D01*
X931967Y-3545436D02*
X922443Y-3526388D01*
X922443Y-3526388D02*
X912920Y-3488293D01*
X912920Y-3488293D02*
X912920Y-3440674D01*
X912920Y-3440674D02*
X922443Y-3402579D01*
X922443Y-3402579D02*
X931967Y-3383531D01*
X931967Y-3383531D02*
X941491Y-3374008D01*
X941491Y-3374008D02*
X960539Y-3364484D01*
X1112920Y-3564484D02*
X1112920Y-3431150D01*
X1112920Y-3450198D02*
X1122444Y-3440674D01*
X1122444Y-3440674D02*
X1141491Y-3431150D01*
X1141491Y-3431150D02*
X1170063Y-3431150D01*
X1170063Y-3431150D02*
X1189110Y-3440674D01*
X1189110Y-3440674D02*
X1198634Y-3459722D01*
X1198634Y-3459722D02*
X1198634Y-3564484D01*
X1198634Y-3459722D02*
X1208158Y-3440674D01*
X1208158Y-3440674D02*
X1227205Y-3431150D01*
X1227205Y-3431150D02*
X1255777Y-3431150D01*
X1255777Y-3431150D02*
X1274825Y-3440674D01*
X1274825Y-3440674D02*
X1284348Y-3459722D01*
X1284348Y-3459722D02*
X1284348Y-3564484D01*
X1379586Y-3564484D02*
X1379586Y-3431150D01*
X1379586Y-3450198D02*
X1389110Y-3440674D01*
X1389110Y-3440674D02*
X1408158Y-3431150D01*
X1408158Y-3431150D02*
X1436729Y-3431150D01*
X1436729Y-3431150D02*
X1455777Y-3440674D01*
X1455777Y-3440674D02*
X1465301Y-3459722D01*
X1465301Y-3459722D02*
X1465301Y-3564484D01*
X1465301Y-3459722D02*
X1474824Y-3440674D01*
X1474824Y-3440674D02*
X1493872Y-3431150D01*
X1493872Y-3431150D02*
X1522443Y-3431150D01*
X1522443Y-3431150D02*
X1541491Y-3440674D01*
X1541491Y-3440674D02*
X1551015Y-3459722D01*
X1551015Y-3459722D02*
X1551015Y-3564484D01*
X1941491Y-3354960D02*
X1770063Y-3612103D01*
X2198634Y-3364484D02*
X2217682Y-3364484D01*
X2217682Y-3364484D02*
X2236729Y-3374008D01*
X2236729Y-3374008D02*
X2246253Y-3383531D01*
X2246253Y-3383531D02*
X2255777Y-3402579D01*
X2255777Y-3402579D02*
X2265301Y-3440674D01*
X2265301Y-3440674D02*
X2265301Y-3488293D01*
X2265301Y-3488293D02*
X2255777Y-3526388D01*
X2255777Y-3526388D02*
X2246253Y-3545436D01*
X2246253Y-3545436D02*
X2236729Y-3554960D01*
X2236729Y-3554960D02*
X2217682Y-3564484D01*
X2217682Y-3564484D02*
X2198634Y-3564484D01*
X2198634Y-3564484D02*
X2179587Y-3554960D01*
X2179587Y-3554960D02*
X2170063Y-3545436D01*
X2170063Y-3545436D02*
X2160539Y-3526388D01*
X2160539Y-3526388D02*
X2151015Y-3488293D01*
X2151015Y-3488293D02*
X2151015Y-3440674D01*
X2151015Y-3440674D02*
X2160539Y-3402579D01*
X2160539Y-3402579D02*
X2170063Y-3383531D01*
X2170063Y-3383531D02*
X2179587Y-3374008D01*
X2179587Y-3374008D02*
X2198634Y-3364484D01*
X2351015Y-3545436D02*
X2360539Y-3554960D01*
X2360539Y-3554960D02*
X2351015Y-3564484D01*
X2351015Y-3564484D02*
X2341491Y-3554960D01*
X2341491Y-3554960D02*
X2351015Y-3545436D01*
X2351015Y-3545436D02*
X2351015Y-3564484D01*
X2484348Y-3364484D02*
X2503396Y-3364484D01*
X2503396Y-3364484D02*
X2522444Y-3374008D01*
X2522444Y-3374008D02*
X2531968Y-3383531D01*
X2531968Y-3383531D02*
X2541491Y-3402579D01*
X2541491Y-3402579D02*
X2551015Y-3440674D01*
X2551015Y-3440674D02*
X2551015Y-3488293D01*
X2551015Y-3488293D02*
X2541491Y-3526388D01*
X2541491Y-3526388D02*
X2531968Y-3545436D01*
X2531968Y-3545436D02*
X2522444Y-3554960D01*
X2522444Y-3554960D02*
X2503396Y-3564484D01*
X2503396Y-3564484D02*
X2484348Y-3564484D01*
X2484348Y-3564484D02*
X2465301Y-3554960D01*
X2465301Y-3554960D02*
X2455777Y-3545436D01*
X2455777Y-3545436D02*
X2446253Y-3526388D01*
X2446253Y-3526388D02*
X2436729Y-3488293D01*
X2436729Y-3488293D02*
X2436729Y-3440674D01*
X2436729Y-3440674D02*
X2446253Y-3402579D01*
X2446253Y-3402579D02*
X2455777Y-3383531D01*
X2455777Y-3383531D02*
X2465301Y-3374008D01*
X2465301Y-3374008D02*
X2484348Y-3364484D01*
X2617682Y-3364484D02*
X2741491Y-3364484D01*
X2741491Y-3364484D02*
X2674825Y-3440674D01*
X2674825Y-3440674D02*
X2703396Y-3440674D01*
X2703396Y-3440674D02*
X2722444Y-3450198D01*
X2722444Y-3450198D02*
X2731968Y-3459722D01*
X2731968Y-3459722D02*
X2741491Y-3478769D01*
X2741491Y-3478769D02*
X2741491Y-3526388D01*
X2741491Y-3526388D02*
X2731968Y-3545436D01*
X2731968Y-3545436D02*
X2722444Y-3554960D01*
X2722444Y-3554960D02*
X2703396Y-3564484D01*
X2703396Y-3564484D02*
X2646253Y-3564484D01*
X2646253Y-3564484D02*
X2627206Y-3554960D01*
X2627206Y-3554960D02*
X2617682Y-3545436D01*
X2922444Y-3364484D02*
X2827206Y-3364484D01*
X2827206Y-3364484D02*
X2817682Y-3459722D01*
X2817682Y-3459722D02*
X2827206Y-3450198D01*
X2827206Y-3450198D02*
X2846253Y-3440674D01*
X2846253Y-3440674D02*
X2893872Y-3440674D01*
X2893872Y-3440674D02*
X2912920Y-3450198D01*
X2912920Y-3450198D02*
X2922444Y-3459722D01*
X2922444Y-3459722D02*
X2931967Y-3478769D01*
X2931967Y-3478769D02*
X2931967Y-3526388D01*
X2931967Y-3526388D02*
X2922444Y-3545436D01*
X2922444Y-3545436D02*
X2912920Y-3554960D01*
X2912920Y-3554960D02*
X2893872Y-3564484D01*
X2893872Y-3564484D02*
X2846253Y-3564484D01*
X2846253Y-3564484D02*
X2827206Y-3554960D01*
X2827206Y-3554960D02*
X2817682Y-3545436D01*
X3103396Y-3431150D02*
X3103396Y-3564484D01*
X3055777Y-3354960D02*
X3008158Y-3497817D01*
X3008158Y-3497817D02*
X3131967Y-3497817D01*
X3198634Y-3364484D02*
X3198634Y-3402579D01*
X3274825Y-3364484D02*
X3274825Y-3402579D01*
X3570063Y-3640674D02*
X3560539Y-3631150D01*
X3560539Y-3631150D02*
X3541491Y-3602579D01*
X3541491Y-3602579D02*
X3531968Y-3583531D01*
X3531968Y-3583531D02*
X3522444Y-3554960D01*
X3522444Y-3554960D02*
X3512920Y-3507341D01*
X3512920Y-3507341D02*
X3512920Y-3469246D01*
X3512920Y-3469246D02*
X3522444Y-3421627D01*
X3522444Y-3421627D02*
X3531968Y-3393055D01*
X3531968Y-3393055D02*
X3541491Y-3374008D01*
X3541491Y-3374008D02*
X3560539Y-3345436D01*
X3560539Y-3345436D02*
X3570063Y-3335912D01*
X3751015Y-3564484D02*
X3636729Y-3564484D01*
X3693872Y-3564484D02*
X3693872Y-3364484D01*
X3693872Y-3364484D02*
X3674825Y-3393055D01*
X3674825Y-3393055D02*
X3655777Y-3412103D01*
X3655777Y-3412103D02*
X3636729Y-3421627D01*
X3989110Y-3564484D02*
X3989110Y-3364484D01*
X4074825Y-3564484D02*
X4074825Y-3459722D01*
X4074825Y-3459722D02*
X4065301Y-3440674D01*
X4065301Y-3440674D02*
X4046253Y-3431150D01*
X4046253Y-3431150D02*
X4017682Y-3431150D01*
X4017682Y-3431150D02*
X3998634Y-3440674D01*
X3998634Y-3440674D02*
X3989110Y-3450198D01*
X4198634Y-3564484D02*
X4179587Y-3554960D01*
X4179587Y-3554960D02*
X4170063Y-3545436D01*
X4170063Y-3545436D02*
X4160539Y-3526388D01*
X4160539Y-3526388D02*
X4160539Y-3469246D01*
X4160539Y-3469246D02*
X4170063Y-3450198D01*
X4170063Y-3450198D02*
X4179587Y-3440674D01*
X4179587Y-3440674D02*
X4198634Y-3431150D01*
X4198634Y-3431150D02*
X4227206Y-3431150D01*
X4227206Y-3431150D02*
X4246253Y-3440674D01*
X4246253Y-3440674D02*
X4255777Y-3450198D01*
X4255777Y-3450198D02*
X4265301Y-3469246D01*
X4265301Y-3469246D02*
X4265301Y-3526388D01*
X4265301Y-3526388D02*
X4255777Y-3545436D01*
X4255777Y-3545436D02*
X4246253Y-3554960D01*
X4246253Y-3554960D02*
X4227206Y-3564484D01*
X4227206Y-3564484D02*
X4198634Y-3564484D01*
X4379587Y-3564484D02*
X4360539Y-3554960D01*
X4360539Y-3554960D02*
X4351015Y-3535912D01*
X4351015Y-3535912D02*
X4351015Y-3364484D01*
X4531968Y-3554960D02*
X4512920Y-3564484D01*
X4512920Y-3564484D02*
X4474825Y-3564484D01*
X4474825Y-3564484D02*
X4455777Y-3554960D01*
X4455777Y-3554960D02*
X4446253Y-3535912D01*
X4446253Y-3535912D02*
X4446253Y-3459722D01*
X4446253Y-3459722D02*
X4455777Y-3440674D01*
X4455777Y-3440674D02*
X4474825Y-3431150D01*
X4474825Y-3431150D02*
X4512920Y-3431150D01*
X4512920Y-3431150D02*
X4531968Y-3440674D01*
X4531968Y-3440674D02*
X4541492Y-3459722D01*
X4541492Y-3459722D02*
X4541492Y-3478769D01*
X4541492Y-3478769D02*
X4446253Y-3497817D01*
X4608158Y-3640674D02*
X4617682Y-3631150D01*
X4617682Y-3631150D02*
X4636730Y-3602579D01*
X4636730Y-3602579D02*
X4646253Y-3583531D01*
X4646253Y-3583531D02*
X4655777Y-3554960D01*
X4655777Y-3554960D02*
X4665301Y-3507341D01*
X4665301Y-3507341D02*
X4665301Y-3469246D01*
X4665301Y-3469246D02*
X4655777Y-3421627D01*
X4655777Y-3421627D02*
X4646253Y-3393055D01*
X4646253Y-3393055D02*
X4636730Y-3374008D01*
X4636730Y-3374008D02*
X4617682Y-3345436D01*
X4617682Y-3345436D02*
X4608158Y-3335912D01*
X4970063Y-3640674D02*
X4960539Y-3631150D01*
X4960539Y-3631150D02*
X4941492Y-3602579D01*
X4941492Y-3602579D02*
X4931968Y-3583531D01*
X4931968Y-3583531D02*
X4922444Y-3554960D01*
X4922444Y-3554960D02*
X4912920Y-3507341D01*
X4912920Y-3507341D02*
X4912920Y-3469246D01*
X4912920Y-3469246D02*
X4922444Y-3421627D01*
X4922444Y-3421627D02*
X4931968Y-3393055D01*
X4931968Y-3393055D02*
X4941492Y-3374008D01*
X4941492Y-3374008D02*
X4960539Y-3345436D01*
X4960539Y-3345436D02*
X4970063Y-3335912D01*
X5046253Y-3431150D02*
X5046253Y-3564484D01*
X5046253Y-3450198D02*
X5055777Y-3440674D01*
X5055777Y-3440674D02*
X5074825Y-3431150D01*
X5074825Y-3431150D02*
X5103396Y-3431150D01*
X5103396Y-3431150D02*
X5122444Y-3440674D01*
X5122444Y-3440674D02*
X5131968Y-3459722D01*
X5131968Y-3459722D02*
X5131968Y-3564484D01*
X5255777Y-3564484D02*
X5236730Y-3554960D01*
X5236730Y-3554960D02*
X5227206Y-3545436D01*
X5227206Y-3545436D02*
X5217682Y-3526388D01*
X5217682Y-3526388D02*
X5217682Y-3469246D01*
X5217682Y-3469246D02*
X5227206Y-3450198D01*
X5227206Y-3450198D02*
X5236730Y-3440674D01*
X5236730Y-3440674D02*
X5255777Y-3431150D01*
X5255777Y-3431150D02*
X5284349Y-3431150D01*
X5284349Y-3431150D02*
X5303396Y-3440674D01*
X5303396Y-3440674D02*
X5312920Y-3450198D01*
X5312920Y-3450198D02*
X5322444Y-3469246D01*
X5322444Y-3469246D02*
X5322444Y-3526388D01*
X5322444Y-3526388D02*
X5312920Y-3545436D01*
X5312920Y-3545436D02*
X5303396Y-3554960D01*
X5303396Y-3554960D02*
X5284349Y-3564484D01*
X5284349Y-3564484D02*
X5255777Y-3564484D01*
X5379587Y-3431150D02*
X5455777Y-3431150D01*
X5408158Y-3364484D02*
X5408158Y-3535912D01*
X5408158Y-3535912D02*
X5417682Y-3554960D01*
X5417682Y-3554960D02*
X5436730Y-3564484D01*
X5436730Y-3564484D02*
X5455777Y-3564484D01*
X5674825Y-3431150D02*
X5674825Y-3631150D01*
X5674825Y-3440674D02*
X5693872Y-3431150D01*
X5693872Y-3431150D02*
X5731968Y-3431150D01*
X5731968Y-3431150D02*
X5751015Y-3440674D01*
X5751015Y-3440674D02*
X5760539Y-3450198D01*
X5760539Y-3450198D02*
X5770063Y-3469246D01*
X5770063Y-3469246D02*
X5770063Y-3526388D01*
X5770063Y-3526388D02*
X5760539Y-3545436D01*
X5760539Y-3545436D02*
X5751015Y-3554960D01*
X5751015Y-3554960D02*
X5731968Y-3564484D01*
X5731968Y-3564484D02*
X5693872Y-3564484D01*
X5693872Y-3564484D02*
X5674825Y-3554960D01*
X5884349Y-3564484D02*
X5865301Y-3554960D01*
X5865301Y-3554960D02*
X5855777Y-3535912D01*
X5855777Y-3535912D02*
X5855777Y-3364484D01*
X6046253Y-3564484D02*
X6046253Y-3459722D01*
X6046253Y-3459722D02*
X6036730Y-3440674D01*
X6036730Y-3440674D02*
X6017682Y-3431150D01*
X6017682Y-3431150D02*
X5979587Y-3431150D01*
X5979587Y-3431150D02*
X5960539Y-3440674D01*
X6046253Y-3554960D02*
X6027206Y-3564484D01*
X6027206Y-3564484D02*
X5979587Y-3564484D01*
X5979587Y-3564484D02*
X5960539Y-3554960D01*
X5960539Y-3554960D02*
X5951015Y-3535912D01*
X5951015Y-3535912D02*
X5951015Y-3516865D01*
X5951015Y-3516865D02*
X5960539Y-3497817D01*
X5960539Y-3497817D02*
X5979587Y-3488293D01*
X5979587Y-3488293D02*
X6027206Y-3488293D01*
X6027206Y-3488293D02*
X6046253Y-3478769D01*
X6112920Y-3431150D02*
X6189111Y-3431150D01*
X6141492Y-3364484D02*
X6141492Y-3535912D01*
X6141492Y-3535912D02*
X6151015Y-3554960D01*
X6151015Y-3554960D02*
X6170063Y-3564484D01*
X6170063Y-3564484D02*
X6189111Y-3564484D01*
X6331968Y-3554960D02*
X6312920Y-3564484D01*
X6312920Y-3564484D02*
X6274825Y-3564484D01*
X6274825Y-3564484D02*
X6255777Y-3554960D01*
X6255777Y-3554960D02*
X6246253Y-3535912D01*
X6246253Y-3535912D02*
X6246253Y-3459722D01*
X6246253Y-3459722D02*
X6255777Y-3440674D01*
X6255777Y-3440674D02*
X6274825Y-3431150D01*
X6274825Y-3431150D02*
X6312920Y-3431150D01*
X6312920Y-3431150D02*
X6331968Y-3440674D01*
X6331968Y-3440674D02*
X6341492Y-3459722D01*
X6341492Y-3459722D02*
X6341492Y-3478769D01*
X6341492Y-3478769D02*
X6246253Y-3497817D01*
X6512920Y-3564484D02*
X6512920Y-3364484D01*
X6512920Y-3554960D02*
X6493873Y-3564484D01*
X6493873Y-3564484D02*
X6455777Y-3564484D01*
X6455777Y-3564484D02*
X6436730Y-3554960D01*
X6436730Y-3554960D02*
X6427206Y-3545436D01*
X6427206Y-3545436D02*
X6417682Y-3526388D01*
X6417682Y-3526388D02*
X6417682Y-3469246D01*
X6417682Y-3469246D02*
X6427206Y-3450198D01*
X6427206Y-3450198D02*
X6436730Y-3440674D01*
X6436730Y-3440674D02*
X6455777Y-3431150D01*
X6455777Y-3431150D02*
X6493873Y-3431150D01*
X6493873Y-3431150D02*
X6512920Y-3440674D01*
X6589111Y-3640674D02*
X6598634Y-3631150D01*
X6598634Y-3631150D02*
X6617682Y-3602579D01*
X6617682Y-3602579D02*
X6627206Y-3583531D01*
X6627206Y-3583531D02*
X6636730Y-3554960D01*
X6636730Y-3554960D02*
X6646253Y-3507341D01*
X6646253Y-3507341D02*
X6646253Y-3469246D01*
X6646253Y-3469246D02*
X6636730Y-3421627D01*
X6636730Y-3421627D02*
X6627206Y-3393055D01*
X6627206Y-3393055D02*
X6617682Y-3374008D01*
X6617682Y-3374008D02*
X6598634Y-3345436D01*
X6598634Y-3345436D02*
X6589111Y-3335912D01*
D10*
X-19644Y-3772356D02*
X-19644Y-3701644D01*
X-90356Y-3701644D01*
X-90356Y-3772356D01*
X-19644Y-3772356D01*
D11*
X360539Y-3828484D02*
X246253Y-3828484D01*
X303396Y-3828484D02*
X303396Y-3628484D01*
X303396Y-3628484D02*
X284348Y-3657055D01*
X284348Y-3657055D02*
X265301Y-3676103D01*
X265301Y-3676103D02*
X246253Y-3685627D01*
X446253Y-3809436D02*
X455777Y-3818960D01*
X455777Y-3818960D02*
X446253Y-3828484D01*
X446253Y-3828484D02*
X436729Y-3818960D01*
X436729Y-3818960D02*
X446253Y-3809436D01*
X446253Y-3809436D02*
X446253Y-3828484D01*
X579586Y-3628484D02*
X598634Y-3628484D01*
X598634Y-3628484D02*
X617682Y-3638008D01*
X617682Y-3638008D02*
X627205Y-3647531D01*
X627205Y-3647531D02*
X636729Y-3666579D01*
X636729Y-3666579D02*
X646253Y-3704674D01*
X646253Y-3704674D02*
X646253Y-3752293D01*
X646253Y-3752293D02*
X636729Y-3790388D01*
X636729Y-3790388D02*
X627205Y-3809436D01*
X627205Y-3809436D02*
X617682Y-3818960D01*
X617682Y-3818960D02*
X598634Y-3828484D01*
X598634Y-3828484D02*
X579586Y-3828484D01*
X579586Y-3828484D02*
X560539Y-3818960D01*
X560539Y-3818960D02*
X551015Y-3809436D01*
X551015Y-3809436D02*
X541491Y-3790388D01*
X541491Y-3790388D02*
X531967Y-3752293D01*
X531967Y-3752293D02*
X531967Y-3704674D01*
X531967Y-3704674D02*
X541491Y-3666579D01*
X541491Y-3666579D02*
X551015Y-3647531D01*
X551015Y-3647531D02*
X560539Y-3638008D01*
X560539Y-3638008D02*
X579586Y-3628484D01*
X770062Y-3628484D02*
X789110Y-3628484D01*
X789110Y-3628484D02*
X808158Y-3638008D01*
X808158Y-3638008D02*
X817682Y-3647531D01*
X817682Y-3647531D02*
X827205Y-3666579D01*
X827205Y-3666579D02*
X836729Y-3704674D01*
X836729Y-3704674D02*
X836729Y-3752293D01*
X836729Y-3752293D02*
X827205Y-3790388D01*
X827205Y-3790388D02*
X817682Y-3809436D01*
X817682Y-3809436D02*
X808158Y-3818960D01*
X808158Y-3818960D02*
X789110Y-3828484D01*
X789110Y-3828484D02*
X770062Y-3828484D01*
X770062Y-3828484D02*
X751015Y-3818960D01*
X751015Y-3818960D02*
X741491Y-3809436D01*
X741491Y-3809436D02*
X731967Y-3790388D01*
X731967Y-3790388D02*
X722443Y-3752293D01*
X722443Y-3752293D02*
X722443Y-3704674D01*
X722443Y-3704674D02*
X731967Y-3666579D01*
X731967Y-3666579D02*
X741491Y-3647531D01*
X741491Y-3647531D02*
X751015Y-3638008D01*
X751015Y-3638008D02*
X770062Y-3628484D01*
X960539Y-3628484D02*
X979586Y-3628484D01*
X979586Y-3628484D02*
X998634Y-3638008D01*
X998634Y-3638008D02*
X1008158Y-3647531D01*
X1008158Y-3647531D02*
X1017682Y-3666579D01*
X1017682Y-3666579D02*
X1027205Y-3704674D01*
X1027205Y-3704674D02*
X1027205Y-3752293D01*
X1027205Y-3752293D02*
X1017682Y-3790388D01*
X1017682Y-3790388D02*
X1008158Y-3809436D01*
X1008158Y-3809436D02*
X998634Y-3818960D01*
X998634Y-3818960D02*
X979586Y-3828484D01*
X979586Y-3828484D02*
X960539Y-3828484D01*
X960539Y-3828484D02*
X941491Y-3818960D01*
X941491Y-3818960D02*
X931967Y-3809436D01*
X931967Y-3809436D02*
X922443Y-3790388D01*
X922443Y-3790388D02*
X912920Y-3752293D01*
X912920Y-3752293D02*
X912920Y-3704674D01*
X912920Y-3704674D02*
X922443Y-3666579D01*
X922443Y-3666579D02*
X931967Y-3647531D01*
X931967Y-3647531D02*
X941491Y-3638008D01*
X941491Y-3638008D02*
X960539Y-3628484D01*
X1112920Y-3828484D02*
X1112920Y-3695150D01*
X1112920Y-3714198D02*
X1122444Y-3704674D01*
X1122444Y-3704674D02*
X1141491Y-3695150D01*
X1141491Y-3695150D02*
X1170063Y-3695150D01*
X1170063Y-3695150D02*
X1189110Y-3704674D01*
X1189110Y-3704674D02*
X1198634Y-3723722D01*
X1198634Y-3723722D02*
X1198634Y-3828484D01*
X1198634Y-3723722D02*
X1208158Y-3704674D01*
X1208158Y-3704674D02*
X1227205Y-3695150D01*
X1227205Y-3695150D02*
X1255777Y-3695150D01*
X1255777Y-3695150D02*
X1274825Y-3704674D01*
X1274825Y-3704674D02*
X1284348Y-3723722D01*
X1284348Y-3723722D02*
X1284348Y-3828484D01*
X1379586Y-3828484D02*
X1379586Y-3695150D01*
X1379586Y-3714198D02*
X1389110Y-3704674D01*
X1389110Y-3704674D02*
X1408158Y-3695150D01*
X1408158Y-3695150D02*
X1436729Y-3695150D01*
X1436729Y-3695150D02*
X1455777Y-3704674D01*
X1455777Y-3704674D02*
X1465301Y-3723722D01*
X1465301Y-3723722D02*
X1465301Y-3828484D01*
X1465301Y-3723722D02*
X1474824Y-3704674D01*
X1474824Y-3704674D02*
X1493872Y-3695150D01*
X1493872Y-3695150D02*
X1522443Y-3695150D01*
X1522443Y-3695150D02*
X1541491Y-3704674D01*
X1541491Y-3704674D02*
X1551015Y-3723722D01*
X1551015Y-3723722D02*
X1551015Y-3828484D01*
X1941491Y-3618960D02*
X1770063Y-3876103D01*
X2198634Y-3628484D02*
X2217682Y-3628484D01*
X2217682Y-3628484D02*
X2236729Y-3638008D01*
X2236729Y-3638008D02*
X2246253Y-3647531D01*
X2246253Y-3647531D02*
X2255777Y-3666579D01*
X2255777Y-3666579D02*
X2265301Y-3704674D01*
X2265301Y-3704674D02*
X2265301Y-3752293D01*
X2265301Y-3752293D02*
X2255777Y-3790388D01*
X2255777Y-3790388D02*
X2246253Y-3809436D01*
X2246253Y-3809436D02*
X2236729Y-3818960D01*
X2236729Y-3818960D02*
X2217682Y-3828484D01*
X2217682Y-3828484D02*
X2198634Y-3828484D01*
X2198634Y-3828484D02*
X2179587Y-3818960D01*
X2179587Y-3818960D02*
X2170063Y-3809436D01*
X2170063Y-3809436D02*
X2160539Y-3790388D01*
X2160539Y-3790388D02*
X2151015Y-3752293D01*
X2151015Y-3752293D02*
X2151015Y-3704674D01*
X2151015Y-3704674D02*
X2160539Y-3666579D01*
X2160539Y-3666579D02*
X2170063Y-3647531D01*
X2170063Y-3647531D02*
X2179587Y-3638008D01*
X2179587Y-3638008D02*
X2198634Y-3628484D01*
X2351015Y-3809436D02*
X2360539Y-3818960D01*
X2360539Y-3818960D02*
X2351015Y-3828484D01*
X2351015Y-3828484D02*
X2341491Y-3818960D01*
X2341491Y-3818960D02*
X2351015Y-3809436D01*
X2351015Y-3809436D02*
X2351015Y-3828484D01*
X2484348Y-3628484D02*
X2503396Y-3628484D01*
X2503396Y-3628484D02*
X2522444Y-3638008D01*
X2522444Y-3638008D02*
X2531968Y-3647531D01*
X2531968Y-3647531D02*
X2541491Y-3666579D01*
X2541491Y-3666579D02*
X2551015Y-3704674D01*
X2551015Y-3704674D02*
X2551015Y-3752293D01*
X2551015Y-3752293D02*
X2541491Y-3790388D01*
X2541491Y-3790388D02*
X2531968Y-3809436D01*
X2531968Y-3809436D02*
X2522444Y-3818960D01*
X2522444Y-3818960D02*
X2503396Y-3828484D01*
X2503396Y-3828484D02*
X2484348Y-3828484D01*
X2484348Y-3828484D02*
X2465301Y-3818960D01*
X2465301Y-3818960D02*
X2455777Y-3809436D01*
X2455777Y-3809436D02*
X2446253Y-3790388D01*
X2446253Y-3790388D02*
X2436729Y-3752293D01*
X2436729Y-3752293D02*
X2436729Y-3704674D01*
X2436729Y-3704674D02*
X2446253Y-3666579D01*
X2446253Y-3666579D02*
X2455777Y-3647531D01*
X2455777Y-3647531D02*
X2465301Y-3638008D01*
X2465301Y-3638008D02*
X2484348Y-3628484D01*
X2617682Y-3628484D02*
X2741491Y-3628484D01*
X2741491Y-3628484D02*
X2674825Y-3704674D01*
X2674825Y-3704674D02*
X2703396Y-3704674D01*
X2703396Y-3704674D02*
X2722444Y-3714198D01*
X2722444Y-3714198D02*
X2731968Y-3723722D01*
X2731968Y-3723722D02*
X2741491Y-3742769D01*
X2741491Y-3742769D02*
X2741491Y-3790388D01*
X2741491Y-3790388D02*
X2731968Y-3809436D01*
X2731968Y-3809436D02*
X2722444Y-3818960D01*
X2722444Y-3818960D02*
X2703396Y-3828484D01*
X2703396Y-3828484D02*
X2646253Y-3828484D01*
X2646253Y-3828484D02*
X2627206Y-3818960D01*
X2627206Y-3818960D02*
X2617682Y-3809436D01*
X2836729Y-3828484D02*
X2874825Y-3828484D01*
X2874825Y-3828484D02*
X2893872Y-3818960D01*
X2893872Y-3818960D02*
X2903396Y-3809436D01*
X2903396Y-3809436D02*
X2922444Y-3780865D01*
X2922444Y-3780865D02*
X2931967Y-3742769D01*
X2931967Y-3742769D02*
X2931967Y-3666579D01*
X2931967Y-3666579D02*
X2922444Y-3647531D01*
X2922444Y-3647531D02*
X2912920Y-3638008D01*
X2912920Y-3638008D02*
X2893872Y-3628484D01*
X2893872Y-3628484D02*
X2855777Y-3628484D01*
X2855777Y-3628484D02*
X2836729Y-3638008D01*
X2836729Y-3638008D02*
X2827206Y-3647531D01*
X2827206Y-3647531D02*
X2817682Y-3666579D01*
X2817682Y-3666579D02*
X2817682Y-3714198D01*
X2817682Y-3714198D02*
X2827206Y-3733246D01*
X2827206Y-3733246D02*
X2836729Y-3742769D01*
X2836729Y-3742769D02*
X2855777Y-3752293D01*
X2855777Y-3752293D02*
X2893872Y-3752293D01*
X2893872Y-3752293D02*
X2912920Y-3742769D01*
X2912920Y-3742769D02*
X2922444Y-3733246D01*
X2922444Y-3733246D02*
X2931967Y-3714198D01*
X3103396Y-3695150D02*
X3103396Y-3828484D01*
X3055777Y-3618960D02*
X3008158Y-3761817D01*
X3008158Y-3761817D02*
X3131967Y-3761817D01*
X3198634Y-3628484D02*
X3198634Y-3666579D01*
X3274825Y-3628484D02*
X3274825Y-3666579D01*
X3570063Y-3904674D02*
X3560539Y-3895150D01*
X3560539Y-3895150D02*
X3541491Y-3866579D01*
X3541491Y-3866579D02*
X3531968Y-3847531D01*
X3531968Y-3847531D02*
X3522444Y-3818960D01*
X3522444Y-3818960D02*
X3512920Y-3771341D01*
X3512920Y-3771341D02*
X3512920Y-3733246D01*
X3512920Y-3733246D02*
X3522444Y-3685627D01*
X3522444Y-3685627D02*
X3531968Y-3657055D01*
X3531968Y-3657055D02*
X3541491Y-3638008D01*
X3541491Y-3638008D02*
X3560539Y-3609436D01*
X3560539Y-3609436D02*
X3570063Y-3599912D01*
X3636729Y-3647531D02*
X3646253Y-3638008D01*
X3646253Y-3638008D02*
X3665301Y-3628484D01*
X3665301Y-3628484D02*
X3712920Y-3628484D01*
X3712920Y-3628484D02*
X3731968Y-3638008D01*
X3731968Y-3638008D02*
X3741491Y-3647531D01*
X3741491Y-3647531D02*
X3751015Y-3666579D01*
X3751015Y-3666579D02*
X3751015Y-3685627D01*
X3751015Y-3685627D02*
X3741491Y-3714198D01*
X3741491Y-3714198D02*
X3627206Y-3828484D01*
X3627206Y-3828484D02*
X3751015Y-3828484D01*
X3989110Y-3828484D02*
X3989110Y-3628484D01*
X4074825Y-3828484D02*
X4074825Y-3723722D01*
X4074825Y-3723722D02*
X4065301Y-3704674D01*
X4065301Y-3704674D02*
X4046253Y-3695150D01*
X4046253Y-3695150D02*
X4017682Y-3695150D01*
X4017682Y-3695150D02*
X3998634Y-3704674D01*
X3998634Y-3704674D02*
X3989110Y-3714198D01*
X4198634Y-3828484D02*
X4179587Y-3818960D01*
X4179587Y-3818960D02*
X4170063Y-3809436D01*
X4170063Y-3809436D02*
X4160539Y-3790388D01*
X4160539Y-3790388D02*
X4160539Y-3733246D01*
X4160539Y-3733246D02*
X4170063Y-3714198D01*
X4170063Y-3714198D02*
X4179587Y-3704674D01*
X4179587Y-3704674D02*
X4198634Y-3695150D01*
X4198634Y-3695150D02*
X4227206Y-3695150D01*
X4227206Y-3695150D02*
X4246253Y-3704674D01*
X4246253Y-3704674D02*
X4255777Y-3714198D01*
X4255777Y-3714198D02*
X4265301Y-3733246D01*
X4265301Y-3733246D02*
X4265301Y-3790388D01*
X4265301Y-3790388D02*
X4255777Y-3809436D01*
X4255777Y-3809436D02*
X4246253Y-3818960D01*
X4246253Y-3818960D02*
X4227206Y-3828484D01*
X4227206Y-3828484D02*
X4198634Y-3828484D01*
X4379587Y-3828484D02*
X4360539Y-3818960D01*
X4360539Y-3818960D02*
X4351015Y-3799912D01*
X4351015Y-3799912D02*
X4351015Y-3628484D01*
X4531968Y-3818960D02*
X4512920Y-3828484D01*
X4512920Y-3828484D02*
X4474825Y-3828484D01*
X4474825Y-3828484D02*
X4455777Y-3818960D01*
X4455777Y-3818960D02*
X4446253Y-3799912D01*
X4446253Y-3799912D02*
X4446253Y-3723722D01*
X4446253Y-3723722D02*
X4455777Y-3704674D01*
X4455777Y-3704674D02*
X4474825Y-3695150D01*
X4474825Y-3695150D02*
X4512920Y-3695150D01*
X4512920Y-3695150D02*
X4531968Y-3704674D01*
X4531968Y-3704674D02*
X4541492Y-3723722D01*
X4541492Y-3723722D02*
X4541492Y-3742769D01*
X4541492Y-3742769D02*
X4446253Y-3761817D01*
X4617682Y-3818960D02*
X4636730Y-3828484D01*
X4636730Y-3828484D02*
X4674825Y-3828484D01*
X4674825Y-3828484D02*
X4693873Y-3818960D01*
X4693873Y-3818960D02*
X4703396Y-3799912D01*
X4703396Y-3799912D02*
X4703396Y-3790388D01*
X4703396Y-3790388D02*
X4693873Y-3771341D01*
X4693873Y-3771341D02*
X4674825Y-3761817D01*
X4674825Y-3761817D02*
X4646253Y-3761817D01*
X4646253Y-3761817D02*
X4627206Y-3752293D01*
X4627206Y-3752293D02*
X4617682Y-3733246D01*
X4617682Y-3733246D02*
X4617682Y-3723722D01*
X4617682Y-3723722D02*
X4627206Y-3704674D01*
X4627206Y-3704674D02*
X4646253Y-3695150D01*
X4646253Y-3695150D02*
X4674825Y-3695150D01*
X4674825Y-3695150D02*
X4693873Y-3704674D01*
X4770063Y-3904674D02*
X4779587Y-3895150D01*
X4779587Y-3895150D02*
X4798634Y-3866579D01*
X4798634Y-3866579D02*
X4808158Y-3847531D01*
X4808158Y-3847531D02*
X4817682Y-3818960D01*
X4817682Y-3818960D02*
X4827206Y-3771341D01*
X4827206Y-3771341D02*
X4827206Y-3733246D01*
X4827206Y-3733246D02*
X4817682Y-3685627D01*
X4817682Y-3685627D02*
X4808158Y-3657055D01*
X4808158Y-3657055D02*
X4798634Y-3638008D01*
X4798634Y-3638008D02*
X4779587Y-3609436D01*
X4779587Y-3609436D02*
X4770063Y-3599912D01*
X5131968Y-3904674D02*
X5122444Y-3895150D01*
X5122444Y-3895150D02*
X5103396Y-3866579D01*
X5103396Y-3866579D02*
X5093873Y-3847531D01*
X5093873Y-3847531D02*
X5084349Y-3818960D01*
X5084349Y-3818960D02*
X5074825Y-3771341D01*
X5074825Y-3771341D02*
X5074825Y-3733246D01*
X5074825Y-3733246D02*
X5084349Y-3685627D01*
X5084349Y-3685627D02*
X5093873Y-3657055D01*
X5093873Y-3657055D02*
X5103396Y-3638008D01*
X5103396Y-3638008D02*
X5122444Y-3609436D01*
X5122444Y-3609436D02*
X5131968Y-3599912D01*
X5208158Y-3695150D02*
X5208158Y-3828484D01*
X5208158Y-3714198D02*
X5217682Y-3704674D01*
X5217682Y-3704674D02*
X5236730Y-3695150D01*
X5236730Y-3695150D02*
X5265301Y-3695150D01*
X5265301Y-3695150D02*
X5284349Y-3704674D01*
X5284349Y-3704674D02*
X5293873Y-3723722D01*
X5293873Y-3723722D02*
X5293873Y-3828484D01*
X5417682Y-3828484D02*
X5398634Y-3818960D01*
X5398634Y-3818960D02*
X5389111Y-3809436D01*
X5389111Y-3809436D02*
X5379587Y-3790388D01*
X5379587Y-3790388D02*
X5379587Y-3733246D01*
X5379587Y-3733246D02*
X5389111Y-3714198D01*
X5389111Y-3714198D02*
X5398634Y-3704674D01*
X5398634Y-3704674D02*
X5417682Y-3695150D01*
X5417682Y-3695150D02*
X5446254Y-3695150D01*
X5446254Y-3695150D02*
X5465301Y-3704674D01*
X5465301Y-3704674D02*
X5474825Y-3714198D01*
X5474825Y-3714198D02*
X5484349Y-3733246D01*
X5484349Y-3733246D02*
X5484349Y-3790388D01*
X5484349Y-3790388D02*
X5474825Y-3809436D01*
X5474825Y-3809436D02*
X5465301Y-3818960D01*
X5465301Y-3818960D02*
X5446254Y-3828484D01*
X5446254Y-3828484D02*
X5417682Y-3828484D01*
X5541492Y-3695150D02*
X5617682Y-3695150D01*
X5570063Y-3628484D02*
X5570063Y-3799912D01*
X5570063Y-3799912D02*
X5579587Y-3818960D01*
X5579587Y-3818960D02*
X5598634Y-3828484D01*
X5598634Y-3828484D02*
X5617682Y-3828484D01*
X5836730Y-3695150D02*
X5836730Y-3895150D01*
X5836730Y-3704674D02*
X5855777Y-3695150D01*
X5855777Y-3695150D02*
X5893873Y-3695150D01*
X5893873Y-3695150D02*
X5912920Y-3704674D01*
X5912920Y-3704674D02*
X5922444Y-3714198D01*
X5922444Y-3714198D02*
X5931968Y-3733246D01*
X5931968Y-3733246D02*
X5931968Y-3790388D01*
X5931968Y-3790388D02*
X5922444Y-3809436D01*
X5922444Y-3809436D02*
X5912920Y-3818960D01*
X5912920Y-3818960D02*
X5893873Y-3828484D01*
X5893873Y-3828484D02*
X5855777Y-3828484D01*
X5855777Y-3828484D02*
X5836730Y-3818960D01*
X6046253Y-3828484D02*
X6027206Y-3818960D01*
X6027206Y-3818960D02*
X6017682Y-3799912D01*
X6017682Y-3799912D02*
X6017682Y-3628484D01*
X6208158Y-3828484D02*
X6208158Y-3723722D01*
X6208158Y-3723722D02*
X6198634Y-3704674D01*
X6198634Y-3704674D02*
X6179587Y-3695150D01*
X6179587Y-3695150D02*
X6141492Y-3695150D01*
X6141492Y-3695150D02*
X6122444Y-3704674D01*
X6208158Y-3818960D02*
X6189111Y-3828484D01*
X6189111Y-3828484D02*
X6141492Y-3828484D01*
X6141492Y-3828484D02*
X6122444Y-3818960D01*
X6122444Y-3818960D02*
X6112920Y-3799912D01*
X6112920Y-3799912D02*
X6112920Y-3780865D01*
X6112920Y-3780865D02*
X6122444Y-3761817D01*
X6122444Y-3761817D02*
X6141492Y-3752293D01*
X6141492Y-3752293D02*
X6189111Y-3752293D01*
X6189111Y-3752293D02*
X6208158Y-3742769D01*
X6274825Y-3695150D02*
X6351015Y-3695150D01*
X6303396Y-3628484D02*
X6303396Y-3799912D01*
X6303396Y-3799912D02*
X6312920Y-3818960D01*
X6312920Y-3818960D02*
X6331968Y-3828484D01*
X6331968Y-3828484D02*
X6351015Y-3828484D01*
X6493873Y-3818960D02*
X6474825Y-3828484D01*
X6474825Y-3828484D02*
X6436730Y-3828484D01*
X6436730Y-3828484D02*
X6417682Y-3818960D01*
X6417682Y-3818960D02*
X6408158Y-3799912D01*
X6408158Y-3799912D02*
X6408158Y-3723722D01*
X6408158Y-3723722D02*
X6417682Y-3704674D01*
X6417682Y-3704674D02*
X6436730Y-3695150D01*
X6436730Y-3695150D02*
X6474825Y-3695150D01*
X6474825Y-3695150D02*
X6493873Y-3704674D01*
X6493873Y-3704674D02*
X6503396Y-3723722D01*
X6503396Y-3723722D02*
X6503396Y-3742769D01*
X6503396Y-3742769D02*
X6408158Y-3761817D01*
X6674825Y-3828484D02*
X6674825Y-3628484D01*
X6674825Y-3818960D02*
X6655777Y-3828484D01*
X6655777Y-3828484D02*
X6617682Y-3828484D01*
X6617682Y-3828484D02*
X6598634Y-3818960D01*
X6598634Y-3818960D02*
X6589111Y-3809436D01*
X6589111Y-3809436D02*
X6579587Y-3790388D01*
X6579587Y-3790388D02*
X6579587Y-3733246D01*
X6579587Y-3733246D02*
X6589111Y-3714198D01*
X6589111Y-3714198D02*
X6598634Y-3704674D01*
X6598634Y-3704674D02*
X6617682Y-3695150D01*
X6617682Y-3695150D02*
X6655777Y-3695150D01*
X6655777Y-3695150D02*
X6674825Y-3704674D01*
X6751015Y-3904674D02*
X6760539Y-3895150D01*
X6760539Y-3895150D02*
X6779587Y-3866579D01*
X6779587Y-3866579D02*
X6789111Y-3847531D01*
X6789111Y-3847531D02*
X6798634Y-3818960D01*
X6798634Y-3818960D02*
X6808158Y-3771341D01*
X6808158Y-3771341D02*
X6808158Y-3733246D01*
X6808158Y-3733246D02*
X6798634Y-3685627D01*
X6798634Y-3685627D02*
X6789111Y-3657055D01*
X6789111Y-3657055D02*
X6779587Y-3638008D01*
X6779587Y-3638008D02*
X6760539Y-3609436D01*
X6760539Y-3609436D02*
X6751015Y-3599912D01*
D12*
X-70000Y-4066000D02*
X-5000Y-4001000D01*
X-70000Y-3936000D01*
X-135000Y-4001000D01*
X-70000Y-4066000D01*
D11*
X360539Y-4092484D02*
X246253Y-4092484D01*
X303396Y-4092484D02*
X303396Y-3892484D01*
X303396Y-3892484D02*
X284348Y-3921055D01*
X284348Y-3921055D02*
X265301Y-3940103D01*
X265301Y-3940103D02*
X246253Y-3949627D01*
X446253Y-4073436D02*
X455777Y-4082960D01*
X455777Y-4082960D02*
X446253Y-4092484D01*
X446253Y-4092484D02*
X436729Y-4082960D01*
X436729Y-4082960D02*
X446253Y-4073436D01*
X446253Y-4073436D02*
X446253Y-4092484D01*
X522443Y-3892484D02*
X646253Y-3892484D01*
X646253Y-3892484D02*
X579586Y-3968674D01*
X579586Y-3968674D02*
X608158Y-3968674D01*
X608158Y-3968674D02*
X627205Y-3978198D01*
X627205Y-3978198D02*
X636729Y-3987722D01*
X636729Y-3987722D02*
X646253Y-4006769D01*
X646253Y-4006769D02*
X646253Y-4054388D01*
X646253Y-4054388D02*
X636729Y-4073436D01*
X636729Y-4073436D02*
X627205Y-4082960D01*
X627205Y-4082960D02*
X608158Y-4092484D01*
X608158Y-4092484D02*
X551015Y-4092484D01*
X551015Y-4092484D02*
X531967Y-4082960D01*
X531967Y-4082960D02*
X522443Y-4073436D01*
X770062Y-3892484D02*
X789110Y-3892484D01*
X789110Y-3892484D02*
X808158Y-3902008D01*
X808158Y-3902008D02*
X817682Y-3911531D01*
X817682Y-3911531D02*
X827205Y-3930579D01*
X827205Y-3930579D02*
X836729Y-3968674D01*
X836729Y-3968674D02*
X836729Y-4016293D01*
X836729Y-4016293D02*
X827205Y-4054388D01*
X827205Y-4054388D02*
X817682Y-4073436D01*
X817682Y-4073436D02*
X808158Y-4082960D01*
X808158Y-4082960D02*
X789110Y-4092484D01*
X789110Y-4092484D02*
X770062Y-4092484D01*
X770062Y-4092484D02*
X751015Y-4082960D01*
X751015Y-4082960D02*
X741491Y-4073436D01*
X741491Y-4073436D02*
X731967Y-4054388D01*
X731967Y-4054388D02*
X722443Y-4016293D01*
X722443Y-4016293D02*
X722443Y-3968674D01*
X722443Y-3968674D02*
X731967Y-3930579D01*
X731967Y-3930579D02*
X741491Y-3911531D01*
X741491Y-3911531D02*
X751015Y-3902008D01*
X751015Y-3902008D02*
X770062Y-3892484D01*
X960539Y-3892484D02*
X979586Y-3892484D01*
X979586Y-3892484D02*
X998634Y-3902008D01*
X998634Y-3902008D02*
X1008158Y-3911531D01*
X1008158Y-3911531D02*
X1017682Y-3930579D01*
X1017682Y-3930579D02*
X1027205Y-3968674D01*
X1027205Y-3968674D02*
X1027205Y-4016293D01*
X1027205Y-4016293D02*
X1017682Y-4054388D01*
X1017682Y-4054388D02*
X1008158Y-4073436D01*
X1008158Y-4073436D02*
X998634Y-4082960D01*
X998634Y-4082960D02*
X979586Y-4092484D01*
X979586Y-4092484D02*
X960539Y-4092484D01*
X960539Y-4092484D02*
X941491Y-4082960D01*
X941491Y-4082960D02*
X931967Y-4073436D01*
X931967Y-4073436D02*
X922443Y-4054388D01*
X922443Y-4054388D02*
X912920Y-4016293D01*
X912920Y-4016293D02*
X912920Y-3968674D01*
X912920Y-3968674D02*
X922443Y-3930579D01*
X922443Y-3930579D02*
X931967Y-3911531D01*
X931967Y-3911531D02*
X941491Y-3902008D01*
X941491Y-3902008D02*
X960539Y-3892484D01*
X1112920Y-4092484D02*
X1112920Y-3959150D01*
X1112920Y-3978198D02*
X1122444Y-3968674D01*
X1122444Y-3968674D02*
X1141491Y-3959150D01*
X1141491Y-3959150D02*
X1170063Y-3959150D01*
X1170063Y-3959150D02*
X1189110Y-3968674D01*
X1189110Y-3968674D02*
X1198634Y-3987722D01*
X1198634Y-3987722D02*
X1198634Y-4092484D01*
X1198634Y-3987722D02*
X1208158Y-3968674D01*
X1208158Y-3968674D02*
X1227205Y-3959150D01*
X1227205Y-3959150D02*
X1255777Y-3959150D01*
X1255777Y-3959150D02*
X1274825Y-3968674D01*
X1274825Y-3968674D02*
X1284348Y-3987722D01*
X1284348Y-3987722D02*
X1284348Y-4092484D01*
X1379586Y-4092484D02*
X1379586Y-3959150D01*
X1379586Y-3978198D02*
X1389110Y-3968674D01*
X1389110Y-3968674D02*
X1408158Y-3959150D01*
X1408158Y-3959150D02*
X1436729Y-3959150D01*
X1436729Y-3959150D02*
X1455777Y-3968674D01*
X1455777Y-3968674D02*
X1465301Y-3987722D01*
X1465301Y-3987722D02*
X1465301Y-4092484D01*
X1465301Y-3987722D02*
X1474824Y-3968674D01*
X1474824Y-3968674D02*
X1493872Y-3959150D01*
X1493872Y-3959150D02*
X1522443Y-3959150D01*
X1522443Y-3959150D02*
X1541491Y-3968674D01*
X1541491Y-3968674D02*
X1551015Y-3987722D01*
X1551015Y-3987722D02*
X1551015Y-4092484D01*
X1941491Y-3882960D02*
X1770063Y-4140103D01*
X2198634Y-3892484D02*
X2217682Y-3892484D01*
X2217682Y-3892484D02*
X2236729Y-3902008D01*
X2236729Y-3902008D02*
X2246253Y-3911531D01*
X2246253Y-3911531D02*
X2255777Y-3930579D01*
X2255777Y-3930579D02*
X2265301Y-3968674D01*
X2265301Y-3968674D02*
X2265301Y-4016293D01*
X2265301Y-4016293D02*
X2255777Y-4054388D01*
X2255777Y-4054388D02*
X2246253Y-4073436D01*
X2246253Y-4073436D02*
X2236729Y-4082960D01*
X2236729Y-4082960D02*
X2217682Y-4092484D01*
X2217682Y-4092484D02*
X2198634Y-4092484D01*
X2198634Y-4092484D02*
X2179587Y-4082960D01*
X2179587Y-4082960D02*
X2170063Y-4073436D01*
X2170063Y-4073436D02*
X2160539Y-4054388D01*
X2160539Y-4054388D02*
X2151015Y-4016293D01*
X2151015Y-4016293D02*
X2151015Y-3968674D01*
X2151015Y-3968674D02*
X2160539Y-3930579D01*
X2160539Y-3930579D02*
X2170063Y-3911531D01*
X2170063Y-3911531D02*
X2179587Y-3902008D01*
X2179587Y-3902008D02*
X2198634Y-3892484D01*
X2351015Y-4073436D02*
X2360539Y-4082960D01*
X2360539Y-4082960D02*
X2351015Y-4092484D01*
X2351015Y-4092484D02*
X2341491Y-4082960D01*
X2341491Y-4082960D02*
X2351015Y-4073436D01*
X2351015Y-4073436D02*
X2351015Y-4092484D01*
X2484348Y-3892484D02*
X2503396Y-3892484D01*
X2503396Y-3892484D02*
X2522444Y-3902008D01*
X2522444Y-3902008D02*
X2531968Y-3911531D01*
X2531968Y-3911531D02*
X2541491Y-3930579D01*
X2541491Y-3930579D02*
X2551015Y-3968674D01*
X2551015Y-3968674D02*
X2551015Y-4016293D01*
X2551015Y-4016293D02*
X2541491Y-4054388D01*
X2541491Y-4054388D02*
X2531968Y-4073436D01*
X2531968Y-4073436D02*
X2522444Y-4082960D01*
X2522444Y-4082960D02*
X2503396Y-4092484D01*
X2503396Y-4092484D02*
X2484348Y-4092484D01*
X2484348Y-4092484D02*
X2465301Y-4082960D01*
X2465301Y-4082960D02*
X2455777Y-4073436D01*
X2455777Y-4073436D02*
X2446253Y-4054388D01*
X2446253Y-4054388D02*
X2436729Y-4016293D01*
X2436729Y-4016293D02*
X2436729Y-3968674D01*
X2436729Y-3968674D02*
X2446253Y-3930579D01*
X2446253Y-3930579D02*
X2455777Y-3911531D01*
X2455777Y-3911531D02*
X2465301Y-3902008D01*
X2465301Y-3902008D02*
X2484348Y-3892484D01*
X2731968Y-3892484D02*
X2636729Y-3892484D01*
X2636729Y-3892484D02*
X2627206Y-3987722D01*
X2627206Y-3987722D02*
X2636729Y-3978198D01*
X2636729Y-3978198D02*
X2655777Y-3968674D01*
X2655777Y-3968674D02*
X2703396Y-3968674D01*
X2703396Y-3968674D02*
X2722444Y-3978198D01*
X2722444Y-3978198D02*
X2731968Y-3987722D01*
X2731968Y-3987722D02*
X2741491Y-4006769D01*
X2741491Y-4006769D02*
X2741491Y-4054388D01*
X2741491Y-4054388D02*
X2731968Y-4073436D01*
X2731968Y-4073436D02*
X2722444Y-4082960D01*
X2722444Y-4082960D02*
X2703396Y-4092484D01*
X2703396Y-4092484D02*
X2655777Y-4092484D01*
X2655777Y-4092484D02*
X2636729Y-4082960D01*
X2636729Y-4082960D02*
X2627206Y-4073436D01*
X2931967Y-4092484D02*
X2817682Y-4092484D01*
X2874825Y-4092484D02*
X2874825Y-3892484D01*
X2874825Y-3892484D02*
X2855777Y-3921055D01*
X2855777Y-3921055D02*
X2836729Y-3940103D01*
X2836729Y-3940103D02*
X2817682Y-3949627D01*
X3008158Y-3911531D02*
X3017682Y-3902008D01*
X3017682Y-3902008D02*
X3036729Y-3892484D01*
X3036729Y-3892484D02*
X3084348Y-3892484D01*
X3084348Y-3892484D02*
X3103396Y-3902008D01*
X3103396Y-3902008D02*
X3112920Y-3911531D01*
X3112920Y-3911531D02*
X3122444Y-3930579D01*
X3122444Y-3930579D02*
X3122444Y-3949627D01*
X3122444Y-3949627D02*
X3112920Y-3978198D01*
X3112920Y-3978198D02*
X2998634Y-4092484D01*
X2998634Y-4092484D02*
X3122444Y-4092484D01*
X3198634Y-3892484D02*
X3198634Y-3930579D01*
X3274825Y-3892484D02*
X3274825Y-3930579D01*
X3570063Y-4168674D02*
X3560539Y-4159150D01*
X3560539Y-4159150D02*
X3541491Y-4130579D01*
X3541491Y-4130579D02*
X3531968Y-4111531D01*
X3531968Y-4111531D02*
X3522444Y-4082960D01*
X3522444Y-4082960D02*
X3512920Y-4035341D01*
X3512920Y-4035341D02*
X3512920Y-3997246D01*
X3512920Y-3997246D02*
X3522444Y-3949627D01*
X3522444Y-3949627D02*
X3531968Y-3921055D01*
X3531968Y-3921055D02*
X3541491Y-3902008D01*
X3541491Y-3902008D02*
X3560539Y-3873436D01*
X3560539Y-3873436D02*
X3570063Y-3863912D01*
X3751015Y-4092484D02*
X3636729Y-4092484D01*
X3693872Y-4092484D02*
X3693872Y-3892484D01*
X3693872Y-3892484D02*
X3674825Y-3921055D01*
X3674825Y-3921055D02*
X3655777Y-3940103D01*
X3655777Y-3940103D02*
X3636729Y-3949627D01*
X3989110Y-4092484D02*
X3989110Y-3892484D01*
X4074825Y-4092484D02*
X4074825Y-3987722D01*
X4074825Y-3987722D02*
X4065301Y-3968674D01*
X4065301Y-3968674D02*
X4046253Y-3959150D01*
X4046253Y-3959150D02*
X4017682Y-3959150D01*
X4017682Y-3959150D02*
X3998634Y-3968674D01*
X3998634Y-3968674D02*
X3989110Y-3978198D01*
X4198634Y-4092484D02*
X4179587Y-4082960D01*
X4179587Y-4082960D02*
X4170063Y-4073436D01*
X4170063Y-4073436D02*
X4160539Y-4054388D01*
X4160539Y-4054388D02*
X4160539Y-3997246D01*
X4160539Y-3997246D02*
X4170063Y-3978198D01*
X4170063Y-3978198D02*
X4179587Y-3968674D01*
X4179587Y-3968674D02*
X4198634Y-3959150D01*
X4198634Y-3959150D02*
X4227206Y-3959150D01*
X4227206Y-3959150D02*
X4246253Y-3968674D01*
X4246253Y-3968674D02*
X4255777Y-3978198D01*
X4255777Y-3978198D02*
X4265301Y-3997246D01*
X4265301Y-3997246D02*
X4265301Y-4054388D01*
X4265301Y-4054388D02*
X4255777Y-4073436D01*
X4255777Y-4073436D02*
X4246253Y-4082960D01*
X4246253Y-4082960D02*
X4227206Y-4092484D01*
X4227206Y-4092484D02*
X4198634Y-4092484D01*
X4379587Y-4092484D02*
X4360539Y-4082960D01*
X4360539Y-4082960D02*
X4351015Y-4063912D01*
X4351015Y-4063912D02*
X4351015Y-3892484D01*
X4531968Y-4082960D02*
X4512920Y-4092484D01*
X4512920Y-4092484D02*
X4474825Y-4092484D01*
X4474825Y-4092484D02*
X4455777Y-4082960D01*
X4455777Y-4082960D02*
X4446253Y-4063912D01*
X4446253Y-4063912D02*
X4446253Y-3987722D01*
X4446253Y-3987722D02*
X4455777Y-3968674D01*
X4455777Y-3968674D02*
X4474825Y-3959150D01*
X4474825Y-3959150D02*
X4512920Y-3959150D01*
X4512920Y-3959150D02*
X4531968Y-3968674D01*
X4531968Y-3968674D02*
X4541492Y-3987722D01*
X4541492Y-3987722D02*
X4541492Y-4006769D01*
X4541492Y-4006769D02*
X4446253Y-4025817D01*
X4608158Y-4168674D02*
X4617682Y-4159150D01*
X4617682Y-4159150D02*
X4636730Y-4130579D01*
X4636730Y-4130579D02*
X4646253Y-4111531D01*
X4646253Y-4111531D02*
X4655777Y-4082960D01*
X4655777Y-4082960D02*
X4665301Y-4035341D01*
X4665301Y-4035341D02*
X4665301Y-3997246D01*
X4665301Y-3997246D02*
X4655777Y-3949627D01*
X4655777Y-3949627D02*
X4646253Y-3921055D01*
X4646253Y-3921055D02*
X4636730Y-3902008D01*
X4636730Y-3902008D02*
X4617682Y-3873436D01*
X4617682Y-3873436D02*
X4608158Y-3863912D01*
X4970063Y-4168674D02*
X4960539Y-4159150D01*
X4960539Y-4159150D02*
X4941492Y-4130579D01*
X4941492Y-4130579D02*
X4931968Y-4111531D01*
X4931968Y-4111531D02*
X4922444Y-4082960D01*
X4922444Y-4082960D02*
X4912920Y-4035341D01*
X4912920Y-4035341D02*
X4912920Y-3997246D01*
X4912920Y-3997246D02*
X4922444Y-3949627D01*
X4922444Y-3949627D02*
X4931968Y-3921055D01*
X4931968Y-3921055D02*
X4941492Y-3902008D01*
X4941492Y-3902008D02*
X4960539Y-3873436D01*
X4960539Y-3873436D02*
X4970063Y-3863912D01*
X5046253Y-3959150D02*
X5046253Y-4092484D01*
X5046253Y-3978198D02*
X5055777Y-3968674D01*
X5055777Y-3968674D02*
X5074825Y-3959150D01*
X5074825Y-3959150D02*
X5103396Y-3959150D01*
X5103396Y-3959150D02*
X5122444Y-3968674D01*
X5122444Y-3968674D02*
X5131968Y-3987722D01*
X5131968Y-3987722D02*
X5131968Y-4092484D01*
X5255777Y-4092484D02*
X5236730Y-4082960D01*
X5236730Y-4082960D02*
X5227206Y-4073436D01*
X5227206Y-4073436D02*
X5217682Y-4054388D01*
X5217682Y-4054388D02*
X5217682Y-3997246D01*
X5217682Y-3997246D02*
X5227206Y-3978198D01*
X5227206Y-3978198D02*
X5236730Y-3968674D01*
X5236730Y-3968674D02*
X5255777Y-3959150D01*
X5255777Y-3959150D02*
X5284349Y-3959150D01*
X5284349Y-3959150D02*
X5303396Y-3968674D01*
X5303396Y-3968674D02*
X5312920Y-3978198D01*
X5312920Y-3978198D02*
X5322444Y-3997246D01*
X5322444Y-3997246D02*
X5322444Y-4054388D01*
X5322444Y-4054388D02*
X5312920Y-4073436D01*
X5312920Y-4073436D02*
X5303396Y-4082960D01*
X5303396Y-4082960D02*
X5284349Y-4092484D01*
X5284349Y-4092484D02*
X5255777Y-4092484D01*
X5379587Y-3959150D02*
X5455777Y-3959150D01*
X5408158Y-3892484D02*
X5408158Y-4063912D01*
X5408158Y-4063912D02*
X5417682Y-4082960D01*
X5417682Y-4082960D02*
X5436730Y-4092484D01*
X5436730Y-4092484D02*
X5455777Y-4092484D01*
X5674825Y-3959150D02*
X5674825Y-4159150D01*
X5674825Y-3968674D02*
X5693872Y-3959150D01*
X5693872Y-3959150D02*
X5731968Y-3959150D01*
X5731968Y-3959150D02*
X5751015Y-3968674D01*
X5751015Y-3968674D02*
X5760539Y-3978198D01*
X5760539Y-3978198D02*
X5770063Y-3997246D01*
X5770063Y-3997246D02*
X5770063Y-4054388D01*
X5770063Y-4054388D02*
X5760539Y-4073436D01*
X5760539Y-4073436D02*
X5751015Y-4082960D01*
X5751015Y-4082960D02*
X5731968Y-4092484D01*
X5731968Y-4092484D02*
X5693872Y-4092484D01*
X5693872Y-4092484D02*
X5674825Y-4082960D01*
X5884349Y-4092484D02*
X5865301Y-4082960D01*
X5865301Y-4082960D02*
X5855777Y-4063912D01*
X5855777Y-4063912D02*
X5855777Y-3892484D01*
X6046253Y-4092484D02*
X6046253Y-3987722D01*
X6046253Y-3987722D02*
X6036730Y-3968674D01*
X6036730Y-3968674D02*
X6017682Y-3959150D01*
X6017682Y-3959150D02*
X5979587Y-3959150D01*
X5979587Y-3959150D02*
X5960539Y-3968674D01*
X6046253Y-4082960D02*
X6027206Y-4092484D01*
X6027206Y-4092484D02*
X5979587Y-4092484D01*
X5979587Y-4092484D02*
X5960539Y-4082960D01*
X5960539Y-4082960D02*
X5951015Y-4063912D01*
X5951015Y-4063912D02*
X5951015Y-4044865D01*
X5951015Y-4044865D02*
X5960539Y-4025817D01*
X5960539Y-4025817D02*
X5979587Y-4016293D01*
X5979587Y-4016293D02*
X6027206Y-4016293D01*
X6027206Y-4016293D02*
X6046253Y-4006769D01*
X6112920Y-3959150D02*
X6189111Y-3959150D01*
X6141492Y-3892484D02*
X6141492Y-4063912D01*
X6141492Y-4063912D02*
X6151015Y-4082960D01*
X6151015Y-4082960D02*
X6170063Y-4092484D01*
X6170063Y-4092484D02*
X6189111Y-4092484D01*
X6331968Y-4082960D02*
X6312920Y-4092484D01*
X6312920Y-4092484D02*
X6274825Y-4092484D01*
X6274825Y-4092484D02*
X6255777Y-4082960D01*
X6255777Y-4082960D02*
X6246253Y-4063912D01*
X6246253Y-4063912D02*
X6246253Y-3987722D01*
X6246253Y-3987722D02*
X6255777Y-3968674D01*
X6255777Y-3968674D02*
X6274825Y-3959150D01*
X6274825Y-3959150D02*
X6312920Y-3959150D01*
X6312920Y-3959150D02*
X6331968Y-3968674D01*
X6331968Y-3968674D02*
X6341492Y-3987722D01*
X6341492Y-3987722D02*
X6341492Y-4006769D01*
X6341492Y-4006769D02*
X6246253Y-4025817D01*
X6512920Y-4092484D02*
X6512920Y-3892484D01*
X6512920Y-4082960D02*
X6493873Y-4092484D01*
X6493873Y-4092484D02*
X6455777Y-4092484D01*
X6455777Y-4092484D02*
X6436730Y-4082960D01*
X6436730Y-4082960D02*
X6427206Y-4073436D01*
X6427206Y-4073436D02*
X6417682Y-4054388D01*
X6417682Y-4054388D02*
X6417682Y-3997246D01*
X6417682Y-3997246D02*
X6427206Y-3978198D01*
X6427206Y-3978198D02*
X6436730Y-3968674D01*
X6436730Y-3968674D02*
X6455777Y-3959150D01*
X6455777Y-3959150D02*
X6493873Y-3959150D01*
X6493873Y-3959150D02*
X6512920Y-3968674D01*
X6589111Y-4168674D02*
X6598634Y-4159150D01*
X6598634Y-4159150D02*
X6617682Y-4130579D01*
X6617682Y-4130579D02*
X6627206Y-4111531D01*
X6627206Y-4111531D02*
X6636730Y-4082960D01*
X6636730Y-4082960D02*
X6646253Y-4035341D01*
X6646253Y-4035341D02*
X6646253Y-3997246D01*
X6646253Y-3997246D02*
X6636730Y-3949627D01*
X6636730Y-3949627D02*
X6627206Y-3921055D01*
X6627206Y-3921055D02*
X6617682Y-3902008D01*
X6617682Y-3902008D02*
X6598634Y-3873436D01*
X6598634Y-3873436D02*
X6589111Y-3863912D01*
D13*
X-145000Y-4195000D02*
X-5000Y-4335000D01*
X-5000Y-4195000D02*
X-145000Y-4335000D01*
X-5000Y-4265000D02*
G75*
G02*
X-145000Y-4265000I-70000J0D01*
G01*
X-145000Y-4265000D02*
G75*
G02*
X-5000Y-4265000I70000J0D01*
G01*
D11*
X360539Y-4356484D02*
X246253Y-4356484D01*
X303396Y-4356484D02*
X303396Y-4156484D01*
X303396Y-4156484D02*
X284348Y-4185055D01*
X284348Y-4185055D02*
X265301Y-4204103D01*
X265301Y-4204103D02*
X246253Y-4213627D01*
X446253Y-4337436D02*
X455777Y-4346960D01*
X455777Y-4346960D02*
X446253Y-4356484D01*
X446253Y-4356484D02*
X436729Y-4346960D01*
X436729Y-4346960D02*
X446253Y-4337436D01*
X446253Y-4337436D02*
X446253Y-4356484D01*
X627205Y-4223150D02*
X627205Y-4356484D01*
X579586Y-4146960D02*
X531967Y-4289817D01*
X531967Y-4289817D02*
X655777Y-4289817D01*
X770062Y-4156484D02*
X789110Y-4156484D01*
X789110Y-4156484D02*
X808158Y-4166008D01*
X808158Y-4166008D02*
X817682Y-4175531D01*
X817682Y-4175531D02*
X827205Y-4194579D01*
X827205Y-4194579D02*
X836729Y-4232674D01*
X836729Y-4232674D02*
X836729Y-4280293D01*
X836729Y-4280293D02*
X827205Y-4318389D01*
X827205Y-4318389D02*
X817682Y-4337436D01*
X817682Y-4337436D02*
X808158Y-4346960D01*
X808158Y-4346960D02*
X789110Y-4356484D01*
X789110Y-4356484D02*
X770062Y-4356484D01*
X770062Y-4356484D02*
X751015Y-4346960D01*
X751015Y-4346960D02*
X741491Y-4337436D01*
X741491Y-4337436D02*
X731967Y-4318389D01*
X731967Y-4318389D02*
X722443Y-4280293D01*
X722443Y-4280293D02*
X722443Y-4232674D01*
X722443Y-4232674D02*
X731967Y-4194579D01*
X731967Y-4194579D02*
X741491Y-4175531D01*
X741491Y-4175531D02*
X751015Y-4166008D01*
X751015Y-4166008D02*
X770062Y-4156484D01*
X960539Y-4156484D02*
X979586Y-4156484D01*
X979586Y-4156484D02*
X998634Y-4166008D01*
X998634Y-4166008D02*
X1008158Y-4175531D01*
X1008158Y-4175531D02*
X1017682Y-4194579D01*
X1017682Y-4194579D02*
X1027205Y-4232674D01*
X1027205Y-4232674D02*
X1027205Y-4280293D01*
X1027205Y-4280293D02*
X1017682Y-4318389D01*
X1017682Y-4318389D02*
X1008158Y-4337436D01*
X1008158Y-4337436D02*
X998634Y-4346960D01*
X998634Y-4346960D02*
X979586Y-4356484D01*
X979586Y-4356484D02*
X960539Y-4356484D01*
X960539Y-4356484D02*
X941491Y-4346960D01*
X941491Y-4346960D02*
X931967Y-4337436D01*
X931967Y-4337436D02*
X922443Y-4318389D01*
X922443Y-4318389D02*
X912920Y-4280293D01*
X912920Y-4280293D02*
X912920Y-4232674D01*
X912920Y-4232674D02*
X922443Y-4194579D01*
X922443Y-4194579D02*
X931967Y-4175531D01*
X931967Y-4175531D02*
X941491Y-4166008D01*
X941491Y-4166008D02*
X960539Y-4156484D01*
X1112920Y-4356484D02*
X1112920Y-4223150D01*
X1112920Y-4242198D02*
X1122444Y-4232674D01*
X1122444Y-4232674D02*
X1141491Y-4223150D01*
X1141491Y-4223150D02*
X1170063Y-4223150D01*
X1170063Y-4223150D02*
X1189110Y-4232674D01*
X1189110Y-4232674D02*
X1198634Y-4251722D01*
X1198634Y-4251722D02*
X1198634Y-4356484D01*
X1198634Y-4251722D02*
X1208158Y-4232674D01*
X1208158Y-4232674D02*
X1227205Y-4223150D01*
X1227205Y-4223150D02*
X1255777Y-4223150D01*
X1255777Y-4223150D02*
X1274825Y-4232674D01*
X1274825Y-4232674D02*
X1284348Y-4251722D01*
X1284348Y-4251722D02*
X1284348Y-4356484D01*
X1379586Y-4356484D02*
X1379586Y-4223150D01*
X1379586Y-4242198D02*
X1389110Y-4232674D01*
X1389110Y-4232674D02*
X1408158Y-4223150D01*
X1408158Y-4223150D02*
X1436729Y-4223150D01*
X1436729Y-4223150D02*
X1455777Y-4232674D01*
X1455777Y-4232674D02*
X1465301Y-4251722D01*
X1465301Y-4251722D02*
X1465301Y-4356484D01*
X1465301Y-4251722D02*
X1474824Y-4232674D01*
X1474824Y-4232674D02*
X1493872Y-4223150D01*
X1493872Y-4223150D02*
X1522443Y-4223150D01*
X1522443Y-4223150D02*
X1541491Y-4232674D01*
X1541491Y-4232674D02*
X1551015Y-4251722D01*
X1551015Y-4251722D02*
X1551015Y-4356484D01*
X1941491Y-4146960D02*
X1770063Y-4404103D01*
X2198634Y-4156484D02*
X2217682Y-4156484D01*
X2217682Y-4156484D02*
X2236729Y-4166008D01*
X2236729Y-4166008D02*
X2246253Y-4175531D01*
X2246253Y-4175531D02*
X2255777Y-4194579D01*
X2255777Y-4194579D02*
X2265301Y-4232674D01*
X2265301Y-4232674D02*
X2265301Y-4280293D01*
X2265301Y-4280293D02*
X2255777Y-4318389D01*
X2255777Y-4318389D02*
X2246253Y-4337436D01*
X2246253Y-4337436D02*
X2236729Y-4346960D01*
X2236729Y-4346960D02*
X2217682Y-4356484D01*
X2217682Y-4356484D02*
X2198634Y-4356484D01*
X2198634Y-4356484D02*
X2179587Y-4346960D01*
X2179587Y-4346960D02*
X2170063Y-4337436D01*
X2170063Y-4337436D02*
X2160539Y-4318389D01*
X2160539Y-4318389D02*
X2151015Y-4280293D01*
X2151015Y-4280293D02*
X2151015Y-4232674D01*
X2151015Y-4232674D02*
X2160539Y-4194579D01*
X2160539Y-4194579D02*
X2170063Y-4175531D01*
X2170063Y-4175531D02*
X2179587Y-4166008D01*
X2179587Y-4166008D02*
X2198634Y-4156484D01*
X2351015Y-4337436D02*
X2360539Y-4346960D01*
X2360539Y-4346960D02*
X2351015Y-4356484D01*
X2351015Y-4356484D02*
X2341491Y-4346960D01*
X2341491Y-4346960D02*
X2351015Y-4337436D01*
X2351015Y-4337436D02*
X2351015Y-4356484D01*
X2484348Y-4156484D02*
X2503396Y-4156484D01*
X2503396Y-4156484D02*
X2522444Y-4166008D01*
X2522444Y-4166008D02*
X2531968Y-4175531D01*
X2531968Y-4175531D02*
X2541491Y-4194579D01*
X2541491Y-4194579D02*
X2551015Y-4232674D01*
X2551015Y-4232674D02*
X2551015Y-4280293D01*
X2551015Y-4280293D02*
X2541491Y-4318389D01*
X2541491Y-4318389D02*
X2531968Y-4337436D01*
X2531968Y-4337436D02*
X2522444Y-4346960D01*
X2522444Y-4346960D02*
X2503396Y-4356484D01*
X2503396Y-4356484D02*
X2484348Y-4356484D01*
X2484348Y-4356484D02*
X2465301Y-4346960D01*
X2465301Y-4346960D02*
X2455777Y-4337436D01*
X2455777Y-4337436D02*
X2446253Y-4318389D01*
X2446253Y-4318389D02*
X2436729Y-4280293D01*
X2436729Y-4280293D02*
X2436729Y-4232674D01*
X2436729Y-4232674D02*
X2446253Y-4194579D01*
X2446253Y-4194579D02*
X2455777Y-4175531D01*
X2455777Y-4175531D02*
X2465301Y-4166008D01*
X2465301Y-4166008D02*
X2484348Y-4156484D01*
X2731968Y-4156484D02*
X2636729Y-4156484D01*
X2636729Y-4156484D02*
X2627206Y-4251722D01*
X2627206Y-4251722D02*
X2636729Y-4242198D01*
X2636729Y-4242198D02*
X2655777Y-4232674D01*
X2655777Y-4232674D02*
X2703396Y-4232674D01*
X2703396Y-4232674D02*
X2722444Y-4242198D01*
X2722444Y-4242198D02*
X2731968Y-4251722D01*
X2731968Y-4251722D02*
X2741491Y-4270770D01*
X2741491Y-4270770D02*
X2741491Y-4318389D01*
X2741491Y-4318389D02*
X2731968Y-4337436D01*
X2731968Y-4337436D02*
X2722444Y-4346960D01*
X2722444Y-4346960D02*
X2703396Y-4356484D01*
X2703396Y-4356484D02*
X2655777Y-4356484D01*
X2655777Y-4356484D02*
X2636729Y-4346960D01*
X2636729Y-4346960D02*
X2627206Y-4337436D01*
X2922444Y-4156484D02*
X2827206Y-4156484D01*
X2827206Y-4156484D02*
X2817682Y-4251722D01*
X2817682Y-4251722D02*
X2827206Y-4242198D01*
X2827206Y-4242198D02*
X2846253Y-4232674D01*
X2846253Y-4232674D02*
X2893872Y-4232674D01*
X2893872Y-4232674D02*
X2912920Y-4242198D01*
X2912920Y-4242198D02*
X2922444Y-4251722D01*
X2922444Y-4251722D02*
X2931967Y-4270770D01*
X2931967Y-4270770D02*
X2931967Y-4318389D01*
X2931967Y-4318389D02*
X2922444Y-4337436D01*
X2922444Y-4337436D02*
X2912920Y-4346960D01*
X2912920Y-4346960D02*
X2893872Y-4356484D01*
X2893872Y-4356484D02*
X2846253Y-4356484D01*
X2846253Y-4356484D02*
X2827206Y-4346960D01*
X2827206Y-4346960D02*
X2817682Y-4337436D01*
X3122444Y-4356484D02*
X3008158Y-4356484D01*
X3065301Y-4356484D02*
X3065301Y-4156484D01*
X3065301Y-4156484D02*
X3046253Y-4185055D01*
X3046253Y-4185055D02*
X3027206Y-4204103D01*
X3027206Y-4204103D02*
X3008158Y-4213627D01*
X3198634Y-4156484D02*
X3198634Y-4194579D01*
X3274825Y-4156484D02*
X3274825Y-4194579D01*
X3570063Y-4432674D02*
X3560539Y-4423150D01*
X3560539Y-4423150D02*
X3541491Y-4394579D01*
X3541491Y-4394579D02*
X3531968Y-4375531D01*
X3531968Y-4375531D02*
X3522444Y-4346960D01*
X3522444Y-4346960D02*
X3512920Y-4299341D01*
X3512920Y-4299341D02*
X3512920Y-4261246D01*
X3512920Y-4261246D02*
X3522444Y-4213627D01*
X3522444Y-4213627D02*
X3531968Y-4185055D01*
X3531968Y-4185055D02*
X3541491Y-4166008D01*
X3541491Y-4166008D02*
X3560539Y-4137436D01*
X3560539Y-4137436D02*
X3570063Y-4127912D01*
X3751015Y-4356484D02*
X3636729Y-4356484D01*
X3693872Y-4356484D02*
X3693872Y-4156484D01*
X3693872Y-4156484D02*
X3674825Y-4185055D01*
X3674825Y-4185055D02*
X3655777Y-4204103D01*
X3655777Y-4204103D02*
X3636729Y-4213627D01*
X3989110Y-4356484D02*
X3989110Y-4156484D01*
X4074825Y-4356484D02*
X4074825Y-4251722D01*
X4074825Y-4251722D02*
X4065301Y-4232674D01*
X4065301Y-4232674D02*
X4046253Y-4223150D01*
X4046253Y-4223150D02*
X4017682Y-4223150D01*
X4017682Y-4223150D02*
X3998634Y-4232674D01*
X3998634Y-4232674D02*
X3989110Y-4242198D01*
X4198634Y-4356484D02*
X4179587Y-4346960D01*
X4179587Y-4346960D02*
X4170063Y-4337436D01*
X4170063Y-4337436D02*
X4160539Y-4318389D01*
X4160539Y-4318389D02*
X4160539Y-4261246D01*
X4160539Y-4261246D02*
X4170063Y-4242198D01*
X4170063Y-4242198D02*
X4179587Y-4232674D01*
X4179587Y-4232674D02*
X4198634Y-4223150D01*
X4198634Y-4223150D02*
X4227206Y-4223150D01*
X4227206Y-4223150D02*
X4246253Y-4232674D01*
X4246253Y-4232674D02*
X4255777Y-4242198D01*
X4255777Y-4242198D02*
X4265301Y-4261246D01*
X4265301Y-4261246D02*
X4265301Y-4318389D01*
X4265301Y-4318389D02*
X4255777Y-4337436D01*
X4255777Y-4337436D02*
X4246253Y-4346960D01*
X4246253Y-4346960D02*
X4227206Y-4356484D01*
X4227206Y-4356484D02*
X4198634Y-4356484D01*
X4379587Y-4356484D02*
X4360539Y-4346960D01*
X4360539Y-4346960D02*
X4351015Y-4327912D01*
X4351015Y-4327912D02*
X4351015Y-4156484D01*
X4531968Y-4346960D02*
X4512920Y-4356484D01*
X4512920Y-4356484D02*
X4474825Y-4356484D01*
X4474825Y-4356484D02*
X4455777Y-4346960D01*
X4455777Y-4346960D02*
X4446253Y-4327912D01*
X4446253Y-4327912D02*
X4446253Y-4251722D01*
X4446253Y-4251722D02*
X4455777Y-4232674D01*
X4455777Y-4232674D02*
X4474825Y-4223150D01*
X4474825Y-4223150D02*
X4512920Y-4223150D01*
X4512920Y-4223150D02*
X4531968Y-4232674D01*
X4531968Y-4232674D02*
X4541492Y-4251722D01*
X4541492Y-4251722D02*
X4541492Y-4270770D01*
X4541492Y-4270770D02*
X4446253Y-4289817D01*
X4608158Y-4432674D02*
X4617682Y-4423150D01*
X4617682Y-4423150D02*
X4636730Y-4394579D01*
X4636730Y-4394579D02*
X4646253Y-4375531D01*
X4646253Y-4375531D02*
X4655777Y-4346960D01*
X4655777Y-4346960D02*
X4665301Y-4299341D01*
X4665301Y-4299341D02*
X4665301Y-4261246D01*
X4665301Y-4261246D02*
X4655777Y-4213627D01*
X4655777Y-4213627D02*
X4646253Y-4185055D01*
X4646253Y-4185055D02*
X4636730Y-4166008D01*
X4636730Y-4166008D02*
X4617682Y-4137436D01*
X4617682Y-4137436D02*
X4608158Y-4127912D01*
X4970063Y-4432674D02*
X4960539Y-4423150D01*
X4960539Y-4423150D02*
X4941492Y-4394579D01*
X4941492Y-4394579D02*
X4931968Y-4375531D01*
X4931968Y-4375531D02*
X4922444Y-4346960D01*
X4922444Y-4346960D02*
X4912920Y-4299341D01*
X4912920Y-4299341D02*
X4912920Y-4261246D01*
X4912920Y-4261246D02*
X4922444Y-4213627D01*
X4922444Y-4213627D02*
X4931968Y-4185055D01*
X4931968Y-4185055D02*
X4941492Y-4166008D01*
X4941492Y-4166008D02*
X4960539Y-4137436D01*
X4960539Y-4137436D02*
X4970063Y-4127912D01*
X5046253Y-4223150D02*
X5046253Y-4356484D01*
X5046253Y-4242198D02*
X5055777Y-4232674D01*
X5055777Y-4232674D02*
X5074825Y-4223150D01*
X5074825Y-4223150D02*
X5103396Y-4223150D01*
X5103396Y-4223150D02*
X5122444Y-4232674D01*
X5122444Y-4232674D02*
X5131968Y-4251722D01*
X5131968Y-4251722D02*
X5131968Y-4356484D01*
X5255777Y-4356484D02*
X5236730Y-4346960D01*
X5236730Y-4346960D02*
X5227206Y-4337436D01*
X5227206Y-4337436D02*
X5217682Y-4318389D01*
X5217682Y-4318389D02*
X5217682Y-4261246D01*
X5217682Y-4261246D02*
X5227206Y-4242198D01*
X5227206Y-4242198D02*
X5236730Y-4232674D01*
X5236730Y-4232674D02*
X5255777Y-4223150D01*
X5255777Y-4223150D02*
X5284349Y-4223150D01*
X5284349Y-4223150D02*
X5303396Y-4232674D01*
X5303396Y-4232674D02*
X5312920Y-4242198D01*
X5312920Y-4242198D02*
X5322444Y-4261246D01*
X5322444Y-4261246D02*
X5322444Y-4318389D01*
X5322444Y-4318389D02*
X5312920Y-4337436D01*
X5312920Y-4337436D02*
X5303396Y-4346960D01*
X5303396Y-4346960D02*
X5284349Y-4356484D01*
X5284349Y-4356484D02*
X5255777Y-4356484D01*
X5379587Y-4223150D02*
X5455777Y-4223150D01*
X5408158Y-4156484D02*
X5408158Y-4327912D01*
X5408158Y-4327912D02*
X5417682Y-4346960D01*
X5417682Y-4346960D02*
X5436730Y-4356484D01*
X5436730Y-4356484D02*
X5455777Y-4356484D01*
X5674825Y-4223150D02*
X5674825Y-4423150D01*
X5674825Y-4232674D02*
X5693872Y-4223150D01*
X5693872Y-4223150D02*
X5731968Y-4223150D01*
X5731968Y-4223150D02*
X5751015Y-4232674D01*
X5751015Y-4232674D02*
X5760539Y-4242198D01*
X5760539Y-4242198D02*
X5770063Y-4261246D01*
X5770063Y-4261246D02*
X5770063Y-4318389D01*
X5770063Y-4318389D02*
X5760539Y-4337436D01*
X5760539Y-4337436D02*
X5751015Y-4346960D01*
X5751015Y-4346960D02*
X5731968Y-4356484D01*
X5731968Y-4356484D02*
X5693872Y-4356484D01*
X5693872Y-4356484D02*
X5674825Y-4346960D01*
X5884349Y-4356484D02*
X5865301Y-4346960D01*
X5865301Y-4346960D02*
X5855777Y-4327912D01*
X5855777Y-4327912D02*
X5855777Y-4156484D01*
X6046253Y-4356484D02*
X6046253Y-4251722D01*
X6046253Y-4251722D02*
X6036730Y-4232674D01*
X6036730Y-4232674D02*
X6017682Y-4223150D01*
X6017682Y-4223150D02*
X5979587Y-4223150D01*
X5979587Y-4223150D02*
X5960539Y-4232674D01*
X6046253Y-4346960D02*
X6027206Y-4356484D01*
X6027206Y-4356484D02*
X5979587Y-4356484D01*
X5979587Y-4356484D02*
X5960539Y-4346960D01*
X5960539Y-4346960D02*
X5951015Y-4327912D01*
X5951015Y-4327912D02*
X5951015Y-4308865D01*
X5951015Y-4308865D02*
X5960539Y-4289817D01*
X5960539Y-4289817D02*
X5979587Y-4280293D01*
X5979587Y-4280293D02*
X6027206Y-4280293D01*
X6027206Y-4280293D02*
X6046253Y-4270770D01*
X6112920Y-4223150D02*
X6189111Y-4223150D01*
X6141492Y-4156484D02*
X6141492Y-4327912D01*
X6141492Y-4327912D02*
X6151015Y-4346960D01*
X6151015Y-4346960D02*
X6170063Y-4356484D01*
X6170063Y-4356484D02*
X6189111Y-4356484D01*
X6331968Y-4346960D02*
X6312920Y-4356484D01*
X6312920Y-4356484D02*
X6274825Y-4356484D01*
X6274825Y-4356484D02*
X6255777Y-4346960D01*
X6255777Y-4346960D02*
X6246253Y-4327912D01*
X6246253Y-4327912D02*
X6246253Y-4251722D01*
X6246253Y-4251722D02*
X6255777Y-4232674D01*
X6255777Y-4232674D02*
X6274825Y-4223150D01*
X6274825Y-4223150D02*
X6312920Y-4223150D01*
X6312920Y-4223150D02*
X6331968Y-4232674D01*
X6331968Y-4232674D02*
X6341492Y-4251722D01*
X6341492Y-4251722D02*
X6341492Y-4270770D01*
X6341492Y-4270770D02*
X6246253Y-4289817D01*
X6512920Y-4356484D02*
X6512920Y-4156484D01*
X6512920Y-4346960D02*
X6493873Y-4356484D01*
X6493873Y-4356484D02*
X6455777Y-4356484D01*
X6455777Y-4356484D02*
X6436730Y-4346960D01*
X6436730Y-4346960D02*
X6427206Y-4337436D01*
X6427206Y-4337436D02*
X6417682Y-4318389D01*
X6417682Y-4318389D02*
X6417682Y-4261246D01*
X6417682Y-4261246D02*
X6427206Y-4242198D01*
X6427206Y-4242198D02*
X6436730Y-4232674D01*
X6436730Y-4232674D02*
X6455777Y-4223150D01*
X6455777Y-4223150D02*
X6493873Y-4223150D01*
X6493873Y-4223150D02*
X6512920Y-4232674D01*
X6589111Y-4432674D02*
X6598634Y-4423150D01*
X6598634Y-4423150D02*
X6617682Y-4394579D01*
X6617682Y-4394579D02*
X6627206Y-4375531D01*
X6627206Y-4375531D02*
X6636730Y-4346960D01*
X6636730Y-4346960D02*
X6646253Y-4299341D01*
X6646253Y-4299341D02*
X6646253Y-4261246D01*
X6646253Y-4261246D02*
X6636730Y-4213627D01*
X6636730Y-4213627D02*
X6627206Y-4185055D01*
X6627206Y-4185055D02*
X6617682Y-4166008D01*
X6617682Y-4166008D02*
X6598634Y-4137436D01*
X6598634Y-4137436D02*
X6589111Y-4127912D01*
D14*
X-165000Y-4449000D02*
X-5000Y-4609000D01*
X-5000Y-4449000D02*
X-165000Y-4609000D01*
X-85000Y-4449000D02*
X-85000Y-4609000D01*
X-165000Y-4529000D02*
X-5000Y-4529000D01*
D11*
X360539Y-4620484D02*
X246253Y-4620484D01*
X303396Y-4620484D02*
X303396Y-4420484D01*
X303396Y-4420484D02*
X284348Y-4449055D01*
X284348Y-4449055D02*
X265301Y-4468103D01*
X265301Y-4468103D02*
X246253Y-4477627D01*
X446253Y-4601436D02*
X455777Y-4610960D01*
X455777Y-4610960D02*
X446253Y-4620484D01*
X446253Y-4620484D02*
X436729Y-4610960D01*
X436729Y-4610960D02*
X446253Y-4601436D01*
X446253Y-4601436D02*
X446253Y-4620484D01*
X627205Y-4420484D02*
X589110Y-4420484D01*
X589110Y-4420484D02*
X570063Y-4430008D01*
X570063Y-4430008D02*
X560539Y-4439531D01*
X560539Y-4439531D02*
X541491Y-4468103D01*
X541491Y-4468103D02*
X531967Y-4506198D01*
X531967Y-4506198D02*
X531967Y-4582389D01*
X531967Y-4582389D02*
X541491Y-4601436D01*
X541491Y-4601436D02*
X551015Y-4610960D01*
X551015Y-4610960D02*
X570063Y-4620484D01*
X570063Y-4620484D02*
X608158Y-4620484D01*
X608158Y-4620484D02*
X627205Y-4610960D01*
X627205Y-4610960D02*
X636729Y-4601436D01*
X636729Y-4601436D02*
X646253Y-4582389D01*
X646253Y-4582389D02*
X646253Y-4534770D01*
X646253Y-4534770D02*
X636729Y-4515722D01*
X636729Y-4515722D02*
X627205Y-4506198D01*
X627205Y-4506198D02*
X608158Y-4496674D01*
X608158Y-4496674D02*
X570063Y-4496674D01*
X570063Y-4496674D02*
X551015Y-4506198D01*
X551015Y-4506198D02*
X541491Y-4515722D01*
X541491Y-4515722D02*
X531967Y-4534770D01*
X770062Y-4420484D02*
X789110Y-4420484D01*
X789110Y-4420484D02*
X808158Y-4430008D01*
X808158Y-4430008D02*
X817682Y-4439531D01*
X817682Y-4439531D02*
X827205Y-4458579D01*
X827205Y-4458579D02*
X836729Y-4496674D01*
X836729Y-4496674D02*
X836729Y-4544293D01*
X836729Y-4544293D02*
X827205Y-4582389D01*
X827205Y-4582389D02*
X817682Y-4601436D01*
X817682Y-4601436D02*
X808158Y-4610960D01*
X808158Y-4610960D02*
X789110Y-4620484D01*
X789110Y-4620484D02*
X770062Y-4620484D01*
X770062Y-4620484D02*
X751015Y-4610960D01*
X751015Y-4610960D02*
X741491Y-4601436D01*
X741491Y-4601436D02*
X731967Y-4582389D01*
X731967Y-4582389D02*
X722443Y-4544293D01*
X722443Y-4544293D02*
X722443Y-4496674D01*
X722443Y-4496674D02*
X731967Y-4458579D01*
X731967Y-4458579D02*
X741491Y-4439531D01*
X741491Y-4439531D02*
X751015Y-4430008D01*
X751015Y-4430008D02*
X770062Y-4420484D01*
X960539Y-4420484D02*
X979586Y-4420484D01*
X979586Y-4420484D02*
X998634Y-4430008D01*
X998634Y-4430008D02*
X1008158Y-4439531D01*
X1008158Y-4439531D02*
X1017682Y-4458579D01*
X1017682Y-4458579D02*
X1027205Y-4496674D01*
X1027205Y-4496674D02*
X1027205Y-4544293D01*
X1027205Y-4544293D02*
X1017682Y-4582389D01*
X1017682Y-4582389D02*
X1008158Y-4601436D01*
X1008158Y-4601436D02*
X998634Y-4610960D01*
X998634Y-4610960D02*
X979586Y-4620484D01*
X979586Y-4620484D02*
X960539Y-4620484D01*
X960539Y-4620484D02*
X941491Y-4610960D01*
X941491Y-4610960D02*
X931967Y-4601436D01*
X931967Y-4601436D02*
X922443Y-4582389D01*
X922443Y-4582389D02*
X912920Y-4544293D01*
X912920Y-4544293D02*
X912920Y-4496674D01*
X912920Y-4496674D02*
X922443Y-4458579D01*
X922443Y-4458579D02*
X931967Y-4439531D01*
X931967Y-4439531D02*
X941491Y-4430008D01*
X941491Y-4430008D02*
X960539Y-4420484D01*
X1112920Y-4620484D02*
X1112920Y-4487150D01*
X1112920Y-4506198D02*
X1122444Y-4496674D01*
X1122444Y-4496674D02*
X1141491Y-4487150D01*
X1141491Y-4487150D02*
X1170063Y-4487150D01*
X1170063Y-4487150D02*
X1189110Y-4496674D01*
X1189110Y-4496674D02*
X1198634Y-4515722D01*
X1198634Y-4515722D02*
X1198634Y-4620484D01*
X1198634Y-4515722D02*
X1208158Y-4496674D01*
X1208158Y-4496674D02*
X1227205Y-4487150D01*
X1227205Y-4487150D02*
X1255777Y-4487150D01*
X1255777Y-4487150D02*
X1274825Y-4496674D01*
X1274825Y-4496674D02*
X1284348Y-4515722D01*
X1284348Y-4515722D02*
X1284348Y-4620484D01*
X1379586Y-4620484D02*
X1379586Y-4487150D01*
X1379586Y-4506198D02*
X1389110Y-4496674D01*
X1389110Y-4496674D02*
X1408158Y-4487150D01*
X1408158Y-4487150D02*
X1436729Y-4487150D01*
X1436729Y-4487150D02*
X1455777Y-4496674D01*
X1455777Y-4496674D02*
X1465301Y-4515722D01*
X1465301Y-4515722D02*
X1465301Y-4620484D01*
X1465301Y-4515722D02*
X1474824Y-4496674D01*
X1474824Y-4496674D02*
X1493872Y-4487150D01*
X1493872Y-4487150D02*
X1522443Y-4487150D01*
X1522443Y-4487150D02*
X1541491Y-4496674D01*
X1541491Y-4496674D02*
X1551015Y-4515722D01*
X1551015Y-4515722D02*
X1551015Y-4620484D01*
X1941491Y-4410960D02*
X1770063Y-4668103D01*
X2198634Y-4420484D02*
X2217682Y-4420484D01*
X2217682Y-4420484D02*
X2236729Y-4430008D01*
X2236729Y-4430008D02*
X2246253Y-4439531D01*
X2246253Y-4439531D02*
X2255777Y-4458579D01*
X2255777Y-4458579D02*
X2265301Y-4496674D01*
X2265301Y-4496674D02*
X2265301Y-4544293D01*
X2265301Y-4544293D02*
X2255777Y-4582389D01*
X2255777Y-4582389D02*
X2246253Y-4601436D01*
X2246253Y-4601436D02*
X2236729Y-4610960D01*
X2236729Y-4610960D02*
X2217682Y-4620484D01*
X2217682Y-4620484D02*
X2198634Y-4620484D01*
X2198634Y-4620484D02*
X2179587Y-4610960D01*
X2179587Y-4610960D02*
X2170063Y-4601436D01*
X2170063Y-4601436D02*
X2160539Y-4582389D01*
X2160539Y-4582389D02*
X2151015Y-4544293D01*
X2151015Y-4544293D02*
X2151015Y-4496674D01*
X2151015Y-4496674D02*
X2160539Y-4458579D01*
X2160539Y-4458579D02*
X2170063Y-4439531D01*
X2170063Y-4439531D02*
X2179587Y-4430008D01*
X2179587Y-4430008D02*
X2198634Y-4420484D01*
X2351015Y-4601436D02*
X2360539Y-4610960D01*
X2360539Y-4610960D02*
X2351015Y-4620484D01*
X2351015Y-4620484D02*
X2341491Y-4610960D01*
X2341491Y-4610960D02*
X2351015Y-4601436D01*
X2351015Y-4601436D02*
X2351015Y-4620484D01*
X2484348Y-4420484D02*
X2503396Y-4420484D01*
X2503396Y-4420484D02*
X2522444Y-4430008D01*
X2522444Y-4430008D02*
X2531968Y-4439531D01*
X2531968Y-4439531D02*
X2541491Y-4458579D01*
X2541491Y-4458579D02*
X2551015Y-4496674D01*
X2551015Y-4496674D02*
X2551015Y-4544293D01*
X2551015Y-4544293D02*
X2541491Y-4582389D01*
X2541491Y-4582389D02*
X2531968Y-4601436D01*
X2531968Y-4601436D02*
X2522444Y-4610960D01*
X2522444Y-4610960D02*
X2503396Y-4620484D01*
X2503396Y-4620484D02*
X2484348Y-4620484D01*
X2484348Y-4620484D02*
X2465301Y-4610960D01*
X2465301Y-4610960D02*
X2455777Y-4601436D01*
X2455777Y-4601436D02*
X2446253Y-4582389D01*
X2446253Y-4582389D02*
X2436729Y-4544293D01*
X2436729Y-4544293D02*
X2436729Y-4496674D01*
X2436729Y-4496674D02*
X2446253Y-4458579D01*
X2446253Y-4458579D02*
X2455777Y-4439531D01*
X2455777Y-4439531D02*
X2465301Y-4430008D01*
X2465301Y-4430008D02*
X2484348Y-4420484D01*
X2722444Y-4420484D02*
X2684348Y-4420484D01*
X2684348Y-4420484D02*
X2665301Y-4430008D01*
X2665301Y-4430008D02*
X2655777Y-4439531D01*
X2655777Y-4439531D02*
X2636729Y-4468103D01*
X2636729Y-4468103D02*
X2627206Y-4506198D01*
X2627206Y-4506198D02*
X2627206Y-4582389D01*
X2627206Y-4582389D02*
X2636729Y-4601436D01*
X2636729Y-4601436D02*
X2646253Y-4610960D01*
X2646253Y-4610960D02*
X2665301Y-4620484D01*
X2665301Y-4620484D02*
X2703396Y-4620484D01*
X2703396Y-4620484D02*
X2722444Y-4610960D01*
X2722444Y-4610960D02*
X2731968Y-4601436D01*
X2731968Y-4601436D02*
X2741491Y-4582389D01*
X2741491Y-4582389D02*
X2741491Y-4534770D01*
X2741491Y-4534770D02*
X2731968Y-4515722D01*
X2731968Y-4515722D02*
X2722444Y-4506198D01*
X2722444Y-4506198D02*
X2703396Y-4496674D01*
X2703396Y-4496674D02*
X2665301Y-4496674D01*
X2665301Y-4496674D02*
X2646253Y-4506198D01*
X2646253Y-4506198D02*
X2636729Y-4515722D01*
X2636729Y-4515722D02*
X2627206Y-4534770D01*
X2808158Y-4420484D02*
X2931967Y-4420484D01*
X2931967Y-4420484D02*
X2865301Y-4496674D01*
X2865301Y-4496674D02*
X2893872Y-4496674D01*
X2893872Y-4496674D02*
X2912920Y-4506198D01*
X2912920Y-4506198D02*
X2922444Y-4515722D01*
X2922444Y-4515722D02*
X2931967Y-4534770D01*
X2931967Y-4534770D02*
X2931967Y-4582389D01*
X2931967Y-4582389D02*
X2922444Y-4601436D01*
X2922444Y-4601436D02*
X2912920Y-4610960D01*
X2912920Y-4610960D02*
X2893872Y-4620484D01*
X2893872Y-4620484D02*
X2836729Y-4620484D01*
X2836729Y-4620484D02*
X2817682Y-4610960D01*
X2817682Y-4610960D02*
X2808158Y-4601436D01*
X3055777Y-4420484D02*
X3074825Y-4420484D01*
X3074825Y-4420484D02*
X3093872Y-4430008D01*
X3093872Y-4430008D02*
X3103396Y-4439531D01*
X3103396Y-4439531D02*
X3112920Y-4458579D01*
X3112920Y-4458579D02*
X3122444Y-4496674D01*
X3122444Y-4496674D02*
X3122444Y-4544293D01*
X3122444Y-4544293D02*
X3112920Y-4582389D01*
X3112920Y-4582389D02*
X3103396Y-4601436D01*
X3103396Y-4601436D02*
X3093872Y-4610960D01*
X3093872Y-4610960D02*
X3074825Y-4620484D01*
X3074825Y-4620484D02*
X3055777Y-4620484D01*
X3055777Y-4620484D02*
X3036729Y-4610960D01*
X3036729Y-4610960D02*
X3027206Y-4601436D01*
X3027206Y-4601436D02*
X3017682Y-4582389D01*
X3017682Y-4582389D02*
X3008158Y-4544293D01*
X3008158Y-4544293D02*
X3008158Y-4496674D01*
X3008158Y-4496674D02*
X3017682Y-4458579D01*
X3017682Y-4458579D02*
X3027206Y-4439531D01*
X3027206Y-4439531D02*
X3036729Y-4430008D01*
X3036729Y-4430008D02*
X3055777Y-4420484D01*
X3198634Y-4420484D02*
X3198634Y-4458579D01*
X3274825Y-4420484D02*
X3274825Y-4458579D01*
X3570063Y-4696674D02*
X3560539Y-4687150D01*
X3560539Y-4687150D02*
X3541491Y-4658579D01*
X3541491Y-4658579D02*
X3531968Y-4639531D01*
X3531968Y-4639531D02*
X3522444Y-4610960D01*
X3522444Y-4610960D02*
X3512920Y-4563341D01*
X3512920Y-4563341D02*
X3512920Y-4525246D01*
X3512920Y-4525246D02*
X3522444Y-4477627D01*
X3522444Y-4477627D02*
X3531968Y-4449055D01*
X3531968Y-4449055D02*
X3541491Y-4430008D01*
X3541491Y-4430008D02*
X3560539Y-4401436D01*
X3560539Y-4401436D02*
X3570063Y-4391912D01*
X3636729Y-4439531D02*
X3646253Y-4430008D01*
X3646253Y-4430008D02*
X3665301Y-4420484D01*
X3665301Y-4420484D02*
X3712920Y-4420484D01*
X3712920Y-4420484D02*
X3731968Y-4430008D01*
X3731968Y-4430008D02*
X3741491Y-4439531D01*
X3741491Y-4439531D02*
X3751015Y-4458579D01*
X3751015Y-4458579D02*
X3751015Y-4477627D01*
X3751015Y-4477627D02*
X3741491Y-4506198D01*
X3741491Y-4506198D02*
X3627206Y-4620484D01*
X3627206Y-4620484D02*
X3751015Y-4620484D01*
X3989110Y-4620484D02*
X3989110Y-4420484D01*
X4074825Y-4620484D02*
X4074825Y-4515722D01*
X4074825Y-4515722D02*
X4065301Y-4496674D01*
X4065301Y-4496674D02*
X4046253Y-4487150D01*
X4046253Y-4487150D02*
X4017682Y-4487150D01*
X4017682Y-4487150D02*
X3998634Y-4496674D01*
X3998634Y-4496674D02*
X3989110Y-4506198D01*
X4198634Y-4620484D02*
X4179587Y-4610960D01*
X4179587Y-4610960D02*
X4170063Y-4601436D01*
X4170063Y-4601436D02*
X4160539Y-4582389D01*
X4160539Y-4582389D02*
X4160539Y-4525246D01*
X4160539Y-4525246D02*
X4170063Y-4506198D01*
X4170063Y-4506198D02*
X4179587Y-4496674D01*
X4179587Y-4496674D02*
X4198634Y-4487150D01*
X4198634Y-4487150D02*
X4227206Y-4487150D01*
X4227206Y-4487150D02*
X4246253Y-4496674D01*
X4246253Y-4496674D02*
X4255777Y-4506198D01*
X4255777Y-4506198D02*
X4265301Y-4525246D01*
X4265301Y-4525246D02*
X4265301Y-4582389D01*
X4265301Y-4582389D02*
X4255777Y-4601436D01*
X4255777Y-4601436D02*
X4246253Y-4610960D01*
X4246253Y-4610960D02*
X4227206Y-4620484D01*
X4227206Y-4620484D02*
X4198634Y-4620484D01*
X4379587Y-4620484D02*
X4360539Y-4610960D01*
X4360539Y-4610960D02*
X4351015Y-4591912D01*
X4351015Y-4591912D02*
X4351015Y-4420484D01*
X4531968Y-4610960D02*
X4512920Y-4620484D01*
X4512920Y-4620484D02*
X4474825Y-4620484D01*
X4474825Y-4620484D02*
X4455777Y-4610960D01*
X4455777Y-4610960D02*
X4446253Y-4591912D01*
X4446253Y-4591912D02*
X4446253Y-4515722D01*
X4446253Y-4515722D02*
X4455777Y-4496674D01*
X4455777Y-4496674D02*
X4474825Y-4487150D01*
X4474825Y-4487150D02*
X4512920Y-4487150D01*
X4512920Y-4487150D02*
X4531968Y-4496674D01*
X4531968Y-4496674D02*
X4541492Y-4515722D01*
X4541492Y-4515722D02*
X4541492Y-4534770D01*
X4541492Y-4534770D02*
X4446253Y-4553817D01*
X4617682Y-4610960D02*
X4636730Y-4620484D01*
X4636730Y-4620484D02*
X4674825Y-4620484D01*
X4674825Y-4620484D02*
X4693873Y-4610960D01*
X4693873Y-4610960D02*
X4703396Y-4591912D01*
X4703396Y-4591912D02*
X4703396Y-4582389D01*
X4703396Y-4582389D02*
X4693873Y-4563341D01*
X4693873Y-4563341D02*
X4674825Y-4553817D01*
X4674825Y-4553817D02*
X4646253Y-4553817D01*
X4646253Y-4553817D02*
X4627206Y-4544293D01*
X4627206Y-4544293D02*
X4617682Y-4525246D01*
X4617682Y-4525246D02*
X4617682Y-4515722D01*
X4617682Y-4515722D02*
X4627206Y-4496674D01*
X4627206Y-4496674D02*
X4646253Y-4487150D01*
X4646253Y-4487150D02*
X4674825Y-4487150D01*
X4674825Y-4487150D02*
X4693873Y-4496674D01*
X4770063Y-4696674D02*
X4779587Y-4687150D01*
X4779587Y-4687150D02*
X4798634Y-4658579D01*
X4798634Y-4658579D02*
X4808158Y-4639531D01*
X4808158Y-4639531D02*
X4817682Y-4610960D01*
X4817682Y-4610960D02*
X4827206Y-4563341D01*
X4827206Y-4563341D02*
X4827206Y-4525246D01*
X4827206Y-4525246D02*
X4817682Y-4477627D01*
X4817682Y-4477627D02*
X4808158Y-4449055D01*
X4808158Y-4449055D02*
X4798634Y-4430008D01*
X4798634Y-4430008D02*
X4779587Y-4401436D01*
X4779587Y-4401436D02*
X4770063Y-4391912D01*
X5131968Y-4696674D02*
X5122444Y-4687150D01*
X5122444Y-4687150D02*
X5103396Y-4658579D01*
X5103396Y-4658579D02*
X5093873Y-4639531D01*
X5093873Y-4639531D02*
X5084349Y-4610960D01*
X5084349Y-4610960D02*
X5074825Y-4563341D01*
X5074825Y-4563341D02*
X5074825Y-4525246D01*
X5074825Y-4525246D02*
X5084349Y-4477627D01*
X5084349Y-4477627D02*
X5093873Y-4449055D01*
X5093873Y-4449055D02*
X5103396Y-4430008D01*
X5103396Y-4430008D02*
X5122444Y-4401436D01*
X5122444Y-4401436D02*
X5131968Y-4391912D01*
X5208158Y-4487150D02*
X5208158Y-4620484D01*
X5208158Y-4506198D02*
X5217682Y-4496674D01*
X5217682Y-4496674D02*
X5236730Y-4487150D01*
X5236730Y-4487150D02*
X5265301Y-4487150D01*
X5265301Y-4487150D02*
X5284349Y-4496674D01*
X5284349Y-4496674D02*
X5293873Y-4515722D01*
X5293873Y-4515722D02*
X5293873Y-4620484D01*
X5417682Y-4620484D02*
X5398634Y-4610960D01*
X5398634Y-4610960D02*
X5389111Y-4601436D01*
X5389111Y-4601436D02*
X5379587Y-4582389D01*
X5379587Y-4582389D02*
X5379587Y-4525246D01*
X5379587Y-4525246D02*
X5389111Y-4506198D01*
X5389111Y-4506198D02*
X5398634Y-4496674D01*
X5398634Y-4496674D02*
X5417682Y-4487150D01*
X5417682Y-4487150D02*
X5446254Y-4487150D01*
X5446254Y-4487150D02*
X5465301Y-4496674D01*
X5465301Y-4496674D02*
X5474825Y-4506198D01*
X5474825Y-4506198D02*
X5484349Y-4525246D01*
X5484349Y-4525246D02*
X5484349Y-4582389D01*
X5484349Y-4582389D02*
X5474825Y-4601436D01*
X5474825Y-4601436D02*
X5465301Y-4610960D01*
X5465301Y-4610960D02*
X5446254Y-4620484D01*
X5446254Y-4620484D02*
X5417682Y-4620484D01*
X5541492Y-4487150D02*
X5617682Y-4487150D01*
X5570063Y-4420484D02*
X5570063Y-4591912D01*
X5570063Y-4591912D02*
X5579587Y-4610960D01*
X5579587Y-4610960D02*
X5598634Y-4620484D01*
X5598634Y-4620484D02*
X5617682Y-4620484D01*
X5836730Y-4487150D02*
X5836730Y-4687150D01*
X5836730Y-4496674D02*
X5855777Y-4487150D01*
X5855777Y-4487150D02*
X5893873Y-4487150D01*
X5893873Y-4487150D02*
X5912920Y-4496674D01*
X5912920Y-4496674D02*
X5922444Y-4506198D01*
X5922444Y-4506198D02*
X5931968Y-4525246D01*
X5931968Y-4525246D02*
X5931968Y-4582389D01*
X5931968Y-4582389D02*
X5922444Y-4601436D01*
X5922444Y-4601436D02*
X5912920Y-4610960D01*
X5912920Y-4610960D02*
X5893873Y-4620484D01*
X5893873Y-4620484D02*
X5855777Y-4620484D01*
X5855777Y-4620484D02*
X5836730Y-4610960D01*
X6046253Y-4620484D02*
X6027206Y-4610960D01*
X6027206Y-4610960D02*
X6017682Y-4591912D01*
X6017682Y-4591912D02*
X6017682Y-4420484D01*
X6208158Y-4620484D02*
X6208158Y-4515722D01*
X6208158Y-4515722D02*
X6198634Y-4496674D01*
X6198634Y-4496674D02*
X6179587Y-4487150D01*
X6179587Y-4487150D02*
X6141492Y-4487150D01*
X6141492Y-4487150D02*
X6122444Y-4496674D01*
X6208158Y-4610960D02*
X6189111Y-4620484D01*
X6189111Y-4620484D02*
X6141492Y-4620484D01*
X6141492Y-4620484D02*
X6122444Y-4610960D01*
X6122444Y-4610960D02*
X6112920Y-4591912D01*
X6112920Y-4591912D02*
X6112920Y-4572865D01*
X6112920Y-4572865D02*
X6122444Y-4553817D01*
X6122444Y-4553817D02*
X6141492Y-4544293D01*
X6141492Y-4544293D02*
X6189111Y-4544293D01*
X6189111Y-4544293D02*
X6208158Y-4534770D01*
X6274825Y-4487150D02*
X6351015Y-4487150D01*
X6303396Y-4420484D02*
X6303396Y-4591912D01*
X6303396Y-4591912D02*
X6312920Y-4610960D01*
X6312920Y-4610960D02*
X6331968Y-4620484D01*
X6331968Y-4620484D02*
X6351015Y-4620484D01*
X6493873Y-4610960D02*
X6474825Y-4620484D01*
X6474825Y-4620484D02*
X6436730Y-4620484D01*
X6436730Y-4620484D02*
X6417682Y-4610960D01*
X6417682Y-4610960D02*
X6408158Y-4591912D01*
X6408158Y-4591912D02*
X6408158Y-4515722D01*
X6408158Y-4515722D02*
X6417682Y-4496674D01*
X6417682Y-4496674D02*
X6436730Y-4487150D01*
X6436730Y-4487150D02*
X6474825Y-4487150D01*
X6474825Y-4487150D02*
X6493873Y-4496674D01*
X6493873Y-4496674D02*
X6503396Y-4515722D01*
X6503396Y-4515722D02*
X6503396Y-4534770D01*
X6503396Y-4534770D02*
X6408158Y-4553817D01*
X6674825Y-4620484D02*
X6674825Y-4420484D01*
X6674825Y-4610960D02*
X6655777Y-4620484D01*
X6655777Y-4620484D02*
X6617682Y-4620484D01*
X6617682Y-4620484D02*
X6598634Y-4610960D01*
X6598634Y-4610960D02*
X6589111Y-4601436D01*
X6589111Y-4601436D02*
X6579587Y-4582389D01*
X6579587Y-4582389D02*
X6579587Y-4525246D01*
X6579587Y-4525246D02*
X6589111Y-4506198D01*
X6589111Y-4506198D02*
X6598634Y-4496674D01*
X6598634Y-4496674D02*
X6617682Y-4487150D01*
X6617682Y-4487150D02*
X6655777Y-4487150D01*
X6655777Y-4487150D02*
X6674825Y-4496674D01*
X6751015Y-4696674D02*
X6760539Y-4687150D01*
X6760539Y-4687150D02*
X6779587Y-4658579D01*
X6779587Y-4658579D02*
X6789111Y-4639531D01*
X6789111Y-4639531D02*
X6798634Y-4610960D01*
X6798634Y-4610960D02*
X6808158Y-4563341D01*
X6808158Y-4563341D02*
X6808158Y-4525246D01*
X6808158Y-4525246D02*
X6798634Y-4477627D01*
X6798634Y-4477627D02*
X6789111Y-4449055D01*
X6789111Y-4449055D02*
X6779587Y-4430008D01*
X6779587Y-4430008D02*
X6760539Y-4401436D01*
X6760539Y-4401436D02*
X6751015Y-4391912D01*
X-205000Y-4709000D02*
X-5000Y-4909000D01*
X-5000Y-4709000D02*
X-205000Y-4909000D01*
X-34289Y-4879711D02*
X-34289Y-4738289D01*
X-175711Y-4738289D01*
X-175711Y-4879711D01*
X-34289Y-4879711D01*
X246253Y-4719531D02*
X255777Y-4710008D01*
X255777Y-4710008D02*
X274824Y-4700484D01*
X274824Y-4700484D02*
X322444Y-4700484D01*
X322444Y-4700484D02*
X341491Y-4710008D01*
X341491Y-4710008D02*
X351015Y-4719531D01*
X351015Y-4719531D02*
X360539Y-4738579D01*
X360539Y-4738579D02*
X360539Y-4757627D01*
X360539Y-4757627D02*
X351015Y-4786198D01*
X351015Y-4786198D02*
X236729Y-4900484D01*
X236729Y-4900484D02*
X360539Y-4900484D01*
X446253Y-4881436D02*
X455777Y-4890960D01*
X455777Y-4890960D02*
X446253Y-4900484D01*
X446253Y-4900484D02*
X436729Y-4890960D01*
X436729Y-4890960D02*
X446253Y-4881436D01*
X446253Y-4881436D02*
X446253Y-4900484D01*
X627205Y-4700484D02*
X589110Y-4700484D01*
X589110Y-4700484D02*
X570063Y-4710008D01*
X570063Y-4710008D02*
X560539Y-4719531D01*
X560539Y-4719531D02*
X541491Y-4748103D01*
X541491Y-4748103D02*
X531967Y-4786198D01*
X531967Y-4786198D02*
X531967Y-4862389D01*
X531967Y-4862389D02*
X541491Y-4881436D01*
X541491Y-4881436D02*
X551015Y-4890960D01*
X551015Y-4890960D02*
X570063Y-4900484D01*
X570063Y-4900484D02*
X608158Y-4900484D01*
X608158Y-4900484D02*
X627205Y-4890960D01*
X627205Y-4890960D02*
X636729Y-4881436D01*
X636729Y-4881436D02*
X646253Y-4862389D01*
X646253Y-4862389D02*
X646253Y-4814770D01*
X646253Y-4814770D02*
X636729Y-4795722D01*
X636729Y-4795722D02*
X627205Y-4786198D01*
X627205Y-4786198D02*
X608158Y-4776674D01*
X608158Y-4776674D02*
X570063Y-4776674D01*
X570063Y-4776674D02*
X551015Y-4786198D01*
X551015Y-4786198D02*
X541491Y-4795722D01*
X541491Y-4795722D02*
X531967Y-4814770D01*
X770062Y-4700484D02*
X789110Y-4700484D01*
X789110Y-4700484D02*
X808158Y-4710008D01*
X808158Y-4710008D02*
X817682Y-4719531D01*
X817682Y-4719531D02*
X827205Y-4738579D01*
X827205Y-4738579D02*
X836729Y-4776674D01*
X836729Y-4776674D02*
X836729Y-4824293D01*
X836729Y-4824293D02*
X827205Y-4862389D01*
X827205Y-4862389D02*
X817682Y-4881436D01*
X817682Y-4881436D02*
X808158Y-4890960D01*
X808158Y-4890960D02*
X789110Y-4900484D01*
X789110Y-4900484D02*
X770062Y-4900484D01*
X770062Y-4900484D02*
X751015Y-4890960D01*
X751015Y-4890960D02*
X741491Y-4881436D01*
X741491Y-4881436D02*
X731967Y-4862389D01*
X731967Y-4862389D02*
X722443Y-4824293D01*
X722443Y-4824293D02*
X722443Y-4776674D01*
X722443Y-4776674D02*
X731967Y-4738579D01*
X731967Y-4738579D02*
X741491Y-4719531D01*
X741491Y-4719531D02*
X751015Y-4710008D01*
X751015Y-4710008D02*
X770062Y-4700484D01*
X960539Y-4700484D02*
X979586Y-4700484D01*
X979586Y-4700484D02*
X998634Y-4710008D01*
X998634Y-4710008D02*
X1008158Y-4719531D01*
X1008158Y-4719531D02*
X1017682Y-4738579D01*
X1017682Y-4738579D02*
X1027205Y-4776674D01*
X1027205Y-4776674D02*
X1027205Y-4824293D01*
X1027205Y-4824293D02*
X1017682Y-4862389D01*
X1017682Y-4862389D02*
X1008158Y-4881436D01*
X1008158Y-4881436D02*
X998634Y-4890960D01*
X998634Y-4890960D02*
X979586Y-4900484D01*
X979586Y-4900484D02*
X960539Y-4900484D01*
X960539Y-4900484D02*
X941491Y-4890960D01*
X941491Y-4890960D02*
X931967Y-4881436D01*
X931967Y-4881436D02*
X922443Y-4862389D01*
X922443Y-4862389D02*
X912920Y-4824293D01*
X912920Y-4824293D02*
X912920Y-4776674D01*
X912920Y-4776674D02*
X922443Y-4738579D01*
X922443Y-4738579D02*
X931967Y-4719531D01*
X931967Y-4719531D02*
X941491Y-4710008D01*
X941491Y-4710008D02*
X960539Y-4700484D01*
X1112920Y-4900484D02*
X1112920Y-4767150D01*
X1112920Y-4786198D02*
X1122444Y-4776674D01*
X1122444Y-4776674D02*
X1141491Y-4767150D01*
X1141491Y-4767150D02*
X1170063Y-4767150D01*
X1170063Y-4767150D02*
X1189110Y-4776674D01*
X1189110Y-4776674D02*
X1198634Y-4795722D01*
X1198634Y-4795722D02*
X1198634Y-4900484D01*
X1198634Y-4795722D02*
X1208158Y-4776674D01*
X1208158Y-4776674D02*
X1227205Y-4767150D01*
X1227205Y-4767150D02*
X1255777Y-4767150D01*
X1255777Y-4767150D02*
X1274825Y-4776674D01*
X1274825Y-4776674D02*
X1284348Y-4795722D01*
X1284348Y-4795722D02*
X1284348Y-4900484D01*
X1379586Y-4900484D02*
X1379586Y-4767150D01*
X1379586Y-4786198D02*
X1389110Y-4776674D01*
X1389110Y-4776674D02*
X1408158Y-4767150D01*
X1408158Y-4767150D02*
X1436729Y-4767150D01*
X1436729Y-4767150D02*
X1455777Y-4776674D01*
X1455777Y-4776674D02*
X1465301Y-4795722D01*
X1465301Y-4795722D02*
X1465301Y-4900484D01*
X1465301Y-4795722D02*
X1474824Y-4776674D01*
X1474824Y-4776674D02*
X1493872Y-4767150D01*
X1493872Y-4767150D02*
X1522443Y-4767150D01*
X1522443Y-4767150D02*
X1541491Y-4776674D01*
X1541491Y-4776674D02*
X1551015Y-4795722D01*
X1551015Y-4795722D02*
X1551015Y-4900484D01*
X1941491Y-4690960D02*
X1770063Y-4948103D01*
X2198634Y-4700484D02*
X2217682Y-4700484D01*
X2217682Y-4700484D02*
X2236729Y-4710008D01*
X2236729Y-4710008D02*
X2246253Y-4719531D01*
X2246253Y-4719531D02*
X2255777Y-4738579D01*
X2255777Y-4738579D02*
X2265301Y-4776674D01*
X2265301Y-4776674D02*
X2265301Y-4824293D01*
X2265301Y-4824293D02*
X2255777Y-4862389D01*
X2255777Y-4862389D02*
X2246253Y-4881436D01*
X2246253Y-4881436D02*
X2236729Y-4890960D01*
X2236729Y-4890960D02*
X2217682Y-4900484D01*
X2217682Y-4900484D02*
X2198634Y-4900484D01*
X2198634Y-4900484D02*
X2179587Y-4890960D01*
X2179587Y-4890960D02*
X2170063Y-4881436D01*
X2170063Y-4881436D02*
X2160539Y-4862389D01*
X2160539Y-4862389D02*
X2151015Y-4824293D01*
X2151015Y-4824293D02*
X2151015Y-4776674D01*
X2151015Y-4776674D02*
X2160539Y-4738579D01*
X2160539Y-4738579D02*
X2170063Y-4719531D01*
X2170063Y-4719531D02*
X2179587Y-4710008D01*
X2179587Y-4710008D02*
X2198634Y-4700484D01*
X2351015Y-4881436D02*
X2360539Y-4890960D01*
X2360539Y-4890960D02*
X2351015Y-4900484D01*
X2351015Y-4900484D02*
X2341491Y-4890960D01*
X2341491Y-4890960D02*
X2351015Y-4881436D01*
X2351015Y-4881436D02*
X2351015Y-4900484D01*
X2551015Y-4900484D02*
X2436729Y-4900484D01*
X2493872Y-4900484D02*
X2493872Y-4700484D01*
X2493872Y-4700484D02*
X2474825Y-4729055D01*
X2474825Y-4729055D02*
X2455777Y-4748103D01*
X2455777Y-4748103D02*
X2436729Y-4757627D01*
X2674825Y-4700484D02*
X2693872Y-4700484D01*
X2693872Y-4700484D02*
X2712920Y-4710008D01*
X2712920Y-4710008D02*
X2722444Y-4719531D01*
X2722444Y-4719531D02*
X2731968Y-4738579D01*
X2731968Y-4738579D02*
X2741491Y-4776674D01*
X2741491Y-4776674D02*
X2741491Y-4824293D01*
X2741491Y-4824293D02*
X2731968Y-4862389D01*
X2731968Y-4862389D02*
X2722444Y-4881436D01*
X2722444Y-4881436D02*
X2712920Y-4890960D01*
X2712920Y-4890960D02*
X2693872Y-4900484D01*
X2693872Y-4900484D02*
X2674825Y-4900484D01*
X2674825Y-4900484D02*
X2655777Y-4890960D01*
X2655777Y-4890960D02*
X2646253Y-4881436D01*
X2646253Y-4881436D02*
X2636729Y-4862389D01*
X2636729Y-4862389D02*
X2627206Y-4824293D01*
X2627206Y-4824293D02*
X2627206Y-4776674D01*
X2627206Y-4776674D02*
X2636729Y-4738579D01*
X2636729Y-4738579D02*
X2646253Y-4719531D01*
X2646253Y-4719531D02*
X2655777Y-4710008D01*
X2655777Y-4710008D02*
X2674825Y-4700484D01*
X2817682Y-4719531D02*
X2827206Y-4710008D01*
X2827206Y-4710008D02*
X2846253Y-4700484D01*
X2846253Y-4700484D02*
X2893872Y-4700484D01*
X2893872Y-4700484D02*
X2912920Y-4710008D01*
X2912920Y-4710008D02*
X2922444Y-4719531D01*
X2922444Y-4719531D02*
X2931967Y-4738579D01*
X2931967Y-4738579D02*
X2931967Y-4757627D01*
X2931967Y-4757627D02*
X2922444Y-4786198D01*
X2922444Y-4786198D02*
X2808158Y-4900484D01*
X2808158Y-4900484D02*
X2931967Y-4900484D01*
X3103396Y-4767150D02*
X3103396Y-4900484D01*
X3055777Y-4690960D02*
X3008158Y-4833817D01*
X3008158Y-4833817D02*
X3131967Y-4833817D01*
X3198634Y-4700484D02*
X3198634Y-4738579D01*
X3274825Y-4700484D02*
X3274825Y-4738579D01*
X3570063Y-4976674D02*
X3560539Y-4967150D01*
X3560539Y-4967150D02*
X3541491Y-4938579D01*
X3541491Y-4938579D02*
X3531968Y-4919531D01*
X3531968Y-4919531D02*
X3522444Y-4890960D01*
X3522444Y-4890960D02*
X3512920Y-4843341D01*
X3512920Y-4843341D02*
X3512920Y-4805246D01*
X3512920Y-4805246D02*
X3522444Y-4757627D01*
X3522444Y-4757627D02*
X3531968Y-4729055D01*
X3531968Y-4729055D02*
X3541491Y-4710008D01*
X3541491Y-4710008D02*
X3560539Y-4681436D01*
X3560539Y-4681436D02*
X3570063Y-4671912D01*
X3636729Y-4719531D02*
X3646253Y-4710008D01*
X3646253Y-4710008D02*
X3665301Y-4700484D01*
X3665301Y-4700484D02*
X3712920Y-4700484D01*
X3712920Y-4700484D02*
X3731968Y-4710008D01*
X3731968Y-4710008D02*
X3741491Y-4719531D01*
X3741491Y-4719531D02*
X3751015Y-4738579D01*
X3751015Y-4738579D02*
X3751015Y-4757627D01*
X3751015Y-4757627D02*
X3741491Y-4786198D01*
X3741491Y-4786198D02*
X3627206Y-4900484D01*
X3627206Y-4900484D02*
X3751015Y-4900484D01*
X3989110Y-4900484D02*
X3989110Y-4700484D01*
X4074825Y-4900484D02*
X4074825Y-4795722D01*
X4074825Y-4795722D02*
X4065301Y-4776674D01*
X4065301Y-4776674D02*
X4046253Y-4767150D01*
X4046253Y-4767150D02*
X4017682Y-4767150D01*
X4017682Y-4767150D02*
X3998634Y-4776674D01*
X3998634Y-4776674D02*
X3989110Y-4786198D01*
X4198634Y-4900484D02*
X4179587Y-4890960D01*
X4179587Y-4890960D02*
X4170063Y-4881436D01*
X4170063Y-4881436D02*
X4160539Y-4862389D01*
X4160539Y-4862389D02*
X4160539Y-4805246D01*
X4160539Y-4805246D02*
X4170063Y-4786198D01*
X4170063Y-4786198D02*
X4179587Y-4776674D01*
X4179587Y-4776674D02*
X4198634Y-4767150D01*
X4198634Y-4767150D02*
X4227206Y-4767150D01*
X4227206Y-4767150D02*
X4246253Y-4776674D01*
X4246253Y-4776674D02*
X4255777Y-4786198D01*
X4255777Y-4786198D02*
X4265301Y-4805246D01*
X4265301Y-4805246D02*
X4265301Y-4862389D01*
X4265301Y-4862389D02*
X4255777Y-4881436D01*
X4255777Y-4881436D02*
X4246253Y-4890960D01*
X4246253Y-4890960D02*
X4227206Y-4900484D01*
X4227206Y-4900484D02*
X4198634Y-4900484D01*
X4379587Y-4900484D02*
X4360539Y-4890960D01*
X4360539Y-4890960D02*
X4351015Y-4871912D01*
X4351015Y-4871912D02*
X4351015Y-4700484D01*
X4531968Y-4890960D02*
X4512920Y-4900484D01*
X4512920Y-4900484D02*
X4474825Y-4900484D01*
X4474825Y-4900484D02*
X4455777Y-4890960D01*
X4455777Y-4890960D02*
X4446253Y-4871912D01*
X4446253Y-4871912D02*
X4446253Y-4795722D01*
X4446253Y-4795722D02*
X4455777Y-4776674D01*
X4455777Y-4776674D02*
X4474825Y-4767150D01*
X4474825Y-4767150D02*
X4512920Y-4767150D01*
X4512920Y-4767150D02*
X4531968Y-4776674D01*
X4531968Y-4776674D02*
X4541492Y-4795722D01*
X4541492Y-4795722D02*
X4541492Y-4814770D01*
X4541492Y-4814770D02*
X4446253Y-4833817D01*
X4617682Y-4890960D02*
X4636730Y-4900484D01*
X4636730Y-4900484D02*
X4674825Y-4900484D01*
X4674825Y-4900484D02*
X4693873Y-4890960D01*
X4693873Y-4890960D02*
X4703396Y-4871912D01*
X4703396Y-4871912D02*
X4703396Y-4862389D01*
X4703396Y-4862389D02*
X4693873Y-4843341D01*
X4693873Y-4843341D02*
X4674825Y-4833817D01*
X4674825Y-4833817D02*
X4646253Y-4833817D01*
X4646253Y-4833817D02*
X4627206Y-4824293D01*
X4627206Y-4824293D02*
X4617682Y-4805246D01*
X4617682Y-4805246D02*
X4617682Y-4795722D01*
X4617682Y-4795722D02*
X4627206Y-4776674D01*
X4627206Y-4776674D02*
X4646253Y-4767150D01*
X4646253Y-4767150D02*
X4674825Y-4767150D01*
X4674825Y-4767150D02*
X4693873Y-4776674D01*
X4770063Y-4976674D02*
X4779587Y-4967150D01*
X4779587Y-4967150D02*
X4798634Y-4938579D01*
X4798634Y-4938579D02*
X4808158Y-4919531D01*
X4808158Y-4919531D02*
X4817682Y-4890960D01*
X4817682Y-4890960D02*
X4827206Y-4843341D01*
X4827206Y-4843341D02*
X4827206Y-4805246D01*
X4827206Y-4805246D02*
X4817682Y-4757627D01*
X4817682Y-4757627D02*
X4808158Y-4729055D01*
X4808158Y-4729055D02*
X4798634Y-4710008D01*
X4798634Y-4710008D02*
X4779587Y-4681436D01*
X4779587Y-4681436D02*
X4770063Y-4671912D01*
X5131968Y-4976674D02*
X5122444Y-4967150D01*
X5122444Y-4967150D02*
X5103396Y-4938579D01*
X5103396Y-4938579D02*
X5093873Y-4919531D01*
X5093873Y-4919531D02*
X5084349Y-4890960D01*
X5084349Y-4890960D02*
X5074825Y-4843341D01*
X5074825Y-4843341D02*
X5074825Y-4805246D01*
X5074825Y-4805246D02*
X5084349Y-4757627D01*
X5084349Y-4757627D02*
X5093873Y-4729055D01*
X5093873Y-4729055D02*
X5103396Y-4710008D01*
X5103396Y-4710008D02*
X5122444Y-4681436D01*
X5122444Y-4681436D02*
X5131968Y-4671912D01*
X5208158Y-4767150D02*
X5208158Y-4900484D01*
X5208158Y-4786198D02*
X5217682Y-4776674D01*
X5217682Y-4776674D02*
X5236730Y-4767150D01*
X5236730Y-4767150D02*
X5265301Y-4767150D01*
X5265301Y-4767150D02*
X5284349Y-4776674D01*
X5284349Y-4776674D02*
X5293873Y-4795722D01*
X5293873Y-4795722D02*
X5293873Y-4900484D01*
X5417682Y-4900484D02*
X5398634Y-4890960D01*
X5398634Y-4890960D02*
X5389111Y-4881436D01*
X5389111Y-4881436D02*
X5379587Y-4862389D01*
X5379587Y-4862389D02*
X5379587Y-4805246D01*
X5379587Y-4805246D02*
X5389111Y-4786198D01*
X5389111Y-4786198D02*
X5398634Y-4776674D01*
X5398634Y-4776674D02*
X5417682Y-4767150D01*
X5417682Y-4767150D02*
X5446254Y-4767150D01*
X5446254Y-4767150D02*
X5465301Y-4776674D01*
X5465301Y-4776674D02*
X5474825Y-4786198D01*
X5474825Y-4786198D02*
X5484349Y-4805246D01*
X5484349Y-4805246D02*
X5484349Y-4862389D01*
X5484349Y-4862389D02*
X5474825Y-4881436D01*
X5474825Y-4881436D02*
X5465301Y-4890960D01*
X5465301Y-4890960D02*
X5446254Y-4900484D01*
X5446254Y-4900484D02*
X5417682Y-4900484D01*
X5541492Y-4767150D02*
X5617682Y-4767150D01*
X5570063Y-4700484D02*
X5570063Y-4871912D01*
X5570063Y-4871912D02*
X5579587Y-4890960D01*
X5579587Y-4890960D02*
X5598634Y-4900484D01*
X5598634Y-4900484D02*
X5617682Y-4900484D01*
X5836730Y-4767150D02*
X5836730Y-4967150D01*
X5836730Y-4776674D02*
X5855777Y-4767150D01*
X5855777Y-4767150D02*
X5893873Y-4767150D01*
X5893873Y-4767150D02*
X5912920Y-4776674D01*
X5912920Y-4776674D02*
X5922444Y-4786198D01*
X5922444Y-4786198D02*
X5931968Y-4805246D01*
X5931968Y-4805246D02*
X5931968Y-4862389D01*
X5931968Y-4862389D02*
X5922444Y-4881436D01*
X5922444Y-4881436D02*
X5912920Y-4890960D01*
X5912920Y-4890960D02*
X5893873Y-4900484D01*
X5893873Y-4900484D02*
X5855777Y-4900484D01*
X5855777Y-4900484D02*
X5836730Y-4890960D01*
X6046253Y-4900484D02*
X6027206Y-4890960D01*
X6027206Y-4890960D02*
X6017682Y-4871912D01*
X6017682Y-4871912D02*
X6017682Y-4700484D01*
X6208158Y-4900484D02*
X6208158Y-4795722D01*
X6208158Y-4795722D02*
X6198634Y-4776674D01*
X6198634Y-4776674D02*
X6179587Y-4767150D01*
X6179587Y-4767150D02*
X6141492Y-4767150D01*
X6141492Y-4767150D02*
X6122444Y-4776674D01*
X6208158Y-4890960D02*
X6189111Y-4900484D01*
X6189111Y-4900484D02*
X6141492Y-4900484D01*
X6141492Y-4900484D02*
X6122444Y-4890960D01*
X6122444Y-4890960D02*
X6112920Y-4871912D01*
X6112920Y-4871912D02*
X6112920Y-4852865D01*
X6112920Y-4852865D02*
X6122444Y-4833817D01*
X6122444Y-4833817D02*
X6141492Y-4824293D01*
X6141492Y-4824293D02*
X6189111Y-4824293D01*
X6189111Y-4824293D02*
X6208158Y-4814770D01*
X6274825Y-4767150D02*
X6351015Y-4767150D01*
X6303396Y-4700484D02*
X6303396Y-4871912D01*
X6303396Y-4871912D02*
X6312920Y-4890960D01*
X6312920Y-4890960D02*
X6331968Y-4900484D01*
X6331968Y-4900484D02*
X6351015Y-4900484D01*
X6493873Y-4890960D02*
X6474825Y-4900484D01*
X6474825Y-4900484D02*
X6436730Y-4900484D01*
X6436730Y-4900484D02*
X6417682Y-4890960D01*
X6417682Y-4890960D02*
X6408158Y-4871912D01*
X6408158Y-4871912D02*
X6408158Y-4795722D01*
X6408158Y-4795722D02*
X6417682Y-4776674D01*
X6417682Y-4776674D02*
X6436730Y-4767150D01*
X6436730Y-4767150D02*
X6474825Y-4767150D01*
X6474825Y-4767150D02*
X6493873Y-4776674D01*
X6493873Y-4776674D02*
X6503396Y-4795722D01*
X6503396Y-4795722D02*
X6503396Y-4814770D01*
X6503396Y-4814770D02*
X6408158Y-4833817D01*
X6674825Y-4900484D02*
X6674825Y-4700484D01*
X6674825Y-4890960D02*
X6655777Y-4900484D01*
X6655777Y-4900484D02*
X6617682Y-4900484D01*
X6617682Y-4900484D02*
X6598634Y-4890960D01*
X6598634Y-4890960D02*
X6589111Y-4881436D01*
X6589111Y-4881436D02*
X6579587Y-4862389D01*
X6579587Y-4862389D02*
X6579587Y-4805246D01*
X6579587Y-4805246D02*
X6589111Y-4786198D01*
X6589111Y-4786198D02*
X6598634Y-4776674D01*
X6598634Y-4776674D02*
X6617682Y-4767150D01*
X6617682Y-4767150D02*
X6655777Y-4767150D01*
X6655777Y-4767150D02*
X6674825Y-4776674D01*
X6751015Y-4976674D02*
X6760539Y-4967150D01*
X6760539Y-4967150D02*
X6779587Y-4938579D01*
X6779587Y-4938579D02*
X6789111Y-4919531D01*
X6789111Y-4919531D02*
X6798634Y-4890960D01*
X6798634Y-4890960D02*
X6808158Y-4843341D01*
X6808158Y-4843341D02*
X6808158Y-4805246D01*
X6808158Y-4805246D02*
X6798634Y-4757627D01*
X6798634Y-4757627D02*
X6789111Y-4729055D01*
X6789111Y-4729055D02*
X6779587Y-4710008D01*
X6779587Y-4710008D02*
X6760539Y-4681436D01*
X6760539Y-4681436D02*
X6751015Y-4671912D01*
X-205000Y-5029000D02*
X-5000Y-5229000D01*
X-5000Y-5029000D02*
X-205000Y-5229000D01*
X-105000Y-5229000D02*
X-5000Y-5129000D01*
X-105000Y-5029000D01*
X-205000Y-5129000D01*
X-105000Y-5229000D01*
X236729Y-5020484D02*
X360539Y-5020484D01*
X360539Y-5020484D02*
X293872Y-5096674D01*
X293872Y-5096674D02*
X322444Y-5096674D01*
X322444Y-5096674D02*
X341491Y-5106198D01*
X341491Y-5106198D02*
X351015Y-5115722D01*
X351015Y-5115722D02*
X360539Y-5134770D01*
X360539Y-5134770D02*
X360539Y-5182389D01*
X360539Y-5182389D02*
X351015Y-5201436D01*
X351015Y-5201436D02*
X341491Y-5210960D01*
X341491Y-5210960D02*
X322444Y-5220484D01*
X322444Y-5220484D02*
X265301Y-5220484D01*
X265301Y-5220484D02*
X246253Y-5210960D01*
X246253Y-5210960D02*
X236729Y-5201436D01*
X446253Y-5201436D02*
X455777Y-5210960D01*
X455777Y-5210960D02*
X446253Y-5220484D01*
X446253Y-5220484D02*
X436729Y-5210960D01*
X436729Y-5210960D02*
X446253Y-5201436D01*
X446253Y-5201436D02*
X446253Y-5220484D01*
X531967Y-5039531D02*
X541491Y-5030008D01*
X541491Y-5030008D02*
X560539Y-5020484D01*
X560539Y-5020484D02*
X608158Y-5020484D01*
X608158Y-5020484D02*
X627205Y-5030008D01*
X627205Y-5030008D02*
X636729Y-5039531D01*
X636729Y-5039531D02*
X646253Y-5058579D01*
X646253Y-5058579D02*
X646253Y-5077627D01*
X646253Y-5077627D02*
X636729Y-5106198D01*
X636729Y-5106198D02*
X522443Y-5220484D01*
X522443Y-5220484D02*
X646253Y-5220484D01*
X827205Y-5020484D02*
X731967Y-5020484D01*
X731967Y-5020484D02*
X722443Y-5115722D01*
X722443Y-5115722D02*
X731967Y-5106198D01*
X731967Y-5106198D02*
X751015Y-5096674D01*
X751015Y-5096674D02*
X798634Y-5096674D01*
X798634Y-5096674D02*
X817682Y-5106198D01*
X817682Y-5106198D02*
X827205Y-5115722D01*
X827205Y-5115722D02*
X836729Y-5134770D01*
X836729Y-5134770D02*
X836729Y-5182389D01*
X836729Y-5182389D02*
X827205Y-5201436D01*
X827205Y-5201436D02*
X817682Y-5210960D01*
X817682Y-5210960D02*
X798634Y-5220484D01*
X798634Y-5220484D02*
X751015Y-5220484D01*
X751015Y-5220484D02*
X731967Y-5210960D01*
X731967Y-5210960D02*
X722443Y-5201436D01*
X960539Y-5020484D02*
X979586Y-5020484D01*
X979586Y-5020484D02*
X998634Y-5030008D01*
X998634Y-5030008D02*
X1008158Y-5039531D01*
X1008158Y-5039531D02*
X1017682Y-5058579D01*
X1017682Y-5058579D02*
X1027205Y-5096674D01*
X1027205Y-5096674D02*
X1027205Y-5144293D01*
X1027205Y-5144293D02*
X1017682Y-5182389D01*
X1017682Y-5182389D02*
X1008158Y-5201436D01*
X1008158Y-5201436D02*
X998634Y-5210960D01*
X998634Y-5210960D02*
X979586Y-5220484D01*
X979586Y-5220484D02*
X960539Y-5220484D01*
X960539Y-5220484D02*
X941491Y-5210960D01*
X941491Y-5210960D02*
X931967Y-5201436D01*
X931967Y-5201436D02*
X922443Y-5182389D01*
X922443Y-5182389D02*
X912920Y-5144293D01*
X912920Y-5144293D02*
X912920Y-5096674D01*
X912920Y-5096674D02*
X922443Y-5058579D01*
X922443Y-5058579D02*
X931967Y-5039531D01*
X931967Y-5039531D02*
X941491Y-5030008D01*
X941491Y-5030008D02*
X960539Y-5020484D01*
X1112920Y-5220484D02*
X1112920Y-5087150D01*
X1112920Y-5106198D02*
X1122444Y-5096674D01*
X1122444Y-5096674D02*
X1141491Y-5087150D01*
X1141491Y-5087150D02*
X1170063Y-5087150D01*
X1170063Y-5087150D02*
X1189110Y-5096674D01*
X1189110Y-5096674D02*
X1198634Y-5115722D01*
X1198634Y-5115722D02*
X1198634Y-5220484D01*
X1198634Y-5115722D02*
X1208158Y-5096674D01*
X1208158Y-5096674D02*
X1227205Y-5087150D01*
X1227205Y-5087150D02*
X1255777Y-5087150D01*
X1255777Y-5087150D02*
X1274825Y-5096674D01*
X1274825Y-5096674D02*
X1284348Y-5115722D01*
X1284348Y-5115722D02*
X1284348Y-5220484D01*
X1379586Y-5220484D02*
X1379586Y-5087150D01*
X1379586Y-5106198D02*
X1389110Y-5096674D01*
X1389110Y-5096674D02*
X1408158Y-5087150D01*
X1408158Y-5087150D02*
X1436729Y-5087150D01*
X1436729Y-5087150D02*
X1455777Y-5096674D01*
X1455777Y-5096674D02*
X1465301Y-5115722D01*
X1465301Y-5115722D02*
X1465301Y-5220484D01*
X1465301Y-5115722D02*
X1474824Y-5096674D01*
X1474824Y-5096674D02*
X1493872Y-5087150D01*
X1493872Y-5087150D02*
X1522443Y-5087150D01*
X1522443Y-5087150D02*
X1541491Y-5096674D01*
X1541491Y-5096674D02*
X1551015Y-5115722D01*
X1551015Y-5115722D02*
X1551015Y-5220484D01*
X1941491Y-5010960D02*
X1770063Y-5268103D01*
X2198634Y-5020484D02*
X2217682Y-5020484D01*
X2217682Y-5020484D02*
X2236729Y-5030008D01*
X2236729Y-5030008D02*
X2246253Y-5039531D01*
X2246253Y-5039531D02*
X2255777Y-5058579D01*
X2255777Y-5058579D02*
X2265301Y-5096674D01*
X2265301Y-5096674D02*
X2265301Y-5144293D01*
X2265301Y-5144293D02*
X2255777Y-5182389D01*
X2255777Y-5182389D02*
X2246253Y-5201436D01*
X2246253Y-5201436D02*
X2236729Y-5210960D01*
X2236729Y-5210960D02*
X2217682Y-5220484D01*
X2217682Y-5220484D02*
X2198634Y-5220484D01*
X2198634Y-5220484D02*
X2179587Y-5210960D01*
X2179587Y-5210960D02*
X2170063Y-5201436D01*
X2170063Y-5201436D02*
X2160539Y-5182389D01*
X2160539Y-5182389D02*
X2151015Y-5144293D01*
X2151015Y-5144293D02*
X2151015Y-5096674D01*
X2151015Y-5096674D02*
X2160539Y-5058579D01*
X2160539Y-5058579D02*
X2170063Y-5039531D01*
X2170063Y-5039531D02*
X2179587Y-5030008D01*
X2179587Y-5030008D02*
X2198634Y-5020484D01*
X2351015Y-5201436D02*
X2360539Y-5210960D01*
X2360539Y-5210960D02*
X2351015Y-5220484D01*
X2351015Y-5220484D02*
X2341491Y-5210960D01*
X2341491Y-5210960D02*
X2351015Y-5201436D01*
X2351015Y-5201436D02*
X2351015Y-5220484D01*
X2551015Y-5220484D02*
X2436729Y-5220484D01*
X2493872Y-5220484D02*
X2493872Y-5020484D01*
X2493872Y-5020484D02*
X2474825Y-5049055D01*
X2474825Y-5049055D02*
X2455777Y-5068103D01*
X2455777Y-5068103D02*
X2436729Y-5077627D01*
X2627206Y-5039531D02*
X2636729Y-5030008D01*
X2636729Y-5030008D02*
X2655777Y-5020484D01*
X2655777Y-5020484D02*
X2703396Y-5020484D01*
X2703396Y-5020484D02*
X2722444Y-5030008D01*
X2722444Y-5030008D02*
X2731968Y-5039531D01*
X2731968Y-5039531D02*
X2741491Y-5058579D01*
X2741491Y-5058579D02*
X2741491Y-5077627D01*
X2741491Y-5077627D02*
X2731968Y-5106198D01*
X2731968Y-5106198D02*
X2617682Y-5220484D01*
X2617682Y-5220484D02*
X2741491Y-5220484D01*
X2855777Y-5106198D02*
X2836729Y-5096674D01*
X2836729Y-5096674D02*
X2827206Y-5087150D01*
X2827206Y-5087150D02*
X2817682Y-5068103D01*
X2817682Y-5068103D02*
X2817682Y-5058579D01*
X2817682Y-5058579D02*
X2827206Y-5039531D01*
X2827206Y-5039531D02*
X2836729Y-5030008D01*
X2836729Y-5030008D02*
X2855777Y-5020484D01*
X2855777Y-5020484D02*
X2893872Y-5020484D01*
X2893872Y-5020484D02*
X2912920Y-5030008D01*
X2912920Y-5030008D02*
X2922444Y-5039531D01*
X2922444Y-5039531D02*
X2931967Y-5058579D01*
X2931967Y-5058579D02*
X2931967Y-5068103D01*
X2931967Y-5068103D02*
X2922444Y-5087150D01*
X2922444Y-5087150D02*
X2912920Y-5096674D01*
X2912920Y-5096674D02*
X2893872Y-5106198D01*
X2893872Y-5106198D02*
X2855777Y-5106198D01*
X2855777Y-5106198D02*
X2836729Y-5115722D01*
X2836729Y-5115722D02*
X2827206Y-5125246D01*
X2827206Y-5125246D02*
X2817682Y-5144293D01*
X2817682Y-5144293D02*
X2817682Y-5182389D01*
X2817682Y-5182389D02*
X2827206Y-5201436D01*
X2827206Y-5201436D02*
X2836729Y-5210960D01*
X2836729Y-5210960D02*
X2855777Y-5220484D01*
X2855777Y-5220484D02*
X2893872Y-5220484D01*
X2893872Y-5220484D02*
X2912920Y-5210960D01*
X2912920Y-5210960D02*
X2922444Y-5201436D01*
X2922444Y-5201436D02*
X2931967Y-5182389D01*
X2931967Y-5182389D02*
X2931967Y-5144293D01*
X2931967Y-5144293D02*
X2922444Y-5125246D01*
X2922444Y-5125246D02*
X2912920Y-5115722D01*
X2912920Y-5115722D02*
X2893872Y-5106198D01*
X3055777Y-5020484D02*
X3074825Y-5020484D01*
X3074825Y-5020484D02*
X3093872Y-5030008D01*
X3093872Y-5030008D02*
X3103396Y-5039531D01*
X3103396Y-5039531D02*
X3112920Y-5058579D01*
X3112920Y-5058579D02*
X3122444Y-5096674D01*
X3122444Y-5096674D02*
X3122444Y-5144293D01*
X3122444Y-5144293D02*
X3112920Y-5182389D01*
X3112920Y-5182389D02*
X3103396Y-5201436D01*
X3103396Y-5201436D02*
X3093872Y-5210960D01*
X3093872Y-5210960D02*
X3074825Y-5220484D01*
X3074825Y-5220484D02*
X3055777Y-5220484D01*
X3055777Y-5220484D02*
X3036729Y-5210960D01*
X3036729Y-5210960D02*
X3027206Y-5201436D01*
X3027206Y-5201436D02*
X3017682Y-5182389D01*
X3017682Y-5182389D02*
X3008158Y-5144293D01*
X3008158Y-5144293D02*
X3008158Y-5096674D01*
X3008158Y-5096674D02*
X3017682Y-5058579D01*
X3017682Y-5058579D02*
X3027206Y-5039531D01*
X3027206Y-5039531D02*
X3036729Y-5030008D01*
X3036729Y-5030008D02*
X3055777Y-5020484D01*
X3198634Y-5020484D02*
X3198634Y-5058579D01*
X3274825Y-5020484D02*
X3274825Y-5058579D01*
X3570063Y-5296674D02*
X3560539Y-5287150D01*
X3560539Y-5287150D02*
X3541491Y-5258579D01*
X3541491Y-5258579D02*
X3531968Y-5239531D01*
X3531968Y-5239531D02*
X3522444Y-5210960D01*
X3522444Y-5210960D02*
X3512920Y-5163341D01*
X3512920Y-5163341D02*
X3512920Y-5125246D01*
X3512920Y-5125246D02*
X3522444Y-5077627D01*
X3522444Y-5077627D02*
X3531968Y-5049055D01*
X3531968Y-5049055D02*
X3541491Y-5030008D01*
X3541491Y-5030008D02*
X3560539Y-5001436D01*
X3560539Y-5001436D02*
X3570063Y-4991912D01*
X3636729Y-5039531D02*
X3646253Y-5030008D01*
X3646253Y-5030008D02*
X3665301Y-5020484D01*
X3665301Y-5020484D02*
X3712920Y-5020484D01*
X3712920Y-5020484D02*
X3731968Y-5030008D01*
X3731968Y-5030008D02*
X3741491Y-5039531D01*
X3741491Y-5039531D02*
X3751015Y-5058579D01*
X3751015Y-5058579D02*
X3751015Y-5077627D01*
X3751015Y-5077627D02*
X3741491Y-5106198D01*
X3741491Y-5106198D02*
X3627206Y-5220484D01*
X3627206Y-5220484D02*
X3751015Y-5220484D01*
X3989110Y-5220484D02*
X3989110Y-5020484D01*
X4074825Y-5220484D02*
X4074825Y-5115722D01*
X4074825Y-5115722D02*
X4065301Y-5096674D01*
X4065301Y-5096674D02*
X4046253Y-5087150D01*
X4046253Y-5087150D02*
X4017682Y-5087150D01*
X4017682Y-5087150D02*
X3998634Y-5096674D01*
X3998634Y-5096674D02*
X3989110Y-5106198D01*
X4198634Y-5220484D02*
X4179587Y-5210960D01*
X4179587Y-5210960D02*
X4170063Y-5201436D01*
X4170063Y-5201436D02*
X4160539Y-5182389D01*
X4160539Y-5182389D02*
X4160539Y-5125246D01*
X4160539Y-5125246D02*
X4170063Y-5106198D01*
X4170063Y-5106198D02*
X4179587Y-5096674D01*
X4179587Y-5096674D02*
X4198634Y-5087150D01*
X4198634Y-5087150D02*
X4227206Y-5087150D01*
X4227206Y-5087150D02*
X4246253Y-5096674D01*
X4246253Y-5096674D02*
X4255777Y-5106198D01*
X4255777Y-5106198D02*
X4265301Y-5125246D01*
X4265301Y-5125246D02*
X4265301Y-5182389D01*
X4265301Y-5182389D02*
X4255777Y-5201436D01*
X4255777Y-5201436D02*
X4246253Y-5210960D01*
X4246253Y-5210960D02*
X4227206Y-5220484D01*
X4227206Y-5220484D02*
X4198634Y-5220484D01*
X4379587Y-5220484D02*
X4360539Y-5210960D01*
X4360539Y-5210960D02*
X4351015Y-5191912D01*
X4351015Y-5191912D02*
X4351015Y-5020484D01*
X4531968Y-5210960D02*
X4512920Y-5220484D01*
X4512920Y-5220484D02*
X4474825Y-5220484D01*
X4474825Y-5220484D02*
X4455777Y-5210960D01*
X4455777Y-5210960D02*
X4446253Y-5191912D01*
X4446253Y-5191912D02*
X4446253Y-5115722D01*
X4446253Y-5115722D02*
X4455777Y-5096674D01*
X4455777Y-5096674D02*
X4474825Y-5087150D01*
X4474825Y-5087150D02*
X4512920Y-5087150D01*
X4512920Y-5087150D02*
X4531968Y-5096674D01*
X4531968Y-5096674D02*
X4541492Y-5115722D01*
X4541492Y-5115722D02*
X4541492Y-5134770D01*
X4541492Y-5134770D02*
X4446253Y-5153817D01*
X4617682Y-5210960D02*
X4636730Y-5220484D01*
X4636730Y-5220484D02*
X4674825Y-5220484D01*
X4674825Y-5220484D02*
X4693873Y-5210960D01*
X4693873Y-5210960D02*
X4703396Y-5191912D01*
X4703396Y-5191912D02*
X4703396Y-5182389D01*
X4703396Y-5182389D02*
X4693873Y-5163341D01*
X4693873Y-5163341D02*
X4674825Y-5153817D01*
X4674825Y-5153817D02*
X4646253Y-5153817D01*
X4646253Y-5153817D02*
X4627206Y-5144293D01*
X4627206Y-5144293D02*
X4617682Y-5125246D01*
X4617682Y-5125246D02*
X4617682Y-5115722D01*
X4617682Y-5115722D02*
X4627206Y-5096674D01*
X4627206Y-5096674D02*
X4646253Y-5087150D01*
X4646253Y-5087150D02*
X4674825Y-5087150D01*
X4674825Y-5087150D02*
X4693873Y-5096674D01*
X4770063Y-5296674D02*
X4779587Y-5287150D01*
X4779587Y-5287150D02*
X4798634Y-5258579D01*
X4798634Y-5258579D02*
X4808158Y-5239531D01*
X4808158Y-5239531D02*
X4817682Y-5210960D01*
X4817682Y-5210960D02*
X4827206Y-5163341D01*
X4827206Y-5163341D02*
X4827206Y-5125246D01*
X4827206Y-5125246D02*
X4817682Y-5077627D01*
X4817682Y-5077627D02*
X4808158Y-5049055D01*
X4808158Y-5049055D02*
X4798634Y-5030008D01*
X4798634Y-5030008D02*
X4779587Y-5001436D01*
X4779587Y-5001436D02*
X4770063Y-4991912D01*
X5131968Y-5296674D02*
X5122444Y-5287150D01*
X5122444Y-5287150D02*
X5103396Y-5258579D01*
X5103396Y-5258579D02*
X5093873Y-5239531D01*
X5093873Y-5239531D02*
X5084349Y-5210960D01*
X5084349Y-5210960D02*
X5074825Y-5163341D01*
X5074825Y-5163341D02*
X5074825Y-5125246D01*
X5074825Y-5125246D02*
X5084349Y-5077627D01*
X5084349Y-5077627D02*
X5093873Y-5049055D01*
X5093873Y-5049055D02*
X5103396Y-5030008D01*
X5103396Y-5030008D02*
X5122444Y-5001436D01*
X5122444Y-5001436D02*
X5131968Y-4991912D01*
X5208158Y-5087150D02*
X5208158Y-5220484D01*
X5208158Y-5106198D02*
X5217682Y-5096674D01*
X5217682Y-5096674D02*
X5236730Y-5087150D01*
X5236730Y-5087150D02*
X5265301Y-5087150D01*
X5265301Y-5087150D02*
X5284349Y-5096674D01*
X5284349Y-5096674D02*
X5293873Y-5115722D01*
X5293873Y-5115722D02*
X5293873Y-5220484D01*
X5417682Y-5220484D02*
X5398634Y-5210960D01*
X5398634Y-5210960D02*
X5389111Y-5201436D01*
X5389111Y-5201436D02*
X5379587Y-5182389D01*
X5379587Y-5182389D02*
X5379587Y-5125246D01*
X5379587Y-5125246D02*
X5389111Y-5106198D01*
X5389111Y-5106198D02*
X5398634Y-5096674D01*
X5398634Y-5096674D02*
X5417682Y-5087150D01*
X5417682Y-5087150D02*
X5446254Y-5087150D01*
X5446254Y-5087150D02*
X5465301Y-5096674D01*
X5465301Y-5096674D02*
X5474825Y-5106198D01*
X5474825Y-5106198D02*
X5484349Y-5125246D01*
X5484349Y-5125246D02*
X5484349Y-5182389D01*
X5484349Y-5182389D02*
X5474825Y-5201436D01*
X5474825Y-5201436D02*
X5465301Y-5210960D01*
X5465301Y-5210960D02*
X5446254Y-5220484D01*
X5446254Y-5220484D02*
X5417682Y-5220484D01*
X5541492Y-5087150D02*
X5617682Y-5087150D01*
X5570063Y-5020484D02*
X5570063Y-5191912D01*
X5570063Y-5191912D02*
X5579587Y-5210960D01*
X5579587Y-5210960D02*
X5598634Y-5220484D01*
X5598634Y-5220484D02*
X5617682Y-5220484D01*
X5836730Y-5087150D02*
X5836730Y-5287150D01*
X5836730Y-5096674D02*
X5855777Y-5087150D01*
X5855777Y-5087150D02*
X5893873Y-5087150D01*
X5893873Y-5087150D02*
X5912920Y-5096674D01*
X5912920Y-5096674D02*
X5922444Y-5106198D01*
X5922444Y-5106198D02*
X5931968Y-5125246D01*
X5931968Y-5125246D02*
X5931968Y-5182389D01*
X5931968Y-5182389D02*
X5922444Y-5201436D01*
X5922444Y-5201436D02*
X5912920Y-5210960D01*
X5912920Y-5210960D02*
X5893873Y-5220484D01*
X5893873Y-5220484D02*
X5855777Y-5220484D01*
X5855777Y-5220484D02*
X5836730Y-5210960D01*
X6046253Y-5220484D02*
X6027206Y-5210960D01*
X6027206Y-5210960D02*
X6017682Y-5191912D01*
X6017682Y-5191912D02*
X6017682Y-5020484D01*
X6208158Y-5220484D02*
X6208158Y-5115722D01*
X6208158Y-5115722D02*
X6198634Y-5096674D01*
X6198634Y-5096674D02*
X6179587Y-5087150D01*
X6179587Y-5087150D02*
X6141492Y-5087150D01*
X6141492Y-5087150D02*
X6122444Y-5096674D01*
X6208158Y-5210960D02*
X6189111Y-5220484D01*
X6189111Y-5220484D02*
X6141492Y-5220484D01*
X6141492Y-5220484D02*
X6122444Y-5210960D01*
X6122444Y-5210960D02*
X6112920Y-5191912D01*
X6112920Y-5191912D02*
X6112920Y-5172865D01*
X6112920Y-5172865D02*
X6122444Y-5153817D01*
X6122444Y-5153817D02*
X6141492Y-5144293D01*
X6141492Y-5144293D02*
X6189111Y-5144293D01*
X6189111Y-5144293D02*
X6208158Y-5134770D01*
X6274825Y-5087150D02*
X6351015Y-5087150D01*
X6303396Y-5020484D02*
X6303396Y-5191912D01*
X6303396Y-5191912D02*
X6312920Y-5210960D01*
X6312920Y-5210960D02*
X6331968Y-5220484D01*
X6331968Y-5220484D02*
X6351015Y-5220484D01*
X6493873Y-5210960D02*
X6474825Y-5220484D01*
X6474825Y-5220484D02*
X6436730Y-5220484D01*
X6436730Y-5220484D02*
X6417682Y-5210960D01*
X6417682Y-5210960D02*
X6408158Y-5191912D01*
X6408158Y-5191912D02*
X6408158Y-5115722D01*
X6408158Y-5115722D02*
X6417682Y-5096674D01*
X6417682Y-5096674D02*
X6436730Y-5087150D01*
X6436730Y-5087150D02*
X6474825Y-5087150D01*
X6474825Y-5087150D02*
X6493873Y-5096674D01*
X6493873Y-5096674D02*
X6503396Y-5115722D01*
X6503396Y-5115722D02*
X6503396Y-5134770D01*
X6503396Y-5134770D02*
X6408158Y-5153817D01*
X6674825Y-5220484D02*
X6674825Y-5020484D01*
X6674825Y-5210960D02*
X6655777Y-5220484D01*
X6655777Y-5220484D02*
X6617682Y-5220484D01*
X6617682Y-5220484D02*
X6598634Y-5210960D01*
X6598634Y-5210960D02*
X6589111Y-5201436D01*
X6589111Y-5201436D02*
X6579587Y-5182389D01*
X6579587Y-5182389D02*
X6579587Y-5125246D01*
X6579587Y-5125246D02*
X6589111Y-5106198D01*
X6589111Y-5106198D02*
X6598634Y-5096674D01*
X6598634Y-5096674D02*
X6617682Y-5087150D01*
X6617682Y-5087150D02*
X6655777Y-5087150D01*
X6655777Y-5087150D02*
X6674825Y-5096674D01*
X6751015Y-5296674D02*
X6760539Y-5287150D01*
X6760539Y-5287150D02*
X6779587Y-5258579D01*
X6779587Y-5258579D02*
X6789111Y-5239531D01*
X6789111Y-5239531D02*
X6798634Y-5210960D01*
X6798634Y-5210960D02*
X6808158Y-5163341D01*
X6808158Y-5163341D02*
X6808158Y-5125246D01*
X6808158Y-5125246D02*
X6798634Y-5077627D01*
X6798634Y-5077627D02*
X6789111Y-5049055D01*
X6789111Y-5049055D02*
X6779587Y-5030008D01*
X6779587Y-5030008D02*
X6760539Y-5001436D01*
X6760539Y-5001436D02*
X6751015Y-4991912D01*
M02*
