G04 #@! TF.GenerationSoftware,KiCad,Pcbnew,8.0.2-1*
G04 #@! TF.CreationDate,2024-06-26T09:27:30-04:00*
G04 #@! TF.ProjectId,MiniCamel,4d696e69-4361-46d6-956c-2e6b69636164,2.1*
G04 #@! TF.SameCoordinates,PX16e3600PY6052340*
G04 #@! TF.FileFunction,Legend,Bot*
G04 #@! TF.FilePolarity,Positive*
%FSLAX46Y46*%
G04 Gerber Fmt 4.6, Leading zero omitted, Abs format (unit mm)*
G04 Created by KiCad (PCBNEW 8.0.2-1) date 2024-06-26 09:27:30*
%MOMM*%
%LPD*%
G01*
G04 APERTURE LIST*
G04 Aperture macros list*
%AMRoundRect*
0 Rectangle with rounded corners*
0 $1 Rounding radius*
0 $2 $3 $4 $5 $6 $7 $8 $9 X,Y pos of 4 corners*
0 Add a 4 corners polygon primitive as box body*
4,1,4,$2,$3,$4,$5,$6,$7,$8,$9,$2,$3,0*
0 Add four circle primitives for the rounded corners*
1,1,$1+$1,$2,$3*
1,1,$1+$1,$4,$5*
1,1,$1+$1,$6,$7*
1,1,$1+$1,$8,$9*
0 Add four rect primitives between the rounded corners*
20,1,$1+$1,$2,$3,$4,$5,0*
20,1,$1+$1,$4,$5,$6,$7,0*
20,1,$1+$1,$6,$7,$8,$9,0*
20,1,$1+$1,$8,$9,$2,$3,0*%
G04 Aperture macros list end*
%ADD10C,0.203200*%
%ADD11C,0.150000*%
%ADD12C,0.120000*%
%ADD13C,0.254000*%
%ADD14C,0.310000*%
%ADD15C,0.000000*%
%ADD16C,1.500000*%
%ADD17C,3.000000*%
%ADD18R,1.397000X1.397000*%
%ADD19C,1.397000*%
%ADD20C,4.064000*%
%ADD21C,3.250000*%
%ADD22RoundRect,0.102000X-0.704000X-0.704000X0.704000X-0.704000X0.704000X0.704000X-0.704000X0.704000X0*%
%ADD23C,1.612000*%
%ADD24C,1.734000*%
%ADD25C,2.604000*%
%ADD26C,1.600000*%
%ADD27C,5.000000*%
%ADD28R,1.070000X1.800000*%
%ADD29O,1.070000X1.800000*%
%ADD30C,0.600000*%
%ADD31O,0.900000X2.000000*%
%ADD32O,0.900000X1.700000*%
%ADD33C,1.300000*%
%ADD34C,1.700000*%
%ADD35R,1.600000X1.600000*%
%ADD36O,1.600000X1.600000*%
%ADD37R,1.530000X1.530000*%
%ADD38C,1.550000*%
%ADD39C,0.800000*%
%ADD40C,1.000000*%
%ADD41RoundRect,0.218750X-0.256250X0.218750X-0.256250X-0.218750X0.256250X-0.218750X0.256250X0.218750X0*%
%ADD42RoundRect,0.160000X-0.160000X0.197500X-0.160000X-0.197500X0.160000X-0.197500X0.160000X0.197500X0*%
%ADD43RoundRect,0.160000X0.197500X0.160000X-0.197500X0.160000X-0.197500X-0.160000X0.197500X-0.160000X0*%
%ADD44RoundRect,0.155000X-0.212500X-0.155000X0.212500X-0.155000X0.212500X0.155000X-0.212500X0.155000X0*%
%ADD45RoundRect,0.160000X0.160000X-0.197500X0.160000X0.197500X-0.160000X0.197500X-0.160000X-0.197500X0*%
%ADD46RoundRect,0.237500X0.300000X0.237500X-0.300000X0.237500X-0.300000X-0.237500X0.300000X-0.237500X0*%
%ADD47R,1.000000X2.510000*%
%ADD48RoundRect,0.155000X0.212500X0.155000X-0.212500X0.155000X-0.212500X-0.155000X0.212500X-0.155000X0*%
%ADD49RoundRect,0.155000X-0.155000X0.212500X-0.155000X-0.212500X0.155000X-0.212500X0.155000X0.212500X0*%
%ADD50R,1.600000X1.400000*%
%ADD51RoundRect,0.160000X-0.197500X-0.160000X0.197500X-0.160000X0.197500X0.160000X-0.197500X0.160000X0*%
%ADD52R,1.200000X0.600000*%
%ADD53RoundRect,0.155000X0.155000X-0.212500X0.155000X0.212500X-0.155000X0.212500X-0.155000X-0.212500X0*%
%ADD54R,0.450000X1.750000*%
%ADD55O,0.300000X1.400000*%
%ADD56O,1.400000X0.300000*%
%ADD57R,0.600000X1.200000*%
%ADD58RoundRect,0.237500X-0.300000X-0.237500X0.300000X-0.237500X0.300000X0.237500X-0.300000X0.237500X0*%
%ADD59RoundRect,0.237500X0.237500X-0.300000X0.237500X0.300000X-0.237500X0.300000X-0.237500X-0.300000X0*%
%ADD60RoundRect,0.250000X0.650000X-0.412500X0.650000X0.412500X-0.650000X0.412500X-0.650000X-0.412500X0*%
%ADD61C,1.400000*%
%ADD62C,2.600000*%
%ADD63C,0.900000*%
%ADD64R,2.400000X0.600000*%
%ADD65R,3.200000X1.900000*%
%ADD66R,4.200000X3.900000*%
G04 APERTURE END LIST*
D10*
X47335744Y-13381560D02*
X47190601Y-13429941D01*
X47190601Y-13429941D02*
X47142220Y-13478322D01*
X47142220Y-13478322D02*
X47093839Y-13575084D01*
X47093839Y-13575084D02*
X47093839Y-13720227D01*
X47093839Y-13720227D02*
X47142220Y-13816989D01*
X47142220Y-13816989D02*
X47190601Y-13865370D01*
X47190601Y-13865370D02*
X47287363Y-13913750D01*
X47287363Y-13913750D02*
X47674411Y-13913750D01*
X47674411Y-13913750D02*
X47674411Y-12897750D01*
X47674411Y-12897750D02*
X47335744Y-12897750D01*
X47335744Y-12897750D02*
X47238982Y-12946131D01*
X47238982Y-12946131D02*
X47190601Y-12994512D01*
X47190601Y-12994512D02*
X47142220Y-13091274D01*
X47142220Y-13091274D02*
X47142220Y-13188036D01*
X47142220Y-13188036D02*
X47190601Y-13284798D01*
X47190601Y-13284798D02*
X47238982Y-13333179D01*
X47238982Y-13333179D02*
X47335744Y-13381560D01*
X47335744Y-13381560D02*
X47674411Y-13381560D01*
X46222982Y-13913750D02*
X46222982Y-13381560D01*
X46222982Y-13381560D02*
X46271363Y-13284798D01*
X46271363Y-13284798D02*
X46368125Y-13236417D01*
X46368125Y-13236417D02*
X46561649Y-13236417D01*
X46561649Y-13236417D02*
X46658411Y-13284798D01*
X46222982Y-13865370D02*
X46319744Y-13913750D01*
X46319744Y-13913750D02*
X46561649Y-13913750D01*
X46561649Y-13913750D02*
X46658411Y-13865370D01*
X46658411Y-13865370D02*
X46706792Y-13768608D01*
X46706792Y-13768608D02*
X46706792Y-13671846D01*
X46706792Y-13671846D02*
X46658411Y-13575084D01*
X46658411Y-13575084D02*
X46561649Y-13526703D01*
X46561649Y-13526703D02*
X46319744Y-13526703D01*
X46319744Y-13526703D02*
X46222982Y-13478322D01*
X45787554Y-13865370D02*
X45690792Y-13913750D01*
X45690792Y-13913750D02*
X45497268Y-13913750D01*
X45497268Y-13913750D02*
X45400506Y-13865370D01*
X45400506Y-13865370D02*
X45352125Y-13768608D01*
X45352125Y-13768608D02*
X45352125Y-13720227D01*
X45352125Y-13720227D02*
X45400506Y-13623465D01*
X45400506Y-13623465D02*
X45497268Y-13575084D01*
X45497268Y-13575084D02*
X45642411Y-13575084D01*
X45642411Y-13575084D02*
X45739173Y-13526703D01*
X45739173Y-13526703D02*
X45787554Y-13429941D01*
X45787554Y-13429941D02*
X45787554Y-13381560D01*
X45787554Y-13381560D02*
X45739173Y-13284798D01*
X45739173Y-13284798D02*
X45642411Y-13236417D01*
X45642411Y-13236417D02*
X45497268Y-13236417D01*
X45497268Y-13236417D02*
X45400506Y-13284798D01*
X44529649Y-13865370D02*
X44626411Y-13913750D01*
X44626411Y-13913750D02*
X44819935Y-13913750D01*
X44819935Y-13913750D02*
X44916697Y-13865370D01*
X44916697Y-13865370D02*
X44965078Y-13768608D01*
X44965078Y-13768608D02*
X44965078Y-13381560D01*
X44965078Y-13381560D02*
X44916697Y-13284798D01*
X44916697Y-13284798D02*
X44819935Y-13236417D01*
X44819935Y-13236417D02*
X44626411Y-13236417D01*
X44626411Y-13236417D02*
X44529649Y-13284798D01*
X44529649Y-13284798D02*
X44481268Y-13381560D01*
X44481268Y-13381560D02*
X44481268Y-13478322D01*
X44481268Y-13478322D02*
X44965078Y-13575084D01*
X43610411Y-13913750D02*
X43610411Y-12897750D01*
X43610411Y-13865370D02*
X43707173Y-13913750D01*
X43707173Y-13913750D02*
X43900697Y-13913750D01*
X43900697Y-13913750D02*
X43997459Y-13865370D01*
X43997459Y-13865370D02*
X44045840Y-13816989D01*
X44045840Y-13816989D02*
X44094221Y-13720227D01*
X44094221Y-13720227D02*
X44094221Y-13429941D01*
X44094221Y-13429941D02*
X44045840Y-13333179D01*
X44045840Y-13333179D02*
X43997459Y-13284798D01*
X43997459Y-13284798D02*
X43900697Y-13236417D01*
X43900697Y-13236417D02*
X43707173Y-13236417D01*
X43707173Y-13236417D02*
X43610411Y-13284798D01*
X42207364Y-13913750D02*
X42304126Y-13865370D01*
X42304126Y-13865370D02*
X42352507Y-13816989D01*
X42352507Y-13816989D02*
X42400888Y-13720227D01*
X42400888Y-13720227D02*
X42400888Y-13429941D01*
X42400888Y-13429941D02*
X42352507Y-13333179D01*
X42352507Y-13333179D02*
X42304126Y-13284798D01*
X42304126Y-13284798D02*
X42207364Y-13236417D01*
X42207364Y-13236417D02*
X42062221Y-13236417D01*
X42062221Y-13236417D02*
X41965459Y-13284798D01*
X41965459Y-13284798D02*
X41917078Y-13333179D01*
X41917078Y-13333179D02*
X41868697Y-13429941D01*
X41868697Y-13429941D02*
X41868697Y-13720227D01*
X41868697Y-13720227D02*
X41917078Y-13816989D01*
X41917078Y-13816989D02*
X41965459Y-13865370D01*
X41965459Y-13865370D02*
X42062221Y-13913750D01*
X42062221Y-13913750D02*
X42207364Y-13913750D01*
X41433269Y-13236417D02*
X41433269Y-13913750D01*
X41433269Y-13333179D02*
X41384888Y-13284798D01*
X41384888Y-13284798D02*
X41288126Y-13236417D01*
X41288126Y-13236417D02*
X41142983Y-13236417D01*
X41142983Y-13236417D02*
X41046221Y-13284798D01*
X41046221Y-13284798D02*
X40997840Y-13381560D01*
X40997840Y-13381560D02*
X40997840Y-13913750D01*
X40514031Y-13816989D02*
X40465650Y-13865370D01*
X40465650Y-13865370D02*
X40514031Y-13913750D01*
X40514031Y-13913750D02*
X40562412Y-13865370D01*
X40562412Y-13865370D02*
X40514031Y-13816989D01*
X40514031Y-13816989D02*
X40514031Y-13913750D01*
X40514031Y-13284798D02*
X40465650Y-13333179D01*
X40465650Y-13333179D02*
X40514031Y-13381560D01*
X40514031Y-13381560D02*
X40562412Y-13333179D01*
X40562412Y-13333179D02*
X40514031Y-13284798D01*
X40514031Y-13284798D02*
X40514031Y-13381560D01*
X47819554Y-14533453D02*
X47238982Y-14533453D01*
X47529268Y-15549453D02*
X47529268Y-14533453D01*
X46900316Y-15549453D02*
X46900316Y-14872120D01*
X46900316Y-14533453D02*
X46948697Y-14581834D01*
X46948697Y-14581834D02*
X46900316Y-14630215D01*
X46900316Y-14630215D02*
X46851935Y-14581834D01*
X46851935Y-14581834D02*
X46900316Y-14533453D01*
X46900316Y-14533453D02*
X46900316Y-14630215D01*
X46416506Y-14872120D02*
X46416506Y-15549453D01*
X46416506Y-14968882D02*
X46368125Y-14920501D01*
X46368125Y-14920501D02*
X46271363Y-14872120D01*
X46271363Y-14872120D02*
X46126220Y-14872120D01*
X46126220Y-14872120D02*
X46029458Y-14920501D01*
X46029458Y-14920501D02*
X45981077Y-15017263D01*
X45981077Y-15017263D02*
X45981077Y-15549453D01*
X45594030Y-14872120D02*
X45352125Y-15549453D01*
X45110220Y-14872120D02*
X45352125Y-15549453D01*
X45352125Y-15549453D02*
X45448887Y-15791358D01*
X45448887Y-15791358D02*
X45497268Y-15839739D01*
X45497268Y-15839739D02*
X45594030Y-15888120D01*
X44239363Y-15549453D02*
X44723173Y-15549453D01*
X44723173Y-15549453D02*
X44723173Y-14533453D01*
X43755554Y-15549453D02*
X43852316Y-15501073D01*
X43852316Y-15501073D02*
X43900697Y-15404311D01*
X43900697Y-15404311D02*
X43900697Y-14533453D01*
X42933078Y-15549453D02*
X42933078Y-15017263D01*
X42933078Y-15017263D02*
X42981459Y-14920501D01*
X42981459Y-14920501D02*
X43078221Y-14872120D01*
X43078221Y-14872120D02*
X43271745Y-14872120D01*
X43271745Y-14872120D02*
X43368507Y-14920501D01*
X42933078Y-15501073D02*
X43029840Y-15549453D01*
X43029840Y-15549453D02*
X43271745Y-15549453D01*
X43271745Y-15549453D02*
X43368507Y-15501073D01*
X43368507Y-15501073D02*
X43416888Y-15404311D01*
X43416888Y-15404311D02*
X43416888Y-15307549D01*
X43416888Y-15307549D02*
X43368507Y-15210787D01*
X43368507Y-15210787D02*
X43271745Y-15162406D01*
X43271745Y-15162406D02*
X43029840Y-15162406D01*
X43029840Y-15162406D02*
X42933078Y-15114025D01*
X42449269Y-15549453D02*
X42449269Y-14872120D01*
X42449269Y-14968882D02*
X42400888Y-14920501D01*
X42400888Y-14920501D02*
X42304126Y-14872120D01*
X42304126Y-14872120D02*
X42158983Y-14872120D01*
X42158983Y-14872120D02*
X42062221Y-14920501D01*
X42062221Y-14920501D02*
X42013840Y-15017263D01*
X42013840Y-15017263D02*
X42013840Y-15549453D01*
X42013840Y-15017263D02*
X41965459Y-14920501D01*
X41965459Y-14920501D02*
X41868697Y-14872120D01*
X41868697Y-14872120D02*
X41723554Y-14872120D01*
X41723554Y-14872120D02*
X41626793Y-14920501D01*
X41626793Y-14920501D02*
X41578412Y-15017263D01*
X41578412Y-15017263D02*
X41578412Y-15549453D01*
X40659173Y-15549453D02*
X40659173Y-15017263D01*
X40659173Y-15017263D02*
X40707554Y-14920501D01*
X40707554Y-14920501D02*
X40804316Y-14872120D01*
X40804316Y-14872120D02*
X40997840Y-14872120D01*
X40997840Y-14872120D02*
X41094602Y-14920501D01*
X40659173Y-15501073D02*
X40755935Y-15549453D01*
X40755935Y-15549453D02*
X40997840Y-15549453D01*
X40997840Y-15549453D02*
X41094602Y-15501073D01*
X41094602Y-15501073D02*
X41142983Y-15404311D01*
X41142983Y-15404311D02*
X41142983Y-15307549D01*
X41142983Y-15307549D02*
X41094602Y-15210787D01*
X41094602Y-15210787D02*
X40997840Y-15162406D01*
X40997840Y-15162406D02*
X40755935Y-15162406D01*
X40755935Y-15162406D02*
X40659173Y-15114025D01*
X39498031Y-15549453D02*
X38965840Y-14872120D01*
X39498031Y-14872120D02*
X38965840Y-15549453D01*
X38433650Y-14968882D02*
X38530412Y-14920501D01*
X38530412Y-14920501D02*
X38578793Y-14872120D01*
X38578793Y-14872120D02*
X38627174Y-14775358D01*
X38627174Y-14775358D02*
X38627174Y-14726977D01*
X38627174Y-14726977D02*
X38578793Y-14630215D01*
X38578793Y-14630215D02*
X38530412Y-14581834D01*
X38530412Y-14581834D02*
X38433650Y-14533453D01*
X38433650Y-14533453D02*
X38240126Y-14533453D01*
X38240126Y-14533453D02*
X38143364Y-14581834D01*
X38143364Y-14581834D02*
X38094983Y-14630215D01*
X38094983Y-14630215D02*
X38046602Y-14726977D01*
X38046602Y-14726977D02*
X38046602Y-14775358D01*
X38046602Y-14775358D02*
X38094983Y-14872120D01*
X38094983Y-14872120D02*
X38143364Y-14920501D01*
X38143364Y-14920501D02*
X38240126Y-14968882D01*
X38240126Y-14968882D02*
X38433650Y-14968882D01*
X38433650Y-14968882D02*
X38530412Y-15017263D01*
X38530412Y-15017263D02*
X38578793Y-15065644D01*
X38578793Y-15065644D02*
X38627174Y-15162406D01*
X38627174Y-15162406D02*
X38627174Y-15355930D01*
X38627174Y-15355930D02*
X38578793Y-15452692D01*
X38578793Y-15452692D02*
X38530412Y-15501073D01*
X38530412Y-15501073D02*
X38433650Y-15549453D01*
X38433650Y-15549453D02*
X38240126Y-15549453D01*
X38240126Y-15549453D02*
X38143364Y-15501073D01*
X38143364Y-15501073D02*
X38094983Y-15452692D01*
X38094983Y-15452692D02*
X38046602Y-15355930D01*
X38046602Y-15355930D02*
X38046602Y-15162406D01*
X38046602Y-15162406D02*
X38094983Y-15065644D01*
X38094983Y-15065644D02*
X38143364Y-15017263D01*
X38143364Y-15017263D02*
X38240126Y-14968882D01*
X37175745Y-14533453D02*
X37369269Y-14533453D01*
X37369269Y-14533453D02*
X37466031Y-14581834D01*
X37466031Y-14581834D02*
X37514412Y-14630215D01*
X37514412Y-14630215D02*
X37611174Y-14775358D01*
X37611174Y-14775358D02*
X37659555Y-14968882D01*
X37659555Y-14968882D02*
X37659555Y-15355930D01*
X37659555Y-15355930D02*
X37611174Y-15452692D01*
X37611174Y-15452692D02*
X37562793Y-15501073D01*
X37562793Y-15501073D02*
X37466031Y-15549453D01*
X37466031Y-15549453D02*
X37272507Y-15549453D01*
X37272507Y-15549453D02*
X37175745Y-15501073D01*
X37175745Y-15501073D02*
X37127364Y-15452692D01*
X37127364Y-15452692D02*
X37078983Y-15355930D01*
X37078983Y-15355930D02*
X37078983Y-15114025D01*
X37078983Y-15114025D02*
X37127364Y-15017263D01*
X37127364Y-15017263D02*
X37175745Y-14968882D01*
X37175745Y-14968882D02*
X37272507Y-14920501D01*
X37272507Y-14920501D02*
X37466031Y-14920501D01*
X37466031Y-14920501D02*
X37562793Y-14968882D01*
X37562793Y-14968882D02*
X37611174Y-15017263D01*
X37611174Y-15017263D02*
X37659555Y-15114025D01*
X35917841Y-15501073D02*
X35772698Y-15549453D01*
X35772698Y-15549453D02*
X35530793Y-15549453D01*
X35530793Y-15549453D02*
X35434031Y-15501073D01*
X35434031Y-15501073D02*
X35385650Y-15452692D01*
X35385650Y-15452692D02*
X35337269Y-15355930D01*
X35337269Y-15355930D02*
X35337269Y-15259168D01*
X35337269Y-15259168D02*
X35385650Y-15162406D01*
X35385650Y-15162406D02*
X35434031Y-15114025D01*
X35434031Y-15114025D02*
X35530793Y-15065644D01*
X35530793Y-15065644D02*
X35724317Y-15017263D01*
X35724317Y-15017263D02*
X35821079Y-14968882D01*
X35821079Y-14968882D02*
X35869460Y-14920501D01*
X35869460Y-14920501D02*
X35917841Y-14823739D01*
X35917841Y-14823739D02*
X35917841Y-14726977D01*
X35917841Y-14726977D02*
X35869460Y-14630215D01*
X35869460Y-14630215D02*
X35821079Y-14581834D01*
X35821079Y-14581834D02*
X35724317Y-14533453D01*
X35724317Y-14533453D02*
X35482412Y-14533453D01*
X35482412Y-14533453D02*
X35337269Y-14581834D01*
X34563174Y-15017263D02*
X34418031Y-15065644D01*
X34418031Y-15065644D02*
X34369650Y-15114025D01*
X34369650Y-15114025D02*
X34321269Y-15210787D01*
X34321269Y-15210787D02*
X34321269Y-15355930D01*
X34321269Y-15355930D02*
X34369650Y-15452692D01*
X34369650Y-15452692D02*
X34418031Y-15501073D01*
X34418031Y-15501073D02*
X34514793Y-15549453D01*
X34514793Y-15549453D02*
X34901841Y-15549453D01*
X34901841Y-15549453D02*
X34901841Y-14533453D01*
X34901841Y-14533453D02*
X34563174Y-14533453D01*
X34563174Y-14533453D02*
X34466412Y-14581834D01*
X34466412Y-14581834D02*
X34418031Y-14630215D01*
X34418031Y-14630215D02*
X34369650Y-14726977D01*
X34369650Y-14726977D02*
X34369650Y-14823739D01*
X34369650Y-14823739D02*
X34418031Y-14920501D01*
X34418031Y-14920501D02*
X34466412Y-14968882D01*
X34466412Y-14968882D02*
X34563174Y-15017263D01*
X34563174Y-15017263D02*
X34901841Y-15017263D01*
X33305269Y-15452692D02*
X33353650Y-15501073D01*
X33353650Y-15501073D02*
X33498793Y-15549453D01*
X33498793Y-15549453D02*
X33595555Y-15549453D01*
X33595555Y-15549453D02*
X33740698Y-15501073D01*
X33740698Y-15501073D02*
X33837460Y-15404311D01*
X33837460Y-15404311D02*
X33885841Y-15307549D01*
X33885841Y-15307549D02*
X33934222Y-15114025D01*
X33934222Y-15114025D02*
X33934222Y-14968882D01*
X33934222Y-14968882D02*
X33885841Y-14775358D01*
X33885841Y-14775358D02*
X33837460Y-14678596D01*
X33837460Y-14678596D02*
X33740698Y-14581834D01*
X33740698Y-14581834D02*
X33595555Y-14533453D01*
X33595555Y-14533453D02*
X33498793Y-14533453D01*
X33498793Y-14533453D02*
X33353650Y-14581834D01*
X33353650Y-14581834D02*
X33305269Y-14630215D01*
X32192508Y-14872120D02*
X31950603Y-15549453D01*
X31950603Y-15549453D02*
X31708698Y-14872120D01*
X31370032Y-14630215D02*
X31321651Y-14581834D01*
X31321651Y-14581834D02*
X31224889Y-14533453D01*
X31224889Y-14533453D02*
X30982984Y-14533453D01*
X30982984Y-14533453D02*
X30886222Y-14581834D01*
X30886222Y-14581834D02*
X30837841Y-14630215D01*
X30837841Y-14630215D02*
X30789460Y-14726977D01*
X30789460Y-14726977D02*
X30789460Y-14823739D01*
X30789460Y-14823739D02*
X30837841Y-14968882D01*
X30837841Y-14968882D02*
X31418413Y-15549453D01*
X31418413Y-15549453D02*
X30789460Y-15549453D01*
X30354032Y-15452692D02*
X30305651Y-15501073D01*
X30305651Y-15501073D02*
X30354032Y-15549453D01*
X30354032Y-15549453D02*
X30402413Y-15501073D01*
X30402413Y-15501073D02*
X30354032Y-15452692D01*
X30354032Y-15452692D02*
X30354032Y-15549453D01*
X29338031Y-15549453D02*
X29918603Y-15549453D01*
X29628317Y-15549453D02*
X29628317Y-14533453D01*
X29628317Y-14533453D02*
X29725079Y-14678596D01*
X29725079Y-14678596D02*
X29821841Y-14775358D01*
X29821841Y-14775358D02*
X29918603Y-14823739D01*
X47674411Y-17185156D02*
X47674411Y-16169156D01*
X47674411Y-16556204D02*
X47577649Y-16507823D01*
X47577649Y-16507823D02*
X47384125Y-16507823D01*
X47384125Y-16507823D02*
X47287363Y-16556204D01*
X47287363Y-16556204D02*
X47238982Y-16604585D01*
X47238982Y-16604585D02*
X47190601Y-16701347D01*
X47190601Y-16701347D02*
X47190601Y-16991633D01*
X47190601Y-16991633D02*
X47238982Y-17088395D01*
X47238982Y-17088395D02*
X47287363Y-17136776D01*
X47287363Y-17136776D02*
X47384125Y-17185156D01*
X47384125Y-17185156D02*
X47577649Y-17185156D01*
X47577649Y-17185156D02*
X47674411Y-17136776D01*
X46851935Y-16507823D02*
X46610030Y-17185156D01*
X46368125Y-16507823D02*
X46610030Y-17185156D01*
X46610030Y-17185156D02*
X46706792Y-17427061D01*
X46706792Y-17427061D02*
X46755173Y-17475442D01*
X46755173Y-17475442D02*
X46851935Y-17523823D01*
X45981078Y-17088395D02*
X45932697Y-17136776D01*
X45932697Y-17136776D02*
X45981078Y-17185156D01*
X45981078Y-17185156D02*
X46029459Y-17136776D01*
X46029459Y-17136776D02*
X45981078Y-17088395D01*
X45981078Y-17088395D02*
X45981078Y-17185156D01*
X45981078Y-16556204D02*
X45932697Y-16604585D01*
X45932697Y-16604585D02*
X45981078Y-16652966D01*
X45981078Y-16652966D02*
X46029459Y-16604585D01*
X46029459Y-16604585D02*
X45981078Y-16556204D01*
X45981078Y-16556204D02*
X45981078Y-16652966D01*
X44723173Y-16652966D02*
X44384506Y-16652966D01*
X44239363Y-17185156D02*
X44723173Y-17185156D01*
X44723173Y-17185156D02*
X44723173Y-16169156D01*
X44723173Y-16169156D02*
X44239363Y-16169156D01*
X43803935Y-17185156D02*
X43803935Y-16507823D01*
X43803935Y-16169156D02*
X43852316Y-16217537D01*
X43852316Y-16217537D02*
X43803935Y-16265918D01*
X43803935Y-16265918D02*
X43755554Y-16217537D01*
X43755554Y-16217537D02*
X43803935Y-16169156D01*
X43803935Y-16169156D02*
X43803935Y-16265918D01*
X43416887Y-16507823D02*
X43174982Y-17185156D01*
X43174982Y-17185156D02*
X42933077Y-16507823D01*
X42546030Y-17185156D02*
X42546030Y-16507823D01*
X42546030Y-16169156D02*
X42594411Y-16217537D01*
X42594411Y-16217537D02*
X42546030Y-16265918D01*
X42546030Y-16265918D02*
X42497649Y-16217537D01*
X42497649Y-16217537D02*
X42546030Y-16169156D01*
X42546030Y-16169156D02*
X42546030Y-16265918D01*
X42062220Y-16507823D02*
X42062220Y-17185156D01*
X42062220Y-16604585D02*
X42013839Y-16556204D01*
X42013839Y-16556204D02*
X41917077Y-16507823D01*
X41917077Y-16507823D02*
X41771934Y-16507823D01*
X41771934Y-16507823D02*
X41675172Y-16556204D01*
X41675172Y-16556204D02*
X41626791Y-16652966D01*
X41626791Y-16652966D02*
X41626791Y-17185156D01*
X40707553Y-17185156D02*
X40707553Y-16169156D01*
X40707553Y-17136776D02*
X40804315Y-17185156D01*
X40804315Y-17185156D02*
X40997839Y-17185156D01*
X40997839Y-17185156D02*
X41094601Y-17136776D01*
X41094601Y-17136776D02*
X41142982Y-17088395D01*
X41142982Y-17088395D02*
X41191363Y-16991633D01*
X41191363Y-16991633D02*
X41191363Y-16701347D01*
X41191363Y-16701347D02*
X41142982Y-16604585D01*
X41142982Y-16604585D02*
X41094601Y-16556204D01*
X41094601Y-16556204D02*
X40997839Y-16507823D01*
X40997839Y-16507823D02*
X40804315Y-16507823D01*
X40804315Y-16507823D02*
X40707553Y-16556204D01*
X39110982Y-16652966D02*
X38965839Y-16701347D01*
X38965839Y-16701347D02*
X38917458Y-16749728D01*
X38917458Y-16749728D02*
X38869077Y-16846490D01*
X38869077Y-16846490D02*
X38869077Y-16991633D01*
X38869077Y-16991633D02*
X38917458Y-17088395D01*
X38917458Y-17088395D02*
X38965839Y-17136776D01*
X38965839Y-17136776D02*
X39062601Y-17185156D01*
X39062601Y-17185156D02*
X39449649Y-17185156D01*
X39449649Y-17185156D02*
X39449649Y-16169156D01*
X39449649Y-16169156D02*
X39110982Y-16169156D01*
X39110982Y-16169156D02*
X39014220Y-16217537D01*
X39014220Y-16217537D02*
X38965839Y-16265918D01*
X38965839Y-16265918D02*
X38917458Y-16362680D01*
X38917458Y-16362680D02*
X38917458Y-16459442D01*
X38917458Y-16459442D02*
X38965839Y-16556204D01*
X38965839Y-16556204D02*
X39014220Y-16604585D01*
X39014220Y-16604585D02*
X39110982Y-16652966D01*
X39110982Y-16652966D02*
X39449649Y-16652966D01*
X37901458Y-16507823D02*
X38530411Y-17185156D01*
X38288506Y-17185156D02*
X38385268Y-17136776D01*
X38385268Y-17136776D02*
X38433649Y-17088395D01*
X38433649Y-17088395D02*
X38482030Y-16991633D01*
X38482030Y-16991633D02*
X38482030Y-16701347D01*
X38482030Y-16701347D02*
X38433649Y-16604585D01*
X38433649Y-16604585D02*
X38385268Y-16556204D01*
X38385268Y-16556204D02*
X38288506Y-16507823D01*
X38288506Y-16507823D02*
X38143363Y-16507823D01*
X38143363Y-16507823D02*
X38046601Y-16556204D01*
X38046601Y-16556204D02*
X37998220Y-16604585D01*
X37998220Y-16604585D02*
X37949839Y-16701347D01*
X37949839Y-16701347D02*
X37949839Y-16991633D01*
X37949839Y-16991633D02*
X37998220Y-17088395D01*
X37998220Y-17088395D02*
X38046601Y-17136776D01*
X38046601Y-17136776D02*
X38143363Y-17185156D01*
X38143363Y-17185156D02*
X38288506Y-17185156D01*
X37514411Y-17185156D02*
X37514411Y-16169156D01*
X37078982Y-17185156D02*
X37078982Y-16652966D01*
X37078982Y-16652966D02*
X37127363Y-16556204D01*
X37127363Y-16556204D02*
X37224125Y-16507823D01*
X37224125Y-16507823D02*
X37369268Y-16507823D01*
X37369268Y-16507823D02*
X37466030Y-16556204D01*
X37466030Y-16556204D02*
X37514411Y-16604585D01*
X36450030Y-17185156D02*
X36546792Y-17136776D01*
X36546792Y-17136776D02*
X36595173Y-17040014D01*
X36595173Y-17040014D02*
X36595173Y-16169156D01*
X35675935Y-17136776D02*
X35772697Y-17185156D01*
X35772697Y-17185156D02*
X35966221Y-17185156D01*
X35966221Y-17185156D02*
X36062983Y-17136776D01*
X36062983Y-17136776D02*
X36111364Y-17040014D01*
X36111364Y-17040014D02*
X36111364Y-16652966D01*
X36111364Y-16652966D02*
X36062983Y-16556204D01*
X36062983Y-16556204D02*
X35966221Y-16507823D01*
X35966221Y-16507823D02*
X35772697Y-16507823D01*
X35772697Y-16507823D02*
X35675935Y-16556204D01*
X35675935Y-16556204D02*
X35627554Y-16652966D01*
X35627554Y-16652966D02*
X35627554Y-16749728D01*
X35627554Y-16749728D02*
X36111364Y-16846490D01*
X35192126Y-17185156D02*
X35192126Y-16507823D01*
X35192126Y-16701347D02*
X35143745Y-16604585D01*
X35143745Y-16604585D02*
X35095364Y-16556204D01*
X35095364Y-16556204D02*
X34998602Y-16507823D01*
X34998602Y-16507823D02*
X34901840Y-16507823D01*
D11*
X50061428Y63010836D02*
X50061428Y62403693D01*
X50061428Y62403693D02*
X50025714Y62332265D01*
X50025714Y62332265D02*
X49990000Y62296550D01*
X49990000Y62296550D02*
X49918571Y62260836D01*
X49918571Y62260836D02*
X49775714Y62260836D01*
X49775714Y62260836D02*
X49704285Y62296550D01*
X49704285Y62296550D02*
X49668571Y62332265D01*
X49668571Y62332265D02*
X49632857Y62403693D01*
X49632857Y62403693D02*
X49632857Y63010836D01*
X49311428Y62296550D02*
X49204286Y62260836D01*
X49204286Y62260836D02*
X49025714Y62260836D01*
X49025714Y62260836D02*
X48954286Y62296550D01*
X48954286Y62296550D02*
X48918571Y62332265D01*
X48918571Y62332265D02*
X48882857Y62403693D01*
X48882857Y62403693D02*
X48882857Y62475122D01*
X48882857Y62475122D02*
X48918571Y62546550D01*
X48918571Y62546550D02*
X48954286Y62582265D01*
X48954286Y62582265D02*
X49025714Y62617979D01*
X49025714Y62617979D02*
X49168571Y62653693D01*
X49168571Y62653693D02*
X49240000Y62689408D01*
X49240000Y62689408D02*
X49275714Y62725122D01*
X49275714Y62725122D02*
X49311428Y62796550D01*
X49311428Y62796550D02*
X49311428Y62867979D01*
X49311428Y62867979D02*
X49275714Y62939408D01*
X49275714Y62939408D02*
X49240000Y62975122D01*
X49240000Y62975122D02*
X49168571Y63010836D01*
X49168571Y63010836D02*
X48990000Y63010836D01*
X48990000Y63010836D02*
X48882857Y62975122D01*
X48311428Y62653693D02*
X48204285Y62617979D01*
X48204285Y62617979D02*
X48168571Y62582265D01*
X48168571Y62582265D02*
X48132857Y62510836D01*
X48132857Y62510836D02*
X48132857Y62403693D01*
X48132857Y62403693D02*
X48168571Y62332265D01*
X48168571Y62332265D02*
X48204285Y62296550D01*
X48204285Y62296550D02*
X48275714Y62260836D01*
X48275714Y62260836D02*
X48561428Y62260836D01*
X48561428Y62260836D02*
X48561428Y63010836D01*
X48561428Y63010836D02*
X48311428Y63010836D01*
X48311428Y63010836D02*
X48240000Y62975122D01*
X48240000Y62975122D02*
X48204285Y62939408D01*
X48204285Y62939408D02*
X48168571Y62867979D01*
X48168571Y62867979D02*
X48168571Y62796550D01*
X48168571Y62796550D02*
X48204285Y62725122D01*
X48204285Y62725122D02*
X48240000Y62689408D01*
X48240000Y62689408D02*
X48311428Y62653693D01*
X48311428Y62653693D02*
X48561428Y62653693D01*
X47990000Y62189408D02*
X47418571Y62189408D01*
X47239999Y62260836D02*
X47239999Y63010836D01*
X47239999Y63010836D02*
X46811428Y62260836D01*
X46811428Y62260836D02*
X46811428Y63010836D01*
X46489999Y62475122D02*
X46132857Y62475122D01*
X46561428Y62260836D02*
X46311428Y63010836D01*
X46311428Y63010836D02*
X46061428Y62260836D01*
X45918571Y63010836D02*
X45490000Y63010836D01*
X45704285Y62260836D02*
X45704285Y63010836D01*
X45239999Y62260836D02*
X45239999Y63010836D01*
X44989999Y63010836D02*
X44739999Y62260836D01*
X44739999Y62260836D02*
X44489999Y63010836D01*
X44239999Y62653693D02*
X43989999Y62653693D01*
X43882856Y62260836D02*
X44239999Y62260836D01*
X44239999Y62260836D02*
X44239999Y63010836D01*
X44239999Y63010836D02*
X43882856Y63010836D01*
X33166571Y63085836D02*
X33166571Y62478693D01*
X33166571Y62478693D02*
X33130857Y62407265D01*
X33130857Y62407265D02*
X33095143Y62371550D01*
X33095143Y62371550D02*
X33023714Y62335836D01*
X33023714Y62335836D02*
X32880857Y62335836D01*
X32880857Y62335836D02*
X32809428Y62371550D01*
X32809428Y62371550D02*
X32773714Y62407265D01*
X32773714Y62407265D02*
X32738000Y62478693D01*
X32738000Y62478693D02*
X32738000Y63085836D01*
X32416571Y62371550D02*
X32309429Y62335836D01*
X32309429Y62335836D02*
X32130857Y62335836D01*
X32130857Y62335836D02*
X32059429Y62371550D01*
X32059429Y62371550D02*
X32023714Y62407265D01*
X32023714Y62407265D02*
X31988000Y62478693D01*
X31988000Y62478693D02*
X31988000Y62550122D01*
X31988000Y62550122D02*
X32023714Y62621550D01*
X32023714Y62621550D02*
X32059429Y62657265D01*
X32059429Y62657265D02*
X32130857Y62692979D01*
X32130857Y62692979D02*
X32273714Y62728693D01*
X32273714Y62728693D02*
X32345143Y62764408D01*
X32345143Y62764408D02*
X32380857Y62800122D01*
X32380857Y62800122D02*
X32416571Y62871550D01*
X32416571Y62871550D02*
X32416571Y62942979D01*
X32416571Y62942979D02*
X32380857Y63014408D01*
X32380857Y63014408D02*
X32345143Y63050122D01*
X32345143Y63050122D02*
X32273714Y63085836D01*
X32273714Y63085836D02*
X32095143Y63085836D01*
X32095143Y63085836D02*
X31988000Y63050122D01*
X31416571Y62728693D02*
X31309428Y62692979D01*
X31309428Y62692979D02*
X31273714Y62657265D01*
X31273714Y62657265D02*
X31238000Y62585836D01*
X31238000Y62585836D02*
X31238000Y62478693D01*
X31238000Y62478693D02*
X31273714Y62407265D01*
X31273714Y62407265D02*
X31309428Y62371550D01*
X31309428Y62371550D02*
X31380857Y62335836D01*
X31380857Y62335836D02*
X31666571Y62335836D01*
X31666571Y62335836D02*
X31666571Y63085836D01*
X31666571Y63085836D02*
X31416571Y63085836D01*
X31416571Y63085836D02*
X31345143Y63050122D01*
X31345143Y63050122D02*
X31309428Y63014408D01*
X31309428Y63014408D02*
X31273714Y62942979D01*
X31273714Y62942979D02*
X31273714Y62871550D01*
X31273714Y62871550D02*
X31309428Y62800122D01*
X31309428Y62800122D02*
X31345143Y62764408D01*
X31345143Y62764408D02*
X31416571Y62728693D01*
X31416571Y62728693D02*
X31666571Y62728693D01*
X31095143Y62264408D02*
X30523714Y62264408D01*
X30345142Y62335836D02*
X30345142Y63085836D01*
X30345142Y62728693D02*
X29916571Y62728693D01*
X29916571Y62335836D02*
X29916571Y63085836D01*
X29559428Y62335836D02*
X29559428Y63085836D01*
X29202285Y62335836D02*
X29202285Y63085836D01*
X29202285Y63085836D02*
X29023714Y63085836D01*
X29023714Y63085836D02*
X28916571Y63050122D01*
X28916571Y63050122D02*
X28845142Y62978693D01*
X28845142Y62978693D02*
X28809428Y62907265D01*
X28809428Y62907265D02*
X28773714Y62764408D01*
X28773714Y62764408D02*
X28773714Y62657265D01*
X28773714Y62657265D02*
X28809428Y62514408D01*
X28809428Y62514408D02*
X28845142Y62442979D01*
X28845142Y62442979D02*
X28916571Y62371550D01*
X28916571Y62371550D02*
X29023714Y62335836D01*
X29023714Y62335836D02*
X29202285Y62335836D01*
X31664999Y72931193D02*
X31914999Y72931193D01*
X31914999Y72538336D02*
X31914999Y73288336D01*
X31914999Y73288336D02*
X31557856Y73288336D01*
X31307856Y73216908D02*
X31272142Y73252622D01*
X31272142Y73252622D02*
X31200714Y73288336D01*
X31200714Y73288336D02*
X31022142Y73288336D01*
X31022142Y73288336D02*
X30950714Y73252622D01*
X30950714Y73252622D02*
X30914999Y73216908D01*
X30914999Y73216908D02*
X30879285Y73145479D01*
X30879285Y73145479D02*
X30879285Y73074050D01*
X30879285Y73074050D02*
X30914999Y72966908D01*
X30914999Y72966908D02*
X31343571Y72538336D01*
X31343571Y72538336D02*
X30879285Y72538336D01*
X10389164Y4342144D02*
X10032021Y4592144D01*
X10389164Y4770715D02*
X9639164Y4770715D01*
X9639164Y4770715D02*
X9639164Y4485001D01*
X9639164Y4485001D02*
X9674878Y4413572D01*
X9674878Y4413572D02*
X9710592Y4377858D01*
X9710592Y4377858D02*
X9782021Y4342144D01*
X9782021Y4342144D02*
X9889164Y4342144D01*
X9889164Y4342144D02*
X9960592Y4377858D01*
X9960592Y4377858D02*
X9996307Y4413572D01*
X9996307Y4413572D02*
X10032021Y4485001D01*
X10032021Y4485001D02*
X10032021Y4770715D01*
X10389164Y3627858D02*
X10389164Y4056429D01*
X10389164Y3842144D02*
X9639164Y3842144D01*
X9639164Y3842144D02*
X9746307Y3913572D01*
X9746307Y3913572D02*
X9817735Y3985001D01*
X9817735Y3985001D02*
X9853450Y4056429D01*
X10389164Y3270715D02*
X10389164Y3127858D01*
X10389164Y3127858D02*
X10353450Y3056429D01*
X10353450Y3056429D02*
X10317735Y3020715D01*
X10317735Y3020715D02*
X10210592Y2949286D01*
X10210592Y2949286D02*
X10067735Y2913572D01*
X10067735Y2913572D02*
X9782021Y2913572D01*
X9782021Y2913572D02*
X9710592Y2949286D01*
X9710592Y2949286D02*
X9674878Y2985000D01*
X9674878Y2985000D02*
X9639164Y3056429D01*
X9639164Y3056429D02*
X9639164Y3199286D01*
X9639164Y3199286D02*
X9674878Y3270715D01*
X9674878Y3270715D02*
X9710592Y3306429D01*
X9710592Y3306429D02*
X9782021Y3342143D01*
X9782021Y3342143D02*
X9960592Y3342143D01*
X9960592Y3342143D02*
X10032021Y3306429D01*
X10032021Y3306429D02*
X10067735Y3270715D01*
X10067735Y3270715D02*
X10103450Y3199286D01*
X10103450Y3199286D02*
X10103450Y3056429D01*
X10103450Y3056429D02*
X10067735Y2985000D01*
X10067735Y2985000D02*
X10032021Y2949286D01*
X10032021Y2949286D02*
X9960592Y2913572D01*
X88212143Y-3479164D02*
X88462143Y-3122021D01*
X88640714Y-3479164D02*
X88640714Y-2729164D01*
X88640714Y-2729164D02*
X88355000Y-2729164D01*
X88355000Y-2729164D02*
X88283571Y-2764878D01*
X88283571Y-2764878D02*
X88247857Y-2800592D01*
X88247857Y-2800592D02*
X88212143Y-2872021D01*
X88212143Y-2872021D02*
X88212143Y-2979164D01*
X88212143Y-2979164D02*
X88247857Y-3050592D01*
X88247857Y-3050592D02*
X88283571Y-3086307D01*
X88283571Y-3086307D02*
X88355000Y-3122021D01*
X88355000Y-3122021D02*
X88640714Y-3122021D01*
X87962143Y-2729164D02*
X87497857Y-2729164D01*
X87497857Y-2729164D02*
X87747857Y-3014878D01*
X87747857Y-3014878D02*
X87640714Y-3014878D01*
X87640714Y-3014878D02*
X87569286Y-3050592D01*
X87569286Y-3050592D02*
X87533571Y-3086307D01*
X87533571Y-3086307D02*
X87497857Y-3157735D01*
X87497857Y-3157735D02*
X87497857Y-3336307D01*
X87497857Y-3336307D02*
X87533571Y-3407735D01*
X87533571Y-3407735D02*
X87569286Y-3443450D01*
X87569286Y-3443450D02*
X87640714Y-3479164D01*
X87640714Y-3479164D02*
X87855000Y-3479164D01*
X87855000Y-3479164D02*
X87926428Y-3443450D01*
X87926428Y-3443450D02*
X87962143Y-3407735D01*
X86783571Y-3479164D02*
X87212142Y-3479164D01*
X86997857Y-3479164D02*
X86997857Y-2729164D01*
X86997857Y-2729164D02*
X87069285Y-2836307D01*
X87069285Y-2836307D02*
X87140714Y-2907735D01*
X87140714Y-2907735D02*
X87212142Y-2943450D01*
X65600000Y72282265D02*
X65635714Y72246550D01*
X65635714Y72246550D02*
X65742857Y72210836D01*
X65742857Y72210836D02*
X65814285Y72210836D01*
X65814285Y72210836D02*
X65921428Y72246550D01*
X65921428Y72246550D02*
X65992857Y72317979D01*
X65992857Y72317979D02*
X66028571Y72389408D01*
X66028571Y72389408D02*
X66064285Y72532265D01*
X66064285Y72532265D02*
X66064285Y72639408D01*
X66064285Y72639408D02*
X66028571Y72782265D01*
X66028571Y72782265D02*
X65992857Y72853693D01*
X65992857Y72853693D02*
X65921428Y72925122D01*
X65921428Y72925122D02*
X65814285Y72960836D01*
X65814285Y72960836D02*
X65742857Y72960836D01*
X65742857Y72960836D02*
X65635714Y72925122D01*
X65635714Y72925122D02*
X65600000Y72889408D01*
X64957143Y72960836D02*
X65100000Y72960836D01*
X65100000Y72960836D02*
X65171428Y72925122D01*
X65171428Y72925122D02*
X65207143Y72889408D01*
X65207143Y72889408D02*
X65278571Y72782265D01*
X65278571Y72782265D02*
X65314285Y72639408D01*
X65314285Y72639408D02*
X65314285Y72353693D01*
X65314285Y72353693D02*
X65278571Y72282265D01*
X65278571Y72282265D02*
X65242857Y72246550D01*
X65242857Y72246550D02*
X65171428Y72210836D01*
X65171428Y72210836D02*
X65028571Y72210836D01*
X65028571Y72210836D02*
X64957143Y72246550D01*
X64957143Y72246550D02*
X64921428Y72282265D01*
X64921428Y72282265D02*
X64885714Y72353693D01*
X64885714Y72353693D02*
X64885714Y72532265D01*
X64885714Y72532265D02*
X64921428Y72603693D01*
X64921428Y72603693D02*
X64957143Y72639408D01*
X64957143Y72639408D02*
X65028571Y72675122D01*
X65028571Y72675122D02*
X65171428Y72675122D01*
X65171428Y72675122D02*
X65242857Y72639408D01*
X65242857Y72639408D02*
X65278571Y72603693D01*
X65278571Y72603693D02*
X65314285Y72532265D01*
X95499164Y-9137856D02*
X95142021Y-8887856D01*
X95499164Y-8709285D02*
X94749164Y-8709285D01*
X94749164Y-8709285D02*
X94749164Y-8994999D01*
X94749164Y-8994999D02*
X94784878Y-9066428D01*
X94784878Y-9066428D02*
X94820592Y-9102142D01*
X94820592Y-9102142D02*
X94892021Y-9137856D01*
X94892021Y-9137856D02*
X94999164Y-9137856D01*
X94999164Y-9137856D02*
X95070592Y-9102142D01*
X95070592Y-9102142D02*
X95106307Y-9066428D01*
X95106307Y-9066428D02*
X95142021Y-8994999D01*
X95142021Y-8994999D02*
X95142021Y-8709285D01*
X94820592Y-9423571D02*
X94784878Y-9459285D01*
X94784878Y-9459285D02*
X94749164Y-9530714D01*
X94749164Y-9530714D02*
X94749164Y-9709285D01*
X94749164Y-9709285D02*
X94784878Y-9780714D01*
X94784878Y-9780714D02*
X94820592Y-9816428D01*
X94820592Y-9816428D02*
X94892021Y-9852142D01*
X94892021Y-9852142D02*
X94963450Y-9852142D01*
X94963450Y-9852142D02*
X95070592Y-9816428D01*
X95070592Y-9816428D02*
X95499164Y-9387856D01*
X95499164Y-9387856D02*
X95499164Y-9852142D01*
X95499164Y-10209285D02*
X95499164Y-10352142D01*
X95499164Y-10352142D02*
X95463450Y-10423571D01*
X95463450Y-10423571D02*
X95427735Y-10459285D01*
X95427735Y-10459285D02*
X95320592Y-10530714D01*
X95320592Y-10530714D02*
X95177735Y-10566428D01*
X95177735Y-10566428D02*
X94892021Y-10566428D01*
X94892021Y-10566428D02*
X94820592Y-10530714D01*
X94820592Y-10530714D02*
X94784878Y-10495000D01*
X94784878Y-10495000D02*
X94749164Y-10423571D01*
X94749164Y-10423571D02*
X94749164Y-10280714D01*
X94749164Y-10280714D02*
X94784878Y-10209285D01*
X94784878Y-10209285D02*
X94820592Y-10173571D01*
X94820592Y-10173571D02*
X94892021Y-10137857D01*
X94892021Y-10137857D02*
X95070592Y-10137857D01*
X95070592Y-10137857D02*
X95142021Y-10173571D01*
X95142021Y-10173571D02*
X95177735Y-10209285D01*
X95177735Y-10209285D02*
X95213450Y-10280714D01*
X95213450Y-10280714D02*
X95213450Y-10423571D01*
X95213450Y-10423571D02*
X95177735Y-10495000D01*
X95177735Y-10495000D02*
X95142021Y-10530714D01*
X95142021Y-10530714D02*
X95070592Y-10566428D01*
X47949999Y72952694D02*
X48199999Y72952694D01*
X48199999Y72559837D02*
X48199999Y73309837D01*
X48199999Y73309837D02*
X47842856Y73309837D01*
X47164285Y72559837D02*
X47592856Y72559837D01*
X47378571Y72559837D02*
X47378571Y73309837D01*
X47378571Y73309837D02*
X47449999Y73202694D01*
X47449999Y73202694D02*
X47521428Y73131266D01*
X47521428Y73131266D02*
X47592856Y73095551D01*
X91107143Y71007265D02*
X91142857Y70971550D01*
X91142857Y70971550D02*
X91250000Y70935836D01*
X91250000Y70935836D02*
X91321428Y70935836D01*
X91321428Y70935836D02*
X91428571Y70971550D01*
X91428571Y70971550D02*
X91500000Y71042979D01*
X91500000Y71042979D02*
X91535714Y71114408D01*
X91535714Y71114408D02*
X91571428Y71257265D01*
X91571428Y71257265D02*
X91571428Y71364408D01*
X91571428Y71364408D02*
X91535714Y71507265D01*
X91535714Y71507265D02*
X91500000Y71578693D01*
X91500000Y71578693D02*
X91428571Y71650122D01*
X91428571Y71650122D02*
X91321428Y71685836D01*
X91321428Y71685836D02*
X91250000Y71685836D01*
X91250000Y71685836D02*
X91142857Y71650122D01*
X91142857Y71650122D02*
X91107143Y71614408D01*
X90464286Y71435836D02*
X90464286Y70935836D01*
X90642857Y71721550D02*
X90821428Y71185836D01*
X90821428Y71185836D02*
X90357143Y71185836D01*
X89964285Y71364408D02*
X90035714Y71400122D01*
X90035714Y71400122D02*
X90071428Y71435836D01*
X90071428Y71435836D02*
X90107142Y71507265D01*
X90107142Y71507265D02*
X90107142Y71542979D01*
X90107142Y71542979D02*
X90071428Y71614408D01*
X90071428Y71614408D02*
X90035714Y71650122D01*
X90035714Y71650122D02*
X89964285Y71685836D01*
X89964285Y71685836D02*
X89821428Y71685836D01*
X89821428Y71685836D02*
X89750000Y71650122D01*
X89750000Y71650122D02*
X89714285Y71614408D01*
X89714285Y71614408D02*
X89678571Y71542979D01*
X89678571Y71542979D02*
X89678571Y71507265D01*
X89678571Y71507265D02*
X89714285Y71435836D01*
X89714285Y71435836D02*
X89750000Y71400122D01*
X89750000Y71400122D02*
X89821428Y71364408D01*
X89821428Y71364408D02*
X89964285Y71364408D01*
X89964285Y71364408D02*
X90035714Y71328693D01*
X90035714Y71328693D02*
X90071428Y71292979D01*
X90071428Y71292979D02*
X90107142Y71221550D01*
X90107142Y71221550D02*
X90107142Y71078693D01*
X90107142Y71078693D02*
X90071428Y71007265D01*
X90071428Y71007265D02*
X90035714Y70971550D01*
X90035714Y70971550D02*
X89964285Y70935836D01*
X89964285Y70935836D02*
X89821428Y70935836D01*
X89821428Y70935836D02*
X89750000Y70971550D01*
X89750000Y70971550D02*
X89714285Y71007265D01*
X89714285Y71007265D02*
X89678571Y71078693D01*
X89678571Y71078693D02*
X89678571Y71221550D01*
X89678571Y71221550D02*
X89714285Y71292979D01*
X89714285Y71292979D02*
X89750000Y71328693D01*
X89750000Y71328693D02*
X89821428Y71364408D01*
X62440000Y71042265D02*
X62475714Y71006550D01*
X62475714Y71006550D02*
X62582857Y70970836D01*
X62582857Y70970836D02*
X62654285Y70970836D01*
X62654285Y70970836D02*
X62761428Y71006550D01*
X62761428Y71006550D02*
X62832857Y71077979D01*
X62832857Y71077979D02*
X62868571Y71149408D01*
X62868571Y71149408D02*
X62904285Y71292265D01*
X62904285Y71292265D02*
X62904285Y71399408D01*
X62904285Y71399408D02*
X62868571Y71542265D01*
X62868571Y71542265D02*
X62832857Y71613693D01*
X62832857Y71613693D02*
X62761428Y71685122D01*
X62761428Y71685122D02*
X62654285Y71720836D01*
X62654285Y71720836D02*
X62582857Y71720836D01*
X62582857Y71720836D02*
X62475714Y71685122D01*
X62475714Y71685122D02*
X62440000Y71649408D01*
X61725714Y70970836D02*
X62154285Y70970836D01*
X61940000Y70970836D02*
X61940000Y71720836D01*
X61940000Y71720836D02*
X62011428Y71613693D01*
X62011428Y71613693D02*
X62082857Y71542265D01*
X62082857Y71542265D02*
X62154285Y71506550D01*
X15249580Y109167D02*
X15297200Y156786D01*
X15297200Y156786D02*
X15344819Y299643D01*
X15344819Y299643D02*
X15344819Y394881D01*
X15344819Y394881D02*
X15297200Y537738D01*
X15297200Y537738D02*
X15201961Y632976D01*
X15201961Y632976D02*
X15106723Y680595D01*
X15106723Y680595D02*
X14916247Y728214D01*
X14916247Y728214D02*
X14773390Y728214D01*
X14773390Y728214D02*
X14582914Y680595D01*
X14582914Y680595D02*
X14487676Y632976D01*
X14487676Y632976D02*
X14392438Y537738D01*
X14392438Y537738D02*
X14344819Y394881D01*
X14344819Y394881D02*
X14344819Y299643D01*
X14344819Y299643D02*
X14392438Y156786D01*
X14392438Y156786D02*
X14440057Y109167D01*
X14344819Y-795595D02*
X14344819Y-319405D01*
X14344819Y-319405D02*
X14821009Y-271786D01*
X14821009Y-271786D02*
X14773390Y-319405D01*
X14773390Y-319405D02*
X14725771Y-414643D01*
X14725771Y-414643D02*
X14725771Y-652738D01*
X14725771Y-652738D02*
X14773390Y-747976D01*
X14773390Y-747976D02*
X14821009Y-795595D01*
X14821009Y-795595D02*
X14916247Y-843214D01*
X14916247Y-843214D02*
X15154342Y-843214D01*
X15154342Y-843214D02*
X15249580Y-795595D01*
X15249580Y-795595D02*
X15297200Y-747976D01*
X15297200Y-747976D02*
X15344819Y-652738D01*
X15344819Y-652738D02*
X15344819Y-414643D01*
X15344819Y-414643D02*
X15297200Y-319405D01*
X15297200Y-319405D02*
X15249580Y-271786D01*
X19732143Y-10779164D02*
X19982143Y-10422021D01*
X20160714Y-10779164D02*
X20160714Y-10029164D01*
X20160714Y-10029164D02*
X19875000Y-10029164D01*
X19875000Y-10029164D02*
X19803571Y-10064878D01*
X19803571Y-10064878D02*
X19767857Y-10100592D01*
X19767857Y-10100592D02*
X19732143Y-10172021D01*
X19732143Y-10172021D02*
X19732143Y-10279164D01*
X19732143Y-10279164D02*
X19767857Y-10350592D01*
X19767857Y-10350592D02*
X19803571Y-10386307D01*
X19803571Y-10386307D02*
X19875000Y-10422021D01*
X19875000Y-10422021D02*
X20160714Y-10422021D01*
X19017857Y-10779164D02*
X19446428Y-10779164D01*
X19232143Y-10779164D02*
X19232143Y-10029164D01*
X19232143Y-10029164D02*
X19303571Y-10136307D01*
X19303571Y-10136307D02*
X19375000Y-10207735D01*
X19375000Y-10207735D02*
X19446428Y-10243450D01*
X18767857Y-10029164D02*
X18267857Y-10029164D01*
X18267857Y-10029164D02*
X18589285Y-10779164D01*
X17999999Y62696550D02*
X17892857Y62660836D01*
X17892857Y62660836D02*
X17714285Y62660836D01*
X17714285Y62660836D02*
X17642857Y62696550D01*
X17642857Y62696550D02*
X17607142Y62732265D01*
X17607142Y62732265D02*
X17571428Y62803693D01*
X17571428Y62803693D02*
X17571428Y62875122D01*
X17571428Y62875122D02*
X17607142Y62946550D01*
X17607142Y62946550D02*
X17642857Y62982265D01*
X17642857Y62982265D02*
X17714285Y63017979D01*
X17714285Y63017979D02*
X17857142Y63053693D01*
X17857142Y63053693D02*
X17928571Y63089408D01*
X17928571Y63089408D02*
X17964285Y63125122D01*
X17964285Y63125122D02*
X17999999Y63196550D01*
X17999999Y63196550D02*
X17999999Y63267979D01*
X17999999Y63267979D02*
X17964285Y63339408D01*
X17964285Y63339408D02*
X17928571Y63375122D01*
X17928571Y63375122D02*
X17857142Y63410836D01*
X17857142Y63410836D02*
X17678571Y63410836D01*
X17678571Y63410836D02*
X17571428Y63375122D01*
X17321428Y63410836D02*
X17142856Y62660836D01*
X17142856Y62660836D02*
X16999999Y63196550D01*
X16999999Y63196550D02*
X16857142Y62660836D01*
X16857142Y62660836D02*
X16678571Y63410836D01*
X16071428Y63410836D02*
X16214285Y63410836D01*
X16214285Y63410836D02*
X16285713Y63375122D01*
X16285713Y63375122D02*
X16321428Y63339408D01*
X16321428Y63339408D02*
X16392856Y63232265D01*
X16392856Y63232265D02*
X16428570Y63089408D01*
X16428570Y63089408D02*
X16428570Y62803693D01*
X16428570Y62803693D02*
X16392856Y62732265D01*
X16392856Y62732265D02*
X16357142Y62696550D01*
X16357142Y62696550D02*
X16285713Y62660836D01*
X16285713Y62660836D02*
X16142856Y62660836D01*
X16142856Y62660836D02*
X16071428Y62696550D01*
X16071428Y62696550D02*
X16035713Y62732265D01*
X16035713Y62732265D02*
X15999999Y62803693D01*
X15999999Y62803693D02*
X15999999Y62982265D01*
X15999999Y62982265D02*
X16035713Y63053693D01*
X16035713Y63053693D02*
X16071428Y63089408D01*
X16071428Y63089408D02*
X16142856Y63125122D01*
X16142856Y63125122D02*
X16285713Y63125122D01*
X16285713Y63125122D02*
X16357142Y63089408D01*
X16357142Y63089408D02*
X16392856Y63053693D01*
X16392856Y63053693D02*
X16428570Y62982265D01*
X17946428Y54650836D02*
X17946428Y55400836D01*
X17946428Y55400836D02*
X17660714Y55400836D01*
X17660714Y55400836D02*
X17589285Y55365122D01*
X17589285Y55365122D02*
X17553571Y55329408D01*
X17553571Y55329408D02*
X17517857Y55257979D01*
X17517857Y55257979D02*
X17517857Y55150836D01*
X17517857Y55150836D02*
X17553571Y55079408D01*
X17553571Y55079408D02*
X17589285Y55043693D01*
X17589285Y55043693D02*
X17660714Y55007979D01*
X17660714Y55007979D02*
X17946428Y55007979D01*
X16767857Y54650836D02*
X17017857Y55007979D01*
X17196428Y54650836D02*
X17196428Y55400836D01*
X17196428Y55400836D02*
X16910714Y55400836D01*
X16910714Y55400836D02*
X16839285Y55365122D01*
X16839285Y55365122D02*
X16803571Y55329408D01*
X16803571Y55329408D02*
X16767857Y55257979D01*
X16767857Y55257979D02*
X16767857Y55150836D01*
X16767857Y55150836D02*
X16803571Y55079408D01*
X16803571Y55079408D02*
X16839285Y55043693D01*
X16839285Y55043693D02*
X16910714Y55007979D01*
X16910714Y55007979D02*
X17196428Y55007979D01*
X16053571Y55365122D02*
X16125000Y55400836D01*
X16125000Y55400836D02*
X16232142Y55400836D01*
X16232142Y55400836D02*
X16339285Y55365122D01*
X16339285Y55365122D02*
X16410714Y55293693D01*
X16410714Y55293693D02*
X16446428Y55222265D01*
X16446428Y55222265D02*
X16482142Y55079408D01*
X16482142Y55079408D02*
X16482142Y54972265D01*
X16482142Y54972265D02*
X16446428Y54829408D01*
X16446428Y54829408D02*
X16410714Y54757979D01*
X16410714Y54757979D02*
X16339285Y54686550D01*
X16339285Y54686550D02*
X16232142Y54650836D01*
X16232142Y54650836D02*
X16160714Y54650836D01*
X16160714Y54650836D02*
X16053571Y54686550D01*
X16053571Y54686550D02*
X16017857Y54722265D01*
X16017857Y54722265D02*
X16017857Y54972265D01*
X16017857Y54972265D02*
X16160714Y54972265D01*
X71657143Y62532265D02*
X71692857Y62496550D01*
X71692857Y62496550D02*
X71800000Y62460836D01*
X71800000Y62460836D02*
X71871428Y62460836D01*
X71871428Y62460836D02*
X71978571Y62496550D01*
X71978571Y62496550D02*
X72050000Y62567979D01*
X72050000Y62567979D02*
X72085714Y62639408D01*
X72085714Y62639408D02*
X72121428Y62782265D01*
X72121428Y62782265D02*
X72121428Y62889408D01*
X72121428Y62889408D02*
X72085714Y63032265D01*
X72085714Y63032265D02*
X72050000Y63103693D01*
X72050000Y63103693D02*
X71978571Y63175122D01*
X71978571Y63175122D02*
X71871428Y63210836D01*
X71871428Y63210836D02*
X71800000Y63210836D01*
X71800000Y63210836D02*
X71692857Y63175122D01*
X71692857Y63175122D02*
X71657143Y63139408D01*
X71014286Y63210836D02*
X71157143Y63210836D01*
X71157143Y63210836D02*
X71228571Y63175122D01*
X71228571Y63175122D02*
X71264286Y63139408D01*
X71264286Y63139408D02*
X71335714Y63032265D01*
X71335714Y63032265D02*
X71371428Y62889408D01*
X71371428Y62889408D02*
X71371428Y62603693D01*
X71371428Y62603693D02*
X71335714Y62532265D01*
X71335714Y62532265D02*
X71300000Y62496550D01*
X71300000Y62496550D02*
X71228571Y62460836D01*
X71228571Y62460836D02*
X71085714Y62460836D01*
X71085714Y62460836D02*
X71014286Y62496550D01*
X71014286Y62496550D02*
X70978571Y62532265D01*
X70978571Y62532265D02*
X70942857Y62603693D01*
X70942857Y62603693D02*
X70942857Y62782265D01*
X70942857Y62782265D02*
X70978571Y62853693D01*
X70978571Y62853693D02*
X71014286Y62889408D01*
X71014286Y62889408D02*
X71085714Y62925122D01*
X71085714Y62925122D02*
X71228571Y62925122D01*
X71228571Y62925122D02*
X71300000Y62889408D01*
X71300000Y62889408D02*
X71335714Y62853693D01*
X71335714Y62853693D02*
X71371428Y62782265D01*
X70228571Y62460836D02*
X70657142Y62460836D01*
X70442857Y62460836D02*
X70442857Y63210836D01*
X70442857Y63210836D02*
X70514285Y63103693D01*
X70514285Y63103693D02*
X70585714Y63032265D01*
X70585714Y63032265D02*
X70657142Y62996550D01*
X38482143Y56392265D02*
X38517857Y56356550D01*
X38517857Y56356550D02*
X38625000Y56320836D01*
X38625000Y56320836D02*
X38696428Y56320836D01*
X38696428Y56320836D02*
X38803571Y56356550D01*
X38803571Y56356550D02*
X38875000Y56427979D01*
X38875000Y56427979D02*
X38910714Y56499408D01*
X38910714Y56499408D02*
X38946428Y56642265D01*
X38946428Y56642265D02*
X38946428Y56749408D01*
X38946428Y56749408D02*
X38910714Y56892265D01*
X38910714Y56892265D02*
X38875000Y56963693D01*
X38875000Y56963693D02*
X38803571Y57035122D01*
X38803571Y57035122D02*
X38696428Y57070836D01*
X38696428Y57070836D02*
X38625000Y57070836D01*
X38625000Y57070836D02*
X38517857Y57035122D01*
X38517857Y57035122D02*
X38482143Y56999408D01*
X38232143Y57070836D02*
X37767857Y57070836D01*
X37767857Y57070836D02*
X38017857Y56785122D01*
X38017857Y56785122D02*
X37910714Y56785122D01*
X37910714Y56785122D02*
X37839286Y56749408D01*
X37839286Y56749408D02*
X37803571Y56713693D01*
X37803571Y56713693D02*
X37767857Y56642265D01*
X37767857Y56642265D02*
X37767857Y56463693D01*
X37767857Y56463693D02*
X37803571Y56392265D01*
X37803571Y56392265D02*
X37839286Y56356550D01*
X37839286Y56356550D02*
X37910714Y56320836D01*
X37910714Y56320836D02*
X38125000Y56320836D01*
X38125000Y56320836D02*
X38196428Y56356550D01*
X38196428Y56356550D02*
X38232143Y56392265D01*
X37517857Y57070836D02*
X37017857Y57070836D01*
X37017857Y57070836D02*
X37339285Y56320836D01*
X41429164Y1512144D02*
X41072021Y1762144D01*
X41429164Y1940715D02*
X40679164Y1940715D01*
X40679164Y1940715D02*
X40679164Y1655001D01*
X40679164Y1655001D02*
X40714878Y1583572D01*
X40714878Y1583572D02*
X40750592Y1547858D01*
X40750592Y1547858D02*
X40822021Y1512144D01*
X40822021Y1512144D02*
X40929164Y1512144D01*
X40929164Y1512144D02*
X41000592Y1547858D01*
X41000592Y1547858D02*
X41036307Y1583572D01*
X41036307Y1583572D02*
X41072021Y1655001D01*
X41072021Y1655001D02*
X41072021Y1940715D01*
X41429164Y797858D02*
X41429164Y1226429D01*
X41429164Y1012144D02*
X40679164Y1012144D01*
X40679164Y1012144D02*
X40786307Y1083572D01*
X40786307Y1083572D02*
X40857735Y1155001D01*
X40857735Y1155001D02*
X40893450Y1226429D01*
X40679164Y155000D02*
X40679164Y297858D01*
X40679164Y297858D02*
X40714878Y369286D01*
X40714878Y369286D02*
X40750592Y405000D01*
X40750592Y405000D02*
X40857735Y476429D01*
X40857735Y476429D02*
X41000592Y512143D01*
X41000592Y512143D02*
X41286307Y512143D01*
X41286307Y512143D02*
X41357735Y476429D01*
X41357735Y476429D02*
X41393450Y440715D01*
X41393450Y440715D02*
X41429164Y369286D01*
X41429164Y369286D02*
X41429164Y226429D01*
X41429164Y226429D02*
X41393450Y155000D01*
X41393450Y155000D02*
X41357735Y119286D01*
X41357735Y119286D02*
X41286307Y83572D01*
X41286307Y83572D02*
X41107735Y83572D01*
X41107735Y83572D02*
X41036307Y119286D01*
X41036307Y119286D02*
X41000592Y155000D01*
X41000592Y155000D02*
X40964878Y226429D01*
X40964878Y226429D02*
X40964878Y369286D01*
X40964878Y369286D02*
X41000592Y440715D01*
X41000592Y440715D02*
X41036307Y476429D01*
X41036307Y476429D02*
X41107735Y512143D01*
X8542735Y8957144D02*
X8578450Y8992858D01*
X8578450Y8992858D02*
X8614164Y9100001D01*
X8614164Y9100001D02*
X8614164Y9171429D01*
X8614164Y9171429D02*
X8578450Y9278572D01*
X8578450Y9278572D02*
X8507021Y9350001D01*
X8507021Y9350001D02*
X8435592Y9385715D01*
X8435592Y9385715D02*
X8292735Y9421429D01*
X8292735Y9421429D02*
X8185592Y9421429D01*
X8185592Y9421429D02*
X8042735Y9385715D01*
X8042735Y9385715D02*
X7971307Y9350001D01*
X7971307Y9350001D02*
X7899878Y9278572D01*
X7899878Y9278572D02*
X7864164Y9171429D01*
X7864164Y9171429D02*
X7864164Y9100001D01*
X7864164Y9100001D02*
X7899878Y8992858D01*
X7899878Y8992858D02*
X7935592Y8957144D01*
X8614164Y8242858D02*
X8614164Y8671429D01*
X8614164Y8457144D02*
X7864164Y8457144D01*
X7864164Y8457144D02*
X7971307Y8528572D01*
X7971307Y8528572D02*
X8042735Y8600001D01*
X8042735Y8600001D02*
X8078450Y8671429D01*
X8114164Y7600000D02*
X8614164Y7600000D01*
X7828450Y7778572D02*
X8364164Y7957143D01*
X8364164Y7957143D02*
X8364164Y7492858D01*
X66927500Y68970836D02*
X67177500Y69327979D01*
X67356071Y68970836D02*
X67356071Y69720836D01*
X67356071Y69720836D02*
X67070357Y69720836D01*
X67070357Y69720836D02*
X66998928Y69685122D01*
X66998928Y69685122D02*
X66963214Y69649408D01*
X66963214Y69649408D02*
X66927500Y69577979D01*
X66927500Y69577979D02*
X66927500Y69470836D01*
X66927500Y69470836D02*
X66963214Y69399408D01*
X66963214Y69399408D02*
X66998928Y69363693D01*
X66998928Y69363693D02*
X67070357Y69327979D01*
X67070357Y69327979D02*
X67356071Y69327979D01*
X66677500Y69720836D02*
X66213214Y69720836D01*
X66213214Y69720836D02*
X66463214Y69435122D01*
X66463214Y69435122D02*
X66356071Y69435122D01*
X66356071Y69435122D02*
X66284643Y69399408D01*
X66284643Y69399408D02*
X66248928Y69363693D01*
X66248928Y69363693D02*
X66213214Y69292265D01*
X66213214Y69292265D02*
X66213214Y69113693D01*
X66213214Y69113693D02*
X66248928Y69042265D01*
X66248928Y69042265D02*
X66284643Y69006550D01*
X66284643Y69006550D02*
X66356071Y68970836D01*
X66356071Y68970836D02*
X66570357Y68970836D01*
X66570357Y68970836D02*
X66641785Y69006550D01*
X66641785Y69006550D02*
X66677500Y69042265D01*
X44809164Y1499644D02*
X44452021Y1749644D01*
X44809164Y1928215D02*
X44059164Y1928215D01*
X44059164Y1928215D02*
X44059164Y1642501D01*
X44059164Y1642501D02*
X44094878Y1571072D01*
X44094878Y1571072D02*
X44130592Y1535358D01*
X44130592Y1535358D02*
X44202021Y1499644D01*
X44202021Y1499644D02*
X44309164Y1499644D01*
X44309164Y1499644D02*
X44380592Y1535358D01*
X44380592Y1535358D02*
X44416307Y1571072D01*
X44416307Y1571072D02*
X44452021Y1642501D01*
X44452021Y1642501D02*
X44452021Y1928215D01*
X44809164Y785358D02*
X44809164Y1213929D01*
X44809164Y999644D02*
X44059164Y999644D01*
X44059164Y999644D02*
X44166307Y1071072D01*
X44166307Y1071072D02*
X44237735Y1142501D01*
X44237735Y1142501D02*
X44273450Y1213929D01*
X44380592Y356786D02*
X44344878Y428215D01*
X44344878Y428215D02*
X44309164Y463929D01*
X44309164Y463929D02*
X44237735Y499643D01*
X44237735Y499643D02*
X44202021Y499643D01*
X44202021Y499643D02*
X44130592Y463929D01*
X44130592Y463929D02*
X44094878Y428215D01*
X44094878Y428215D02*
X44059164Y356786D01*
X44059164Y356786D02*
X44059164Y213929D01*
X44059164Y213929D02*
X44094878Y142500D01*
X44094878Y142500D02*
X44130592Y106786D01*
X44130592Y106786D02*
X44202021Y71072D01*
X44202021Y71072D02*
X44237735Y71072D01*
X44237735Y71072D02*
X44309164Y106786D01*
X44309164Y106786D02*
X44344878Y142500D01*
X44344878Y142500D02*
X44380592Y213929D01*
X44380592Y213929D02*
X44380592Y356786D01*
X44380592Y356786D02*
X44416307Y428215D01*
X44416307Y428215D02*
X44452021Y463929D01*
X44452021Y463929D02*
X44523450Y499643D01*
X44523450Y499643D02*
X44666307Y499643D01*
X44666307Y499643D02*
X44737735Y463929D01*
X44737735Y463929D02*
X44773450Y428215D01*
X44773450Y428215D02*
X44809164Y356786D01*
X44809164Y356786D02*
X44809164Y213929D01*
X44809164Y213929D02*
X44773450Y142500D01*
X44773450Y142500D02*
X44737735Y106786D01*
X44737735Y106786D02*
X44666307Y71072D01*
X44666307Y71072D02*
X44523450Y71072D01*
X44523450Y71072D02*
X44452021Y106786D01*
X44452021Y106786D02*
X44416307Y142500D01*
X44416307Y142500D02*
X44380592Y213929D01*
X7859164Y4312144D02*
X7502021Y4562144D01*
X7859164Y4740715D02*
X7109164Y4740715D01*
X7109164Y4740715D02*
X7109164Y4455001D01*
X7109164Y4455001D02*
X7144878Y4383572D01*
X7144878Y4383572D02*
X7180592Y4347858D01*
X7180592Y4347858D02*
X7252021Y4312144D01*
X7252021Y4312144D02*
X7359164Y4312144D01*
X7359164Y4312144D02*
X7430592Y4347858D01*
X7430592Y4347858D02*
X7466307Y4383572D01*
X7466307Y4383572D02*
X7502021Y4455001D01*
X7502021Y4455001D02*
X7502021Y4740715D01*
X7859164Y3597858D02*
X7859164Y4026429D01*
X7859164Y3812144D02*
X7109164Y3812144D01*
X7109164Y3812144D02*
X7216307Y3883572D01*
X7216307Y3883572D02*
X7287735Y3955001D01*
X7287735Y3955001D02*
X7323450Y4026429D01*
X7109164Y3347858D02*
X7109164Y2883572D01*
X7109164Y2883572D02*
X7394878Y3133572D01*
X7394878Y3133572D02*
X7394878Y3026429D01*
X7394878Y3026429D02*
X7430592Y2955000D01*
X7430592Y2955000D02*
X7466307Y2919286D01*
X7466307Y2919286D02*
X7537735Y2883572D01*
X7537735Y2883572D02*
X7716307Y2883572D01*
X7716307Y2883572D02*
X7787735Y2919286D01*
X7787735Y2919286D02*
X7823450Y2955000D01*
X7823450Y2955000D02*
X7859164Y3026429D01*
X7859164Y3026429D02*
X7859164Y3240715D01*
X7859164Y3240715D02*
X7823450Y3312143D01*
X7823450Y3312143D02*
X7787735Y3347858D01*
X88222143Y-6617735D02*
X88257857Y-6653450D01*
X88257857Y-6653450D02*
X88365000Y-6689164D01*
X88365000Y-6689164D02*
X88436428Y-6689164D01*
X88436428Y-6689164D02*
X88543571Y-6653450D01*
X88543571Y-6653450D02*
X88615000Y-6582021D01*
X88615000Y-6582021D02*
X88650714Y-6510592D01*
X88650714Y-6510592D02*
X88686428Y-6367735D01*
X88686428Y-6367735D02*
X88686428Y-6260592D01*
X88686428Y-6260592D02*
X88650714Y-6117735D01*
X88650714Y-6117735D02*
X88615000Y-6046307D01*
X88615000Y-6046307D02*
X88543571Y-5974878D01*
X88543571Y-5974878D02*
X88436428Y-5939164D01*
X88436428Y-5939164D02*
X88365000Y-5939164D01*
X88365000Y-5939164D02*
X88257857Y-5974878D01*
X88257857Y-5974878D02*
X88222143Y-6010592D01*
X87936428Y-6010592D02*
X87900714Y-5974878D01*
X87900714Y-5974878D02*
X87829286Y-5939164D01*
X87829286Y-5939164D02*
X87650714Y-5939164D01*
X87650714Y-5939164D02*
X87579286Y-5974878D01*
X87579286Y-5974878D02*
X87543571Y-6010592D01*
X87543571Y-6010592D02*
X87507857Y-6082021D01*
X87507857Y-6082021D02*
X87507857Y-6153450D01*
X87507857Y-6153450D02*
X87543571Y-6260592D01*
X87543571Y-6260592D02*
X87972143Y-6689164D01*
X87972143Y-6689164D02*
X87507857Y-6689164D01*
X86793571Y-6689164D02*
X87222142Y-6689164D01*
X87007857Y-6689164D02*
X87007857Y-5939164D01*
X87007857Y-5939164D02*
X87079285Y-6046307D01*
X87079285Y-6046307D02*
X87150714Y-6117735D01*
X87150714Y-6117735D02*
X87222142Y-6153450D01*
X61380592Y-7458571D02*
X61344878Y-7387142D01*
X61344878Y-7387142D02*
X61273450Y-7315714D01*
X61273450Y-7315714D02*
X61166307Y-7208571D01*
X61166307Y-7208571D02*
X61130592Y-7137142D01*
X61130592Y-7137142D02*
X61130592Y-7065714D01*
X61309164Y-7101428D02*
X61273450Y-7030000D01*
X61273450Y-7030000D02*
X61202021Y-6958571D01*
X61202021Y-6958571D02*
X61059164Y-6922857D01*
X61059164Y-6922857D02*
X60809164Y-6922857D01*
X60809164Y-6922857D02*
X60666307Y-6958571D01*
X60666307Y-6958571D02*
X60594878Y-7030000D01*
X60594878Y-7030000D02*
X60559164Y-7101428D01*
X60559164Y-7101428D02*
X60559164Y-7244285D01*
X60559164Y-7244285D02*
X60594878Y-7315714D01*
X60594878Y-7315714D02*
X60666307Y-7387142D01*
X60666307Y-7387142D02*
X60809164Y-7422857D01*
X60809164Y-7422857D02*
X61059164Y-7422857D01*
X61059164Y-7422857D02*
X61202021Y-7387142D01*
X61202021Y-7387142D02*
X61273450Y-7315714D01*
X61273450Y-7315714D02*
X61309164Y-7244285D01*
X61309164Y-7244285D02*
X61309164Y-7101428D01*
X60809164Y-8065714D02*
X61309164Y-8065714D01*
X60523450Y-7887142D02*
X61059164Y-7708571D01*
X61059164Y-7708571D02*
X61059164Y-8172856D01*
X19409643Y-1379164D02*
X19659643Y-1022021D01*
X19838214Y-1379164D02*
X19838214Y-629164D01*
X19838214Y-629164D02*
X19552500Y-629164D01*
X19552500Y-629164D02*
X19481071Y-664878D01*
X19481071Y-664878D02*
X19445357Y-700592D01*
X19445357Y-700592D02*
X19409643Y-772021D01*
X19409643Y-772021D02*
X19409643Y-879164D01*
X19409643Y-879164D02*
X19445357Y-950592D01*
X19445357Y-950592D02*
X19481071Y-986307D01*
X19481071Y-986307D02*
X19552500Y-1022021D01*
X19552500Y-1022021D02*
X19838214Y-1022021D01*
X18695357Y-1379164D02*
X19123928Y-1379164D01*
X18909643Y-1379164D02*
X18909643Y-629164D01*
X18909643Y-629164D02*
X18981071Y-736307D01*
X18981071Y-736307D02*
X19052500Y-807735D01*
X19052500Y-807735D02*
X19123928Y-843450D01*
X18052500Y-879164D02*
X18052500Y-1379164D01*
X18231071Y-593450D02*
X18409642Y-1129164D01*
X18409642Y-1129164D02*
X17945357Y-1129164D01*
X49232143Y2200836D02*
X49482143Y2557979D01*
X49660714Y2200836D02*
X49660714Y2950836D01*
X49660714Y2950836D02*
X49375000Y2950836D01*
X49375000Y2950836D02*
X49303571Y2915122D01*
X49303571Y2915122D02*
X49267857Y2879408D01*
X49267857Y2879408D02*
X49232143Y2807979D01*
X49232143Y2807979D02*
X49232143Y2700836D01*
X49232143Y2700836D02*
X49267857Y2629408D01*
X49267857Y2629408D02*
X49303571Y2593693D01*
X49303571Y2593693D02*
X49375000Y2557979D01*
X49375000Y2557979D02*
X49660714Y2557979D01*
X48517857Y2200836D02*
X48946428Y2200836D01*
X48732143Y2200836D02*
X48732143Y2950836D01*
X48732143Y2950836D02*
X48803571Y2843693D01*
X48803571Y2843693D02*
X48875000Y2772265D01*
X48875000Y2772265D02*
X48946428Y2736550D01*
X48232142Y2879408D02*
X48196428Y2915122D01*
X48196428Y2915122D02*
X48125000Y2950836D01*
X48125000Y2950836D02*
X47946428Y2950836D01*
X47946428Y2950836D02*
X47875000Y2915122D01*
X47875000Y2915122D02*
X47839285Y2879408D01*
X47839285Y2879408D02*
X47803571Y2807979D01*
X47803571Y2807979D02*
X47803571Y2736550D01*
X47803571Y2736550D02*
X47839285Y2629408D01*
X47839285Y2629408D02*
X48267857Y2200836D01*
X48267857Y2200836D02*
X47803571Y2200836D01*
X27109999Y-443450D02*
X27002857Y-479164D01*
X27002857Y-479164D02*
X26824285Y-479164D01*
X26824285Y-479164D02*
X26752857Y-443450D01*
X26752857Y-443450D02*
X26717142Y-407735D01*
X26717142Y-407735D02*
X26681428Y-336307D01*
X26681428Y-336307D02*
X26681428Y-264878D01*
X26681428Y-264878D02*
X26717142Y-193450D01*
X26717142Y-193450D02*
X26752857Y-157735D01*
X26752857Y-157735D02*
X26824285Y-122021D01*
X26824285Y-122021D02*
X26967142Y-86307D01*
X26967142Y-86307D02*
X27038571Y-50592D01*
X27038571Y-50592D02*
X27074285Y-14878D01*
X27074285Y-14878D02*
X27109999Y56550D01*
X27109999Y56550D02*
X27109999Y127979D01*
X27109999Y127979D02*
X27074285Y199408D01*
X27074285Y199408D02*
X27038571Y235122D01*
X27038571Y235122D02*
X26967142Y270836D01*
X26967142Y270836D02*
X26788571Y270836D01*
X26788571Y270836D02*
X26681428Y235122D01*
X26431428Y270836D02*
X26252856Y-479164D01*
X26252856Y-479164D02*
X26109999Y56550D01*
X26109999Y56550D02*
X25967142Y-479164D01*
X25967142Y-479164D02*
X25788571Y270836D01*
X25145713Y270836D02*
X25502856Y270836D01*
X25502856Y270836D02*
X25538570Y-86307D01*
X25538570Y-86307D02*
X25502856Y-50592D01*
X25502856Y-50592D02*
X25431428Y-14878D01*
X25431428Y-14878D02*
X25252856Y-14878D01*
X25252856Y-14878D02*
X25181428Y-50592D01*
X25181428Y-50592D02*
X25145713Y-86307D01*
X25145713Y-86307D02*
X25109999Y-157735D01*
X25109999Y-157735D02*
X25109999Y-336307D01*
X25109999Y-336307D02*
X25145713Y-407735D01*
X25145713Y-407735D02*
X25181428Y-443450D01*
X25181428Y-443450D02*
X25252856Y-479164D01*
X25252856Y-479164D02*
X25431428Y-479164D01*
X25431428Y-479164D02*
X25502856Y-443450D01*
X25502856Y-443450D02*
X25538570Y-407735D01*
X27367856Y-8436307D02*
X27617856Y-8436307D01*
X27617856Y-8829164D02*
X27617856Y-8079164D01*
X27617856Y-8079164D02*
X27260713Y-8079164D01*
X26617856Y-8829164D02*
X26974999Y-8829164D01*
X26974999Y-8829164D02*
X26974999Y-8079164D01*
X26403570Y-8614878D02*
X26046428Y-8614878D01*
X26474999Y-8829164D02*
X26224999Y-8079164D01*
X26224999Y-8079164D02*
X25974999Y-8829164D01*
X25760713Y-8793450D02*
X25653571Y-8829164D01*
X25653571Y-8829164D02*
X25474999Y-8829164D01*
X25474999Y-8829164D02*
X25403571Y-8793450D01*
X25403571Y-8793450D02*
X25367856Y-8757735D01*
X25367856Y-8757735D02*
X25332142Y-8686307D01*
X25332142Y-8686307D02*
X25332142Y-8614878D01*
X25332142Y-8614878D02*
X25367856Y-8543450D01*
X25367856Y-8543450D02*
X25403571Y-8507735D01*
X25403571Y-8507735D02*
X25474999Y-8472021D01*
X25474999Y-8472021D02*
X25617856Y-8436307D01*
X25617856Y-8436307D02*
X25689285Y-8400592D01*
X25689285Y-8400592D02*
X25724999Y-8364878D01*
X25724999Y-8364878D02*
X25760713Y-8293450D01*
X25760713Y-8293450D02*
X25760713Y-8222021D01*
X25760713Y-8222021D02*
X25724999Y-8150592D01*
X25724999Y-8150592D02*
X25689285Y-8114878D01*
X25689285Y-8114878D02*
X25617856Y-8079164D01*
X25617856Y-8079164D02*
X25439285Y-8079164D01*
X25439285Y-8079164D02*
X25332142Y-8114878D01*
X25010713Y-8829164D02*
X25010713Y-8079164D01*
X25010713Y-8436307D02*
X24582142Y-8436307D01*
X24582142Y-8829164D02*
X24582142Y-8079164D01*
X2842735Y16457144D02*
X2878450Y16492858D01*
X2878450Y16492858D02*
X2914164Y16600001D01*
X2914164Y16600001D02*
X2914164Y16671429D01*
X2914164Y16671429D02*
X2878450Y16778572D01*
X2878450Y16778572D02*
X2807021Y16850001D01*
X2807021Y16850001D02*
X2735592Y16885715D01*
X2735592Y16885715D02*
X2592735Y16921429D01*
X2592735Y16921429D02*
X2485592Y16921429D01*
X2485592Y16921429D02*
X2342735Y16885715D01*
X2342735Y16885715D02*
X2271307Y16850001D01*
X2271307Y16850001D02*
X2199878Y16778572D01*
X2199878Y16778572D02*
X2164164Y16671429D01*
X2164164Y16671429D02*
X2164164Y16600001D01*
X2164164Y16600001D02*
X2199878Y16492858D01*
X2199878Y16492858D02*
X2235592Y16457144D01*
X2914164Y15742858D02*
X2914164Y16171429D01*
X2914164Y15957144D02*
X2164164Y15957144D01*
X2164164Y15957144D02*
X2271307Y16028572D01*
X2271307Y16028572D02*
X2342735Y16100001D01*
X2342735Y16100001D02*
X2378450Y16171429D01*
X2235592Y15457143D02*
X2199878Y15421429D01*
X2199878Y15421429D02*
X2164164Y15350000D01*
X2164164Y15350000D02*
X2164164Y15171429D01*
X2164164Y15171429D02*
X2199878Y15100000D01*
X2199878Y15100000D02*
X2235592Y15064286D01*
X2235592Y15064286D02*
X2307021Y15028572D01*
X2307021Y15028572D02*
X2378450Y15028572D01*
X2378450Y15028572D02*
X2485592Y15064286D01*
X2485592Y15064286D02*
X2914164Y15492858D01*
X2914164Y15492858D02*
X2914164Y15028572D01*
X22339164Y47182144D02*
X21982021Y47432144D01*
X22339164Y47610715D02*
X21589164Y47610715D01*
X21589164Y47610715D02*
X21589164Y47325001D01*
X21589164Y47325001D02*
X21624878Y47253572D01*
X21624878Y47253572D02*
X21660592Y47217858D01*
X21660592Y47217858D02*
X21732021Y47182144D01*
X21732021Y47182144D02*
X21839164Y47182144D01*
X21839164Y47182144D02*
X21910592Y47217858D01*
X21910592Y47217858D02*
X21946307Y47253572D01*
X21946307Y47253572D02*
X21982021Y47325001D01*
X21982021Y47325001D02*
X21982021Y47610715D01*
X21839164Y46539286D02*
X22339164Y46539286D01*
X21553450Y46717858D02*
X22089164Y46896429D01*
X22089164Y46896429D02*
X22089164Y46432144D01*
X21589164Y46003572D02*
X21589164Y45932143D01*
X21589164Y45932143D02*
X21624878Y45860715D01*
X21624878Y45860715D02*
X21660592Y45825000D01*
X21660592Y45825000D02*
X21732021Y45789286D01*
X21732021Y45789286D02*
X21874878Y45753572D01*
X21874878Y45753572D02*
X22053450Y45753572D01*
X22053450Y45753572D02*
X22196307Y45789286D01*
X22196307Y45789286D02*
X22267735Y45825000D01*
X22267735Y45825000D02*
X22303450Y45860715D01*
X22303450Y45860715D02*
X22339164Y45932143D01*
X22339164Y45932143D02*
X22339164Y46003572D01*
X22339164Y46003572D02*
X22303450Y46075000D01*
X22303450Y46075000D02*
X22267735Y46110715D01*
X22267735Y46110715D02*
X22196307Y46146429D01*
X22196307Y46146429D02*
X22053450Y46182143D01*
X22053450Y46182143D02*
X21874878Y46182143D01*
X21874878Y46182143D02*
X21732021Y46146429D01*
X21732021Y46146429D02*
X21660592Y46110715D01*
X21660592Y46110715D02*
X21624878Y46075000D01*
X21624878Y46075000D02*
X21589164Y46003572D01*
X91469580Y56592858D02*
X91517200Y56640477D01*
X91517200Y56640477D02*
X91564819Y56783334D01*
X91564819Y56783334D02*
X91564819Y56878572D01*
X91564819Y56878572D02*
X91517200Y57021429D01*
X91517200Y57021429D02*
X91421961Y57116667D01*
X91421961Y57116667D02*
X91326723Y57164286D01*
X91326723Y57164286D02*
X91136247Y57211905D01*
X91136247Y57211905D02*
X90993390Y57211905D01*
X90993390Y57211905D02*
X90802914Y57164286D01*
X90802914Y57164286D02*
X90707676Y57116667D01*
X90707676Y57116667D02*
X90612438Y57021429D01*
X90612438Y57021429D02*
X90564819Y56878572D01*
X90564819Y56878572D02*
X90564819Y56783334D01*
X90564819Y56783334D02*
X90612438Y56640477D01*
X90612438Y56640477D02*
X90660057Y56592858D01*
X90564819Y56259524D02*
X90564819Y55592858D01*
X90564819Y55592858D02*
X91564819Y56021429D01*
X90564819Y55021429D02*
X90564819Y54926191D01*
X90564819Y54926191D02*
X90612438Y54830953D01*
X90612438Y54830953D02*
X90660057Y54783334D01*
X90660057Y54783334D02*
X90755295Y54735715D01*
X90755295Y54735715D02*
X90945771Y54688096D01*
X90945771Y54688096D02*
X91183866Y54688096D01*
X91183866Y54688096D02*
X91374342Y54735715D01*
X91374342Y54735715D02*
X91469580Y54783334D01*
X91469580Y54783334D02*
X91517200Y54830953D01*
X91517200Y54830953D02*
X91564819Y54926191D01*
X91564819Y54926191D02*
X91564819Y55021429D01*
X91564819Y55021429D02*
X91517200Y55116667D01*
X91517200Y55116667D02*
X91469580Y55164286D01*
X91469580Y55164286D02*
X91374342Y55211905D01*
X91374342Y55211905D02*
X91183866Y55259524D01*
X91183866Y55259524D02*
X90945771Y55259524D01*
X90945771Y55259524D02*
X90755295Y55211905D01*
X90755295Y55211905D02*
X90660057Y55164286D01*
X90660057Y55164286D02*
X90612438Y55116667D01*
X90612438Y55116667D02*
X90564819Y55021429D01*
X60210000Y67990836D02*
X60460000Y68347979D01*
X60638571Y67990836D02*
X60638571Y68740836D01*
X60638571Y68740836D02*
X60352857Y68740836D01*
X60352857Y68740836D02*
X60281428Y68705122D01*
X60281428Y68705122D02*
X60245714Y68669408D01*
X60245714Y68669408D02*
X60210000Y68597979D01*
X60210000Y68597979D02*
X60210000Y68490836D01*
X60210000Y68490836D02*
X60245714Y68419408D01*
X60245714Y68419408D02*
X60281428Y68383693D01*
X60281428Y68383693D02*
X60352857Y68347979D01*
X60352857Y68347979D02*
X60638571Y68347979D01*
X59495714Y67990836D02*
X59924285Y67990836D01*
X59710000Y67990836D02*
X59710000Y68740836D01*
X59710000Y68740836D02*
X59781428Y68633693D01*
X59781428Y68633693D02*
X59852857Y68562265D01*
X59852857Y68562265D02*
X59924285Y68526550D01*
X27284999Y72968693D02*
X27534999Y72968693D01*
X27534999Y72575836D02*
X27534999Y73325836D01*
X27534999Y73325836D02*
X27177856Y73325836D01*
X26570714Y73075836D02*
X26570714Y72575836D01*
X26749285Y73361550D02*
X26927856Y72825836D01*
X26927856Y72825836D02*
X26463571Y72825836D01*
X16771428Y16010836D02*
X16771428Y15403693D01*
X16771428Y15403693D02*
X16735714Y15332265D01*
X16735714Y15332265D02*
X16700000Y15296550D01*
X16700000Y15296550D02*
X16628571Y15260836D01*
X16628571Y15260836D02*
X16485714Y15260836D01*
X16485714Y15260836D02*
X16414285Y15296550D01*
X16414285Y15296550D02*
X16378571Y15332265D01*
X16378571Y15332265D02*
X16342857Y15403693D01*
X16342857Y15403693D02*
X16342857Y16010836D01*
X15628571Y16010836D02*
X15985714Y16010836D01*
X15985714Y16010836D02*
X16021428Y15653693D01*
X16021428Y15653693D02*
X15985714Y15689408D01*
X15985714Y15689408D02*
X15914286Y15725122D01*
X15914286Y15725122D02*
X15735714Y15725122D01*
X15735714Y15725122D02*
X15664286Y15689408D01*
X15664286Y15689408D02*
X15628571Y15653693D01*
X15628571Y15653693D02*
X15592857Y15582265D01*
X15592857Y15582265D02*
X15592857Y15403693D01*
X15592857Y15403693D02*
X15628571Y15332265D01*
X15628571Y15332265D02*
X15664286Y15296550D01*
X15664286Y15296550D02*
X15735714Y15260836D01*
X15735714Y15260836D02*
X15914286Y15260836D01*
X15914286Y15260836D02*
X15985714Y15296550D01*
X15985714Y15296550D02*
X16021428Y15332265D01*
X26311428Y58030836D02*
X26311428Y57423693D01*
X26311428Y57423693D02*
X26275714Y57352265D01*
X26275714Y57352265D02*
X26240000Y57316550D01*
X26240000Y57316550D02*
X26168571Y57280836D01*
X26168571Y57280836D02*
X26025714Y57280836D01*
X26025714Y57280836D02*
X25954285Y57316550D01*
X25954285Y57316550D02*
X25918571Y57352265D01*
X25918571Y57352265D02*
X25882857Y57423693D01*
X25882857Y57423693D02*
X25882857Y58030836D01*
X25490000Y57280836D02*
X25347143Y57280836D01*
X25347143Y57280836D02*
X25275714Y57316550D01*
X25275714Y57316550D02*
X25240000Y57352265D01*
X25240000Y57352265D02*
X25168571Y57459408D01*
X25168571Y57459408D02*
X25132857Y57602265D01*
X25132857Y57602265D02*
X25132857Y57887979D01*
X25132857Y57887979D02*
X25168571Y57959408D01*
X25168571Y57959408D02*
X25204286Y57995122D01*
X25204286Y57995122D02*
X25275714Y58030836D01*
X25275714Y58030836D02*
X25418571Y58030836D01*
X25418571Y58030836D02*
X25490000Y57995122D01*
X25490000Y57995122D02*
X25525714Y57959408D01*
X25525714Y57959408D02*
X25561428Y57887979D01*
X25561428Y57887979D02*
X25561428Y57709408D01*
X25561428Y57709408D02*
X25525714Y57637979D01*
X25525714Y57637979D02*
X25490000Y57602265D01*
X25490000Y57602265D02*
X25418571Y57566550D01*
X25418571Y57566550D02*
X25275714Y57566550D01*
X25275714Y57566550D02*
X25204286Y57602265D01*
X25204286Y57602265D02*
X25168571Y57637979D01*
X25168571Y57637979D02*
X25132857Y57709408D01*
X3025000Y-6964164D02*
X3275000Y-6607021D01*
X3453571Y-6964164D02*
X3453571Y-6214164D01*
X3453571Y-6214164D02*
X3167857Y-6214164D01*
X3167857Y-6214164D02*
X3096428Y-6249878D01*
X3096428Y-6249878D02*
X3060714Y-6285592D01*
X3060714Y-6285592D02*
X3025000Y-6357021D01*
X3025000Y-6357021D02*
X3025000Y-6464164D01*
X3025000Y-6464164D02*
X3060714Y-6535592D01*
X3060714Y-6535592D02*
X3096428Y-6571307D01*
X3096428Y-6571307D02*
X3167857Y-6607021D01*
X3167857Y-6607021D02*
X3453571Y-6607021D01*
X2667857Y-6964164D02*
X2525000Y-6964164D01*
X2525000Y-6964164D02*
X2453571Y-6928450D01*
X2453571Y-6928450D02*
X2417857Y-6892735D01*
X2417857Y-6892735D02*
X2346428Y-6785592D01*
X2346428Y-6785592D02*
X2310714Y-6642735D01*
X2310714Y-6642735D02*
X2310714Y-6357021D01*
X2310714Y-6357021D02*
X2346428Y-6285592D01*
X2346428Y-6285592D02*
X2382143Y-6249878D01*
X2382143Y-6249878D02*
X2453571Y-6214164D01*
X2453571Y-6214164D02*
X2596428Y-6214164D01*
X2596428Y-6214164D02*
X2667857Y-6249878D01*
X2667857Y-6249878D02*
X2703571Y-6285592D01*
X2703571Y-6285592D02*
X2739285Y-6357021D01*
X2739285Y-6357021D02*
X2739285Y-6535592D01*
X2739285Y-6535592D02*
X2703571Y-6607021D01*
X2703571Y-6607021D02*
X2667857Y-6642735D01*
X2667857Y-6642735D02*
X2596428Y-6678450D01*
X2596428Y-6678450D02*
X2453571Y-6678450D01*
X2453571Y-6678450D02*
X2382143Y-6642735D01*
X2382143Y-6642735D02*
X2346428Y-6607021D01*
X2346428Y-6607021D02*
X2310714Y-6535592D01*
X3050000Y-5464164D02*
X3300000Y-5107021D01*
X3478571Y-5464164D02*
X3478571Y-4714164D01*
X3478571Y-4714164D02*
X3192857Y-4714164D01*
X3192857Y-4714164D02*
X3121428Y-4749878D01*
X3121428Y-4749878D02*
X3085714Y-4785592D01*
X3085714Y-4785592D02*
X3050000Y-4857021D01*
X3050000Y-4857021D02*
X3050000Y-4964164D01*
X3050000Y-4964164D02*
X3085714Y-5035592D01*
X3085714Y-5035592D02*
X3121428Y-5071307D01*
X3121428Y-5071307D02*
X3192857Y-5107021D01*
X3192857Y-5107021D02*
X3478571Y-5107021D01*
X2621428Y-5035592D02*
X2692857Y-4999878D01*
X2692857Y-4999878D02*
X2728571Y-4964164D01*
X2728571Y-4964164D02*
X2764285Y-4892735D01*
X2764285Y-4892735D02*
X2764285Y-4857021D01*
X2764285Y-4857021D02*
X2728571Y-4785592D01*
X2728571Y-4785592D02*
X2692857Y-4749878D01*
X2692857Y-4749878D02*
X2621428Y-4714164D01*
X2621428Y-4714164D02*
X2478571Y-4714164D01*
X2478571Y-4714164D02*
X2407143Y-4749878D01*
X2407143Y-4749878D02*
X2371428Y-4785592D01*
X2371428Y-4785592D02*
X2335714Y-4857021D01*
X2335714Y-4857021D02*
X2335714Y-4892735D01*
X2335714Y-4892735D02*
X2371428Y-4964164D01*
X2371428Y-4964164D02*
X2407143Y-4999878D01*
X2407143Y-4999878D02*
X2478571Y-5035592D01*
X2478571Y-5035592D02*
X2621428Y-5035592D01*
X2621428Y-5035592D02*
X2692857Y-5071307D01*
X2692857Y-5071307D02*
X2728571Y-5107021D01*
X2728571Y-5107021D02*
X2764285Y-5178450D01*
X2764285Y-5178450D02*
X2764285Y-5321307D01*
X2764285Y-5321307D02*
X2728571Y-5392735D01*
X2728571Y-5392735D02*
X2692857Y-5428450D01*
X2692857Y-5428450D02*
X2621428Y-5464164D01*
X2621428Y-5464164D02*
X2478571Y-5464164D01*
X2478571Y-5464164D02*
X2407143Y-5428450D01*
X2407143Y-5428450D02*
X2371428Y-5392735D01*
X2371428Y-5392735D02*
X2335714Y-5321307D01*
X2335714Y-5321307D02*
X2335714Y-5178450D01*
X2335714Y-5178450D02*
X2371428Y-5107021D01*
X2371428Y-5107021D02*
X2407143Y-5071307D01*
X2407143Y-5071307D02*
X2478571Y-5035592D01*
X66152143Y-7399164D02*
X66402143Y-7042021D01*
X66580714Y-7399164D02*
X66580714Y-6649164D01*
X66580714Y-6649164D02*
X66295000Y-6649164D01*
X66295000Y-6649164D02*
X66223571Y-6684878D01*
X66223571Y-6684878D02*
X66187857Y-6720592D01*
X66187857Y-6720592D02*
X66152143Y-6792021D01*
X66152143Y-6792021D02*
X66152143Y-6899164D01*
X66152143Y-6899164D02*
X66187857Y-6970592D01*
X66187857Y-6970592D02*
X66223571Y-7006307D01*
X66223571Y-7006307D02*
X66295000Y-7042021D01*
X66295000Y-7042021D02*
X66580714Y-7042021D01*
X65866428Y-6720592D02*
X65830714Y-6684878D01*
X65830714Y-6684878D02*
X65759286Y-6649164D01*
X65759286Y-6649164D02*
X65580714Y-6649164D01*
X65580714Y-6649164D02*
X65509286Y-6684878D01*
X65509286Y-6684878D02*
X65473571Y-6720592D01*
X65473571Y-6720592D02*
X65437857Y-6792021D01*
X65437857Y-6792021D02*
X65437857Y-6863450D01*
X65437857Y-6863450D02*
X65473571Y-6970592D01*
X65473571Y-6970592D02*
X65902143Y-7399164D01*
X65902143Y-7399164D02*
X65437857Y-7399164D01*
X64795000Y-6649164D02*
X64937857Y-6649164D01*
X64937857Y-6649164D02*
X65009285Y-6684878D01*
X65009285Y-6684878D02*
X65045000Y-6720592D01*
X65045000Y-6720592D02*
X65116428Y-6827735D01*
X65116428Y-6827735D02*
X65152142Y-6970592D01*
X65152142Y-6970592D02*
X65152142Y-7256307D01*
X65152142Y-7256307D02*
X65116428Y-7327735D01*
X65116428Y-7327735D02*
X65080714Y-7363450D01*
X65080714Y-7363450D02*
X65009285Y-7399164D01*
X65009285Y-7399164D02*
X64866428Y-7399164D01*
X64866428Y-7399164D02*
X64795000Y-7363450D01*
X64795000Y-7363450D02*
X64759285Y-7327735D01*
X64759285Y-7327735D02*
X64723571Y-7256307D01*
X64723571Y-7256307D02*
X64723571Y-7077735D01*
X64723571Y-7077735D02*
X64759285Y-7006307D01*
X64759285Y-7006307D02*
X64795000Y-6970592D01*
X64795000Y-6970592D02*
X64866428Y-6934878D01*
X64866428Y-6934878D02*
X65009285Y-6934878D01*
X65009285Y-6934878D02*
X65080714Y-6970592D01*
X65080714Y-6970592D02*
X65116428Y-7006307D01*
X65116428Y-7006307D02*
X65152142Y-7077735D01*
X83182143Y67857265D02*
X83217857Y67821550D01*
X83217857Y67821550D02*
X83325000Y67785836D01*
X83325000Y67785836D02*
X83396428Y67785836D01*
X83396428Y67785836D02*
X83503571Y67821550D01*
X83503571Y67821550D02*
X83575000Y67892979D01*
X83575000Y67892979D02*
X83610714Y67964408D01*
X83610714Y67964408D02*
X83646428Y68107265D01*
X83646428Y68107265D02*
X83646428Y68214408D01*
X83646428Y68214408D02*
X83610714Y68357265D01*
X83610714Y68357265D02*
X83575000Y68428693D01*
X83575000Y68428693D02*
X83503571Y68500122D01*
X83503571Y68500122D02*
X83396428Y68535836D01*
X83396428Y68535836D02*
X83325000Y68535836D01*
X83325000Y68535836D02*
X83217857Y68500122D01*
X83217857Y68500122D02*
X83182143Y68464408D01*
X82539286Y68285836D02*
X82539286Y67785836D01*
X82717857Y68571550D02*
X82896428Y68035836D01*
X82896428Y68035836D02*
X82432143Y68035836D01*
X81789285Y68535836D02*
X82146428Y68535836D01*
X82146428Y68535836D02*
X82182142Y68178693D01*
X82182142Y68178693D02*
X82146428Y68214408D01*
X82146428Y68214408D02*
X82075000Y68250122D01*
X82075000Y68250122D02*
X81896428Y68250122D01*
X81896428Y68250122D02*
X81825000Y68214408D01*
X81825000Y68214408D02*
X81789285Y68178693D01*
X81789285Y68178693D02*
X81753571Y68107265D01*
X81753571Y68107265D02*
X81753571Y67928693D01*
X81753571Y67928693D02*
X81789285Y67857265D01*
X81789285Y67857265D02*
X81825000Y67821550D01*
X81825000Y67821550D02*
X81896428Y67785836D01*
X81896428Y67785836D02*
X82075000Y67785836D01*
X82075000Y67785836D02*
X82146428Y67821550D01*
X82146428Y67821550D02*
X82182142Y67857265D01*
X64695000Y71032265D02*
X64730714Y70996550D01*
X64730714Y70996550D02*
X64837857Y70960836D01*
X64837857Y70960836D02*
X64909285Y70960836D01*
X64909285Y70960836D02*
X65016428Y70996550D01*
X65016428Y70996550D02*
X65087857Y71067979D01*
X65087857Y71067979D02*
X65123571Y71139408D01*
X65123571Y71139408D02*
X65159285Y71282265D01*
X65159285Y71282265D02*
X65159285Y71389408D01*
X65159285Y71389408D02*
X65123571Y71532265D01*
X65123571Y71532265D02*
X65087857Y71603693D01*
X65087857Y71603693D02*
X65016428Y71675122D01*
X65016428Y71675122D02*
X64909285Y71710836D01*
X64909285Y71710836D02*
X64837857Y71710836D01*
X64837857Y71710836D02*
X64730714Y71675122D01*
X64730714Y71675122D02*
X64695000Y71639408D01*
X64409285Y71639408D02*
X64373571Y71675122D01*
X64373571Y71675122D02*
X64302143Y71710836D01*
X64302143Y71710836D02*
X64123571Y71710836D01*
X64123571Y71710836D02*
X64052143Y71675122D01*
X64052143Y71675122D02*
X64016428Y71639408D01*
X64016428Y71639408D02*
X63980714Y71567979D01*
X63980714Y71567979D02*
X63980714Y71496550D01*
X63980714Y71496550D02*
X64016428Y71389408D01*
X64016428Y71389408D02*
X64445000Y70960836D01*
X64445000Y70960836D02*
X63980714Y70960836D01*
X85821428Y-880592D02*
X85892857Y-844878D01*
X85892857Y-844878D02*
X85964285Y-773450D01*
X85964285Y-773450D02*
X86071428Y-666307D01*
X86071428Y-666307D02*
X86142857Y-630592D01*
X86142857Y-630592D02*
X86214285Y-630592D01*
X86178571Y-809164D02*
X86250000Y-773450D01*
X86250000Y-773450D02*
X86321428Y-702021D01*
X86321428Y-702021D02*
X86357142Y-559164D01*
X86357142Y-559164D02*
X86357142Y-309164D01*
X86357142Y-309164D02*
X86321428Y-166307D01*
X86321428Y-166307D02*
X86250000Y-94878D01*
X86250000Y-94878D02*
X86178571Y-59164D01*
X86178571Y-59164D02*
X86035714Y-59164D01*
X86035714Y-59164D02*
X85964285Y-94878D01*
X85964285Y-94878D02*
X85892857Y-166307D01*
X85892857Y-166307D02*
X85857142Y-309164D01*
X85857142Y-309164D02*
X85857142Y-559164D01*
X85857142Y-559164D02*
X85892857Y-702021D01*
X85892857Y-702021D02*
X85964285Y-773450D01*
X85964285Y-773450D02*
X86035714Y-809164D01*
X86035714Y-809164D02*
X86178571Y-809164D01*
X85178571Y-59164D02*
X85535714Y-59164D01*
X85535714Y-59164D02*
X85571428Y-416307D01*
X85571428Y-416307D02*
X85535714Y-380592D01*
X85535714Y-380592D02*
X85464286Y-344878D01*
X85464286Y-344878D02*
X85285714Y-344878D01*
X85285714Y-344878D02*
X85214286Y-380592D01*
X85214286Y-380592D02*
X85178571Y-416307D01*
X85178571Y-416307D02*
X85142857Y-487735D01*
X85142857Y-487735D02*
X85142857Y-666307D01*
X85142857Y-666307D02*
X85178571Y-737735D01*
X85178571Y-737735D02*
X85214286Y-773450D01*
X85214286Y-773450D02*
X85285714Y-809164D01*
X85285714Y-809164D02*
X85464286Y-809164D01*
X85464286Y-809164D02*
X85535714Y-773450D01*
X85535714Y-773450D02*
X85571428Y-737735D01*
X35927735Y48482144D02*
X35963450Y48517858D01*
X35963450Y48517858D02*
X35999164Y48625001D01*
X35999164Y48625001D02*
X35999164Y48696429D01*
X35999164Y48696429D02*
X35963450Y48803572D01*
X35963450Y48803572D02*
X35892021Y48875001D01*
X35892021Y48875001D02*
X35820592Y48910715D01*
X35820592Y48910715D02*
X35677735Y48946429D01*
X35677735Y48946429D02*
X35570592Y48946429D01*
X35570592Y48946429D02*
X35427735Y48910715D01*
X35427735Y48910715D02*
X35356307Y48875001D01*
X35356307Y48875001D02*
X35284878Y48803572D01*
X35284878Y48803572D02*
X35249164Y48696429D01*
X35249164Y48696429D02*
X35249164Y48625001D01*
X35249164Y48625001D02*
X35284878Y48517858D01*
X35284878Y48517858D02*
X35320592Y48482144D01*
X35249164Y48232144D02*
X35249164Y47767858D01*
X35249164Y47767858D02*
X35534878Y48017858D01*
X35534878Y48017858D02*
X35534878Y47910715D01*
X35534878Y47910715D02*
X35570592Y47839286D01*
X35570592Y47839286D02*
X35606307Y47803572D01*
X35606307Y47803572D02*
X35677735Y47767858D01*
X35677735Y47767858D02*
X35856307Y47767858D01*
X35856307Y47767858D02*
X35927735Y47803572D01*
X35927735Y47803572D02*
X35963450Y47839286D01*
X35963450Y47839286D02*
X35999164Y47910715D01*
X35999164Y47910715D02*
X35999164Y48125001D01*
X35999164Y48125001D02*
X35963450Y48196429D01*
X35963450Y48196429D02*
X35927735Y48232144D01*
X35999164Y47410715D02*
X35999164Y47267858D01*
X35999164Y47267858D02*
X35963450Y47196429D01*
X35963450Y47196429D02*
X35927735Y47160715D01*
X35927735Y47160715D02*
X35820592Y47089286D01*
X35820592Y47089286D02*
X35677735Y47053572D01*
X35677735Y47053572D02*
X35392021Y47053572D01*
X35392021Y47053572D02*
X35320592Y47089286D01*
X35320592Y47089286D02*
X35284878Y47125000D01*
X35284878Y47125000D02*
X35249164Y47196429D01*
X35249164Y47196429D02*
X35249164Y47339286D01*
X35249164Y47339286D02*
X35284878Y47410715D01*
X35284878Y47410715D02*
X35320592Y47446429D01*
X35320592Y47446429D02*
X35392021Y47482143D01*
X35392021Y47482143D02*
X35570592Y47482143D01*
X35570592Y47482143D02*
X35642021Y47446429D01*
X35642021Y47446429D02*
X35677735Y47410715D01*
X35677735Y47410715D02*
X35713450Y47339286D01*
X35713450Y47339286D02*
X35713450Y47196429D01*
X35713450Y47196429D02*
X35677735Y47125000D01*
X35677735Y47125000D02*
X35642021Y47089286D01*
X35642021Y47089286D02*
X35570592Y47053572D01*
X85732143Y70957265D02*
X85767857Y70921550D01*
X85767857Y70921550D02*
X85875000Y70885836D01*
X85875000Y70885836D02*
X85946428Y70885836D01*
X85946428Y70885836D02*
X86053571Y70921550D01*
X86053571Y70921550D02*
X86125000Y70992979D01*
X86125000Y70992979D02*
X86160714Y71064408D01*
X86160714Y71064408D02*
X86196428Y71207265D01*
X86196428Y71207265D02*
X86196428Y71314408D01*
X86196428Y71314408D02*
X86160714Y71457265D01*
X86160714Y71457265D02*
X86125000Y71528693D01*
X86125000Y71528693D02*
X86053571Y71600122D01*
X86053571Y71600122D02*
X85946428Y71635836D01*
X85946428Y71635836D02*
X85875000Y71635836D01*
X85875000Y71635836D02*
X85767857Y71600122D01*
X85767857Y71600122D02*
X85732143Y71564408D01*
X85089286Y71385836D02*
X85089286Y70885836D01*
X85267857Y71671550D02*
X85446428Y71135836D01*
X85446428Y71135836D02*
X84982143Y71135836D01*
X84660714Y70885836D02*
X84517857Y70885836D01*
X84517857Y70885836D02*
X84446428Y70921550D01*
X84446428Y70921550D02*
X84410714Y70957265D01*
X84410714Y70957265D02*
X84339285Y71064408D01*
X84339285Y71064408D02*
X84303571Y71207265D01*
X84303571Y71207265D02*
X84303571Y71492979D01*
X84303571Y71492979D02*
X84339285Y71564408D01*
X84339285Y71564408D02*
X84375000Y71600122D01*
X84375000Y71600122D02*
X84446428Y71635836D01*
X84446428Y71635836D02*
X84589285Y71635836D01*
X84589285Y71635836D02*
X84660714Y71600122D01*
X84660714Y71600122D02*
X84696428Y71564408D01*
X84696428Y71564408D02*
X84732142Y71492979D01*
X84732142Y71492979D02*
X84732142Y71314408D01*
X84732142Y71314408D02*
X84696428Y71242979D01*
X84696428Y71242979D02*
X84660714Y71207265D01*
X84660714Y71207265D02*
X84589285Y71171550D01*
X84589285Y71171550D02*
X84446428Y71171550D01*
X84446428Y71171550D02*
X84375000Y71207265D01*
X84375000Y71207265D02*
X84339285Y71242979D01*
X84339285Y71242979D02*
X84303571Y71314408D01*
X57872143Y-4207735D02*
X57907857Y-4243450D01*
X57907857Y-4243450D02*
X58015000Y-4279164D01*
X58015000Y-4279164D02*
X58086428Y-4279164D01*
X58086428Y-4279164D02*
X58193571Y-4243450D01*
X58193571Y-4243450D02*
X58265000Y-4172021D01*
X58265000Y-4172021D02*
X58300714Y-4100592D01*
X58300714Y-4100592D02*
X58336428Y-3957735D01*
X58336428Y-3957735D02*
X58336428Y-3850592D01*
X58336428Y-3850592D02*
X58300714Y-3707735D01*
X58300714Y-3707735D02*
X58265000Y-3636307D01*
X58265000Y-3636307D02*
X58193571Y-3564878D01*
X58193571Y-3564878D02*
X58086428Y-3529164D01*
X58086428Y-3529164D02*
X58015000Y-3529164D01*
X58015000Y-3529164D02*
X57907857Y-3564878D01*
X57907857Y-3564878D02*
X57872143Y-3600592D01*
X57586428Y-3600592D02*
X57550714Y-3564878D01*
X57550714Y-3564878D02*
X57479286Y-3529164D01*
X57479286Y-3529164D02*
X57300714Y-3529164D01*
X57300714Y-3529164D02*
X57229286Y-3564878D01*
X57229286Y-3564878D02*
X57193571Y-3600592D01*
X57193571Y-3600592D02*
X57157857Y-3672021D01*
X57157857Y-3672021D02*
X57157857Y-3743450D01*
X57157857Y-3743450D02*
X57193571Y-3850592D01*
X57193571Y-3850592D02*
X57622143Y-4279164D01*
X57622143Y-4279164D02*
X57157857Y-4279164D01*
X56693571Y-3529164D02*
X56622142Y-3529164D01*
X56622142Y-3529164D02*
X56550714Y-3564878D01*
X56550714Y-3564878D02*
X56515000Y-3600592D01*
X56515000Y-3600592D02*
X56479285Y-3672021D01*
X56479285Y-3672021D02*
X56443571Y-3814878D01*
X56443571Y-3814878D02*
X56443571Y-3993450D01*
X56443571Y-3993450D02*
X56479285Y-4136307D01*
X56479285Y-4136307D02*
X56515000Y-4207735D01*
X56515000Y-4207735D02*
X56550714Y-4243450D01*
X56550714Y-4243450D02*
X56622142Y-4279164D01*
X56622142Y-4279164D02*
X56693571Y-4279164D01*
X56693571Y-4279164D02*
X56765000Y-4243450D01*
X56765000Y-4243450D02*
X56800714Y-4207735D01*
X56800714Y-4207735D02*
X56836428Y-4136307D01*
X56836428Y-4136307D02*
X56872142Y-3993450D01*
X56872142Y-3993450D02*
X56872142Y-3814878D01*
X56872142Y-3814878D02*
X56836428Y-3672021D01*
X56836428Y-3672021D02*
X56800714Y-3600592D01*
X56800714Y-3600592D02*
X56765000Y-3564878D01*
X56765000Y-3564878D02*
X56693571Y-3529164D01*
X50457143Y73532265D02*
X50492857Y73496550D01*
X50492857Y73496550D02*
X50600000Y73460836D01*
X50600000Y73460836D02*
X50671428Y73460836D01*
X50671428Y73460836D02*
X50778571Y73496550D01*
X50778571Y73496550D02*
X50850000Y73567979D01*
X50850000Y73567979D02*
X50885714Y73639408D01*
X50885714Y73639408D02*
X50921428Y73782265D01*
X50921428Y73782265D02*
X50921428Y73889408D01*
X50921428Y73889408D02*
X50885714Y74032265D01*
X50885714Y74032265D02*
X50850000Y74103693D01*
X50850000Y74103693D02*
X50778571Y74175122D01*
X50778571Y74175122D02*
X50671428Y74210836D01*
X50671428Y74210836D02*
X50600000Y74210836D01*
X50600000Y74210836D02*
X50492857Y74175122D01*
X50492857Y74175122D02*
X50457143Y74139408D01*
X50207143Y74210836D02*
X49742857Y74210836D01*
X49742857Y74210836D02*
X49992857Y73925122D01*
X49992857Y73925122D02*
X49885714Y73925122D01*
X49885714Y73925122D02*
X49814286Y73889408D01*
X49814286Y73889408D02*
X49778571Y73853693D01*
X49778571Y73853693D02*
X49742857Y73782265D01*
X49742857Y73782265D02*
X49742857Y73603693D01*
X49742857Y73603693D02*
X49778571Y73532265D01*
X49778571Y73532265D02*
X49814286Y73496550D01*
X49814286Y73496550D02*
X49885714Y73460836D01*
X49885714Y73460836D02*
X50100000Y73460836D01*
X50100000Y73460836D02*
X50171428Y73496550D01*
X50171428Y73496550D02*
X50207143Y73532265D01*
X49028571Y73460836D02*
X49457142Y73460836D01*
X49242857Y73460836D02*
X49242857Y74210836D01*
X49242857Y74210836D02*
X49314285Y74103693D01*
X49314285Y74103693D02*
X49385714Y74032265D01*
X49385714Y74032265D02*
X49457142Y73996550D01*
X4769580Y24142863D02*
X4817200Y24190482D01*
X4817200Y24190482D02*
X4864819Y24333339D01*
X4864819Y24333339D02*
X4864819Y24428577D01*
X4864819Y24428577D02*
X4817200Y24571434D01*
X4817200Y24571434D02*
X4721961Y24666672D01*
X4721961Y24666672D02*
X4626723Y24714291D01*
X4626723Y24714291D02*
X4436247Y24761910D01*
X4436247Y24761910D02*
X4293390Y24761910D01*
X4293390Y24761910D02*
X4102914Y24714291D01*
X4102914Y24714291D02*
X4007676Y24666672D01*
X4007676Y24666672D02*
X3912438Y24571434D01*
X3912438Y24571434D02*
X3864819Y24428577D01*
X3864819Y24428577D02*
X3864819Y24333339D01*
X3864819Y24333339D02*
X3912438Y24190482D01*
X3912438Y24190482D02*
X3960057Y24142863D01*
X4864819Y23190482D02*
X4864819Y23761910D01*
X4864819Y23476196D02*
X3864819Y23476196D01*
X3864819Y23476196D02*
X4007676Y23571434D01*
X4007676Y23571434D02*
X4102914Y23666672D01*
X4102914Y23666672D02*
X4150533Y23761910D01*
X4293390Y22619053D02*
X4245771Y22714291D01*
X4245771Y22714291D02*
X4198152Y22761910D01*
X4198152Y22761910D02*
X4102914Y22809529D01*
X4102914Y22809529D02*
X4055295Y22809529D01*
X4055295Y22809529D02*
X3960057Y22761910D01*
X3960057Y22761910D02*
X3912438Y22714291D01*
X3912438Y22714291D02*
X3864819Y22619053D01*
X3864819Y22619053D02*
X3864819Y22428577D01*
X3864819Y22428577D02*
X3912438Y22333339D01*
X3912438Y22333339D02*
X3960057Y22285720D01*
X3960057Y22285720D02*
X4055295Y22238101D01*
X4055295Y22238101D02*
X4102914Y22238101D01*
X4102914Y22238101D02*
X4198152Y22285720D01*
X4198152Y22285720D02*
X4245771Y22333339D01*
X4245771Y22333339D02*
X4293390Y22428577D01*
X4293390Y22428577D02*
X4293390Y22619053D01*
X4293390Y22619053D02*
X4341009Y22714291D01*
X4341009Y22714291D02*
X4388628Y22761910D01*
X4388628Y22761910D02*
X4483866Y22809529D01*
X4483866Y22809529D02*
X4674342Y22809529D01*
X4674342Y22809529D02*
X4769580Y22761910D01*
X4769580Y22761910D02*
X4817200Y22714291D01*
X4817200Y22714291D02*
X4864819Y22619053D01*
X4864819Y22619053D02*
X4864819Y22428577D01*
X4864819Y22428577D02*
X4817200Y22333339D01*
X4817200Y22333339D02*
X4769580Y22285720D01*
X4769580Y22285720D02*
X4674342Y22238101D01*
X4674342Y22238101D02*
X4483866Y22238101D01*
X4483866Y22238101D02*
X4388628Y22285720D01*
X4388628Y22285720D02*
X4341009Y22333339D01*
X4341009Y22333339D02*
X4293390Y22428577D01*
X29732143Y73532265D02*
X29767857Y73496550D01*
X29767857Y73496550D02*
X29875000Y73460836D01*
X29875000Y73460836D02*
X29946428Y73460836D01*
X29946428Y73460836D02*
X30053571Y73496550D01*
X30053571Y73496550D02*
X30125000Y73567979D01*
X30125000Y73567979D02*
X30160714Y73639408D01*
X30160714Y73639408D02*
X30196428Y73782265D01*
X30196428Y73782265D02*
X30196428Y73889408D01*
X30196428Y73889408D02*
X30160714Y74032265D01*
X30160714Y74032265D02*
X30125000Y74103693D01*
X30125000Y74103693D02*
X30053571Y74175122D01*
X30053571Y74175122D02*
X29946428Y74210836D01*
X29946428Y74210836D02*
X29875000Y74210836D01*
X29875000Y74210836D02*
X29767857Y74175122D01*
X29767857Y74175122D02*
X29732143Y74139408D01*
X29482143Y74210836D02*
X29017857Y74210836D01*
X29017857Y74210836D02*
X29267857Y73925122D01*
X29267857Y73925122D02*
X29160714Y73925122D01*
X29160714Y73925122D02*
X29089286Y73889408D01*
X29089286Y73889408D02*
X29053571Y73853693D01*
X29053571Y73853693D02*
X29017857Y73782265D01*
X29017857Y73782265D02*
X29017857Y73603693D01*
X29017857Y73603693D02*
X29053571Y73532265D01*
X29053571Y73532265D02*
X29089286Y73496550D01*
X29089286Y73496550D02*
X29160714Y73460836D01*
X29160714Y73460836D02*
X29375000Y73460836D01*
X29375000Y73460836D02*
X29446428Y73496550D01*
X29446428Y73496550D02*
X29482143Y73532265D01*
X28375000Y74210836D02*
X28517857Y74210836D01*
X28517857Y74210836D02*
X28589285Y74175122D01*
X28589285Y74175122D02*
X28625000Y74139408D01*
X28625000Y74139408D02*
X28696428Y74032265D01*
X28696428Y74032265D02*
X28732142Y73889408D01*
X28732142Y73889408D02*
X28732142Y73603693D01*
X28732142Y73603693D02*
X28696428Y73532265D01*
X28696428Y73532265D02*
X28660714Y73496550D01*
X28660714Y73496550D02*
X28589285Y73460836D01*
X28589285Y73460836D02*
X28446428Y73460836D01*
X28446428Y73460836D02*
X28375000Y73496550D01*
X28375000Y73496550D02*
X28339285Y73532265D01*
X28339285Y73532265D02*
X28303571Y73603693D01*
X28303571Y73603693D02*
X28303571Y73782265D01*
X28303571Y73782265D02*
X28339285Y73853693D01*
X28339285Y73853693D02*
X28375000Y73889408D01*
X28375000Y73889408D02*
X28446428Y73925122D01*
X28446428Y73925122D02*
X28589285Y73925122D01*
X28589285Y73925122D02*
X28660714Y73889408D01*
X28660714Y73889408D02*
X28696428Y73853693D01*
X28696428Y73853693D02*
X28732142Y73782265D01*
X14090592Y-7298571D02*
X14054878Y-7227142D01*
X14054878Y-7227142D02*
X13983450Y-7155714D01*
X13983450Y-7155714D02*
X13876307Y-7048571D01*
X13876307Y-7048571D02*
X13840592Y-6977142D01*
X13840592Y-6977142D02*
X13840592Y-6905714D01*
X14019164Y-6941428D02*
X13983450Y-6870000D01*
X13983450Y-6870000D02*
X13912021Y-6798571D01*
X13912021Y-6798571D02*
X13769164Y-6762857D01*
X13769164Y-6762857D02*
X13519164Y-6762857D01*
X13519164Y-6762857D02*
X13376307Y-6798571D01*
X13376307Y-6798571D02*
X13304878Y-6870000D01*
X13304878Y-6870000D02*
X13269164Y-6941428D01*
X13269164Y-6941428D02*
X13269164Y-7084285D01*
X13269164Y-7084285D02*
X13304878Y-7155714D01*
X13304878Y-7155714D02*
X13376307Y-7227142D01*
X13376307Y-7227142D02*
X13519164Y-7262857D01*
X13519164Y-7262857D02*
X13769164Y-7262857D01*
X13769164Y-7262857D02*
X13912021Y-7227142D01*
X13912021Y-7227142D02*
X13983450Y-7155714D01*
X13983450Y-7155714D02*
X14019164Y-7084285D01*
X14019164Y-7084285D02*
X14019164Y-6941428D01*
X13269164Y-7512856D02*
X13269164Y-7977142D01*
X13269164Y-7977142D02*
X13554878Y-7727142D01*
X13554878Y-7727142D02*
X13554878Y-7834285D01*
X13554878Y-7834285D02*
X13590592Y-7905714D01*
X13590592Y-7905714D02*
X13626307Y-7941428D01*
X13626307Y-7941428D02*
X13697735Y-7977142D01*
X13697735Y-7977142D02*
X13876307Y-7977142D01*
X13876307Y-7977142D02*
X13947735Y-7941428D01*
X13947735Y-7941428D02*
X13983450Y-7905714D01*
X13983450Y-7905714D02*
X14019164Y-7834285D01*
X14019164Y-7834285D02*
X14019164Y-7619999D01*
X14019164Y-7619999D02*
X13983450Y-7548571D01*
X13983450Y-7548571D02*
X13947735Y-7512856D01*
X45957143Y73532265D02*
X45992857Y73496550D01*
X45992857Y73496550D02*
X46100000Y73460836D01*
X46100000Y73460836D02*
X46171428Y73460836D01*
X46171428Y73460836D02*
X46278571Y73496550D01*
X46278571Y73496550D02*
X46350000Y73567979D01*
X46350000Y73567979D02*
X46385714Y73639408D01*
X46385714Y73639408D02*
X46421428Y73782265D01*
X46421428Y73782265D02*
X46421428Y73889408D01*
X46421428Y73889408D02*
X46385714Y74032265D01*
X46385714Y74032265D02*
X46350000Y74103693D01*
X46350000Y74103693D02*
X46278571Y74175122D01*
X46278571Y74175122D02*
X46171428Y74210836D01*
X46171428Y74210836D02*
X46100000Y74210836D01*
X46100000Y74210836D02*
X45992857Y74175122D01*
X45992857Y74175122D02*
X45957143Y74139408D01*
X45707143Y74210836D02*
X45242857Y74210836D01*
X45242857Y74210836D02*
X45492857Y73925122D01*
X45492857Y73925122D02*
X45385714Y73925122D01*
X45385714Y73925122D02*
X45314286Y73889408D01*
X45314286Y73889408D02*
X45278571Y73853693D01*
X45278571Y73853693D02*
X45242857Y73782265D01*
X45242857Y73782265D02*
X45242857Y73603693D01*
X45242857Y73603693D02*
X45278571Y73532265D01*
X45278571Y73532265D02*
X45314286Y73496550D01*
X45314286Y73496550D02*
X45385714Y73460836D01*
X45385714Y73460836D02*
X45600000Y73460836D01*
X45600000Y73460836D02*
X45671428Y73496550D01*
X45671428Y73496550D02*
X45707143Y73532265D01*
X44564285Y74210836D02*
X44921428Y74210836D01*
X44921428Y74210836D02*
X44957142Y73853693D01*
X44957142Y73853693D02*
X44921428Y73889408D01*
X44921428Y73889408D02*
X44850000Y73925122D01*
X44850000Y73925122D02*
X44671428Y73925122D01*
X44671428Y73925122D02*
X44600000Y73889408D01*
X44600000Y73889408D02*
X44564285Y73853693D01*
X44564285Y73853693D02*
X44528571Y73782265D01*
X44528571Y73782265D02*
X44528571Y73603693D01*
X44528571Y73603693D02*
X44564285Y73532265D01*
X44564285Y73532265D02*
X44600000Y73496550D01*
X44600000Y73496550D02*
X44671428Y73460836D01*
X44671428Y73460836D02*
X44850000Y73460836D01*
X44850000Y73460836D02*
X44921428Y73496550D01*
X44921428Y73496550D02*
X44957142Y73532265D01*
X65575000Y74185836D02*
X65825000Y74542979D01*
X66003571Y74185836D02*
X66003571Y74935836D01*
X66003571Y74935836D02*
X65717857Y74935836D01*
X65717857Y74935836D02*
X65646428Y74900122D01*
X65646428Y74900122D02*
X65610714Y74864408D01*
X65610714Y74864408D02*
X65575000Y74792979D01*
X65575000Y74792979D02*
X65575000Y74685836D01*
X65575000Y74685836D02*
X65610714Y74614408D01*
X65610714Y74614408D02*
X65646428Y74578693D01*
X65646428Y74578693D02*
X65717857Y74542979D01*
X65717857Y74542979D02*
X66003571Y74542979D01*
X64896428Y74935836D02*
X65253571Y74935836D01*
X65253571Y74935836D02*
X65289285Y74578693D01*
X65289285Y74578693D02*
X65253571Y74614408D01*
X65253571Y74614408D02*
X65182143Y74650122D01*
X65182143Y74650122D02*
X65003571Y74650122D01*
X65003571Y74650122D02*
X64932143Y74614408D01*
X64932143Y74614408D02*
X64896428Y74578693D01*
X64896428Y74578693D02*
X64860714Y74507265D01*
X64860714Y74507265D02*
X64860714Y74328693D01*
X64860714Y74328693D02*
X64896428Y74257265D01*
X64896428Y74257265D02*
X64932143Y74221550D01*
X64932143Y74221550D02*
X65003571Y74185836D01*
X65003571Y74185836D02*
X65182143Y74185836D01*
X65182143Y74185836D02*
X65253571Y74221550D01*
X65253571Y74221550D02*
X65289285Y74257265D01*
X63142143Y-1929164D02*
X63392143Y-1572021D01*
X63570714Y-1929164D02*
X63570714Y-1179164D01*
X63570714Y-1179164D02*
X63285000Y-1179164D01*
X63285000Y-1179164D02*
X63213571Y-1214878D01*
X63213571Y-1214878D02*
X63177857Y-1250592D01*
X63177857Y-1250592D02*
X63142143Y-1322021D01*
X63142143Y-1322021D02*
X63142143Y-1429164D01*
X63142143Y-1429164D02*
X63177857Y-1500592D01*
X63177857Y-1500592D02*
X63213571Y-1536307D01*
X63213571Y-1536307D02*
X63285000Y-1572021D01*
X63285000Y-1572021D02*
X63570714Y-1572021D01*
X62856428Y-1250592D02*
X62820714Y-1214878D01*
X62820714Y-1214878D02*
X62749286Y-1179164D01*
X62749286Y-1179164D02*
X62570714Y-1179164D01*
X62570714Y-1179164D02*
X62499286Y-1214878D01*
X62499286Y-1214878D02*
X62463571Y-1250592D01*
X62463571Y-1250592D02*
X62427857Y-1322021D01*
X62427857Y-1322021D02*
X62427857Y-1393450D01*
X62427857Y-1393450D02*
X62463571Y-1500592D01*
X62463571Y-1500592D02*
X62892143Y-1929164D01*
X62892143Y-1929164D02*
X62427857Y-1929164D01*
X61963571Y-1179164D02*
X61892142Y-1179164D01*
X61892142Y-1179164D02*
X61820714Y-1214878D01*
X61820714Y-1214878D02*
X61785000Y-1250592D01*
X61785000Y-1250592D02*
X61749285Y-1322021D01*
X61749285Y-1322021D02*
X61713571Y-1464878D01*
X61713571Y-1464878D02*
X61713571Y-1643450D01*
X61713571Y-1643450D02*
X61749285Y-1786307D01*
X61749285Y-1786307D02*
X61785000Y-1857735D01*
X61785000Y-1857735D02*
X61820714Y-1893450D01*
X61820714Y-1893450D02*
X61892142Y-1929164D01*
X61892142Y-1929164D02*
X61963571Y-1929164D01*
X61963571Y-1929164D02*
X62035000Y-1893450D01*
X62035000Y-1893450D02*
X62070714Y-1857735D01*
X62070714Y-1857735D02*
X62106428Y-1786307D01*
X62106428Y-1786307D02*
X62142142Y-1643450D01*
X62142142Y-1643450D02*
X62142142Y-1464878D01*
X62142142Y-1464878D02*
X62106428Y-1322021D01*
X62106428Y-1322021D02*
X62070714Y-1250592D01*
X62070714Y-1250592D02*
X62035000Y-1214878D01*
X62035000Y-1214878D02*
X61963571Y-1179164D01*
X4449580Y24142858D02*
X4497200Y24190477D01*
X4497200Y24190477D02*
X4544819Y24333334D01*
X4544819Y24333334D02*
X4544819Y24428572D01*
X4544819Y24428572D02*
X4497200Y24571429D01*
X4497200Y24571429D02*
X4401961Y24666667D01*
X4401961Y24666667D02*
X4306723Y24714286D01*
X4306723Y24714286D02*
X4116247Y24761905D01*
X4116247Y24761905D02*
X3973390Y24761905D01*
X3973390Y24761905D02*
X3782914Y24714286D01*
X3782914Y24714286D02*
X3687676Y24666667D01*
X3687676Y24666667D02*
X3592438Y24571429D01*
X3592438Y24571429D02*
X3544819Y24428572D01*
X3544819Y24428572D02*
X3544819Y24333334D01*
X3544819Y24333334D02*
X3592438Y24190477D01*
X3592438Y24190477D02*
X3640057Y24142858D01*
X4544819Y23190477D02*
X4544819Y23761905D01*
X4544819Y23476191D02*
X3544819Y23476191D01*
X3544819Y23476191D02*
X3687676Y23571429D01*
X3687676Y23571429D02*
X3782914Y23666667D01*
X3782914Y23666667D02*
X3830533Y23761905D01*
X4544819Y22714286D02*
X4544819Y22523810D01*
X4544819Y22523810D02*
X4497200Y22428572D01*
X4497200Y22428572D02*
X4449580Y22380953D01*
X4449580Y22380953D02*
X4306723Y22285715D01*
X4306723Y22285715D02*
X4116247Y22238096D01*
X4116247Y22238096D02*
X3735295Y22238096D01*
X3735295Y22238096D02*
X3640057Y22285715D01*
X3640057Y22285715D02*
X3592438Y22333334D01*
X3592438Y22333334D02*
X3544819Y22428572D01*
X3544819Y22428572D02*
X3544819Y22619048D01*
X3544819Y22619048D02*
X3592438Y22714286D01*
X3592438Y22714286D02*
X3640057Y22761905D01*
X3640057Y22761905D02*
X3735295Y22809524D01*
X3735295Y22809524D02*
X3973390Y22809524D01*
X3973390Y22809524D02*
X4068628Y22761905D01*
X4068628Y22761905D02*
X4116247Y22714286D01*
X4116247Y22714286D02*
X4163866Y22619048D01*
X4163866Y22619048D02*
X4163866Y22428572D01*
X4163866Y22428572D02*
X4116247Y22333334D01*
X4116247Y22333334D02*
X4068628Y22285715D01*
X4068628Y22285715D02*
X3973390Y22238096D01*
X93882143Y67907265D02*
X93917857Y67871550D01*
X93917857Y67871550D02*
X94025000Y67835836D01*
X94025000Y67835836D02*
X94096428Y67835836D01*
X94096428Y67835836D02*
X94203571Y67871550D01*
X94203571Y67871550D02*
X94275000Y67942979D01*
X94275000Y67942979D02*
X94310714Y68014408D01*
X94310714Y68014408D02*
X94346428Y68157265D01*
X94346428Y68157265D02*
X94346428Y68264408D01*
X94346428Y68264408D02*
X94310714Y68407265D01*
X94310714Y68407265D02*
X94275000Y68478693D01*
X94275000Y68478693D02*
X94203571Y68550122D01*
X94203571Y68550122D02*
X94096428Y68585836D01*
X94096428Y68585836D02*
X94025000Y68585836D01*
X94025000Y68585836D02*
X93917857Y68550122D01*
X93917857Y68550122D02*
X93882143Y68514408D01*
X93239286Y68335836D02*
X93239286Y67835836D01*
X93417857Y68621550D02*
X93596428Y68085836D01*
X93596428Y68085836D02*
X93132143Y68085836D01*
X92917857Y68585836D02*
X92417857Y68585836D01*
X92417857Y68585836D02*
X92739285Y67835836D01*
X71682143Y60982265D02*
X71717857Y60946550D01*
X71717857Y60946550D02*
X71825000Y60910836D01*
X71825000Y60910836D02*
X71896428Y60910836D01*
X71896428Y60910836D02*
X72003571Y60946550D01*
X72003571Y60946550D02*
X72075000Y61017979D01*
X72075000Y61017979D02*
X72110714Y61089408D01*
X72110714Y61089408D02*
X72146428Y61232265D01*
X72146428Y61232265D02*
X72146428Y61339408D01*
X72146428Y61339408D02*
X72110714Y61482265D01*
X72110714Y61482265D02*
X72075000Y61553693D01*
X72075000Y61553693D02*
X72003571Y61625122D01*
X72003571Y61625122D02*
X71896428Y61660836D01*
X71896428Y61660836D02*
X71825000Y61660836D01*
X71825000Y61660836D02*
X71717857Y61625122D01*
X71717857Y61625122D02*
X71682143Y61589408D01*
X71039286Y61660836D02*
X71182143Y61660836D01*
X71182143Y61660836D02*
X71253571Y61625122D01*
X71253571Y61625122D02*
X71289286Y61589408D01*
X71289286Y61589408D02*
X71360714Y61482265D01*
X71360714Y61482265D02*
X71396428Y61339408D01*
X71396428Y61339408D02*
X71396428Y61053693D01*
X71396428Y61053693D02*
X71360714Y60982265D01*
X71360714Y60982265D02*
X71325000Y60946550D01*
X71325000Y60946550D02*
X71253571Y60910836D01*
X71253571Y60910836D02*
X71110714Y60910836D01*
X71110714Y60910836D02*
X71039286Y60946550D01*
X71039286Y60946550D02*
X71003571Y60982265D01*
X71003571Y60982265D02*
X70967857Y61053693D01*
X70967857Y61053693D02*
X70967857Y61232265D01*
X70967857Y61232265D02*
X71003571Y61303693D01*
X71003571Y61303693D02*
X71039286Y61339408D01*
X71039286Y61339408D02*
X71110714Y61375122D01*
X71110714Y61375122D02*
X71253571Y61375122D01*
X71253571Y61375122D02*
X71325000Y61339408D01*
X71325000Y61339408D02*
X71360714Y61303693D01*
X71360714Y61303693D02*
X71396428Y61232265D01*
X70682142Y61589408D02*
X70646428Y61625122D01*
X70646428Y61625122D02*
X70575000Y61660836D01*
X70575000Y61660836D02*
X70396428Y61660836D01*
X70396428Y61660836D02*
X70325000Y61625122D01*
X70325000Y61625122D02*
X70289285Y61589408D01*
X70289285Y61589408D02*
X70253571Y61517979D01*
X70253571Y61517979D02*
X70253571Y61446550D01*
X70253571Y61446550D02*
X70289285Y61339408D01*
X70289285Y61339408D02*
X70717857Y60910836D01*
X70717857Y60910836D02*
X70253571Y60910836D01*
X43515005Y72927694D02*
X43765005Y72927694D01*
X43765005Y72534837D02*
X43765005Y73284837D01*
X43765005Y73284837D02*
X43407862Y73284837D01*
X43193577Y73284837D02*
X42729291Y73284837D01*
X42729291Y73284837D02*
X42979291Y72999123D01*
X42979291Y72999123D02*
X42872148Y72999123D01*
X42872148Y72999123D02*
X42800720Y72963409D01*
X42800720Y72963409D02*
X42765005Y72927694D01*
X42765005Y72927694D02*
X42729291Y72856266D01*
X42729291Y72856266D02*
X42729291Y72677694D01*
X42729291Y72677694D02*
X42765005Y72606266D01*
X42765005Y72606266D02*
X42800720Y72570551D01*
X42800720Y72570551D02*
X42872148Y72534837D01*
X42872148Y72534837D02*
X43086434Y72534837D01*
X43086434Y72534837D02*
X43157862Y72570551D01*
X43157862Y72570551D02*
X43193577Y72606266D01*
X87714164Y7942144D02*
X87357021Y8192144D01*
X87714164Y8370715D02*
X86964164Y8370715D01*
X86964164Y8370715D02*
X86964164Y8085001D01*
X86964164Y8085001D02*
X86999878Y8013572D01*
X86999878Y8013572D02*
X87035592Y7977858D01*
X87035592Y7977858D02*
X87107021Y7942144D01*
X87107021Y7942144D02*
X87214164Y7942144D01*
X87214164Y7942144D02*
X87285592Y7977858D01*
X87285592Y7977858D02*
X87321307Y8013572D01*
X87321307Y8013572D02*
X87357021Y8085001D01*
X87357021Y8085001D02*
X87357021Y8370715D01*
X87035592Y7656429D02*
X86999878Y7620715D01*
X86999878Y7620715D02*
X86964164Y7549286D01*
X86964164Y7549286D02*
X86964164Y7370715D01*
X86964164Y7370715D02*
X86999878Y7299286D01*
X86999878Y7299286D02*
X87035592Y7263572D01*
X87035592Y7263572D02*
X87107021Y7227858D01*
X87107021Y7227858D02*
X87178450Y7227858D01*
X87178450Y7227858D02*
X87285592Y7263572D01*
X87285592Y7263572D02*
X87714164Y7692144D01*
X87714164Y7692144D02*
X87714164Y7227858D01*
X87714164Y6513572D02*
X87714164Y6942143D01*
X87714164Y6727858D02*
X86964164Y6727858D01*
X86964164Y6727858D02*
X87071307Y6799286D01*
X87071307Y6799286D02*
X87142735Y6870715D01*
X87142735Y6870715D02*
X87178450Y6942143D01*
X34212143Y74372265D02*
X34247857Y74336550D01*
X34247857Y74336550D02*
X34355000Y74300836D01*
X34355000Y74300836D02*
X34426428Y74300836D01*
X34426428Y74300836D02*
X34533571Y74336550D01*
X34533571Y74336550D02*
X34605000Y74407979D01*
X34605000Y74407979D02*
X34640714Y74479408D01*
X34640714Y74479408D02*
X34676428Y74622265D01*
X34676428Y74622265D02*
X34676428Y74729408D01*
X34676428Y74729408D02*
X34640714Y74872265D01*
X34640714Y74872265D02*
X34605000Y74943693D01*
X34605000Y74943693D02*
X34533571Y75015122D01*
X34533571Y75015122D02*
X34426428Y75050836D01*
X34426428Y75050836D02*
X34355000Y75050836D01*
X34355000Y75050836D02*
X34247857Y75015122D01*
X34247857Y75015122D02*
X34212143Y74979408D01*
X33962143Y75050836D02*
X33497857Y75050836D01*
X33497857Y75050836D02*
X33747857Y74765122D01*
X33747857Y74765122D02*
X33640714Y74765122D01*
X33640714Y74765122D02*
X33569286Y74729408D01*
X33569286Y74729408D02*
X33533571Y74693693D01*
X33533571Y74693693D02*
X33497857Y74622265D01*
X33497857Y74622265D02*
X33497857Y74443693D01*
X33497857Y74443693D02*
X33533571Y74372265D01*
X33533571Y74372265D02*
X33569286Y74336550D01*
X33569286Y74336550D02*
X33640714Y74300836D01*
X33640714Y74300836D02*
X33855000Y74300836D01*
X33855000Y74300836D02*
X33926428Y74336550D01*
X33926428Y74336550D02*
X33962143Y74372265D01*
X33212142Y74979408D02*
X33176428Y75015122D01*
X33176428Y75015122D02*
X33105000Y75050836D01*
X33105000Y75050836D02*
X32926428Y75050836D01*
X32926428Y75050836D02*
X32855000Y75015122D01*
X32855000Y75015122D02*
X32819285Y74979408D01*
X32819285Y74979408D02*
X32783571Y74907979D01*
X32783571Y74907979D02*
X32783571Y74836550D01*
X32783571Y74836550D02*
X32819285Y74729408D01*
X32819285Y74729408D02*
X33247857Y74300836D01*
X33247857Y74300836D02*
X32783571Y74300836D01*
X82357143Y-16047735D02*
X82392857Y-16083450D01*
X82392857Y-16083450D02*
X82500000Y-16119164D01*
X82500000Y-16119164D02*
X82571428Y-16119164D01*
X82571428Y-16119164D02*
X82678571Y-16083450D01*
X82678571Y-16083450D02*
X82750000Y-16012021D01*
X82750000Y-16012021D02*
X82785714Y-15940592D01*
X82785714Y-15940592D02*
X82821428Y-15797735D01*
X82821428Y-15797735D02*
X82821428Y-15690592D01*
X82821428Y-15690592D02*
X82785714Y-15547735D01*
X82785714Y-15547735D02*
X82750000Y-15476307D01*
X82750000Y-15476307D02*
X82678571Y-15404878D01*
X82678571Y-15404878D02*
X82571428Y-15369164D01*
X82571428Y-15369164D02*
X82500000Y-15369164D01*
X82500000Y-15369164D02*
X82392857Y-15404878D01*
X82392857Y-15404878D02*
X82357143Y-15440592D01*
X81714286Y-15369164D02*
X81857143Y-15369164D01*
X81857143Y-15369164D02*
X81928571Y-15404878D01*
X81928571Y-15404878D02*
X81964286Y-15440592D01*
X81964286Y-15440592D02*
X82035714Y-15547735D01*
X82035714Y-15547735D02*
X82071428Y-15690592D01*
X82071428Y-15690592D02*
X82071428Y-15976307D01*
X82071428Y-15976307D02*
X82035714Y-16047735D01*
X82035714Y-16047735D02*
X82000000Y-16083450D01*
X82000000Y-16083450D02*
X81928571Y-16119164D01*
X81928571Y-16119164D02*
X81785714Y-16119164D01*
X81785714Y-16119164D02*
X81714286Y-16083450D01*
X81714286Y-16083450D02*
X81678571Y-16047735D01*
X81678571Y-16047735D02*
X81642857Y-15976307D01*
X81642857Y-15976307D02*
X81642857Y-15797735D01*
X81642857Y-15797735D02*
X81678571Y-15726307D01*
X81678571Y-15726307D02*
X81714286Y-15690592D01*
X81714286Y-15690592D02*
X81785714Y-15654878D01*
X81785714Y-15654878D02*
X81928571Y-15654878D01*
X81928571Y-15654878D02*
X82000000Y-15690592D01*
X82000000Y-15690592D02*
X82035714Y-15726307D01*
X82035714Y-15726307D02*
X82071428Y-15797735D01*
X81214285Y-15690592D02*
X81285714Y-15654878D01*
X81285714Y-15654878D02*
X81321428Y-15619164D01*
X81321428Y-15619164D02*
X81357142Y-15547735D01*
X81357142Y-15547735D02*
X81357142Y-15512021D01*
X81357142Y-15512021D02*
X81321428Y-15440592D01*
X81321428Y-15440592D02*
X81285714Y-15404878D01*
X81285714Y-15404878D02*
X81214285Y-15369164D01*
X81214285Y-15369164D02*
X81071428Y-15369164D01*
X81071428Y-15369164D02*
X81000000Y-15404878D01*
X81000000Y-15404878D02*
X80964285Y-15440592D01*
X80964285Y-15440592D02*
X80928571Y-15512021D01*
X80928571Y-15512021D02*
X80928571Y-15547735D01*
X80928571Y-15547735D02*
X80964285Y-15619164D01*
X80964285Y-15619164D02*
X81000000Y-15654878D01*
X81000000Y-15654878D02*
X81071428Y-15690592D01*
X81071428Y-15690592D02*
X81214285Y-15690592D01*
X81214285Y-15690592D02*
X81285714Y-15726307D01*
X81285714Y-15726307D02*
X81321428Y-15762021D01*
X81321428Y-15762021D02*
X81357142Y-15833450D01*
X81357142Y-15833450D02*
X81357142Y-15976307D01*
X81357142Y-15976307D02*
X81321428Y-16047735D01*
X81321428Y-16047735D02*
X81285714Y-16083450D01*
X81285714Y-16083450D02*
X81214285Y-16119164D01*
X81214285Y-16119164D02*
X81071428Y-16119164D01*
X81071428Y-16119164D02*
X81000000Y-16083450D01*
X81000000Y-16083450D02*
X80964285Y-16047735D01*
X80964285Y-16047735D02*
X80928571Y-15976307D01*
X80928571Y-15976307D02*
X80928571Y-15833450D01*
X80928571Y-15833450D02*
X80964285Y-15762021D01*
X80964285Y-15762021D02*
X81000000Y-15726307D01*
X81000000Y-15726307D02*
X81071428Y-15690592D01*
X88381428Y-13670592D02*
X88452857Y-13634878D01*
X88452857Y-13634878D02*
X88524285Y-13563450D01*
X88524285Y-13563450D02*
X88631428Y-13456307D01*
X88631428Y-13456307D02*
X88702857Y-13420592D01*
X88702857Y-13420592D02*
X88774285Y-13420592D01*
X88738571Y-13599164D02*
X88810000Y-13563450D01*
X88810000Y-13563450D02*
X88881428Y-13492021D01*
X88881428Y-13492021D02*
X88917142Y-13349164D01*
X88917142Y-13349164D02*
X88917142Y-13099164D01*
X88917142Y-13099164D02*
X88881428Y-12956307D01*
X88881428Y-12956307D02*
X88810000Y-12884878D01*
X88810000Y-12884878D02*
X88738571Y-12849164D01*
X88738571Y-12849164D02*
X88595714Y-12849164D01*
X88595714Y-12849164D02*
X88524285Y-12884878D01*
X88524285Y-12884878D02*
X88452857Y-12956307D01*
X88452857Y-12956307D02*
X88417142Y-13099164D01*
X88417142Y-13099164D02*
X88417142Y-13349164D01*
X88417142Y-13349164D02*
X88452857Y-13492021D01*
X88452857Y-13492021D02*
X88524285Y-13563450D01*
X88524285Y-13563450D02*
X88595714Y-13599164D01*
X88595714Y-13599164D02*
X88738571Y-13599164D01*
X87774286Y-12849164D02*
X87917143Y-12849164D01*
X87917143Y-12849164D02*
X87988571Y-12884878D01*
X87988571Y-12884878D02*
X88024286Y-12920592D01*
X88024286Y-12920592D02*
X88095714Y-13027735D01*
X88095714Y-13027735D02*
X88131428Y-13170592D01*
X88131428Y-13170592D02*
X88131428Y-13456307D01*
X88131428Y-13456307D02*
X88095714Y-13527735D01*
X88095714Y-13527735D02*
X88060000Y-13563450D01*
X88060000Y-13563450D02*
X87988571Y-13599164D01*
X87988571Y-13599164D02*
X87845714Y-13599164D01*
X87845714Y-13599164D02*
X87774286Y-13563450D01*
X87774286Y-13563450D02*
X87738571Y-13527735D01*
X87738571Y-13527735D02*
X87702857Y-13456307D01*
X87702857Y-13456307D02*
X87702857Y-13277735D01*
X87702857Y-13277735D02*
X87738571Y-13206307D01*
X87738571Y-13206307D02*
X87774286Y-13170592D01*
X87774286Y-13170592D02*
X87845714Y-13134878D01*
X87845714Y-13134878D02*
X87988571Y-13134878D01*
X87988571Y-13134878D02*
X88060000Y-13170592D01*
X88060000Y-13170592D02*
X88095714Y-13206307D01*
X88095714Y-13206307D02*
X88131428Y-13277735D01*
X78749164Y-837856D02*
X78392021Y-587856D01*
X78749164Y-409285D02*
X77999164Y-409285D01*
X77999164Y-409285D02*
X77999164Y-694999D01*
X77999164Y-694999D02*
X78034878Y-766428D01*
X78034878Y-766428D02*
X78070592Y-802142D01*
X78070592Y-802142D02*
X78142021Y-837856D01*
X78142021Y-837856D02*
X78249164Y-837856D01*
X78249164Y-837856D02*
X78320592Y-802142D01*
X78320592Y-802142D02*
X78356307Y-766428D01*
X78356307Y-766428D02*
X78392021Y-694999D01*
X78392021Y-694999D02*
X78392021Y-409285D01*
X78070592Y-1123571D02*
X78034878Y-1159285D01*
X78034878Y-1159285D02*
X77999164Y-1230714D01*
X77999164Y-1230714D02*
X77999164Y-1409285D01*
X77999164Y-1409285D02*
X78034878Y-1480714D01*
X78034878Y-1480714D02*
X78070592Y-1516428D01*
X78070592Y-1516428D02*
X78142021Y-1552142D01*
X78142021Y-1552142D02*
X78213450Y-1552142D01*
X78213450Y-1552142D02*
X78320592Y-1516428D01*
X78320592Y-1516428D02*
X78749164Y-1087856D01*
X78749164Y-1087856D02*
X78749164Y-1552142D01*
X77999164Y-1802142D02*
X77999164Y-2302142D01*
X77999164Y-2302142D02*
X78749164Y-1980714D01*
X97481428Y-13650592D02*
X97552857Y-13614878D01*
X97552857Y-13614878D02*
X97624285Y-13543450D01*
X97624285Y-13543450D02*
X97731428Y-13436307D01*
X97731428Y-13436307D02*
X97802857Y-13400592D01*
X97802857Y-13400592D02*
X97874285Y-13400592D01*
X97838571Y-13579164D02*
X97910000Y-13543450D01*
X97910000Y-13543450D02*
X97981428Y-13472021D01*
X97981428Y-13472021D02*
X98017142Y-13329164D01*
X98017142Y-13329164D02*
X98017142Y-13079164D01*
X98017142Y-13079164D02*
X97981428Y-12936307D01*
X97981428Y-12936307D02*
X97910000Y-12864878D01*
X97910000Y-12864878D02*
X97838571Y-12829164D01*
X97838571Y-12829164D02*
X97695714Y-12829164D01*
X97695714Y-12829164D02*
X97624285Y-12864878D01*
X97624285Y-12864878D02*
X97552857Y-12936307D01*
X97552857Y-12936307D02*
X97517142Y-13079164D01*
X97517142Y-13079164D02*
X97517142Y-13329164D01*
X97517142Y-13329164D02*
X97552857Y-13472021D01*
X97552857Y-13472021D02*
X97624285Y-13543450D01*
X97624285Y-13543450D02*
X97695714Y-13579164D01*
X97695714Y-13579164D02*
X97838571Y-13579164D01*
X97267143Y-12829164D02*
X96767143Y-12829164D01*
X96767143Y-12829164D02*
X97088571Y-13579164D01*
D10*
X35669166Y38540047D02*
X35669166Y37814332D01*
X35669166Y37814332D02*
X35717547Y37669189D01*
X35717547Y37669189D02*
X35814309Y37572427D01*
X35814309Y37572427D02*
X35959452Y37524047D01*
X35959452Y37524047D02*
X36056214Y37524047D01*
X34749928Y38201380D02*
X34749928Y37524047D01*
X34991833Y38588427D02*
X35233738Y37862713D01*
X35233738Y37862713D02*
X34604785Y37862713D01*
D11*
X48464999Y57295836D02*
X48464999Y56760122D01*
X48464999Y56760122D02*
X48500714Y56652979D01*
X48500714Y56652979D02*
X48572142Y56581550D01*
X48572142Y56581550D02*
X48679285Y56545836D01*
X48679285Y56545836D02*
X48750714Y56545836D01*
X48107856Y56545836D02*
X48107856Y57295836D01*
X48107856Y57295836D02*
X47822142Y57295836D01*
X47822142Y57295836D02*
X47750713Y57260122D01*
X47750713Y57260122D02*
X47714999Y57224408D01*
X47714999Y57224408D02*
X47679285Y57152979D01*
X47679285Y57152979D02*
X47679285Y57045836D01*
X47679285Y57045836D02*
X47714999Y56974408D01*
X47714999Y56974408D02*
X47750713Y56938693D01*
X47750713Y56938693D02*
X47822142Y56902979D01*
X47822142Y56902979D02*
X48107856Y56902979D01*
X46964999Y56545836D02*
X47393570Y56545836D01*
X47179285Y56545836D02*
X47179285Y57295836D01*
X47179285Y57295836D02*
X47250713Y57188693D01*
X47250713Y57188693D02*
X47322142Y57117265D01*
X47322142Y57117265D02*
X47393570Y57081550D01*
X46814285Y58635836D02*
X46814285Y59385836D01*
X46814285Y59028693D02*
X46385714Y59028693D01*
X46385714Y58635836D02*
X46385714Y59385836D01*
X46028571Y58635836D02*
X46028571Y59385836D01*
X45671428Y58635836D02*
X45671428Y59385836D01*
X45671428Y59385836D02*
X45492857Y59385836D01*
X45492857Y59385836D02*
X45385714Y59350122D01*
X45385714Y59350122D02*
X45314285Y59278693D01*
X45314285Y59278693D02*
X45278571Y59207265D01*
X45278571Y59207265D02*
X45242857Y59064408D01*
X45242857Y59064408D02*
X45242857Y58957265D01*
X45242857Y58957265D02*
X45278571Y58814408D01*
X45278571Y58814408D02*
X45314285Y58742979D01*
X45314285Y58742979D02*
X45385714Y58671550D01*
X45385714Y58671550D02*
X45492857Y58635836D01*
X45492857Y58635836D02*
X45671428Y58635836D01*
X45100000Y58564408D02*
X44528571Y58564408D01*
X44349999Y58635836D02*
X44349999Y59385836D01*
X44349999Y59385836D02*
X44064285Y59385836D01*
X44064285Y59385836D02*
X43992856Y59350122D01*
X43992856Y59350122D02*
X43957142Y59314408D01*
X43957142Y59314408D02*
X43921428Y59242979D01*
X43921428Y59242979D02*
X43921428Y59135836D01*
X43921428Y59135836D02*
X43957142Y59064408D01*
X43957142Y59064408D02*
X43992856Y59028693D01*
X43992856Y59028693D02*
X44064285Y58992979D01*
X44064285Y58992979D02*
X44349999Y58992979D01*
X43457142Y59385836D02*
X43314285Y59385836D01*
X43314285Y59385836D02*
X43242856Y59350122D01*
X43242856Y59350122D02*
X43171428Y59278693D01*
X43171428Y59278693D02*
X43135713Y59135836D01*
X43135713Y59135836D02*
X43135713Y58885836D01*
X43135713Y58885836D02*
X43171428Y58742979D01*
X43171428Y58742979D02*
X43242856Y58671550D01*
X43242856Y58671550D02*
X43314285Y58635836D01*
X43314285Y58635836D02*
X43457142Y58635836D01*
X43457142Y58635836D02*
X43528571Y58671550D01*
X43528571Y58671550D02*
X43599999Y58742979D01*
X43599999Y58742979D02*
X43635713Y58885836D01*
X43635713Y58885836D02*
X43635713Y59135836D01*
X43635713Y59135836D02*
X43599999Y59278693D01*
X43599999Y59278693D02*
X43528571Y59350122D01*
X43528571Y59350122D02*
X43457142Y59385836D01*
X42885714Y59385836D02*
X42707142Y58635836D01*
X42707142Y58635836D02*
X42564285Y59171550D01*
X42564285Y59171550D02*
X42421428Y58635836D01*
X42421428Y58635836D02*
X42242857Y59385836D01*
X41957142Y59028693D02*
X41707142Y59028693D01*
X41599999Y58635836D02*
X41957142Y58635836D01*
X41957142Y58635836D02*
X41957142Y59385836D01*
X41957142Y59385836D02*
X41599999Y59385836D01*
X40850000Y58635836D02*
X41100000Y58992979D01*
X41278571Y58635836D02*
X41278571Y59385836D01*
X41278571Y59385836D02*
X40992857Y59385836D01*
X40992857Y59385836D02*
X40921428Y59350122D01*
X40921428Y59350122D02*
X40885714Y59314408D01*
X40885714Y59314408D02*
X40850000Y59242979D01*
X40850000Y59242979D02*
X40850000Y59135836D01*
X40850000Y59135836D02*
X40885714Y59064408D01*
X40885714Y59064408D02*
X40921428Y59028693D01*
X40921428Y59028693D02*
X40992857Y58992979D01*
X40992857Y58992979D02*
X41278571Y58992979D01*
X23864164Y47182144D02*
X23507021Y47432144D01*
X23864164Y47610715D02*
X23114164Y47610715D01*
X23114164Y47610715D02*
X23114164Y47325001D01*
X23114164Y47325001D02*
X23149878Y47253572D01*
X23149878Y47253572D02*
X23185592Y47217858D01*
X23185592Y47217858D02*
X23257021Y47182144D01*
X23257021Y47182144D02*
X23364164Y47182144D01*
X23364164Y47182144D02*
X23435592Y47217858D01*
X23435592Y47217858D02*
X23471307Y47253572D01*
X23471307Y47253572D02*
X23507021Y47325001D01*
X23507021Y47325001D02*
X23507021Y47610715D01*
X23114164Y46932144D02*
X23114164Y46467858D01*
X23114164Y46467858D02*
X23399878Y46717858D01*
X23399878Y46717858D02*
X23399878Y46610715D01*
X23399878Y46610715D02*
X23435592Y46539286D01*
X23435592Y46539286D02*
X23471307Y46503572D01*
X23471307Y46503572D02*
X23542735Y46467858D01*
X23542735Y46467858D02*
X23721307Y46467858D01*
X23721307Y46467858D02*
X23792735Y46503572D01*
X23792735Y46503572D02*
X23828450Y46539286D01*
X23828450Y46539286D02*
X23864164Y46610715D01*
X23864164Y46610715D02*
X23864164Y46825001D01*
X23864164Y46825001D02*
X23828450Y46896429D01*
X23828450Y46896429D02*
X23792735Y46932144D01*
X23864164Y46110715D02*
X23864164Y45967858D01*
X23864164Y45967858D02*
X23828450Y45896429D01*
X23828450Y45896429D02*
X23792735Y45860715D01*
X23792735Y45860715D02*
X23685592Y45789286D01*
X23685592Y45789286D02*
X23542735Y45753572D01*
X23542735Y45753572D02*
X23257021Y45753572D01*
X23257021Y45753572D02*
X23185592Y45789286D01*
X23185592Y45789286D02*
X23149878Y45825000D01*
X23149878Y45825000D02*
X23114164Y45896429D01*
X23114164Y45896429D02*
X23114164Y46039286D01*
X23114164Y46039286D02*
X23149878Y46110715D01*
X23149878Y46110715D02*
X23185592Y46146429D01*
X23185592Y46146429D02*
X23257021Y46182143D01*
X23257021Y46182143D02*
X23435592Y46182143D01*
X23435592Y46182143D02*
X23507021Y46146429D01*
X23507021Y46146429D02*
X23542735Y46110715D01*
X23542735Y46110715D02*
X23578450Y46039286D01*
X23578450Y46039286D02*
X23578450Y45896429D01*
X23578450Y45896429D02*
X23542735Y45825000D01*
X23542735Y45825000D02*
X23507021Y45789286D01*
X23507021Y45789286D02*
X23435592Y45753572D01*
X14010592Y-3968571D02*
X13974878Y-3897142D01*
X13974878Y-3897142D02*
X13903450Y-3825714D01*
X13903450Y-3825714D02*
X13796307Y-3718571D01*
X13796307Y-3718571D02*
X13760592Y-3647142D01*
X13760592Y-3647142D02*
X13760592Y-3575714D01*
X13939164Y-3611428D02*
X13903450Y-3540000D01*
X13903450Y-3540000D02*
X13832021Y-3468571D01*
X13832021Y-3468571D02*
X13689164Y-3432857D01*
X13689164Y-3432857D02*
X13439164Y-3432857D01*
X13439164Y-3432857D02*
X13296307Y-3468571D01*
X13296307Y-3468571D02*
X13224878Y-3540000D01*
X13224878Y-3540000D02*
X13189164Y-3611428D01*
X13189164Y-3611428D02*
X13189164Y-3754285D01*
X13189164Y-3754285D02*
X13224878Y-3825714D01*
X13224878Y-3825714D02*
X13296307Y-3897142D01*
X13296307Y-3897142D02*
X13439164Y-3932857D01*
X13439164Y-3932857D02*
X13689164Y-3932857D01*
X13689164Y-3932857D02*
X13832021Y-3897142D01*
X13832021Y-3897142D02*
X13903450Y-3825714D01*
X13903450Y-3825714D02*
X13939164Y-3754285D01*
X13939164Y-3754285D02*
X13939164Y-3611428D01*
X13260592Y-4218571D02*
X13224878Y-4254285D01*
X13224878Y-4254285D02*
X13189164Y-4325714D01*
X13189164Y-4325714D02*
X13189164Y-4504285D01*
X13189164Y-4504285D02*
X13224878Y-4575714D01*
X13224878Y-4575714D02*
X13260592Y-4611428D01*
X13260592Y-4611428D02*
X13332021Y-4647142D01*
X13332021Y-4647142D02*
X13403450Y-4647142D01*
X13403450Y-4647142D02*
X13510592Y-4611428D01*
X13510592Y-4611428D02*
X13939164Y-4182856D01*
X13939164Y-4182856D02*
X13939164Y-4647142D01*
X94569285Y33073693D02*
X94462142Y33037979D01*
X94462142Y33037979D02*
X94426428Y33002265D01*
X94426428Y33002265D02*
X94390714Y32930836D01*
X94390714Y32930836D02*
X94390714Y32823693D01*
X94390714Y32823693D02*
X94426428Y32752265D01*
X94426428Y32752265D02*
X94462142Y32716550D01*
X94462142Y32716550D02*
X94533571Y32680836D01*
X94533571Y32680836D02*
X94819285Y32680836D01*
X94819285Y32680836D02*
X94819285Y33430836D01*
X94819285Y33430836D02*
X94569285Y33430836D01*
X94569285Y33430836D02*
X94497857Y33395122D01*
X94497857Y33395122D02*
X94462142Y33359408D01*
X94462142Y33359408D02*
X94426428Y33287979D01*
X94426428Y33287979D02*
X94426428Y33216550D01*
X94426428Y33216550D02*
X94462142Y33145122D01*
X94462142Y33145122D02*
X94497857Y33109408D01*
X94497857Y33109408D02*
X94569285Y33073693D01*
X94569285Y33073693D02*
X94819285Y33073693D01*
X94176428Y33430836D02*
X93747857Y33430836D01*
X93962142Y32680836D02*
X93962142Y33430836D01*
X93104999Y32680836D02*
X93533570Y32680836D01*
X93319285Y32680836D02*
X93319285Y33430836D01*
X93319285Y33430836D02*
X93390713Y33323693D01*
X93390713Y33323693D02*
X93462142Y33252265D01*
X93462142Y33252265D02*
X93533570Y33216550D01*
X95591429Y11622265D02*
X95627143Y11586550D01*
X95627143Y11586550D02*
X95734286Y11550836D01*
X95734286Y11550836D02*
X95805714Y11550836D01*
X95805714Y11550836D02*
X95912857Y11586550D01*
X95912857Y11586550D02*
X95984286Y11657979D01*
X95984286Y11657979D02*
X96020000Y11729408D01*
X96020000Y11729408D02*
X96055714Y11872265D01*
X96055714Y11872265D02*
X96055714Y11979408D01*
X96055714Y11979408D02*
X96020000Y12122265D01*
X96020000Y12122265D02*
X95984286Y12193693D01*
X95984286Y12193693D02*
X95912857Y12265122D01*
X95912857Y12265122D02*
X95805714Y12300836D01*
X95805714Y12300836D02*
X95734286Y12300836D01*
X95734286Y12300836D02*
X95627143Y12265122D01*
X95627143Y12265122D02*
X95591429Y12229408D01*
X94841429Y11550836D02*
X95091429Y11907979D01*
X95270000Y11550836D02*
X95270000Y12300836D01*
X95270000Y12300836D02*
X94984286Y12300836D01*
X94984286Y12300836D02*
X94912857Y12265122D01*
X94912857Y12265122D02*
X94877143Y12229408D01*
X94877143Y12229408D02*
X94841429Y12157979D01*
X94841429Y12157979D02*
X94841429Y12050836D01*
X94841429Y12050836D02*
X94877143Y11979408D01*
X94877143Y11979408D02*
X94912857Y11943693D01*
X94912857Y11943693D02*
X94984286Y11907979D01*
X94984286Y11907979D02*
X95270000Y11907979D01*
X94127143Y11550836D02*
X94555714Y11550836D01*
X94341429Y11550836D02*
X94341429Y12300836D01*
X94341429Y12300836D02*
X94412857Y12193693D01*
X94412857Y12193693D02*
X94484286Y12122265D01*
X94484286Y12122265D02*
X94555714Y12086550D01*
X93841428Y12229408D02*
X93805714Y12265122D01*
X93805714Y12265122D02*
X93734286Y12300836D01*
X93734286Y12300836D02*
X93555714Y12300836D01*
X93555714Y12300836D02*
X93484286Y12265122D01*
X93484286Y12265122D02*
X93448571Y12229408D01*
X93448571Y12229408D02*
X93412857Y12157979D01*
X93412857Y12157979D02*
X93412857Y12086550D01*
X93412857Y12086550D02*
X93448571Y11979408D01*
X93448571Y11979408D02*
X93877143Y11550836D01*
X93877143Y11550836D02*
X93412857Y11550836D01*
X93127142Y12229408D02*
X93091428Y12265122D01*
X93091428Y12265122D02*
X93020000Y12300836D01*
X93020000Y12300836D02*
X92841428Y12300836D01*
X92841428Y12300836D02*
X92770000Y12265122D01*
X92770000Y12265122D02*
X92734285Y12229408D01*
X92734285Y12229408D02*
X92698571Y12157979D01*
X92698571Y12157979D02*
X92698571Y12086550D01*
X92698571Y12086550D02*
X92734285Y11979408D01*
X92734285Y11979408D02*
X93162857Y11550836D01*
X93162857Y11550836D02*
X92698571Y11550836D01*
X92234285Y12300836D02*
X92162856Y12300836D01*
X92162856Y12300836D02*
X92091428Y12265122D01*
X92091428Y12265122D02*
X92055714Y12229408D01*
X92055714Y12229408D02*
X92019999Y12157979D01*
X92019999Y12157979D02*
X91984285Y12015122D01*
X91984285Y12015122D02*
X91984285Y11836550D01*
X91984285Y11836550D02*
X92019999Y11693693D01*
X92019999Y11693693D02*
X92055714Y11622265D01*
X92055714Y11622265D02*
X92091428Y11586550D01*
X92091428Y11586550D02*
X92162856Y11550836D01*
X92162856Y11550836D02*
X92234285Y11550836D01*
X92234285Y11550836D02*
X92305714Y11586550D01*
X92305714Y11586550D02*
X92341428Y11622265D01*
X92341428Y11622265D02*
X92377142Y11693693D01*
X92377142Y11693693D02*
X92412856Y11836550D01*
X92412856Y11836550D02*
X92412856Y12015122D01*
X92412856Y12015122D02*
X92377142Y12157979D01*
X92377142Y12157979D02*
X92341428Y12229408D01*
X92341428Y12229408D02*
X92305714Y12265122D01*
X92305714Y12265122D02*
X92234285Y12300836D01*
X71202143Y-7529164D02*
X71452143Y-7172021D01*
X71630714Y-7529164D02*
X71630714Y-6779164D01*
X71630714Y-6779164D02*
X71345000Y-6779164D01*
X71345000Y-6779164D02*
X71273571Y-6814878D01*
X71273571Y-6814878D02*
X71237857Y-6850592D01*
X71237857Y-6850592D02*
X71202143Y-6922021D01*
X71202143Y-6922021D02*
X71202143Y-7029164D01*
X71202143Y-7029164D02*
X71237857Y-7100592D01*
X71237857Y-7100592D02*
X71273571Y-7136307D01*
X71273571Y-7136307D02*
X71345000Y-7172021D01*
X71345000Y-7172021D02*
X71630714Y-7172021D01*
X70952143Y-6779164D02*
X70487857Y-6779164D01*
X70487857Y-6779164D02*
X70737857Y-7064878D01*
X70737857Y-7064878D02*
X70630714Y-7064878D01*
X70630714Y-7064878D02*
X70559286Y-7100592D01*
X70559286Y-7100592D02*
X70523571Y-7136307D01*
X70523571Y-7136307D02*
X70487857Y-7207735D01*
X70487857Y-7207735D02*
X70487857Y-7386307D01*
X70487857Y-7386307D02*
X70523571Y-7457735D01*
X70523571Y-7457735D02*
X70559286Y-7493450D01*
X70559286Y-7493450D02*
X70630714Y-7529164D01*
X70630714Y-7529164D02*
X70845000Y-7529164D01*
X70845000Y-7529164D02*
X70916428Y-7493450D01*
X70916428Y-7493450D02*
X70952143Y-7457735D01*
X70023571Y-6779164D02*
X69952142Y-6779164D01*
X69952142Y-6779164D02*
X69880714Y-6814878D01*
X69880714Y-6814878D02*
X69845000Y-6850592D01*
X69845000Y-6850592D02*
X69809285Y-6922021D01*
X69809285Y-6922021D02*
X69773571Y-7064878D01*
X69773571Y-7064878D02*
X69773571Y-7243450D01*
X69773571Y-7243450D02*
X69809285Y-7386307D01*
X69809285Y-7386307D02*
X69845000Y-7457735D01*
X69845000Y-7457735D02*
X69880714Y-7493450D01*
X69880714Y-7493450D02*
X69952142Y-7529164D01*
X69952142Y-7529164D02*
X70023571Y-7529164D01*
X70023571Y-7529164D02*
X70095000Y-7493450D01*
X70095000Y-7493450D02*
X70130714Y-7457735D01*
X70130714Y-7457735D02*
X70166428Y-7386307D01*
X70166428Y-7386307D02*
X70202142Y-7243450D01*
X70202142Y-7243450D02*
X70202142Y-7064878D01*
X70202142Y-7064878D02*
X70166428Y-6922021D01*
X70166428Y-6922021D02*
X70130714Y-6850592D01*
X70130714Y-6850592D02*
X70095000Y-6814878D01*
X70095000Y-6814878D02*
X70023571Y-6779164D01*
X66917500Y67970836D02*
X67167500Y68327979D01*
X67346071Y67970836D02*
X67346071Y68720836D01*
X67346071Y68720836D02*
X67060357Y68720836D01*
X67060357Y68720836D02*
X66988928Y68685122D01*
X66988928Y68685122D02*
X66953214Y68649408D01*
X66953214Y68649408D02*
X66917500Y68577979D01*
X66917500Y68577979D02*
X66917500Y68470836D01*
X66917500Y68470836D02*
X66953214Y68399408D01*
X66953214Y68399408D02*
X66988928Y68363693D01*
X66988928Y68363693D02*
X67060357Y68327979D01*
X67060357Y68327979D02*
X67346071Y68327979D01*
X66274643Y68470836D02*
X66274643Y67970836D01*
X66453214Y68756550D02*
X66631785Y68220836D01*
X66631785Y68220836D02*
X66167500Y68220836D01*
X61582143Y73185836D02*
X61832143Y73542979D01*
X62010714Y73185836D02*
X62010714Y73935836D01*
X62010714Y73935836D02*
X61725000Y73935836D01*
X61725000Y73935836D02*
X61653571Y73900122D01*
X61653571Y73900122D02*
X61617857Y73864408D01*
X61617857Y73864408D02*
X61582143Y73792979D01*
X61582143Y73792979D02*
X61582143Y73685836D01*
X61582143Y73685836D02*
X61617857Y73614408D01*
X61617857Y73614408D02*
X61653571Y73578693D01*
X61653571Y73578693D02*
X61725000Y73542979D01*
X61725000Y73542979D02*
X62010714Y73542979D01*
X60867857Y73185836D02*
X61296428Y73185836D01*
X61082143Y73185836D02*
X61082143Y73935836D01*
X61082143Y73935836D02*
X61153571Y73828693D01*
X61153571Y73828693D02*
X61225000Y73757265D01*
X61225000Y73757265D02*
X61296428Y73721550D01*
X60153571Y73185836D02*
X60582142Y73185836D01*
X60367857Y73185836D02*
X60367857Y73935836D01*
X60367857Y73935836D02*
X60439285Y73828693D01*
X60439285Y73828693D02*
X60510714Y73757265D01*
X60510714Y73757265D02*
X60582142Y73721550D01*
X6542735Y9007144D02*
X6578450Y9042858D01*
X6578450Y9042858D02*
X6614164Y9150001D01*
X6614164Y9150001D02*
X6614164Y9221429D01*
X6614164Y9221429D02*
X6578450Y9328572D01*
X6578450Y9328572D02*
X6507021Y9400001D01*
X6507021Y9400001D02*
X6435592Y9435715D01*
X6435592Y9435715D02*
X6292735Y9471429D01*
X6292735Y9471429D02*
X6185592Y9471429D01*
X6185592Y9471429D02*
X6042735Y9435715D01*
X6042735Y9435715D02*
X5971307Y9400001D01*
X5971307Y9400001D02*
X5899878Y9328572D01*
X5899878Y9328572D02*
X5864164Y9221429D01*
X5864164Y9221429D02*
X5864164Y9150001D01*
X5864164Y9150001D02*
X5899878Y9042858D01*
X5899878Y9042858D02*
X5935592Y9007144D01*
X6614164Y8292858D02*
X6614164Y8721429D01*
X6614164Y8507144D02*
X5864164Y8507144D01*
X5864164Y8507144D02*
X5971307Y8578572D01*
X5971307Y8578572D02*
X6042735Y8650001D01*
X6042735Y8650001D02*
X6078450Y8721429D01*
X5864164Y8042858D02*
X5864164Y7578572D01*
X5864164Y7578572D02*
X6149878Y7828572D01*
X6149878Y7828572D02*
X6149878Y7721429D01*
X6149878Y7721429D02*
X6185592Y7650000D01*
X6185592Y7650000D02*
X6221307Y7614286D01*
X6221307Y7614286D02*
X6292735Y7578572D01*
X6292735Y7578572D02*
X6471307Y7578572D01*
X6471307Y7578572D02*
X6542735Y7614286D01*
X6542735Y7614286D02*
X6578450Y7650000D01*
X6578450Y7650000D02*
X6614164Y7721429D01*
X6614164Y7721429D02*
X6614164Y7935715D01*
X6614164Y7935715D02*
X6578450Y8007143D01*
X6578450Y8007143D02*
X6542735Y8042858D01*
X60197500Y68990836D02*
X60447500Y69347979D01*
X60626071Y68990836D02*
X60626071Y69740836D01*
X60626071Y69740836D02*
X60340357Y69740836D01*
X60340357Y69740836D02*
X60268928Y69705122D01*
X60268928Y69705122D02*
X60233214Y69669408D01*
X60233214Y69669408D02*
X60197500Y69597979D01*
X60197500Y69597979D02*
X60197500Y69490836D01*
X60197500Y69490836D02*
X60233214Y69419408D01*
X60233214Y69419408D02*
X60268928Y69383693D01*
X60268928Y69383693D02*
X60340357Y69347979D01*
X60340357Y69347979D02*
X60626071Y69347979D01*
X59911785Y69669408D02*
X59876071Y69705122D01*
X59876071Y69705122D02*
X59804643Y69740836D01*
X59804643Y69740836D02*
X59626071Y69740836D01*
X59626071Y69740836D02*
X59554643Y69705122D01*
X59554643Y69705122D02*
X59518928Y69669408D01*
X59518928Y69669408D02*
X59483214Y69597979D01*
X59483214Y69597979D02*
X59483214Y69526550D01*
X59483214Y69526550D02*
X59518928Y69419408D01*
X59518928Y69419408D02*
X59947500Y68990836D01*
X59947500Y68990836D02*
X59483214Y68990836D01*
X90809164Y-9117856D02*
X90452021Y-8867856D01*
X90809164Y-8689285D02*
X90059164Y-8689285D01*
X90059164Y-8689285D02*
X90059164Y-8974999D01*
X90059164Y-8974999D02*
X90094878Y-9046428D01*
X90094878Y-9046428D02*
X90130592Y-9082142D01*
X90130592Y-9082142D02*
X90202021Y-9117856D01*
X90202021Y-9117856D02*
X90309164Y-9117856D01*
X90309164Y-9117856D02*
X90380592Y-9082142D01*
X90380592Y-9082142D02*
X90416307Y-9046428D01*
X90416307Y-9046428D02*
X90452021Y-8974999D01*
X90452021Y-8974999D02*
X90452021Y-8689285D01*
X90130592Y-9403571D02*
X90094878Y-9439285D01*
X90094878Y-9439285D02*
X90059164Y-9510714D01*
X90059164Y-9510714D02*
X90059164Y-9689285D01*
X90059164Y-9689285D02*
X90094878Y-9760714D01*
X90094878Y-9760714D02*
X90130592Y-9796428D01*
X90130592Y-9796428D02*
X90202021Y-9832142D01*
X90202021Y-9832142D02*
X90273450Y-9832142D01*
X90273450Y-9832142D02*
X90380592Y-9796428D01*
X90380592Y-9796428D02*
X90809164Y-9367856D01*
X90809164Y-9367856D02*
X90809164Y-9832142D01*
X90380592Y-10260714D02*
X90344878Y-10189285D01*
X90344878Y-10189285D02*
X90309164Y-10153571D01*
X90309164Y-10153571D02*
X90237735Y-10117857D01*
X90237735Y-10117857D02*
X90202021Y-10117857D01*
X90202021Y-10117857D02*
X90130592Y-10153571D01*
X90130592Y-10153571D02*
X90094878Y-10189285D01*
X90094878Y-10189285D02*
X90059164Y-10260714D01*
X90059164Y-10260714D02*
X90059164Y-10403571D01*
X90059164Y-10403571D02*
X90094878Y-10475000D01*
X90094878Y-10475000D02*
X90130592Y-10510714D01*
X90130592Y-10510714D02*
X90202021Y-10546428D01*
X90202021Y-10546428D02*
X90237735Y-10546428D01*
X90237735Y-10546428D02*
X90309164Y-10510714D01*
X90309164Y-10510714D02*
X90344878Y-10475000D01*
X90344878Y-10475000D02*
X90380592Y-10403571D01*
X90380592Y-10403571D02*
X90380592Y-10260714D01*
X90380592Y-10260714D02*
X90416307Y-10189285D01*
X90416307Y-10189285D02*
X90452021Y-10153571D01*
X90452021Y-10153571D02*
X90523450Y-10117857D01*
X90523450Y-10117857D02*
X90666307Y-10117857D01*
X90666307Y-10117857D02*
X90737735Y-10153571D01*
X90737735Y-10153571D02*
X90773450Y-10189285D01*
X90773450Y-10189285D02*
X90809164Y-10260714D01*
X90809164Y-10260714D02*
X90809164Y-10403571D01*
X90809164Y-10403571D02*
X90773450Y-10475000D01*
X90773450Y-10475000D02*
X90737735Y-10510714D01*
X90737735Y-10510714D02*
X90666307Y-10546428D01*
X90666307Y-10546428D02*
X90523450Y-10546428D01*
X90523450Y-10546428D02*
X90452021Y-10510714D01*
X90452021Y-10510714D02*
X90416307Y-10475000D01*
X90416307Y-10475000D02*
X90380592Y-10403571D01*
D12*
X30915000Y70900279D02*
X30915000Y70574721D01*
X31935000Y70900279D02*
X31935000Y70574721D01*
X9660000Y1352379D02*
X9660000Y1687621D01*
X10420000Y1352379D02*
X10420000Y1687621D01*
X87572379Y-3830000D02*
X87907621Y-3830000D01*
X87572379Y-4590000D02*
X87907621Y-4590000D01*
X63493335Y72930000D02*
X63261665Y72930000D01*
X63493335Y72210000D02*
X63261665Y72210000D01*
X93680000Y-9452379D02*
X93680000Y-9787621D01*
X94440000Y-9452379D02*
X94440000Y-9787621D01*
X47190000Y70950279D02*
X47190000Y70624721D01*
X48210000Y70950279D02*
X48210000Y70624721D01*
X90466233Y70435000D02*
X90758767Y70435000D01*
X90466233Y69415000D02*
X90758767Y69415000D01*
D13*
X58405001Y3165000D02*
X58405001Y371000D01*
X58405001Y-645000D02*
X58405001Y-3439000D01*
X58405001Y-4455000D02*
X58405001Y-7249000D01*
X58405001Y-8265000D02*
X58405001Y-11059000D01*
X58405001Y-12075000D02*
X58405001Y-14869000D01*
X58405001Y-15885000D02*
X58405001Y-18679000D01*
X60404999Y-21494999D02*
X63198999Y-21494999D01*
X64214999Y-21494999D02*
X67008999Y-21494999D01*
X68024999Y-21494999D02*
X70818999Y-21494999D01*
X71834999Y-21494999D02*
X74628999Y-21494999D01*
X75644999Y-21494999D02*
X78438999Y-21494999D01*
X79454999Y-21494999D02*
X82248999Y-21494999D01*
X83264999Y-21494999D02*
X86058999Y-21494999D01*
X87074999Y-21494999D02*
X89868999Y-21494999D01*
X90884999Y-21494999D02*
X93484999Y-21494999D01*
D12*
X64930000Y-18235000D02*
X64930000Y-20895000D01*
X64930000Y-18235000D02*
X68040000Y-18235000D01*
X64930000Y-20895000D02*
X65500000Y-20895000D01*
X64960000Y1950000D02*
X64960000Y4610000D01*
X65530000Y1950000D02*
X64960000Y1950000D01*
X65530000Y430000D02*
X65530000Y1950000D01*
X67020000Y-20895000D02*
X70580000Y-20895000D01*
X68070000Y4610000D02*
X64960000Y4610000D01*
X69560000Y-18235000D02*
X73120000Y-18235000D01*
X70610000Y1950000D02*
X67050000Y1950000D01*
X72100000Y-20895000D02*
X75660000Y-20895000D01*
X73150000Y4610000D02*
X69590000Y4610000D01*
X74640000Y-18235000D02*
X78200000Y-18235000D01*
X75690000Y1950000D02*
X72130000Y1950000D01*
X77180000Y-20895000D02*
X80740000Y-20895000D01*
X78230000Y4610000D02*
X74670000Y4610000D01*
X79720000Y-18235000D02*
X83280000Y-18235000D01*
X80770000Y1950000D02*
X77210000Y1950000D01*
X82260000Y-20895000D02*
X85370000Y-20895000D01*
X83310000Y4610000D02*
X79750000Y4610000D01*
X84800000Y-16715000D02*
X84800000Y-18235000D01*
X84800000Y-18235000D02*
X85370000Y-18235000D01*
X85370000Y-18235000D02*
X85370000Y-20895000D01*
X85400000Y4610000D02*
X84830000Y4610000D01*
X85400000Y1950000D02*
X82290000Y1950000D01*
X85400000Y1950000D02*
X85400000Y4610000D01*
D11*
X86485000Y5165000D02*
X86485000Y5165000D01*
D13*
X86485000Y5164999D02*
X83691000Y5164999D01*
X82675000Y5164999D02*
X79881000Y5164999D01*
X78865000Y5164999D02*
X76071000Y5164999D01*
X75055000Y5164999D02*
X72261000Y5164999D01*
X71245000Y5164999D02*
X68451000Y5164999D01*
X67435000Y5164999D02*
X64641000Y5164999D01*
X63625000Y5164999D02*
X60831000Y5164999D01*
X86485000Y5164999D02*
X86485000Y4005001D01*
X87485001Y3015001D02*
X90279001Y3015001D01*
X91295001Y3015001D02*
X93484999Y3015001D01*
X92485001Y-4844999D02*
X93484999Y-4844999D01*
X92485001Y-13065000D02*
X92485001Y-10271000D01*
X92485001Y-9255000D02*
X92485001Y-6461000D01*
X92485001Y-5445000D02*
X92485001Y-4844999D01*
X93484999Y-4844999D02*
X93484999Y-2050999D01*
X93484999Y-1034999D02*
X93484999Y1759001D01*
X93484999Y2775001D02*
X93484999Y3015001D01*
X93484999Y-13065000D02*
X92485001Y-13065000D01*
X93484999Y-21494999D02*
X93484999Y-18700999D01*
X93484999Y-17684999D02*
X93484999Y-14890999D01*
X93484999Y-13874999D02*
X93484999Y-13065000D01*
X58405001Y3165000D02*
G75*
G02*
X60404999Y5164999I1999999J0D01*
G01*
X60404999Y-21494999D02*
G75*
G02*
X58405001Y-19495000I1J1999999D01*
G01*
X87485001Y3015001D02*
G75*
G02*
X86485000Y4015001I0J1000001D01*
G01*
D12*
X62199165Y70700000D02*
X62430835Y70700000D01*
X62199165Y69980000D02*
X62430835Y69980000D01*
X15690000Y-173335D02*
X15690000Y58335D01*
X16410000Y-173335D02*
X16410000Y58335D01*
X19119879Y-8970000D02*
X19455121Y-8970000D01*
X19119879Y-9730000D02*
X19455121Y-9730000D01*
D13*
X20000000Y62150000D02*
X14000000Y62150000D01*
X14000000Y55850000D01*
X20000000Y55850000D01*
X20000000Y62150000D01*
X18500000Y59000000D02*
G75*
G02*
X15500000Y59000000I-1500000J0D01*
G01*
X15500000Y59000000D02*
G75*
G02*
X18500000Y59000000I1500000J0D01*
G01*
D12*
X73841233Y63335000D02*
X74133767Y63335000D01*
X73841233Y62315000D02*
X74133767Y62315000D01*
X37884165Y55860000D02*
X38115835Y55860000D01*
X37884165Y55140000D02*
X38115835Y55140000D01*
X41880000Y862379D02*
X41880000Y1197621D01*
X42640000Y862379D02*
X42640000Y1197621D01*
X6890000Y8384165D02*
X6890000Y8615835D01*
X7610000Y8384165D02*
X7610000Y8615835D01*
X64737621Y69730000D02*
X64402379Y69730000D01*
X64737621Y68970000D02*
X64402379Y68970000D01*
X42920000Y1185121D02*
X42920000Y849879D01*
X43680000Y1185121D02*
X43680000Y849879D01*
X7120000Y1392379D02*
X7120000Y1727621D01*
X7880000Y1392379D02*
X7880000Y1727621D01*
X87624165Y-4880000D02*
X87855835Y-4880000D01*
X87624165Y-5600000D02*
X87855835Y-5600000D01*
X60040000Y-3430000D02*
X60040000Y-4380000D01*
X60040000Y-3430000D02*
X61840000Y-3430000D01*
X60040000Y-5580000D02*
X60040000Y-6530000D01*
X61840000Y-4580000D02*
X61840000Y-5380000D01*
X61840000Y-6530000D02*
X60040000Y-6530000D01*
X18779879Y-1720000D02*
X19115121Y-1720000D01*
X18779879Y-2480000D02*
X19115121Y-2480000D01*
X48602379Y1880000D02*
X48937621Y1880000D01*
X48602379Y1120000D02*
X48937621Y1120000D01*
D13*
X23100000Y-7550000D02*
X29100000Y-7550000D01*
X29100000Y-1250000D01*
X23100000Y-1250000D01*
X23100000Y-7550000D01*
X27600000Y-4400000D02*
G75*
G02*
X24600000Y-4400000I-1500000J0D01*
G01*
X24600000Y-4400000D02*
G75*
G02*
X27600000Y-4400000I1500000J0D01*
G01*
D12*
X2215000Y13840835D02*
X2215000Y13609165D01*
X2935000Y13840835D02*
X2935000Y13609165D01*
X21620000Y48832379D02*
X21620000Y49167621D01*
X22380000Y48832379D02*
X22380000Y49167621D01*
X89590000Y56065835D02*
X89590000Y55834165D01*
X90310000Y56065835D02*
X90310000Y55834165D01*
X62147379Y68730000D02*
X62482621Y68730000D01*
X62147379Y67970000D02*
X62482621Y67970000D01*
X26515000Y70887779D02*
X26515000Y70562221D01*
X27535000Y70887779D02*
X27535000Y70562221D01*
D11*
X4175000Y18375000D02*
X4175000Y12625000D01*
X4175000Y18375000D02*
X4750000Y18375000D01*
X4175000Y12625000D02*
X4825000Y12625000D01*
X4750000Y18375000D02*
X4750000Y19975000D01*
X14825000Y18375000D02*
X14175000Y18375000D01*
X14825000Y18375000D02*
X14825000Y12625000D01*
X14825000Y12625000D02*
X14175000Y12625000D01*
D12*
X27000000Y56500000D02*
X27000000Y50500000D01*
X27000000Y50500000D02*
X32000000Y50500000D01*
X32000000Y50500000D02*
X33000000Y51500000D01*
X33000000Y56500000D02*
X27000000Y56500000D01*
X33000000Y51500000D02*
X33000000Y56500000D01*
D14*
X32905000Y48000000D02*
G75*
G02*
X32595000Y48000000I-155000J0D01*
G01*
X32595000Y48000000D02*
G75*
G02*
X32905000Y48000000I155000J0D01*
G01*
D12*
X4657379Y-6220000D02*
X4992621Y-6220000D01*
X4657379Y-6980000D02*
X4992621Y-6980000D01*
X4659879Y-4745000D02*
X4995121Y-4745000D01*
X4659879Y-5505000D02*
X4995121Y-5505000D01*
X65817621Y-5540000D02*
X65482379Y-5540000D01*
X65817621Y-6300000D02*
X65482379Y-6300000D01*
X85115835Y68520000D02*
X84884165Y68520000D01*
X85115835Y67800000D02*
X84884165Y67800000D01*
X64685835Y70700000D02*
X64454165Y70700000D01*
X64685835Y69980000D02*
X64454165Y69980000D01*
X86770000Y-1380000D02*
X86770000Y420000D01*
X86770000Y-1380000D02*
X87720000Y-1380000D01*
X87920000Y420000D02*
X88720000Y420000D01*
X88920000Y-1380000D02*
X89870000Y-1380000D01*
X89870000Y420000D02*
X89870000Y-1380000D01*
X34140000Y48115835D02*
X34140000Y47884165D01*
X34860000Y48115835D02*
X34860000Y47884165D01*
X85383767Y70450000D02*
X85091233Y70450000D01*
X85383767Y69430000D02*
X85091233Y69430000D01*
X57264165Y-4620000D02*
X57495835Y-4620000D01*
X57264165Y-5340000D02*
X57495835Y-5340000D01*
X49459994Y71674766D02*
X49459994Y71382232D01*
X50479994Y71674766D02*
X50479994Y71382232D01*
X2890000Y23615840D02*
X2890000Y23384170D01*
X3610000Y23615840D02*
X3610000Y23384170D01*
X28740000Y71646267D02*
X28740000Y71353733D01*
X29760000Y71646267D02*
X29760000Y71353733D01*
D15*
G36*
X27032744Y-10549141D02*
G01*
X27028720Y-10725883D01*
X26973792Y-10871721D01*
X26924580Y-11019465D01*
X26877034Y-11117572D01*
X26826789Y-11214410D01*
X26891560Y-11169113D01*
X27009757Y-11058983D01*
X27133495Y-10955118D01*
X27218969Y-10889180D01*
X27315215Y-10848548D01*
X27372466Y-10924850D01*
X27369331Y-11079288D01*
X27319158Y-11225636D01*
X27217949Y-11339293D01*
X27093463Y-11419647D01*
X26976438Y-11507145D01*
X27137219Y-11589201D01*
X27301009Y-11663496D01*
X27450360Y-11765590D01*
X27539075Y-11853193D01*
X27605723Y-11957148D01*
X27667768Y-12089942D01*
X27725526Y-12223848D01*
X27706477Y-12270626D01*
X27638320Y-12293910D01*
X27574820Y-12292216D01*
X27564448Y-12296238D01*
X27567408Y-12312112D01*
X27556825Y-12429164D01*
X27425803Y-12433821D01*
X27281102Y-12403103D01*
X27136878Y-12370321D01*
X26961407Y-12349053D01*
X26785935Y-12370321D01*
X26655376Y-12394992D01*
X26523045Y-12406939D01*
X26501878Y-12562091D01*
X26509656Y-12668401D01*
X26527913Y-12773758D01*
X26536758Y-12895842D01*
X26534897Y-13018233D01*
X26519446Y-13176011D01*
X26490306Y-13330637D01*
X26458062Y-13486016D01*
X26426359Y-13663817D01*
X26400881Y-13842589D01*
X26381651Y-14022168D01*
X26372249Y-14206081D01*
X26368314Y-14392889D01*
X26359766Y-14579647D01*
X26336527Y-14763407D01*
X26288517Y-14941224D01*
X26239781Y-15143525D01*
X26201522Y-15349318D01*
X26127386Y-15537727D01*
X26029437Y-15715501D01*
X25977394Y-15815143D01*
X25914714Y-15907483D01*
X25843118Y-15994610D01*
X25776284Y-16082531D01*
X25651189Y-16183919D01*
X25537524Y-16268586D01*
X25486724Y-16255251D01*
X25472119Y-16200429D01*
X25436559Y-16257791D01*
X25354009Y-16252711D01*
X25257913Y-16285096D01*
X25177902Y-16288906D01*
X25167954Y-16287636D01*
X25144962Y-16435247D01*
X25125621Y-16582699D01*
X25104110Y-16748699D01*
X25078631Y-16915016D01*
X25050330Y-17075132D01*
X25026852Y-17235029D01*
X25005080Y-17395046D01*
X24981899Y-17555519D01*
X24968114Y-17729297D01*
X24968141Y-17903710D01*
X24958351Y-18091274D01*
X25016824Y-18248516D01*
X25136745Y-18290716D01*
X25265556Y-18342417D01*
X25329879Y-18441767D01*
X25237381Y-18549929D01*
X25079213Y-18557098D01*
X24921362Y-18536170D01*
X24770444Y-18462087D01*
X24710304Y-18350671D01*
X24688105Y-18222269D01*
X24654676Y-18027483D01*
X24631589Y-17831272D01*
X24618891Y-17634047D01*
X24580870Y-17748453D01*
X24549676Y-17864764D01*
X24530626Y-18008195D01*
X24512845Y-18151784D01*
X24486638Y-18280516D01*
X24466028Y-18432909D01*
X24488504Y-18556702D01*
X24601164Y-18608719D01*
X24728745Y-18608349D01*
X24773407Y-18732598D01*
X24636036Y-18807316D01*
X24511576Y-18813668D01*
X24405742Y-18861928D01*
X24256557Y-18831393D01*
X24178303Y-18714310D01*
X24136925Y-18563266D01*
X24086866Y-18384699D01*
X24055857Y-18203433D01*
X24085041Y-18034496D01*
X24134385Y-17869846D01*
X24169284Y-17674346D01*
X24176719Y-17476146D01*
X24165618Y-17330128D01*
X24149861Y-17184297D01*
X24132269Y-17038842D01*
X24111729Y-16879998D01*
X24090296Y-16721295D01*
X24070462Y-16562593D01*
X24078374Y-16379316D01*
X24117241Y-16198103D01*
X23951082Y-16317695D01*
X23807330Y-16396482D01*
X23668327Y-16447611D01*
X23505101Y-16454855D01*
X23355031Y-16431014D01*
X23208572Y-16394004D01*
X23063514Y-16346060D01*
X22905352Y-16277585D01*
X22759697Y-16199709D01*
X22652207Y-16134033D01*
X22508525Y-16013196D01*
X22375963Y-15861724D01*
X22293742Y-15926737D01*
X22217405Y-16043319D01*
X22172672Y-16163200D01*
X22110337Y-16290794D01*
X22002486Y-16439817D01*
X21898127Y-16590110D01*
X21830512Y-16746947D01*
X21822727Y-16904725D01*
X21878443Y-17065513D01*
X21945243Y-17199435D01*
X22006729Y-17334815D01*
X22070424Y-17469584D01*
X22127310Y-17572111D01*
X22181338Y-17676382D01*
X22224809Y-17782560D01*
X22271296Y-17885086D01*
X22325201Y-17985549D01*
X22373743Y-18088710D01*
X22454599Y-18216979D01*
X22549638Y-18241533D01*
X22667801Y-18271087D01*
X22751991Y-18349059D01*
X22742255Y-18385678D01*
X22572763Y-18443278D01*
X22387078Y-18438171D01*
X22227904Y-18403034D01*
X22166310Y-18269261D01*
X22089077Y-18177689D01*
X22004384Y-18090402D01*
X21962078Y-17980521D01*
X21921835Y-17869211D01*
X21837246Y-17715745D01*
X21739017Y-17573238D01*
X21636931Y-17431484D01*
X21577056Y-17331631D01*
X21519244Y-17230190D01*
X21443415Y-17123642D01*
X21365363Y-17018522D01*
X21283597Y-16868749D01*
X21232499Y-16711167D01*
X21196030Y-16543331D01*
X21187986Y-16503750D01*
X21150631Y-16652661D01*
X21137217Y-16808440D01*
X21134435Y-16962008D01*
X21132576Y-17116195D01*
X21134811Y-17270806D01*
X21146499Y-17424288D01*
X21166388Y-17580514D01*
X21194132Y-17739091D01*
X21236458Y-17892071D01*
X21291444Y-18046752D01*
X21351369Y-18199176D01*
X21421878Y-18347366D01*
X21477970Y-18433302D01*
X21576818Y-18452564D01*
X21658733Y-18491511D01*
X21639894Y-18579220D01*
X21548031Y-18618511D01*
X21355203Y-18609198D01*
X21235029Y-18607346D01*
X21116443Y-18601998D01*
X21051699Y-18513918D01*
X21056964Y-18386944D01*
X21045402Y-18264072D01*
X20998756Y-18150090D01*
X20935256Y-18000864D01*
X20910037Y-17842953D01*
X20889850Y-17684430D01*
X20856304Y-17526942D01*
X20808538Y-17366797D01*
X20752588Y-17206040D01*
X20680410Y-17054926D01*
X20576481Y-16883105D01*
X20494778Y-16700173D01*
X20454784Y-16540539D01*
X20421608Y-16379388D01*
X20395295Y-16216938D01*
X20370465Y-16010353D01*
X20353632Y-15803270D01*
X20340598Y-15595954D01*
X20327168Y-15388668D01*
X20309146Y-15181676D01*
X20291392Y-15014195D01*
X20269988Y-14847031D01*
X20250832Y-14727149D01*
X20239931Y-14606155D01*
X20068049Y-14617936D01*
X20027689Y-14510937D01*
X20032278Y-14403948D01*
X19958303Y-14271937D01*
X19906796Y-14143303D01*
X19897760Y-14037889D01*
X19910806Y-13887149D01*
X19971170Y-13741062D01*
X20068559Y-13602393D01*
X20197816Y-13490038D01*
X20320953Y-13390608D01*
X20450758Y-13307370D01*
X20539319Y-13243082D01*
X20634484Y-13189048D01*
X20752383Y-13156399D01*
X20877266Y-13148832D01*
X21060992Y-13115177D01*
X21154761Y-13045750D01*
X21272315Y-13000559D01*
X21396696Y-13024583D01*
X21554705Y-13074986D01*
X21712714Y-13121738D01*
X21878581Y-13186561D01*
X22049052Y-13239637D01*
X22227064Y-13277181D01*
X22408886Y-13299327D01*
X22607323Y-13301496D01*
X22805761Y-13307793D01*
X22982883Y-13321813D01*
X23159906Y-13338988D01*
X23336809Y-13355805D01*
X23513574Y-13368753D01*
X23681690Y-13389126D01*
X23849489Y-13411087D01*
X24051425Y-13406629D01*
X24249539Y-13367272D01*
X24427021Y-13309063D01*
X24603869Y-13249585D01*
X24778758Y-13226884D01*
X24955870Y-13226725D01*
X25090913Y-13227994D01*
X25133247Y-13134649D01*
X25173596Y-13036939D01*
X25219819Y-12942879D01*
X25296551Y-12806605D01*
X25355073Y-12661574D01*
X25399022Y-12496208D01*
X25432904Y-12326702D01*
X25460907Y-12157808D01*
X25488126Y-11994832D01*
X25527668Y-11833456D01*
X25595104Y-11683040D01*
X25686402Y-11567446D01*
X25799715Y-11465964D01*
X25918953Y-11378875D01*
X26016109Y-11325111D01*
X26121942Y-11230073D01*
X26221664Y-11169483D01*
X26320909Y-11107941D01*
X26432246Y-11022243D01*
X26534057Y-10925908D01*
X26618862Y-10836886D01*
X26709317Y-10753611D01*
X26838328Y-10616266D01*
X26996549Y-10527975D01*
X27032744Y-10549141D01*
G37*
D12*
X15180000Y-5840000D02*
X15180000Y-6790000D01*
X15180000Y-5840000D02*
X16980000Y-5840000D01*
X15180000Y-7990000D02*
X15180000Y-8940000D01*
X16980000Y-6990000D02*
X16980000Y-7790000D01*
X16980000Y-8940000D02*
X15180000Y-8940000D01*
X44959994Y71674766D02*
X44959994Y71382232D01*
X45979994Y71674766D02*
X45979994Y71382232D01*
X63209879Y74930000D02*
X63545121Y74930000D01*
X63209879Y74170000D02*
X63545121Y74170000D01*
X62464879Y-2250000D02*
X62800121Y-2250000D01*
X62464879Y-3010000D02*
X62800121Y-3010000D01*
X4890000Y23384165D02*
X4890000Y23615835D01*
X5610000Y23384165D02*
X5610000Y23615835D01*
X90799165Y68570000D02*
X91030835Y68570000D01*
X90799165Y67850000D02*
X91030835Y67850000D01*
X73853733Y61760000D02*
X74146267Y61760000D01*
X73853733Y60740000D02*
X74146267Y60740000D01*
X42765000Y70925279D02*
X42765000Y70599721D01*
X43785000Y70925279D02*
X43785000Y70599721D01*
X86995000Y4979879D02*
X86995000Y5315121D01*
X87755000Y4979879D02*
X87755000Y5315121D01*
X32840000Y72211252D02*
X32840000Y70788748D01*
X34660000Y72211252D02*
X34660000Y70788748D01*
X82021267Y-13840000D02*
X81728733Y-13840000D01*
X82021267Y-14860000D02*
X81728733Y-14860000D01*
X89330000Y-14160000D02*
X89330000Y-12360000D01*
X90280000Y-12360000D02*
X89330000Y-12360000D01*
X91280000Y-14160000D02*
X90480000Y-14160000D01*
X92430000Y-12360000D02*
X91480000Y-12360000D01*
X92430000Y-12360000D02*
X92430000Y-14160000D01*
X79130000Y-1497621D02*
X79130000Y-1162379D01*
X79890000Y-1497621D02*
X79890000Y-1162379D01*
X93330000Y-14180000D02*
X93330000Y-12380000D01*
X94280000Y-12380000D02*
X93330000Y-12380000D01*
X95280000Y-14180000D02*
X94480000Y-14180000D01*
X96430000Y-12380000D02*
X95480000Y-12380000D01*
X96430000Y-12380000D02*
X96430000Y-14180000D01*
D13*
X28330500Y36500000D02*
X42330500Y36500000D01*
X28330500Y5300000D02*
X28330500Y36500000D01*
X42330500Y36500000D02*
X42330500Y5300000D01*
X42330500Y5300000D02*
X28330500Y5300000D01*
X41310000Y58195000D02*
X46390000Y58195000D01*
X41310000Y55655000D02*
X41310000Y58195000D01*
X43850000Y55655000D02*
X43850000Y58195000D01*
X46390000Y58195000D02*
X46390000Y55655000D01*
X46390000Y55655000D02*
X41310000Y55655000D01*
D12*
X23120000Y48832379D02*
X23120000Y49167621D01*
X23880000Y48832379D02*
X23880000Y49167621D01*
X15190000Y-2600000D02*
X15190000Y-3550000D01*
X15190000Y-2600000D02*
X16990000Y-2600000D01*
X15190000Y-4750000D02*
X15190000Y-5700000D01*
X16990000Y-3750000D02*
X16990000Y-4550000D01*
X16990000Y-5700000D02*
X15190000Y-5700000D01*
D13*
X87100000Y18900000D02*
X87100000Y26100000D01*
X90400000Y29100000D02*
X87100000Y26100000D01*
X90400000Y15900000D02*
X87100000Y18900000D01*
X97600000Y29100000D02*
X90400000Y29100000D01*
X97600000Y29100000D02*
X98350000Y29100000D01*
X97600000Y15900000D02*
X90400000Y15900000D01*
X97600000Y15900000D02*
X98350000Y15900000D01*
X98350000Y29100000D02*
G75*
G02*
X99100000Y28350000I0J-750000D01*
G01*
X98900000Y17500000D02*
G75*
G02*
X98900000Y27500000I9503436J5000000D01*
G01*
X98900000Y17500000D02*
G75*
G02*
X99100000Y16650000I-1486132J-798208D01*
G01*
X99100000Y28350000D02*
G75*
G02*
X98900000Y27500000I-1686100J-51800D01*
G01*
X99100000Y16650000D02*
G75*
G02*
X98350000Y15900000I-750000J0D01*
G01*
D12*
X70907621Y-5570000D02*
X70572379Y-5570000D01*
X70907621Y-6330000D02*
X70572379Y-6330000D01*
X64737621Y68730000D02*
X64402379Y68730000D01*
X64737621Y67970000D02*
X64402379Y67970000D01*
X63545121Y73930000D02*
X63209879Y73930000D01*
X63545121Y73170000D02*
X63209879Y73170000D01*
X4890000Y8384165D02*
X4890000Y8615835D01*
X5610000Y8384165D02*
X5610000Y8615835D01*
X62144879Y69730000D02*
X62480121Y69730000D01*
X62144879Y68970000D02*
X62480121Y68970000D01*
X91140000Y-9452379D02*
X91140000Y-9787621D01*
X91900000Y-9452379D02*
X91900000Y-9787621D01*
%LPC*%
D16*
X50220000Y64990000D03*
X47720000Y64990000D03*
X45720000Y64990000D03*
X43220000Y64990000D03*
X50220000Y67590000D03*
X47720000Y67590000D03*
X45720000Y67590000D03*
X43220000Y67590000D03*
D17*
X53270000Y64640000D03*
X53220000Y70440000D03*
X40220000Y70440000D03*
X40170000Y64640000D03*
D18*
X51875000Y58560000D03*
D19*
X51875000Y56020000D03*
X51875000Y53480000D03*
X51875000Y50940000D03*
D20*
X97000000Y-20000000D03*
D16*
X34000000Y65000000D03*
X31500000Y65000000D03*
X29500000Y65000000D03*
X27000000Y65000000D03*
X34000000Y67600000D03*
X31500000Y67600000D03*
X29500000Y67600000D03*
X27000000Y67600000D03*
D17*
X37050000Y64650000D03*
X37000000Y70450000D03*
X24000000Y70450000D03*
X23950000Y64650000D03*
D20*
X3000000Y-20000000D03*
D21*
X57890000Y69900000D03*
X69320000Y69900000D03*
D22*
X68050000Y63550000D03*
D23*
X66780000Y61010000D03*
X65510000Y63550000D03*
X64240000Y61010000D03*
X62970000Y63550000D03*
X61700000Y61010000D03*
X60430000Y63550000D03*
X59160000Y61010000D03*
D24*
X69930000Y74800000D03*
X67390000Y73280000D03*
X59820000Y74800000D03*
X57280000Y73280000D03*
D25*
X71480000Y66850000D03*
X55730000Y66850000D03*
D18*
X7480000Y-2350000D03*
D19*
X7480000Y-4890000D03*
X7480000Y-7430000D03*
X7480000Y-9970000D03*
X7480000Y-12510000D03*
X7480000Y-15050000D03*
X10020000Y-15050000D03*
X10020000Y-12510000D03*
X10020000Y-9970000D03*
X10020000Y-7430000D03*
X10020000Y-4890000D03*
X10020000Y-2350000D03*
D18*
X79500000Y-4250000D03*
D19*
X82040000Y-4250000D03*
X84580000Y-4250000D03*
X65348800Y-14375000D03*
X71851200Y-14375000D03*
D26*
X11420000Y44045000D03*
X11420000Y41275000D03*
X11420000Y38505000D03*
X11420000Y35735000D03*
X11420000Y32965000D03*
X8580000Y42660000D03*
X8580000Y39890000D03*
X8580000Y37120000D03*
X8580000Y34350000D03*
D27*
X10000000Y26010000D03*
X10000000Y51000000D03*
D28*
X91520000Y-6210000D03*
D29*
X92790000Y-6210000D03*
X94060000Y-6210000D03*
X95330000Y-6210000D03*
D18*
X53670000Y35110000D03*
D19*
X56210000Y35110000D03*
X53670000Y32570000D03*
X56210000Y32570000D03*
X53670000Y30030000D03*
X56210000Y30030000D03*
X53670000Y27490000D03*
X56210000Y27490000D03*
X53670000Y24950000D03*
X56210000Y24950000D03*
X53670000Y22410000D03*
X56210000Y22410000D03*
X53670000Y19870000D03*
X56210000Y19870000D03*
X53670000Y17330000D03*
X56210000Y17330000D03*
X53670000Y14790000D03*
X56210000Y14790000D03*
X53670000Y12250000D03*
X56210000Y12250000D03*
D18*
X94760000Y-250000D03*
D19*
X92220000Y-250000D03*
D20*
X3000000Y74000000D03*
D26*
X88010000Y74420000D03*
X88010000Y68420000D03*
D19*
X78748800Y-14375000D03*
X85251200Y-14375000D03*
D30*
X15890000Y72070000D03*
X10110000Y72070000D03*
D31*
X17325000Y71570000D03*
D32*
X17325000Y75750000D03*
D31*
X8675000Y71570000D03*
D32*
X8675000Y75750000D03*
D18*
X56650000Y1990000D03*
D19*
X54110000Y1990000D03*
D20*
X97000000Y74000000D03*
D33*
X80640000Y68170000D03*
X78100000Y68170000D03*
X75560000Y68170000D03*
D34*
X80640000Y70790000D03*
X75560000Y70790000D03*
D35*
X57260000Y-1530000D03*
D36*
X54720000Y-1530000D03*
X52180000Y-1530000D03*
X49640000Y-1530000D03*
X47100000Y-1530000D03*
X44560000Y-1530000D03*
X42020000Y-1530000D03*
X42020000Y-9150000D03*
X44560000Y-9150000D03*
X47100000Y-9150000D03*
X49640000Y-9150000D03*
X52180000Y-9150000D03*
X54720000Y-9150000D03*
X57260000Y-9150000D03*
D33*
X19000000Y29380000D03*
D37*
X16840000Y34460000D03*
D38*
X16840000Y31920000D03*
X16840000Y29380000D03*
X16840000Y26840000D03*
D39*
X24000000Y44000000D03*
X24000000Y5900000D03*
X46000000Y44000000D03*
X46000000Y5900000D03*
D18*
X66250000Y-4250000D03*
D19*
X68790000Y-4250000D03*
X71330000Y-4250000D03*
D40*
X4000000Y19690000D03*
X4000000Y11690000D03*
D41*
X31425000Y71525000D03*
X31425000Y69950000D03*
D42*
X10040000Y2117500D03*
X10040000Y922500D03*
D43*
X88337500Y-4210000D03*
X87142500Y-4210000D03*
D44*
X62810000Y72570000D03*
X63945000Y72570000D03*
D45*
X94060000Y-10217500D03*
X94060000Y-9022500D03*
D41*
X47700000Y71575000D03*
X47700000Y70000000D03*
D46*
X91475000Y69925000D03*
X89750000Y69925000D03*
D47*
X66290000Y1625000D03*
X68830000Y4935000D03*
X71370000Y1625000D03*
X73910000Y4935000D03*
X76450000Y1625000D03*
X78990000Y4935000D03*
X81530000Y1625000D03*
X84070000Y4935000D03*
X84040000Y-17910000D03*
X81500000Y-21220000D03*
X78960000Y-17910000D03*
X76420000Y-21220000D03*
X73880000Y-17910000D03*
X71340000Y-21220000D03*
X68800000Y-17910000D03*
X66260000Y-21220000D03*
D48*
X62882500Y70340000D03*
X61747500Y70340000D03*
D49*
X16050000Y510000D03*
X16050000Y-625000D03*
D43*
X19885000Y-9350000D03*
X18690000Y-9350000D03*
D50*
X21000000Y56750000D03*
X13000000Y56750000D03*
X21000000Y61250000D03*
X13000000Y61250000D03*
D46*
X74850000Y62825000D03*
X73125000Y62825000D03*
D48*
X38567500Y55500000D03*
X37432500Y55500000D03*
D42*
X42260000Y1627500D03*
X42260000Y432500D03*
D49*
X7250000Y9067500D03*
X7250000Y7932500D03*
D51*
X63972500Y69350000D03*
X65167500Y69350000D03*
D45*
X43300000Y420000D03*
X43300000Y1615000D03*
D42*
X7500000Y2157500D03*
X7500000Y962500D03*
D48*
X88307500Y-5240000D03*
X87172500Y-5240000D03*
D52*
X62040000Y-4030000D03*
X62040000Y-5930000D03*
X59840000Y-4980000D03*
D43*
X19545000Y-2100000D03*
X18350000Y-2100000D03*
X49367500Y1500000D03*
X48172500Y1500000D03*
D50*
X30100000Y-6650000D03*
X22100000Y-6650000D03*
X30100000Y-2150000D03*
X22100000Y-2150000D03*
D53*
X2575000Y13157500D03*
X2575000Y14292500D03*
D42*
X22000000Y49597500D03*
X22000000Y48402500D03*
D53*
X89950000Y55382500D03*
X89950000Y56517500D03*
D43*
X62912500Y68350000D03*
X61717500Y68350000D03*
D41*
X27025000Y71512500D03*
X27025000Y69937500D03*
D54*
X5275000Y19100000D03*
X5925000Y19100000D03*
X6575000Y19100000D03*
X7225000Y19100000D03*
X7875000Y19100000D03*
X8525000Y19100000D03*
X9175000Y19100000D03*
X9825000Y19100000D03*
X10475000Y19100000D03*
X11125000Y19100000D03*
X11775000Y19100000D03*
X12425000Y19100000D03*
X13075000Y19100000D03*
X13725000Y19100000D03*
X13725000Y11900000D03*
X13075000Y11900000D03*
X12425000Y11900000D03*
X11775000Y11900000D03*
X11125000Y11900000D03*
X10475000Y11900000D03*
X9825000Y11900000D03*
X9175000Y11900000D03*
X8525000Y11900000D03*
X7875000Y11900000D03*
X7225000Y11900000D03*
X6575000Y11900000D03*
X5925000Y11900000D03*
X5275000Y11900000D03*
D55*
X32750000Y49300000D03*
X32250000Y49300000D03*
X31750000Y49300000D03*
X31250000Y49300000D03*
X30750000Y49300000D03*
X30250000Y49300000D03*
X29750000Y49300000D03*
X29250000Y49300000D03*
X28750000Y49300000D03*
X28250000Y49300000D03*
X27750000Y49300000D03*
X27250000Y49300000D03*
D56*
X25800000Y50750000D03*
X25800000Y51250000D03*
X25800000Y51750000D03*
X25800000Y52250000D03*
X25800000Y52750000D03*
X25800000Y53250000D03*
X25800000Y53750000D03*
X25800000Y54250000D03*
X25800000Y54750000D03*
X25800000Y55250000D03*
X25800000Y55750000D03*
X25800000Y56250000D03*
D55*
X27250000Y57700000D03*
X27750000Y57700000D03*
X28250000Y57700000D03*
X28750000Y57700000D03*
X29250000Y57700000D03*
X29750000Y57700000D03*
X30250000Y57700000D03*
X30750000Y57700000D03*
X31250000Y57700000D03*
X31750000Y57700000D03*
X32250000Y57700000D03*
X32750000Y57700000D03*
D56*
X34200000Y56250000D03*
X34200000Y55750000D03*
X34200000Y55250000D03*
X34200000Y54750000D03*
X34200000Y54250000D03*
X34200000Y53750000D03*
X34200000Y53250000D03*
X34200000Y52750000D03*
X34200000Y52250000D03*
X34200000Y51750000D03*
X34200000Y51250000D03*
X34200000Y50750000D03*
D43*
X5422500Y-6600000D03*
X4227500Y-6600000D03*
X5425000Y-5125000D03*
X4230000Y-5125000D03*
D51*
X65052500Y-5920000D03*
X66247500Y-5920000D03*
D44*
X84432500Y68160000D03*
X85567500Y68160000D03*
X64002500Y70340000D03*
X65137500Y70340000D03*
D57*
X87370000Y620000D03*
X89270000Y620000D03*
X88320000Y-1580000D03*
D53*
X34500000Y47432500D03*
X34500000Y48567500D03*
D58*
X84375000Y69940000D03*
X86100000Y69940000D03*
D48*
X57947500Y-4980000D03*
X56812500Y-4980000D03*
D59*
X49969994Y70665999D03*
X49969994Y72390999D03*
D53*
X3250000Y22932505D03*
X3250000Y24067505D03*
D59*
X29250000Y70637500D03*
X29250000Y72362500D03*
D52*
X17180000Y-6440000D03*
X17180000Y-8340000D03*
X14980000Y-7390000D03*
D59*
X45469994Y70665999D03*
X45469994Y72390999D03*
D43*
X63975000Y74550000D03*
X62780000Y74550000D03*
X63230000Y-2630000D03*
X62035000Y-2630000D03*
D49*
X5250000Y24067500D03*
X5250000Y22932500D03*
D48*
X91482500Y68210000D03*
X90347500Y68210000D03*
D46*
X74862500Y61250000D03*
X73137500Y61250000D03*
D41*
X43275000Y71550000D03*
X43275000Y69975000D03*
D42*
X87375000Y5745000D03*
X87375000Y4550000D03*
D60*
X33750000Y69937500D03*
X33750000Y73062500D03*
D58*
X81012500Y-14350000D03*
X82737500Y-14350000D03*
D57*
X91830000Y-14360000D03*
X89930000Y-14360000D03*
X90880000Y-12160000D03*
D42*
X79510000Y-732500D03*
X79510000Y-1927500D03*
D57*
X95830000Y-14380000D03*
X93930000Y-14380000D03*
X94880000Y-12180000D03*
D61*
X35330500Y8400000D03*
D62*
X83380500Y8800000D03*
X83380500Y33000000D03*
D63*
X35330500Y33400000D03*
D64*
X31030500Y9100000D03*
X39630500Y9500000D03*
X31030500Y9900000D03*
X39630500Y10300000D03*
X31030500Y10700000D03*
X39630500Y11100000D03*
X31030500Y11500000D03*
X39630500Y11900000D03*
X31030500Y12300000D03*
X39630500Y12700000D03*
X31030500Y13100000D03*
X39630500Y13500000D03*
X31030500Y13900000D03*
X39630500Y14300000D03*
X31030500Y14700000D03*
X39630500Y15100000D03*
X31030500Y18700000D03*
X39630500Y19100000D03*
X31030500Y19500000D03*
X39630500Y19900000D03*
X31030500Y20300000D03*
X39630500Y20700000D03*
X31030500Y21100000D03*
X39630500Y21500000D03*
X31030500Y21900000D03*
X39630500Y22300000D03*
X31030500Y22700000D03*
X39630500Y23100000D03*
X31030500Y23500000D03*
X39630500Y23900000D03*
X31030500Y24300000D03*
X39630500Y24700000D03*
X31030500Y25100000D03*
X39630500Y25500000D03*
X31030500Y25900000D03*
X39630500Y26300000D03*
X31030500Y26700000D03*
X39630500Y27100000D03*
X31030500Y27500000D03*
X39630500Y27900000D03*
X31030500Y28300000D03*
X39630500Y28700000D03*
X31030500Y29100000D03*
X39630500Y29500000D03*
X31030500Y29900000D03*
X39630500Y30300000D03*
X31030500Y30700000D03*
X39630500Y31100000D03*
X31030500Y31500000D03*
X39630500Y31900000D03*
X31030500Y32300000D03*
X39630500Y32700000D03*
D65*
X31830500Y6450000D03*
X31830500Y35350000D03*
D18*
X42580000Y56925000D03*
D19*
X45120000Y56925000D03*
D42*
X23500000Y49597500D03*
X23500000Y48402500D03*
D52*
X17190000Y-3200000D03*
X17190000Y-5100000D03*
X14990000Y-4150000D03*
D66*
X94000000Y14950000D03*
X94000000Y30050000D03*
D27*
X94000000Y22500000D03*
D51*
X70142500Y-5950000D03*
X71337500Y-5950000D03*
X63972500Y68350000D03*
X65167500Y68350000D03*
X62780000Y73550000D03*
X63975000Y73550000D03*
D49*
X5250000Y9067500D03*
X5250000Y7932500D03*
D43*
X62910000Y69350000D03*
X61715000Y69350000D03*
D45*
X91520000Y-10217500D03*
X91520000Y-9022500D03*
%LPD*%
M02*
