M48
; DRILL file {KiCad 8.0.2-1} date 2024-06-26T09:27:25-0400
; FORMAT={-:-/ absolute / inch / decimal}
; #@! TF.CreationDate,2024-06-26T09:27:25-04:00
; #@! TF.GenerationSoftware,Kicad,Pcbnew,8.0.2-1
; #@! TF.FileFunction,Plated,1,4,PTH
FMAT,2
INCH
; #@! TA.AperFunction,Plated,PTH,ViaDrill
T1C0.0079
; #@! TA.AperFunction,Plated,PTH,ComponentDrill
T2C0.0118
; #@! TA.AperFunction,Plated,PTH,ComponentDrill
T3C0.0236
; #@! TA.AperFunction,Plated,PTH,ComponentDrill
T4C0.0315
; #@! TA.AperFunction,Plated,PTH,ComponentDrill
T5C0.0320
; #@! TA.AperFunction,Plated,PTH,ComponentDrill
T6C0.0354
; #@! TA.AperFunction,Plated,PTH,ComponentDrill
T7C0.0394
; #@! TA.AperFunction,Plated,PTH,ComponentDrill
T8C0.0400
; #@! TA.AperFunction,Plated,PTH,ComponentDrill
T9C0.0402
; #@! TA.AperFunction,Plated,PTH,ComponentDrill
T10C0.0433
; #@! TA.AperFunction,Plated,PTH,ComponentDrill
T11C0.0630
; #@! TA.AperFunction,Plated,PTH,ComponentDrill
T12C0.0906
; #@! TA.AperFunction,Plated,PTH,ComponentDrill
T13C0.1200
; #@! TA.AperFunction,Plated,PTH,ComponentDrill
T14C0.1201
%
G90
G05
T1
X0.1053Y2.1496
X0.1073Y2.2382
X0.148Y-0.3709
X0.1575Y0.3346
X0.1673Y0.9945
X0.1909Y2.1496
X0.1919Y2.2372
X0.2461Y0.272
X0.2766Y2.1506
X0.3153Y0.3354
X0.3436Y2.1921
X0.4508Y-0.1346
X0.5005Y2.2759
X0.5005Y2.1926
X0.5244Y0.6972
X0.5315Y0.3346
X0.5667Y1.6101
X0.5749Y2.1298
X0.5811Y0.8697
X0.5834Y1.6314
X0.6Y1.6475
X0.6165Y1.6685
X0.6181Y2.6024
X0.6181Y2.5748
X0.6183Y0.6094
X0.6457Y2.6024
X0.6457Y2.5748
X0.6524Y2.0146
X0.6531Y1.837
X0.6732Y2.6024
X0.6732Y2.5748
X0.6742Y0.687
X0.678Y0.089
X0.6854Y-0.3614
X0.6862Y1.4819
X0.689Y0.126
X0.6959Y2.1199
X0.7136Y0.7096
X0.7136Y0.3671
X0.7333Y0.3504
X0.7354Y1.5764
X0.7459Y0.8894
X0.7476Y1.8559
X0.7476Y1.4681
X0.7498Y0.6093
X0.7512Y2.1654
X0.752Y0.6535
X0.7549Y0.7687
X0.7549Y0.7096
X0.7555Y0.5659
X0.7555Y0.3317
X0.7744Y0.8063
X0.7815Y0.2303
X0.7914Y0.7846
X0.7943Y0.3071
X0.7945Y1.4071
X0.7949Y1.4573
X0.795Y0.5837
X0.8035Y2.1406
X0.8081Y-0.7215
X0.826Y0.039
X0.826Y-0.0315
X0.876Y0.0362
X0.9185Y2.3531
X0.9236Y0.0366
X0.9295Y0.4575
X0.9325Y0.5211
X0.9354Y1.6976
X0.9359Y2.3688
X0.9453Y0.4866
X0.9457Y0.1835
X0.95Y0.9713
X0.9508Y1.1563
X0.9622Y2.1953
X1.063Y2.8906
X1.0862Y0.8839
X1.0866Y1.2839
X1.0909Y0.3823
X1.0921Y1.6571
X1.0921Y1.5929
X1.0921Y1.5689
X1.0921Y1.5453
X1.0937Y1.7575
X1.115Y0.5185
X1.1169Y0.5787
X1.1345Y2.3211
X1.1417Y0.1575
X1.1539Y2.3336
X1.1572Y0.9855
X1.1572Y0.9594
X1.1574Y0.8595
X1.1574Y0.8334
X1.1579Y1.0858
X1.1584Y0.5446
X1.1584Y0.5184
X1.1591Y1.3449
X1.1811Y0.1575
X1.185Y-0.328
X1.1941Y2.3269
X1.1969Y2.1525
X1.2185Y2.3336
X1.2228Y1.987
X1.2431Y2.1348
X1.2648Y-0.7175
X1.2756Y-0.3559
X1.2815Y2.5177
X1.2862Y2.1579
X1.2865Y2.1147
X1.2992Y1.3285
X1.3071Y-0.0965
X1.315Y1.8594
X1.3244Y0.5622
X1.3374Y1.6866
X1.3444Y0.1479
X1.345Y1.7475
X1.3614Y0.815
X1.4189Y1.7657
X1.422Y-0.0972
X1.4272Y0.4415
X1.4583Y-0.2256
X1.4902Y1.7673
X1.4969Y-0.3063
X1.4976Y0.4429
X1.5Y1.2868
X1.5Y1.2553
X1.5Y0.8458
X1.5Y0.7828
X1.5126Y-0.2524
X1.5184Y2.1379
X1.5433Y1.7433
X1.5583Y-0.2043
X1.5725Y1.659
X1.5748Y1.4567
X1.5862Y-0.4315
X1.612Y1.9574
X1.6122Y1.6283
X1.6286Y1.974
X1.6311Y0.7525
X1.6348Y0.4291
X1.6352Y1.9126
X1.6449Y1.9906
X1.6519Y1.8937
X1.6921Y-0.1925
X1.7028Y2.8894
X1.7175Y-0.7165
X1.7323Y0.1051
X1.7638Y0.1378
X1.7876Y1.894
X1.7965Y1.385
X1.7988Y1.6575
X1.7992Y1.6063
X1.7992Y1.5591
X1.7992Y1.5079
X1.7992Y1.4567
X1.7996Y1.6953
X1.8012Y0.7972
X1.8026Y1.9116
X1.8098Y0.3752
X1.814Y0.0622
X1.8169Y1.2571
X1.819Y1.9279
X1.8228Y1.6339
X1.8228Y1.5827
X1.8228Y1.5315
X1.8228Y1.4803
X1.8228Y1.4331
X1.8232Y0.8146
X1.828Y1.6823
X1.8307Y2.0303
X1.8353Y1.9443
X1.8516Y1.9606
X1.8591Y0.0374
X1.8827Y0.1378
X1.9114Y-0.1291
X1.9634Y1.4063
X1.9827Y0.0856
X1.9878Y1.3331
X2.0047Y1.365
X2.0157Y0.0059
X2.0362Y1.2091
X2.0559Y0.2035
X2.126Y1.7978
X2.1417Y1.7559
X2.1417Y1.7244
X2.1417Y1.6417
X2.1417Y1.6102
X2.1626Y2.2846
X2.1646Y0.2898
X2.1654Y1.7402
X2.1654Y1.626
X2.1742Y-0.7185
X2.1886Y0.2898
X2.1992Y-0.1965
X2.2126Y0.2898
X2.2366Y0.2898
X2.2606Y0.2898
X2.2634Y2.4398
X2.2737Y0.7031
X2.2811Y0.3024
X2.2925Y0.5508
X2.3008Y0.3167
X2.3209Y0.3297
X2.3409Y0.3425
X2.3606Y0.3559
X2.3709Y-0.4598
X2.3803Y0.3697
X2.3862Y2.3327
X2.4Y0.3832
X2.407Y0.1298
X2.4079Y2.3138
X2.4193Y0.3976
X2.4217Y2.4538
X2.436Y1.7539
X2.4394Y0.4122
X2.4418Y1.532
X2.4591Y0.4272
X2.4626Y2.3138
X2.4693Y1.4461
X2.4795Y0.4421
X2.4866Y2.3323
X2.489Y-0.0598
X2.4963Y1.251
X2.5024Y-0.2339
X2.5102Y2.587
X2.5175Y1.196
X2.5406Y1.1969
X2.5492Y0.6496
X2.5512Y2.0935
X2.5555Y0.6929
X2.5591Y0.9744
X2.561Y-0.2736
X2.5617Y1.3031
X2.562Y1.3263
X2.5701Y2.9437
X2.6031Y2.7693
X2.6048Y0.9843
X2.6555Y1.648
X2.686Y1.8545
X2.6988Y1.3009
X2.7047Y1.7488
X2.7067Y-0.01
X2.7091Y1.8551
X2.7227Y1.2026
X2.7618Y-0.2756
X2.7726Y2.3512
X2.7736Y2.3763
X2.7807Y1.6008
X2.7913Y1.7677
X2.8012Y1.2018
X2.8017Y1.1747
X2.8169Y1.9213
X2.8209Y2.1801
X2.8209Y2.0497
X2.8346Y2.3265
X2.8465Y2.1811
X2.8465Y1.9547
X2.8642Y2.0999
X2.8768Y1.3009
X2.8972Y2.2874
X2.9043Y1.8531
X2.9157Y-0.0917
X2.9185Y0.2848
X2.939Y0.513
X2.9395Y0.9843
X2.9492Y2.2874
X2.9498Y2.1614
X2.952Y1.9323
X2.9654Y1.6902
X3.0Y2.5054
X3.0122Y0.7701
X3.0126Y0.589
X3.0217Y0.9843
X3.0217Y0.8071
X3.0217Y0.5512
X3.0236Y1.5423
X3.0476Y2.026
X3.0627Y1.763
X3.0768Y-0.2528
X3.0787Y2.3012
X3.0795Y1.804
X3.0846Y0.4311
X3.1252Y1.7291
X3.1311Y2.3445
X3.1313Y1.8852
X3.1323Y2.372
X3.1347Y1.1959
X3.1575Y1.9979
X3.165Y0.6098
X3.1661Y0.9016
X3.1661Y0.874
X3.1661Y0.8465
X3.1661Y0.748
X3.172Y2.3953
X3.1781Y0.7205
X3.1803Y0.8282
X3.189Y-0.6142
X3.2087Y-0.7726
X3.2105Y0.8514
X3.2114Y2.3122
X3.2234Y-0.6831
X3.2274Y-0.4892
X3.2276Y2.4244
X3.2303Y-0.0098
X3.2707Y1.9281
X3.3874Y2.5909
X3.3913Y-0.2083
X3.4276Y2.9787
X3.4398Y2.7524
X3.4566Y1.9778
X3.457Y1.9547
X3.4604Y2.6159
X3.4727Y0.2531
X3.4811Y2.7787
X3.5031Y2.9787
X3.5146Y0.0835
X3.5386Y0.6484
X3.5413Y2.2717
X3.5531Y2.5886
X3.5571Y2.0502
X3.5738Y0.6484
X3.5787Y-0.6118
X3.6118Y1.8283
X3.626Y1.9323
X3.6272Y0.4346
X3.637Y1.7528
X3.701Y1.0289
X3.7016Y0.1933
X3.7087Y2.2087
X3.7146Y2.1093
X3.737Y-0.615
X3.7516Y1.8177
X3.8543Y1.8504
X3.8858Y2.3681
T2
X0.7839Y2.037
X0.7839Y1.9976
X0.8232Y2.037
X0.8232Y1.9976
T4
X1.6543Y-0.0602
X1.6543Y-0.3602
X1.7543Y-0.0602
X1.7543Y-0.3602
X1.8543Y-0.0602
X1.8543Y-0.3602
X1.9543Y-0.0602
X1.9543Y-0.3602
X2.0543Y-0.0602
X2.0543Y-0.3602
X2.1543Y-0.0602
X2.1543Y-0.3602
X2.2543Y-0.0602
X2.2543Y-0.3602
X2.9748Y2.6839
X3.0748Y2.6839
X3.1748Y2.6839
T5
X2.5728Y-0.5659
X2.8288Y-0.5659
X3.1003Y-0.5659
X3.3563Y-0.5659
T6
X2.3291Y2.402
X2.3791Y2.502
X2.4291Y2.402
X2.4791Y2.502
X2.5291Y2.402
X2.5791Y2.502
X2.6291Y2.402
X2.6791Y2.502
X3.6031Y-0.2445
X3.6531Y-0.2445
X3.7031Y-0.2445
X3.7531Y-0.2445
T7
X0.3378Y1.6795
X0.3378Y1.5705
X0.3378Y1.4614
X0.3378Y1.3524
X0.4496Y1.7341
X0.4496Y1.625
X0.4496Y1.5159
X0.4496Y1.4069
X0.4496Y1.2978
X1.063Y2.6614
X1.063Y2.5591
X1.1614Y2.6614
X1.1614Y2.5591
X1.2402Y2.6614
X1.2402Y2.5591
X1.3386Y2.6614
X1.3386Y2.5591
X1.7016Y2.661
X1.7016Y2.5587
X1.8Y2.661
X1.8Y2.5587
X1.8787Y2.661
X1.8787Y2.5587
X1.9772Y2.661
X1.9772Y2.5587
T8
X0.2945Y-0.0925
X0.2945Y-0.1925
X0.2945Y-0.2925
X0.2945Y-0.3925
X0.2945Y-0.4925
X0.2945Y-0.5925
X0.3945Y-0.0925
X0.3945Y-0.1925
X0.3945Y-0.2925
X0.3945Y-0.3925
X0.3945Y-0.4925
X0.3945Y-0.5925
X1.6764Y2.2411
X1.7764Y2.2411
X2.0423Y2.3055
X2.0423Y2.2055
X2.0423Y2.1055
X2.0423Y2.0055
X2.113Y1.3823
X2.113Y1.2823
X2.113Y1.1823
X2.113Y1.0823
X2.113Y0.9823
X2.113Y0.8823
X2.113Y0.7823
X2.113Y0.6823
X2.113Y0.5823
X2.113Y0.4823
X2.1303Y0.0783
X2.213Y1.3823
X2.213Y1.2823
X2.213Y1.1823
X2.213Y1.0823
X2.213Y0.9823
X2.213Y0.8823
X2.213Y0.7823
X2.213Y0.6823
X2.213Y0.5823
X2.213Y0.4823
X2.2303Y0.0783
X2.6083Y-0.1673
X2.7083Y-0.1673
X2.8083Y-0.1673
X3.1299Y-0.1673
X3.2299Y-0.1673
X3.3299Y-0.1673
X3.6307Y-0.0098
X3.7307Y-0.0098
T9
X0.663Y1.3567
X0.663Y1.2567
X0.663Y1.1567
X0.663Y1.0567
X2.2551Y2.885
X2.3551Y2.9449
X2.6531Y2.885
X2.7531Y2.9449
T10
X2.9748Y2.787
X3.1748Y2.787
T11
X2.1941Y2.6319
X2.8142Y2.6319
T12
X0.9429Y2.5453
X0.9449Y2.7736
X1.4567Y2.7736
X1.4587Y2.5453
X1.5815Y2.5449
X1.5835Y2.7732
X2.0953Y2.7732
X2.0972Y2.5449
T13
X0.1181Y2.9134
X0.1181Y-0.7874
X3.8189Y2.9134
X3.8189Y-0.7874
T14
X0.3937Y2.0079
X0.3937Y1.024
T3
G00X0.3415Y2.9665
M15
G01X0.3415Y2.998
M16
G05
G00X0.3415Y2.7961
M15
G01X0.3415Y2.8394
M16
G05
G00X0.6821Y2.9665
M15
G01X0.6821Y2.998
M16
G05
G00X0.6821Y2.7961
M15
G01X0.6821Y2.8394
M16
G05
M30
