M48
; DRILL file {KiCad 9.0.0} date 2025-03-14T14:49:42-0400
; FORMAT={-:-/ absolute / metric / decimal}
; #@! TF.CreationDate,2025-03-14T14:49:42-04:00
; #@! TF.GenerationSoftware,Kicad,Pcbnew,9.0.0
; #@! TF.FileFunction,Plated,1,4,PTH
FMAT,2
METRIC
; #@! TA.AperFunction,Plated,PTH,ViaDrill
T1C0.200
; #@! TA.AperFunction,Plated,PTH,ViaDrill
T2C0.250
; #@! TA.AperFunction,Plated,PTH,ViaDrill
T3C0.300
; #@! TA.AperFunction,Plated,PTH,ComponentDrill
T4C0.600
; #@! TA.AperFunction,Plated,PTH,ComponentDrill
T5C0.750
; #@! TA.AperFunction,Plated,PTH,ComponentDrill
T6C0.800
; #@! TA.AperFunction,Plated,PTH,ComponentDrill
T7C0.813
; #@! TA.AperFunction,Plated,PTH,ComponentDrill
T8C0.900
; #@! TA.AperFunction,Plated,PTH,ComponentDrill
T9C0.920
; #@! TA.AperFunction,Plated,PTH,ComponentDrill
T10C0.965
; #@! TA.AperFunction,Plated,PTH,ComponentDrill
T11C1.000
; #@! TA.AperFunction,Plated,PTH,ComponentDrill
T12C1.016
; #@! TA.AperFunction,Plated,PTH,ComponentDrill
T13C1.020
; #@! TA.AperFunction,Plated,PTH,ComponentDrill
T14C1.100
; #@! TA.AperFunction,Plated,PTH,ComponentDrill
T15C1.300
; #@! TA.AperFunction,Plated,PTH,ComponentDrill
T16C1.600
; #@! TA.AperFunction,Plated,PTH,ComponentDrill
T17C2.300
; #@! TA.AperFunction,Plated,PTH,ComponentDrill
T18C3.050
%
G90
G05
T1
X18.68Y60.32
X19.602Y63.0
X23.71Y60.31
X23.9Y61.4
X25.43Y56.51
X26.59Y54.59
X26.89Y61.4
X27.03Y18.57
X27.03Y17.3
X27.03Y16.03
X27.03Y14.76
X27.75Y60.31
X27.75Y57.62
X27.9Y54.59
X31.13Y18.57
X31.13Y17.3
X31.13Y16.03
X31.688Y63.0
X38.5Y42.48
X38.52Y16.03
X39.28Y44.74
X39.28Y41.53
X43.37Y4.2
X46.85Y11.16
X47.45Y27.47
X49.03Y42.7
X49.03Y41.43
X49.03Y40.16
X49.03Y38.89
X49.03Y37.62
X49.03Y36.35
X49.03Y35.08
X49.03Y33.81
X49.03Y31.27
X49.03Y23.65
X49.03Y19.84
X50.53Y17.935
X50.73Y18.99
X50.74Y23.65
X50.941Y16.65
X51.195Y15.41
X51.449Y14.08
X53.13Y42.7
X53.13Y41.43
X53.13Y40.16
X53.13Y38.89
X53.13Y37.62
X53.13Y36.35
X53.13Y35.08
X53.13Y33.81
X53.13Y27.46
X53.13Y23.65
X53.13Y19.84
X53.13Y14.76
X53.13Y13.49
X53.13Y12.22
X53.13Y10.95
X53.13Y7.14
X53.13Y5.87
X55.08Y18.578
X55.11Y23.64
X55.11Y17.28
X55.11Y14.76
X55.53Y16.04
X55.55Y13.5
X55.97Y14.76
X55.98Y12.24
X56.39Y10.98
X56.391Y13.51
X56.447Y0.968
X56.47Y7.15
X61.18Y-8.24
X62.5Y-5.63
X62.5Y-7.76
X62.67Y-23.52
X64.02Y64.62
X65.455Y5.07
X68.744Y16.332
X68.75Y15.33
X68.758Y24.83
X68.76Y26.83
X68.762Y25.83
X68.765Y22.832
X68.767Y23.828
X68.768Y21.827
X68.773Y20.829
X68.777Y19.827
X68.78Y18.83
X68.89Y0.968
X69.054Y15.833
X69.067Y25.329
X69.068Y24.332
X69.07Y27.33
X69.07Y26.33
X69.07Y22.33
X69.07Y16.82
X69.077Y23.329
X69.08Y21.33
X69.081Y20.329
X69.087Y18.329
X69.089Y19.33
X72.82Y27.82
X72.822Y11.86
X73.745Y7.93
X73.761Y4.83
X74.329Y7.93
X74.345Y4.83
X74.913Y7.93
X74.929Y4.83
X75.322Y11.58
X79.95Y-23.54
X88.55Y22.34
X88.57Y26.83
X88.572Y24.323
X88.578Y23.33
X88.883Y27.327
X88.885Y22.83
X88.888Y23.829
X92.134Y24.33
X92.147Y35.73
X92.554Y23.83
X92.59Y35.07
X92.969Y23.33
X92.975Y34.44
X93.39Y22.83
X93.395Y33.81
X93.82Y22.35
X93.83Y44.74
X94.79Y26.83
X95.08Y29.98
X95.08Y27.39
X95.67Y27.44
X96.28Y29.98
X98.61Y64.78
X98.67Y62.5
X99.19Y8.51
X100.68Y62.5
X100.698Y8.092
X101.18Y54.0
X103.121Y54.009
X103.34Y64.75
X105.409Y-15.931
X105.41Y-27.962
X105.71Y64.78
X105.71Y62.44
X105.97Y22.95
T2
X18.5Y15.4
X19.17Y-15.95
X19.24Y-36.08
X19.24Y-38.734
X19.61Y-16.66
X20.03Y-17.34
X20.48Y-17.94
X20.797Y-8.639
X20.82Y-7.9
X20.92Y-18.465
X21.11Y-36.08
X21.11Y-39.7
X21.259Y-7.485
X21.33Y14.76
X21.5Y-13.74
X21.58Y-22.53
X22.0Y11.6
X22.04Y16.03
X22.45Y61.73
X22.49Y27.77
X22.6Y12.86
X22.73Y28.51
X22.95Y10.9
X23.01Y-9.16
X23.07Y29.06
X23.32Y29.7
X23.42Y12.16
X23.81Y-28.78
X23.84Y37.4
X24.31Y36.95
X24.44Y-5.73
X24.766Y36.554
X25.02Y5.87
X25.03Y-6.77
X25.08Y9.68
X25.19Y-43.48
X25.73Y-3.615
X26.12Y-4.076
X26.513Y-4.535
X26.919Y-4.982
X27.03Y41.43
X27.03Y36.35
X27.03Y35.08
X27.03Y12.22
X27.03Y10.95
X27.03Y8.41
X27.03Y7.14
X27.03Y5.87
X27.05Y0.13
X27.54Y-10.65
X27.77Y-38.734
X28.95Y0.89
X28.95Y-31.48
X29.37Y61.69
X29.56Y32.53
X29.61Y31.26
X29.7Y-2.14
X29.7Y-15.27
X30.38Y-13.33
X30.38Y-14.1
X31.13Y42.7
X31.13Y40.16
X31.13Y37.62
X31.13Y36.35
X31.13Y14.76
X31.13Y13.49
X31.13Y12.22
X31.13Y10.95
X31.13Y8.41
X31.13Y7.14
X31.13Y5.87
X31.53Y46.85
X32.65Y57.62
X32.65Y51.93
X32.66Y29.99
X32.66Y-1.35
X32.75Y34.45
X32.83Y45.59
X32.84Y41.65
X33.09Y-2.93
X33.53Y-23.4
X33.53Y5.87
X34.03Y7.14
X34.06Y-6.27
X34.16Y48.01
X34.16Y-21.33
X34.187Y47.407
X34.36Y-13.35
X34.36Y-18.92
X34.38Y-15.72
X34.5Y-25.33
X34.51Y3.75
X34.53Y6.39
X34.66Y48.97
X34.98Y4.19
X34.999Y7.71
X35.13Y-22.44
X35.13Y-26.13
X35.295Y48.5
X35.345Y-3.05
X35.46Y8.41
X35.47Y4.66
X35.62Y-35.04
X35.64Y-40.25
X36.0Y18.57
X36.0Y-3.81
X36.24Y43.23
X36.25Y45.52
X36.33Y-31.5
X36.41Y-10.76
X36.454Y-4.259
X36.46Y17.3
X36.46Y-20.4
X36.47Y-8.83
X36.87Y17.93
X36.887Y-4.68
X37.01Y-18.56
X37.04Y46.24
X37.05Y62.61
X37.33Y-5.091
X37.39Y16.59
X37.451Y-8.297
X37.46Y-17.91
X37.62Y-23.42
X37.62Y-31.89
X37.71Y-17.26
X37.91Y-7.904
X37.963Y3.19
X37.97Y51.92
X38.23Y-14.1
X38.97Y-37.11
X39.03Y0.121
X39.29Y62.607
X39.45Y-11.4
X39.45Y-12.06
X39.46Y38.21
X39.58Y-0.4
X39.81Y52.52
X39.82Y46.85
X39.83Y49.5
X40.04Y2.54
X40.06Y46.22
X40.08Y-37.11
X40.65Y-6.76
X40.66Y-24.95
X40.66Y-31.89
X40.81Y-2.14
X40.82Y45.52
X41.11Y46.2
X41.12Y52.6
X41.12Y49.5
X41.18Y-37.11
X41.235Y59.13
X41.24Y61.025
X41.55Y39.53
X41.615Y7.705
X41.935Y8.239
X42.0Y36.36
X42.43Y46.2
X42.43Y1.97
X42.55Y49.51
X42.55Y47.34
X42.76Y-13.36
X42.76Y-24.01
X42.825Y1.513
X42.94Y46.879
X43.19Y62.607
X43.36Y-0.86
X43.39Y-37.11
X43.7Y-31.89
X43.71Y-6.288
X43.819Y1.033
X43.82Y49.5
X43.845Y59.13
X44.17Y-15.98
X44.21Y-22.28
X44.23Y0.59
X44.27Y47.35
X44.415Y-33.32
X44.6Y-11.41
X44.651Y-21.391
X44.66Y-15.31
X44.71Y37.65
X44.71Y10.71
X44.71Y9.74
X44.71Y5.29
X44.72Y4.67
X44.72Y-5.79
X45.12Y-19.03
X45.13Y-14.68
X45.18Y-12.91
X45.39Y32.06
X45.39Y5.87
X45.58Y-37.11
X45.61Y-13.48
X45.61Y-19.48
X46.03Y8.23
X46.03Y6.47
X46.04Y4.61
X46.06Y-20.39
X46.42Y9.75
X46.47Y33.2
X46.57Y5.87
X46.57Y-19.95
X46.68Y-37.11
X46.73Y-20.84
X46.74Y-31.89
X46.86Y26.82
X47.02Y-10.65
X47.02Y-18.52
X47.03Y-12.06
X47.45Y11.58
X47.52Y-14.01
X47.53Y-17.88
X47.78Y-37.11
X48.71Y-15.42
X48.73Y-1.37
X49.03Y32.54
X49.03Y21.11
X49.03Y8.41
X49.03Y7.14
X49.03Y5.87
X49.03Y4.6
X49.18Y3.72
X49.221Y-4.817
X49.79Y-5.78
X49.79Y-31.89
X50.59Y33.21
X51.6Y31.89
X51.75Y47.67
X51.75Y3.13
X51.75Y-7.95
X52.23Y48.05
X52.48Y3.83
X52.82Y-0.92
X52.82Y-31.88
X52.84Y49.48
X52.84Y48.18
X52.95Y62.607
X53.13Y21.11
X53.13Y8.41
X54.04Y-4.84
X54.04Y-17.09
X54.04Y-20.85
X54.58Y-0.67
X54.59Y-5.63
X55.25Y50.67
X55.46Y11.58
X55.5Y3.21
X55.51Y6.46
X56.0Y48.77
X56.0Y8.41
X56.0Y-4.84
X56.015Y53.98
X56.11Y27.47
X56.12Y32.57
X56.37Y-26.1
X56.38Y-16.602
X56.435Y62.607
X56.68Y33.05
X56.71Y27.9
X57.106Y8.238
X57.17Y-32.56
X57.18Y49.34
X57.18Y-25.49
X57.3Y64.62
X57.65Y49.81
X57.65Y8.5
X57.75Y-7.989
X57.75Y-44.147
X57.77Y-22.94
X58.03Y7.15
X58.12Y43.78
X58.14Y51.68
X58.15Y54.78
X58.34Y-40.49
X58.35Y-37.06
X58.62Y67.98
X58.62Y62.46
X58.7Y51.03
X58.71Y45.2
X58.815Y-40.864
X58.82Y-39.04
X60.3Y5.07
X60.32Y52.14
X60.53Y2.55
X60.68Y68.459
X60.68Y66.17
X60.68Y-4.84
X60.68Y-15.9
X60.73Y63.09
X60.73Y60.18
X60.78Y-18.52
X60.931Y-27.17
X61.12Y-28.21
X61.16Y7.76
X61.4Y-17.9
X61.4Y-24.47
X61.53Y44.07
X61.839Y-2.151
X61.919Y-13.709
X61.96Y56.48
X61.97Y58.66
X62.17Y-41.37
X62.2Y-15.46
X62.2Y-30.38
X62.68Y-21.27
X62.738Y9.88
X62.738Y1.778
X62.865Y51.77
X62.865Y48.579
X62.87Y55.29
X63.28Y13.344
X63.28Y12.74
X63.28Y12.136
X63.5Y-30.35
X63.51Y3.83
X63.55Y58.05
X63.57Y63.06
X63.57Y60.18
X63.61Y68.459
X63.61Y66.17
X64.13Y54.77
X64.135Y48.579
X64.21Y62.459
X64.21Y41.63
X64.22Y37.06
X64.55Y-28.22
X64.71Y-19.01
X64.72Y-27.64
X64.96Y-43.63
X65.02Y6.02
X65.18Y62.459
X65.455Y-9.375
X65.49Y43.79
X65.59Y-13.71
X65.59Y-25.48
X65.64Y6.6
X65.72Y67.98
X65.75Y54.77
X66.14Y50.29
X66.22Y32.57
X66.29Y63.59
X66.46Y-19.49
X66.46Y-28.61
X66.59Y-29.58
X66.61Y-35.04
X66.75Y32.09
X67.01Y-36.09
X67.02Y-40.84
X67.24Y-15.04
X67.24Y-32.29
X67.35Y50.28
X67.35Y33.06
X67.94Y14.88
X68.02Y40.76
X68.04Y32.53
X68.18Y-9.375
X68.18Y-12.13
X68.18Y-21.81
X68.67Y48.1
X68.67Y28.48
X68.7Y17.83
X68.89Y-12.58
X68.92Y-21.32
X68.93Y49.81
X68.94Y53.42
X69.3Y47.47
X69.32Y32.93
X69.42Y49.34
X69.43Y54.54
X69.9Y52.78
X70.33Y51.77
X70.57Y37.16
X70.7Y43.15
X70.74Y65.26
X70.74Y61.58
X71.05Y2.54
X71.05Y-10.68
X71.14Y28.96
X71.22Y49.06
X71.55Y57.45
X71.55Y53.42
X71.84Y42.64
X71.84Y37.21
X72.31Y17.35
X72.46Y61.58
X72.47Y58.32
X72.6Y56.77
X72.75Y-12.69
X72.751Y-29.99
X72.83Y-26.08
X73.1Y37.18
X73.11Y40.27
X73.22Y-27.16
X73.23Y-36.59
X73.822Y31.27
X74.07Y60.23
X74.09Y9.27
X74.13Y-18.82
X74.16Y-24.95
X74.32Y14.84
X74.34Y39.84
X74.38Y57.54
X74.44Y-13.71
X74.44Y-15.085
X74.45Y-18.19
X75.34Y62.54
X75.35Y64.12
X75.59Y17.61
X75.67Y37.61
X75.675Y39.415
X75.94Y8.57
X76.41Y15.37
X76.65Y56.1
X76.65Y51.67
X76.83Y27.76
X76.9Y0.99
X76.912Y9.35
X76.92Y38.96
X76.93Y38.07
X77.05Y-12.01
X77.23Y55.14
X77.24Y-19.5
X77.366Y11.596
X77.38Y8.54
X77.67Y-36.56
X77.71Y60.19
X77.71Y54.57
X77.81Y32.04
X77.83Y3.91
X77.95Y15.38
X78.21Y38.51
X78.32Y32.49
X78.48Y5.44
X78.79Y17.6
X78.822Y11.582
X78.83Y32.94
X78.922Y4.882
X78.95Y44.73
X79.05Y-24.47
X79.13Y61.26
X79.14Y58.33
X79.14Y51.67
X79.18Y48.1
X79.19Y3.2
X79.19Y1.71
X79.19Y0.41
X79.45Y-10.675
X79.46Y4.22
X79.7Y41.64
X79.82Y36.26
X79.82Y14.77
X79.96Y-27.59
X80.33Y36.71
X80.42Y56.78
X80.42Y49.07
X80.43Y-24.0
X80.59Y7.57
X80.6Y5.44
X80.79Y66.24
X80.81Y61.26
X80.81Y37.16
X80.83Y11.53
X81.28Y-21.81
X81.29Y-24.17
X81.31Y37.61
X81.81Y38.06
X81.81Y-22.27
X81.96Y4.68
X82.02Y41.79
X82.17Y-21.35
X82.32Y38.51
X82.33Y-29.41
X82.45Y3.3
X82.67Y11.02
X82.85Y38.96
X83.19Y-27.59
X83.31Y14.596
X83.33Y39.41
X83.6Y-18.77
X83.6Y-24.17
X83.73Y7.56
X83.82Y39.84
X83.82Y-18.18
X83.822Y15.12
X83.9Y6.6
X84.32Y40.29
X84.48Y53.98
X84.49Y49.09
X84.52Y-28.12
X84.73Y7.32
X84.81Y10.39
X84.81Y0.99
X84.82Y42.7
X85.0Y-37.07
X85.05Y48.53
X85.05Y47.39
X85.27Y-17.079
X85.41Y26.33
X85.57Y-30.0
X85.82Y3.32
X86.14Y-36.09
X86.26Y6.44
X86.32Y3.77
X86.82Y4.68
X86.82Y3.28
X86.83Y-6.98
X86.86Y45.25
X86.985Y14.085
X87.32Y4.21
X87.368Y-28.624
X87.42Y-19.34
X87.52Y43.17
X87.52Y42.09
X87.52Y9.35
X87.55Y8.33
X87.675Y12.065
X87.675Y10.18
X87.82Y-7.79
X87.84Y52.65
X87.85Y57.04
X87.985Y37.165
X88.14Y49.09
X88.14Y42.75
X88.32Y-8.24
X88.345Y-0.71
X88.48Y17.83
X88.481Y12.47
X88.68Y-21.88
X88.96Y17.299
X88.975Y15.83
X89.12Y53.77
X89.17Y49.96
X89.25Y19.85
X89.39Y37.29
X89.4Y49.19
X89.46Y16.83
X89.95Y-22.21
X90.07Y51.79
X90.07Y11.53
X90.4Y57.03
X90.665Y46.95
X90.67Y40.76
X90.71Y9.31
X91.023Y18.206
X91.04Y18.81
X91.17Y-20.2
X91.42Y11.66
X91.42Y-1.67
X91.61Y21.89
X91.88Y19.379
X91.93Y40.83
X91.94Y43.74
X91.94Y-19.71
X92.3Y52.75
X92.35Y-4.085
X92.45Y20.66
X92.45Y15.11
X92.57Y50.14
X92.57Y-28.46
X92.71Y3.15
X92.77Y6.4
X92.87Y-31.99
X92.9Y-6.99
X93.0Y5.1
X93.0Y4.45
X93.0Y3.8
X93.2Y49.66
X93.36Y-22.225
X93.45Y11.63
X93.772Y-7.32
X94.05Y19.94
X94.29Y31.09
X94.3Y23.22
X94.45Y13.16
X94.48Y44.21
X94.49Y48.72
X94.56Y-1.28
X94.77Y21.91
X95.26Y20.07
X95.54Y36.71
X95.54Y31.09
X95.71Y-44.7
X95.74Y42.75
X95.74Y42.09
X95.745Y43.69
X96.0Y16.83
X96.01Y-6.26
X96.02Y0.55
X96.07Y62.5
X96.26Y5.75
X96.34Y1.85
X96.37Y-25.235
X96.41Y-22.96
X96.94Y41.83
X96.95Y49.66
X97.14Y34.54
X97.36Y20.07
X97.41Y48.72
X97.41Y42.34
X97.67Y-1.43
X97.675Y10.86
X97.746Y-10.22
X97.756Y-13.3
X97.86Y37.66
X97.925Y19.379
X97.925Y18.775
X98.06Y46.95
X98.12Y15.9
X98.35Y-10.22
X98.36Y-13.3
X98.52Y12.47
X98.61Y67.98
X98.625Y14.09
X98.954Y-10.22
X98.964Y-13.3
X99.07Y44.24
X99.225Y2.72
X99.3Y-45.8
X99.32Y-28.46
X99.39Y50.14
X99.585Y14.09
X100.24Y57.59
X100.31Y48.24
X100.37Y22.95
X100.37Y14.68
X100.69Y41.83
X100.7Y46.85
X100.71Y10.86
X100.775Y6.21
X100.775Y-0.34
X101.1Y18.05
X101.33Y48.24
X101.34Y43.68
X101.34Y41.1
X101.716Y-10.09
X101.72Y-6.72
X101.98Y42.389
X101.99Y44.74
X102.32Y-10.09
X102.324Y-6.72
X102.63Y49.19
X102.924Y-10.09
X102.928Y-6.72
X103.74Y43.68
X103.74Y41.4
X103.87Y-20.214
X103.96Y21.172
X104.05Y-43.35
X104.095Y3.695
X104.11Y5.1
X104.25Y38.67
X104.33Y51.51
X104.33Y43.125
X104.38Y11.42
X104.38Y-19.71
X104.41Y4.45
X104.465Y34.15
X104.54Y-13.45
X104.71Y57.0
X104.79Y-17.25
X104.89Y37.66
X104.94Y15.57
X104.95Y31.71
X104.95Y18.05
X105.463Y20.703
X105.5Y20.1
X105.71Y67.98
X106.48Y-28.842
X106.48Y-31.272
X106.9Y37.75
X108.12Y47.43
X109.38Y47.27
X109.86Y36.73
X109.89Y39.67
X110.69Y25.11
X110.69Y-19.71
X111.23Y25.52
X111.23Y-20.2
X111.27Y29.695
X111.4Y44.93
X111.41Y41.94
X111.75Y18.33
X111.96Y24.64
X112.079Y-43.36
X112.21Y57.59
X112.58Y57.0
T3
X24.04Y52.85
X24.04Y52.03
X24.04Y51.17
X30.105Y52.88
X30.105Y52.02
X30.105Y51.2
X37.67Y-43.54
X58.37Y23.91
X59.51Y22.28
T6
X22.12Y-45.65
X24.12Y-45.65
X26.12Y-45.65
X28.12Y-45.65
X87.85Y58.71
X90.39Y58.71
X92.93Y58.71
X98.74Y54.0
X98.74Y51.5
X105.58Y54.0
X105.58Y51.5
T7
X102.088Y-33.302
X108.59Y-33.302
T8
X71.53Y50.33
X72.8Y52.87
X74.07Y50.33
X75.34Y52.87
X76.61Y50.33
X77.88Y52.87
X79.15Y50.33
X80.42Y52.87
T9
X54.212Y57.698
X54.212Y55.698
X54.212Y53.698
X54.212Y51.698
X62.837Y-32.038
X62.837Y-34.038
X62.837Y-36.038
X62.837Y-38.038
T10
X106.83Y29.73
X106.83Y27.19
X106.83Y24.65
X106.83Y22.11
X106.83Y19.57
X106.83Y17.03
X106.83Y14.49
X106.83Y11.95
X106.83Y9.41
X106.83Y6.87
X106.83Y4.33
X106.83Y1.79
X106.83Y-0.75
X106.83Y-3.29
X106.83Y-5.83
X106.83Y-8.37
X106.83Y-10.91
X106.83Y-13.45
X106.83Y-15.99
X106.83Y-18.53
X109.37Y29.73
X109.37Y27.19
X109.37Y24.65
X109.37Y22.11
X109.37Y19.57
X109.37Y17.03
X109.37Y14.49
X109.37Y11.95
X109.37Y9.41
X109.37Y6.87
X109.37Y4.33
X109.37Y1.79
X109.37Y-0.75
X109.37Y-3.29
X109.37Y-5.83
X109.37Y-8.37
X109.37Y-10.91
X109.37Y-13.45
X109.37Y-15.99
X109.37Y-18.53
T11
X34.057Y-33.96
X34.057Y-36.5
X34.057Y-39.04
X34.057Y-41.58
X34.057Y-44.12
X34.057Y-46.66
X38.11Y56.95
X38.11Y54.35
X40.61Y56.95
X40.61Y54.35
X42.61Y56.95
X42.61Y54.35
X45.11Y56.95
X45.11Y54.35
X56.407Y-33.96
X56.407Y-36.5
X56.407Y-39.04
X56.407Y-41.58
X56.407Y-44.12
X56.407Y-46.66
X77.66Y-39.15
X79.045Y-41.99
X80.43Y-39.15
X81.815Y-41.99
X83.2Y-39.15
X84.585Y-41.99
X85.97Y-39.15
X87.355Y-41.99
X88.74Y-39.15
X103.109Y-47.67
X107.609Y-47.67
T12
X20.8Y51.33
X20.8Y48.79
X20.8Y46.25
X20.8Y43.71
X75.94Y10.4
X78.48Y10.4
X81.02Y10.4
T13
X69.65Y62.6
X69.66Y-33.59
X72.19Y64.12
X72.2Y-33.59
X74.74Y-33.59
X77.28Y-33.59
X79.76Y62.6
X82.3Y64.12
T14
X87.85Y61.33
X92.93Y61.33
T15
X21.12Y-41.15
X21.12Y-48.65
X29.12Y-41.15
X29.12Y-48.65
X101.859Y-45.17
X108.859Y-45.17
T16
X68.1Y56.17
X83.85Y56.17
T17
X35.06Y54.0
X35.11Y59.8
X48.11Y59.8
X48.16Y54.0
T18
X70.705Y-40.57
X95.695Y-40.57
T4
X21.32Y67.82G85X21.32Y68.62
G05
X21.32Y63.49G85X21.32Y64.59
G05
X29.97Y67.82G85X29.97Y68.62
G05
X29.97Y63.49G85X29.97Y64.59
G05
T5
X51.477Y57.953G85X51.477Y58.903
G05
X51.477Y50.953G85X51.477Y51.903
G05
X56.947Y57.953G85X56.947Y58.903
G05
X56.947Y50.953G85X56.947Y51.903
G05
X60.102Y-31.293G85X60.102Y-32.243
G05
X60.102Y-38.293G85X60.102Y-39.243
G05
X65.572Y-31.293G85X65.572Y-32.243
G05
X65.572Y-38.293G85X65.572Y-39.243
G05
M30
