G04 #@! TF.GenerationSoftware,KiCad,Pcbnew,9.0.0*
G04 #@! TF.CreationDate,2025-03-14T14:49:40-04:00*
G04 #@! TF.ProjectId,MiniCamel_long_rev.A,4d696e69-4361-46d6-956c-5f6c6f6e675f,2.1*
G04 #@! TF.SameCoordinates,PX16e3600PY6052340*
G04 #@! TF.FileFunction,Soldermask,Top*
G04 #@! TF.FilePolarity,Negative*
%FSLAX46Y46*%
G04 Gerber Fmt 4.6, Leading zero omitted, Abs format (unit mm)*
G04 Created by KiCad (PCBNEW 9.0.0) date 2025-03-14 14:49:40*
%MOMM*%
%LPD*%
G01*
G04 APERTURE LIST*
G04 Aperture macros list*
%AMRoundRect*
0 Rectangle with rounded corners*
0 $1 Rounding radius*
0 $2 $3 $4 $5 $6 $7 $8 $9 X,Y pos of 4 corners*
0 Add a 4 corners polygon primitive as box body*
4,1,4,$2,$3,$4,$5,$6,$7,$8,$9,$2,$3,0*
0 Add four circle primitives for the rounded corners*
1,1,$1+$1,$2,$3*
1,1,$1+$1,$4,$5*
1,1,$1+$1,$6,$7*
1,1,$1+$1,$8,$9*
0 Add four rect primitives between the rounded corners*
20,1,$1+$1,$2,$3,$4,$5,0*
20,1,$1+$1,$4,$5,$6,$7,0*
20,1,$1+$1,$6,$7,$8,$9,0*
20,1,$1+$1,$8,$9,$2,$3,0*%
G04 Aperture macros list end*
%ADD10RoundRect,0.250000X0.650000X-0.325000X0.650000X0.325000X-0.650000X0.325000X-0.650000X-0.325000X0*%
%ADD11RoundRect,0.225000X-0.225000X-0.250000X0.225000X-0.250000X0.225000X0.250000X-0.225000X0.250000X0*%
%ADD12RoundRect,0.140000X-0.170000X0.140000X-0.170000X-0.140000X0.170000X-0.140000X0.170000X0.140000X0*%
%ADD13RoundRect,0.140000X0.140000X0.170000X-0.140000X0.170000X-0.140000X-0.170000X0.140000X-0.170000X0*%
%ADD14RoundRect,0.225000X-0.250000X0.225000X-0.250000X-0.225000X0.250000X-0.225000X0.250000X0.225000X0*%
%ADD15C,2.000000*%
%ADD16C,2.600000*%
%ADD17R,1.600000X1.600000*%
%ADD18C,1.600000*%
%ADD19RoundRect,0.225000X0.225000X0.250000X-0.225000X0.250000X-0.225000X-0.250000X0.225000X-0.250000X0*%
%ADD20RoundRect,0.135000X-0.135000X-0.185000X0.135000X-0.185000X0.135000X0.185000X-0.135000X0.185000X0*%
%ADD21R,2.200000X1.600000*%
%ADD22RoundRect,0.135000X-0.185000X0.135000X-0.185000X-0.135000X0.185000X-0.135000X0.185000X0.135000X0*%
%ADD23RoundRect,0.135000X0.185000X-0.135000X0.185000X0.135000X-0.185000X0.135000X-0.185000X-0.135000X0*%
%ADD24RoundRect,0.100000X-0.100000X0.637500X-0.100000X-0.637500X0.100000X-0.637500X0.100000X0.637500X0*%
%ADD25RoundRect,0.225000X0.250000X-0.225000X0.250000X0.225000X-0.250000X0.225000X-0.250000X-0.225000X0*%
%ADD26RoundRect,0.162500X0.162500X-1.462500X0.162500X1.462500X-0.162500X1.462500X-0.162500X-1.462500X0*%
%ADD27R,0.600000X1.200000*%
%ADD28RoundRect,0.200000X-0.200000X-0.275000X0.200000X-0.275000X0.200000X0.275000X-0.200000X0.275000X0*%
%ADD29RoundRect,0.140000X0.170000X-0.140000X0.170000X0.140000X-0.170000X0.140000X-0.170000X-0.140000X0*%
%ADD30C,1.397000*%
%ADD31C,1.300000*%
%ADD32C,1.700000*%
%ADD33R,1.200000X0.600000*%
%ADD34R,1.000000X3.000000*%
%ADD35R,1.700000X1.700000*%
%ADD36O,1.700000X1.700000*%
%ADD37RoundRect,0.140000X-0.140000X-0.170000X0.140000X-0.170000X0.140000X0.170000X-0.140000X0.170000X0*%
%ADD38R,0.950000X2.150000*%
%ADD39R,3.250000X2.150000*%
%ADD40RoundRect,0.135000X0.135000X0.185000X-0.135000X0.185000X-0.135000X-0.185000X0.135000X-0.185000X0*%
%ADD41RoundRect,0.100000X0.637500X0.100000X-0.637500X0.100000X-0.637500X-0.100000X0.637500X-0.100000X0*%
%ADD42C,1.400000*%
%ADD43C,0.900000*%
%ADD44R,2.400000X0.600000*%
%ADD45R,3.200000X1.900000*%
%ADD46RoundRect,0.162500X0.162500X-1.337500X0.162500X1.337500X-0.162500X1.337500X-0.162500X-1.337500X0*%
%ADD47R,1.530000X1.530000*%
%ADD48C,1.550000*%
%ADD49RoundRect,0.250000X0.550000X-1.250000X0.550000X1.250000X-0.550000X1.250000X-0.550000X-1.250000X0*%
%ADD50RoundRect,0.075000X-0.075000X1.162500X-0.075000X-1.162500X0.075000X-1.162500X0.075000X1.162500X0*%
%ADD51RoundRect,0.075000X-1.162500X0.075000X-1.162500X-0.075000X1.162500X-0.075000X1.162500X0.075000X0*%
%ADD52R,1.397000X1.397000*%
%ADD53R,0.700000X0.700000*%
%ADD54C,1.420000*%
%ADD55O,1.250000X2.250000*%
%ADD56R,1.300000X1.800000*%
%ADD57R,1.200000X1.800000*%
%ADD58R,0.600000X1.550000*%
%ADD59C,3.250000*%
%ADD60RoundRect,0.102000X-0.704000X-0.704000X0.704000X-0.704000X0.704000X0.704000X-0.704000X0.704000X0*%
%ADD61C,1.612000*%
%ADD62C,1.734000*%
%ADD63C,2.604000*%
%ADD64RoundRect,0.200000X0.275000X-0.200000X0.275000X0.200000X-0.275000X0.200000X-0.275000X-0.200000X0*%
%ADD65C,0.800000*%
%ADD66R,2.600000X0.630000*%
%ADD67C,0.600000*%
%ADD68R,0.600000X1.440000*%
%ADD69R,0.300000X1.500000*%
%ADD70O,0.900000X2.000000*%
%ADD71O,0.900000X1.700000*%
%ADD72RoundRect,0.250000X0.325000X0.650000X-0.325000X0.650000X-0.325000X-0.650000X0.325000X-0.650000X0*%
%ADD73RoundRect,0.150000X-0.150000X0.825000X-0.150000X-0.825000X0.150000X-0.825000X0.150000X0.825000X0*%
%ADD74C,1.000000*%
%ADD75R,0.700000X1.300000*%
%ADD76R,1.400000X2.200000*%
%ADD77R,1.200000X1.700000*%
%ADD78RoundRect,0.250000X0.250000X0.475000X-0.250000X0.475000X-0.250000X-0.475000X0.250000X-0.475000X0*%
%ADD79RoundRect,0.250000X-0.325000X-0.650000X0.325000X-0.650000X0.325000X0.650000X-0.325000X0.650000X0*%
%ADD80C,1.500000*%
%ADD81C,3.000000*%
%ADD82C,5.000000*%
%ADD83RoundRect,0.250000X-0.650000X0.325000X-0.650000X-0.325000X0.650000X-0.325000X0.650000X0.325000X0*%
%ADD84C,1.950000*%
%ADD85O,0.600000X0.900000*%
G04 APERTURE END LIST*
D10*
X83900000Y5635000D03*
X83900000Y8585000D03*
D11*
X95595000Y-19990000D03*
X97145000Y-19990000D03*
D12*
X73064871Y6910000D03*
X73064871Y5950000D03*
D13*
X74070000Y10830000D03*
X73110000Y10830000D03*
D14*
X100710000Y10860000D03*
X100710000Y9310000D03*
D15*
X103108524Y-47670025D03*
X107608524Y-47670025D03*
D16*
X101858524Y-45170025D03*
X108858524Y-45170025D03*
D17*
X98740000Y51500000D03*
D18*
X98740000Y54000000D03*
D19*
X86075000Y-18180000D03*
X84525000Y-18180000D03*
D20*
X100060000Y-1590000D03*
X101080000Y-1590000D03*
D13*
X99585000Y16325000D03*
X98625000Y16325000D03*
D18*
X62170000Y67280000D03*
X62170000Y61280000D03*
D21*
X58620000Y64780000D03*
X65720000Y64780000D03*
X58620000Y67980000D03*
X65720000Y67980000D03*
X58620000Y61280000D03*
X65720000Y61280000D03*
D22*
X87840000Y54250000D03*
X87840000Y53230000D03*
D14*
X111950000Y29695000D03*
X111950000Y28145000D03*
D23*
X96740000Y20070000D03*
X96740000Y21090000D03*
D12*
X67940000Y17830000D03*
X67940000Y16870000D03*
D20*
X90050000Y22020000D03*
X91070000Y22020000D03*
D23*
X92300000Y53230000D03*
X92300000Y54250000D03*
D11*
X88340000Y3120000D03*
X89890000Y3120000D03*
D13*
X76820000Y31960000D03*
X75860000Y31960000D03*
D24*
X103290090Y45862500D03*
X102640090Y45862500D03*
X101990090Y45862500D03*
X101340090Y45862500D03*
X100690090Y45862500D03*
X100040090Y45862500D03*
X99390090Y45862500D03*
X99390090Y40137500D03*
X100040090Y40137500D03*
X100690090Y40137500D03*
X101340090Y40137500D03*
X101990090Y40137500D03*
X102640090Y40137500D03*
X103290090Y40137500D03*
D25*
X97675000Y9310000D03*
X97675000Y10860000D03*
D26*
X64220000Y35240000D03*
X65490000Y35240000D03*
X66760000Y35240000D03*
X68030000Y35240000D03*
X69300000Y35240000D03*
X70570000Y35240000D03*
X71840000Y35240000D03*
X73110000Y35240000D03*
X74380000Y35240000D03*
X75650000Y35240000D03*
X76920000Y35240000D03*
X78190000Y35240000D03*
X78190000Y45690000D03*
X76920000Y45690000D03*
X75650000Y45690000D03*
X74380000Y45690000D03*
X73110000Y45690000D03*
X71840000Y45690000D03*
X70570000Y45690000D03*
X69300000Y45690000D03*
X68030000Y45690000D03*
X66760000Y45690000D03*
X65490000Y45690000D03*
X64220000Y45690000D03*
D22*
X103650000Y38670000D03*
X103650000Y37650000D03*
D27*
X89120000Y52640000D03*
X90070000Y52640000D03*
X91020000Y52640000D03*
X91020000Y54840000D03*
X89120000Y54840000D03*
D28*
X64205000Y12740000D03*
X65855000Y12740000D03*
D29*
X95680000Y29020000D03*
X95680000Y29980000D03*
D25*
X61720000Y35255000D03*
X61720000Y36805000D03*
D30*
X20800000Y43710000D03*
X20800000Y46250000D03*
X20800000Y48790000D03*
X20800000Y51330000D03*
D31*
X92930000Y58710000D03*
X90390000Y58710000D03*
X87850000Y58710000D03*
D32*
X92930000Y61330000D03*
X87850000Y61330000D03*
D33*
X93447500Y-2185000D03*
X93447500Y-3135000D03*
X93447500Y-4085000D03*
X95647500Y-4085000D03*
X95647500Y-2185000D03*
X93447500Y11035000D03*
X93447500Y10085000D03*
X93447500Y9135000D03*
X95647500Y9135000D03*
X95647500Y11035000D03*
D13*
X99585000Y15350000D03*
X98625000Y15350000D03*
D12*
X98060000Y46420000D03*
X98060000Y45460000D03*
D25*
X31687500Y65445000D03*
X31687500Y66995000D03*
D19*
X89895000Y-710000D03*
X88345000Y-710000D03*
X96000000Y15510000D03*
X94450000Y15510000D03*
D25*
X28600000Y58745000D03*
X28600000Y60295000D03*
D18*
X102160000Y67280000D03*
X102160000Y61280000D03*
D21*
X98610000Y64780000D03*
X105710000Y64780000D03*
X98610000Y67980000D03*
X105710000Y67980000D03*
X98610000Y61280000D03*
X105710000Y61280000D03*
D11*
X102865000Y34150000D03*
X104415000Y34150000D03*
D34*
X98970000Y24660000D03*
X98970000Y30000000D03*
D35*
X34057270Y-46659968D03*
D36*
X34057270Y-44119968D03*
X34057270Y-41579968D03*
X34057270Y-39039968D03*
X34057270Y-36499968D03*
X34057270Y-33959968D03*
D32*
X56407270Y-46659968D03*
D36*
X56407270Y-44119968D03*
X56407270Y-41579968D03*
X56407270Y-39039968D03*
X56407270Y-36499968D03*
X56407270Y-33959968D03*
D22*
X95540000Y34570000D03*
X95540000Y33550000D03*
D37*
X73110000Y9850000D03*
X74070000Y9850000D03*
D25*
X97675000Y-3910000D03*
X97675000Y-2360000D03*
D12*
X101380000Y38620000D03*
X101380000Y37660000D03*
D38*
X64110000Y23910000D03*
X61810000Y23910000D03*
D39*
X61810000Y17860000D03*
D38*
X59510000Y23910000D03*
D40*
X90200000Y550000D03*
X89180000Y550000D03*
D19*
X96000000Y13990000D03*
X94450000Y13990000D03*
D37*
X90080000Y16770000D03*
X91040000Y16770000D03*
D20*
X100060000Y3970000D03*
X101080000Y3970000D03*
D19*
X88385000Y49960000D03*
X86835000Y49960000D03*
D41*
X97410000Y550000D03*
X97410000Y1200000D03*
X97410000Y1850000D03*
X97410000Y2500000D03*
X97410000Y3150000D03*
X97410000Y3800000D03*
X97410000Y4450000D03*
X97410000Y5100000D03*
X97410000Y5750000D03*
X97410000Y6400000D03*
X91685000Y6400000D03*
X91685000Y5750000D03*
X91685000Y5100000D03*
X91685000Y4450000D03*
X91685000Y3800000D03*
X91685000Y3150000D03*
X91685000Y2500000D03*
X91685000Y1850000D03*
X91685000Y1200000D03*
X91685000Y550000D03*
D42*
X27310000Y-1830000D03*
D16*
X75360000Y-2230000D03*
X75360000Y-26430000D03*
D43*
X27310000Y-26830000D03*
D44*
X23010000Y-2530000D03*
X31610000Y-2930000D03*
X23010000Y-3330000D03*
X31610000Y-3730000D03*
X23010000Y-4130000D03*
X31610000Y-4530000D03*
X23010000Y-4930000D03*
X31610000Y-5330000D03*
X23010000Y-5730000D03*
X31610000Y-6130000D03*
X23010000Y-6530000D03*
X31610000Y-6930000D03*
X23010000Y-7330000D03*
X31610000Y-7730000D03*
X23010000Y-8130000D03*
X31610000Y-8530000D03*
X23010000Y-12130000D03*
X31610000Y-12530000D03*
X23010000Y-12930000D03*
X31610000Y-13330000D03*
X23010000Y-13730000D03*
X31610000Y-14130000D03*
X23010000Y-14530000D03*
X31610000Y-14930000D03*
X23010000Y-15330000D03*
X31610000Y-15730000D03*
X23010000Y-16130000D03*
X31610000Y-16530000D03*
X23010000Y-16930000D03*
X31610000Y-17330000D03*
X23010000Y-17730000D03*
X31610000Y-18130000D03*
X23010000Y-18530000D03*
X31610000Y-18930000D03*
X23010000Y-19330000D03*
X31610000Y-19730000D03*
X23010000Y-20130000D03*
X31610000Y-20530000D03*
X23010000Y-20930000D03*
X31610000Y-21330000D03*
X23010000Y-21730000D03*
X31610000Y-22130000D03*
X23010000Y-22530000D03*
X31610000Y-22930000D03*
X23010000Y-23330000D03*
X31610000Y-23730000D03*
X23010000Y-24130000D03*
X31610000Y-24530000D03*
X23010000Y-24930000D03*
X31610000Y-25330000D03*
X23010000Y-25730000D03*
X31610000Y-26130000D03*
D45*
X23810000Y120000D03*
X23810000Y-28780000D03*
D46*
X86855000Y39050000D03*
X88125000Y39050000D03*
X89395000Y39050000D03*
X90665000Y39050000D03*
X91935000Y39050000D03*
X93205000Y39050000D03*
X94475000Y39050000D03*
X95745000Y39050000D03*
X95745000Y46950000D03*
X94475000Y46950000D03*
X93205000Y46950000D03*
X91935000Y46950000D03*
X90665000Y46950000D03*
X89395000Y46950000D03*
X88125000Y46950000D03*
X86855000Y46950000D03*
D25*
X91420000Y-3910000D03*
X91420000Y-2360000D03*
D19*
X106890000Y46275000D03*
X105340000Y46275000D03*
D12*
X96530000Y34540000D03*
X96530000Y33580000D03*
D27*
X26590000Y56510000D03*
X25640000Y54310000D03*
X24690000Y56510000D03*
D30*
X102087600Y-33302400D03*
X108590000Y-33302400D03*
D25*
X91420000Y9310000D03*
X91420000Y10860000D03*
D31*
X74740000Y-31430000D03*
D47*
X69660000Y-33590000D03*
D48*
X72200000Y-33590000D03*
X74740000Y-33590000D03*
X77280000Y-33590000D03*
D19*
X106890000Y39950000D03*
X105340000Y39950000D03*
D49*
X67075000Y4404000D03*
X67075000Y8804000D03*
D25*
X60300000Y5850000D03*
X60300000Y7400000D03*
D37*
X78830000Y6900000D03*
X79790000Y6900000D03*
D50*
X84822500Y29492500D03*
X84322500Y29492500D03*
X83822500Y29492500D03*
X83322500Y29492500D03*
X82822500Y29492500D03*
X82322500Y29492500D03*
X81822500Y29492500D03*
X81322500Y29492500D03*
X80822500Y29492500D03*
X80322500Y29492500D03*
X79822500Y29492500D03*
X79322500Y29492500D03*
X78822500Y29492500D03*
X78322500Y29492500D03*
X77822500Y29492500D03*
X77322500Y29492500D03*
X76822500Y29492500D03*
X76322500Y29492500D03*
X75822500Y29492500D03*
X75322500Y29492500D03*
X74822500Y29492500D03*
X74322500Y29492500D03*
X73822500Y29492500D03*
X73322500Y29492500D03*
X72822500Y29492500D03*
D51*
X70660000Y27330000D03*
X70660000Y26830000D03*
X70660000Y26330000D03*
X70660000Y25830000D03*
X70660000Y25330000D03*
X70660000Y24830000D03*
X70660000Y24330000D03*
X70660000Y23830000D03*
X70660000Y23330000D03*
X70660000Y22830000D03*
X70660000Y22330000D03*
X70660000Y21830000D03*
X70660000Y21330000D03*
X70660000Y20830000D03*
X70660000Y20330000D03*
X70660000Y19830000D03*
X70660000Y19330000D03*
X70660000Y18830000D03*
X70660000Y18330000D03*
X70660000Y17830000D03*
X70660000Y17330000D03*
X70660000Y16830000D03*
X70660000Y16330000D03*
X70660000Y15830000D03*
X70660000Y15330000D03*
D50*
X72822500Y13167500D03*
X73322500Y13167500D03*
X73822500Y13167500D03*
X74322500Y13167500D03*
X74822500Y13167500D03*
X75322500Y13167500D03*
X75822500Y13167500D03*
X76322500Y13167500D03*
X76822500Y13167500D03*
X77322500Y13167500D03*
X77822500Y13167500D03*
X78322500Y13167500D03*
X78822500Y13167500D03*
X79322500Y13167500D03*
X79822500Y13167500D03*
X80322500Y13167500D03*
X80822500Y13167500D03*
X81322500Y13167500D03*
X81822500Y13167500D03*
X82322500Y13167500D03*
X82822500Y13167500D03*
X83322500Y13167500D03*
X83822500Y13167500D03*
X84322500Y13167500D03*
X84822500Y13167500D03*
D51*
X86985000Y15330000D03*
X86985000Y15830000D03*
X86985000Y16330000D03*
X86985000Y16830000D03*
X86985000Y17330000D03*
X86985000Y17830000D03*
X86985000Y18330000D03*
X86985000Y18830000D03*
X86985000Y19330000D03*
X86985000Y19830000D03*
X86985000Y20330000D03*
X86985000Y20830000D03*
X86985000Y21330000D03*
X86985000Y21830000D03*
X86985000Y22330000D03*
X86985000Y22830000D03*
X86985000Y23330000D03*
X86985000Y23830000D03*
X86985000Y24330000D03*
X86985000Y24830000D03*
X86985000Y25330000D03*
X86985000Y25830000D03*
X86985000Y26330000D03*
X86985000Y26830000D03*
X86985000Y27330000D03*
D40*
X91930000Y49820000D03*
X90910000Y49820000D03*
D52*
X106830000Y29730000D03*
D30*
X109370000Y29730000D03*
X106830000Y27190000D03*
X109370000Y27190000D03*
X106830000Y24650000D03*
X109370000Y24650000D03*
X106830000Y22110000D03*
X109370000Y22110000D03*
X106830000Y19570000D03*
X109370000Y19570000D03*
X106830000Y17030000D03*
X109370000Y17030000D03*
X106830000Y14490000D03*
X109370000Y14490000D03*
X106830000Y11950000D03*
X109370000Y11950000D03*
X106830000Y9410000D03*
X109370000Y9410000D03*
X106830000Y6870000D03*
X109370000Y6870000D03*
X106830000Y4330000D03*
X109370000Y4330000D03*
X106830000Y1790000D03*
X109370000Y1790000D03*
X106830000Y-750000D03*
X109370000Y-750000D03*
X106830000Y-3290000D03*
X109370000Y-3290000D03*
X106830000Y-5830000D03*
X109370000Y-5830000D03*
X106830000Y-8370000D03*
X109370000Y-8370000D03*
X106830000Y-10910000D03*
X109370000Y-10910000D03*
X106830000Y-13450000D03*
X109370000Y-13450000D03*
X106830000Y-15990000D03*
X109370000Y-15990000D03*
X106830000Y-18530000D03*
X109370000Y-18530000D03*
D25*
X19602500Y65445000D03*
X19602500Y66995000D03*
D12*
X71084871Y6910000D03*
X71084871Y5950000D03*
D20*
X90050000Y20040000D03*
X91070000Y20040000D03*
D53*
X55012500Y48178203D03*
X53412500Y48178203D03*
X53412500Y49478203D03*
X55012500Y49478203D03*
D52*
X75940000Y10400000D03*
D30*
X78480000Y10400000D03*
X81020000Y10400000D03*
D54*
X62837500Y-32038000D03*
X62837500Y-34038000D03*
X62837500Y-36038000D03*
X62837500Y-38038000D03*
D55*
X65572500Y-31768000D03*
X65572500Y-38768000D03*
X60102500Y-31768000D03*
X60102500Y-38768000D03*
D56*
X83160000Y41790000D03*
X83160000Y44330000D03*
X80860000Y44330000D03*
X80860000Y41790000D03*
D57*
X95170000Y-33380000D03*
D58*
X93870000Y-30855000D03*
D57*
X89570000Y-33380000D03*
D58*
X92870000Y-30855000D03*
X91870000Y-30855000D03*
X90870000Y-30855000D03*
D59*
X70260000Y59220000D03*
X81690000Y59220000D03*
D60*
X80420000Y52870000D03*
D61*
X79150000Y50330000D03*
X77880000Y52870000D03*
X76610000Y50330000D03*
X75340000Y52870000D03*
X74070000Y50330000D03*
X72800000Y52870000D03*
X71530000Y50330000D03*
D62*
X82300000Y64120000D03*
X79760000Y62600000D03*
X72190000Y64120000D03*
X69650000Y62600000D03*
D63*
X83850000Y56170000D03*
X68100000Y56170000D03*
D13*
X101198533Y57000000D03*
X100238533Y57000000D03*
D11*
X99225000Y1190000D03*
X100775000Y1190000D03*
D33*
X24540000Y60310000D03*
X24540000Y59360000D03*
X24540000Y58410000D03*
X26740000Y58410000D03*
X26740000Y59360000D03*
X26740000Y60310000D03*
D64*
X74335000Y5605000D03*
X74335000Y7255000D03*
D65*
X29080000Y43335000D03*
X29080000Y5235000D03*
X51080000Y43335000D03*
X51080000Y5235000D03*
D66*
X27030000Y43970000D03*
X31130000Y43970000D03*
X27030000Y42700000D03*
X31130000Y42700000D03*
X27030000Y41430000D03*
X31130000Y41430000D03*
X27030000Y40160000D03*
X31130000Y40160000D03*
X27030000Y38890000D03*
X31130000Y38890000D03*
X27030000Y37620000D03*
X31130000Y37620000D03*
X27030000Y36350000D03*
X31130000Y36350000D03*
X27030000Y35080000D03*
X31130000Y35080000D03*
X27030000Y33810000D03*
X31130000Y33810000D03*
X27030000Y32540000D03*
X31130000Y32540000D03*
X27030000Y31270000D03*
X31130000Y31270000D03*
X27030000Y30000000D03*
X31130000Y30000000D03*
X27030000Y28730000D03*
X31130000Y28730000D03*
X27030000Y27460000D03*
X31130000Y27460000D03*
X27030000Y26190000D03*
X31130000Y26190000D03*
X27030000Y24920000D03*
X31130000Y24920000D03*
X27030000Y23650000D03*
X31130000Y23650000D03*
X27030000Y22380000D03*
X31130000Y22380000D03*
X27030000Y21110000D03*
X31130000Y21110000D03*
X27030000Y19840000D03*
X31130000Y19840000D03*
X27030000Y18570000D03*
X31130000Y18570000D03*
X27030000Y17300000D03*
X31130000Y17300000D03*
X27030000Y16030000D03*
X31130000Y16030000D03*
X27030000Y14760000D03*
X31130000Y14760000D03*
X27030000Y13490000D03*
X31130000Y13490000D03*
X27030000Y12220000D03*
X31130000Y12220000D03*
X27030000Y10950000D03*
X31130000Y10950000D03*
X27030000Y9680000D03*
X31130000Y9680000D03*
X27030000Y8410000D03*
X31130000Y8410000D03*
X27030000Y7140000D03*
X31130000Y7140000D03*
X27030000Y5870000D03*
X31130000Y5870000D03*
X27030000Y4600000D03*
X31130000Y4600000D03*
X49030000Y43970000D03*
X53130000Y43970000D03*
X49030000Y42700000D03*
X53130000Y42700000D03*
X49030000Y41430000D03*
X53130000Y41430000D03*
X49030000Y40160000D03*
X53130000Y40160000D03*
X49030000Y38890000D03*
X53130000Y38890000D03*
X49030000Y37620000D03*
X53130000Y37620000D03*
X49030000Y36350000D03*
X53130000Y36350000D03*
X49030000Y35080000D03*
X53130000Y35080000D03*
X49030000Y33810000D03*
X53130000Y33810000D03*
X49030000Y32540000D03*
X53130000Y32530000D03*
X49030000Y31270000D03*
X53130000Y31270000D03*
X49030000Y30000000D03*
X53130000Y30000000D03*
X49030000Y28730000D03*
X53130000Y28730000D03*
X49030000Y27460000D03*
X53130000Y27460000D03*
X49030000Y26190000D03*
X53130000Y26190000D03*
X49030000Y24920000D03*
X53130000Y24920000D03*
X49030000Y23650000D03*
X53130000Y23650000D03*
X49030000Y22380000D03*
X53130000Y22380000D03*
X49030000Y21110000D03*
X53130000Y21110000D03*
X49030000Y19840000D03*
X53130000Y19840000D03*
X49030000Y18570000D03*
X53130000Y18570000D03*
X49030000Y17300000D03*
X53130000Y17300000D03*
X49030000Y16030000D03*
X53130000Y16030000D03*
X49030000Y14760000D03*
X53130000Y14760000D03*
X49030000Y13490000D03*
X53130000Y13490000D03*
X49030000Y12220000D03*
X53130000Y12220000D03*
X49030000Y10950000D03*
X53130000Y10950000D03*
X49030000Y9680000D03*
X53130000Y9680000D03*
X49030000Y8410000D03*
X53130000Y8410000D03*
X49030000Y7140000D03*
X53130000Y7140000D03*
X49030000Y5870000D03*
X53130000Y5870000D03*
X49030000Y4600000D03*
X53130000Y4600000D03*
D11*
X99225000Y-340000D03*
X100775000Y-340000D03*
D67*
X28535000Y64540000D03*
X22755000Y64540000D03*
D68*
X28845000Y63260000D03*
X28045000Y63260000D03*
D69*
X26895000Y63290000D03*
X25895000Y63290000D03*
X25395000Y63290000D03*
X24395000Y63290000D03*
D68*
X23245000Y63260000D03*
X22445000Y63260000D03*
D69*
X23895000Y63290000D03*
X24895000Y63290000D03*
X26395000Y63290000D03*
X27395000Y63290000D03*
D70*
X29970000Y64040000D03*
D71*
X29970000Y68220000D03*
D70*
X21320000Y64040000D03*
D71*
X21320000Y68220000D03*
D14*
X99190000Y10860000D03*
X99190000Y9310000D03*
D12*
X72074871Y6910000D03*
X72074871Y5950000D03*
D72*
X101975000Y18050000D03*
X99025000Y18050000D03*
D14*
X99380000Y-22225000D03*
X99380000Y-23775000D03*
D20*
X100060000Y7470000D03*
X101080000Y7470000D03*
D22*
X94760000Y21090000D03*
X94760000Y20070000D03*
D73*
X89950000Y-20525000D03*
X88680000Y-20525000D03*
X87410000Y-20525000D03*
X86140000Y-20525000D03*
X84870000Y-20525000D03*
X83600000Y-20525000D03*
X82330000Y-20525000D03*
X82330000Y-25475000D03*
X83600000Y-25475000D03*
X84870000Y-25475000D03*
X86140000Y-25475000D03*
X87410000Y-25475000D03*
X88680000Y-25475000D03*
X89950000Y-25475000D03*
D25*
X98360000Y-12535000D03*
X98360000Y-10985000D03*
D74*
X40270000Y-46780000D03*
X48270000Y-46780000D03*
D75*
X47780000Y-36230000D03*
X46680000Y-36230000D03*
X45580000Y-36230000D03*
X44480000Y-36230000D03*
X43380000Y-36230000D03*
X42280000Y-36230000D03*
X41180000Y-36230000D03*
X40080000Y-36230000D03*
X38980000Y-36230000D03*
D76*
X37460000Y-46780000D03*
D77*
X37880000Y-37080000D03*
X52560000Y-37080000D03*
D76*
X52980000Y-46780000D03*
D20*
X100310000Y47590000D03*
X101330000Y47590000D03*
D11*
X99225000Y6200000D03*
X100775000Y6200000D03*
D10*
X86260000Y5635000D03*
X86260000Y8585000D03*
D27*
X95420000Y-24100000D03*
X96370000Y-24100000D03*
X97320000Y-24100000D03*
X97320000Y-21900000D03*
X95420000Y-21900000D03*
D72*
X101975000Y20425000D03*
X99025000Y20425000D03*
D23*
X99390000Y37650000D03*
X99390000Y38670000D03*
D78*
X60980000Y27230000D03*
X59080000Y27230000D03*
D14*
X66680000Y17545000D03*
X66680000Y15995000D03*
D79*
X104975000Y44325000D03*
X107925000Y44325000D03*
D22*
X95750000Y21090000D03*
X95750000Y20070000D03*
D80*
X45110000Y54350000D03*
X42610000Y54350000D03*
X40610000Y54350000D03*
X38110000Y54350000D03*
X45110000Y56950000D03*
X42610000Y56950000D03*
X40610000Y56950000D03*
X38110000Y56950000D03*
D81*
X48160000Y54000000D03*
X48110000Y59800000D03*
X35110000Y59800000D03*
X35060000Y54000000D03*
D20*
X89180000Y1860000D03*
X90200000Y1860000D03*
D79*
X104975000Y41900000D03*
X107925000Y41900000D03*
D14*
X58760000Y7400000D03*
X58760000Y5850000D03*
D12*
X95670000Y25630000D03*
X95670000Y24670000D03*
D79*
X25635000Y52030000D03*
X28585000Y52030000D03*
X62610000Y27400000D03*
X65560000Y27400000D03*
D11*
X82575000Y46870000D03*
X84125000Y46870000D03*
D25*
X93360000Y-23775000D03*
X93360000Y-22225000D03*
X28601429Y54635000D03*
X28601429Y56185000D03*
D20*
X100060000Y4950000D03*
X101080000Y4950000D03*
D14*
X60060000Y43894618D03*
X60060000Y42344618D03*
D64*
X102320000Y-9180000D03*
X102320000Y-7530000D03*
D20*
X90050000Y21030000D03*
X91070000Y21030000D03*
D37*
X103121467Y57000000D03*
X104081467Y57000000D03*
D18*
X77660000Y-39150000D03*
X80430000Y-39150000D03*
X83200000Y-39150000D03*
X85970000Y-39150000D03*
X88740000Y-39150000D03*
X79045000Y-41990000D03*
X81815000Y-41990000D03*
X84585000Y-41990000D03*
X87355000Y-41990000D03*
D82*
X95695000Y-40570000D03*
X70705000Y-40570000D03*
D12*
X89660000Y26320000D03*
X89660000Y25360000D03*
D13*
X91040000Y17750000D03*
X90080000Y17750000D03*
D19*
X95322500Y-6262500D03*
X93772500Y-6262500D03*
D13*
X79790000Y7920000D03*
X78830000Y7920000D03*
D83*
X58120000Y43780000D03*
X58120000Y40830000D03*
D23*
X102650000Y37650000D03*
X102650000Y38670000D03*
D54*
X54212500Y51698000D03*
X54212500Y53698000D03*
X54212500Y55698000D03*
X54212500Y57698000D03*
D55*
X51477500Y51428000D03*
X51477500Y58428000D03*
X56947500Y51428000D03*
X56947500Y58428000D03*
D11*
X95595000Y-26010000D03*
X97145000Y-26010000D03*
D12*
X98400000Y38620000D03*
X98400000Y37660000D03*
D11*
X99225000Y2720000D03*
X100775000Y2720000D03*
D22*
X100390000Y38670000D03*
X100390000Y37650000D03*
D17*
X105580000Y51500000D03*
D18*
X105580000Y54000000D03*
D31*
X22120000Y-45650000D03*
X24120000Y-45650000D03*
X26120000Y-45650000D03*
X28120000Y-45650000D03*
D84*
X21120000Y-48650000D03*
X29120000Y-48650000D03*
X29120000Y-41150000D03*
X21120000Y-41150000D03*
D12*
X94550000Y34540000D03*
X94550000Y33580000D03*
D19*
X104415000Y32620000D03*
X102865000Y32620000D03*
D40*
X87870000Y36530000D03*
X86850000Y36530000D03*
D85*
X97835000Y-46695000D03*
X93585000Y-46695000D03*
G36*
X113777835Y69616030D02*
G01*
X114056015Y69482066D01*
X114068186Y69475340D01*
X114341484Y69303617D01*
X114352825Y69295570D01*
X114605158Y69094342D01*
X114615526Y69085077D01*
X114843759Y68856846D01*
X114853025Y68846477D01*
X115054262Y68594134D01*
X115062308Y68582794D01*
X115234025Y68309511D01*
X115240752Y68297340D01*
X115380795Y68006542D01*
X115386116Y67993695D01*
X115492718Y67689051D01*
X115496568Y67675689D01*
X115568391Y67361019D01*
X115570720Y67347310D01*
X115606956Y67025722D01*
X115607724Y67013577D01*
X115609988Y66852176D01*
X115610000Y66850437D01*
X115610000Y-47147799D01*
X115609989Y-47149487D01*
X115607791Y-47310920D01*
X115607022Y-47323115D01*
X115570791Y-47644686D01*
X115568462Y-47658395D01*
X115496642Y-47973071D01*
X115492793Y-47986433D01*
X115386188Y-48291099D01*
X115380866Y-48303946D01*
X115240825Y-48594745D01*
X115234099Y-48606915D01*
X115062376Y-48880214D01*
X115054329Y-48891555D01*
X114853092Y-49143900D01*
X114843827Y-49154269D01*
X114615588Y-49382510D01*
X114605219Y-49391776D01*
X114352872Y-49593017D01*
X114341531Y-49601064D01*
X114068233Y-49772789D01*
X114056063Y-49779515D01*
X113787767Y-49908721D01*
X113718826Y-49920073D01*
X113654691Y-49892351D01*
X113615725Y-49834356D01*
X113609965Y-49797011D01*
X113600034Y69504300D01*
X113619713Y69571341D01*
X113672513Y69617100D01*
X113741671Y69627049D01*
X113777835Y69616030D01*
G37*
G36*
X17575194Y69598934D02*
G01*
X17614186Y69540956D01*
X17619964Y69503537D01*
X17610032Y-49796915D01*
X17590342Y-49863953D01*
X17537534Y-49909704D01*
X17468375Y-49919641D01*
X17432231Y-49908625D01*
X17163975Y-49779440D01*
X17151804Y-49772714D01*
X16878513Y-49600994D01*
X16867172Y-49592947D01*
X16614826Y-49391708D01*
X16604458Y-49382442D01*
X16376237Y-49154221D01*
X16366971Y-49143853D01*
X16165732Y-48891507D01*
X16157685Y-48880166D01*
X15985965Y-48606875D01*
X15979239Y-48594705D01*
X15839201Y-48303913D01*
X15833879Y-48291066D01*
X15727275Y-47986409D01*
X15723426Y-47973046D01*
X15651606Y-47658380D01*
X15649277Y-47644672D01*
X15613042Y-47323082D01*
X15612274Y-47310936D01*
X15610012Y-47149535D01*
X15610000Y-47147797D01*
X15610000Y66849119D01*
X15610014Y66850949D01*
X15612395Y67012292D01*
X15613164Y67024373D01*
X15649478Y67346021D01*
X15651808Y67359720D01*
X15723681Y67674404D01*
X15727529Y67687757D01*
X15834166Y67992436D01*
X15839485Y68005274D01*
X15979532Y68296088D01*
X15986253Y68308250D01*
X16157969Y68581584D01*
X16166009Y68592918D01*
X16367224Y68845315D01*
X16376481Y68855679D01*
X16604679Y69083984D01*
X16615038Y69093246D01*
X16867339Y69294577D01*
X16878670Y69302623D01*
X17151926Y69474467D01*
X17164085Y69481193D01*
X17442111Y69615242D01*
X17511047Y69626626D01*
X17575194Y69598934D01*
G37*
M02*
