G04 #@! TF.GenerationSoftware,KiCad,Pcbnew,9.0.0*
G04 #@! TF.CreationDate,2025-03-14T14:49:40-04:00*
G04 #@! TF.ProjectId,MiniCamel_long_rev.A,4d696e69-4361-46d6-956c-5f6c6f6e675f,2.1*
G04 #@! TF.SameCoordinates,PX16e3600PY6052340*
G04 #@! TF.FileFunction,Paste,Bot*
G04 #@! TF.FilePolarity,Positive*
%FSLAX46Y46*%
G04 Gerber Fmt 4.6, Leading zero omitted, Abs format (unit mm)*
G04 Created by KiCad (PCBNEW 9.0.0) date 2025-03-14 14:49:40*
%MOMM*%
%LPD*%
G01*
G04 APERTURE LIST*
G04 Aperture macros list*
%AMRoundRect*
0 Rectangle with rounded corners*
0 $1 Rounding radius*
0 $2 $3 $4 $5 $6 $7 $8 $9 X,Y pos of 4 corners*
0 Add a 4 corners polygon primitive as box body*
4,1,4,$2,$3,$4,$5,$6,$7,$8,$9,$2,$3,0*
0 Add four circle primitives for the rounded corners*
1,1,$1+$1,$2,$3*
1,1,$1+$1,$4,$5*
1,1,$1+$1,$6,$7*
1,1,$1+$1,$8,$9*
0 Add four rect primitives between the rounded corners*
20,1,$1+$1,$2,$3,$4,$5,0*
20,1,$1+$1,$4,$5,$6,$7,0*
20,1,$1+$1,$6,$7,$8,$9,0*
20,1,$1+$1,$8,$9,$2,$3,0*%
G04 Aperture macros list end*
%ADD10RoundRect,0.135000X-0.135000X-0.185000X0.135000X-0.185000X0.135000X0.185000X-0.135000X0.185000X0*%
%ADD11RoundRect,0.135000X0.135000X0.185000X-0.135000X0.185000X-0.135000X-0.185000X0.135000X-0.185000X0*%
%ADD12RoundRect,0.225000X-0.250000X0.225000X-0.250000X-0.225000X0.250000X-0.225000X0.250000X0.225000X0*%
%ADD13RoundRect,0.225000X-0.225000X-0.250000X0.225000X-0.250000X0.225000X0.250000X-0.225000X0.250000X0*%
%ADD14RoundRect,0.225000X0.250000X-0.225000X0.250000X0.225000X-0.250000X0.225000X-0.250000X-0.225000X0*%
%ADD15R,2.500000X0.450000*%
%ADD16RoundRect,0.218750X-0.256250X0.218750X-0.256250X-0.218750X0.256250X-0.218750X0.256250X0.218750X0*%
%ADD17RoundRect,0.140000X-0.170000X0.140000X-0.170000X-0.140000X0.170000X-0.140000X0.170000X0.140000X0*%
%ADD18R,0.700000X0.700000*%
%ADD19RoundRect,0.135000X0.185000X-0.135000X0.185000X0.135000X-0.185000X0.135000X-0.185000X-0.135000X0*%
%ADD20RoundRect,0.140000X0.140000X0.170000X-0.140000X0.170000X-0.140000X-0.170000X0.140000X-0.170000X0*%
%ADD21RoundRect,0.100000X-0.100000X0.712500X-0.100000X-0.712500X0.100000X-0.712500X0.100000X0.712500X0*%
%ADD22R,0.700000X1.800000*%
%ADD23R,0.600000X1.800000*%
%ADD24R,1.300000X0.625000*%
%ADD25RoundRect,0.250000X0.650000X-0.325000X0.650000X0.325000X-0.650000X0.325000X-0.650000X-0.325000X0*%
%ADD26RoundRect,0.150000X-0.150000X0.825000X-0.150000X-0.825000X0.150000X-0.825000X0.150000X0.825000X0*%
%ADD27RoundRect,0.135000X-0.185000X0.135000X-0.185000X-0.135000X0.185000X-0.135000X0.185000X0.135000X0*%
%ADD28R,1.000000X2.510000*%
%ADD29RoundRect,0.140000X0.170000X-0.140000X0.170000X0.140000X-0.170000X0.140000X-0.170000X-0.140000X0*%
%ADD30O,1.400000X0.300000*%
%ADD31O,0.300000X1.400000*%
%ADD32R,1.200000X0.600000*%
%ADD33RoundRect,0.175000X-0.275000X-0.175000X0.275000X-0.175000X0.275000X0.175000X-0.275000X0.175000X0*%
%ADD34RoundRect,0.225000X0.225000X0.250000X-0.225000X0.250000X-0.225000X-0.250000X0.225000X-0.250000X0*%
%ADD35RoundRect,0.250000X-0.650000X0.325000X-0.650000X-0.325000X0.650000X-0.325000X0.650000X0.325000X0*%
%ADD36R,0.600000X1.200000*%
%ADD37RoundRect,0.140000X-0.140000X-0.170000X0.140000X-0.170000X0.140000X0.170000X-0.140000X0.170000X0*%
%ADD38R,3.900000X4.200000*%
%ADD39C,5.000000*%
G04 APERTURE END LIST*
D10*
X60680000Y65620000D03*
X61700000Y65620000D03*
D11*
X62550000Y45720000D03*
X61530000Y45720000D03*
D12*
X52950000Y62595000D03*
X52950000Y61045000D03*
D13*
X25225000Y-41220000D03*
X26775000Y-41220000D03*
D14*
X76430000Y16055000D03*
X76430000Y17605000D03*
D15*
X40700000Y-10110000D03*
X40700000Y-10760000D03*
X40700000Y-11410000D03*
X40700000Y-12060000D03*
X40700000Y-12710000D03*
X40700000Y-13360000D03*
X40700000Y-14010000D03*
X40700000Y-14660000D03*
X40700000Y-15310000D03*
X40700000Y-15960000D03*
X40700000Y-16610000D03*
X40700000Y-17260000D03*
X40700000Y-17910000D03*
X40700000Y-18560000D03*
X32750000Y-18560000D03*
X32750000Y-17910000D03*
X32750000Y-17260000D03*
X32750000Y-16610000D03*
X32750000Y-15960000D03*
X32750000Y-15310000D03*
X32750000Y-14660000D03*
X32750000Y-14010000D03*
X32750000Y-13360000D03*
X32750000Y-12710000D03*
X32750000Y-12060000D03*
X32750000Y-11410000D03*
X32750000Y-10760000D03*
X32750000Y-10110000D03*
D16*
X39290000Y62607500D03*
X39290000Y61032500D03*
D13*
X33795000Y-3050000D03*
X35345000Y-3050000D03*
D17*
X58674000Y49728000D03*
X58674000Y48768000D03*
D18*
X43820000Y50210000D03*
X43820000Y51810000D03*
X42520000Y51810000D03*
X42520000Y50210000D03*
D16*
X43190000Y62607500D03*
X43190000Y61032500D03*
D12*
X67720000Y62580000D03*
X67720000Y61030000D03*
D14*
X34710000Y41675000D03*
X34710000Y43225000D03*
X45180000Y-12205000D03*
X45180000Y-10655000D03*
D12*
X73610000Y58325000D03*
X73610000Y56775000D03*
D19*
X83730000Y8330000D03*
X83730000Y9350000D03*
D12*
X75440000Y-15085000D03*
X75440000Y-16635000D03*
X36090000Y-32565000D03*
X36090000Y-34115000D03*
D20*
X62520000Y46710000D03*
X61560000Y46710000D03*
D11*
X63620000Y64620000D03*
X62600000Y64620000D03*
D21*
X71455000Y-13747500D03*
X72105000Y-13747500D03*
X72755000Y-13747500D03*
X73405000Y-13747500D03*
X73405000Y-17972500D03*
X72755000Y-17972500D03*
X72105000Y-17972500D03*
X71455000Y-17972500D03*
D22*
X96910000Y-45795000D03*
X94510000Y-45795000D03*
D23*
X95710000Y-45795000D03*
D24*
X97560000Y-47732500D03*
X93860000Y-47732500D03*
D12*
X85260000Y-9080000D03*
X85260000Y-10630000D03*
D11*
X66950000Y52780000D03*
X65930000Y52780000D03*
D12*
X76650000Y58325000D03*
X76650000Y56775000D03*
D25*
X41240000Y61025000D03*
X41240000Y63975000D03*
D19*
X86730000Y8330000D03*
X86730000Y9350000D03*
D13*
X83760000Y5310000D03*
X85310000Y5310000D03*
X81475000Y66240000D03*
X83025000Y66240000D03*
D12*
X108601015Y-30247400D03*
X108601015Y-31797400D03*
D13*
X35945000Y-22450000D03*
X37495000Y-22450000D03*
D18*
X62200000Y-28200000D03*
X62200000Y-29800000D03*
X63500000Y-29800000D03*
X63500000Y-28200000D03*
D12*
X43660000Y-10655000D03*
X43660000Y-12205000D03*
D11*
X61720000Y63630000D03*
X60700000Y63630000D03*
D26*
X105575000Y45915000D03*
X106845000Y45915000D03*
X108115000Y45915000D03*
X109385000Y45915000D03*
X109385000Y40965000D03*
X108115000Y40965000D03*
X106845000Y40965000D03*
X105575000Y40965000D03*
D14*
X77950000Y16055000D03*
X77950000Y17605000D03*
D12*
X36240000Y43230000D03*
X36240000Y41680000D03*
D20*
X106650000Y47830000D03*
X105690000Y47830000D03*
D12*
X102471485Y-30247400D03*
X102471485Y-31797400D03*
D13*
X35950000Y-20910000D03*
X37500000Y-20910000D03*
D14*
X46740000Y-34115000D03*
X46740000Y-32565000D03*
X74070000Y61050000D03*
X74070000Y62600000D03*
X43700000Y-34115000D03*
X43700000Y-32565000D03*
D13*
X104755000Y-28031866D03*
X106305000Y-28031866D03*
D11*
X61460000Y56480000D03*
X60440000Y56480000D03*
D13*
X25225000Y-39690000D03*
X26775000Y-39690000D03*
D10*
X62580000Y63630000D03*
X63600000Y63630000D03*
D12*
X28240000Y-13680000D03*
X28240000Y-15230000D03*
D27*
X96070000Y64020000D03*
X96070000Y63000000D03*
D28*
X50490000Y12535000D03*
X47950000Y9225000D03*
X45410000Y12535000D03*
X42870000Y9225000D03*
X40330000Y12535000D03*
X37790000Y9225000D03*
X35250000Y12535000D03*
X32710000Y9225000D03*
X32740000Y32070000D03*
X35280000Y35380000D03*
X37820000Y32070000D03*
X40360000Y35380000D03*
X42900000Y32070000D03*
X45440000Y35380000D03*
X47980000Y32070000D03*
X50520000Y35380000D03*
D10*
X60680000Y64620000D03*
X61700000Y64620000D03*
D29*
X105580000Y37750000D03*
X105580000Y38710000D03*
D25*
X45140000Y61025000D03*
X45140000Y63975000D03*
D19*
X84730000Y8330000D03*
X84730000Y9350000D03*
D17*
X108100000Y38710000D03*
X108100000Y37750000D03*
D13*
X25225000Y-42760000D03*
X26775000Y-42760000D03*
D30*
X89770000Y910000D03*
X89770000Y410000D03*
X89770000Y-90000D03*
X89770000Y-590000D03*
X89770000Y-1090000D03*
X89770000Y-1590000D03*
X89770000Y-2090000D03*
X89770000Y-2590000D03*
X89770000Y-3090000D03*
X89770000Y-3590000D03*
X89770000Y-4090000D03*
X89770000Y-4590000D03*
D31*
X88320000Y-6040000D03*
X87820000Y-6040000D03*
X87320000Y-6040000D03*
X86820000Y-6040000D03*
X86320000Y-6040000D03*
X85820000Y-6040000D03*
X85320000Y-6040000D03*
X84820000Y-6040000D03*
X84320000Y-6040000D03*
X83820000Y-6040000D03*
X83320000Y-6040000D03*
X82820000Y-6040000D03*
D30*
X81370000Y-4590000D03*
X81370000Y-4090000D03*
X81370000Y-3590000D03*
X81370000Y-3090000D03*
X81370000Y-2590000D03*
X81370000Y-2090000D03*
X81370000Y-1590000D03*
X81370000Y-1090000D03*
X81370000Y-590000D03*
X81370000Y-90000D03*
X81370000Y410000D03*
X81370000Y910000D03*
D31*
X82820000Y2360000D03*
X83320000Y2360000D03*
X83820000Y2360000D03*
X84320000Y2360000D03*
X84820000Y2360000D03*
X85320000Y2360000D03*
X85820000Y2360000D03*
X86320000Y2360000D03*
X86820000Y2360000D03*
X87320000Y2360000D03*
X87820000Y2360000D03*
X88320000Y2360000D03*
D12*
X48260000Y-32565000D03*
X48260000Y-34115000D03*
X39140000Y-32565000D03*
X39140000Y-34115000D03*
D26*
X60325000Y53529000D03*
X61595000Y53529000D03*
X62865000Y53529000D03*
X64135000Y53529000D03*
X64135000Y48579000D03*
X62865000Y48579000D03*
X61595000Y48579000D03*
X60325000Y48579000D03*
D19*
X97070000Y63000000D03*
X97070000Y64020000D03*
D12*
X54340000Y-32555000D03*
X54340000Y-34105000D03*
D27*
X60720000Y59680000D03*
X60720000Y58660000D03*
D12*
X75130000Y58325000D03*
X75130000Y56775000D03*
D10*
X105650000Y48830000D03*
X106670000Y48830000D03*
D14*
X40660000Y-34115000D03*
X40660000Y-32565000D03*
D12*
X45220000Y-32565000D03*
X45220000Y-34115000D03*
D32*
X40430000Y43430000D03*
X40430000Y42480000D03*
X40430000Y41530000D03*
X38230000Y41530000D03*
X38230000Y43430000D03*
D33*
X104402500Y-34662400D03*
X106602500Y-34662400D03*
D34*
X70465000Y66240000D03*
X68915000Y66240000D03*
D35*
X62160000Y-42045000D03*
X62160000Y-44995000D03*
D36*
X106480000Y-32122400D03*
X104580000Y-32122400D03*
X105530000Y-29922400D03*
D12*
X88320000Y-9075000D03*
X88320000Y-10625000D03*
D14*
X64110000Y-43615000D03*
X64110000Y-42065000D03*
D12*
X86790000Y-9075000D03*
X86790000Y-10625000D03*
X28240000Y-10655000D03*
X28240000Y-12205000D03*
X51297500Y-32560000D03*
X51297500Y-34110000D03*
D19*
X109100000Y37710000D03*
X109100000Y38730000D03*
D27*
X63560000Y59680000D03*
X63560000Y58660000D03*
D12*
X78180000Y58325000D03*
X78180000Y56775000D03*
X42180000Y-32565000D03*
X42180000Y-34115000D03*
D37*
X60470000Y55490000D03*
X61430000Y55490000D03*
D14*
X77710000Y61050000D03*
X77710000Y62600000D03*
D19*
X110930000Y43900000D03*
X110930000Y44920000D03*
D14*
X52817500Y-34105000D03*
X52817500Y-32555000D03*
D25*
X54900000Y61025000D03*
X54900000Y63975000D03*
D18*
X41120000Y50210000D03*
X41120000Y51810000D03*
X39820000Y51810000D03*
X39820000Y50210000D03*
D34*
X78505000Y1710000D03*
X76955000Y1710000D03*
D11*
X63620000Y65620000D03*
X62600000Y65620000D03*
D12*
X69460000Y-15085000D03*
X69460000Y-16635000D03*
D34*
X78505000Y3240000D03*
X76955000Y3240000D03*
D12*
X29760000Y-10655000D03*
X29760000Y-12205000D03*
D14*
X37620000Y-34115000D03*
X37620000Y-32565000D03*
D19*
X85730000Y8330000D03*
X85730000Y9350000D03*
D11*
X66950000Y51780000D03*
X65930000Y51780000D03*
D14*
X49780000Y-34115000D03*
X49780000Y-32565000D03*
D27*
X110930000Y42980000D03*
X110930000Y41960000D03*
D38*
X37669998Y-43540000D03*
X52769998Y-43540000D03*
D39*
X45219998Y-43540000D03*
M02*
