G04 #@! TF.GenerationSoftware,KiCad,Pcbnew,9.0.0*
G04 #@! TF.CreationDate,2025-03-14T14:49:40-04:00*
G04 #@! TF.ProjectId,MiniCamel_long_rev.A,4d696e69-4361-46d6-956c-5f6c6f6e675f,2.1*
G04 #@! TF.SameCoordinates,PX16e3600PY6052340*
G04 #@! TF.FileFunction,Paste,Top*
G04 #@! TF.FilePolarity,Positive*
%FSLAX46Y46*%
G04 Gerber Fmt 4.6, Leading zero omitted, Abs format (unit mm)*
G04 Created by KiCad (PCBNEW 9.0.0) date 2025-03-14 14:49:40*
%MOMM*%
%LPD*%
G01*
G04 APERTURE LIST*
G04 Aperture macros list*
%AMRoundRect*
0 Rectangle with rounded corners*
0 $1 Rounding radius*
0 $2 $3 $4 $5 $6 $7 $8 $9 X,Y pos of 4 corners*
0 Add a 4 corners polygon primitive as box body*
4,1,4,$2,$3,$4,$5,$6,$7,$8,$9,$2,$3,0*
0 Add four circle primitives for the rounded corners*
1,1,$1+$1,$2,$3*
1,1,$1+$1,$4,$5*
1,1,$1+$1,$6,$7*
1,1,$1+$1,$8,$9*
0 Add four rect primitives between the rounded corners*
20,1,$1+$1,$2,$3,$4,$5,0*
20,1,$1+$1,$4,$5,$6,$7,0*
20,1,$1+$1,$6,$7,$8,$9,0*
20,1,$1+$1,$8,$9,$2,$3,0*%
G04 Aperture macros list end*
%ADD10RoundRect,0.250000X0.650000X-0.325000X0.650000X0.325000X-0.650000X0.325000X-0.650000X-0.325000X0*%
%ADD11RoundRect,0.225000X-0.225000X-0.250000X0.225000X-0.250000X0.225000X0.250000X-0.225000X0.250000X0*%
%ADD12RoundRect,0.140000X-0.170000X0.140000X-0.170000X-0.140000X0.170000X-0.140000X0.170000X0.140000X0*%
%ADD13RoundRect,0.140000X0.140000X0.170000X-0.140000X0.170000X-0.140000X-0.170000X0.140000X-0.170000X0*%
%ADD14RoundRect,0.225000X-0.250000X0.225000X-0.250000X-0.225000X0.250000X-0.225000X0.250000X0.225000X0*%
%ADD15RoundRect,0.225000X0.225000X0.250000X-0.225000X0.250000X-0.225000X-0.250000X0.225000X-0.250000X0*%
%ADD16RoundRect,0.135000X-0.135000X-0.185000X0.135000X-0.185000X0.135000X0.185000X-0.135000X0.185000X0*%
%ADD17R,2.200000X1.600000*%
%ADD18RoundRect,0.135000X-0.185000X0.135000X-0.185000X-0.135000X0.185000X-0.135000X0.185000X0.135000X0*%
%ADD19RoundRect,0.135000X0.185000X-0.135000X0.185000X0.135000X-0.185000X0.135000X-0.185000X-0.135000X0*%
%ADD20RoundRect,0.100000X-0.100000X0.637500X-0.100000X-0.637500X0.100000X-0.637500X0.100000X0.637500X0*%
%ADD21RoundRect,0.225000X0.250000X-0.225000X0.250000X0.225000X-0.250000X0.225000X-0.250000X-0.225000X0*%
%ADD22RoundRect,0.162500X0.162500X-1.462500X0.162500X1.462500X-0.162500X1.462500X-0.162500X-1.462500X0*%
%ADD23R,0.600000X1.200000*%
%ADD24RoundRect,0.200000X-0.200000X-0.275000X0.200000X-0.275000X0.200000X0.275000X-0.200000X0.275000X0*%
%ADD25RoundRect,0.140000X0.170000X-0.140000X0.170000X0.140000X-0.170000X0.140000X-0.170000X-0.140000X0*%
%ADD26R,1.200000X0.600000*%
%ADD27R,1.000000X3.000000*%
%ADD28RoundRect,0.140000X-0.140000X-0.170000X0.140000X-0.170000X0.140000X0.170000X-0.140000X0.170000X0*%
%ADD29R,0.950000X2.150000*%
%ADD30R,3.250000X2.150000*%
%ADD31RoundRect,0.135000X0.135000X0.185000X-0.135000X0.185000X-0.135000X-0.185000X0.135000X-0.185000X0*%
%ADD32RoundRect,0.100000X0.637500X0.100000X-0.637500X0.100000X-0.637500X-0.100000X0.637500X-0.100000X0*%
%ADD33R,2.400000X0.600000*%
%ADD34R,3.200000X1.900000*%
%ADD35RoundRect,0.162500X0.162500X-1.337500X0.162500X1.337500X-0.162500X1.337500X-0.162500X-1.337500X0*%
%ADD36RoundRect,0.250000X0.550000X-1.250000X0.550000X1.250000X-0.550000X1.250000X-0.550000X-1.250000X0*%
%ADD37RoundRect,0.075000X-0.075000X1.162500X-0.075000X-1.162500X0.075000X-1.162500X0.075000X1.162500X0*%
%ADD38RoundRect,0.075000X-1.162500X0.075000X-1.162500X-0.075000X1.162500X-0.075000X1.162500X0.075000X0*%
%ADD39R,0.700000X0.700000*%
%ADD40R,1.300000X1.800000*%
%ADD41R,1.200000X1.800000*%
%ADD42R,0.600000X1.550000*%
%ADD43RoundRect,0.200000X0.275000X-0.200000X0.275000X0.200000X-0.275000X0.200000X-0.275000X-0.200000X0*%
%ADD44R,2.600000X0.630000*%
%ADD45R,0.600000X1.440000*%
%ADD46R,0.300000X1.500000*%
%ADD47RoundRect,0.250000X0.325000X0.650000X-0.325000X0.650000X-0.325000X-0.650000X0.325000X-0.650000X0*%
%ADD48RoundRect,0.150000X-0.150000X0.825000X-0.150000X-0.825000X0.150000X-0.825000X0.150000X0.825000X0*%
%ADD49R,0.700000X1.300000*%
%ADD50R,1.400000X2.200000*%
%ADD51R,1.200000X1.700000*%
%ADD52RoundRect,0.250000X0.250000X0.475000X-0.250000X0.475000X-0.250000X-0.475000X0.250000X-0.475000X0*%
%ADD53RoundRect,0.250000X-0.325000X-0.650000X0.325000X-0.650000X0.325000X0.650000X-0.325000X0.650000X0*%
%ADD54RoundRect,0.250000X-0.650000X0.325000X-0.650000X-0.325000X0.650000X-0.325000X0.650000X0.325000X0*%
G04 APERTURE END LIST*
D10*
X83900000Y5635000D03*
X83900000Y8585000D03*
D11*
X95595000Y-19990000D03*
X97145000Y-19990000D03*
D12*
X73064871Y6910000D03*
X73064871Y5950000D03*
D13*
X74070000Y10830000D03*
X73110000Y10830000D03*
D14*
X100710000Y10860000D03*
X100710000Y9310000D03*
D15*
X86075000Y-18180000D03*
X84525000Y-18180000D03*
D16*
X100060000Y-1590000D03*
X101080000Y-1590000D03*
D13*
X99585000Y16325000D03*
X98625000Y16325000D03*
D17*
X58620000Y64780000D03*
X65720000Y64780000D03*
X58620000Y67980000D03*
X65720000Y67980000D03*
X58620000Y61280000D03*
X65720000Y61280000D03*
D18*
X87840000Y54250000D03*
X87840000Y53230000D03*
D14*
X111950000Y29695000D03*
X111950000Y28145000D03*
D19*
X96740000Y20070000D03*
X96740000Y21090000D03*
D12*
X67940000Y17830000D03*
X67940000Y16870000D03*
D16*
X90050000Y22020000D03*
X91070000Y22020000D03*
D19*
X92300000Y53230000D03*
X92300000Y54250000D03*
D11*
X88340000Y3120000D03*
X89890000Y3120000D03*
D13*
X76820000Y31960000D03*
X75860000Y31960000D03*
D20*
X103290090Y45862500D03*
X102640090Y45862500D03*
X101990090Y45862500D03*
X101340090Y45862500D03*
X100690090Y45862500D03*
X100040090Y45862500D03*
X99390090Y45862500D03*
X99390090Y40137500D03*
X100040090Y40137500D03*
X100690090Y40137500D03*
X101340090Y40137500D03*
X101990090Y40137500D03*
X102640090Y40137500D03*
X103290090Y40137500D03*
D21*
X97675000Y9310000D03*
X97675000Y10860000D03*
D22*
X64220000Y35240000D03*
X65490000Y35240000D03*
X66760000Y35240000D03*
X68030000Y35240000D03*
X69300000Y35240000D03*
X70570000Y35240000D03*
X71840000Y35240000D03*
X73110000Y35240000D03*
X74380000Y35240000D03*
X75650000Y35240000D03*
X76920000Y35240000D03*
X78190000Y35240000D03*
X78190000Y45690000D03*
X76920000Y45690000D03*
X75650000Y45690000D03*
X74380000Y45690000D03*
X73110000Y45690000D03*
X71840000Y45690000D03*
X70570000Y45690000D03*
X69300000Y45690000D03*
X68030000Y45690000D03*
X66760000Y45690000D03*
X65490000Y45690000D03*
X64220000Y45690000D03*
D18*
X103650000Y38670000D03*
X103650000Y37650000D03*
D23*
X89120000Y52640000D03*
X90070000Y52640000D03*
X91020000Y52640000D03*
X91020000Y54840000D03*
X89120000Y54840000D03*
D24*
X64205000Y12740000D03*
X65855000Y12740000D03*
D25*
X95680000Y29020000D03*
X95680000Y29980000D03*
D21*
X61720000Y35255000D03*
X61720000Y36805000D03*
D26*
X93447500Y-2185000D03*
X93447500Y-3135000D03*
X93447500Y-4085000D03*
X95647500Y-4085000D03*
X95647500Y-2185000D03*
X93447500Y11035000D03*
X93447500Y10085000D03*
X93447500Y9135000D03*
X95647500Y9135000D03*
X95647500Y11035000D03*
D13*
X99585000Y15350000D03*
X98625000Y15350000D03*
D12*
X98060000Y46420000D03*
X98060000Y45460000D03*
D21*
X31687500Y65445000D03*
X31687500Y66995000D03*
D15*
X89895000Y-710000D03*
X88345000Y-710000D03*
X96000000Y15510000D03*
X94450000Y15510000D03*
D21*
X28600000Y58745000D03*
X28600000Y60295000D03*
D17*
X98610000Y64780000D03*
X105710000Y64780000D03*
X98610000Y67980000D03*
X105710000Y67980000D03*
X98610000Y61280000D03*
X105710000Y61280000D03*
D11*
X102865000Y34150000D03*
X104415000Y34150000D03*
D27*
X98970000Y24660000D03*
X98970000Y30000000D03*
D18*
X95540000Y34570000D03*
X95540000Y33550000D03*
D28*
X73110000Y9850000D03*
X74070000Y9850000D03*
D21*
X97675000Y-3910000D03*
X97675000Y-2360000D03*
D12*
X101380000Y38620000D03*
X101380000Y37660000D03*
D29*
X64110000Y23910000D03*
X61810000Y23910000D03*
D30*
X61810000Y17860000D03*
D29*
X59510000Y23910000D03*
D31*
X90200000Y550000D03*
X89180000Y550000D03*
D15*
X96000000Y13990000D03*
X94450000Y13990000D03*
D28*
X90080000Y16770000D03*
X91040000Y16770000D03*
D16*
X100060000Y3970000D03*
X101080000Y3970000D03*
D15*
X88385000Y49960000D03*
X86835000Y49960000D03*
D32*
X97410000Y550000D03*
X97410000Y1200000D03*
X97410000Y1850000D03*
X97410000Y2500000D03*
X97410000Y3150000D03*
X97410000Y3800000D03*
X97410000Y4450000D03*
X97410000Y5100000D03*
X97410000Y5750000D03*
X97410000Y6400000D03*
X91685000Y6400000D03*
X91685000Y5750000D03*
X91685000Y5100000D03*
X91685000Y4450000D03*
X91685000Y3800000D03*
X91685000Y3150000D03*
X91685000Y2500000D03*
X91685000Y1850000D03*
X91685000Y1200000D03*
X91685000Y550000D03*
D33*
X23010000Y-2530000D03*
X31610000Y-2930000D03*
X23010000Y-3330000D03*
X31610000Y-3730000D03*
X23010000Y-4130000D03*
X31610000Y-4530000D03*
X23010000Y-4930000D03*
X31610000Y-5330000D03*
X23010000Y-5730000D03*
X31610000Y-6130000D03*
X23010000Y-6530000D03*
X31610000Y-6930000D03*
X23010000Y-7330000D03*
X31610000Y-7730000D03*
X23010000Y-8130000D03*
X31610000Y-8530000D03*
X23010000Y-12130000D03*
X31610000Y-12530000D03*
X23010000Y-12930000D03*
X31610000Y-13330000D03*
X23010000Y-13730000D03*
X31610000Y-14130000D03*
X23010000Y-14530000D03*
X31610000Y-14930000D03*
X23010000Y-15330000D03*
X31610000Y-15730000D03*
X23010000Y-16130000D03*
X31610000Y-16530000D03*
X23010000Y-16930000D03*
X31610000Y-17330000D03*
X23010000Y-17730000D03*
X31610000Y-18130000D03*
X23010000Y-18530000D03*
X31610000Y-18930000D03*
X23010000Y-19330000D03*
X31610000Y-19730000D03*
X23010000Y-20130000D03*
X31610000Y-20530000D03*
X23010000Y-20930000D03*
X31610000Y-21330000D03*
X23010000Y-21730000D03*
X31610000Y-22130000D03*
X23010000Y-22530000D03*
X31610000Y-22930000D03*
X23010000Y-23330000D03*
X31610000Y-23730000D03*
X23010000Y-24130000D03*
X31610000Y-24530000D03*
X23010000Y-24930000D03*
X31610000Y-25330000D03*
X23010000Y-25730000D03*
X31610000Y-26130000D03*
D34*
X23810000Y120000D03*
X23810000Y-28780000D03*
D35*
X86855000Y39050000D03*
X88125000Y39050000D03*
X89395000Y39050000D03*
X90665000Y39050000D03*
X91935000Y39050000D03*
X93205000Y39050000D03*
X94475000Y39050000D03*
X95745000Y39050000D03*
X95745000Y46950000D03*
X94475000Y46950000D03*
X93205000Y46950000D03*
X91935000Y46950000D03*
X90665000Y46950000D03*
X89395000Y46950000D03*
X88125000Y46950000D03*
X86855000Y46950000D03*
D21*
X91420000Y-3910000D03*
X91420000Y-2360000D03*
D15*
X106890000Y46275000D03*
X105340000Y46275000D03*
D12*
X96530000Y34540000D03*
X96530000Y33580000D03*
D23*
X26590000Y56510000D03*
X25640000Y54310000D03*
X24690000Y56510000D03*
D21*
X91420000Y9310000D03*
X91420000Y10860000D03*
D15*
X106890000Y39950000D03*
X105340000Y39950000D03*
D36*
X67075000Y4404000D03*
X67075000Y8804000D03*
D21*
X60300000Y5850000D03*
X60300000Y7400000D03*
D28*
X78830000Y6900000D03*
X79790000Y6900000D03*
D37*
X84822500Y29492500D03*
X84322500Y29492500D03*
X83822500Y29492500D03*
X83322500Y29492500D03*
X82822500Y29492500D03*
X82322500Y29492500D03*
X81822500Y29492500D03*
X81322500Y29492500D03*
X80822500Y29492500D03*
X80322500Y29492500D03*
X79822500Y29492500D03*
X79322500Y29492500D03*
X78822500Y29492500D03*
X78322500Y29492500D03*
X77822500Y29492500D03*
X77322500Y29492500D03*
X76822500Y29492500D03*
X76322500Y29492500D03*
X75822500Y29492500D03*
X75322500Y29492500D03*
X74822500Y29492500D03*
X74322500Y29492500D03*
X73822500Y29492500D03*
X73322500Y29492500D03*
X72822500Y29492500D03*
D38*
X70660000Y27330000D03*
X70660000Y26830000D03*
X70660000Y26330000D03*
X70660000Y25830000D03*
X70660000Y25330000D03*
X70660000Y24830000D03*
X70660000Y24330000D03*
X70660000Y23830000D03*
X70660000Y23330000D03*
X70660000Y22830000D03*
X70660000Y22330000D03*
X70660000Y21830000D03*
X70660000Y21330000D03*
X70660000Y20830000D03*
X70660000Y20330000D03*
X70660000Y19830000D03*
X70660000Y19330000D03*
X70660000Y18830000D03*
X70660000Y18330000D03*
X70660000Y17830000D03*
X70660000Y17330000D03*
X70660000Y16830000D03*
X70660000Y16330000D03*
X70660000Y15830000D03*
X70660000Y15330000D03*
D37*
X72822500Y13167500D03*
X73322500Y13167500D03*
X73822500Y13167500D03*
X74322500Y13167500D03*
X74822500Y13167500D03*
X75322500Y13167500D03*
X75822500Y13167500D03*
X76322500Y13167500D03*
X76822500Y13167500D03*
X77322500Y13167500D03*
X77822500Y13167500D03*
X78322500Y13167500D03*
X78822500Y13167500D03*
X79322500Y13167500D03*
X79822500Y13167500D03*
X80322500Y13167500D03*
X80822500Y13167500D03*
X81322500Y13167500D03*
X81822500Y13167500D03*
X82322500Y13167500D03*
X82822500Y13167500D03*
X83322500Y13167500D03*
X83822500Y13167500D03*
X84322500Y13167500D03*
X84822500Y13167500D03*
D38*
X86985000Y15330000D03*
X86985000Y15830000D03*
X86985000Y16330000D03*
X86985000Y16830000D03*
X86985000Y17330000D03*
X86985000Y17830000D03*
X86985000Y18330000D03*
X86985000Y18830000D03*
X86985000Y19330000D03*
X86985000Y19830000D03*
X86985000Y20330000D03*
X86985000Y20830000D03*
X86985000Y21330000D03*
X86985000Y21830000D03*
X86985000Y22330000D03*
X86985000Y22830000D03*
X86985000Y23330000D03*
X86985000Y23830000D03*
X86985000Y24330000D03*
X86985000Y24830000D03*
X86985000Y25330000D03*
X86985000Y25830000D03*
X86985000Y26330000D03*
X86985000Y26830000D03*
X86985000Y27330000D03*
D31*
X91930000Y49820000D03*
X90910000Y49820000D03*
D21*
X19602500Y65445000D03*
X19602500Y66995000D03*
D12*
X71084871Y6910000D03*
X71084871Y5950000D03*
D16*
X90050000Y20040000D03*
X91070000Y20040000D03*
D39*
X55012500Y48178203D03*
X53412500Y48178203D03*
X53412500Y49478203D03*
X55012500Y49478203D03*
D40*
X83160000Y41790000D03*
X83160000Y44330000D03*
X80860000Y44330000D03*
X80860000Y41790000D03*
D41*
X95170000Y-33380000D03*
D42*
X93870000Y-30855000D03*
D41*
X89570000Y-33380000D03*
D42*
X92870000Y-30855000D03*
X91870000Y-30855000D03*
X90870000Y-30855000D03*
D13*
X101198533Y57000000D03*
X100238533Y57000000D03*
D11*
X99225000Y1190000D03*
X100775000Y1190000D03*
D26*
X24540000Y60310000D03*
X24540000Y59360000D03*
X24540000Y58410000D03*
X26740000Y58410000D03*
X26740000Y59360000D03*
X26740000Y60310000D03*
D43*
X74335000Y5605000D03*
X74335000Y7255000D03*
D44*
X27030000Y43970000D03*
X31130000Y43970000D03*
X27030000Y42700000D03*
X31130000Y42700000D03*
X27030000Y41430000D03*
X31130000Y41430000D03*
X27030000Y40160000D03*
X31130000Y40160000D03*
X27030000Y38890000D03*
X31130000Y38890000D03*
X27030000Y37620000D03*
X31130000Y37620000D03*
X27030000Y36350000D03*
X31130000Y36350000D03*
X27030000Y35080000D03*
X31130000Y35080000D03*
X27030000Y33810000D03*
X31130000Y33810000D03*
X27030000Y32540000D03*
X31130000Y32540000D03*
X27030000Y31270000D03*
X31130000Y31270000D03*
X27030000Y30000000D03*
X31130000Y30000000D03*
X27030000Y28730000D03*
X31130000Y28730000D03*
X27030000Y27460000D03*
X31130000Y27460000D03*
X27030000Y26190000D03*
X31130000Y26190000D03*
X27030000Y24920000D03*
X31130000Y24920000D03*
X27030000Y23650000D03*
X31130000Y23650000D03*
X27030000Y22380000D03*
X31130000Y22380000D03*
X27030000Y21110000D03*
X31130000Y21110000D03*
X27030000Y19840000D03*
X31130000Y19840000D03*
X27030000Y18570000D03*
X31130000Y18570000D03*
X27030000Y17300000D03*
X31130000Y17300000D03*
X27030000Y16030000D03*
X31130000Y16030000D03*
X27030000Y14760000D03*
X31130000Y14760000D03*
X27030000Y13490000D03*
X31130000Y13490000D03*
X27030000Y12220000D03*
X31130000Y12220000D03*
X27030000Y10950000D03*
X31130000Y10950000D03*
X27030000Y9680000D03*
X31130000Y9680000D03*
X27030000Y8410000D03*
X31130000Y8410000D03*
X27030000Y7140000D03*
X31130000Y7140000D03*
X27030000Y5870000D03*
X31130000Y5870000D03*
X27030000Y4600000D03*
X31130000Y4600000D03*
X49030000Y43970000D03*
X53130000Y43970000D03*
X49030000Y42700000D03*
X53130000Y42700000D03*
X49030000Y41430000D03*
X53130000Y41430000D03*
X49030000Y40160000D03*
X53130000Y40160000D03*
X49030000Y38890000D03*
X53130000Y38890000D03*
X49030000Y37620000D03*
X53130000Y37620000D03*
X49030000Y36350000D03*
X53130000Y36350000D03*
X49030000Y35080000D03*
X53130000Y35080000D03*
X49030000Y33810000D03*
X53130000Y33810000D03*
X49030000Y32540000D03*
X53130000Y32530000D03*
X49030000Y31270000D03*
X53130000Y31270000D03*
X49030000Y30000000D03*
X53130000Y30000000D03*
X49030000Y28730000D03*
X53130000Y28730000D03*
X49030000Y27460000D03*
X53130000Y27460000D03*
X49030000Y26190000D03*
X53130000Y26190000D03*
X49030000Y24920000D03*
X53130000Y24920000D03*
X49030000Y23650000D03*
X53130000Y23650000D03*
X49030000Y22380000D03*
X53130000Y22380000D03*
X49030000Y21110000D03*
X53130000Y21110000D03*
X49030000Y19840000D03*
X53130000Y19840000D03*
X49030000Y18570000D03*
X53130000Y18570000D03*
X49030000Y17300000D03*
X53130000Y17300000D03*
X49030000Y16030000D03*
X53130000Y16030000D03*
X49030000Y14760000D03*
X53130000Y14760000D03*
X49030000Y13490000D03*
X53130000Y13490000D03*
X49030000Y12220000D03*
X53130000Y12220000D03*
X49030000Y10950000D03*
X53130000Y10950000D03*
X49030000Y9680000D03*
X53130000Y9680000D03*
X49030000Y8410000D03*
X53130000Y8410000D03*
X49030000Y7140000D03*
X53130000Y7140000D03*
X49030000Y5870000D03*
X53130000Y5870000D03*
X49030000Y4600000D03*
X53130000Y4600000D03*
D11*
X99225000Y-340000D03*
X100775000Y-340000D03*
D45*
X28845000Y63260000D03*
X28045000Y63260000D03*
D46*
X26895000Y63290000D03*
X25895000Y63290000D03*
X25395000Y63290000D03*
X24395000Y63290000D03*
D45*
X23245000Y63260000D03*
X22445000Y63260000D03*
D46*
X23895000Y63290000D03*
X24895000Y63290000D03*
X26395000Y63290000D03*
X27395000Y63290000D03*
D14*
X99190000Y10860000D03*
X99190000Y9310000D03*
D12*
X72074871Y6910000D03*
X72074871Y5950000D03*
D47*
X101975000Y18050000D03*
X99025000Y18050000D03*
D14*
X99380000Y-22225000D03*
X99380000Y-23775000D03*
D16*
X100060000Y7470000D03*
X101080000Y7470000D03*
D18*
X94760000Y21090000D03*
X94760000Y20070000D03*
D48*
X89950000Y-20525000D03*
X88680000Y-20525000D03*
X87410000Y-20525000D03*
X86140000Y-20525000D03*
X84870000Y-20525000D03*
X83600000Y-20525000D03*
X82330000Y-20525000D03*
X82330000Y-25475000D03*
X83600000Y-25475000D03*
X84870000Y-25475000D03*
X86140000Y-25475000D03*
X87410000Y-25475000D03*
X88680000Y-25475000D03*
X89950000Y-25475000D03*
D21*
X98360000Y-12535000D03*
X98360000Y-10985000D03*
D49*
X47780000Y-36230000D03*
X46680000Y-36230000D03*
X45580000Y-36230000D03*
X44480000Y-36230000D03*
X43380000Y-36230000D03*
X42280000Y-36230000D03*
X41180000Y-36230000D03*
X40080000Y-36230000D03*
X38980000Y-36230000D03*
D50*
X37460000Y-46780000D03*
D51*
X37880000Y-37080000D03*
X52560000Y-37080000D03*
D50*
X52980000Y-46780000D03*
D16*
X100310000Y47590000D03*
X101330000Y47590000D03*
D11*
X99225000Y6200000D03*
X100775000Y6200000D03*
D10*
X86260000Y5635000D03*
X86260000Y8585000D03*
D23*
X95420000Y-24100000D03*
X96370000Y-24100000D03*
X97320000Y-24100000D03*
X97320000Y-21900000D03*
X95420000Y-21900000D03*
D47*
X101975000Y20425000D03*
X99025000Y20425000D03*
D19*
X99390000Y37650000D03*
X99390000Y38670000D03*
D52*
X60980000Y27230000D03*
X59080000Y27230000D03*
D14*
X66680000Y17545000D03*
X66680000Y15995000D03*
D53*
X104975000Y44325000D03*
X107925000Y44325000D03*
D18*
X95750000Y21090000D03*
X95750000Y20070000D03*
D16*
X89180000Y1860000D03*
X90200000Y1860000D03*
D53*
X104975000Y41900000D03*
X107925000Y41900000D03*
D14*
X58760000Y7400000D03*
X58760000Y5850000D03*
D12*
X95670000Y25630000D03*
X95670000Y24670000D03*
D53*
X25635000Y52030000D03*
X28585000Y52030000D03*
X62610000Y27400000D03*
X65560000Y27400000D03*
D11*
X82575000Y46870000D03*
X84125000Y46870000D03*
D21*
X93360000Y-23775000D03*
X93360000Y-22225000D03*
X28601429Y54635000D03*
X28601429Y56185000D03*
D16*
X100060000Y4950000D03*
X101080000Y4950000D03*
D14*
X60060000Y43894618D03*
X60060000Y42344618D03*
D43*
X102320000Y-9180000D03*
X102320000Y-7530000D03*
D16*
X90050000Y21030000D03*
X91070000Y21030000D03*
D28*
X103121467Y57000000D03*
X104081467Y57000000D03*
D12*
X89660000Y26320000D03*
X89660000Y25360000D03*
D13*
X91040000Y17750000D03*
X90080000Y17750000D03*
D15*
X95322500Y-6262500D03*
X93772500Y-6262500D03*
D13*
X79790000Y7920000D03*
X78830000Y7920000D03*
D54*
X58120000Y43780000D03*
X58120000Y40830000D03*
D19*
X102650000Y37650000D03*
X102650000Y38670000D03*
D11*
X95595000Y-26010000D03*
X97145000Y-26010000D03*
D12*
X98400000Y38620000D03*
X98400000Y37660000D03*
D11*
X99225000Y2720000D03*
X100775000Y2720000D03*
D18*
X100390000Y38670000D03*
X100390000Y37650000D03*
D12*
X94550000Y34540000D03*
X94550000Y33580000D03*
D15*
X104415000Y32620000D03*
X102865000Y32620000D03*
D31*
X87870000Y36530000D03*
X86850000Y36530000D03*
M02*
