%TF.GenerationSoftware,KiCad,Pcbnew,9.0.0*%
%TF.CreationDate,2025-03-14T14:54:43-04:00*%
%TF.ProjectId,MiniCamel_RearPlate,4d696e69-4361-46d6-956c-5f5265617250,rev?*%
%TF.SameCoordinates,Original*%
%TF.FileFunction,Legend,Top*%
%TF.FilePolarity,Positive*%
%FSLAX46Y46*%
G04 Gerber Fmt 4.6, Leading zero omitted, Abs format (unit mm)*
G04 Created by KiCad (PCBNEW 9.0.0) date 2025-03-14 14:54:43*
%MOMM*%
%LPD*%
G01*
G04 APERTURE LIST*
%ADD10C,0.359833*%
%ADD11C,0.070000*%
%ADD12C,0.000000*%
G04 APERTURE END LIST*
D10*
X134325713Y-93677315D02*
X134392435Y-93726588D01*
X133978530Y-93222253D02*
X134006247Y-93280750D01*
X135428098Y-93965803D02*
X135550692Y-93955272D01*
X134209400Y-93570929D02*
X134264789Y-93625275D01*
X136480496Y-93457163D02*
X136520863Y-93398666D01*
X134073803Y-93398666D02*
X134114170Y-93457163D01*
X135872091Y-93886782D02*
X135964641Y-93853191D01*
X134757583Y-94869000D02*
X134929286Y-93938284D01*
X136385267Y-93570929D02*
X136435385Y-93514738D01*
X135964641Y-93853191D02*
X136050339Y-93814987D01*
X135772426Y-93915301D02*
X135872091Y-93886782D01*
X136588420Y-93280750D02*
X136616136Y-93222253D01*
X134264789Y-93625275D02*
X134325713Y-93677315D01*
X136727179Y-92826225D02*
X136733855Y-92764115D01*
X136129448Y-93772632D02*
X136202231Y-93726588D01*
X135362716Y-90013314D02*
X135424013Y-90019332D01*
X135481357Y-90029040D01*
X135534879Y-90042173D01*
X135584712Y-90058469D01*
X135630987Y-90077665D01*
X135673836Y-90099495D01*
X135713391Y-90123698D01*
X135749782Y-90150009D01*
X135783143Y-90178165D01*
X135813605Y-90207902D01*
X135841300Y-90238957D01*
X135866359Y-90271066D01*
X135888915Y-90303966D01*
X135909098Y-90337393D01*
X135927042Y-90371083D01*
X135942877Y-90404774D01*
X135956735Y-90438201D01*
X135979049Y-90503210D01*
X135995037Y-90564002D01*
X136005755Y-90618469D01*
X136012256Y-90664502D01*
X136015594Y-90699993D01*
X136017000Y-90730917D01*
X136017000Y-92530083D01*
X136015594Y-92561006D01*
X136012256Y-92596498D01*
X136005755Y-92642531D01*
X135995037Y-92696998D01*
X135979049Y-92757790D01*
X135956735Y-92822799D01*
X135942877Y-92856226D01*
X135927042Y-92889917D01*
X135909098Y-92923607D01*
X135888915Y-92957034D01*
X135866359Y-92989934D01*
X135841300Y-93022043D01*
X135813605Y-93053098D01*
X135783143Y-93082835D01*
X135749782Y-93110991D01*
X135713391Y-93137302D01*
X135673836Y-93161505D01*
X135630987Y-93183335D01*
X135584712Y-93202531D01*
X135534879Y-93218827D01*
X135481357Y-93231960D01*
X135424013Y-93241668D01*
X135362716Y-93247685D01*
X135297333Y-93249750D01*
X135231951Y-93247685D01*
X135170654Y-93241668D01*
X135113310Y-93231960D01*
X135059787Y-93218827D01*
X135009954Y-93202531D01*
X134963679Y-93183335D01*
X134920830Y-93161505D01*
X134881276Y-93137302D01*
X134844884Y-93110991D01*
X134811523Y-93082835D01*
X134781061Y-93053098D01*
X134753366Y-93022043D01*
X134728307Y-92989934D01*
X134705752Y-92957034D01*
X134685568Y-92923607D01*
X134667625Y-92889917D01*
X134651790Y-92856226D01*
X134637932Y-92822799D01*
X134615618Y-92757790D01*
X134599629Y-92696998D01*
X134588911Y-92642531D01*
X134582410Y-92596498D01*
X134579072Y-92561006D01*
X134577667Y-92530083D01*
X134577667Y-90730917D01*
X134579072Y-90699993D01*
X134582410Y-90664502D01*
X134588911Y-90618469D01*
X134599629Y-90564002D01*
X134615618Y-90503210D01*
X134637932Y-90438201D01*
X134651790Y-90404774D01*
X134667625Y-90371083D01*
X134685568Y-90337393D01*
X134705752Y-90303966D01*
X134728307Y-90271066D01*
X134753366Y-90238957D01*
X134781061Y-90207902D01*
X134811523Y-90178165D01*
X134844884Y-90150009D01*
X134881276Y-90123698D01*
X134920830Y-90099495D01*
X134963679Y-90077665D01*
X135009954Y-90058469D01*
X135059787Y-90042173D01*
X135113310Y-90029040D01*
X135170654Y-90019332D01*
X135231951Y-90013314D01*
X135297333Y-90011250D01*
X135362716Y-90013314D01*
X133901925Y-93002101D02*
X133933902Y-93108487D01*
X135297333Y-93969416D02*
X135297333Y-94869000D01*
X134037917Y-93339708D02*
X134073803Y-93398666D01*
X136556750Y-93339708D02*
X136588420Y-93280750D01*
X135550692Y-93955272D02*
X135665380Y-93938284D01*
X136268953Y-93677315D02*
X136329877Y-93625275D01*
D11*
X159687713Y-105228525D02*
X159687713Y-105239674D01*
X159311413Y-105239674D01*
X159016717Y-104474500D01*
X157960295Y-104474500D01*
X157682834Y-105239674D01*
X157334107Y-105239674D01*
X157334107Y-105223303D01*
X157726246Y-104202209D01*
X158056803Y-104202209D01*
X158913315Y-104202209D01*
X158649640Y-103502523D01*
X158593199Y-103350221D01*
X158544514Y-103212137D01*
X158503584Y-103088270D01*
X158486028Y-103031668D01*
X158470410Y-102978621D01*
X158457727Y-103039316D01*
X158443805Y-103099903D01*
X158428645Y-103160382D01*
X158412246Y-103220754D01*
X158394609Y-103281018D01*
X158375732Y-103341174D01*
X158355617Y-103401223D01*
X158334264Y-103461164D01*
X158056803Y-104202209D01*
X157726246Y-104202209D01*
X158298074Y-102713222D01*
X158658257Y-102713222D01*
X159687713Y-105228525D01*
G36*
X159687713Y-105228525D02*
G01*
X159687713Y-105239674D01*
X159311413Y-105239674D01*
X159016717Y-104474500D01*
X157960295Y-104474500D01*
X157682834Y-105239674D01*
X157334107Y-105239674D01*
X157334107Y-105223303D01*
X157726246Y-104202209D01*
X158056803Y-104202209D01*
X158913315Y-104202209D01*
X158649640Y-103502523D01*
X158593199Y-103350221D01*
X158544514Y-103212137D01*
X158503584Y-103088270D01*
X158486028Y-103031668D01*
X158470410Y-102978621D01*
X158457727Y-103039316D01*
X158443805Y-103099903D01*
X158428645Y-103160382D01*
X158412246Y-103220754D01*
X158394609Y-103281018D01*
X158375732Y-103341174D01*
X158355617Y-103401223D01*
X158334264Y-103461164D01*
X158056803Y-104202209D01*
X157726246Y-104202209D01*
X158298074Y-102713222D01*
X158658257Y-102713222D01*
X159687713Y-105228525D01*
G37*
D10*
X136733855Y-92764115D02*
X136736666Y-92710000D01*
X136435385Y-93514738D02*
X136480496Y-93457163D01*
X133858000Y-92710000D02*
X133860811Y-92764115D01*
D11*
X161357653Y-104696815D02*
X161357653Y-102713222D01*
X161678199Y-102713222D01*
X161678199Y-105239674D01*
X161335250Y-105239674D01*
X160008259Y-103254358D01*
X160008259Y-105239674D01*
X159692276Y-105239674D01*
X159687713Y-105228525D01*
X159687713Y-102713222D01*
X160030663Y-102713222D01*
X161357653Y-104696815D01*
G36*
X161357653Y-104696815D02*
G01*
X161357653Y-102713222D01*
X161678199Y-102713222D01*
X161678199Y-105239674D01*
X161335250Y-105239674D01*
X160008259Y-103254358D01*
X160008259Y-105239674D01*
X159692276Y-105239674D01*
X159687713Y-105228525D01*
X159687713Y-102713222D01*
X160030663Y-102713222D01*
X161357653Y-104696815D01*
G37*
D10*
X136692741Y-93002101D02*
X136714177Y-92906784D01*
D12*
G36*
X94234000Y-91186000D02*
G01*
X94243774Y-91186727D01*
X94253464Y-91187931D01*
X94263054Y-91189604D01*
X94272530Y-91191741D01*
X94281873Y-91194334D01*
X94291068Y-91197376D01*
X94300099Y-91200861D01*
X94308949Y-91204783D01*
X94317603Y-91209133D01*
X94326043Y-91213907D01*
X94334254Y-91219096D01*
X94342219Y-91224694D01*
X94349922Y-91230695D01*
X94357347Y-91237092D01*
X94364477Y-91243877D01*
X94371262Y-91251007D01*
X94377659Y-91258432D01*
X94383660Y-91266135D01*
X94389258Y-91274100D01*
X94394447Y-91282311D01*
X94399221Y-91290751D01*
X94403571Y-91299405D01*
X94407493Y-91308255D01*
X94410978Y-91317286D01*
X94414020Y-91326481D01*
X94416613Y-91335824D01*
X94418750Y-91345300D01*
X94420423Y-91354890D01*
X94421627Y-91364580D01*
X94422354Y-91374354D01*
X94422598Y-91384194D01*
X94422598Y-93368568D01*
X94422354Y-93378408D01*
X94421627Y-93388182D01*
X94420423Y-93397872D01*
X94418750Y-93407462D01*
X94416613Y-93416938D01*
X94414020Y-93426281D01*
X94410978Y-93435476D01*
X94407493Y-93444507D01*
X94403571Y-93453357D01*
X94399221Y-93462011D01*
X94394447Y-93470451D01*
X94389258Y-93478662D01*
X94383660Y-93486627D01*
X94377659Y-93494330D01*
X94371262Y-93501755D01*
X94364477Y-93508885D01*
X94357347Y-93515671D01*
X94349922Y-93522067D01*
X94342219Y-93528068D01*
X94334254Y-93533666D01*
X94326043Y-93538855D01*
X94317603Y-93543629D01*
X94308949Y-93547980D01*
X94300099Y-93551901D01*
X94291068Y-93555386D01*
X94281873Y-93558429D01*
X94272530Y-93561021D01*
X94263054Y-93563158D01*
X94253464Y-93564831D01*
X94243774Y-93566035D01*
X94234000Y-93566762D01*
X94224160Y-93567006D01*
X93430410Y-93567006D01*
X93400891Y-93566274D01*
X93371571Y-93564093D01*
X93342501Y-93560482D01*
X93313728Y-93555462D01*
X93285303Y-93549052D01*
X93257273Y-93541274D01*
X93229687Y-93532146D01*
X93202594Y-93521691D01*
X93176043Y-93509927D01*
X93150083Y-93496874D01*
X93124763Y-93482554D01*
X93100131Y-93466987D01*
X93076236Y-93450191D01*
X93053127Y-93432189D01*
X93030852Y-93412999D01*
X93009461Y-93392643D01*
X92989105Y-93371252D01*
X92969915Y-93348978D01*
X92951913Y-93325868D01*
X92935117Y-93301973D01*
X92919550Y-93277341D01*
X92905230Y-93252021D01*
X92892178Y-93226061D01*
X92880413Y-93199510D01*
X92869958Y-93172417D01*
X92860830Y-93144831D01*
X92853052Y-93116801D01*
X92846642Y-93088376D01*
X92841622Y-93059603D01*
X92838011Y-93030533D01*
X92835830Y-93001213D01*
X92835098Y-92971693D01*
X93231973Y-92971693D01*
X93232217Y-92981533D01*
X93232944Y-92991307D01*
X93234148Y-93000997D01*
X93235821Y-93010588D01*
X93237958Y-93020063D01*
X93240550Y-93029406D01*
X93243593Y-93038602D01*
X93247078Y-93047632D01*
X93250999Y-93056483D01*
X93255350Y-93065136D01*
X93260124Y-93073576D01*
X93265313Y-93081787D01*
X93270911Y-93089752D01*
X93276912Y-93097455D01*
X93283309Y-93104880D01*
X93290094Y-93112010D01*
X93297224Y-93118796D01*
X93304649Y-93125192D01*
X93312352Y-93131193D01*
X93320317Y-93136791D01*
X93328528Y-93141981D01*
X93336968Y-93146754D01*
X93345622Y-93151105D01*
X93354472Y-93155026D01*
X93363503Y-93158511D01*
X93372698Y-93161554D01*
X93382041Y-93164146D01*
X93391516Y-93166283D01*
X93401107Y-93167956D01*
X93410797Y-93169160D01*
X93420571Y-93169887D01*
X93430410Y-93170131D01*
X94025723Y-93170131D01*
X94025723Y-91582631D01*
X93430410Y-91582631D01*
X93420571Y-91582875D01*
X93410797Y-91583602D01*
X93401107Y-91584806D01*
X93391516Y-91586479D01*
X93382041Y-91588616D01*
X93372698Y-91591209D01*
X93363503Y-91594251D01*
X93354472Y-91597736D01*
X93345621Y-91601658D01*
X93336968Y-91606008D01*
X93328528Y-91610782D01*
X93320317Y-91615971D01*
X93312352Y-91621569D01*
X93304649Y-91627570D01*
X93297224Y-91633967D01*
X93290094Y-91640752D01*
X93283309Y-91647882D01*
X93276912Y-91655307D01*
X93270911Y-91663010D01*
X93265313Y-91670975D01*
X93260124Y-91679186D01*
X93255350Y-91687626D01*
X93250999Y-91696280D01*
X93247078Y-91705130D01*
X93243593Y-91714161D01*
X93240550Y-91723356D01*
X93237958Y-91732699D01*
X93235821Y-91742175D01*
X93234148Y-91751765D01*
X93232944Y-91761455D01*
X93232217Y-91771229D01*
X93231973Y-91781069D01*
X93231973Y-92971693D01*
X92835098Y-92971693D01*
X92835098Y-91781069D01*
X92835830Y-91751549D01*
X92838011Y-91722229D01*
X92841622Y-91693159D01*
X92846642Y-91664387D01*
X92853052Y-91635961D01*
X92860830Y-91607931D01*
X92869958Y-91580345D01*
X92880413Y-91553252D01*
X92892177Y-91526702D01*
X92905230Y-91500742D01*
X92919550Y-91475421D01*
X92935117Y-91450789D01*
X92951913Y-91426894D01*
X92969915Y-91403785D01*
X92989105Y-91381510D01*
X93009461Y-91360119D01*
X93030852Y-91339763D01*
X93053127Y-91320573D01*
X93076236Y-91302571D01*
X93100131Y-91285776D01*
X93124763Y-91270208D01*
X93150083Y-91255888D01*
X93176044Y-91242836D01*
X93202594Y-91231072D01*
X93229687Y-91220616D01*
X93257273Y-91211489D01*
X93285303Y-91203710D01*
X93313728Y-91197301D01*
X93342501Y-91192280D01*
X93371571Y-91188669D01*
X93400891Y-91186488D01*
X93430410Y-91185756D01*
X94224160Y-91185756D01*
X94234000Y-91186000D01*
G37*
D10*
X136616136Y-93222253D02*
X136660764Y-93108487D01*
X134159281Y-93514738D02*
X134209400Y-93570929D01*
X134722575Y-93886782D02*
X134822241Y-93915301D01*
X133860811Y-92764115D02*
X133867488Y-92826225D01*
D12*
G36*
X171625834Y-94090834D02*
G01*
X172961239Y-94090834D01*
X171414167Y-97184977D01*
X171414167Y-95149167D01*
X170078762Y-95149167D01*
X170184595Y-94937500D01*
X170421239Y-94937500D01*
X171625834Y-94937500D01*
X171625834Y-96288357D01*
X172618762Y-94302501D01*
X171414167Y-94302501D01*
X171414167Y-92951644D01*
X170421239Y-94937500D01*
X170184595Y-94937500D01*
X171625834Y-92055024D01*
X171625834Y-94090834D01*
G37*
D10*
X136202231Y-93726588D02*
X136268953Y-93677315D01*
X133933902Y-93108487D02*
X133954503Y-93164678D01*
X133954503Y-93164678D02*
X133978530Y-93222253D01*
D12*
G36*
X96218539Y-89798678D02*
G01*
X96231402Y-89799870D01*
X96244198Y-89801905D01*
X96256883Y-89804784D01*
X96269418Y-89808512D01*
X96281758Y-89813090D01*
X96293864Y-89818522D01*
X96300192Y-89821674D01*
X96306374Y-89825032D01*
X96312407Y-89828590D01*
X96318286Y-89832343D01*
X96324008Y-89836286D01*
X96329571Y-89840413D01*
X96334970Y-89844719D01*
X96340203Y-89849199D01*
X96345265Y-89853848D01*
X96350154Y-89858660D01*
X96354867Y-89863629D01*
X96359399Y-89868752D01*
X96363747Y-89874022D01*
X96367908Y-89879434D01*
X96371879Y-89884983D01*
X96375656Y-89890663D01*
X96379236Y-89896470D01*
X96382615Y-89902397D01*
X96385790Y-89908441D01*
X96388758Y-89914595D01*
X96391516Y-89920854D01*
X96394059Y-89927213D01*
X96396385Y-89933666D01*
X96398490Y-89940209D01*
X96400371Y-89946835D01*
X96402024Y-89953541D01*
X96403446Y-89960320D01*
X96404633Y-89967167D01*
X96405583Y-89974077D01*
X96406292Y-89981044D01*
X96406756Y-89988064D01*
X96406973Y-89995131D01*
X96406973Y-94757631D01*
X96406519Y-94771481D01*
X96405118Y-94785147D01*
X96402793Y-94798587D01*
X96399570Y-94811761D01*
X96395473Y-94824628D01*
X96390527Y-94837148D01*
X96384757Y-94849278D01*
X96378187Y-94860980D01*
X96370842Y-94872211D01*
X96362748Y-94882931D01*
X96353928Y-94893100D01*
X96344407Y-94902676D01*
X96334211Y-94911619D01*
X96323364Y-94919888D01*
X96311890Y-94927443D01*
X96299815Y-94934241D01*
X96294484Y-94936872D01*
X96289086Y-94939339D01*
X96283623Y-94941639D01*
X96278100Y-94943774D01*
X96272521Y-94945741D01*
X96266890Y-94947540D01*
X96261210Y-94949169D01*
X96255485Y-94950629D01*
X96249719Y-94951917D01*
X96243916Y-94953033D01*
X96238080Y-94953977D01*
X96232214Y-94954746D01*
X96226323Y-94955341D01*
X96220411Y-94955761D01*
X96214480Y-94956003D01*
X96208535Y-94956069D01*
X96200962Y-94955906D01*
X96193419Y-94955456D01*
X96185915Y-94954721D01*
X96178458Y-94953704D01*
X96171055Y-94952406D01*
X96163714Y-94950831D01*
X96156443Y-94948981D01*
X96149249Y-94946858D01*
X96142141Y-94944465D01*
X96135126Y-94941803D01*
X96128212Y-94938877D01*
X96121407Y-94935687D01*
X96114718Y-94932238D01*
X96108153Y-94928530D01*
X96101719Y-94924566D01*
X96095426Y-94920349D01*
X94111051Y-93531287D01*
X94101302Y-93524074D01*
X94092071Y-93516332D01*
X94083374Y-93508091D01*
X94075226Y-93499379D01*
X94067641Y-93490225D01*
X94060635Y-93480658D01*
X94054223Y-93470706D01*
X94048420Y-93460398D01*
X94043241Y-93449763D01*
X94038701Y-93438830D01*
X94034815Y-93427627D01*
X94031598Y-93416182D01*
X94029065Y-93404525D01*
X94027232Y-93392685D01*
X94026113Y-93380690D01*
X94025723Y-93368568D01*
X94025723Y-93265381D01*
X94422598Y-93265381D01*
X96010098Y-94376631D01*
X96010098Y-90376131D01*
X94422598Y-91487381D01*
X94422598Y-93265381D01*
X94025723Y-93265381D01*
X94025723Y-91487381D01*
X94025723Y-91384194D01*
X94026112Y-91372073D01*
X94027231Y-91360079D01*
X94029064Y-91348239D01*
X94031597Y-91336583D01*
X94034813Y-91325139D01*
X94038699Y-91313936D01*
X94043239Y-91303003D01*
X94048418Y-91292368D01*
X94054220Y-91282060D01*
X94060632Y-91272108D01*
X94067638Y-91262541D01*
X94075222Y-91253387D01*
X94083370Y-91244675D01*
X94092067Y-91236433D01*
X94101298Y-91228692D01*
X94111047Y-91221478D01*
X96095426Y-89832412D01*
X96106656Y-89825347D01*
X96118239Y-89819094D01*
X96130131Y-89813657D01*
X96142292Y-89809038D01*
X96154680Y-89805241D01*
X96167251Y-89802268D01*
X96179965Y-89800122D01*
X96192778Y-89798806D01*
X96205651Y-89798324D01*
X96218539Y-89798678D01*
G37*
D10*
X134757583Y-94869000D02*
X135297333Y-94869000D01*
X134392435Y-93726588D02*
X134465219Y-93772632D01*
X134929286Y-93938284D02*
X135043974Y-93955272D01*
X135043974Y-93955272D02*
X135166569Y-93965803D01*
X135665380Y-93938284D02*
X135772426Y-93915301D01*
X134114170Y-93457163D02*
X134159281Y-93514738D01*
X136329877Y-93625275D02*
X136385267Y-93570929D01*
X133867488Y-92826225D02*
X133880490Y-92906784D01*
X134822241Y-93915301D02*
X134929286Y-93938284D01*
D11*
X156024349Y-104502074D02*
X156095869Y-104720512D01*
X156123227Y-104806141D01*
X156144985Y-104876045D01*
X156169543Y-104799031D01*
X156200133Y-104705862D01*
X156236755Y-104596536D01*
X156279407Y-104471054D01*
X156884309Y-102713222D01*
X157334107Y-102713222D01*
X157334107Y-105223303D01*
X157327820Y-105239674D01*
X157011838Y-105239674D01*
X157011838Y-103125106D01*
X156277685Y-105239674D01*
X155976095Y-105239674D01*
X155245389Y-103088915D01*
X155245389Y-105239674D01*
X154923120Y-105239674D01*
X154923120Y-102713222D01*
X155426342Y-102713222D01*
X156024349Y-104502074D01*
G36*
X156024349Y-104502074D02*
G01*
X156095869Y-104720512D01*
X156123227Y-104806141D01*
X156144985Y-104876045D01*
X156169543Y-104799031D01*
X156200133Y-104705862D01*
X156236755Y-104596536D01*
X156279407Y-104471054D01*
X156884309Y-102713222D01*
X157334107Y-102713222D01*
X157334107Y-105223303D01*
X157327820Y-105239674D01*
X157011838Y-105239674D01*
X157011838Y-103125106D01*
X156277685Y-105239674D01*
X155976095Y-105239674D01*
X155245389Y-103088915D01*
X155245389Y-105239674D01*
X154923120Y-105239674D01*
X154923120Y-102713222D01*
X155426342Y-102713222D01*
X156024349Y-104502074D01*
G37*
D10*
X134465219Y-93772632D02*
X134544328Y-93814987D01*
X135297333Y-93969416D02*
X135428098Y-93965803D01*
X135166569Y-93965803D02*
X135297333Y-93969416D01*
D12*
G36*
X96962005Y-91728758D02*
G01*
X97008277Y-91786676D01*
X97049762Y-91847374D01*
X97086402Y-91910560D01*
X97118137Y-91975941D01*
X97144910Y-92043224D01*
X97166662Y-92112117D01*
X97183336Y-92182327D01*
X97194871Y-92253562D01*
X97201211Y-92325529D01*
X97202297Y-92397935D01*
X97198071Y-92470488D01*
X97188473Y-92542896D01*
X97173447Y-92614864D01*
X97152933Y-92686102D01*
X97126873Y-92756316D01*
X97111840Y-92790735D01*
X97095616Y-92824376D01*
X97078230Y-92857216D01*
X97059715Y-92889235D01*
X97040101Y-92920413D01*
X97019418Y-92950729D01*
X96997700Y-92980162D01*
X96974975Y-93008692D01*
X96951276Y-93036297D01*
X96926633Y-93062958D01*
X96901077Y-93088653D01*
X96874639Y-93113362D01*
X96847351Y-93137064D01*
X96819244Y-93159738D01*
X96790348Y-93181364D01*
X96760694Y-93201921D01*
X96730314Y-93221388D01*
X96699238Y-93239745D01*
X96667498Y-93256971D01*
X96635125Y-93273045D01*
X96602149Y-93287947D01*
X96568602Y-93301656D01*
X96534515Y-93314150D01*
X96499918Y-93325411D01*
X96464843Y-93335416D01*
X96429321Y-93344145D01*
X96393383Y-93351578D01*
X96357060Y-93357693D01*
X96320382Y-93362471D01*
X96283382Y-93365889D01*
X96246089Y-93367929D01*
X96208535Y-93368568D01*
X96208535Y-92971693D01*
X96253348Y-92969973D01*
X96297455Y-92964957D01*
X96340709Y-92956745D01*
X96382961Y-92945435D01*
X96424064Y-92931126D01*
X96463870Y-92913918D01*
X96502231Y-92893909D01*
X96538999Y-92871199D01*
X96574026Y-92845885D01*
X96607164Y-92818068D01*
X96638264Y-92787846D01*
X96667181Y-92755318D01*
X96693764Y-92720583D01*
X96717866Y-92683740D01*
X96739340Y-92644888D01*
X96758038Y-92604126D01*
X96773629Y-92562078D01*
X96785906Y-92519418D01*
X96794903Y-92476321D01*
X96800656Y-92432961D01*
X96803199Y-92389513D01*
X96802566Y-92346151D01*
X96798793Y-92303051D01*
X96791914Y-92260385D01*
X96781963Y-92218331D01*
X96768975Y-92177060D01*
X96752986Y-92136749D01*
X96734029Y-92097572D01*
X96712140Y-92059703D01*
X96687353Y-92023318D01*
X96659702Y-91988590D01*
X96629223Y-91955694D01*
X96911004Y-91673912D01*
X96962005Y-91728758D01*
G37*
D10*
X134630025Y-93853191D02*
X134722575Y-93886782D01*
X134544328Y-93814987D02*
X134630025Y-93853191D01*
X136714177Y-92906784D02*
X136727179Y-92826225D01*
X134006247Y-93280750D02*
X134037917Y-93339708D01*
X136660764Y-93108487D02*
X136692741Y-93002101D01*
X136520863Y-93398666D02*
X136556750Y-93339708D01*
D12*
G36*
X97361926Y-91076798D02*
G01*
X97370983Y-91077480D01*
X97380010Y-91078577D01*
X97388992Y-91080088D01*
X97397914Y-91082014D01*
X97406762Y-91084356D01*
X97415519Y-91087114D01*
X97424172Y-91090290D01*
X97432704Y-91093883D01*
X97441100Y-91097894D01*
X97449346Y-91102323D01*
X97457426Y-91107172D01*
X97465325Y-91112441D01*
X97473028Y-91118130D01*
X97480520Y-91124241D01*
X97543767Y-91190850D01*
X97602935Y-91259834D01*
X97658021Y-91331035D01*
X97709027Y-91404293D01*
X97755953Y-91479452D01*
X97798798Y-91556352D01*
X97837563Y-91634835D01*
X97872247Y-91714743D01*
X97902851Y-91795917D01*
X97929374Y-91878200D01*
X97951817Y-91961432D01*
X97970179Y-92045457D01*
X97984461Y-92130114D01*
X97994662Y-92215246D01*
X98000783Y-92300695D01*
X98002823Y-92386303D01*
X98000783Y-92471910D01*
X97994662Y-92557359D01*
X97984461Y-92642492D01*
X97970179Y-92727149D01*
X97951817Y-92811173D01*
X97929374Y-92894406D01*
X97902851Y-92976689D01*
X97872247Y-93057863D01*
X97837563Y-93137771D01*
X97798798Y-93216254D01*
X97755953Y-93293154D01*
X97709027Y-93368313D01*
X97658021Y-93441571D01*
X97602935Y-93512772D01*
X97543767Y-93581756D01*
X97480520Y-93648365D01*
X97472588Y-93654910D01*
X97464368Y-93661007D01*
X97455879Y-93666650D01*
X97447140Y-93671834D01*
X97438169Y-93676552D01*
X97428987Y-93680798D01*
X97419612Y-93684567D01*
X97410063Y-93687851D01*
X97400359Y-93690646D01*
X97390520Y-93692945D01*
X97380565Y-93694743D01*
X97370512Y-93696032D01*
X97360380Y-93696807D01*
X97350190Y-93697063D01*
X97339959Y-93696792D01*
X97329707Y-93695990D01*
X97319974Y-93695711D01*
X97310308Y-93694958D01*
X97300724Y-93693740D01*
X97291238Y-93692061D01*
X97281867Y-93689930D01*
X97272625Y-93687352D01*
X97263528Y-93684334D01*
X97254592Y-93680882D01*
X97245834Y-93677003D01*
X97237268Y-93672704D01*
X97228910Y-93667991D01*
X97220777Y-93662870D01*
X97212884Y-93657349D01*
X97205246Y-93651433D01*
X97197880Y-93645129D01*
X97190801Y-93638443D01*
X97184651Y-93630955D01*
X97178923Y-93623253D01*
X97173617Y-93615353D01*
X97168733Y-93607271D01*
X97164269Y-93599020D01*
X97160225Y-93590617D01*
X97156601Y-93582077D01*
X97153396Y-93573415D01*
X97150609Y-93564646D01*
X97148240Y-93555786D01*
X97146289Y-93546850D01*
X97144754Y-93537852D01*
X97143636Y-93528809D01*
X97142933Y-93519736D01*
X97142645Y-93510647D01*
X97142772Y-93501558D01*
X97143313Y-93492484D01*
X97144267Y-93483441D01*
X97145635Y-93474443D01*
X97147414Y-93465507D01*
X97149605Y-93456646D01*
X97152208Y-93447877D01*
X97155221Y-93439215D01*
X97158644Y-93430674D01*
X97162476Y-93422271D01*
X97166718Y-93414020D01*
X97171367Y-93405937D01*
X97176425Y-93398037D01*
X97181890Y-93390334D01*
X97187762Y-93382845D01*
X97194039Y-93375585D01*
X97200723Y-93368568D01*
X97248226Y-93318655D01*
X97293007Y-93266680D01*
X97335018Y-93212757D01*
X97374212Y-93156999D01*
X97410541Y-93099522D01*
X97443958Y-93040438D01*
X97474417Y-92979862D01*
X97501870Y-92917907D01*
X97526270Y-92854687D01*
X97547570Y-92790316D01*
X97565722Y-92724909D01*
X97580679Y-92658578D01*
X97592395Y-92591439D01*
X97600822Y-92523603D01*
X97605913Y-92455187D01*
X97607620Y-92386303D01*
X97605913Y-92317419D01*
X97600822Y-92249002D01*
X97592395Y-92181167D01*
X97580679Y-92114027D01*
X97565722Y-92047696D01*
X97547570Y-91982289D01*
X97526270Y-91917918D01*
X97501870Y-91854699D01*
X97474417Y-91792744D01*
X97443958Y-91732167D01*
X97410541Y-91673084D01*
X97374212Y-91615606D01*
X97335018Y-91559849D01*
X97293007Y-91505926D01*
X97248226Y-91453950D01*
X97200723Y-91404037D01*
X97194612Y-91396545D01*
X97188923Y-91388842D01*
X97183654Y-91380943D01*
X97178805Y-91372863D01*
X97174376Y-91364618D01*
X97170365Y-91356221D01*
X97166772Y-91347689D01*
X97163597Y-91339037D01*
X97160838Y-91330280D01*
X97158496Y-91321432D01*
X97156570Y-91312510D01*
X97155059Y-91303527D01*
X97153963Y-91294501D01*
X97153280Y-91285444D01*
X97153011Y-91276373D01*
X97153155Y-91267304D01*
X97153711Y-91258249D01*
X97154679Y-91249226D01*
X97156058Y-91240250D01*
X97157848Y-91231334D01*
X97160047Y-91222495D01*
X97162656Y-91213748D01*
X97165673Y-91205108D01*
X97169099Y-91196589D01*
X97172932Y-91188207D01*
X97177172Y-91179978D01*
X97181819Y-91171916D01*
X97186872Y-91164037D01*
X97192329Y-91156355D01*
X97198192Y-91148886D01*
X97204458Y-91141644D01*
X97211128Y-91134646D01*
X97218126Y-91127976D01*
X97225368Y-91121710D01*
X97232837Y-91115847D01*
X97240519Y-91110390D01*
X97248398Y-91105337D01*
X97256460Y-91100690D01*
X97264689Y-91096450D01*
X97273071Y-91092617D01*
X97281590Y-91089191D01*
X97290230Y-91086174D01*
X97298977Y-91083565D01*
X97307816Y-91081365D01*
X97316732Y-91079576D01*
X97325708Y-91078197D01*
X97334731Y-91077229D01*
X97343786Y-91076673D01*
X97352855Y-91076529D01*
X97361926Y-91076798D01*
G37*
D10*
X136050339Y-93814987D02*
X136129448Y-93772632D01*
X133880490Y-92906784D02*
X133901925Y-93002101D01*
M02*
