%TF.GenerationSoftware,KiCad,Pcbnew,9.0.0*%
%TF.CreationDate,2025-03-14T14:54:43-04:00*%
%TF.ProjectId,MiniCamel_RearPlate,4d696e69-4361-46d6-956c-5f5265617250,rev?*%
%TF.SameCoordinates,Original*%
%TF.FileFunction,Copper,L2,Bot*%
%TF.FilePolarity,Positive*%
%FSLAX46Y46*%
G04 Gerber Fmt 4.6, Leading zero omitted, Abs format (unit mm)*
G04 Created by KiCad (PCBNEW 9.0.0) date 2025-03-14 14:54:43*
%MOMM*%
%LPD*%
G01*
G04 APERTURE LIST*
%TA.AperFunction,ComponentPad*%
%ADD10C,4.064000*%
%TD*%
G04 APERTURE END LIST*
D10*
%TO.P,REF\u002A\u002A,1*%
%TO.N,GND*%
X81310000Y-71791723D03*
%TO.P,REF\u002A\u002A,2*%
X182460000Y-71791723D03*
%TO.P,REF\u002A\u002A,3*%
X81310000Y-109010000D03*
%TO.P,REF\u002A\u002A,4*%
X182460000Y-109010000D03*
%TD*%
%TA.AperFunction,Conductor*%
%TO.N,GND*%
G36*
X183304558Y-68710725D02*
G01*
X183571615Y-68726882D01*
X183586480Y-68728687D01*
X183845951Y-68776238D01*
X183860484Y-68779821D01*
X184112328Y-68858300D01*
X184126327Y-68863610D01*
X184366871Y-68971872D01*
X184380128Y-68978829D01*
X184605882Y-69115303D01*
X184618193Y-69123801D01*
X184733486Y-69214127D01*
X184825851Y-69286490D01*
X184837059Y-69296420D01*
X185023579Y-69482940D01*
X185033509Y-69494148D01*
X185196194Y-69701800D01*
X185204700Y-69714123D01*
X185341169Y-69939870D01*
X185348127Y-69953128D01*
X185456389Y-70193672D01*
X185461699Y-70207673D01*
X185540177Y-70459512D01*
X185543761Y-70474051D01*
X185591312Y-70733520D01*
X185593117Y-70748384D01*
X185609274Y-71015441D01*
X185609500Y-71022929D01*
X185609500Y-109697070D01*
X185609274Y-109704558D01*
X185593117Y-109971615D01*
X185591312Y-109986479D01*
X185543761Y-110245948D01*
X185540177Y-110260487D01*
X185461699Y-110512326D01*
X185456389Y-110526327D01*
X185348127Y-110766871D01*
X185341169Y-110780129D01*
X185204700Y-111005876D01*
X185196194Y-111018199D01*
X185033509Y-111225851D01*
X185023579Y-111237059D01*
X184837059Y-111423579D01*
X184825851Y-111433509D01*
X184618199Y-111596194D01*
X184605876Y-111604700D01*
X184380129Y-111741169D01*
X184366871Y-111748127D01*
X184126327Y-111856389D01*
X184112326Y-111861699D01*
X183860487Y-111940177D01*
X183845948Y-111943761D01*
X183586479Y-111991312D01*
X183571615Y-111993117D01*
X183304559Y-112009274D01*
X183297071Y-112009500D01*
X80440655Y-112009500D01*
X80433168Y-112009274D01*
X80163971Y-111992990D01*
X80149107Y-111991185D01*
X79887532Y-111943251D01*
X79872993Y-111939667D01*
X79619116Y-111860556D01*
X79605115Y-111855247D01*
X79362608Y-111746104D01*
X79349349Y-111739145D01*
X79121773Y-111601570D01*
X79109450Y-111593064D01*
X78900113Y-111429059D01*
X78888905Y-111419129D01*
X78700870Y-111231094D01*
X78690940Y-111219886D01*
X78679627Y-111205446D01*
X78526931Y-111010543D01*
X78518433Y-110998232D01*
X78380851Y-110770644D01*
X78373899Y-110757398D01*
X78264750Y-110514880D01*
X78259443Y-110500883D01*
X78180329Y-110246995D01*
X78176750Y-110232477D01*
X78128813Y-109970888D01*
X78127009Y-109956028D01*
X78110726Y-109686832D01*
X78110500Y-109679345D01*
X78110500Y-99409470D01*
X92015422Y-99409470D01*
X92015422Y-99470529D01*
X92035107Y-99795970D01*
X92042465Y-99856560D01*
X92101239Y-100177284D01*
X92115849Y-100236554D01*
X92212842Y-100547813D01*
X92234486Y-100604886D01*
X92352043Y-100866088D01*
X92368304Y-100902217D01*
X92396666Y-100956257D01*
X92396677Y-100956277D01*
X92511445Y-101146125D01*
X92553756Y-101216117D01*
X92565341Y-101235280D01*
X92565346Y-101235289D01*
X92573242Y-101246728D01*
X92600023Y-101285526D01*
X92600027Y-101285531D01*
X92801093Y-101542175D01*
X92801094Y-101542176D01*
X92841569Y-101587862D01*
X92841603Y-101587898D01*
X93072101Y-101818396D01*
X93072137Y-101818430D01*
X93117823Y-101858905D01*
X93117824Y-101858906D01*
X93269838Y-101978000D01*
X93374474Y-102059977D01*
X93424710Y-102094653D01*
X93703732Y-102263328D01*
X93757783Y-102291696D01*
X94055103Y-102425509D01*
X94055110Y-102425511D01*
X94055113Y-102425513D01*
X94068848Y-102430721D01*
X94112179Y-102447155D01*
X94178146Y-102467711D01*
X94423445Y-102544150D01*
X94423455Y-102544152D01*
X94423460Y-102544154D01*
X94447255Y-102550019D01*
X94482715Y-102558760D01*
X94482722Y-102558761D01*
X94482729Y-102558763D01*
X94803432Y-102617534D01*
X94856455Y-102623972D01*
X94864029Y-102624892D01*
X94902172Y-102627199D01*
X95189479Y-102644578D01*
X95189492Y-102644578D01*
X95250508Y-102644578D01*
X95250521Y-102644578D01*
X95575970Y-102624892D01*
X95636568Y-102617534D01*
X95957271Y-102558763D01*
X95957280Y-102558760D01*
X95957284Y-102558760D01*
X95973355Y-102554798D01*
X96016540Y-102544154D01*
X96016548Y-102544151D01*
X96016554Y-102544150D01*
X96148474Y-102503041D01*
X96327821Y-102447155D01*
X96384897Y-102425509D01*
X96682217Y-102291696D01*
X96736268Y-102263328D01*
X97015290Y-102094653D01*
X97065526Y-102059977D01*
X97290282Y-101883892D01*
X97322175Y-101858906D01*
X97322176Y-101858905D01*
X97362950Y-101822782D01*
X97367873Y-101818421D01*
X97598421Y-101587873D01*
X97638900Y-101542182D01*
X97638905Y-101542176D01*
X97638906Y-101542175D01*
X97739699Y-101413521D01*
X97839977Y-101285526D01*
X97874653Y-101235290D01*
X98043328Y-100956268D01*
X98071696Y-100902217D01*
X98205509Y-100604897D01*
X98227155Y-100547821D01*
X98314815Y-100266510D01*
X98324150Y-100236554D01*
X98324151Y-100236548D01*
X98324154Y-100236540D01*
X98338763Y-100177271D01*
X98397534Y-99856568D01*
X98404892Y-99795970D01*
X98424578Y-99470521D01*
X98424578Y-99409479D01*
X98404892Y-99084030D01*
X98397534Y-99023432D01*
X98338763Y-98702729D01*
X98335145Y-98688052D01*
X98324150Y-98643445D01*
X98227157Y-98332186D01*
X98227155Y-98332179D01*
X98205509Y-98275103D01*
X98071696Y-97977783D01*
X98043328Y-97923732D01*
X97874653Y-97644710D01*
X97839977Y-97594474D01*
X97802326Y-97546417D01*
X97638906Y-97337824D01*
X97638905Y-97337823D01*
X97598430Y-97292137D01*
X97598396Y-97292101D01*
X97367898Y-97061603D01*
X97367862Y-97061569D01*
X97322176Y-97021094D01*
X97322175Y-97021093D01*
X97065531Y-96820027D01*
X97065526Y-96820023D01*
X97015290Y-96785347D01*
X97015289Y-96785346D01*
X97015280Y-96785341D01*
X96736277Y-96616677D01*
X96736271Y-96616674D01*
X96736268Y-96616672D01*
X96682217Y-96588304D01*
X96682215Y-96588303D01*
X96682211Y-96588301D01*
X96384886Y-96454486D01*
X96327813Y-96432842D01*
X96016554Y-96335849D01*
X95957284Y-96321239D01*
X95812745Y-96294751D01*
X95636568Y-96262466D01*
X95636560Y-96262465D01*
X95575970Y-96255107D01*
X95250529Y-96235422D01*
X95250521Y-96235422D01*
X95189479Y-96235422D01*
X95189470Y-96235422D01*
X94864029Y-96255107D01*
X94803439Y-96262465D01*
X94803436Y-96262465D01*
X94803432Y-96262466D01*
X94696531Y-96282056D01*
X94482715Y-96321239D01*
X94423445Y-96335849D01*
X94112186Y-96432842D01*
X94055113Y-96454486D01*
X93757788Y-96588301D01*
X93703722Y-96616677D01*
X93424719Y-96785341D01*
X93424710Y-96785346D01*
X93374468Y-96820027D01*
X93117824Y-97021093D01*
X93117823Y-97021094D01*
X93072137Y-97061569D01*
X93072101Y-97061603D01*
X92841603Y-97292101D01*
X92841569Y-97292137D01*
X92801094Y-97337823D01*
X92801093Y-97337824D01*
X92600027Y-97594468D01*
X92565346Y-97644710D01*
X92565341Y-97644719D01*
X92396677Y-97923722D01*
X92368301Y-97977788D01*
X92234486Y-98275113D01*
X92212842Y-98332186D01*
X92115849Y-98643445D01*
X92101239Y-98702715D01*
X92042465Y-99023439D01*
X92035107Y-99084029D01*
X92015422Y-99409470D01*
X78110500Y-99409470D01*
X78110500Y-91411608D01*
X101744782Y-91411608D01*
X101744782Y-101411608D01*
X101744782Y-101543392D01*
X101751751Y-101569400D01*
X101778890Y-101670687D01*
X101810140Y-101724813D01*
X101844782Y-101784814D01*
X101937968Y-101878000D01*
X102052096Y-101943892D01*
X102179390Y-101978000D01*
X102179392Y-101978000D01*
X112011172Y-101978000D01*
X112011174Y-101978000D01*
X112138468Y-101943892D01*
X112252596Y-101878000D01*
X112345782Y-101784814D01*
X112411674Y-101670686D01*
X112430905Y-101598912D01*
X112467268Y-101539255D01*
X112530115Y-101508725D01*
X112599491Y-101517019D01*
X112653369Y-101561504D01*
X112670453Y-101598913D01*
X112673607Y-101610684D01*
X112673607Y-101610685D01*
X112677634Y-101617659D01*
X112739500Y-101724814D01*
X112832686Y-101818000D01*
X112931521Y-101875063D01*
X112936603Y-101877997D01*
X112946814Y-101883892D01*
X113074108Y-101918000D01*
X113074110Y-101918000D01*
X129205890Y-101918000D01*
X129205892Y-101918000D01*
X129333186Y-101883892D01*
X129447314Y-101818000D01*
X129540500Y-101724814D01*
X129606392Y-101610686D01*
X129640500Y-101483392D01*
X129640500Y-99373347D01*
X131994881Y-99373347D01*
X131994881Y-99434406D01*
X132014566Y-99759847D01*
X132018953Y-99795970D01*
X132021925Y-99820445D01*
X132028545Y-99856568D01*
X132080698Y-100141161D01*
X132095308Y-100200431D01*
X132192301Y-100511690D01*
X132213945Y-100568763D01*
X132346223Y-100862674D01*
X132347763Y-100866094D01*
X132374480Y-100917000D01*
X132376136Y-100920154D01*
X132544800Y-101199157D01*
X132544805Y-101199166D01*
X132548942Y-101205159D01*
X132579482Y-101249403D01*
X132579486Y-101249408D01*
X132780552Y-101506052D01*
X132780553Y-101506053D01*
X132821028Y-101551739D01*
X132821062Y-101551775D01*
X133051560Y-101782273D01*
X133051596Y-101782307D01*
X133097282Y-101822782D01*
X133097283Y-101822783D01*
X133270965Y-101958853D01*
X133353933Y-102023854D01*
X133404169Y-102058530D01*
X133683191Y-102227205D01*
X133737242Y-102255573D01*
X134034562Y-102389386D01*
X134034569Y-102389388D01*
X134034572Y-102389390D01*
X134048307Y-102394598D01*
X134091638Y-102411032D01*
X134138109Y-102425513D01*
X134402904Y-102508027D01*
X134402914Y-102508029D01*
X134402919Y-102508031D01*
X134426714Y-102513896D01*
X134462174Y-102522637D01*
X134462181Y-102522638D01*
X134462188Y-102522640D01*
X134782891Y-102581411D01*
X134835914Y-102587849D01*
X134843488Y-102588769D01*
X134881631Y-102591076D01*
X135168938Y-102608455D01*
X135168951Y-102608455D01*
X135229967Y-102608455D01*
X135229980Y-102608455D01*
X135555429Y-102588769D01*
X135616027Y-102581411D01*
X135936730Y-102522640D01*
X135936739Y-102522637D01*
X135936743Y-102522637D01*
X135952814Y-102518675D01*
X135995999Y-102508031D01*
X135996007Y-102508028D01*
X135996013Y-102508027D01*
X136127933Y-102466918D01*
X136307280Y-102411032D01*
X136364356Y-102389386D01*
X136661676Y-102255573D01*
X136715727Y-102227205D01*
X136994749Y-102058530D01*
X137044985Y-102023854D01*
X137255527Y-101858905D01*
X137301634Y-101822783D01*
X137301635Y-101822782D01*
X137301641Y-101822777D01*
X137347332Y-101782298D01*
X137577880Y-101551750D01*
X137618359Y-101506059D01*
X137618364Y-101506053D01*
X137618365Y-101506052D01*
X137692357Y-101411608D01*
X137819436Y-101249403D01*
X137854112Y-101199167D01*
X138022787Y-100920145D01*
X138051155Y-100866094D01*
X138184968Y-100568774D01*
X138206614Y-100511698D01*
X138282992Y-100266593D01*
X138303609Y-100200431D01*
X138303610Y-100200425D01*
X138303613Y-100200417D01*
X138318222Y-100141148D01*
X138376993Y-99820445D01*
X138384351Y-99759847D01*
X138404037Y-99434398D01*
X138404037Y-99373356D01*
X138384351Y-99047907D01*
X138376993Y-98987309D01*
X138318222Y-98666606D01*
X138303613Y-98607337D01*
X138303611Y-98607332D01*
X138303609Y-98607322D01*
X138227170Y-98362023D01*
X138206614Y-98296056D01*
X138184968Y-98238980D01*
X138051155Y-97941660D01*
X138022787Y-97887609D01*
X137854112Y-97608587D01*
X137819436Y-97558351D01*
X137781785Y-97510294D01*
X137618365Y-97301701D01*
X137618364Y-97301700D01*
X137577889Y-97256014D01*
X137577855Y-97255978D01*
X137347357Y-97025480D01*
X137347321Y-97025446D01*
X137301635Y-96984971D01*
X137301634Y-96984970D01*
X137044990Y-96783904D01*
X137044985Y-96783900D01*
X136994749Y-96749224D01*
X136994748Y-96749223D01*
X136994739Y-96749218D01*
X136715736Y-96580554D01*
X136715730Y-96580551D01*
X136715727Y-96580549D01*
X136661676Y-96552181D01*
X136661674Y-96552180D01*
X136661670Y-96552178D01*
X136364345Y-96418363D01*
X136307272Y-96396719D01*
X135996013Y-96299726D01*
X135936743Y-96285116D01*
X135792204Y-96258628D01*
X135616027Y-96226343D01*
X135616019Y-96226342D01*
X135555429Y-96218984D01*
X135229988Y-96199299D01*
X135229980Y-96199299D01*
X135168938Y-96199299D01*
X135168929Y-96199299D01*
X134843488Y-96218984D01*
X134782898Y-96226342D01*
X134782895Y-96226342D01*
X134782891Y-96226343D01*
X134675990Y-96245933D01*
X134462174Y-96285116D01*
X134402904Y-96299726D01*
X134091645Y-96396719D01*
X134034572Y-96418363D01*
X133737247Y-96552178D01*
X133683181Y-96580554D01*
X133404178Y-96749218D01*
X133404169Y-96749223D01*
X133353927Y-96783904D01*
X133097283Y-96984970D01*
X133097282Y-96984971D01*
X133051596Y-97025446D01*
X133051560Y-97025480D01*
X132821062Y-97255978D01*
X132821028Y-97256014D01*
X132780553Y-97301700D01*
X132780552Y-97301701D01*
X132579486Y-97558345D01*
X132544805Y-97608587D01*
X132544800Y-97608596D01*
X132376136Y-97887599D01*
X132347760Y-97941665D01*
X132213945Y-98238990D01*
X132192301Y-98296063D01*
X132095308Y-98607322D01*
X132080698Y-98666592D01*
X132063538Y-98760232D01*
X132026167Y-98964164D01*
X132021924Y-98987316D01*
X132014566Y-99047906D01*
X131994881Y-99373347D01*
X129640500Y-99373347D01*
X129640500Y-88851608D01*
X129606392Y-88724314D01*
X129606390Y-88724310D01*
X129586922Y-88690590D01*
X129586921Y-88690589D01*
X129579587Y-88677887D01*
X129551642Y-88629484D01*
X139815483Y-88629484D01*
X139815483Y-100610516D01*
X139815705Y-100625498D01*
X139817882Y-100698801D01*
X139834882Y-100814622D01*
X139834882Y-100814626D01*
X139847757Y-100862675D01*
X139872830Y-100956253D01*
X139872831Y-100956254D01*
X139872834Y-100956264D01*
X139923330Y-101078171D01*
X139923332Y-101078175D01*
X139996642Y-101205151D01*
X139996645Y-101205155D01*
X139996649Y-101205161D01*
X140076975Y-101309842D01*
X140076983Y-101309851D01*
X140180641Y-101413509D01*
X140180649Y-101413516D01*
X140180650Y-101413517D01*
X140216820Y-101441271D01*
X140285330Y-101493842D01*
X140285333Y-101493844D01*
X140285341Y-101493850D01*
X140412317Y-101567160D01*
X140534237Y-101617661D01*
X140675860Y-101655608D01*
X140791686Y-101672609D01*
X140840558Y-101674060D01*
X140864993Y-101674786D01*
X140879976Y-101675009D01*
X140880000Y-101675009D01*
X145480024Y-101675009D01*
X145495006Y-101674786D01*
X145568296Y-101672610D01*
X145568302Y-101672609D01*
X145568314Y-101672609D01*
X145616965Y-101665467D01*
X145684133Y-101655609D01*
X145684137Y-101655607D01*
X145684143Y-101655607D01*
X145825766Y-101617659D01*
X145947680Y-101567161D01*
X146074656Y-101493852D01*
X146179352Y-101413516D01*
X146283027Y-101309840D01*
X146363357Y-101205151D01*
X146436667Y-101078176D01*
X146487169Y-100956254D01*
X146525116Y-100814630D01*
X146542117Y-100698805D01*
X146544294Y-100625496D01*
X146544517Y-100610491D01*
X146544517Y-100127177D01*
X148647079Y-100127177D01*
X148647079Y-100134750D01*
X148647079Y-100134752D01*
X148647081Y-100177271D01*
X148647082Y-100200645D01*
X148647082Y-100274338D01*
X148647102Y-100274654D01*
X148647103Y-100301238D01*
X148647104Y-100301250D01*
X148682047Y-100499380D01*
X148750859Y-100688432D01*
X148750867Y-100688449D01*
X148851457Y-100862671D01*
X148851464Y-100862682D01*
X148980784Y-101016800D01*
X148980788Y-101016803D01*
X149134911Y-101146131D01*
X149204606Y-101186371D01*
X149309143Y-101246729D01*
X149309146Y-101246730D01*
X149309149Y-101246732D01*
X149498209Y-101315550D01*
X149668276Y-101345544D01*
X149696340Y-101350494D01*
X149696344Y-101350495D01*
X149696346Y-101350495D01*
X149731063Y-101350496D01*
X149731076Y-101350500D01*
X149796943Y-101350500D01*
X149862835Y-101350503D01*
X149862839Y-101350501D01*
X149871074Y-101350502D01*
X149871119Y-101350500D01*
X161592316Y-101350500D01*
X161592320Y-101350501D01*
X161658212Y-101350500D01*
X161724099Y-101350500D01*
X161732299Y-101350500D01*
X161732582Y-101350481D01*
X161758810Y-101350481D01*
X161758812Y-101350481D01*
X161956954Y-101315541D01*
X162146019Y-101246727D01*
X162320263Y-101146127D01*
X162474391Y-101016799D01*
X162603720Y-100862673D01*
X162704321Y-100688430D01*
X162773138Y-100499366D01*
X162808080Y-100301224D01*
X162808080Y-100266510D01*
X162808082Y-100266506D01*
X162808082Y-100200417D01*
X162808084Y-100134733D01*
X162808083Y-100134732D01*
X162808084Y-100127147D01*
X162808082Y-100127115D01*
X162808082Y-99780069D01*
X166713946Y-99780069D01*
X166713946Y-100480069D01*
X166714066Y-100491083D01*
X166715759Y-100568763D01*
X166716597Y-100607226D01*
X166724156Y-100683985D01*
X166764489Y-100912724D01*
X166764493Y-100912742D01*
X166787293Y-100997837D01*
X166787296Y-100997847D01*
X166787297Y-100997848D01*
X166866741Y-101216117D01*
X166866744Y-101216124D01*
X166866745Y-101216126D01*
X166866748Y-101216134D01*
X166903974Y-101295964D01*
X166903982Y-101295980D01*
X167020114Y-101497128D01*
X167020178Y-101497219D01*
X167069150Y-101567160D01*
X167070661Y-101569317D01*
X167070663Y-101569320D01*
X167143068Y-101655608D01*
X167219963Y-101747247D01*
X167282268Y-101809552D01*
X167341084Y-101858905D01*
X167460194Y-101958851D01*
X167460198Y-101958853D01*
X167460202Y-101958857D01*
X167532383Y-102009398D01*
X167532386Y-102009400D01*
X167532385Y-102009400D01*
X167680058Y-102094658D01*
X167733541Y-102125536D01*
X167760160Y-102137948D01*
X167813380Y-102162766D01*
X167813384Y-102162767D01*
X167813398Y-102162774D01*
X168031667Y-102242218D01*
X168031673Y-102242219D01*
X168031677Y-102242221D01*
X168061682Y-102250260D01*
X168116781Y-102265024D01*
X168345529Y-102305358D01*
X168422293Y-102312918D01*
X168538432Y-102315449D01*
X168549446Y-102315569D01*
X168549484Y-102315569D01*
X174999399Y-102315569D01*
X174999446Y-102315569D01*
X175009815Y-102315463D01*
X175125967Y-102313080D01*
X175203375Y-102305507D01*
X175203385Y-102305505D01*
X175203387Y-102305505D01*
X175233537Y-102300188D01*
X175432149Y-102265169D01*
X175517262Y-102242363D01*
X175735556Y-102162911D01*
X175735561Y-102162909D01*
X175762175Y-102150498D01*
X175815415Y-102125672D01*
X176016595Y-102009521D01*
X176088775Y-101958980D01*
X176266730Y-101809658D01*
X176329036Y-101747353D01*
X176478358Y-101569399D01*
X176528899Y-101497219D01*
X176645051Y-101296038D01*
X176682289Y-101216181D01*
X176761742Y-100997888D01*
X176784548Y-100912774D01*
X176824887Y-100684000D01*
X176832461Y-100606572D01*
X176834840Y-100490420D01*
X176834946Y-100480069D01*
X176834946Y-99777379D01*
X176834840Y-99767010D01*
X176832457Y-99650859D01*
X176824883Y-99573449D01*
X176784544Y-99344675D01*
X176762472Y-99262300D01*
X176761741Y-99259571D01*
X176761739Y-99259567D01*
X176761738Y-99259561D01*
X176682285Y-99041268D01*
X176645047Y-98961411D01*
X176528896Y-98760232D01*
X176528888Y-98760221D01*
X176528884Y-98760214D01*
X176478354Y-98688050D01*
X176329046Y-98510113D01*
X176329041Y-98510107D01*
X176329033Y-98510098D01*
X176266727Y-98447792D01*
X176088779Y-98298476D01*
X176088778Y-98298474D01*
X176016590Y-98247929D01*
X176016578Y-98247921D01*
X175815425Y-98131786D01*
X175815416Y-98131782D01*
X175815413Y-98131780D01*
X175735555Y-98094541D01*
X175517262Y-98015089D01*
X175517261Y-98015088D01*
X175517251Y-98015085D01*
X175432156Y-97992285D01*
X175432153Y-97992284D01*
X175432148Y-97992283D01*
X175422325Y-97990551D01*
X175203387Y-97951946D01*
X175125976Y-97944372D01*
X175009847Y-97941986D01*
X175006219Y-97941949D01*
X174999235Y-97941879D01*
X174999207Y-97941879D01*
X174999206Y-97941879D01*
X168549205Y-97944568D01*
X168538504Y-97944687D01*
X168422287Y-97947220D01*
X168345529Y-97954779D01*
X168116790Y-97995112D01*
X168116772Y-97995116D01*
X168031677Y-98017916D01*
X167922532Y-98057642D01*
X167813398Y-98097364D01*
X167813394Y-98097365D01*
X167813388Y-98097368D01*
X167813380Y-98097371D01*
X167733550Y-98134597D01*
X167733534Y-98134605D01*
X167532386Y-98250737D01*
X167460197Y-98301284D01*
X167460194Y-98301286D01*
X167282265Y-98450588D01*
X167219965Y-98512888D01*
X167070663Y-98690817D01*
X167070661Y-98690820D01*
X167020114Y-98763009D01*
X166903982Y-98964157D01*
X166903974Y-98964173D01*
X166866748Y-99044003D01*
X166866745Y-99044011D01*
X166787293Y-99262300D01*
X166764493Y-99347395D01*
X166764489Y-99347413D01*
X166724156Y-99576152D01*
X166716799Y-99650860D01*
X166716597Y-99652916D01*
X166714066Y-99769055D01*
X166713946Y-99780069D01*
X162808082Y-99780069D01*
X162808082Y-95973521D01*
X162808082Y-95965256D01*
X162808085Y-95965248D01*
X162808084Y-95950719D01*
X162808101Y-95950659D01*
X162808099Y-95899356D01*
X162808100Y-95899356D01*
X162808096Y-95798755D01*
X162801663Y-95762277D01*
X162773152Y-95600614D01*
X162773151Y-95600610D01*
X162704329Y-95411544D01*
X162603723Y-95237301D01*
X162474389Y-95083174D01*
X162460585Y-95071591D01*
X162320256Y-94953846D01*
X162320253Y-94953844D01*
X162146013Y-94853251D01*
X162146003Y-94853246D01*
X161956942Y-94784436D01*
X161758798Y-94749500D01*
X161758794Y-94749500D01*
X161724088Y-94749500D01*
X149830814Y-94749500D01*
X149822826Y-94749498D01*
X149822814Y-94749495D01*
X149811976Y-94749495D01*
X149808268Y-94749495D01*
X149808213Y-94749479D01*
X149659827Y-94749487D01*
X149659825Y-94749487D01*
X149506910Y-94776460D01*
X149468576Y-94783222D01*
X149468575Y-94783222D01*
X149468571Y-94783223D01*
X149286092Y-94849650D01*
X149286086Y-94849653D01*
X149117915Y-94946755D01*
X148969151Y-95071591D01*
X148844329Y-95220354D01*
X148747230Y-95388535D01*
X148680807Y-95571028D01*
X148680806Y-95571033D01*
X148647083Y-95762274D01*
X148647082Y-95762277D01*
X148647082Y-95859378D01*
X148647080Y-95933890D01*
X148647082Y-95933919D01*
X148647082Y-100127127D01*
X148647079Y-100127177D01*
X146544517Y-100127177D01*
X146544517Y-91667177D01*
X148637074Y-91667177D01*
X148637077Y-91740645D01*
X148637077Y-91814299D01*
X148637102Y-91814693D01*
X148637103Y-91841237D01*
X148637103Y-91841238D01*
X148672047Y-92039384D01*
X148740862Y-92228437D01*
X148841461Y-92402678D01*
X148970778Y-92556793D01*
X148970782Y-92556796D01*
X148970785Y-92556800D01*
X149124907Y-92686128D01*
X149299143Y-92786729D01*
X149488201Y-92855548D01*
X149686337Y-92890494D01*
X149721056Y-92890496D01*
X149721071Y-92890500D01*
X149786934Y-92890500D01*
X149852827Y-92890504D01*
X149852831Y-92890502D01*
X149860879Y-92890503D01*
X149860942Y-92890500D01*
X161722179Y-92890500D01*
X161722539Y-92890476D01*
X161748799Y-92890476D01*
X161748803Y-92890476D01*
X161946946Y-92855539D01*
X162136011Y-92786725D01*
X162310255Y-92686126D01*
X162464384Y-92556799D01*
X162593714Y-92402673D01*
X162694316Y-92228431D01*
X162694316Y-92228428D01*
X162694319Y-92228425D01*
X162763126Y-92039384D01*
X162763133Y-92039366D01*
X162798075Y-91841224D01*
X162798075Y-91806510D01*
X162798077Y-91806506D01*
X162798077Y-91740603D01*
X162798079Y-91674733D01*
X162798078Y-91674732D01*
X162798079Y-91667147D01*
X162798077Y-91667115D01*
X162798077Y-87513521D01*
X162798077Y-87505256D01*
X162798080Y-87505248D01*
X162798079Y-87490724D01*
X162798101Y-87490647D01*
X162798099Y-87439356D01*
X162798100Y-87439356D01*
X162798096Y-87338754D01*
X162763150Y-87140609D01*
X162694328Y-86951542D01*
X162593722Y-86777298D01*
X162551623Y-86727130D01*
X162464387Y-86623171D01*
X162369027Y-86543159D01*
X162310253Y-86493844D01*
X162136003Y-86393246D01*
X162136001Y-86393245D01*
X162135999Y-86393244D01*
X161946930Y-86324433D01*
X161748786Y-86289499D01*
X161648184Y-86289500D01*
X149820804Y-86289500D01*
X149812817Y-86289498D01*
X149812805Y-86289495D01*
X149801969Y-86289495D01*
X149798263Y-86289495D01*
X149798188Y-86289473D01*
X149649818Y-86289483D01*
X149649817Y-86289483D01*
X149530221Y-86310579D01*
X149458567Y-86323219D01*
X149458565Y-86323219D01*
X149458563Y-86323220D01*
X149276083Y-86389648D01*
X149107907Y-86486755D01*
X149107905Y-86486756D01*
X148959149Y-86611587D01*
X148959145Y-86611590D01*
X148834320Y-86760357D01*
X148737224Y-86928538D01*
X148670802Y-87111030D01*
X148637078Y-87302274D01*
X148637077Y-87302277D01*
X148637077Y-87399378D01*
X148637075Y-87473890D01*
X148637077Y-87473919D01*
X148637077Y-91667127D01*
X148637074Y-91667177D01*
X146544517Y-91667177D01*
X146544517Y-88629509D01*
X146544291Y-88614401D01*
X146542099Y-88541092D01*
X146525104Y-88425381D01*
X146487161Y-88283759D01*
X146436663Y-88161837D01*
X146363357Y-88034861D01*
X146363354Y-88034858D01*
X146363353Y-88034855D01*
X146283028Y-87930169D01*
X146283018Y-87930158D01*
X146179354Y-87826492D01*
X146179345Y-87826484D01*
X146074661Y-87746156D01*
X146074655Y-87746152D01*
X146025396Y-87717711D01*
X145947685Y-87672844D01*
X145825765Y-87622342D01*
X145825763Y-87622341D01*
X145825762Y-87622341D01*
X145684134Y-87584391D01*
X145684135Y-87584391D01*
X145568325Y-87567393D01*
X145568296Y-87567390D01*
X145495006Y-87565214D01*
X145480024Y-87564992D01*
X145480000Y-87564992D01*
X140880000Y-87564992D01*
X140879976Y-87564992D01*
X140864993Y-87565214D01*
X140791690Y-87567391D01*
X140675869Y-87584391D01*
X140675865Y-87584391D01*
X140534237Y-87622340D01*
X140534227Y-87622343D01*
X140412320Y-87672839D01*
X140412316Y-87672841D01*
X140285341Y-87746151D01*
X140285330Y-87746158D01*
X140180649Y-87826484D01*
X140076975Y-87930158D01*
X139996649Y-88034839D01*
X139996642Y-88034850D01*
X139923332Y-88161825D01*
X139923330Y-88161829D01*
X139872834Y-88283736D01*
X139872831Y-88283746D01*
X139834882Y-88425374D01*
X139834882Y-88425378D01*
X139817882Y-88541199D01*
X139815705Y-88614502D01*
X139815483Y-88629484D01*
X129551642Y-88629484D01*
X129540500Y-88610186D01*
X129447314Y-88517000D01*
X129390250Y-88484054D01*
X129333187Y-88451108D01*
X129269539Y-88434054D01*
X129205892Y-88417000D01*
X113205892Y-88417000D01*
X113074108Y-88417000D01*
X112946812Y-88451108D01*
X112832686Y-88517000D01*
X112832683Y-88517002D01*
X112739502Y-88610183D01*
X112739500Y-88610186D01*
X112673608Y-88724312D01*
X112639500Y-88851608D01*
X112639500Y-91216145D01*
X112619815Y-91283184D01*
X112567011Y-91328939D01*
X112497853Y-91338883D01*
X112434297Y-91309858D01*
X112408113Y-91278146D01*
X112402161Y-91267837D01*
X112345782Y-91170186D01*
X112252596Y-91077000D01*
X112195532Y-91044054D01*
X112138469Y-91011108D01*
X112074821Y-90994054D01*
X112011174Y-90977000D01*
X102311174Y-90977000D01*
X102179390Y-90977000D01*
X102052094Y-91011108D01*
X101937968Y-91077000D01*
X101937965Y-91077002D01*
X101844784Y-91170183D01*
X101844782Y-91170186D01*
X101778890Y-91284312D01*
X101766933Y-91328939D01*
X101744782Y-91411608D01*
X78110500Y-91411608D01*
X78110500Y-78531233D01*
X101466000Y-78531233D01*
X101466000Y-78832786D01*
X101466001Y-78832803D01*
X101505361Y-79131776D01*
X101583413Y-79423070D01*
X101698814Y-79701671D01*
X101698818Y-79701681D01*
X101849599Y-79962841D01*
X102033179Y-80202088D01*
X102033185Y-80202095D01*
X102246414Y-80415324D01*
X102246421Y-80415330D01*
X102485668Y-80598910D01*
X102746828Y-80749691D01*
X102746829Y-80749691D01*
X102746832Y-80749693D01*
X102932572Y-80826629D01*
X103025439Y-80865096D01*
X103025440Y-80865096D01*
X103025442Y-80865097D01*
X103316732Y-80943148D01*
X103615717Y-80982510D01*
X103615724Y-80982510D01*
X103917276Y-80982510D01*
X103917283Y-80982510D01*
X104216268Y-80943148D01*
X104507558Y-80865097D01*
X104786168Y-80749693D01*
X105047332Y-80598910D01*
X105286580Y-80415329D01*
X105499819Y-80202090D01*
X105683400Y-79962842D01*
X105834183Y-79701678D01*
X105847239Y-79670158D01*
X105889595Y-79567902D01*
X105933436Y-79513498D01*
X105999730Y-79491433D01*
X106067429Y-79508712D01*
X106115040Y-79559849D01*
X106126237Y-79593622D01*
X106559901Y-82029716D01*
X106560409Y-82032796D01*
X106566528Y-82073011D01*
X106570639Y-82100036D01*
X106571669Y-82106802D01*
X106573080Y-82125454D01*
X106573080Y-82142363D01*
X106573717Y-82147205D01*
X106574463Y-82150831D01*
X106575458Y-82157688D01*
X106575489Y-82158613D01*
X106575688Y-82159272D01*
X106576532Y-82165079D01*
X106576474Y-82165485D01*
X106576538Y-82166063D01*
X106577271Y-82169891D01*
X106581349Y-82182192D01*
X106586235Y-82202551D01*
X106588184Y-82215360D01*
X106588184Y-82215361D01*
X106595900Y-82232981D01*
X106600026Y-82243736D01*
X106601160Y-82247162D01*
X106607188Y-82269656D01*
X106610523Y-82275434D01*
X106614508Y-82287465D01*
X106614538Y-82288342D01*
X106615462Y-82290475D01*
X106712635Y-82611020D01*
X106714724Y-82618818D01*
X106724328Y-82659979D01*
X106726088Y-82664653D01*
X106726562Y-82665667D01*
X106729394Y-82672683D01*
X106729618Y-82673516D01*
X106729993Y-82674167D01*
X106730244Y-82674786D01*
X106730378Y-82675286D01*
X106730603Y-82675676D01*
X106733031Y-82681689D01*
X106733073Y-82681791D01*
X106736149Y-82688584D01*
X106736151Y-82688589D01*
X106736153Y-82688593D01*
X106736154Y-82688594D01*
X106758862Y-82725128D01*
X106762899Y-82732120D01*
X106954684Y-83090817D01*
X106955238Y-83091866D01*
X106960007Y-83100995D01*
X106960534Y-83103143D01*
X106962115Y-83106023D01*
X106963558Y-83111406D01*
X106983409Y-83145789D01*
X106984625Y-83148116D01*
X106984728Y-83148638D01*
X106987664Y-83154354D01*
X107002254Y-83186558D01*
X107004908Y-83189792D01*
X107015292Y-83204511D01*
X107016914Y-83207206D01*
X107019646Y-83212316D01*
X107020605Y-83213340D01*
X107023084Y-83217459D01*
X107026202Y-83221709D01*
X107029154Y-83225148D01*
X107029450Y-83225534D01*
X107051823Y-83247907D01*
X107059999Y-83256928D01*
X107262034Y-83503133D01*
X107316057Y-83568966D01*
X107318223Y-83571682D01*
X107325519Y-83581100D01*
X107329108Y-83588206D01*
X107343506Y-83604315D01*
X107346168Y-83607751D01*
X107346597Y-83608846D01*
X107351619Y-83615365D01*
X107351635Y-83615388D01*
X107363285Y-83633032D01*
X107363833Y-83633664D01*
X107367164Y-83636815D01*
X107374118Y-83643833D01*
X107377748Y-83648898D01*
X107385178Y-83654995D01*
X107389668Y-83659526D01*
X107390658Y-83661359D01*
X107397438Y-83668139D01*
X107399542Y-83670703D01*
X107399544Y-83670705D01*
X107405474Y-83676259D01*
X107405413Y-83676323D01*
X107411541Y-83681825D01*
X107416929Y-83686461D01*
X107416931Y-83686462D01*
X107434604Y-83698031D01*
X107442736Y-83703835D01*
X107445924Y-83706310D01*
X107461884Y-83720463D01*
X107468244Y-83723643D01*
X107477906Y-83731145D01*
X107478436Y-83731879D01*
X107480513Y-83733226D01*
X107789610Y-83986872D01*
X107797749Y-83994176D01*
X107797759Y-83994185D01*
X107814370Y-84010472D01*
X107815144Y-84011238D01*
X107822906Y-84019000D01*
X107822908Y-84019001D01*
X107824285Y-84020378D01*
X107825091Y-84020984D01*
X107825093Y-84020986D01*
X107825095Y-84020987D01*
X107828490Y-84023540D01*
X107831129Y-84025223D01*
X107836127Y-84028805D01*
X107836131Y-84028809D01*
X107836135Y-84028811D01*
X107838523Y-84030088D01*
X107858722Y-84043584D01*
X107861892Y-84046186D01*
X107893988Y-84060726D01*
X107900223Y-84063765D01*
X107902527Y-84064969D01*
X107937034Y-84084892D01*
X107939526Y-84085559D01*
X107939865Y-84085751D01*
X107944662Y-84086985D01*
X107956595Y-84093221D01*
X107956838Y-84093455D01*
X107957634Y-84093770D01*
X108316347Y-84285554D01*
X108323356Y-84289601D01*
X108359807Y-84312265D01*
X108366820Y-84315441D01*
X108367184Y-84315592D01*
X108367407Y-84315702D01*
X108367408Y-84315702D01*
X108374932Y-84318821D01*
X108374934Y-84318822D01*
X108374935Y-84318822D01*
X108380852Y-84321275D01*
X108380862Y-84321250D01*
X108388466Y-84324113D01*
X108388468Y-84324114D01*
X108429638Y-84333717D01*
X108437444Y-84335809D01*
X108827293Y-84454040D01*
X108833931Y-84456260D01*
X108844007Y-84459949D01*
X108848134Y-84462332D01*
X108857009Y-84464709D01*
X108862202Y-84466611D01*
X108864133Y-84468038D01*
X108875463Y-84472364D01*
X108876570Y-84472923D01*
X108893972Y-84476555D01*
X108912269Y-84481870D01*
X108923844Y-84486221D01*
X108928913Y-84488127D01*
X108932658Y-84488494D01*
X108945483Y-84490433D01*
X108951073Y-84491580D01*
X108959120Y-84494021D01*
X108963692Y-84494169D01*
X108973536Y-84496190D01*
X108975426Y-84496439D01*
X108975428Y-84496440D01*
X108976416Y-84496440D01*
X109001748Y-84499055D01*
X109005574Y-84499854D01*
X109023327Y-84498858D01*
X109042368Y-84499254D01*
X109414841Y-84535791D01*
X109421547Y-84536634D01*
X109432438Y-84538306D01*
X109436959Y-84539853D01*
X109446917Y-84540529D01*
X109452092Y-84541324D01*
X109454018Y-84542226D01*
X109465361Y-84544112D01*
X109469458Y-84545210D01*
X109469461Y-84545210D01*
X109470152Y-84545395D01*
X109471176Y-84545529D01*
X109471178Y-84545528D01*
X109471182Y-84545530D01*
X109507621Y-84545496D01*
X109514932Y-84545706D01*
X109517368Y-84545848D01*
X109552068Y-84549252D01*
X109558237Y-84548230D01*
X109568109Y-84548806D01*
X109568433Y-84548785D01*
X109568434Y-84548784D01*
X109568440Y-84548785D01*
X109573756Y-84547740D01*
X109597543Y-84545415D01*
X122871682Y-84533379D01*
X122893202Y-84535242D01*
X122901312Y-84536663D01*
X122902933Y-84537242D01*
X122906048Y-84537494D01*
X122911711Y-84538487D01*
X122911995Y-84538627D01*
X122913849Y-84538881D01*
X122917726Y-84539631D01*
X122917673Y-84539899D01*
X122932776Y-84542501D01*
X122933849Y-84542812D01*
X122933852Y-84542812D01*
X122941889Y-84544031D01*
X122941838Y-84544364D01*
X122944863Y-84544763D01*
X122944894Y-84544493D01*
X122952965Y-84545394D01*
X122952972Y-84545396D01*
X122961916Y-84545220D01*
X122984553Y-84546853D01*
X122992990Y-84548247D01*
X123002591Y-84547301D01*
X123010842Y-84546767D01*
X123017784Y-84546550D01*
X123034286Y-84547888D01*
X123046500Y-84545653D01*
X123055791Y-84545363D01*
X123057181Y-84545724D01*
X123062099Y-84545327D01*
X123065608Y-84545396D01*
X123065617Y-84545393D01*
X123073682Y-84544493D01*
X123073712Y-84544763D01*
X123076743Y-84544364D01*
X123076693Y-84544031D01*
X123084724Y-84542813D01*
X123084727Y-84542812D01*
X123084732Y-84542812D01*
X123092641Y-84540525D01*
X123114916Y-84536245D01*
X123489437Y-84499383D01*
X123496137Y-84498908D01*
X123502552Y-84498627D01*
X123525386Y-84499999D01*
X123540105Y-84496986D01*
X123549923Y-84496558D01*
X123551158Y-84496862D01*
X123555336Y-84496440D01*
X123557530Y-84496440D01*
X123557532Y-84496440D01*
X123557533Y-84496439D01*
X123565592Y-84495378D01*
X123565664Y-84495930D01*
X123565906Y-84495895D01*
X123565816Y-84495345D01*
X123573836Y-84494021D01*
X123573840Y-84494021D01*
X123574300Y-84493881D01*
X123576515Y-84493210D01*
X123600368Y-84488465D01*
X123604200Y-84488089D01*
X123619583Y-84482299D01*
X123626947Y-84479789D01*
X123632597Y-84478058D01*
X123654495Y-84473579D01*
X123665966Y-84467842D01*
X123675861Y-84464813D01*
X123676923Y-84464800D01*
X123680075Y-84463604D01*
X123684826Y-84462332D01*
X123684830Y-84462329D01*
X123684832Y-84462329D01*
X123692336Y-84459221D01*
X123692546Y-84459730D01*
X123705671Y-84454038D01*
X124094769Y-84336035D01*
X124098319Y-84335017D01*
X124100423Y-84334446D01*
X124144859Y-84324070D01*
X124151146Y-84320706D01*
X124158441Y-84318730D01*
X124160052Y-84318062D01*
X124160056Y-84318062D01*
X124160058Y-84318060D01*
X124165776Y-84315694D01*
X124165743Y-84315621D01*
X124173148Y-84312265D01*
X124173152Y-84312265D01*
X124193401Y-84299674D01*
X124208108Y-84290531D01*
X124215090Y-84286498D01*
X124216855Y-84285554D01*
X124573667Y-84094671D01*
X124574369Y-84094300D01*
X124586961Y-84087684D01*
X124592863Y-84086145D01*
X124628901Y-84065650D01*
X124630713Y-84064699D01*
X124631152Y-84064610D01*
X124637206Y-84061526D01*
X124671068Y-84046186D01*
X124674321Y-84043516D01*
X124686582Y-84034649D01*
X124690439Y-84032203D01*
X124696921Y-84028736D01*
X124699038Y-84026750D01*
X124706429Y-84022065D01*
X124707857Y-84020991D01*
X124707867Y-84020986D01*
X124735208Y-83994176D01*
X124743347Y-83986872D01*
X125052474Y-83733204D01*
X125055054Y-83731145D01*
X125064712Y-83723644D01*
X125071076Y-83720463D01*
X125087037Y-83706307D01*
X125090225Y-83703833D01*
X125091333Y-83703397D01*
X125098366Y-83698022D01*
X125116028Y-83686462D01*
X125116033Y-83686455D01*
X125116381Y-83686157D01*
X125120810Y-83681522D01*
X125127606Y-83674866D01*
X125133418Y-83670702D01*
X125139796Y-83662929D01*
X125144608Y-83658217D01*
X125146398Y-83657263D01*
X125152710Y-83650951D01*
X125155213Y-83648898D01*
X125155215Y-83648894D01*
X125160769Y-83642966D01*
X125160953Y-83643139D01*
X125164447Y-83639263D01*
X125164346Y-83639175D01*
X125169672Y-83633032D01*
X125169677Y-83633028D01*
X125181336Y-83615367D01*
X125186783Y-83607760D01*
X125189446Y-83604322D01*
X125203852Y-83588207D01*
X125207443Y-83581093D01*
X125214740Y-83571676D01*
X125215489Y-83571133D01*
X125216901Y-83568966D01*
X125472962Y-83256924D01*
X125481132Y-83247911D01*
X125503450Y-83225594D01*
X125503450Y-83225593D01*
X125503510Y-83225534D01*
X125503565Y-83225438D01*
X125507175Y-83220557D01*
X125508996Y-83218658D01*
X125510191Y-83216480D01*
X125513120Y-83212520D01*
X125513319Y-83212309D01*
X125514560Y-83209987D01*
X125528064Y-83189776D01*
X125530706Y-83186558D01*
X125545317Y-83154304D01*
X125548338Y-83148107D01*
X125549535Y-83145814D01*
X125569402Y-83111406D01*
X125570844Y-83106023D01*
X125572426Y-83103143D01*
X125572953Y-83100987D01*
X125577724Y-83091856D01*
X125577960Y-83091610D01*
X125578276Y-83090811D01*
X125769977Y-82732253D01*
X125774003Y-82725281D01*
X125796786Y-82688640D01*
X125796787Y-82688635D01*
X125796789Y-82688633D01*
X125799437Y-82682787D01*
X125799964Y-82681560D01*
X125799973Y-82681548D01*
X125800272Y-82680828D01*
X125800568Y-82680122D01*
X125805054Y-82669482D01*
X125805137Y-82669099D01*
X125805730Y-82667672D01*
X125806240Y-82667884D01*
X125806283Y-82667776D01*
X125805760Y-82667580D01*
X125808623Y-82659975D01*
X125813196Y-82640375D01*
X125818184Y-82618986D01*
X125820279Y-82611172D01*
X125820325Y-82611020D01*
X125938612Y-82220977D01*
X125938887Y-82220087D01*
X125942983Y-82207003D01*
X125946852Y-82200306D01*
X125957346Y-82161137D01*
X125958114Y-82158686D01*
X125958405Y-82158249D01*
X125960362Y-82152151D01*
X125972672Y-82119378D01*
X125972672Y-82119372D01*
X125973290Y-82116717D01*
X125974297Y-82110108D01*
X125975751Y-82103108D01*
X125976770Y-82100036D01*
X125976918Y-82097492D01*
X125978249Y-82091088D01*
X125978540Y-82089322D01*
X125978542Y-82089318D01*
X125978542Y-82089312D01*
X125979868Y-82081285D01*
X125980418Y-82081375D01*
X125980452Y-82081148D01*
X125979898Y-82081076D01*
X125980960Y-82073011D01*
X125980960Y-82040665D01*
X125981548Y-82028605D01*
X125982110Y-82022854D01*
X125983385Y-82013498D01*
X125993408Y-81956336D01*
X126407355Y-79595620D01*
X126438322Y-79532990D01*
X126498235Y-79497043D01*
X126568071Y-79499193D01*
X126625659Y-79538759D01*
X126644052Y-79569586D01*
X126698763Y-79701671D01*
X126698768Y-79701681D01*
X126849549Y-79962841D01*
X127033129Y-80202088D01*
X127033135Y-80202095D01*
X127246364Y-80415324D01*
X127246371Y-80415330D01*
X127485618Y-80598910D01*
X127746778Y-80749691D01*
X127746779Y-80749691D01*
X127746782Y-80749693D01*
X127932522Y-80826629D01*
X128025389Y-80865096D01*
X128025390Y-80865096D01*
X128025392Y-80865097D01*
X128316682Y-80943148D01*
X128615667Y-80982510D01*
X128615674Y-80982510D01*
X128917226Y-80982510D01*
X128917233Y-80982510D01*
X129216218Y-80943148D01*
X129507508Y-80865097D01*
X129786118Y-80749693D01*
X130047282Y-80598910D01*
X130286530Y-80415329D01*
X130499769Y-80202090D01*
X130683350Y-79962842D01*
X130834133Y-79701678D01*
X130949537Y-79423068D01*
X131027588Y-79131778D01*
X131066950Y-78832793D01*
X131066950Y-78531233D01*
X132694000Y-78531233D01*
X132694000Y-78832786D01*
X132694001Y-78832803D01*
X132733361Y-79131776D01*
X132811413Y-79423070D01*
X132926814Y-79701671D01*
X132926818Y-79701681D01*
X133077599Y-79962841D01*
X133261179Y-80202088D01*
X133261185Y-80202095D01*
X133474414Y-80415324D01*
X133474421Y-80415330D01*
X133713668Y-80598910D01*
X133974828Y-80749691D01*
X133974829Y-80749691D01*
X133974832Y-80749693D01*
X134160572Y-80826629D01*
X134253439Y-80865096D01*
X134253440Y-80865096D01*
X134253442Y-80865097D01*
X134544732Y-80943148D01*
X134843717Y-80982510D01*
X134843724Y-80982510D01*
X135145276Y-80982510D01*
X135145283Y-80982510D01*
X135444268Y-80943148D01*
X135735558Y-80865097D01*
X136014168Y-80749693D01*
X136275332Y-80598910D01*
X136514580Y-80415329D01*
X136727819Y-80202090D01*
X136911400Y-79962842D01*
X137062183Y-79701678D01*
X137075239Y-79670158D01*
X137117595Y-79567902D01*
X137161436Y-79513498D01*
X137227730Y-79491433D01*
X137295429Y-79508712D01*
X137343040Y-79559849D01*
X137354237Y-79593622D01*
X137787901Y-82029716D01*
X137788409Y-82032796D01*
X137794528Y-82073011D01*
X137798639Y-82100036D01*
X137799669Y-82106802D01*
X137801080Y-82125454D01*
X137801080Y-82142363D01*
X137801717Y-82147205D01*
X137802463Y-82150831D01*
X137803458Y-82157688D01*
X137803489Y-82158613D01*
X137803688Y-82159272D01*
X137804532Y-82165079D01*
X137804474Y-82165485D01*
X137804538Y-82166063D01*
X137805271Y-82169891D01*
X137809349Y-82182192D01*
X137814235Y-82202551D01*
X137816184Y-82215360D01*
X137816184Y-82215361D01*
X137823900Y-82232981D01*
X137828026Y-82243736D01*
X137829160Y-82247162D01*
X137835188Y-82269656D01*
X137838523Y-82275434D01*
X137842508Y-82287465D01*
X137842538Y-82288342D01*
X137843462Y-82290475D01*
X137940635Y-82611020D01*
X137942724Y-82618818D01*
X137952328Y-82659979D01*
X137954088Y-82664653D01*
X137954562Y-82665667D01*
X137957394Y-82672683D01*
X137957618Y-82673516D01*
X137957993Y-82674167D01*
X137958244Y-82674786D01*
X137958378Y-82675286D01*
X137958603Y-82675676D01*
X137961031Y-82681689D01*
X137961073Y-82681791D01*
X137964149Y-82688584D01*
X137964151Y-82688589D01*
X137964153Y-82688593D01*
X137964154Y-82688594D01*
X137986862Y-82725128D01*
X137990899Y-82732120D01*
X138182684Y-83090817D01*
X138183238Y-83091866D01*
X138188007Y-83100995D01*
X138188534Y-83103143D01*
X138190115Y-83106023D01*
X138191558Y-83111406D01*
X138211409Y-83145789D01*
X138212625Y-83148116D01*
X138212728Y-83148638D01*
X138215664Y-83154354D01*
X138230254Y-83186558D01*
X138232908Y-83189792D01*
X138243292Y-83204511D01*
X138244914Y-83207206D01*
X138247646Y-83212316D01*
X138248605Y-83213340D01*
X138251084Y-83217459D01*
X138254202Y-83221709D01*
X138257154Y-83225148D01*
X138257450Y-83225534D01*
X138279823Y-83247907D01*
X138287999Y-83256928D01*
X138490034Y-83503133D01*
X138544057Y-83568966D01*
X138546223Y-83571682D01*
X138553519Y-83581100D01*
X138557108Y-83588206D01*
X138571506Y-83604315D01*
X138574168Y-83607751D01*
X138574597Y-83608846D01*
X138579619Y-83615365D01*
X138579635Y-83615388D01*
X138591285Y-83633032D01*
X138591833Y-83633664D01*
X138595164Y-83636815D01*
X138602118Y-83643833D01*
X138605748Y-83648898D01*
X138613178Y-83654995D01*
X138617668Y-83659526D01*
X138618658Y-83661359D01*
X138625438Y-83668139D01*
X138627542Y-83670703D01*
X138627544Y-83670705D01*
X138633474Y-83676259D01*
X138633413Y-83676323D01*
X138639541Y-83681825D01*
X138644929Y-83686461D01*
X138644931Y-83686462D01*
X138662604Y-83698031D01*
X138670736Y-83703835D01*
X138673924Y-83706310D01*
X138689884Y-83720463D01*
X138696244Y-83723643D01*
X138705906Y-83731145D01*
X138706436Y-83731879D01*
X138708513Y-83733226D01*
X139017610Y-83986872D01*
X139025749Y-83994176D01*
X139025759Y-83994185D01*
X139042370Y-84010472D01*
X139043144Y-84011238D01*
X139050906Y-84019000D01*
X139050908Y-84019001D01*
X139052285Y-84020378D01*
X139053091Y-84020984D01*
X139053093Y-84020986D01*
X139053095Y-84020987D01*
X139056490Y-84023540D01*
X139059129Y-84025223D01*
X139064127Y-84028805D01*
X139064131Y-84028809D01*
X139064135Y-84028811D01*
X139066523Y-84030088D01*
X139086722Y-84043584D01*
X139089892Y-84046186D01*
X139121988Y-84060726D01*
X139128223Y-84063765D01*
X139130527Y-84064969D01*
X139165034Y-84084892D01*
X139167526Y-84085559D01*
X139167865Y-84085751D01*
X139172662Y-84086985D01*
X139184595Y-84093221D01*
X139184838Y-84093455D01*
X139185634Y-84093770D01*
X139544347Y-84285554D01*
X139551356Y-84289601D01*
X139587807Y-84312265D01*
X139594820Y-84315441D01*
X139595184Y-84315592D01*
X139595407Y-84315702D01*
X139595408Y-84315702D01*
X139602932Y-84318821D01*
X139602934Y-84318822D01*
X139602935Y-84318822D01*
X139608852Y-84321275D01*
X139608862Y-84321250D01*
X139616466Y-84324113D01*
X139616468Y-84324114D01*
X139657638Y-84333717D01*
X139665444Y-84335809D01*
X140055293Y-84454040D01*
X140061931Y-84456260D01*
X140072007Y-84459949D01*
X140076134Y-84462332D01*
X140085009Y-84464709D01*
X140090202Y-84466611D01*
X140092133Y-84468038D01*
X140103463Y-84472364D01*
X140104570Y-84472923D01*
X140121972Y-84476555D01*
X140140269Y-84481870D01*
X140151844Y-84486221D01*
X140156913Y-84488127D01*
X140160658Y-84488494D01*
X140173483Y-84490433D01*
X140179073Y-84491580D01*
X140187120Y-84494021D01*
X140191692Y-84494169D01*
X140201536Y-84496190D01*
X140203426Y-84496439D01*
X140203428Y-84496440D01*
X140204416Y-84496440D01*
X140229748Y-84499055D01*
X140233574Y-84499854D01*
X140251327Y-84498858D01*
X140270368Y-84499254D01*
X140642841Y-84535791D01*
X140649547Y-84536634D01*
X140660438Y-84538306D01*
X140664959Y-84539853D01*
X140674917Y-84540529D01*
X140680092Y-84541324D01*
X140682018Y-84542226D01*
X140693361Y-84544112D01*
X140697458Y-84545210D01*
X140697461Y-84545210D01*
X140698152Y-84545395D01*
X140699176Y-84545529D01*
X140699178Y-84545528D01*
X140699182Y-84545530D01*
X140735621Y-84545496D01*
X140742932Y-84545706D01*
X140745368Y-84545848D01*
X140780068Y-84549252D01*
X140786237Y-84548230D01*
X140796109Y-84548806D01*
X140796433Y-84548785D01*
X140796434Y-84548784D01*
X140796440Y-84548785D01*
X140801756Y-84547740D01*
X140825543Y-84545415D01*
X154099682Y-84533379D01*
X154121202Y-84535242D01*
X154129312Y-84536663D01*
X154130933Y-84537242D01*
X154134048Y-84537494D01*
X154139711Y-84538487D01*
X154139995Y-84538627D01*
X154141849Y-84538881D01*
X154145726Y-84539631D01*
X154145673Y-84539899D01*
X154160776Y-84542501D01*
X154161849Y-84542812D01*
X154161852Y-84542812D01*
X154169889Y-84544031D01*
X154169838Y-84544364D01*
X154172863Y-84544763D01*
X154172894Y-84544493D01*
X154180965Y-84545394D01*
X154180972Y-84545396D01*
X154189916Y-84545220D01*
X154212553Y-84546853D01*
X154220990Y-84548247D01*
X154230591Y-84547301D01*
X154238842Y-84546767D01*
X154245784Y-84546550D01*
X154262286Y-84547888D01*
X154274500Y-84545653D01*
X154283791Y-84545363D01*
X154285181Y-84545724D01*
X154290099Y-84545327D01*
X154293608Y-84545396D01*
X154293617Y-84545393D01*
X154301682Y-84544493D01*
X154301712Y-84544763D01*
X154304743Y-84544364D01*
X154304693Y-84544031D01*
X154312724Y-84542813D01*
X154312727Y-84542812D01*
X154312732Y-84542812D01*
X154320641Y-84540525D01*
X154342916Y-84536245D01*
X154717437Y-84499383D01*
X154724137Y-84498908D01*
X154730552Y-84498627D01*
X154753386Y-84499999D01*
X154768105Y-84496986D01*
X154777923Y-84496558D01*
X154779158Y-84496862D01*
X154783336Y-84496440D01*
X154785530Y-84496440D01*
X154785532Y-84496440D01*
X154785533Y-84496439D01*
X154793592Y-84495378D01*
X154793664Y-84495930D01*
X154793906Y-84495895D01*
X154793816Y-84495345D01*
X154801836Y-84494021D01*
X154801840Y-84494021D01*
X154802300Y-84493881D01*
X154804515Y-84493210D01*
X154828368Y-84488465D01*
X154832200Y-84488089D01*
X154847583Y-84482299D01*
X154854947Y-84479789D01*
X154860597Y-84478058D01*
X154882495Y-84473579D01*
X154893966Y-84467842D01*
X154903861Y-84464813D01*
X154904923Y-84464800D01*
X154908075Y-84463604D01*
X154912826Y-84462332D01*
X154912830Y-84462329D01*
X154912832Y-84462329D01*
X154920336Y-84459221D01*
X154920546Y-84459730D01*
X154933671Y-84454038D01*
X155322769Y-84336035D01*
X155326319Y-84335017D01*
X155328423Y-84334446D01*
X155372859Y-84324070D01*
X155379146Y-84320706D01*
X155386441Y-84318730D01*
X155388052Y-84318062D01*
X155388056Y-84318062D01*
X155388058Y-84318060D01*
X155393776Y-84315694D01*
X155393743Y-84315621D01*
X155401148Y-84312265D01*
X155401152Y-84312265D01*
X155421401Y-84299674D01*
X155436108Y-84290531D01*
X155443090Y-84286498D01*
X155444855Y-84285554D01*
X155801667Y-84094671D01*
X155802369Y-84094300D01*
X155814961Y-84087684D01*
X155820863Y-84086145D01*
X155856901Y-84065650D01*
X155858713Y-84064699D01*
X155859152Y-84064610D01*
X155865206Y-84061526D01*
X155899068Y-84046186D01*
X155902321Y-84043516D01*
X155914582Y-84034649D01*
X155918439Y-84032203D01*
X155924921Y-84028736D01*
X155927038Y-84026750D01*
X155934429Y-84022065D01*
X155935857Y-84020991D01*
X155935867Y-84020986D01*
X155963208Y-83994176D01*
X155971347Y-83986872D01*
X156280474Y-83733204D01*
X156283054Y-83731145D01*
X156292712Y-83723644D01*
X156299076Y-83720463D01*
X156315037Y-83706307D01*
X156318225Y-83703833D01*
X156319333Y-83703397D01*
X156326366Y-83698022D01*
X156344028Y-83686462D01*
X156344033Y-83686455D01*
X156344381Y-83686157D01*
X156348810Y-83681522D01*
X156355606Y-83674866D01*
X156361418Y-83670702D01*
X156367796Y-83662929D01*
X156372608Y-83658217D01*
X156374398Y-83657263D01*
X156380710Y-83650951D01*
X156383213Y-83648898D01*
X156383215Y-83648894D01*
X156388769Y-83642966D01*
X156388953Y-83643139D01*
X156392447Y-83639263D01*
X156392346Y-83639175D01*
X156397672Y-83633032D01*
X156397677Y-83633028D01*
X156409336Y-83615367D01*
X156414783Y-83607760D01*
X156417446Y-83604322D01*
X156431852Y-83588207D01*
X156435443Y-83581093D01*
X156442740Y-83571676D01*
X156443489Y-83571133D01*
X156444901Y-83568966D01*
X156700962Y-83256924D01*
X156709132Y-83247911D01*
X156731450Y-83225594D01*
X156731450Y-83225593D01*
X156731510Y-83225534D01*
X156731565Y-83225438D01*
X156735175Y-83220557D01*
X156736996Y-83218658D01*
X156738191Y-83216480D01*
X156741120Y-83212520D01*
X156741319Y-83212309D01*
X156742560Y-83209987D01*
X156756064Y-83189776D01*
X156758706Y-83186558D01*
X156773317Y-83154304D01*
X156776338Y-83148107D01*
X156777535Y-83145814D01*
X156797402Y-83111406D01*
X156798844Y-83106023D01*
X156800426Y-83103143D01*
X156800953Y-83100987D01*
X156805724Y-83091856D01*
X156805960Y-83091610D01*
X156806276Y-83090811D01*
X156997977Y-82732253D01*
X157002003Y-82725281D01*
X157024786Y-82688640D01*
X157024787Y-82688635D01*
X157024789Y-82688633D01*
X157027437Y-82682787D01*
X157027964Y-82681560D01*
X157027973Y-82681548D01*
X157028272Y-82680828D01*
X157028568Y-82680122D01*
X157033054Y-82669482D01*
X157033137Y-82669099D01*
X157033730Y-82667672D01*
X157034240Y-82667884D01*
X157034283Y-82667776D01*
X157033760Y-82667580D01*
X157036623Y-82659975D01*
X157041196Y-82640375D01*
X157046184Y-82618986D01*
X157048279Y-82611172D01*
X157048325Y-82611020D01*
X157166612Y-82220977D01*
X157166887Y-82220087D01*
X157170983Y-82207003D01*
X157174852Y-82200306D01*
X157185346Y-82161137D01*
X157186114Y-82158686D01*
X157186405Y-82158249D01*
X157188362Y-82152151D01*
X157200672Y-82119378D01*
X157200672Y-82119372D01*
X157201290Y-82116717D01*
X157202297Y-82110108D01*
X157203751Y-82103108D01*
X157204770Y-82100036D01*
X157204918Y-82097492D01*
X157206249Y-82091088D01*
X157206540Y-82089322D01*
X157206542Y-82089318D01*
X157206542Y-82089312D01*
X157207868Y-82081285D01*
X157208418Y-82081375D01*
X157208452Y-82081148D01*
X157207898Y-82081076D01*
X157208960Y-82073011D01*
X157208960Y-82040665D01*
X157209548Y-82028605D01*
X157210110Y-82022854D01*
X157211385Y-82013498D01*
X157221408Y-81956336D01*
X157635355Y-79595620D01*
X157666322Y-79532990D01*
X157726235Y-79497043D01*
X157796071Y-79499193D01*
X157853659Y-79538759D01*
X157872052Y-79569586D01*
X157926763Y-79701671D01*
X157926768Y-79701681D01*
X158077549Y-79962841D01*
X158261129Y-80202088D01*
X158261135Y-80202095D01*
X158474364Y-80415324D01*
X158474371Y-80415330D01*
X158713618Y-80598910D01*
X158974778Y-80749691D01*
X158974779Y-80749691D01*
X158974782Y-80749693D01*
X159160522Y-80826629D01*
X159253389Y-80865096D01*
X159253390Y-80865096D01*
X159253392Y-80865097D01*
X159544682Y-80943148D01*
X159843667Y-80982510D01*
X159843674Y-80982510D01*
X160145226Y-80982510D01*
X160145233Y-80982510D01*
X160444218Y-80943148D01*
X160735508Y-80865097D01*
X161014118Y-80749693D01*
X161275282Y-80598910D01*
X161514530Y-80415329D01*
X161727769Y-80202090D01*
X161911350Y-79962842D01*
X162062133Y-79701678D01*
X162177537Y-79423068D01*
X162255588Y-79131778D01*
X162294950Y-78832793D01*
X162294950Y-78531227D01*
X162255588Y-78232242D01*
X162177537Y-77940952D01*
X162062133Y-77662342D01*
X161911350Y-77401178D01*
X161727769Y-77161930D01*
X161727764Y-77161924D01*
X161514535Y-76948695D01*
X161514528Y-76948689D01*
X161275281Y-76765109D01*
X161014121Y-76614328D01*
X161014111Y-76614324D01*
X160735510Y-76498923D01*
X160444216Y-76420871D01*
X160145243Y-76381511D01*
X160145238Y-76381510D01*
X160145233Y-76381510D01*
X159843667Y-76381510D01*
X159843661Y-76381510D01*
X159843656Y-76381511D01*
X159544683Y-76420871D01*
X159253389Y-76498923D01*
X158974788Y-76614324D01*
X158974778Y-76614328D01*
X158713618Y-76765109D01*
X158474371Y-76948689D01*
X158474364Y-76948695D01*
X158297407Y-77125652D01*
X158236084Y-77159137D01*
X158166392Y-77154153D01*
X158110459Y-77112281D01*
X158086042Y-77046817D01*
X158087589Y-77016555D01*
X158181628Y-76480253D01*
X158184243Y-76468651D01*
X158187477Y-76456947D01*
X158189972Y-76451972D01*
X158193238Y-76436094D01*
X158194339Y-76432114D01*
X158195331Y-76430513D01*
X158199027Y-76418349D01*
X158200224Y-76415409D01*
X158201939Y-76410019D01*
X158206666Y-76397468D01*
X158206665Y-76397468D01*
X158206667Y-76397466D01*
X158207221Y-76391847D01*
X158209570Y-76377148D01*
X158210508Y-76372922D01*
X158213636Y-76362379D01*
X158213742Y-76358357D01*
X158215220Y-76351701D01*
X158215560Y-76349124D01*
X158215560Y-76340275D01*
X158215570Y-76338672D01*
X158215722Y-76326853D01*
X158216538Y-76322893D01*
X158215911Y-76312264D01*
X158215969Y-76307814D01*
X158216376Y-76306491D01*
X158216559Y-76297237D01*
X158250158Y-75956837D01*
X158254186Y-75935460D01*
X158257137Y-75924962D01*
X158257138Y-75924960D01*
X158257138Y-75924954D01*
X158257301Y-75923825D01*
X158257656Y-75915570D01*
X158258604Y-75911892D01*
X158258456Y-75896987D01*
X158258598Y-75893712D01*
X158259109Y-75892212D01*
X158260137Y-75878860D01*
X158260690Y-75875509D01*
X158262031Y-75867384D01*
X158261708Y-75864112D01*
X158261293Y-75858669D01*
X158260781Y-75849214D01*
X158262032Y-75836550D01*
X158259151Y-75819081D01*
X158258785Y-75812306D01*
X158259125Y-75810860D01*
X158258613Y-75804097D01*
X158258747Y-75793185D01*
X158258744Y-75793175D01*
X158258119Y-75787932D01*
X158257874Y-75784117D01*
X158257307Y-75780118D01*
X158257307Y-75780114D01*
X158254187Y-75768911D01*
X158250238Y-75747808D01*
X158249100Y-75736272D01*
X158211902Y-75359081D01*
X158211423Y-75352350D01*
X158211141Y-75345919D01*
X158212509Y-75323144D01*
X158209498Y-75308434D01*
X158209069Y-75298622D01*
X158209374Y-75297384D01*
X158208950Y-75293194D01*
X158208950Y-75290747D01*
X158207889Y-75282689D01*
X158208433Y-75282617D01*
X158208385Y-75282296D01*
X158207843Y-75282386D01*
X158206519Y-75274375D01*
X158206519Y-75274367D01*
X158205662Y-75271544D01*
X158200919Y-75247709D01*
X158200577Y-75244236D01*
X158194803Y-75228902D01*
X158192251Y-75221406D01*
X158190543Y-75215811D01*
X158186088Y-75194035D01*
X158180471Y-75182800D01*
X158177434Y-75172847D01*
X158177423Y-75171811D01*
X158176261Y-75168749D01*
X158174843Y-75163458D01*
X158174842Y-75163454D01*
X158174839Y-75163449D01*
X158171732Y-75155947D01*
X158172234Y-75155739D01*
X158166533Y-75142589D01*
X158052653Y-74767290D01*
X158050978Y-74761219D01*
X158050290Y-74758456D01*
X158042719Y-74720690D01*
X158039053Y-74713285D01*
X158036824Y-74704323D01*
X158036625Y-74703794D01*
X158036624Y-74703788D01*
X158036619Y-74703779D01*
X158035082Y-74699695D01*
X158035019Y-74699497D01*
X158034516Y-74698237D01*
X158032897Y-74694188D01*
X158032896Y-74694184D01*
X158032893Y-74694179D01*
X158029875Y-74686631D01*
X158029976Y-74686590D01*
X158028287Y-74682627D01*
X158028099Y-74682713D01*
X158024745Y-74675312D01*
X158024744Y-74675310D01*
X158005895Y-74645005D01*
X158002187Y-74638625D01*
X158001097Y-74636614D01*
X157983752Y-74601576D01*
X157979460Y-74596697D01*
X157972792Y-74584395D01*
X157972748Y-74584190D01*
X157972455Y-74583768D01*
X157806280Y-74272953D01*
X157801026Y-74259656D01*
X157800514Y-74259869D01*
X157797402Y-74252353D01*
X157778791Y-74220120D01*
X157773231Y-74209298D01*
X157758696Y-74177212D01*
X157756094Y-74174041D01*
X157747251Y-74161817D01*
X157744773Y-74157913D01*
X157741319Y-74151451D01*
X157739316Y-74149313D01*
X157734605Y-74141888D01*
X157733497Y-74140414D01*
X157731736Y-74138618D01*
X157731510Y-74138226D01*
X157723384Y-74130100D01*
X157706686Y-74113069D01*
X157699382Y-74104930D01*
X157445736Y-73795833D01*
X157437871Y-73783704D01*
X157437526Y-73783938D01*
X157432973Y-73777204D01*
X157421504Y-73764270D01*
X157410538Y-73749920D01*
X157398972Y-73732251D01*
X157398971Y-73732250D01*
X157398692Y-73731926D01*
X157393888Y-73727332D01*
X157387274Y-73720571D01*
X157383072Y-73714712D01*
X157375353Y-73708383D01*
X157370587Y-73703511D01*
X157369636Y-73701724D01*
X157363373Y-73695463D01*
X157361408Y-73693068D01*
X157361404Y-73693065D01*
X157355477Y-73687513D01*
X157355649Y-73687328D01*
X157351763Y-73683826D01*
X157351677Y-73683926D01*
X157345538Y-73678601D01*
X157327880Y-73666942D01*
X157320312Y-73661527D01*
X157316844Y-73658843D01*
X157300716Y-73644428D01*
X157293528Y-73640798D01*
X157284135Y-73633528D01*
X157283591Y-73632777D01*
X157281408Y-73631355D01*
X156970849Y-73376723D01*
X156961797Y-73368523D01*
X156938044Y-73344770D01*
X156938041Y-73344768D01*
X156938039Y-73344766D01*
X156934544Y-73342083D01*
X156931864Y-73340332D01*
X156925893Y-73335943D01*
X156924928Y-73335039D01*
X156923951Y-73334516D01*
X156918779Y-73330715D01*
X156908550Y-73323799D01*
X156908714Y-73323555D01*
X156905952Y-73321763D01*
X156905797Y-73322014D01*
X156898894Y-73317726D01*
X156898892Y-73317725D01*
X156868887Y-73304146D01*
X156858020Y-73298568D01*
X156841503Y-73289032D01*
X156823915Y-73278877D01*
X156816412Y-73275770D01*
X156816627Y-73275250D01*
X156803374Y-73270009D01*
X156443080Y-73077255D01*
X156439766Y-73075417D01*
X156437917Y-73074353D01*
X156401149Y-73051494D01*
X156394817Y-73049573D01*
X156388132Y-73045729D01*
X156384103Y-73044060D01*
X156382776Y-73043577D01*
X156382569Y-73043424D01*
X156380547Y-73042587D01*
X156380553Y-73042572D01*
X156380470Y-73042552D01*
X156380469Y-73042557D01*
X156380438Y-73042545D01*
X156380014Y-73042447D01*
X156378536Y-73041835D01*
X156378538Y-73041829D01*
X156372868Y-73039693D01*
X156330539Y-73029806D01*
X156322756Y-73027719D01*
X155935526Y-72910284D01*
X155931307Y-72908922D01*
X155920634Y-72905264D01*
X155917397Y-72903352D01*
X155904906Y-72899872D01*
X155901464Y-72898693D01*
X155899856Y-72897555D01*
X155886220Y-72892303D01*
X155882494Y-72890440D01*
X155866446Y-72887156D01*
X155858936Y-72885373D01*
X155853179Y-72883816D01*
X155832294Y-72875953D01*
X155819404Y-72874681D01*
X155809453Y-72871990D01*
X155808689Y-72871522D01*
X155805848Y-72870957D01*
X155801826Y-72869737D01*
X155796169Y-72868803D01*
X155790440Y-72867992D01*
X155783835Y-72867927D01*
X155760213Y-72865417D01*
X155753390Y-72864021D01*
X155753385Y-72864020D01*
X155737039Y-72865002D01*
X155717440Y-72864626D01*
X155325638Y-72825987D01*
X155312933Y-72824065D01*
X155309292Y-72823319D01*
X155291492Y-72818550D01*
X155290992Y-72818550D01*
X155290287Y-72818550D01*
X155290096Y-72818499D01*
X155285767Y-72818502D01*
X155285766Y-72818502D01*
X155256165Y-72818524D01*
X155243909Y-72817926D01*
X155215050Y-72815081D01*
X155209146Y-72814499D01*
X155209145Y-72814499D01*
X155194617Y-72816896D01*
X155174719Y-72818550D01*
X155158698Y-72818550D01*
X155158555Y-72818587D01*
X155150561Y-72818606D01*
X155150526Y-72818595D01*
X155150370Y-72818606D01*
X139889292Y-72830396D01*
X139863127Y-72827625D01*
X139858030Y-72826529D01*
X139858027Y-72826528D01*
X139858023Y-72826527D01*
X139857783Y-72826476D01*
X139851836Y-72825885D01*
X139851241Y-72825687D01*
X139847698Y-72825474D01*
X139845289Y-72825235D01*
X139843642Y-72824568D01*
X139825453Y-72821617D01*
X139817814Y-72819570D01*
X139817813Y-72819570D01*
X139817312Y-72819570D01*
X139802486Y-72819570D01*
X139782343Y-72817923D01*
X139767706Y-72815513D01*
X139758276Y-72816446D01*
X139752222Y-72816895D01*
X139744122Y-72817297D01*
X139726674Y-72815883D01*
X139709566Y-72819012D01*
X139701419Y-72819417D01*
X139700197Y-72819123D01*
X139695271Y-72819570D01*
X139685523Y-72819570D01*
X139671196Y-72823409D01*
X139651320Y-72827029D01*
X139271455Y-72864615D01*
X139265566Y-72865057D01*
X139258687Y-72865408D01*
X139235574Y-72864021D01*
X139218861Y-72867440D01*
X139209496Y-72867919D01*
X139208445Y-72867668D01*
X139204696Y-72868071D01*
X139197320Y-72868161D01*
X139192936Y-72868793D01*
X139192631Y-72868820D01*
X139191786Y-72868950D01*
X139191496Y-72869015D01*
X139187122Y-72869737D01*
X139182997Y-72870988D01*
X139159232Y-72875720D01*
X139156509Y-72875989D01*
X139156505Y-72875990D01*
X139141270Y-72881732D01*
X139122404Y-72887180D01*
X139106464Y-72890442D01*
X139102117Y-72892615D01*
X139086539Y-72899117D01*
X139083404Y-72900181D01*
X139070453Y-72903822D01*
X139067478Y-72905587D01*
X139057403Y-72909008D01*
X139056881Y-72909029D01*
X139053529Y-72910252D01*
X138666200Y-73027719D01*
X138658421Y-73029805D01*
X138616093Y-73039693D01*
X138610385Y-73041843D01*
X138610389Y-73041852D01*
X138608892Y-73042471D01*
X138607982Y-73042780D01*
X138606264Y-73043548D01*
X138604827Y-73044072D01*
X138595175Y-73048070D01*
X138595208Y-73048142D01*
X138587806Y-73051494D01*
X138552849Y-73073229D01*
X138545871Y-73077260D01*
X138187396Y-73269039D01*
X138186706Y-73269405D01*
X138174060Y-73276068D01*
X138168097Y-73277625D01*
X138130118Y-73299221D01*
X138128344Y-73300157D01*
X138127908Y-73300244D01*
X138121668Y-73303423D01*
X138090064Y-73317726D01*
X138087784Y-73319142D01*
X138079341Y-73325204D01*
X138074560Y-73328191D01*
X138072033Y-73329468D01*
X138070904Y-73330475D01*
X138066930Y-73332960D01*
X138058747Y-73338827D01*
X138053539Y-73342770D01*
X138028251Y-73367729D01*
X138019769Y-73375362D01*
X137708546Y-73630539D01*
X137706103Y-73632491D01*
X137696390Y-73640052D01*
X137689884Y-73643307D01*
X137673123Y-73658168D01*
X137669990Y-73660608D01*
X137668945Y-73661020D01*
X137662138Y-73666244D01*
X137643422Y-73678601D01*
X137642769Y-73679168D01*
X137639611Y-73682504D01*
X137632609Y-73689434D01*
X137627542Y-73693067D01*
X137621489Y-73700442D01*
X137616929Y-73704957D01*
X137615091Y-73705948D01*
X137608320Y-73712717D01*
X137605889Y-73714710D01*
X137600332Y-73720638D01*
X137600166Y-73720482D01*
X137596520Y-73724525D01*
X137596607Y-73724601D01*
X137591283Y-73730739D01*
X137578916Y-73749468D01*
X137573245Y-73757364D01*
X137570822Y-73760472D01*
X137555987Y-73777204D01*
X137552772Y-73783630D01*
X137545189Y-73793361D01*
X137544500Y-73793855D01*
X137543243Y-73795794D01*
X137288046Y-74106783D01*
X137279872Y-74115803D01*
X137257589Y-74138086D01*
X137257586Y-74138089D01*
X137257450Y-74138226D01*
X137257327Y-74138437D01*
X137254456Y-74142302D01*
X137252648Y-74144182D01*
X137251455Y-74146341D01*
X137247729Y-74151356D01*
X137247641Y-74151451D01*
X137247593Y-74151539D01*
X137247591Y-74151543D01*
X137246377Y-74153815D01*
X137232886Y-74174003D01*
X137230257Y-74177206D01*
X137230254Y-74177211D01*
X137215683Y-74209371D01*
X137212641Y-74215613D01*
X137211415Y-74217958D01*
X137191558Y-74252354D01*
X137190266Y-74257175D01*
X137188954Y-74259552D01*
X137188293Y-74262217D01*
X137183238Y-74271894D01*
X137183002Y-74272138D01*
X137182685Y-74272941D01*
X137005241Y-74604832D01*
X136994505Y-74621540D01*
X136986037Y-74632648D01*
X136980838Y-74645310D01*
X136975132Y-74657326D01*
X136973370Y-74660574D01*
X136964206Y-74675310D01*
X136962716Y-74680216D01*
X136958869Y-74687310D01*
X136955280Y-74695977D01*
X136954776Y-74695768D01*
X136954687Y-74695992D01*
X136955199Y-74696185D01*
X136952334Y-74703794D01*
X136948684Y-74719438D01*
X136942638Y-74738352D01*
X136935986Y-74754555D01*
X136935985Y-74754557D01*
X136934241Y-74768131D01*
X136929911Y-74788329D01*
X136822413Y-75142596D01*
X136820662Y-75147927D01*
X136816854Y-75158696D01*
X136814108Y-75163454D01*
X136810778Y-75175878D01*
X136809160Y-75180457D01*
X136807916Y-75182178D01*
X136803600Y-75193690D01*
X136801591Y-75197787D01*
X136801586Y-75197802D01*
X136798906Y-75211444D01*
X136797169Y-75219018D01*
X136795538Y-75225229D01*
X136788383Y-75244236D01*
X136787078Y-75257455D01*
X136784579Y-75266978D01*
X136784015Y-75267912D01*
X136783305Y-75271485D01*
X136782431Y-75274365D01*
X136781107Y-75282382D01*
X136780574Y-75282294D01*
X136780526Y-75282620D01*
X136781060Y-75282691D01*
X136780000Y-75290746D01*
X136780000Y-75295624D01*
X136777675Y-75319524D01*
X136776184Y-75327111D01*
X136776184Y-75327113D01*
X136777126Y-75340984D01*
X136776812Y-75361552D01*
X136740148Y-75733329D01*
X136739823Y-75736272D01*
X136738340Y-75748347D01*
X136735452Y-75757129D01*
X136733930Y-75784260D01*
X136733430Y-75788336D01*
X136732959Y-75789426D01*
X136731838Y-75798076D01*
X136727930Y-75817174D01*
X136727840Y-75818447D01*
X136727907Y-75820735D01*
X136727887Y-75830759D01*
X136726927Y-75836587D01*
X136727857Y-75846009D01*
X136727845Y-75852236D01*
X136727246Y-75854260D01*
X136727247Y-75864152D01*
X136726928Y-75867380D01*
X136727194Y-75875505D01*
X136727046Y-75875509D01*
X136727321Y-75880615D01*
X136727468Y-75880604D01*
X136728075Y-75888704D01*
X136732048Y-75907738D01*
X136734440Y-75925635D01*
X136735826Y-75948720D01*
X136737369Y-75956703D01*
X136737072Y-75956760D01*
X136740286Y-75971838D01*
X136770951Y-76282273D01*
X136771547Y-76295541D01*
X136771505Y-76300328D01*
X136770358Y-76313696D01*
X136771340Y-76319218D01*
X136771264Y-76328017D01*
X136772045Y-76337901D01*
X136771499Y-76337944D01*
X136771590Y-76338896D01*
X136772061Y-76338844D01*
X136772963Y-76346917D01*
X136778110Y-76367754D01*
X136781127Y-76385293D01*
X136783061Y-76404863D01*
X136785711Y-76411899D01*
X136791751Y-76433876D01*
X136894147Y-77009082D01*
X136886516Y-77078533D01*
X136842549Y-77132835D01*
X136776203Y-77154745D01*
X136708544Y-77137308D01*
X136684385Y-77118495D01*
X136514585Y-76948695D01*
X136514578Y-76948689D01*
X136275331Y-76765109D01*
X136014171Y-76614328D01*
X136014161Y-76614324D01*
X135735560Y-76498923D01*
X135444266Y-76420871D01*
X135145293Y-76381511D01*
X135145288Y-76381510D01*
X135145283Y-76381510D01*
X134843717Y-76381510D01*
X134843711Y-76381510D01*
X134843706Y-76381511D01*
X134544733Y-76420871D01*
X134253439Y-76498923D01*
X133974838Y-76614324D01*
X133974828Y-76614328D01*
X133713668Y-76765109D01*
X133474421Y-76948689D01*
X133474414Y-76948695D01*
X133261185Y-77161924D01*
X133261179Y-77161931D01*
X133077599Y-77401178D01*
X132926818Y-77662338D01*
X132926814Y-77662348D01*
X132811413Y-77940949D01*
X132733361Y-78232243D01*
X132694001Y-78531216D01*
X132694000Y-78531233D01*
X131066950Y-78531233D01*
X131066950Y-78531227D01*
X131027588Y-78232242D01*
X130949537Y-77940952D01*
X130834133Y-77662342D01*
X130683350Y-77401178D01*
X130499769Y-77161930D01*
X130499764Y-77161924D01*
X130286535Y-76948695D01*
X130286528Y-76948689D01*
X130047281Y-76765109D01*
X129786121Y-76614328D01*
X129786111Y-76614324D01*
X129507510Y-76498923D01*
X129216216Y-76420871D01*
X128917243Y-76381511D01*
X128917238Y-76381510D01*
X128917233Y-76381510D01*
X128615667Y-76381510D01*
X128615661Y-76381510D01*
X128615656Y-76381511D01*
X128316683Y-76420871D01*
X128025389Y-76498923D01*
X127746788Y-76614324D01*
X127746778Y-76614328D01*
X127485618Y-76765109D01*
X127246371Y-76948689D01*
X127246364Y-76948695D01*
X127069407Y-77125652D01*
X127008084Y-77159137D01*
X126938392Y-77154153D01*
X126882459Y-77112281D01*
X126858042Y-77046817D01*
X126859589Y-77016555D01*
X126953628Y-76480253D01*
X126956243Y-76468651D01*
X126959477Y-76456947D01*
X126961972Y-76451972D01*
X126965238Y-76436094D01*
X126966339Y-76432114D01*
X126967331Y-76430513D01*
X126971027Y-76418349D01*
X126972224Y-76415409D01*
X126973939Y-76410019D01*
X126978666Y-76397468D01*
X126978665Y-76397468D01*
X126978667Y-76397466D01*
X126979221Y-76391847D01*
X126981570Y-76377148D01*
X126982508Y-76372922D01*
X126985636Y-76362379D01*
X126985742Y-76358357D01*
X126987220Y-76351701D01*
X126987560Y-76349124D01*
X126987560Y-76340275D01*
X126987570Y-76338672D01*
X126987722Y-76326853D01*
X126988538Y-76322893D01*
X126987911Y-76312264D01*
X126987969Y-76307814D01*
X126988376Y-76306491D01*
X126988559Y-76297237D01*
X127022158Y-75956837D01*
X127026186Y-75935460D01*
X127029137Y-75924962D01*
X127029138Y-75924960D01*
X127029138Y-75924954D01*
X127029301Y-75923825D01*
X127029656Y-75915570D01*
X127030604Y-75911892D01*
X127030456Y-75896987D01*
X127030598Y-75893712D01*
X127031109Y-75892212D01*
X127032137Y-75878860D01*
X127032690Y-75875509D01*
X127034031Y-75867384D01*
X127033708Y-75864112D01*
X127033293Y-75858669D01*
X127032781Y-75849214D01*
X127034032Y-75836550D01*
X127031151Y-75819081D01*
X127030785Y-75812306D01*
X127031125Y-75810860D01*
X127030613Y-75804097D01*
X127030747Y-75793185D01*
X127030744Y-75793175D01*
X127030119Y-75787932D01*
X127029874Y-75784117D01*
X127029307Y-75780118D01*
X127029307Y-75780114D01*
X127026187Y-75768911D01*
X127022238Y-75747808D01*
X127021100Y-75736272D01*
X126983902Y-75359081D01*
X126983423Y-75352350D01*
X126983141Y-75345919D01*
X126984509Y-75323144D01*
X126981498Y-75308434D01*
X126981069Y-75298622D01*
X126981374Y-75297384D01*
X126980950Y-75293194D01*
X126980950Y-75290747D01*
X126979889Y-75282689D01*
X126980433Y-75282617D01*
X126980385Y-75282296D01*
X126979843Y-75282386D01*
X126978519Y-75274375D01*
X126978519Y-75274367D01*
X126977662Y-75271544D01*
X126972919Y-75247709D01*
X126972577Y-75244236D01*
X126966803Y-75228902D01*
X126964251Y-75221406D01*
X126962543Y-75215811D01*
X126958088Y-75194035D01*
X126952471Y-75182800D01*
X126949434Y-75172847D01*
X126949423Y-75171811D01*
X126948261Y-75168749D01*
X126946843Y-75163458D01*
X126946842Y-75163454D01*
X126946839Y-75163449D01*
X126943732Y-75155947D01*
X126944234Y-75155739D01*
X126938533Y-75142589D01*
X126824653Y-74767290D01*
X126822978Y-74761219D01*
X126822290Y-74758456D01*
X126814719Y-74720690D01*
X126811053Y-74713285D01*
X126808824Y-74704323D01*
X126808625Y-74703794D01*
X126808624Y-74703788D01*
X126808619Y-74703779D01*
X126807082Y-74699695D01*
X126807019Y-74699497D01*
X126806516Y-74698237D01*
X126804897Y-74694188D01*
X126804896Y-74694184D01*
X126804893Y-74694179D01*
X126801875Y-74686631D01*
X126801976Y-74686590D01*
X126800287Y-74682627D01*
X126800099Y-74682713D01*
X126796745Y-74675312D01*
X126796744Y-74675310D01*
X126777895Y-74645005D01*
X126774187Y-74638625D01*
X126773097Y-74636614D01*
X126755752Y-74601576D01*
X126751460Y-74596697D01*
X126744792Y-74584395D01*
X126744748Y-74584190D01*
X126744455Y-74583768D01*
X126578280Y-74272953D01*
X126573026Y-74259656D01*
X126572514Y-74259869D01*
X126569402Y-74252353D01*
X126550791Y-74220120D01*
X126545231Y-74209298D01*
X126530696Y-74177212D01*
X126528094Y-74174041D01*
X126519251Y-74161817D01*
X126516773Y-74157913D01*
X126513319Y-74151451D01*
X126511316Y-74149313D01*
X126506605Y-74141888D01*
X126505497Y-74140414D01*
X126503736Y-74138618D01*
X126503510Y-74138226D01*
X126495384Y-74130100D01*
X126478686Y-74113069D01*
X126471382Y-74104930D01*
X126217736Y-73795833D01*
X126209871Y-73783704D01*
X126209526Y-73783938D01*
X126204973Y-73777204D01*
X126193504Y-73764270D01*
X126182538Y-73749920D01*
X126170972Y-73732251D01*
X126170971Y-73732250D01*
X126170692Y-73731926D01*
X126165888Y-73727332D01*
X126159274Y-73720571D01*
X126155072Y-73714712D01*
X126147353Y-73708383D01*
X126142587Y-73703511D01*
X126141636Y-73701724D01*
X126135373Y-73695463D01*
X126133408Y-73693068D01*
X126133404Y-73693065D01*
X126127477Y-73687513D01*
X126127649Y-73687328D01*
X126123763Y-73683826D01*
X126123677Y-73683926D01*
X126117538Y-73678601D01*
X126099880Y-73666942D01*
X126092312Y-73661527D01*
X126088844Y-73658843D01*
X126072716Y-73644428D01*
X126065528Y-73640798D01*
X126056135Y-73633528D01*
X126055591Y-73632777D01*
X126053408Y-73631355D01*
X125742849Y-73376723D01*
X125733797Y-73368523D01*
X125710044Y-73344770D01*
X125710041Y-73344768D01*
X125710039Y-73344766D01*
X125706544Y-73342083D01*
X125703864Y-73340332D01*
X125697893Y-73335943D01*
X125696928Y-73335039D01*
X125695951Y-73334516D01*
X125690779Y-73330715D01*
X125680550Y-73323799D01*
X125680714Y-73323555D01*
X125677952Y-73321763D01*
X125677797Y-73322014D01*
X125670894Y-73317726D01*
X125670892Y-73317725D01*
X125640887Y-73304146D01*
X125630020Y-73298568D01*
X125613503Y-73289032D01*
X125595915Y-73278877D01*
X125588412Y-73275770D01*
X125588627Y-73275250D01*
X125575374Y-73270009D01*
X125215080Y-73077255D01*
X125211766Y-73075417D01*
X125209917Y-73074353D01*
X125173149Y-73051494D01*
X125166817Y-73049573D01*
X125160132Y-73045729D01*
X125156103Y-73044060D01*
X125154776Y-73043577D01*
X125154569Y-73043424D01*
X125152547Y-73042587D01*
X125152553Y-73042572D01*
X125152470Y-73042552D01*
X125152469Y-73042557D01*
X125152438Y-73042545D01*
X125152014Y-73042447D01*
X125150536Y-73041835D01*
X125150538Y-73041829D01*
X125144868Y-73039693D01*
X125102539Y-73029806D01*
X125094756Y-73027719D01*
X124707526Y-72910284D01*
X124703307Y-72908922D01*
X124692634Y-72905264D01*
X124689397Y-72903352D01*
X124676906Y-72899872D01*
X124673464Y-72898693D01*
X124671856Y-72897555D01*
X124658220Y-72892303D01*
X124654494Y-72890440D01*
X124638446Y-72887156D01*
X124630936Y-72885373D01*
X124625179Y-72883816D01*
X124604294Y-72875953D01*
X124591404Y-72874681D01*
X124581453Y-72871990D01*
X124580689Y-72871522D01*
X124577848Y-72870957D01*
X124573826Y-72869737D01*
X124568169Y-72868803D01*
X124562440Y-72867992D01*
X124555835Y-72867927D01*
X124532213Y-72865417D01*
X124525390Y-72864021D01*
X124525385Y-72864020D01*
X124509039Y-72865002D01*
X124489440Y-72864626D01*
X124097638Y-72825987D01*
X124084933Y-72824065D01*
X124081292Y-72823319D01*
X124063492Y-72818550D01*
X124062992Y-72818550D01*
X124062287Y-72818550D01*
X124062096Y-72818499D01*
X124057767Y-72818502D01*
X124057766Y-72818502D01*
X124028165Y-72818524D01*
X124015909Y-72817926D01*
X123987050Y-72815081D01*
X123981146Y-72814499D01*
X123981145Y-72814499D01*
X123966617Y-72816896D01*
X123946719Y-72818550D01*
X123930698Y-72818550D01*
X123930555Y-72818587D01*
X123922561Y-72818606D01*
X123922526Y-72818595D01*
X123922370Y-72818606D01*
X108661292Y-72830396D01*
X108635127Y-72827625D01*
X108630030Y-72826529D01*
X108630027Y-72826528D01*
X108630023Y-72826527D01*
X108629783Y-72826476D01*
X108623836Y-72825885D01*
X108623241Y-72825687D01*
X108619698Y-72825474D01*
X108617289Y-72825235D01*
X108615642Y-72824568D01*
X108597453Y-72821617D01*
X108589814Y-72819570D01*
X108589813Y-72819570D01*
X108589312Y-72819570D01*
X108574486Y-72819570D01*
X108554343Y-72817923D01*
X108539706Y-72815513D01*
X108530276Y-72816446D01*
X108524222Y-72816895D01*
X108516122Y-72817297D01*
X108498674Y-72815883D01*
X108481566Y-72819012D01*
X108473419Y-72819417D01*
X108472197Y-72819123D01*
X108467271Y-72819570D01*
X108457523Y-72819570D01*
X108443196Y-72823409D01*
X108423320Y-72827029D01*
X108043455Y-72864615D01*
X108037566Y-72865057D01*
X108030687Y-72865408D01*
X108007574Y-72864021D01*
X107990861Y-72867440D01*
X107981496Y-72867919D01*
X107980445Y-72867668D01*
X107976696Y-72868071D01*
X107969320Y-72868161D01*
X107964936Y-72868793D01*
X107964631Y-72868820D01*
X107963786Y-72868950D01*
X107963496Y-72869015D01*
X107959122Y-72869737D01*
X107954997Y-72870988D01*
X107931232Y-72875720D01*
X107928509Y-72875989D01*
X107928505Y-72875990D01*
X107913270Y-72881732D01*
X107894404Y-72887180D01*
X107878464Y-72890442D01*
X107874117Y-72892615D01*
X107858539Y-72899117D01*
X107855404Y-72900181D01*
X107842453Y-72903822D01*
X107839478Y-72905587D01*
X107829403Y-72909008D01*
X107828881Y-72909029D01*
X107825529Y-72910252D01*
X107438200Y-73027719D01*
X107430421Y-73029805D01*
X107388093Y-73039693D01*
X107382385Y-73041843D01*
X107382389Y-73041852D01*
X107380892Y-73042471D01*
X107379982Y-73042780D01*
X107378264Y-73043548D01*
X107376827Y-73044072D01*
X107367175Y-73048070D01*
X107367208Y-73048142D01*
X107359806Y-73051494D01*
X107324849Y-73073229D01*
X107317871Y-73077260D01*
X106959396Y-73269039D01*
X106958706Y-73269405D01*
X106946060Y-73276068D01*
X106940097Y-73277625D01*
X106902118Y-73299221D01*
X106900344Y-73300157D01*
X106899908Y-73300244D01*
X106893668Y-73303423D01*
X106862064Y-73317726D01*
X106859784Y-73319142D01*
X106851341Y-73325204D01*
X106846560Y-73328191D01*
X106844033Y-73329468D01*
X106842904Y-73330475D01*
X106838930Y-73332960D01*
X106830747Y-73338827D01*
X106825539Y-73342770D01*
X106800251Y-73367729D01*
X106791769Y-73375362D01*
X106480546Y-73630539D01*
X106478103Y-73632491D01*
X106468390Y-73640052D01*
X106461884Y-73643307D01*
X106445123Y-73658168D01*
X106441990Y-73660608D01*
X106440945Y-73661020D01*
X106434138Y-73666244D01*
X106415422Y-73678601D01*
X106414769Y-73679168D01*
X106411611Y-73682504D01*
X106404609Y-73689434D01*
X106399542Y-73693067D01*
X106393489Y-73700442D01*
X106388929Y-73704957D01*
X106387091Y-73705948D01*
X106380320Y-73712717D01*
X106377889Y-73714710D01*
X106372332Y-73720638D01*
X106372166Y-73720482D01*
X106368520Y-73724525D01*
X106368607Y-73724601D01*
X106363283Y-73730739D01*
X106350916Y-73749468D01*
X106345245Y-73757364D01*
X106342822Y-73760472D01*
X106327987Y-73777204D01*
X106324772Y-73783630D01*
X106317189Y-73793361D01*
X106316500Y-73793855D01*
X106315243Y-73795794D01*
X106060046Y-74106783D01*
X106051872Y-74115803D01*
X106029589Y-74138086D01*
X106029586Y-74138089D01*
X106029450Y-74138226D01*
X106029327Y-74138437D01*
X106026456Y-74142302D01*
X106024648Y-74144182D01*
X106023455Y-74146341D01*
X106019729Y-74151356D01*
X106019641Y-74151451D01*
X106019593Y-74151539D01*
X106019591Y-74151543D01*
X106018377Y-74153815D01*
X106004886Y-74174003D01*
X106002257Y-74177206D01*
X106002254Y-74177211D01*
X105987683Y-74209371D01*
X105984641Y-74215613D01*
X105983415Y-74217958D01*
X105963558Y-74252354D01*
X105962266Y-74257175D01*
X105960954Y-74259552D01*
X105960293Y-74262217D01*
X105955238Y-74271894D01*
X105955002Y-74272138D01*
X105954685Y-74272941D01*
X105777241Y-74604832D01*
X105766505Y-74621540D01*
X105758037Y-74632648D01*
X105752838Y-74645310D01*
X105747132Y-74657326D01*
X105745370Y-74660574D01*
X105736206Y-74675310D01*
X105734716Y-74680216D01*
X105730869Y-74687310D01*
X105727280Y-74695977D01*
X105726776Y-74695768D01*
X105726687Y-74695992D01*
X105727199Y-74696185D01*
X105724334Y-74703794D01*
X105720684Y-74719438D01*
X105714638Y-74738352D01*
X105707986Y-74754555D01*
X105707985Y-74754557D01*
X105706241Y-74768131D01*
X105701911Y-74788329D01*
X105594413Y-75142596D01*
X105592662Y-75147927D01*
X105588854Y-75158696D01*
X105586108Y-75163454D01*
X105582778Y-75175878D01*
X105581160Y-75180457D01*
X105579916Y-75182178D01*
X105575600Y-75193690D01*
X105573591Y-75197787D01*
X105573586Y-75197802D01*
X105570906Y-75211444D01*
X105569169Y-75219018D01*
X105567538Y-75225229D01*
X105560383Y-75244236D01*
X105559078Y-75257455D01*
X105556579Y-75266978D01*
X105556015Y-75267912D01*
X105555305Y-75271485D01*
X105554431Y-75274365D01*
X105553107Y-75282382D01*
X105552574Y-75282294D01*
X105552526Y-75282620D01*
X105553060Y-75282691D01*
X105552000Y-75290746D01*
X105552000Y-75295624D01*
X105549675Y-75319524D01*
X105548184Y-75327111D01*
X105548184Y-75327113D01*
X105549126Y-75340984D01*
X105548812Y-75361552D01*
X105512148Y-75733329D01*
X105511823Y-75736272D01*
X105510340Y-75748347D01*
X105507452Y-75757129D01*
X105505930Y-75784260D01*
X105505430Y-75788336D01*
X105504959Y-75789426D01*
X105503838Y-75798076D01*
X105499930Y-75817174D01*
X105499840Y-75818447D01*
X105499907Y-75820735D01*
X105499887Y-75830759D01*
X105498927Y-75836587D01*
X105499857Y-75846009D01*
X105499845Y-75852236D01*
X105499246Y-75854260D01*
X105499247Y-75864152D01*
X105498928Y-75867380D01*
X105499194Y-75875505D01*
X105499046Y-75875509D01*
X105499321Y-75880615D01*
X105499468Y-75880604D01*
X105500075Y-75888704D01*
X105504048Y-75907738D01*
X105506440Y-75925635D01*
X105507826Y-75948720D01*
X105509369Y-75956703D01*
X105509072Y-75956760D01*
X105512286Y-75971838D01*
X105542951Y-76282273D01*
X105543547Y-76295541D01*
X105543505Y-76300328D01*
X105542358Y-76313696D01*
X105543340Y-76319218D01*
X105543264Y-76328017D01*
X105544045Y-76337901D01*
X105543499Y-76337944D01*
X105543590Y-76338896D01*
X105544061Y-76338844D01*
X105544963Y-76346917D01*
X105550110Y-76367754D01*
X105553127Y-76385293D01*
X105555061Y-76404863D01*
X105557711Y-76411899D01*
X105563751Y-76433876D01*
X105666147Y-77009082D01*
X105658516Y-77078533D01*
X105614549Y-77132835D01*
X105548203Y-77154745D01*
X105480544Y-77137308D01*
X105456385Y-77118495D01*
X105286585Y-76948695D01*
X105286578Y-76948689D01*
X105047331Y-76765109D01*
X104786171Y-76614328D01*
X104786161Y-76614324D01*
X104507560Y-76498923D01*
X104216266Y-76420871D01*
X103917293Y-76381511D01*
X103917288Y-76381510D01*
X103917283Y-76381510D01*
X103615717Y-76381510D01*
X103615711Y-76381510D01*
X103615706Y-76381511D01*
X103316733Y-76420871D01*
X103025439Y-76498923D01*
X102746838Y-76614324D01*
X102746828Y-76614328D01*
X102485668Y-76765109D01*
X102246421Y-76948689D01*
X102246414Y-76948695D01*
X102033185Y-77161924D01*
X102033179Y-77161931D01*
X101849599Y-77401178D01*
X101698818Y-77662338D01*
X101698814Y-77662348D01*
X101583413Y-77940949D01*
X101505361Y-78232243D01*
X101466001Y-78531216D01*
X101466000Y-78531233D01*
X78110500Y-78531233D01*
X78110500Y-71022929D01*
X78110726Y-71015441D01*
X78126882Y-70748384D01*
X78128687Y-70733520D01*
X78176238Y-70474051D01*
X78179822Y-70459512D01*
X78258300Y-70207673D01*
X78263610Y-70193672D01*
X78371876Y-69953119D01*
X78378825Y-69939877D01*
X78515308Y-69714109D01*
X78523795Y-69701813D01*
X78686497Y-69494139D01*
X78696412Y-69482948D01*
X78882948Y-69296412D01*
X78894139Y-69286497D01*
X79101813Y-69123795D01*
X79114109Y-69115308D01*
X79339877Y-68978825D01*
X79353119Y-68971876D01*
X79593678Y-68863607D01*
X79607665Y-68858302D01*
X79859518Y-68779820D01*
X79874044Y-68776239D01*
X80133521Y-68728686D01*
X80148382Y-68726882D01*
X80415441Y-68710725D01*
X80422929Y-68710500D01*
X80485069Y-68710500D01*
X183234931Y-68710500D01*
X183297071Y-68710500D01*
X183304558Y-68710725D01*
G37*
%TD.AperFunction*%
%TD*%
M02*
