%TF.GenerationSoftware,KiCad,Pcbnew,9.0.0*%
%TF.CreationDate,2025-03-14T14:54:43-04:00*%
%TF.ProjectId,MiniCamel_RearPlate,4d696e69-4361-46d6-956c-5f5265617250,rev?*%
%TF.SameCoordinates,Original*%
%TF.FileFunction,Soldermask,Top*%
%TF.FilePolarity,Negative*%
%FSLAX46Y46*%
G04 Gerber Fmt 4.6, Leading zero omitted, Abs format (unit mm)*
G04 Created by KiCad (PCBNEW 9.0.0) date 2025-03-14 14:54:43*
%MOMM*%
%LPD*%
G01*
G04 APERTURE LIST*
%ADD10C,0.070000*%
%ADD11C,4.064000*%
G04 APERTURE END LIST*
D10*
X150156197Y-103707603D02*
X151155748Y-103707603D01*
X151155748Y-102713222D01*
X151665864Y-102713222D01*
X151665864Y-105239674D01*
X151155748Y-105239674D01*
X151155748Y-104134997D01*
X150156197Y-104134997D01*
X150156197Y-105239674D01*
X149646081Y-105239674D01*
X149646081Y-102713222D01*
X150156197Y-102713222D01*
X150156197Y-103707603D01*
G36*
X150156197Y-103707603D02*
G01*
X151155748Y-103707603D01*
X151155748Y-102713222D01*
X151665864Y-102713222D01*
X151665864Y-105239674D01*
X151155748Y-105239674D01*
X151155748Y-104134997D01*
X150156197Y-104134997D01*
X150156197Y-105239674D01*
X149646081Y-105239674D01*
X149646081Y-102713222D01*
X150156197Y-102713222D01*
X150156197Y-103707603D01*
G37*
X153644450Y-102713976D02*
X153716265Y-102716238D01*
X153783396Y-102720008D01*
X153845841Y-102725286D01*
X153903600Y-102732072D01*
X153956675Y-102740365D01*
X154005063Y-102750167D01*
X154048767Y-102761477D01*
X154076307Y-102770060D01*
X154103349Y-102779437D01*
X154129893Y-102789609D01*
X154155938Y-102800576D01*
X154181486Y-102812336D01*
X154206535Y-102824891D01*
X154231086Y-102838241D01*
X154255140Y-102852384D01*
X154278694Y-102867322D01*
X154301751Y-102883055D01*
X154324310Y-102899581D01*
X154346370Y-102916902D01*
X154367933Y-102935018D01*
X154388997Y-102953928D01*
X154409563Y-102973632D01*
X154429631Y-102994130D01*
X154449153Y-103015322D01*
X154468083Y-103037107D01*
X154486421Y-103059483D01*
X154504166Y-103082453D01*
X154521319Y-103106014D01*
X154537879Y-103130168D01*
X154553847Y-103154915D01*
X154569223Y-103180254D01*
X154584006Y-103206185D01*
X154598197Y-103232709D01*
X154611795Y-103259825D01*
X154624801Y-103287533D01*
X154637215Y-103315834D01*
X154649036Y-103344727D01*
X154660265Y-103374213D01*
X154670901Y-103404291D01*
X154680918Y-103434894D01*
X154690289Y-103466386D01*
X154699014Y-103498766D01*
X154707092Y-103532035D01*
X154714524Y-103566193D01*
X154721310Y-103601239D01*
X154727449Y-103637174D01*
X154732943Y-103673997D01*
X154737790Y-103711709D01*
X154741990Y-103750310D01*
X154748453Y-103830177D01*
X154752331Y-103913599D01*
X154753623Y-104000575D01*
X154752411Y-104077211D01*
X154748776Y-104151154D01*
X154742717Y-104222405D01*
X154734235Y-104290962D01*
X154723330Y-104356827D01*
X154710000Y-104420000D01*
X154694248Y-104480479D01*
X154685463Y-104509709D01*
X154676072Y-104538266D01*
X154663907Y-104572323D01*
X154651110Y-104605558D01*
X154637680Y-104637972D01*
X154623617Y-104669564D01*
X154608921Y-104700336D01*
X154593593Y-104730286D01*
X154577631Y-104759415D01*
X154561037Y-104787722D01*
X154543810Y-104815209D01*
X154525951Y-104841874D01*
X154507458Y-104867717D01*
X154488333Y-104892740D01*
X154468575Y-104916941D01*
X154448184Y-104940321D01*
X154427160Y-104962879D01*
X154405503Y-104984616D01*
X154388553Y-105000551D01*
X154370875Y-105016041D01*
X154352470Y-105031087D01*
X154333338Y-105045688D01*
X154313479Y-105059846D01*
X154292893Y-105073559D01*
X154271579Y-105086827D01*
X154249539Y-105099651D01*
X154226772Y-105112031D01*
X154203278Y-105123967D01*
X154179056Y-105135458D01*
X154154108Y-105146505D01*
X154128432Y-105157108D01*
X154102030Y-105167267D01*
X154074900Y-105176981D01*
X154047043Y-105186251D01*
X154025488Y-105192720D01*
X154003044Y-105198773D01*
X153979711Y-105204407D01*
X153955490Y-105209625D01*
X153930380Y-105214425D01*
X153904382Y-105218807D01*
X153877494Y-105222772D01*
X153849719Y-105226320D01*
X153791501Y-105232163D01*
X153729729Y-105236337D01*
X153664403Y-105238841D01*
X153595522Y-105239676D01*
X152635608Y-105239676D01*
X152635608Y-104814004D01*
X153145724Y-104814004D01*
X153526588Y-104814004D01*
X153578154Y-104813627D01*
X153626004Y-104812496D01*
X153670139Y-104810611D01*
X153710557Y-104807972D01*
X153747259Y-104804579D01*
X153780245Y-104800433D01*
X153809516Y-104795532D01*
X153835070Y-104789878D01*
X153850412Y-104785832D01*
X153865418Y-104781449D01*
X153880086Y-104776730D01*
X153894419Y-104771675D01*
X153908414Y-104766282D01*
X153922073Y-104760554D01*
X153935396Y-104754488D01*
X153948382Y-104748086D01*
X153961031Y-104741348D01*
X153973343Y-104734273D01*
X153985319Y-104726861D01*
X153996959Y-104719113D01*
X154008262Y-104711028D01*
X154019228Y-104702606D01*
X154029858Y-104693848D01*
X154040151Y-104684754D01*
X154050370Y-104675120D01*
X154060346Y-104664746D01*
X154070081Y-104653632D01*
X154079573Y-104641777D01*
X154088822Y-104629181D01*
X154097829Y-104615845D01*
X154106594Y-104601769D01*
X154115117Y-104586952D01*
X154123397Y-104571395D01*
X154131435Y-104555097D01*
X154139230Y-104538059D01*
X154146784Y-104520280D01*
X154154094Y-104501760D01*
X154161163Y-104482501D01*
X154167989Y-104462500D01*
X154174573Y-104441760D01*
X154180833Y-104419955D01*
X154186690Y-104397195D01*
X154192143Y-104373478D01*
X154197192Y-104348806D01*
X154201837Y-104323178D01*
X154206078Y-104296593D01*
X154213349Y-104240557D01*
X154219003Y-104180697D01*
X154223042Y-104117013D01*
X154225466Y-104049506D01*
X154226274Y-103978174D01*
X154225466Y-103907059D01*
X154223042Y-103840198D01*
X154219003Y-103777591D01*
X154213349Y-103719239D01*
X154206078Y-103665142D01*
X154197192Y-103615299D01*
X154186690Y-103569710D01*
X154174573Y-103528376D01*
X154167949Y-103509042D01*
X154161001Y-103490246D01*
X154153731Y-103471989D01*
X154146137Y-103454271D01*
X154138221Y-103437091D01*
X154129981Y-103420450D01*
X154121418Y-103404347D01*
X154112532Y-103388783D01*
X154103323Y-103373757D01*
X154093790Y-103359270D01*
X154083935Y-103345322D01*
X154073756Y-103331912D01*
X154063254Y-103319040D01*
X154052430Y-103306708D01*
X154041282Y-103294913D01*
X154029810Y-103283658D01*
X154017983Y-103272894D01*
X154005764Y-103262574D01*
X153993155Y-103252698D01*
X153980156Y-103243267D01*
X153966766Y-103234280D01*
X153952986Y-103225737D01*
X153938816Y-103217639D01*
X153924255Y-103209984D01*
X153909303Y-103202775D01*
X153893961Y-103196009D01*
X153878229Y-103189688D01*
X153862106Y-103183811D01*
X153845592Y-103178378D01*
X153828688Y-103173390D01*
X153811394Y-103168845D01*
X153793709Y-103164746D01*
X153779552Y-103161824D01*
X153763793Y-103159091D01*
X153727468Y-103154190D01*
X153684733Y-103150043D01*
X153635591Y-103146651D01*
X153580039Y-103144012D01*
X153518079Y-103142127D01*
X153449710Y-103140996D01*
X153374932Y-103140619D01*
X153145724Y-103140617D01*
X153145724Y-104814004D01*
X152635608Y-104814004D01*
X152635608Y-103140617D01*
X152635608Y-102713222D01*
X153567948Y-102713222D01*
X153644450Y-102713976D01*
G36*
X153644450Y-102713976D02*
G01*
X153716265Y-102716238D01*
X153783396Y-102720008D01*
X153845841Y-102725286D01*
X153903600Y-102732072D01*
X153956675Y-102740365D01*
X154005063Y-102750167D01*
X154048767Y-102761477D01*
X154076307Y-102770060D01*
X154103349Y-102779437D01*
X154129893Y-102789609D01*
X154155938Y-102800576D01*
X154181486Y-102812336D01*
X154206535Y-102824891D01*
X154231086Y-102838241D01*
X154255140Y-102852384D01*
X154278694Y-102867322D01*
X154301751Y-102883055D01*
X154324310Y-102899581D01*
X154346370Y-102916902D01*
X154367933Y-102935018D01*
X154388997Y-102953928D01*
X154409563Y-102973632D01*
X154429631Y-102994130D01*
X154449153Y-103015322D01*
X154468083Y-103037107D01*
X154486421Y-103059483D01*
X154504166Y-103082453D01*
X154521319Y-103106014D01*
X154537879Y-103130168D01*
X154553847Y-103154915D01*
X154569223Y-103180254D01*
X154584006Y-103206185D01*
X154598197Y-103232709D01*
X154611795Y-103259825D01*
X154624801Y-103287533D01*
X154637215Y-103315834D01*
X154649036Y-103344727D01*
X154660265Y-103374213D01*
X154670901Y-103404291D01*
X154680918Y-103434894D01*
X154690289Y-103466386D01*
X154699014Y-103498766D01*
X154707092Y-103532035D01*
X154714524Y-103566193D01*
X154721310Y-103601239D01*
X154727449Y-103637174D01*
X154732943Y-103673997D01*
X154737790Y-103711709D01*
X154741990Y-103750310D01*
X154748453Y-103830177D01*
X154752331Y-103913599D01*
X154753623Y-104000575D01*
X154752411Y-104077211D01*
X154748776Y-104151154D01*
X154742717Y-104222405D01*
X154734235Y-104290962D01*
X154723330Y-104356827D01*
X154710000Y-104420000D01*
X154694248Y-104480479D01*
X154685463Y-104509709D01*
X154676072Y-104538266D01*
X154663907Y-104572323D01*
X154651110Y-104605558D01*
X154637680Y-104637972D01*
X154623617Y-104669564D01*
X154608921Y-104700336D01*
X154593593Y-104730286D01*
X154577631Y-104759415D01*
X154561037Y-104787722D01*
X154543810Y-104815209D01*
X154525951Y-104841874D01*
X154507458Y-104867717D01*
X154488333Y-104892740D01*
X154468575Y-104916941D01*
X154448184Y-104940321D01*
X154427160Y-104962879D01*
X154405503Y-104984616D01*
X154388553Y-105000551D01*
X154370875Y-105016041D01*
X154352470Y-105031087D01*
X154333338Y-105045688D01*
X154313479Y-105059846D01*
X154292893Y-105073559D01*
X154271579Y-105086827D01*
X154249539Y-105099651D01*
X154226772Y-105112031D01*
X154203278Y-105123967D01*
X154179056Y-105135458D01*
X154154108Y-105146505D01*
X154128432Y-105157108D01*
X154102030Y-105167267D01*
X154074900Y-105176981D01*
X154047043Y-105186251D01*
X154025488Y-105192720D01*
X154003044Y-105198773D01*
X153979711Y-105204407D01*
X153955490Y-105209625D01*
X153930380Y-105214425D01*
X153904382Y-105218807D01*
X153877494Y-105222772D01*
X153849719Y-105226320D01*
X153791501Y-105232163D01*
X153729729Y-105236337D01*
X153664403Y-105238841D01*
X153595522Y-105239676D01*
X152635608Y-105239676D01*
X152635608Y-104814004D01*
X153145724Y-104814004D01*
X153526588Y-104814004D01*
X153578154Y-104813627D01*
X153626004Y-104812496D01*
X153670139Y-104810611D01*
X153710557Y-104807972D01*
X153747259Y-104804579D01*
X153780245Y-104800433D01*
X153809516Y-104795532D01*
X153835070Y-104789878D01*
X153850412Y-104785832D01*
X153865418Y-104781449D01*
X153880086Y-104776730D01*
X153894419Y-104771675D01*
X153908414Y-104766282D01*
X153922073Y-104760554D01*
X153935396Y-104754488D01*
X153948382Y-104748086D01*
X153961031Y-104741348D01*
X153973343Y-104734273D01*
X153985319Y-104726861D01*
X153996959Y-104719113D01*
X154008262Y-104711028D01*
X154019228Y-104702606D01*
X154029858Y-104693848D01*
X154040151Y-104684754D01*
X154050370Y-104675120D01*
X154060346Y-104664746D01*
X154070081Y-104653632D01*
X154079573Y-104641777D01*
X154088822Y-104629181D01*
X154097829Y-104615845D01*
X154106594Y-104601769D01*
X154115117Y-104586952D01*
X154123397Y-104571395D01*
X154131435Y-104555097D01*
X154139230Y-104538059D01*
X154146784Y-104520280D01*
X154154094Y-104501760D01*
X154161163Y-104482501D01*
X154167989Y-104462500D01*
X154174573Y-104441760D01*
X154180833Y-104419955D01*
X154186690Y-104397195D01*
X154192143Y-104373478D01*
X154197192Y-104348806D01*
X154201837Y-104323178D01*
X154206078Y-104296593D01*
X154213349Y-104240557D01*
X154219003Y-104180697D01*
X154223042Y-104117013D01*
X154225466Y-104049506D01*
X154226274Y-103978174D01*
X154225466Y-103907059D01*
X154223042Y-103840198D01*
X154219003Y-103777591D01*
X154213349Y-103719239D01*
X154206078Y-103665142D01*
X154197192Y-103615299D01*
X154186690Y-103569710D01*
X154174573Y-103528376D01*
X154167949Y-103509042D01*
X154161001Y-103490246D01*
X154153731Y-103471989D01*
X154146137Y-103454271D01*
X154138221Y-103437091D01*
X154129981Y-103420450D01*
X154121418Y-103404347D01*
X154112532Y-103388783D01*
X154103323Y-103373757D01*
X154093790Y-103359270D01*
X154083935Y-103345322D01*
X154073756Y-103331912D01*
X154063254Y-103319040D01*
X154052430Y-103306708D01*
X154041282Y-103294913D01*
X154029810Y-103283658D01*
X154017983Y-103272894D01*
X154005764Y-103262574D01*
X153993155Y-103252698D01*
X153980156Y-103243267D01*
X153966766Y-103234280D01*
X153952986Y-103225737D01*
X153938816Y-103217639D01*
X153924255Y-103209984D01*
X153909303Y-103202775D01*
X153893961Y-103196009D01*
X153878229Y-103189688D01*
X153862106Y-103183811D01*
X153845592Y-103178378D01*
X153828688Y-103173390D01*
X153811394Y-103168845D01*
X153793709Y-103164746D01*
X153779552Y-103161824D01*
X153763793Y-103159091D01*
X153727468Y-103154190D01*
X153684733Y-103150043D01*
X153635591Y-103146651D01*
X153580039Y-103144012D01*
X153518079Y-103142127D01*
X153449710Y-103140996D01*
X153374932Y-103140619D01*
X153145724Y-103140617D01*
X153145724Y-104814004D01*
X152635608Y-104814004D01*
X152635608Y-103140617D01*
X152635608Y-102713222D01*
X153567948Y-102713222D01*
X153644450Y-102713976D01*
G37*
X152419581Y-105239674D02*
X151909465Y-105239674D01*
X151909465Y-102713222D01*
X152419581Y-102713222D01*
X152419581Y-105239674D01*
G36*
X152419581Y-105239674D02*
G01*
X151909465Y-105239674D01*
X151909465Y-102713222D01*
X152419581Y-102713222D01*
X152419581Y-105239674D01*
G37*
D11*
%TO.C,REF\u002A\u002A*%
X81310000Y-71791723D03*
X182460000Y-71791723D03*
X81310000Y-109010000D03*
X182460000Y-109010000D03*
%TD*%
M02*
