G04 #@! TF.GenerationSoftware,KiCad,Pcbnew,9.0.0*
G04 #@! TF.CreationDate,2025-04-06T21:13:15-04:00*
G04 #@! TF.ProjectId,MiniCamel_riser,4d696e69-4361-46d6-956c-5f7269736572,2.1*
G04 #@! TF.SameCoordinates,PX16e3600PY6052340*
G04 #@! TF.FileFunction,Copper,L3,Inr*
G04 #@! TF.FilePolarity,Positive*
%FSLAX46Y46*%
G04 Gerber Fmt 4.6, Leading zero omitted, Abs format (unit mm)*
G04 Created by KiCad (PCBNEW 9.0.0) date 2025-04-06 21:13:15*
%MOMM*%
%LPD*%
G01*
G04 APERTURE LIST*
G04 #@! TA.AperFunction,ComponentPad*
%ADD10R,1.700000X1.700000*%
G04 #@! TD*
G04 #@! TA.AperFunction,ComponentPad*
%ADD11O,1.700000X1.700000*%
G04 #@! TD*
G04 #@! TA.AperFunction,ViaPad*
%ADD12C,0.460000*%
G04 #@! TD*
G04 #@! TA.AperFunction,ViaPad*
%ADD13C,0.450000*%
G04 #@! TD*
G04 #@! TA.AperFunction,Conductor*
%ADD14C,0.500000*%
G04 #@! TD*
G04 APERTURE END LIST*
D10*
X38790000Y12360000D03*
D11*
X38790000Y9820000D03*
X38790000Y4740000D03*
X38790000Y-340000D03*
X38790000Y-5420000D03*
X62250000Y9820000D03*
X62250000Y4740000D03*
D12*
X46910000Y860000D03*
X59120000Y-5790000D03*
X46430000Y-5790000D03*
X42650000Y9790000D03*
X43587500Y-482500D03*
X44195000Y5280000D03*
X48237044Y8995000D03*
X44180000Y9790000D03*
D13*
X41870000Y815000D03*
X41890000Y-1080000D03*
X45110000Y-890000D03*
X57810000Y-837168D03*
X52110000Y-2000000D03*
X49570000Y9080000D03*
X54173511Y7165000D03*
X43385000Y-3960000D03*
X56085000Y-3967956D03*
X50520000Y10545000D03*
X52040000Y-3240000D03*
X51420000Y5780000D03*
X51420000Y1060000D03*
X56860000Y5780000D03*
X45380000Y1810000D03*
X49170000Y5930000D03*
D14*
X39680000Y12360000D02*
X40270000Y12950000D01*
X38790000Y12360000D02*
X39680000Y12360000D01*
G04 #@! TA.AperFunction,Conductor*
G36*
X62979756Y13429492D02*
G01*
X63009914Y13429499D01*
X63029275Y13427976D01*
X63042726Y13425848D01*
X63092782Y13417927D01*
X63129687Y13405941D01*
X63178167Y13381245D01*
X63209564Y13358436D01*
X63248035Y13319965D01*
X63270843Y13288570D01*
X63295540Y13240090D01*
X63307527Y13203182D01*
X63317570Y13139708D01*
X63319032Y13124254D01*
X63319094Y13122282D01*
X63319088Y13090158D01*
X63320196Y13087481D01*
X63320629Y13073815D01*
X63320394Y13072910D01*
X63320691Y13069891D01*
X63320691Y10385827D01*
X63301006Y10318788D01*
X63248202Y10273033D01*
X63179044Y10263089D01*
X63115488Y10292114D01*
X63093589Y10316936D01*
X63009274Y10443120D01*
X63009271Y10443124D01*
X62873123Y10579272D01*
X62873119Y10579275D01*
X62713026Y10686247D01*
X62713013Y10686254D01*
X62535132Y10759934D01*
X62535128Y10759936D01*
X62535126Y10759936D01*
X62535122Y10759937D01*
X62535118Y10759938D01*
X62346279Y10797500D01*
X62346275Y10797500D01*
X62153725Y10797500D01*
X62153720Y10797500D01*
X61964881Y10759938D01*
X61964867Y10759934D01*
X61786986Y10686254D01*
X61786973Y10686247D01*
X61626880Y10579275D01*
X61626876Y10579272D01*
X61490728Y10443124D01*
X61490725Y10443120D01*
X61383753Y10283027D01*
X61383746Y10283014D01*
X61310066Y10105133D01*
X61310062Y10105119D01*
X61272500Y9916280D01*
X61272500Y9723721D01*
X61310062Y9534882D01*
X61310066Y9534868D01*
X61383746Y9356987D01*
X61383753Y9356974D01*
X61490725Y9196881D01*
X61490728Y9196877D01*
X61626876Y9060729D01*
X61626880Y9060726D01*
X61786973Y8953754D01*
X61786986Y8953747D01*
X61935806Y8892104D01*
X61964874Y8880064D01*
X62131177Y8846985D01*
X62153720Y8842501D01*
X62153724Y8842500D01*
X62153725Y8842500D01*
X62346276Y8842500D01*
X62346277Y8842501D01*
X62535126Y8880064D01*
X62713020Y8953750D01*
X62873120Y9060726D01*
X63009274Y9196880D01*
X63086876Y9313019D01*
X63093589Y9323065D01*
X63147201Y9367870D01*
X63216526Y9376577D01*
X63279554Y9346422D01*
X63316273Y9286979D01*
X63320691Y9254174D01*
X63320691Y5305827D01*
X63301006Y5238788D01*
X63248202Y5193033D01*
X63179044Y5183089D01*
X63115488Y5212114D01*
X63093589Y5236936D01*
X63009274Y5363120D01*
X63009271Y5363124D01*
X62873123Y5499272D01*
X62873119Y5499275D01*
X62713026Y5606247D01*
X62713013Y5606254D01*
X62535132Y5679934D01*
X62535128Y5679936D01*
X62535126Y5679936D01*
X62535122Y5679937D01*
X62535118Y5679938D01*
X62346279Y5717500D01*
X62346275Y5717500D01*
X62153725Y5717500D01*
X62153720Y5717500D01*
X61964881Y5679938D01*
X61964867Y5679934D01*
X61786986Y5606254D01*
X61786973Y5606247D01*
X61626880Y5499275D01*
X61626876Y5499272D01*
X61490728Y5363124D01*
X61490725Y5363120D01*
X61383753Y5203027D01*
X61383746Y5203014D01*
X61310066Y5025133D01*
X61310062Y5025119D01*
X61272500Y4836280D01*
X61272500Y4643721D01*
X61310062Y4454882D01*
X61310066Y4454868D01*
X61383746Y4276987D01*
X61383753Y4276974D01*
X61490725Y4116881D01*
X61490728Y4116877D01*
X61626876Y3980729D01*
X61626880Y3980726D01*
X61786973Y3873754D01*
X61786986Y3873747D01*
X61935806Y3812104D01*
X61964874Y3800064D01*
X62153720Y3762501D01*
X62153724Y3762500D01*
X62153725Y3762500D01*
X62346276Y3762500D01*
X62346277Y3762501D01*
X62535126Y3800064D01*
X62713020Y3873750D01*
X62873120Y3980726D01*
X63009274Y4116880D01*
X63069477Y4206979D01*
X63093589Y4243065D01*
X63147201Y4287870D01*
X63216526Y4296577D01*
X63279554Y4266422D01*
X63316273Y4206979D01*
X63320691Y4174174D01*
X63320691Y-6180642D01*
X63319164Y-6200041D01*
X63309105Y-6263548D01*
X63297117Y-6300443D01*
X63272409Y-6348936D01*
X63249604Y-6380324D01*
X63211118Y-6418809D01*
X63179731Y-6441613D01*
X63131245Y-6466317D01*
X63094348Y-6478305D01*
X63030794Y-6488370D01*
X63011401Y-6489896D01*
X62995529Y-6489896D01*
X62981313Y-6489896D01*
X62981311Y-6489896D01*
X62966877Y-6489897D01*
X62966876Y-6489896D01*
X62966874Y-6489897D01*
X39357015Y-6489897D01*
X39289976Y-6470212D01*
X39244221Y-6417408D01*
X39234277Y-6348250D01*
X39263302Y-6284694D01*
X39288124Y-6262795D01*
X39382040Y-6200041D01*
X39413120Y-6179274D01*
X39549274Y-6043120D01*
X39656250Y-5883020D01*
X39729936Y-5705126D01*
X39767500Y-5516275D01*
X39767500Y-5345683D01*
X61495500Y-5345683D01*
X61495500Y-5494316D01*
X61524493Y-5640072D01*
X61524495Y-5640080D01*
X61581371Y-5777391D01*
X61663939Y-5900964D01*
X61663945Y-5900971D01*
X61769028Y-6006054D01*
X61769035Y-6006060D01*
X61892608Y-6088628D01*
X61892609Y-6088628D01*
X61892610Y-6088629D01*
X62029920Y-6145505D01*
X62175683Y-6174499D01*
X62175687Y-6174500D01*
X62175688Y-6174500D01*
X62324313Y-6174500D01*
X62324314Y-6174499D01*
X62470080Y-6145505D01*
X62607390Y-6088629D01*
X62730966Y-6006059D01*
X62836059Y-5900966D01*
X62918629Y-5777390D01*
X62975505Y-5640080D01*
X63004500Y-5494312D01*
X63004500Y-5345688D01*
X62975505Y-5199920D01*
X62918629Y-5062610D01*
X62848045Y-4956973D01*
X62836060Y-4939035D01*
X62836054Y-4939028D01*
X62730971Y-4833945D01*
X62730964Y-4833939D01*
X62607391Y-4751371D01*
X62470080Y-4694495D01*
X62470072Y-4694493D01*
X62324316Y-4665500D01*
X62324312Y-4665500D01*
X62175688Y-4665500D01*
X62175683Y-4665500D01*
X62029927Y-4694493D01*
X62029919Y-4694495D01*
X61892608Y-4751371D01*
X61769035Y-4833939D01*
X61769028Y-4833945D01*
X61663945Y-4939028D01*
X61663939Y-4939035D01*
X61581371Y-5062608D01*
X61524495Y-5199919D01*
X61524493Y-5199927D01*
X61495500Y-5345683D01*
X39767500Y-5345683D01*
X39767500Y-5323725D01*
X39729936Y-5134874D01*
X39700003Y-5062610D01*
X39656253Y-4956986D01*
X39656246Y-4956973D01*
X39549274Y-4796880D01*
X39549271Y-4796876D01*
X39413123Y-4660728D01*
X39413119Y-4660725D01*
X39253026Y-4553753D01*
X39253013Y-4553746D01*
X39075132Y-4480066D01*
X39075128Y-4480064D01*
X39075126Y-4480064D01*
X39075122Y-4480063D01*
X39075118Y-4480062D01*
X38886279Y-4442500D01*
X38886275Y-4442500D01*
X38693725Y-4442500D01*
X38693720Y-4442500D01*
X38504881Y-4480062D01*
X38504867Y-4480066D01*
X38326986Y-4553746D01*
X38326973Y-4553753D01*
X38166880Y-4660725D01*
X38166876Y-4660728D01*
X38030728Y-4796876D01*
X38030725Y-4796880D01*
X37947131Y-4921987D01*
X37893518Y-4966792D01*
X37824193Y-4975499D01*
X37761166Y-4945344D01*
X37724447Y-4885901D01*
X37720029Y-4853096D01*
X37720029Y-3910038D01*
X43005500Y-3910038D01*
X43005500Y-4009962D01*
X43007632Y-4017917D01*
X43031362Y-4106481D01*
X43031363Y-4106484D01*
X43081321Y-4193015D01*
X43081323Y-4193018D01*
X43081324Y-4193019D01*
X43151981Y-4263676D01*
X43151982Y-4263677D01*
X43151984Y-4263678D01*
X43195249Y-4288657D01*
X43238518Y-4313638D01*
X43335038Y-4339500D01*
X43335040Y-4339500D01*
X43434960Y-4339500D01*
X43434962Y-4339500D01*
X43531482Y-4313638D01*
X43618019Y-4263676D01*
X43688676Y-4193019D01*
X43738638Y-4106482D01*
X43764500Y-4009962D01*
X43764500Y-3917994D01*
X55705500Y-3917994D01*
X55705500Y-4017918D01*
X55729231Y-4106482D01*
X55731362Y-4114437D01*
X55731363Y-4114440D01*
X55781321Y-4200971D01*
X55781323Y-4200974D01*
X55781324Y-4200975D01*
X55851981Y-4271632D01*
X55938518Y-4321594D01*
X56035038Y-4347456D01*
X56035040Y-4347456D01*
X56134960Y-4347456D01*
X56134962Y-4347456D01*
X56231482Y-4321594D01*
X56318019Y-4271632D01*
X56388676Y-4200975D01*
X56438638Y-4114438D01*
X56464500Y-4017918D01*
X56464500Y-3917994D01*
X56438638Y-3821474D01*
X56388676Y-3734937D01*
X56318019Y-3664280D01*
X56318018Y-3664279D01*
X56318015Y-3664277D01*
X56231484Y-3614319D01*
X56231483Y-3614318D01*
X56231482Y-3614318D01*
X56134962Y-3588456D01*
X56035038Y-3588456D01*
X55938518Y-3614318D01*
X55938515Y-3614319D01*
X55851984Y-3664277D01*
X55851979Y-3664281D01*
X55781325Y-3734935D01*
X55781321Y-3734940D01*
X55731363Y-3821471D01*
X55731362Y-3821474D01*
X55705500Y-3917994D01*
X43764500Y-3917994D01*
X43764500Y-3910038D01*
X43738638Y-3813518D01*
X43693271Y-3734940D01*
X43688678Y-3726984D01*
X43688674Y-3726979D01*
X43618020Y-3656325D01*
X43618015Y-3656321D01*
X43531484Y-3606363D01*
X43531483Y-3606362D01*
X43531482Y-3606362D01*
X43434962Y-3580500D01*
X43335038Y-3580500D01*
X43238518Y-3606362D01*
X43238515Y-3606363D01*
X43151984Y-3656321D01*
X43151979Y-3656325D01*
X43081325Y-3726979D01*
X43081321Y-3726984D01*
X43031363Y-3813515D01*
X43031362Y-3813518D01*
X43005500Y-3910038D01*
X37720029Y-3910038D01*
X37720029Y-2805683D01*
X38035500Y-2805683D01*
X38035500Y-2954316D01*
X38064493Y-3100072D01*
X38064495Y-3100080D01*
X38121371Y-3237391D01*
X38203939Y-3360964D01*
X38203945Y-3360971D01*
X38309028Y-3466054D01*
X38309035Y-3466060D01*
X38432604Y-3548626D01*
X38432608Y-3548628D01*
X38432609Y-3548628D01*
X38432610Y-3548629D01*
X38569920Y-3605505D01*
X38715683Y-3634499D01*
X38715687Y-3634500D01*
X38715688Y-3634500D01*
X38864313Y-3634500D01*
X38864314Y-3634499D01*
X39010080Y-3605505D01*
X39147390Y-3548629D01*
X39147392Y-3548627D01*
X39147396Y-3548626D01*
X39260548Y-3473020D01*
X39270966Y-3466059D01*
X39376059Y-3360966D01*
X39458629Y-3237390D01*
X39478243Y-3190038D01*
X51660500Y-3190038D01*
X51660500Y-3289962D01*
X51679527Y-3360971D01*
X51686362Y-3386481D01*
X51686363Y-3386484D01*
X51736321Y-3473015D01*
X51736323Y-3473018D01*
X51736324Y-3473019D01*
X51806981Y-3543676D01*
X51806982Y-3543677D01*
X51806984Y-3543678D01*
X51815558Y-3548628D01*
X51893518Y-3593638D01*
X51990038Y-3619500D01*
X51990040Y-3619500D01*
X52089960Y-3619500D01*
X52089962Y-3619500D01*
X52186482Y-3593638D01*
X52273019Y-3543676D01*
X52343676Y-3473019D01*
X52393638Y-3386482D01*
X52419500Y-3289962D01*
X52419500Y-3190038D01*
X52393638Y-3093518D01*
X52343676Y-3006981D01*
X52273019Y-2936324D01*
X52273018Y-2936323D01*
X52273015Y-2936321D01*
X52222199Y-2906983D01*
X52186484Y-2886363D01*
X52186483Y-2886362D01*
X52186482Y-2886362D01*
X52089962Y-2860500D01*
X51990038Y-2860500D01*
X51893518Y-2886362D01*
X51893515Y-2886363D01*
X51806984Y-2936321D01*
X51806979Y-2936325D01*
X51736325Y-3006979D01*
X51736321Y-3006984D01*
X51686363Y-3093515D01*
X51686362Y-3093518D01*
X51660500Y-3190038D01*
X39478243Y-3190038D01*
X39515505Y-3100080D01*
X39544500Y-2954312D01*
X39544500Y-2805688D01*
X39544499Y-2805683D01*
X61495500Y-2805683D01*
X61495500Y-2954316D01*
X61524493Y-3100072D01*
X61524495Y-3100080D01*
X61581371Y-3237391D01*
X61663939Y-3360964D01*
X61663945Y-3360971D01*
X61769028Y-3466054D01*
X61769035Y-3466060D01*
X61892604Y-3548626D01*
X61892608Y-3548628D01*
X61892609Y-3548628D01*
X61892610Y-3548629D01*
X62029920Y-3605505D01*
X62175683Y-3634499D01*
X62175687Y-3634500D01*
X62175688Y-3634500D01*
X62324313Y-3634500D01*
X62324314Y-3634499D01*
X62470080Y-3605505D01*
X62607390Y-3548629D01*
X62607392Y-3548627D01*
X62607396Y-3548626D01*
X62720548Y-3473020D01*
X62730966Y-3466059D01*
X62836059Y-3360966D01*
X62918629Y-3237390D01*
X62975505Y-3100080D01*
X63004500Y-2954312D01*
X63004500Y-2805688D01*
X62975505Y-2659920D01*
X62918629Y-2522610D01*
X62836059Y-2399034D01*
X62836054Y-2399028D01*
X62730971Y-2293945D01*
X62730964Y-2293939D01*
X62607391Y-2211371D01*
X62470080Y-2154495D01*
X62470072Y-2154493D01*
X62324316Y-2125500D01*
X62324312Y-2125500D01*
X62175688Y-2125500D01*
X62175683Y-2125500D01*
X62029927Y-2154493D01*
X62029919Y-2154495D01*
X61892608Y-2211371D01*
X61769035Y-2293939D01*
X61769028Y-2293945D01*
X61663945Y-2399028D01*
X61663939Y-2399035D01*
X61581371Y-2522608D01*
X61524495Y-2659919D01*
X61524493Y-2659927D01*
X61495500Y-2805683D01*
X39544499Y-2805683D01*
X39515505Y-2659920D01*
X39458629Y-2522610D01*
X39376059Y-2399034D01*
X39376054Y-2399028D01*
X39270971Y-2293945D01*
X39270964Y-2293939D01*
X39147391Y-2211371D01*
X39010080Y-2154495D01*
X39010072Y-2154493D01*
X38864316Y-2125500D01*
X38864312Y-2125500D01*
X38715688Y-2125500D01*
X38715683Y-2125500D01*
X38569927Y-2154493D01*
X38569919Y-2154495D01*
X38432608Y-2211371D01*
X38309035Y-2293939D01*
X38309028Y-2293945D01*
X38203945Y-2399028D01*
X38203939Y-2399035D01*
X38121371Y-2522608D01*
X38064495Y-2659919D01*
X38064493Y-2659927D01*
X38035500Y-2805683D01*
X37720029Y-2805683D01*
X37720029Y-1950038D01*
X51730500Y-1950038D01*
X51730500Y-2049961D01*
X51756362Y-2146481D01*
X51756363Y-2146484D01*
X51806321Y-2233015D01*
X51806323Y-2233018D01*
X51806324Y-2233019D01*
X51876981Y-2303676D01*
X51963518Y-2353638D01*
X52060038Y-2379500D01*
X52060040Y-2379500D01*
X52159960Y-2379500D01*
X52159962Y-2379500D01*
X52256482Y-2353638D01*
X52343019Y-2303676D01*
X52413676Y-2233019D01*
X52463638Y-2146482D01*
X52489500Y-2049962D01*
X52489500Y-1950038D01*
X52463638Y-1853518D01*
X52413676Y-1766981D01*
X52343019Y-1696324D01*
X52343018Y-1696323D01*
X52343015Y-1696321D01*
X52256484Y-1646363D01*
X52256483Y-1646362D01*
X52256482Y-1646362D01*
X52159962Y-1620500D01*
X52060038Y-1620500D01*
X51963518Y-1646362D01*
X51963515Y-1646363D01*
X51876984Y-1696321D01*
X51876979Y-1696325D01*
X51806325Y-1766979D01*
X51806321Y-1766984D01*
X51756363Y-1853515D01*
X51756362Y-1853518D01*
X51730500Y-1950038D01*
X37720029Y-1950038D01*
X37720029Y-906903D01*
X37739714Y-839864D01*
X37792518Y-794109D01*
X37861676Y-784165D01*
X37925232Y-813190D01*
X37947131Y-838012D01*
X38030725Y-963119D01*
X38030728Y-963123D01*
X38166876Y-1099271D01*
X38166880Y-1099274D01*
X38326973Y-1206246D01*
X38326986Y-1206253D01*
X38475806Y-1267896D01*
X38504874Y-1279936D01*
X38693720Y-1317499D01*
X38693724Y-1317500D01*
X38693725Y-1317500D01*
X38886276Y-1317500D01*
X38886277Y-1317499D01*
X39075126Y-1279936D01*
X39253020Y-1206250D01*
X39413120Y-1099274D01*
X39549274Y-963120D01*
X39631515Y-840038D01*
X44730500Y-840038D01*
X44730500Y-939962D01*
X44742207Y-983652D01*
X44756362Y-1036481D01*
X44756363Y-1036484D01*
X44806321Y-1123015D01*
X44806323Y-1123018D01*
X44806324Y-1123019D01*
X44876981Y-1193676D01*
X44963518Y-1243638D01*
X45060038Y-1269500D01*
X45060040Y-1269500D01*
X45159960Y-1269500D01*
X45159962Y-1269500D01*
X45256482Y-1243638D01*
X45343019Y-1193676D01*
X45413676Y-1123019D01*
X45463638Y-1036482D01*
X45489500Y-939962D01*
X45489500Y-840038D01*
X45475344Y-787206D01*
X57430500Y-787206D01*
X57430500Y-887130D01*
X57440930Y-926054D01*
X57456362Y-983649D01*
X57456363Y-983652D01*
X57506321Y-1070183D01*
X57506323Y-1070186D01*
X57506324Y-1070187D01*
X57576981Y-1140844D01*
X57663518Y-1190806D01*
X57760038Y-1216668D01*
X57760040Y-1216668D01*
X57859960Y-1216668D01*
X57859962Y-1216668D01*
X57956482Y-1190806D01*
X58043019Y-1140844D01*
X58113676Y-1070187D01*
X58163638Y-983650D01*
X58189500Y-887130D01*
X58189500Y-787206D01*
X58163638Y-690686D01*
X58125787Y-625126D01*
X58113678Y-604152D01*
X58113674Y-604147D01*
X58043020Y-533493D01*
X58043015Y-533489D01*
X57956484Y-483531D01*
X57956483Y-483530D01*
X57956482Y-483530D01*
X57859962Y-457668D01*
X57760038Y-457668D01*
X57663518Y-483530D01*
X57663515Y-483531D01*
X57576984Y-533489D01*
X57576979Y-533493D01*
X57506325Y-604147D01*
X57506321Y-604152D01*
X57456363Y-690683D01*
X57456362Y-690686D01*
X57430500Y-787206D01*
X45475344Y-787206D01*
X45463638Y-743518D01*
X45413676Y-656981D01*
X45343019Y-586324D01*
X45343018Y-586323D01*
X45343015Y-586321D01*
X45256484Y-536363D01*
X45256483Y-536362D01*
X45256482Y-536362D01*
X45159962Y-510500D01*
X45060038Y-510500D01*
X44963518Y-536362D01*
X44963515Y-536363D01*
X44876984Y-586321D01*
X44876979Y-586325D01*
X44806325Y-656979D01*
X44806321Y-656984D01*
X44756363Y-743515D01*
X44756362Y-743518D01*
X44730500Y-840038D01*
X39631515Y-840038D01*
X39656250Y-803020D01*
X39729936Y-625126D01*
X39767500Y-436275D01*
X39767500Y-435434D01*
X43230000Y-435434D01*
X43230000Y-529566D01*
X43254363Y-620490D01*
X43301429Y-702010D01*
X43367990Y-768571D01*
X43449510Y-815637D01*
X43540434Y-840000D01*
X43540436Y-840000D01*
X43634564Y-840000D01*
X43634566Y-840000D01*
X43725490Y-815637D01*
X43807010Y-768571D01*
X43873571Y-702010D01*
X43920637Y-620490D01*
X43945000Y-529566D01*
X43945000Y-435434D01*
X43920637Y-344510D01*
X43875126Y-265683D01*
X61495500Y-265683D01*
X61495500Y-414316D01*
X61524493Y-560072D01*
X61524495Y-560080D01*
X61581371Y-697391D01*
X61663939Y-820964D01*
X61663945Y-820971D01*
X61769028Y-926054D01*
X61769035Y-926060D01*
X61892608Y-1008628D01*
X61892609Y-1008628D01*
X61892610Y-1008629D01*
X62029920Y-1065505D01*
X62175683Y-1094499D01*
X62175687Y-1094500D01*
X62175688Y-1094500D01*
X62324313Y-1094500D01*
X62324314Y-1094499D01*
X62470080Y-1065505D01*
X62607390Y-1008629D01*
X62730966Y-926059D01*
X62836059Y-820966D01*
X62918629Y-697390D01*
X62975505Y-560080D01*
X63004500Y-414312D01*
X63004500Y-265688D01*
X62975505Y-119920D01*
X62918629Y17390D01*
X62848045Y123027D01*
X62836060Y140965D01*
X62836054Y140972D01*
X62730971Y246055D01*
X62730964Y246061D01*
X62607391Y328629D01*
X62470080Y385505D01*
X62470072Y385507D01*
X62324316Y414500D01*
X62324312Y414500D01*
X62175688Y414500D01*
X62175683Y414500D01*
X62029927Y385507D01*
X62029919Y385505D01*
X61892608Y328629D01*
X61769035Y246061D01*
X61769028Y246055D01*
X61663945Y140972D01*
X61663939Y140965D01*
X61581371Y17392D01*
X61524495Y-119919D01*
X61524493Y-119927D01*
X61495500Y-265683D01*
X43875126Y-265683D01*
X43873571Y-262990D01*
X43807010Y-196429D01*
X43725490Y-149363D01*
X43634566Y-125000D01*
X43540434Y-125000D01*
X43449509Y-149363D01*
X43367990Y-196429D01*
X43367987Y-196431D01*
X43301431Y-262987D01*
X43301429Y-262990D01*
X43254363Y-344509D01*
X43230000Y-435434D01*
X39767500Y-435434D01*
X39767500Y-243725D01*
X39729936Y-54874D01*
X39700003Y17390D01*
X39656253Y123014D01*
X39656246Y123027D01*
X39549274Y283120D01*
X39549271Y283124D01*
X39413123Y419272D01*
X39413119Y419275D01*
X39253026Y526247D01*
X39253013Y526254D01*
X39075132Y599934D01*
X39075128Y599936D01*
X39075126Y599936D01*
X39075122Y599937D01*
X39075118Y599938D01*
X38886279Y637500D01*
X38886275Y637500D01*
X38693725Y637500D01*
X38693720Y637500D01*
X38504881Y599938D01*
X38504867Y599934D01*
X38326986Y526254D01*
X38326973Y526247D01*
X38166880Y419275D01*
X38166876Y419272D01*
X38030728Y283124D01*
X38030725Y283120D01*
X37947131Y158013D01*
X37893518Y113208D01*
X37824193Y104501D01*
X37761166Y134656D01*
X37724447Y194099D01*
X37720029Y226904D01*
X37720029Y907066D01*
X46552500Y907066D01*
X46552500Y812934D01*
X46576863Y722010D01*
X46623929Y640490D01*
X46690490Y573929D01*
X46772010Y526863D01*
X46862934Y502500D01*
X46862936Y502500D01*
X46957064Y502500D01*
X46957066Y502500D01*
X47047990Y526863D01*
X47129510Y573929D01*
X47196071Y640490D01*
X47243137Y722010D01*
X47267500Y812934D01*
X47267500Y907066D01*
X47243137Y997990D01*
X47236180Y1010039D01*
X47209594Y1056088D01*
X47209593Y1056089D01*
X47196071Y1079510D01*
X47165619Y1109962D01*
X51040500Y1109962D01*
X51040500Y1010038D01*
X51043728Y997993D01*
X51066362Y913519D01*
X51066363Y913516D01*
X51116321Y826985D01*
X51116323Y826982D01*
X51116324Y826981D01*
X51186981Y756324D01*
X51273518Y706362D01*
X51370038Y680500D01*
X51370040Y680500D01*
X51469960Y680500D01*
X51469962Y680500D01*
X51566482Y706362D01*
X51653019Y756324D01*
X51723676Y826981D01*
X51773638Y913518D01*
X51799500Y1010038D01*
X51799500Y1109962D01*
X51773638Y1206482D01*
X51723676Y1293019D01*
X51653019Y1363676D01*
X51653018Y1363677D01*
X51653015Y1363679D01*
X51566484Y1413637D01*
X51566483Y1413638D01*
X51566482Y1413638D01*
X51469962Y1439500D01*
X51370038Y1439500D01*
X51273518Y1413638D01*
X51273515Y1413637D01*
X51186984Y1363679D01*
X51186979Y1363675D01*
X51116325Y1293021D01*
X51116321Y1293016D01*
X51066363Y1206485D01*
X51066362Y1206482D01*
X51040500Y1109962D01*
X47165619Y1109962D01*
X47129510Y1146071D01*
X47047990Y1193137D01*
X46957066Y1217500D01*
X46862934Y1217500D01*
X46772009Y1193137D01*
X46690490Y1146071D01*
X46690487Y1146069D01*
X46623931Y1079513D01*
X46623929Y1079510D01*
X46576863Y997991D01*
X46576863Y997990D01*
X46552500Y907066D01*
X37720029Y907066D01*
X37720029Y2274317D01*
X38035500Y2274317D01*
X38035500Y2125684D01*
X38064493Y1979928D01*
X38064495Y1979920D01*
X38121371Y1842609D01*
X38203939Y1719036D01*
X38203945Y1719029D01*
X38309028Y1613946D01*
X38309035Y1613940D01*
X38432608Y1531372D01*
X38432609Y1531372D01*
X38432610Y1531371D01*
X38569920Y1474495D01*
X38715683Y1445501D01*
X38715687Y1445500D01*
X38715688Y1445500D01*
X38864313Y1445500D01*
X38864314Y1445501D01*
X39010080Y1474495D01*
X39147390Y1531371D01*
X39270966Y1613941D01*
X39376059Y1719034D01*
X39458629Y1842610D01*
X39465816Y1859962D01*
X45000500Y1859962D01*
X45000500Y1760038D01*
X45011487Y1719036D01*
X45026362Y1663519D01*
X45026363Y1663516D01*
X45076321Y1576985D01*
X45076323Y1576982D01*
X45076324Y1576981D01*
X45146981Y1506324D01*
X45233518Y1456362D01*
X45330038Y1430500D01*
X45330040Y1430500D01*
X45429960Y1430500D01*
X45429962Y1430500D01*
X45526482Y1456362D01*
X45613019Y1506324D01*
X45683676Y1576981D01*
X45733638Y1663518D01*
X45759500Y1760038D01*
X45759500Y1859962D01*
X45733638Y1956482D01*
X45683676Y2043019D01*
X45613019Y2113676D01*
X45613018Y2113677D01*
X45613015Y2113679D01*
X45526484Y2163637D01*
X45526482Y2163638D01*
X45429962Y2189500D01*
X45330038Y2189500D01*
X45233518Y2163638D01*
X45233515Y2163637D01*
X45146984Y2113679D01*
X45146979Y2113675D01*
X45076325Y2043021D01*
X45076321Y2043016D01*
X45026363Y1956485D01*
X45026362Y1956482D01*
X45000500Y1859962D01*
X39465816Y1859962D01*
X39515505Y1979920D01*
X39544500Y2125688D01*
X39544500Y2274312D01*
X39544499Y2274317D01*
X61495500Y2274317D01*
X61495500Y2125684D01*
X61524493Y1979928D01*
X61524495Y1979920D01*
X61581371Y1842609D01*
X61663939Y1719036D01*
X61663945Y1719029D01*
X61769028Y1613946D01*
X61769035Y1613940D01*
X61892608Y1531372D01*
X61892609Y1531372D01*
X61892610Y1531371D01*
X62029920Y1474495D01*
X62175683Y1445501D01*
X62175687Y1445500D01*
X62175688Y1445500D01*
X62324313Y1445500D01*
X62324314Y1445501D01*
X62470080Y1474495D01*
X62607390Y1531371D01*
X62730966Y1613941D01*
X62836059Y1719034D01*
X62918629Y1842610D01*
X62975505Y1979920D01*
X63004500Y2125688D01*
X63004500Y2274312D01*
X62975505Y2420080D01*
X62918629Y2557390D01*
X62836059Y2680966D01*
X62836054Y2680972D01*
X62730971Y2786055D01*
X62730964Y2786061D01*
X62607391Y2868629D01*
X62470080Y2925505D01*
X62470072Y2925507D01*
X62324316Y2954500D01*
X62324312Y2954500D01*
X62175688Y2954500D01*
X62175683Y2954500D01*
X62029927Y2925507D01*
X62029919Y2925505D01*
X61892608Y2868629D01*
X61769035Y2786061D01*
X61769028Y2786055D01*
X61663945Y2680972D01*
X61663939Y2680965D01*
X61581371Y2557392D01*
X61524495Y2420081D01*
X61524493Y2420073D01*
X61495500Y2274317D01*
X39544499Y2274317D01*
X39515505Y2420080D01*
X39458629Y2557390D01*
X39376059Y2680966D01*
X39376054Y2680972D01*
X39270971Y2786055D01*
X39270964Y2786061D01*
X39147391Y2868629D01*
X39010080Y2925505D01*
X39010072Y2925507D01*
X38864316Y2954500D01*
X38864312Y2954500D01*
X38715688Y2954500D01*
X38715683Y2954500D01*
X38569927Y2925507D01*
X38569919Y2925505D01*
X38432608Y2868629D01*
X38309035Y2786061D01*
X38309028Y2786055D01*
X38203945Y2680972D01*
X38203939Y2680965D01*
X38121371Y2557392D01*
X38064495Y2420081D01*
X38064493Y2420073D01*
X38035500Y2274317D01*
X37720029Y2274317D01*
X37720029Y4173097D01*
X37739714Y4240136D01*
X37792518Y4285891D01*
X37861676Y4295835D01*
X37925232Y4266810D01*
X37947131Y4241988D01*
X38030725Y4116881D01*
X38030728Y4116877D01*
X38166876Y3980729D01*
X38166880Y3980726D01*
X38326973Y3873754D01*
X38326986Y3873747D01*
X38475806Y3812104D01*
X38504874Y3800064D01*
X38693720Y3762501D01*
X38693724Y3762500D01*
X38693725Y3762500D01*
X38886276Y3762500D01*
X38886277Y3762501D01*
X39075126Y3800064D01*
X39253020Y3873750D01*
X39413120Y3980726D01*
X39549274Y4116880D01*
X39656250Y4276980D01*
X39729936Y4454874D01*
X39767500Y4643725D01*
X39767500Y4836275D01*
X39729936Y5025126D01*
X39660387Y5193033D01*
X39656253Y5203014D01*
X39656246Y5203027D01*
X39613967Y5266302D01*
X39573365Y5327066D01*
X43837500Y5327066D01*
X43837500Y5232934D01*
X43861863Y5142010D01*
X43908929Y5060490D01*
X43975490Y4993929D01*
X44057010Y4946863D01*
X44147934Y4922500D01*
X44147936Y4922500D01*
X44242064Y4922500D01*
X44242066Y4922500D01*
X44332990Y4946863D01*
X44414510Y4993929D01*
X44481071Y5060490D01*
X44528137Y5142010D01*
X44552500Y5232934D01*
X44552500Y5327066D01*
X44528137Y5417990D01*
X44481071Y5499510D01*
X44414510Y5566071D01*
X44332990Y5613137D01*
X44242066Y5637500D01*
X44147934Y5637500D01*
X44057009Y5613137D01*
X43975490Y5566071D01*
X43975487Y5566069D01*
X43908931Y5499513D01*
X43908929Y5499510D01*
X43861863Y5417991D01*
X43847162Y5363124D01*
X43837500Y5327066D01*
X39573365Y5327066D01*
X39549274Y5363120D01*
X39549271Y5363124D01*
X39413123Y5499272D01*
X39413119Y5499275D01*
X39253026Y5606247D01*
X39253013Y5606254D01*
X39075132Y5679934D01*
X39075128Y5679936D01*
X39075126Y5679936D01*
X39075122Y5679937D01*
X39075118Y5679938D01*
X38886279Y5717500D01*
X38886275Y5717500D01*
X38693725Y5717500D01*
X38693720Y5717500D01*
X38504881Y5679938D01*
X38504867Y5679934D01*
X38326986Y5606254D01*
X38326973Y5606247D01*
X38166880Y5499275D01*
X38166876Y5499272D01*
X38030728Y5363124D01*
X38030725Y5363120D01*
X37947131Y5238013D01*
X37893518Y5193208D01*
X37824193Y5184501D01*
X37761166Y5214656D01*
X37724447Y5274099D01*
X37720029Y5306904D01*
X37720029Y5979962D01*
X48790500Y5979962D01*
X48790500Y5880038D01*
X48790501Y5880037D01*
X48816362Y5783519D01*
X48816363Y5783516D01*
X48866321Y5696985D01*
X48866323Y5696982D01*
X48866324Y5696981D01*
X48936981Y5626324D01*
X48936982Y5626323D01*
X48936984Y5626322D01*
X48971743Y5606254D01*
X49023518Y5576362D01*
X49120038Y5550500D01*
X49120040Y5550500D01*
X49219960Y5550500D01*
X49219962Y5550500D01*
X49316482Y5576362D01*
X49403019Y5626324D01*
X49473676Y5696981D01*
X49523638Y5783518D01*
X49536082Y5829962D01*
X51040500Y5829962D01*
X51040500Y5730038D01*
X51049358Y5696981D01*
X51066362Y5633519D01*
X51066363Y5633516D01*
X51116321Y5546985D01*
X51116323Y5546982D01*
X51116324Y5546981D01*
X51186981Y5476324D01*
X51273518Y5426362D01*
X51370038Y5400500D01*
X51370040Y5400500D01*
X51469960Y5400500D01*
X51469962Y5400500D01*
X51566482Y5426362D01*
X51653019Y5476324D01*
X51723676Y5546981D01*
X51773638Y5633518D01*
X51799500Y5730038D01*
X51799500Y5829962D01*
X56480500Y5829962D01*
X56480500Y5730038D01*
X56489358Y5696981D01*
X56506362Y5633519D01*
X56506363Y5633516D01*
X56556321Y5546985D01*
X56556323Y5546982D01*
X56556324Y5546981D01*
X56626981Y5476324D01*
X56713518Y5426362D01*
X56810038Y5400500D01*
X56810040Y5400500D01*
X56909960Y5400500D01*
X56909962Y5400500D01*
X57006482Y5426362D01*
X57093019Y5476324D01*
X57163676Y5546981D01*
X57213638Y5633518D01*
X57239500Y5730038D01*
X57239500Y5829962D01*
X57213638Y5926482D01*
X57163676Y6013019D01*
X57093019Y6083676D01*
X57093018Y6083677D01*
X57093015Y6083679D01*
X57006484Y6133637D01*
X57006483Y6133638D01*
X57006482Y6133638D01*
X56909962Y6159500D01*
X56810038Y6159500D01*
X56713518Y6133638D01*
X56713515Y6133637D01*
X56626984Y6083679D01*
X56626979Y6083675D01*
X56556325Y6013021D01*
X56556321Y6013016D01*
X56506363Y5926485D01*
X56506362Y5926482D01*
X56480500Y5829962D01*
X51799500Y5829962D01*
X51773638Y5926482D01*
X51723676Y6013019D01*
X51653019Y6083676D01*
X51653018Y6083677D01*
X51653015Y6083679D01*
X51566484Y6133637D01*
X51566483Y6133638D01*
X51566482Y6133638D01*
X51469962Y6159500D01*
X51370038Y6159500D01*
X51273518Y6133638D01*
X51273515Y6133637D01*
X51186984Y6083679D01*
X51186979Y6083675D01*
X51116325Y6013021D01*
X51116321Y6013016D01*
X51066363Y5926485D01*
X51066362Y5926482D01*
X51040500Y5829962D01*
X49536082Y5829962D01*
X49549500Y5880038D01*
X49549500Y5979962D01*
X49523638Y6076482D01*
X49473676Y6163019D01*
X49403019Y6233676D01*
X49403018Y6233677D01*
X49403015Y6233679D01*
X49316484Y6283637D01*
X49316483Y6283638D01*
X49316482Y6283638D01*
X49219962Y6309500D01*
X49120038Y6309500D01*
X49023518Y6283638D01*
X49023515Y6283637D01*
X48936984Y6233679D01*
X48936979Y6233675D01*
X48866325Y6163021D01*
X48866321Y6163016D01*
X48816363Y6076485D01*
X48816362Y6076482D01*
X48790500Y5979962D01*
X37720029Y5979962D01*
X37720029Y7354317D01*
X38035500Y7354317D01*
X38035500Y7205684D01*
X38064493Y7059928D01*
X38064495Y7059920D01*
X38121371Y6922609D01*
X38203939Y6799036D01*
X38203945Y6799029D01*
X38309028Y6693946D01*
X38309035Y6693940D01*
X38432608Y6611372D01*
X38432609Y6611372D01*
X38432610Y6611371D01*
X38569920Y6554495D01*
X38715683Y6525501D01*
X38715687Y6525500D01*
X38715688Y6525500D01*
X38864313Y6525500D01*
X38864314Y6525501D01*
X39010080Y6554495D01*
X39147390Y6611371D01*
X39270966Y6693941D01*
X39376059Y6799034D01*
X39458629Y6922610D01*
X39515505Y7059920D01*
X39544500Y7205688D01*
X39544500Y7214962D01*
X53794011Y7214962D01*
X53794011Y7115038D01*
X53808778Y7059928D01*
X53819873Y7018519D01*
X53819874Y7018516D01*
X53869832Y6931985D01*
X53869834Y6931982D01*
X53869835Y6931981D01*
X53940492Y6861324D01*
X54027029Y6811362D01*
X54123549Y6785500D01*
X54123551Y6785500D01*
X54223471Y6785500D01*
X54223473Y6785500D01*
X54319993Y6811362D01*
X54406530Y6861324D01*
X54477187Y6931981D01*
X54527149Y7018518D01*
X54553011Y7115038D01*
X54553011Y7214962D01*
X54527149Y7311482D01*
X54502418Y7354317D01*
X61495500Y7354317D01*
X61495500Y7205684D01*
X61524493Y7059928D01*
X61524495Y7059920D01*
X61581371Y6922609D01*
X61663939Y6799036D01*
X61663945Y6799029D01*
X61769028Y6693946D01*
X61769035Y6693940D01*
X61892608Y6611372D01*
X61892609Y6611372D01*
X61892610Y6611371D01*
X62029920Y6554495D01*
X62175683Y6525501D01*
X62175687Y6525500D01*
X62175688Y6525500D01*
X62324313Y6525500D01*
X62324314Y6525501D01*
X62470080Y6554495D01*
X62607390Y6611371D01*
X62730966Y6693941D01*
X62836059Y6799034D01*
X62918629Y6922610D01*
X62975505Y7059920D01*
X63004500Y7205688D01*
X63004500Y7354312D01*
X62975505Y7500080D01*
X62918629Y7637390D01*
X62836059Y7760966D01*
X62836054Y7760972D01*
X62730971Y7866055D01*
X62730964Y7866061D01*
X62607391Y7948629D01*
X62470080Y8005505D01*
X62470072Y8005507D01*
X62324316Y8034500D01*
X62324312Y8034500D01*
X62175688Y8034500D01*
X62175683Y8034500D01*
X62029927Y8005507D01*
X62029919Y8005505D01*
X61892608Y7948629D01*
X61769035Y7866061D01*
X61769028Y7866055D01*
X61663945Y7760972D01*
X61663939Y7760965D01*
X61581371Y7637392D01*
X61524495Y7500081D01*
X61524493Y7500073D01*
X61495500Y7354317D01*
X54502418Y7354317D01*
X54477187Y7398019D01*
X54406530Y7468676D01*
X54406529Y7468677D01*
X54406526Y7468679D01*
X54319995Y7518637D01*
X54319994Y7518638D01*
X54319993Y7518638D01*
X54223473Y7544500D01*
X54123549Y7544500D01*
X54027029Y7518638D01*
X54027026Y7518637D01*
X53940495Y7468679D01*
X53940490Y7468675D01*
X53869836Y7398021D01*
X53869832Y7398016D01*
X53819874Y7311485D01*
X53819873Y7311482D01*
X53794011Y7214962D01*
X39544500Y7214962D01*
X39544500Y7354312D01*
X39515505Y7500080D01*
X39458629Y7637390D01*
X39376059Y7760966D01*
X39376054Y7760972D01*
X39270971Y7866055D01*
X39270964Y7866061D01*
X39147391Y7948629D01*
X39010080Y8005505D01*
X39010072Y8005507D01*
X38864316Y8034500D01*
X38864312Y8034500D01*
X38715688Y8034500D01*
X38715683Y8034500D01*
X38569927Y8005507D01*
X38569919Y8005505D01*
X38432608Y7948629D01*
X38309035Y7866061D01*
X38309028Y7866055D01*
X38203945Y7760972D01*
X38203939Y7760965D01*
X38121371Y7637392D01*
X38064495Y7500081D01*
X38064493Y7500073D01*
X38035500Y7354317D01*
X37720029Y7354317D01*
X37720029Y9253097D01*
X37739714Y9320136D01*
X37792518Y9365891D01*
X37861676Y9375835D01*
X37925232Y9346810D01*
X37947131Y9321988D01*
X38030725Y9196881D01*
X38030728Y9196877D01*
X38166876Y9060729D01*
X38166880Y9060726D01*
X38326973Y8953754D01*
X38326986Y8953747D01*
X38475806Y8892104D01*
X38504874Y8880064D01*
X38671177Y8846985D01*
X38693720Y8842501D01*
X38693724Y8842500D01*
X38693725Y8842500D01*
X38886276Y8842500D01*
X38886277Y8842501D01*
X39075126Y8880064D01*
X39253020Y8953750D01*
X39385193Y9042066D01*
X47879544Y9042066D01*
X47879544Y8947934D01*
X47903907Y8857010D01*
X47950973Y8775490D01*
X48017534Y8708929D01*
X48099054Y8661863D01*
X48189978Y8637500D01*
X48189980Y8637500D01*
X48284108Y8637500D01*
X48284110Y8637500D01*
X48375034Y8661863D01*
X48456554Y8708929D01*
X48523115Y8775490D01*
X48570181Y8857010D01*
X48594544Y8947934D01*
X48594544Y9042066D01*
X48570992Y9129962D01*
X49190500Y9129962D01*
X49190500Y9030038D01*
X49212500Y8947934D01*
X49216362Y8933519D01*
X49216363Y8933516D01*
X49266321Y8846985D01*
X49266323Y8846982D01*
X49266324Y8846981D01*
X49336981Y8776324D01*
X49336982Y8776323D01*
X49336984Y8776322D01*
X49338429Y8775488D01*
X49423518Y8726362D01*
X49520038Y8700500D01*
X49520040Y8700500D01*
X49619960Y8700500D01*
X49619962Y8700500D01*
X49716482Y8726362D01*
X49803019Y8776324D01*
X49873676Y8846981D01*
X49923638Y8933518D01*
X49949500Y9030038D01*
X49949500Y9129962D01*
X49923638Y9226482D01*
X49873676Y9313019D01*
X49803019Y9383676D01*
X49803018Y9383677D01*
X49803015Y9383679D01*
X49716484Y9433637D01*
X49716483Y9433638D01*
X49716482Y9433638D01*
X49619962Y9459500D01*
X49520038Y9459500D01*
X49423518Y9433638D01*
X49423515Y9433637D01*
X49336984Y9383679D01*
X49336979Y9383675D01*
X49266325Y9313021D01*
X49266321Y9313016D01*
X49216363Y9226485D01*
X49216362Y9226482D01*
X49190500Y9129962D01*
X48570992Y9129962D01*
X48570181Y9132990D01*
X48523115Y9214510D01*
X48456554Y9281071D01*
X48375034Y9328137D01*
X48284110Y9352500D01*
X48189978Y9352500D01*
X48099053Y9328137D01*
X48017534Y9281071D01*
X48017531Y9281069D01*
X47950975Y9214513D01*
X47950973Y9214510D01*
X47903907Y9132991D01*
X47903095Y9129960D01*
X47879544Y9042066D01*
X39385193Y9042066D01*
X39413120Y9060726D01*
X39413123Y9060729D01*
X39490269Y9137874D01*
X39549271Y9196877D01*
X39549274Y9196880D01*
X39656250Y9356980D01*
X39729936Y9534874D01*
X39767500Y9723725D01*
X39767500Y9837066D01*
X42292500Y9837066D01*
X42292500Y9742934D01*
X42316863Y9652010D01*
X42363929Y9570490D01*
X42430490Y9503929D01*
X42512010Y9456863D01*
X42602934Y9432500D01*
X42602936Y9432500D01*
X42697064Y9432500D01*
X42697066Y9432500D01*
X42787990Y9456863D01*
X42869510Y9503929D01*
X42936071Y9570490D01*
X42983137Y9652010D01*
X43007500Y9742934D01*
X43007500Y9837066D01*
X43822500Y9837066D01*
X43822500Y9742934D01*
X43846863Y9652010D01*
X43893929Y9570490D01*
X43960490Y9503929D01*
X44042010Y9456863D01*
X44132934Y9432500D01*
X44132936Y9432500D01*
X44227064Y9432500D01*
X44227066Y9432500D01*
X44317990Y9456863D01*
X44399510Y9503929D01*
X44466071Y9570490D01*
X44513137Y9652010D01*
X44537500Y9742934D01*
X44537500Y9837066D01*
X44513137Y9927990D01*
X44466071Y10009510D01*
X44399510Y10076071D01*
X44317990Y10123137D01*
X44227066Y10147500D01*
X44132934Y10147500D01*
X44042009Y10123137D01*
X43960490Y10076071D01*
X43960487Y10076069D01*
X43893931Y10009513D01*
X43893929Y10009510D01*
X43846863Y9927991D01*
X43846863Y9927990D01*
X43822500Y9837066D01*
X43007500Y9837066D01*
X42983137Y9927990D01*
X42936071Y10009510D01*
X42869510Y10076071D01*
X42787990Y10123137D01*
X42697066Y10147500D01*
X42602934Y10147500D01*
X42512009Y10123137D01*
X42430490Y10076071D01*
X42430487Y10076069D01*
X42363931Y10009513D01*
X42363929Y10009510D01*
X42316863Y9927991D01*
X42316863Y9927990D01*
X42292500Y9837066D01*
X39767500Y9837066D01*
X39767500Y9916275D01*
X39729936Y10105126D01*
X39673521Y10241324D01*
X39656253Y10283014D01*
X39656246Y10283027D01*
X39549274Y10443120D01*
X39549271Y10443124D01*
X39413123Y10579272D01*
X39413119Y10579275D01*
X39389642Y10594962D01*
X50140500Y10594962D01*
X50140500Y10495039D01*
X50166362Y10398519D01*
X50166363Y10398516D01*
X50216321Y10311985D01*
X50216323Y10311982D01*
X50216324Y10311981D01*
X50286981Y10241324D01*
X50373518Y10191362D01*
X50470038Y10165500D01*
X50470040Y10165500D01*
X50569960Y10165500D01*
X50569962Y10165500D01*
X50666482Y10191362D01*
X50753019Y10241324D01*
X50823676Y10311981D01*
X50873638Y10398518D01*
X50899500Y10495038D01*
X50899500Y10594962D01*
X50873638Y10691482D01*
X50848657Y10734751D01*
X50823678Y10778016D01*
X50823674Y10778021D01*
X50753020Y10848675D01*
X50753015Y10848679D01*
X50666484Y10898637D01*
X50666483Y10898638D01*
X50666482Y10898638D01*
X50569962Y10924500D01*
X50470038Y10924500D01*
X50373518Y10898638D01*
X50373515Y10898637D01*
X50286984Y10848679D01*
X50286979Y10848675D01*
X50216325Y10778021D01*
X50216321Y10778016D01*
X50166363Y10691485D01*
X50166362Y10691482D01*
X50140500Y10594962D01*
X39389642Y10594962D01*
X39253026Y10686247D01*
X39253013Y10686254D01*
X39075132Y10759934D01*
X39075128Y10759936D01*
X39075126Y10759936D01*
X39075122Y10759937D01*
X39075118Y10759938D01*
X39052771Y10764383D01*
X38990860Y10796768D01*
X38956286Y10857483D01*
X38960025Y10927253D01*
X39000892Y10983925D01*
X39065910Y11009506D01*
X39076962Y11010000D01*
X39687828Y11010000D01*
X39687844Y11010001D01*
X39747372Y11016402D01*
X39771169Y11025279D01*
X38919410Y11877038D01*
X38982993Y11894075D01*
X39097007Y11959901D01*
X39190099Y12052993D01*
X39255925Y12167007D01*
X39272962Y12230590D01*
X40124721Y11378831D01*
X40133598Y11402628D01*
X40139999Y11462156D01*
X40140000Y11462173D01*
X40140000Y12434317D01*
X61495500Y12434317D01*
X61495500Y12285684D01*
X61524493Y12139928D01*
X61524495Y12139920D01*
X61581371Y12002609D01*
X61663939Y11879036D01*
X61663945Y11879029D01*
X61769028Y11773946D01*
X61769035Y11773940D01*
X61892608Y11691372D01*
X61892609Y11691372D01*
X61892610Y11691371D01*
X62029920Y11634495D01*
X62175683Y11605501D01*
X62175687Y11605500D01*
X62175688Y11605500D01*
X62324313Y11605500D01*
X62324314Y11605501D01*
X62470080Y11634495D01*
X62607390Y11691371D01*
X62730966Y11773941D01*
X62836059Y11879034D01*
X62918629Y12002610D01*
X62975505Y12139920D01*
X63004500Y12285688D01*
X63004500Y12434312D01*
X62975505Y12580080D01*
X62918629Y12717390D01*
X62836059Y12840966D01*
X62836054Y12840972D01*
X62730971Y12946055D01*
X62730964Y12946061D01*
X62607391Y13028629D01*
X62470080Y13085505D01*
X62470072Y13085507D01*
X62324316Y13114500D01*
X62324312Y13114500D01*
X62175688Y13114500D01*
X62175683Y13114500D01*
X62029927Y13085507D01*
X62029919Y13085505D01*
X61892608Y13028629D01*
X61769035Y12946061D01*
X61769028Y12946055D01*
X61663945Y12840972D01*
X61663939Y12840965D01*
X61581371Y12717392D01*
X61524495Y12580081D01*
X61524493Y12580073D01*
X61495500Y12434317D01*
X40140000Y12434317D01*
X40140000Y13257828D01*
X40139999Y13257840D01*
X40136300Y13292242D01*
X40148704Y13361002D01*
X40196313Y13412140D01*
X40259589Y13429500D01*
X62967332Y13429500D01*
X62979737Y13429500D01*
X62979756Y13429492D01*
G37*
G04 #@! TD.AperFunction*
M02*
