G04 #@! TF.GenerationSoftware,KiCad,Pcbnew,9.0.0*
G04 #@! TF.CreationDate,2025-04-06T21:13:16-04:00*
G04 #@! TF.ProjectId,MiniCamel_riser,4d696e69-4361-46d6-956c-5f7269736572,2.1*
G04 #@! TF.SameCoordinates,PX16e3600PY6052340*
G04 #@! TF.FileFunction,Legend,Bot*
G04 #@! TF.FilePolarity,Positive*
%FSLAX46Y46*%
G04 Gerber Fmt 4.6, Leading zero omitted, Abs format (unit mm)*
G04 Created by KiCad (PCBNEW 9.0.0) date 2025-04-06 21:13:16*
%MOMM*%
%LPD*%
G01*
G04 APERTURE LIST*
G04 Aperture macros list*
%AMRoundRect*
0 Rectangle with rounded corners*
0 $1 Rounding radius*
0 $2 $3 $4 $5 $6 $7 $8 $9 X,Y pos of 4 corners*
0 Add a 4 corners polygon primitive as box body*
4,1,4,$2,$3,$4,$5,$6,$7,$8,$9,$2,$3,0*
0 Add four circle primitives for the rounded corners*
1,1,$1+$1,$2,$3*
1,1,$1+$1,$4,$5*
1,1,$1+$1,$6,$7*
1,1,$1+$1,$8,$9*
0 Add four rect primitives between the rounded corners*
20,1,$1+$1,$2,$3,$4,$5,0*
20,1,$1+$1,$4,$5,$6,$7,0*
20,1,$1+$1,$6,$7,$8,$9,0*
20,1,$1+$1,$8,$9,$2,$3,0*%
G04 Aperture macros list end*
%ADD10C,0.150000*%
%ADD11C,0.140000*%
%ADD12C,0.200000*%
%ADD13C,0.180000*%
%ADD14C,0.120000*%
%ADD15C,0.127000*%
%ADD16C,0.100000*%
%ADD17R,1.700000X1.700000*%
%ADD18O,1.700000X1.700000*%
%ADD19RoundRect,0.225000X-0.225000X-0.250000X0.225000X-0.250000X0.225000X0.250000X-0.225000X0.250000X0*%
%ADD20RoundRect,0.225000X-0.250000X0.225000X-0.250000X-0.225000X0.250000X-0.225000X0.250000X0.225000X0*%
%ADD21R,1.500000X1.000000*%
%ADD22R,0.600000X1.200000*%
%ADD23RoundRect,0.225000X0.250000X-0.225000X0.250000X0.225000X-0.250000X0.225000X-0.250000X-0.225000X0*%
%ADD24RoundRect,0.225000X0.225000X0.250000X-0.225000X0.250000X-0.225000X-0.250000X0.225000X-0.250000X0*%
%ADD25RoundRect,0.175000X-0.275000X-0.175000X0.275000X-0.175000X0.275000X0.175000X-0.275000X0.175000X0*%
%ADD26RoundRect,0.150000X-0.150000X0.825000X-0.150000X-0.825000X0.150000X-0.825000X0.150000X0.825000X0*%
G04 APERTURE END LIST*
D10*
X57992744Y12139586D02*
X57814172Y11639586D01*
X57814172Y11639586D02*
X57635601Y12139586D01*
X57385600Y12318158D02*
X57349886Y12353872D01*
X57349886Y12353872D02*
X57278458Y12389586D01*
X57278458Y12389586D02*
X57099886Y12389586D01*
X57099886Y12389586D02*
X57028458Y12353872D01*
X57028458Y12353872D02*
X56992743Y12318158D01*
X56992743Y12318158D02*
X56957029Y12246729D01*
X56957029Y12246729D02*
X56957029Y12175300D01*
X56957029Y12175300D02*
X56992743Y12068158D01*
X56992743Y12068158D02*
X57421315Y11639586D01*
X57421315Y11639586D02*
X56957029Y11639586D01*
X56635600Y11711015D02*
X56599886Y11675300D01*
X56599886Y11675300D02*
X56635600Y11639586D01*
X56635600Y11639586D02*
X56671314Y11675300D01*
X56671314Y11675300D02*
X56635600Y11711015D01*
X56635600Y11711015D02*
X56635600Y11639586D01*
X56135600Y12389586D02*
X56064171Y12389586D01*
X56064171Y12389586D02*
X55992743Y12353872D01*
X55992743Y12353872D02*
X55957029Y12318158D01*
X55957029Y12318158D02*
X55921314Y12246729D01*
X55921314Y12246729D02*
X55885600Y12103872D01*
X55885600Y12103872D02*
X55885600Y11925300D01*
X55885600Y11925300D02*
X55921314Y11782443D01*
X55921314Y11782443D02*
X55957029Y11711015D01*
X55957029Y11711015D02*
X55992743Y11675300D01*
X55992743Y11675300D02*
X56064171Y11639586D01*
X56064171Y11639586D02*
X56135600Y11639586D01*
X56135600Y11639586D02*
X56207029Y11675300D01*
X56207029Y11675300D02*
X56242743Y11711015D01*
X56242743Y11711015D02*
X56278457Y11782443D01*
X56278457Y11782443D02*
X56314171Y11925300D01*
X56314171Y11925300D02*
X56314171Y12103872D01*
X56314171Y12103872D02*
X56278457Y12246729D01*
X56278457Y12246729D02*
X56242743Y12318158D01*
X56242743Y12318158D02*
X56207029Y12353872D01*
X56207029Y12353872D02*
X56135600Y12389586D01*
X43902143Y6412265D02*
X43937857Y6376550D01*
X43937857Y6376550D02*
X44045000Y6340836D01*
X44045000Y6340836D02*
X44116428Y6340836D01*
X44116428Y6340836D02*
X44223571Y6376550D01*
X44223571Y6376550D02*
X44295000Y6447979D01*
X44295000Y6447979D02*
X44330714Y6519408D01*
X44330714Y6519408D02*
X44366428Y6662265D01*
X44366428Y6662265D02*
X44366428Y6769408D01*
X44366428Y6769408D02*
X44330714Y6912265D01*
X44330714Y6912265D02*
X44295000Y6983693D01*
X44295000Y6983693D02*
X44223571Y7055122D01*
X44223571Y7055122D02*
X44116428Y7090836D01*
X44116428Y7090836D02*
X44045000Y7090836D01*
X44045000Y7090836D02*
X43937857Y7055122D01*
X43937857Y7055122D02*
X43902143Y7019408D01*
X43187857Y6340836D02*
X43616428Y6340836D01*
X43402143Y6340836D02*
X43402143Y7090836D01*
X43402143Y7090836D02*
X43473571Y6983693D01*
X43473571Y6983693D02*
X43545000Y6912265D01*
X43545000Y6912265D02*
X43616428Y6876550D01*
X42509285Y7090836D02*
X42866428Y7090836D01*
X42866428Y7090836D02*
X42902142Y6733693D01*
X42902142Y6733693D02*
X42866428Y6769408D01*
X42866428Y6769408D02*
X42795000Y6805122D01*
X42795000Y6805122D02*
X42616428Y6805122D01*
X42616428Y6805122D02*
X42545000Y6769408D01*
X42545000Y6769408D02*
X42509285Y6733693D01*
X42509285Y6733693D02*
X42473571Y6662265D01*
X42473571Y6662265D02*
X42473571Y6483693D01*
X42473571Y6483693D02*
X42509285Y6412265D01*
X42509285Y6412265D02*
X42545000Y6376550D01*
X42545000Y6376550D02*
X42616428Y6340836D01*
X42616428Y6340836D02*
X42795000Y6340836D01*
X42795000Y6340836D02*
X42866428Y6376550D01*
X42866428Y6376550D02*
X42902142Y6412265D01*
X43892143Y-2747735D02*
X43927857Y-2783450D01*
X43927857Y-2783450D02*
X44035000Y-2819164D01*
X44035000Y-2819164D02*
X44106428Y-2819164D01*
X44106428Y-2819164D02*
X44213571Y-2783450D01*
X44213571Y-2783450D02*
X44285000Y-2712021D01*
X44285000Y-2712021D02*
X44320714Y-2640592D01*
X44320714Y-2640592D02*
X44356428Y-2497735D01*
X44356428Y-2497735D02*
X44356428Y-2390592D01*
X44356428Y-2390592D02*
X44320714Y-2247735D01*
X44320714Y-2247735D02*
X44285000Y-2176307D01*
X44285000Y-2176307D02*
X44213571Y-2104878D01*
X44213571Y-2104878D02*
X44106428Y-2069164D01*
X44106428Y-2069164D02*
X44035000Y-2069164D01*
X44035000Y-2069164D02*
X43927857Y-2104878D01*
X43927857Y-2104878D02*
X43892143Y-2140592D01*
X43177857Y-2819164D02*
X43606428Y-2819164D01*
X43392143Y-2819164D02*
X43392143Y-2069164D01*
X43392143Y-2069164D02*
X43463571Y-2176307D01*
X43463571Y-2176307D02*
X43535000Y-2247735D01*
X43535000Y-2247735D02*
X43606428Y-2283450D01*
X42463571Y-2819164D02*
X42892142Y-2819164D01*
X42677857Y-2819164D02*
X42677857Y-2069164D01*
X42677857Y-2069164D02*
X42749285Y-2176307D01*
X42749285Y-2176307D02*
X42820714Y-2247735D01*
X42820714Y-2247735D02*
X42892142Y-2283450D01*
X47104779Y10252144D02*
X47140494Y10287858D01*
X47140494Y10287858D02*
X47176208Y10395001D01*
X47176208Y10395001D02*
X47176208Y10466429D01*
X47176208Y10466429D02*
X47140494Y10573572D01*
X47140494Y10573572D02*
X47069065Y10645001D01*
X47069065Y10645001D02*
X46997636Y10680715D01*
X46997636Y10680715D02*
X46854779Y10716429D01*
X46854779Y10716429D02*
X46747636Y10716429D01*
X46747636Y10716429D02*
X46604779Y10680715D01*
X46604779Y10680715D02*
X46533351Y10645001D01*
X46533351Y10645001D02*
X46461922Y10573572D01*
X46461922Y10573572D02*
X46426208Y10466429D01*
X46426208Y10466429D02*
X46426208Y10395001D01*
X46426208Y10395001D02*
X46461922Y10287858D01*
X46461922Y10287858D02*
X46497636Y10252144D01*
X46497636Y9966429D02*
X46461922Y9930715D01*
X46461922Y9930715D02*
X46426208Y9859286D01*
X46426208Y9859286D02*
X46426208Y9680715D01*
X46426208Y9680715D02*
X46461922Y9609286D01*
X46461922Y9609286D02*
X46497636Y9573572D01*
X46497636Y9573572D02*
X46569065Y9537858D01*
X46569065Y9537858D02*
X46640494Y9537858D01*
X46640494Y9537858D02*
X46747636Y9573572D01*
X46747636Y9573572D02*
X47176208Y10002144D01*
X47176208Y10002144D02*
X47176208Y9537858D01*
X47176208Y8823572D02*
X47176208Y9252143D01*
X47176208Y9037858D02*
X46426208Y9037858D01*
X46426208Y9037858D02*
X46533351Y9109286D01*
X46533351Y9109286D02*
X46604779Y9180715D01*
X46604779Y9180715D02*
X46640494Y9252143D01*
D11*
X45103333Y-4706553D02*
X45103333Y-4006553D01*
X45103333Y-4006553D02*
X44836666Y-4006553D01*
X44836666Y-4006553D02*
X44770000Y-4039886D01*
X44770000Y-4039886D02*
X44736666Y-4073220D01*
X44736666Y-4073220D02*
X44703333Y-4139886D01*
X44703333Y-4139886D02*
X44703333Y-4239886D01*
X44703333Y-4239886D02*
X44736666Y-4306553D01*
X44736666Y-4306553D02*
X44770000Y-4339886D01*
X44770000Y-4339886D02*
X44836666Y-4373220D01*
X44836666Y-4373220D02*
X45103333Y-4373220D01*
X44470000Y-4006553D02*
X44303333Y-4706553D01*
X44303333Y-4706553D02*
X44170000Y-4206553D01*
X44170000Y-4206553D02*
X44036666Y-4706553D01*
X44036666Y-4706553D02*
X43870000Y-4006553D01*
X43203333Y-4706553D02*
X43436666Y-4373220D01*
X43603333Y-4706553D02*
X43603333Y-4006553D01*
X43603333Y-4006553D02*
X43336666Y-4006553D01*
X43336666Y-4006553D02*
X43270000Y-4039886D01*
X43270000Y-4039886D02*
X43236666Y-4073220D01*
X43236666Y-4073220D02*
X43203333Y-4139886D01*
X43203333Y-4139886D02*
X43203333Y-4239886D01*
X43203333Y-4239886D02*
X43236666Y-4306553D01*
X43236666Y-4306553D02*
X43270000Y-4339886D01*
X43270000Y-4339886D02*
X43336666Y-4373220D01*
X43336666Y-4373220D02*
X43603333Y-4373220D01*
D10*
X40699164Y2486429D02*
X41306307Y2486429D01*
X41306307Y2486429D02*
X41377735Y2450715D01*
X41377735Y2450715D02*
X41413450Y2415000D01*
X41413450Y2415000D02*
X41449164Y2343572D01*
X41449164Y2343572D02*
X41449164Y2200715D01*
X41449164Y2200715D02*
X41413450Y2129286D01*
X41413450Y2129286D02*
X41377735Y2093572D01*
X41377735Y2093572D02*
X41306307Y2057858D01*
X41306307Y2057858D02*
X40699164Y2057858D01*
X40949164Y1379286D02*
X41449164Y1379286D01*
X40663450Y1557858D02*
X41199164Y1736429D01*
X41199164Y1736429D02*
X41199164Y1272144D01*
D11*
X57769999Y-4706553D02*
X57769999Y-4006553D01*
X57769999Y-4339886D02*
X57369999Y-4339886D01*
X57369999Y-4706553D02*
X57369999Y-4006553D01*
X57036666Y-4706553D02*
X57036666Y-4006553D01*
X57036666Y-4006553D02*
X56869999Y-4006553D01*
X56869999Y-4006553D02*
X56769999Y-4039886D01*
X56769999Y-4039886D02*
X56703333Y-4106553D01*
X56703333Y-4106553D02*
X56669999Y-4173220D01*
X56669999Y-4173220D02*
X56636666Y-4306553D01*
X56636666Y-4306553D02*
X56636666Y-4406553D01*
X56636666Y-4406553D02*
X56669999Y-4539886D01*
X56669999Y-4539886D02*
X56703333Y-4606553D01*
X56703333Y-4606553D02*
X56769999Y-4673220D01*
X56769999Y-4673220D02*
X56869999Y-4706553D01*
X56869999Y-4706553D02*
X57036666Y-4706553D01*
X56336666Y-4706553D02*
X56336666Y-4006553D01*
X56336666Y-4006553D02*
X56169999Y-4006553D01*
X56169999Y-4006553D02*
X56069999Y-4039886D01*
X56069999Y-4039886D02*
X56003333Y-4106553D01*
X56003333Y-4106553D02*
X55969999Y-4173220D01*
X55969999Y-4173220D02*
X55936666Y-4306553D01*
X55936666Y-4306553D02*
X55936666Y-4406553D01*
X55936666Y-4406553D02*
X55969999Y-4539886D01*
X55969999Y-4539886D02*
X56003333Y-4606553D01*
X56003333Y-4606553D02*
X56069999Y-4673220D01*
X56069999Y-4673220D02*
X56169999Y-4706553D01*
X56169999Y-4706553D02*
X56336666Y-4706553D01*
D10*
X44447735Y12085114D02*
X44483450Y12120828D01*
X44483450Y12120828D02*
X44519164Y12227971D01*
X44519164Y12227971D02*
X44519164Y12299399D01*
X44519164Y12299399D02*
X44483450Y12406542D01*
X44483450Y12406542D02*
X44412021Y12477971D01*
X44412021Y12477971D02*
X44340592Y12513685D01*
X44340592Y12513685D02*
X44197735Y12549399D01*
X44197735Y12549399D02*
X44090592Y12549399D01*
X44090592Y12549399D02*
X43947735Y12513685D01*
X43947735Y12513685D02*
X43876307Y12477971D01*
X43876307Y12477971D02*
X43804878Y12406542D01*
X43804878Y12406542D02*
X43769164Y12299399D01*
X43769164Y12299399D02*
X43769164Y12227971D01*
X43769164Y12227971D02*
X43804878Y12120828D01*
X43804878Y12120828D02*
X43840592Y12085114D01*
X44519164Y11370828D02*
X44519164Y11799399D01*
X44519164Y11585114D02*
X43769164Y11585114D01*
X43769164Y11585114D02*
X43876307Y11656542D01*
X43876307Y11656542D02*
X43947735Y11727971D01*
X43947735Y11727971D02*
X43983450Y11799399D01*
X43769164Y10727970D02*
X43769164Y10870828D01*
X43769164Y10870828D02*
X43804878Y10942256D01*
X43804878Y10942256D02*
X43840592Y10977970D01*
X43840592Y10977970D02*
X43947735Y11049399D01*
X43947735Y11049399D02*
X44090592Y11085113D01*
X44090592Y11085113D02*
X44376307Y11085113D01*
X44376307Y11085113D02*
X44447735Y11049399D01*
X44447735Y11049399D02*
X44483450Y11013685D01*
X44483450Y11013685D02*
X44519164Y10942256D01*
X44519164Y10942256D02*
X44519164Y10799399D01*
X44519164Y10799399D02*
X44483450Y10727970D01*
X44483450Y10727970D02*
X44447735Y10692256D01*
X44447735Y10692256D02*
X44376307Y10656542D01*
X44376307Y10656542D02*
X44197735Y10656542D01*
X44197735Y10656542D02*
X44126307Y10692256D01*
X44126307Y10692256D02*
X44090592Y10727970D01*
X44090592Y10727970D02*
X44054878Y10799399D01*
X44054878Y10799399D02*
X44054878Y10942256D01*
X44054878Y10942256D02*
X44090592Y11013685D01*
X44090592Y11013685D02*
X44126307Y11049399D01*
X44126307Y11049399D02*
X44197735Y11085113D01*
X52770000Y6420836D02*
X53020000Y6777979D01*
X53198571Y6420836D02*
X53198571Y7170836D01*
X53198571Y7170836D02*
X52912857Y7170836D01*
X52912857Y7170836D02*
X52841428Y7135122D01*
X52841428Y7135122D02*
X52805714Y7099408D01*
X52805714Y7099408D02*
X52770000Y7027979D01*
X52770000Y7027979D02*
X52770000Y6920836D01*
X52770000Y6920836D02*
X52805714Y6849408D01*
X52805714Y6849408D02*
X52841428Y6813693D01*
X52841428Y6813693D02*
X52912857Y6777979D01*
X52912857Y6777979D02*
X53198571Y6777979D01*
X52520000Y7170836D02*
X52020000Y7170836D01*
X52020000Y7170836D02*
X52341428Y6420836D01*
X42917735Y12085114D02*
X42953450Y12120828D01*
X42953450Y12120828D02*
X42989164Y12227971D01*
X42989164Y12227971D02*
X42989164Y12299399D01*
X42989164Y12299399D02*
X42953450Y12406542D01*
X42953450Y12406542D02*
X42882021Y12477971D01*
X42882021Y12477971D02*
X42810592Y12513685D01*
X42810592Y12513685D02*
X42667735Y12549399D01*
X42667735Y12549399D02*
X42560592Y12549399D01*
X42560592Y12549399D02*
X42417735Y12513685D01*
X42417735Y12513685D02*
X42346307Y12477971D01*
X42346307Y12477971D02*
X42274878Y12406542D01*
X42274878Y12406542D02*
X42239164Y12299399D01*
X42239164Y12299399D02*
X42239164Y12227971D01*
X42239164Y12227971D02*
X42274878Y12120828D01*
X42274878Y12120828D02*
X42310592Y12085114D01*
X42989164Y11370828D02*
X42989164Y11799399D01*
X42989164Y11585114D02*
X42239164Y11585114D01*
X42239164Y11585114D02*
X42346307Y11656542D01*
X42346307Y11656542D02*
X42417735Y11727971D01*
X42417735Y11727971D02*
X42453450Y11799399D01*
X42239164Y11120828D02*
X42239164Y10620828D01*
X42239164Y10620828D02*
X42989164Y10942256D01*
X54842120Y10252144D02*
X54484977Y10502144D01*
X54842120Y10680715D02*
X54092120Y10680715D01*
X54092120Y10680715D02*
X54092120Y10395001D01*
X54092120Y10395001D02*
X54127834Y10323572D01*
X54127834Y10323572D02*
X54163548Y10287858D01*
X54163548Y10287858D02*
X54234977Y10252144D01*
X54234977Y10252144D02*
X54342120Y10252144D01*
X54342120Y10252144D02*
X54413548Y10287858D01*
X54413548Y10287858D02*
X54449263Y10323572D01*
X54449263Y10323572D02*
X54484977Y10395001D01*
X54484977Y10395001D02*
X54484977Y10680715D01*
X54092120Y10002144D02*
X54092120Y9537858D01*
X54092120Y9537858D02*
X54377834Y9787858D01*
X54377834Y9787858D02*
X54377834Y9680715D01*
X54377834Y9680715D02*
X54413548Y9609286D01*
X54413548Y9609286D02*
X54449263Y9573572D01*
X54449263Y9573572D02*
X54520691Y9537858D01*
X54520691Y9537858D02*
X54699263Y9537858D01*
X54699263Y9537858D02*
X54770691Y9573572D01*
X54770691Y9573572D02*
X54806406Y9609286D01*
X54806406Y9609286D02*
X54842120Y9680715D01*
X54842120Y9680715D02*
X54842120Y9895001D01*
X54842120Y9895001D02*
X54806406Y9966429D01*
X54806406Y9966429D02*
X54770691Y10002144D01*
X54842120Y8823572D02*
X54842120Y9252143D01*
X54842120Y9037858D02*
X54092120Y9037858D01*
X54092120Y9037858D02*
X54199263Y9109286D01*
X54199263Y9109286D02*
X54270691Y9180715D01*
X54270691Y9180715D02*
X54306406Y9252143D01*
X51223571Y11180836D02*
X51223571Y11930836D01*
X51223571Y11930836D02*
X51045000Y11930836D01*
X51045000Y11930836D02*
X50937857Y11895122D01*
X50937857Y11895122D02*
X50866428Y11823693D01*
X50866428Y11823693D02*
X50830714Y11752265D01*
X50830714Y11752265D02*
X50795000Y11609408D01*
X50795000Y11609408D02*
X50795000Y11502265D01*
X50795000Y11502265D02*
X50830714Y11359408D01*
X50830714Y11359408D02*
X50866428Y11287979D01*
X50866428Y11287979D02*
X50937857Y11216550D01*
X50937857Y11216550D02*
X51045000Y11180836D01*
X51045000Y11180836D02*
X51223571Y11180836D01*
X50116428Y11930836D02*
X50473571Y11930836D01*
X50473571Y11930836D02*
X50509285Y11573693D01*
X50509285Y11573693D02*
X50473571Y11609408D01*
X50473571Y11609408D02*
X50402143Y11645122D01*
X50402143Y11645122D02*
X50223571Y11645122D01*
X50223571Y11645122D02*
X50152143Y11609408D01*
X50152143Y11609408D02*
X50116428Y11573693D01*
X50116428Y11573693D02*
X50080714Y11502265D01*
X50080714Y11502265D02*
X50080714Y11323693D01*
X50080714Y11323693D02*
X50116428Y11252265D01*
X50116428Y11252265D02*
X50152143Y11216550D01*
X50152143Y11216550D02*
X50223571Y11180836D01*
X50223571Y11180836D02*
X50402143Y11180836D01*
X50402143Y11180836D02*
X50473571Y11216550D01*
X50473571Y11216550D02*
X50509285Y11252265D01*
D12*
X55872219Y2676905D02*
X56681742Y2676905D01*
X56681742Y2676905D02*
X56776980Y2629286D01*
X56776980Y2629286D02*
X56824600Y2581667D01*
X56824600Y2581667D02*
X56872219Y2486429D01*
X56872219Y2486429D02*
X56872219Y2295953D01*
X56872219Y2295953D02*
X56824600Y2200715D01*
X56824600Y2200715D02*
X56776980Y2153096D01*
X56776980Y2153096D02*
X56681742Y2105477D01*
X56681742Y2105477D02*
X55872219Y2105477D01*
X55872219Y1724524D02*
X55872219Y1105477D01*
X55872219Y1105477D02*
X56253171Y1438810D01*
X56253171Y1438810D02*
X56253171Y1295953D01*
X56253171Y1295953D02*
X56300790Y1200715D01*
X56300790Y1200715D02*
X56348409Y1153096D01*
X56348409Y1153096D02*
X56443647Y1105477D01*
X56443647Y1105477D02*
X56681742Y1105477D01*
X56681742Y1105477D02*
X56776980Y1153096D01*
X56776980Y1153096D02*
X56824600Y1200715D01*
X56824600Y1200715D02*
X56872219Y1295953D01*
X56872219Y1295953D02*
X56872219Y1581667D01*
X56872219Y1581667D02*
X56824600Y1676905D01*
X56824600Y1676905D02*
X56776980Y1724524D01*
D13*
X52661666Y1747456D02*
X52233095Y1747456D01*
X52783095Y1461741D02*
X52358095Y2461741D01*
X52358095Y2461741D02*
X52183095Y1461741D01*
X51886666Y2461741D02*
X51372380Y2461741D01*
X51754523Y1461741D02*
X51629523Y2461741D01*
X51200952Y2461741D02*
X50686666Y2461741D01*
X51068809Y1461741D02*
X50943809Y2461741D01*
X50511666Y1461741D02*
X50386666Y2461741D01*
X50083095Y1461741D02*
X49958095Y2461741D01*
X49958095Y2461741D02*
X49568809Y1461741D01*
X49568809Y1461741D02*
X49443809Y2461741D01*
X48909286Y1937932D02*
X48968810Y1461741D01*
X49143810Y2461741D02*
X48909286Y1937932D01*
X48909286Y1937932D02*
X48543810Y2461741D01*
D14*
X43279420Y5790000D02*
X43560580Y5790000D01*
X43279420Y4770000D02*
X43560580Y4770000D01*
X43269420Y-570000D02*
X43550580Y-570000D01*
X43269420Y-1590000D02*
X43550580Y-1590000D01*
X47727044Y9910580D02*
X47727044Y9629420D01*
X48747044Y9910580D02*
X48747044Y9629420D01*
D15*
X44355000Y-5040000D02*
X43985000Y-5040000D01*
X43985000Y-6040000D02*
X44355000Y-6040000D01*
D12*
X41860000Y-5790000D02*
G75*
G02*
X41660000Y-5790000I-100000J0D01*
G01*
X41660000Y-5790000D02*
G75*
G02*
X41860000Y-5790000I100000J0D01*
G01*
D14*
X41860000Y1015000D02*
X41860000Y2815000D01*
X44960000Y1015000D02*
X44960000Y2815000D01*
D15*
X57055000Y-5040000D02*
X56685000Y-5040000D01*
X56685000Y-6040000D02*
X57055000Y-6040000D01*
D12*
X54560000Y-5790000D02*
G75*
G02*
X54360000Y-5790000I-100000J0D01*
G01*
X54360000Y-5790000D02*
G75*
G02*
X54560000Y-5790000I100000J0D01*
G01*
D14*
X43670000Y8874420D02*
X43670000Y9155580D01*
X44690000Y8874420D02*
X44690000Y9155580D01*
X50085580Y7270000D02*
X49804420Y7270000D01*
X50085580Y6250000D02*
X49804420Y6250000D01*
X42140000Y9155580D02*
X42140000Y8874420D01*
X43160000Y9155580D02*
X43160000Y8874420D01*
X52592956Y9629420D02*
X52592956Y9910580D01*
X53612956Y9629420D02*
X53612956Y9910580D01*
X49060000Y10620000D02*
X51720000Y10620000D01*
X49060000Y8920000D02*
X49060000Y10620000D01*
X49060000Y8920000D02*
X51720000Y8920000D01*
D16*
X50370000Y9770000D02*
X50170000Y9770000D01*
X50370000Y9770000D02*
X50870000Y9420000D01*
X50370000Y9420000D02*
X50370000Y10120000D01*
X50870000Y10120000D02*
X50370000Y9770000D01*
X50870000Y9770000D02*
X51120000Y9770000D01*
X50870000Y9420000D02*
X50870000Y10120000D01*
D14*
X46285000Y1915000D02*
X46285000Y3865000D01*
X46285000Y1915000D02*
X46285000Y-35000D01*
X55155000Y1915000D02*
X55155000Y3865000D01*
X55155000Y1915000D02*
X55155000Y-35000D01*
X46350000Y4615000D02*
X46020000Y4375000D01*
X46020000Y4855000D01*
X46350000Y4615000D01*
G36*
X46350000Y4615000D02*
G01*
X46020000Y4375000D01*
X46020000Y4855000D01*
X46350000Y4615000D01*
G37*
%LPC*%
D17*
X38790000Y12360000D03*
D18*
X38790000Y9820000D03*
X38790000Y7280000D03*
X38790000Y4740000D03*
X38790000Y2200000D03*
X38790000Y-340000D03*
X38790000Y-2880000D03*
X38790000Y-5420000D03*
D17*
X62250000Y12360000D03*
D18*
X62250000Y9820000D03*
X62250000Y7280000D03*
X62250000Y4740000D03*
X62250000Y2200000D03*
X62250000Y-340000D03*
X62250000Y-2880000D03*
X62250000Y-5420000D03*
D19*
X42645000Y5280000D03*
X44195000Y5280000D03*
X42635000Y-1080000D03*
X44185000Y-1080000D03*
D20*
X48237044Y10545000D03*
X48237044Y8995000D03*
D21*
X42920000Y-5790000D03*
X45420000Y-5790000D03*
D22*
X44360000Y815000D03*
X43410000Y815000D03*
X42460000Y815000D03*
X42460000Y3015000D03*
X44360000Y3015000D03*
D21*
X55620000Y-5790000D03*
X58120000Y-5790000D03*
D23*
X44180000Y8240000D03*
X44180000Y9790000D03*
D24*
X50720000Y6760000D03*
X49170000Y6760000D03*
D20*
X42650000Y9790000D03*
X42650000Y8240000D03*
D23*
X53102956Y8995000D03*
X53102956Y10545000D03*
D25*
X49570000Y9770000D03*
X51770000Y9770000D03*
D26*
X46910000Y4390000D03*
X48180000Y4390000D03*
X49450000Y4390000D03*
X50720000Y4390000D03*
X51990000Y4390000D03*
X53260000Y4390000D03*
X54530000Y4390000D03*
X54530000Y-560000D03*
X53260000Y-560000D03*
X51990000Y-560000D03*
X50720000Y-560000D03*
X49450000Y-560000D03*
X48180000Y-560000D03*
X46910000Y-560000D03*
%LPD*%
M02*
