G04 #@! TF.GenerationSoftware,KiCad,Pcbnew,9.0.0*
G04 #@! TF.CreationDate,2025-04-06T21:13:15-04:00*
G04 #@! TF.ProjectId,MiniCamel_riser,4d696e69-4361-46d6-956c-5f7269736572,2.1*
G04 #@! TF.SameCoordinates,PX16e3600PY6052340*
G04 #@! TF.FileFunction,Copper,L2,Inr*
G04 #@! TF.FilePolarity,Positive*
%FSLAX46Y46*%
G04 Gerber Fmt 4.6, Leading zero omitted, Abs format (unit mm)*
G04 Created by KiCad (PCBNEW 9.0.0) date 2025-04-06 21:13:15*
%MOMM*%
%LPD*%
G01*
G04 APERTURE LIST*
G04 #@! TA.AperFunction,ComponentPad*
%ADD10R,1.700000X1.700000*%
G04 #@! TD*
G04 #@! TA.AperFunction,ComponentPad*
%ADD11O,1.700000X1.700000*%
G04 #@! TD*
G04 #@! TA.AperFunction,ViaPad*
%ADD12C,0.460000*%
G04 #@! TD*
G04 #@! TA.AperFunction,ViaPad*
%ADD13C,0.450000*%
G04 #@! TD*
G04 #@! TA.AperFunction,Conductor*
%ADD14C,0.500000*%
G04 #@! TD*
G04 APERTURE END LIST*
D10*
X38790000Y12360000D03*
D11*
X38790000Y9820000D03*
X38790000Y4740000D03*
X38790000Y-340000D03*
X38790000Y-5420000D03*
X62250000Y9820000D03*
X62250000Y4740000D03*
D12*
X46910000Y860000D03*
X59120000Y-5790000D03*
X46430000Y-5790000D03*
X42650000Y9790000D03*
X43587500Y-482500D03*
X44195000Y5280000D03*
X48237044Y8995000D03*
X44180000Y9790000D03*
D13*
X41870000Y815000D03*
X41890000Y-1080000D03*
X45110000Y-890000D03*
X57810000Y-837168D03*
X52110000Y-2000000D03*
X49570000Y9080000D03*
X54173511Y7165000D03*
X43385000Y-3960000D03*
X56085000Y-3967956D03*
X50520000Y10545000D03*
X52040000Y-3240000D03*
X51420000Y5780000D03*
X51420000Y1060000D03*
X56860000Y5780000D03*
X45380000Y1810000D03*
X49170000Y5930000D03*
D14*
X38790000Y-5420000D02*
X39240000Y-5420000D01*
X39240000Y-5420000D02*
X39960000Y-6140000D01*
X39960000Y-6140000D02*
X40170000Y-6140000D01*
X40170000Y-6140000D02*
X40200000Y-6110000D01*
G04 #@! TA.AperFunction,Conductor*
G36*
X62979756Y13429492D02*
G01*
X63009914Y13429499D01*
X63029275Y13427976D01*
X63042726Y13425848D01*
X63092782Y13417927D01*
X63129687Y13405941D01*
X63178167Y13381245D01*
X63209564Y13358436D01*
X63248035Y13319965D01*
X63270843Y13288570D01*
X63295540Y13240090D01*
X63307527Y13203182D01*
X63317570Y13139708D01*
X63319032Y13124254D01*
X63319094Y13122282D01*
X63319088Y13090158D01*
X63320196Y13087481D01*
X63320629Y13073815D01*
X63320394Y13072910D01*
X63320691Y13069891D01*
X63320691Y10588499D01*
X63301006Y10521460D01*
X63284372Y10500818D01*
X62732962Y9949409D01*
X62715925Y10012993D01*
X62650099Y10127007D01*
X62557007Y10220099D01*
X62442993Y10285925D01*
X62379409Y10302963D01*
X63011716Y10935272D01*
X62957550Y10974625D01*
X62768217Y11071096D01*
X62566129Y11136758D01*
X62356246Y11170000D01*
X62143754Y11170000D01*
X61933872Y11136758D01*
X61933869Y11136758D01*
X61731782Y11071096D01*
X61542439Y10974620D01*
X61488282Y10935273D01*
X61488282Y10935272D01*
X62120591Y10302963D01*
X62057007Y10285925D01*
X61942993Y10220099D01*
X61849901Y10127007D01*
X61784075Y10012993D01*
X61767037Y9949409D01*
X61134728Y10581718D01*
X61134727Y10581718D01*
X61095380Y10527561D01*
X60998904Y10338218D01*
X60933242Y10136131D01*
X60933242Y10136128D01*
X60900000Y9926247D01*
X60900000Y9713754D01*
X60933242Y9503873D01*
X60933242Y9503870D01*
X60998904Y9301783D01*
X61095375Y9112450D01*
X61134728Y9058284D01*
X61767037Y9690592D01*
X61784075Y9627007D01*
X61849901Y9512993D01*
X61942993Y9419901D01*
X62057007Y9354075D01*
X62120590Y9337038D01*
X61488282Y8704731D01*
X61488282Y8704730D01*
X61542449Y8665376D01*
X61731782Y8568905D01*
X61933870Y8503243D01*
X62143754Y8470000D01*
X62356246Y8470000D01*
X62566127Y8503243D01*
X62566130Y8503243D01*
X62768217Y8568905D01*
X62957554Y8665378D01*
X63011716Y8704730D01*
X63011717Y8704730D01*
X62379408Y9337038D01*
X62442993Y9354075D01*
X62557007Y9419901D01*
X62650099Y9512993D01*
X62715925Y9627007D01*
X62732962Y9690592D01*
X63284372Y9139182D01*
X63317857Y9077859D01*
X63320691Y9051501D01*
X63320691Y5508499D01*
X63301006Y5441460D01*
X63284372Y5420818D01*
X62732962Y4869409D01*
X62715925Y4932993D01*
X62650099Y5047007D01*
X62557007Y5140099D01*
X62442993Y5205925D01*
X62379409Y5222963D01*
X63011716Y5855272D01*
X62957550Y5894625D01*
X62768217Y5991096D01*
X62566129Y6056758D01*
X62356246Y6090000D01*
X62143754Y6090000D01*
X61933872Y6056758D01*
X61933869Y6056758D01*
X61731782Y5991096D01*
X61542439Y5894620D01*
X61488282Y5855273D01*
X61488282Y5855272D01*
X62120591Y5222963D01*
X62057007Y5205925D01*
X61942993Y5140099D01*
X61849901Y5047007D01*
X61784075Y4932993D01*
X61767037Y4869409D01*
X61134728Y5501718D01*
X61134727Y5501718D01*
X61095380Y5447561D01*
X60998904Y5258218D01*
X60933242Y5056131D01*
X60933242Y5056128D01*
X60900000Y4846247D01*
X60900000Y4633754D01*
X60933242Y4423873D01*
X60933242Y4423870D01*
X60998904Y4221783D01*
X61095375Y4032450D01*
X61134728Y3978284D01*
X61767037Y4610592D01*
X61784075Y4547007D01*
X61849901Y4432993D01*
X61942993Y4339901D01*
X62057007Y4274075D01*
X62120590Y4257038D01*
X61488282Y3624731D01*
X61488282Y3624730D01*
X61542449Y3585376D01*
X61731782Y3488905D01*
X61933870Y3423243D01*
X62143754Y3390000D01*
X62356246Y3390000D01*
X62566127Y3423243D01*
X62566130Y3423243D01*
X62768217Y3488905D01*
X62957554Y3585378D01*
X63011716Y3624730D01*
X63011717Y3624730D01*
X62379408Y4257038D01*
X62442993Y4274075D01*
X62557007Y4339901D01*
X62650099Y4432993D01*
X62715925Y4547007D01*
X62732962Y4610592D01*
X63284372Y4059182D01*
X63317857Y3997859D01*
X63320691Y3971501D01*
X63320691Y-6180642D01*
X63319164Y-6200041D01*
X63309105Y-6263548D01*
X63297117Y-6300443D01*
X63272409Y-6348936D01*
X63249604Y-6380324D01*
X63211118Y-6418809D01*
X63179731Y-6441613D01*
X63131245Y-6466317D01*
X63094348Y-6478305D01*
X63030794Y-6488370D01*
X63011401Y-6489896D01*
X62995529Y-6489896D01*
X62981313Y-6489896D01*
X62981311Y-6489896D01*
X62966877Y-6489897D01*
X62966876Y-6489896D01*
X62966874Y-6489897D01*
X39924730Y-6489897D01*
X39857691Y-6470212D01*
X39811936Y-6417408D01*
X39801992Y-6348250D01*
X39824412Y-6293012D01*
X39944620Y-6127557D01*
X40041095Y-5938217D01*
X40104546Y-5742934D01*
X46072500Y-5742934D01*
X46072500Y-5837066D01*
X46096863Y-5927990D01*
X46143929Y-6009510D01*
X46210490Y-6076071D01*
X46292010Y-6123137D01*
X46382934Y-6147500D01*
X46382936Y-6147500D01*
X46477064Y-6147500D01*
X46477066Y-6147500D01*
X46567990Y-6123137D01*
X46649510Y-6076071D01*
X46716071Y-6009510D01*
X46763137Y-5927990D01*
X46787500Y-5837066D01*
X46787500Y-5742934D01*
X58762500Y-5742934D01*
X58762500Y-5837066D01*
X58786863Y-5927990D01*
X58833929Y-6009510D01*
X58900490Y-6076071D01*
X58982010Y-6123137D01*
X59072934Y-6147500D01*
X59072936Y-6147500D01*
X59167064Y-6147500D01*
X59167066Y-6147500D01*
X59257990Y-6123137D01*
X59339510Y-6076071D01*
X59406071Y-6009510D01*
X59453137Y-5927990D01*
X59477500Y-5837066D01*
X59477500Y-5742934D01*
X59453137Y-5652010D01*
X59406071Y-5570490D01*
X59339510Y-5503929D01*
X59257990Y-5456863D01*
X59167066Y-5432500D01*
X59072934Y-5432500D01*
X58982009Y-5456863D01*
X58900490Y-5503929D01*
X58900487Y-5503931D01*
X58833931Y-5570487D01*
X58833929Y-5570490D01*
X58786863Y-5652009D01*
X58769875Y-5715411D01*
X58762500Y-5742934D01*
X46787500Y-5742934D01*
X46763137Y-5652010D01*
X46716071Y-5570490D01*
X46649510Y-5503929D01*
X46567990Y-5456863D01*
X46477066Y-5432500D01*
X46382934Y-5432500D01*
X46292009Y-5456863D01*
X46210490Y-5503929D01*
X46210487Y-5503931D01*
X46143931Y-5570487D01*
X46143929Y-5570490D01*
X46096863Y-5652009D01*
X46079875Y-5715411D01*
X46072500Y-5742934D01*
X40104546Y-5742934D01*
X40106756Y-5736133D01*
X40110038Y-5715411D01*
X40110039Y-5715408D01*
X40140000Y-5526245D01*
X40140000Y-5345683D01*
X61495500Y-5345683D01*
X61495500Y-5494316D01*
X61524493Y-5640072D01*
X61524495Y-5640080D01*
X61581371Y-5777391D01*
X61663939Y-5900964D01*
X61663945Y-5900971D01*
X61769028Y-6006054D01*
X61769035Y-6006060D01*
X61892608Y-6088628D01*
X61892609Y-6088628D01*
X61892610Y-6088629D01*
X62029920Y-6145505D01*
X62175683Y-6174499D01*
X62175687Y-6174500D01*
X62175688Y-6174500D01*
X62324313Y-6174500D01*
X62324314Y-6174499D01*
X62470080Y-6145505D01*
X62607390Y-6088629D01*
X62730966Y-6006059D01*
X62836059Y-5900966D01*
X62918629Y-5777390D01*
X62975505Y-5640080D01*
X63004500Y-5494312D01*
X63004500Y-5345688D01*
X62975505Y-5199920D01*
X62918629Y-5062610D01*
X62836059Y-4939034D01*
X62836054Y-4939028D01*
X62730971Y-4833945D01*
X62730964Y-4833939D01*
X62607391Y-4751371D01*
X62470080Y-4694495D01*
X62470072Y-4694493D01*
X62324316Y-4665500D01*
X62324312Y-4665500D01*
X62175688Y-4665500D01*
X62175683Y-4665500D01*
X62029927Y-4694493D01*
X62029919Y-4694495D01*
X61892608Y-4751371D01*
X61769035Y-4833939D01*
X61769028Y-4833945D01*
X61663945Y-4939028D01*
X61663939Y-4939035D01*
X61581371Y-5062608D01*
X61524495Y-5199919D01*
X61524493Y-5199927D01*
X61495500Y-5345683D01*
X40140000Y-5345683D01*
X40140000Y-5313753D01*
X40106757Y-5103872D01*
X40106757Y-5103869D01*
X40041095Y-4901782D01*
X39944624Y-4712449D01*
X39905270Y-4658282D01*
X39905269Y-4658282D01*
X39272962Y-5290589D01*
X39255925Y-5227007D01*
X39190099Y-5112993D01*
X39097007Y-5019901D01*
X38982993Y-4954075D01*
X38919407Y-4937036D01*
X39551716Y-4304728D01*
X39497550Y-4265375D01*
X39308217Y-4168904D01*
X39106129Y-4103242D01*
X38896246Y-4070000D01*
X38683754Y-4070000D01*
X38473872Y-4103242D01*
X38473869Y-4103242D01*
X38271782Y-4168904D01*
X38082442Y-4265379D01*
X37916914Y-4385641D01*
X37851107Y-4409121D01*
X37783054Y-4393295D01*
X37734359Y-4343189D01*
X37720029Y-4285323D01*
X37720029Y-3910038D01*
X43005500Y-3910038D01*
X43005500Y-4009962D01*
X43007632Y-4017917D01*
X43031362Y-4106481D01*
X43031363Y-4106484D01*
X43081321Y-4193015D01*
X43081323Y-4193018D01*
X43081324Y-4193019D01*
X43151981Y-4263676D01*
X43151982Y-4263677D01*
X43151984Y-4263678D01*
X43189475Y-4285323D01*
X43238518Y-4313638D01*
X43335038Y-4339500D01*
X43335040Y-4339500D01*
X43434960Y-4339500D01*
X43434962Y-4339500D01*
X43531482Y-4313638D01*
X43618019Y-4263676D01*
X43688676Y-4193019D01*
X43738638Y-4106482D01*
X43764500Y-4009962D01*
X43764500Y-3917994D01*
X55705500Y-3917994D01*
X55705500Y-4017918D01*
X55729231Y-4106482D01*
X55731362Y-4114437D01*
X55731363Y-4114440D01*
X55781321Y-4200971D01*
X55781323Y-4200974D01*
X55781324Y-4200975D01*
X55851981Y-4271632D01*
X55851982Y-4271633D01*
X55851984Y-4271634D01*
X55895249Y-4296613D01*
X55938518Y-4321594D01*
X56035038Y-4347456D01*
X56035040Y-4347456D01*
X56134960Y-4347456D01*
X56134962Y-4347456D01*
X56231482Y-4321594D01*
X56318019Y-4271632D01*
X56388676Y-4200975D01*
X56438638Y-4114438D01*
X56464500Y-4017918D01*
X56464500Y-3917994D01*
X56438638Y-3821474D01*
X56388676Y-3734937D01*
X56318019Y-3664280D01*
X56318018Y-3664279D01*
X56318015Y-3664277D01*
X56231484Y-3614319D01*
X56231483Y-3614318D01*
X56231482Y-3614318D01*
X56134962Y-3588456D01*
X56035038Y-3588456D01*
X55938518Y-3614318D01*
X55938515Y-3614319D01*
X55851984Y-3664277D01*
X55851979Y-3664281D01*
X55781325Y-3734935D01*
X55781321Y-3734940D01*
X55731363Y-3821471D01*
X55731362Y-3821474D01*
X55705500Y-3917994D01*
X43764500Y-3917994D01*
X43764500Y-3910038D01*
X43738638Y-3813518D01*
X43693271Y-3734940D01*
X43688678Y-3726984D01*
X43688674Y-3726979D01*
X43618020Y-3656325D01*
X43618015Y-3656321D01*
X43531484Y-3606363D01*
X43531483Y-3606362D01*
X43531482Y-3606362D01*
X43434962Y-3580500D01*
X43335038Y-3580500D01*
X43238518Y-3606362D01*
X43238515Y-3606363D01*
X43151984Y-3656321D01*
X43151979Y-3656325D01*
X43081325Y-3726979D01*
X43081321Y-3726984D01*
X43031363Y-3813515D01*
X43031362Y-3813518D01*
X43005500Y-3910038D01*
X37720029Y-3910038D01*
X37720029Y-2805683D01*
X38035500Y-2805683D01*
X38035500Y-2954316D01*
X38064493Y-3100072D01*
X38064495Y-3100080D01*
X38121371Y-3237391D01*
X38203939Y-3360964D01*
X38203945Y-3360971D01*
X38309028Y-3466054D01*
X38309035Y-3466060D01*
X38432604Y-3548626D01*
X38432608Y-3548628D01*
X38432609Y-3548628D01*
X38432610Y-3548629D01*
X38569920Y-3605505D01*
X38715683Y-3634499D01*
X38715687Y-3634500D01*
X38715688Y-3634500D01*
X38864313Y-3634500D01*
X38864314Y-3634499D01*
X39010080Y-3605505D01*
X39147390Y-3548629D01*
X39147392Y-3548627D01*
X39147396Y-3548626D01*
X39260548Y-3473020D01*
X39270966Y-3466059D01*
X39376059Y-3360966D01*
X39458629Y-3237390D01*
X39478243Y-3190038D01*
X51660500Y-3190038D01*
X51660500Y-3289962D01*
X51679527Y-3360971D01*
X51686362Y-3386481D01*
X51686363Y-3386484D01*
X51736321Y-3473015D01*
X51736323Y-3473018D01*
X51736324Y-3473019D01*
X51806981Y-3543676D01*
X51806982Y-3543677D01*
X51806984Y-3543678D01*
X51815558Y-3548628D01*
X51893518Y-3593638D01*
X51990038Y-3619500D01*
X51990040Y-3619500D01*
X52089960Y-3619500D01*
X52089962Y-3619500D01*
X52186482Y-3593638D01*
X52273019Y-3543676D01*
X52343676Y-3473019D01*
X52393638Y-3386482D01*
X52419500Y-3289962D01*
X52419500Y-3190038D01*
X52393638Y-3093518D01*
X52343676Y-3006981D01*
X52273019Y-2936324D01*
X52273018Y-2936323D01*
X52273015Y-2936321D01*
X52222199Y-2906983D01*
X52186484Y-2886363D01*
X52186483Y-2886362D01*
X52186482Y-2886362D01*
X52089962Y-2860500D01*
X51990038Y-2860500D01*
X51893518Y-2886362D01*
X51893515Y-2886363D01*
X51806984Y-2936321D01*
X51806979Y-2936325D01*
X51736325Y-3006979D01*
X51736321Y-3006984D01*
X51686363Y-3093515D01*
X51686362Y-3093518D01*
X51660500Y-3190038D01*
X39478243Y-3190038D01*
X39515505Y-3100080D01*
X39544500Y-2954312D01*
X39544500Y-2805688D01*
X39544499Y-2805683D01*
X61495500Y-2805683D01*
X61495500Y-2954316D01*
X61524493Y-3100072D01*
X61524495Y-3100080D01*
X61581371Y-3237391D01*
X61663939Y-3360964D01*
X61663945Y-3360971D01*
X61769028Y-3466054D01*
X61769035Y-3466060D01*
X61892604Y-3548626D01*
X61892608Y-3548628D01*
X61892609Y-3548628D01*
X61892610Y-3548629D01*
X62029920Y-3605505D01*
X62175683Y-3634499D01*
X62175687Y-3634500D01*
X62175688Y-3634500D01*
X62324313Y-3634500D01*
X62324314Y-3634499D01*
X62470080Y-3605505D01*
X62607390Y-3548629D01*
X62607392Y-3548627D01*
X62607396Y-3548626D01*
X62720548Y-3473020D01*
X62730966Y-3466059D01*
X62836059Y-3360966D01*
X62918629Y-3237390D01*
X62975505Y-3100080D01*
X63004500Y-2954312D01*
X63004500Y-2805688D01*
X62975505Y-2659920D01*
X62918629Y-2522610D01*
X62836059Y-2399034D01*
X62836054Y-2399028D01*
X62730971Y-2293945D01*
X62730964Y-2293939D01*
X62607391Y-2211371D01*
X62470080Y-2154495D01*
X62470072Y-2154493D01*
X62324316Y-2125500D01*
X62324312Y-2125500D01*
X62175688Y-2125500D01*
X62175683Y-2125500D01*
X62029927Y-2154493D01*
X62029919Y-2154495D01*
X61892608Y-2211371D01*
X61769035Y-2293939D01*
X61769028Y-2293945D01*
X61663945Y-2399028D01*
X61663939Y-2399035D01*
X61581371Y-2522608D01*
X61524495Y-2659919D01*
X61524493Y-2659927D01*
X61495500Y-2805683D01*
X39544499Y-2805683D01*
X39515505Y-2659920D01*
X39458629Y-2522610D01*
X39376059Y-2399034D01*
X39376054Y-2399028D01*
X39270971Y-2293945D01*
X39270964Y-2293939D01*
X39147391Y-2211371D01*
X39010080Y-2154495D01*
X39010072Y-2154493D01*
X38864316Y-2125500D01*
X38864312Y-2125500D01*
X38715688Y-2125500D01*
X38715683Y-2125500D01*
X38569927Y-2154493D01*
X38569919Y-2154495D01*
X38432608Y-2211371D01*
X38309035Y-2293939D01*
X38309028Y-2293945D01*
X38203945Y-2399028D01*
X38203939Y-2399035D01*
X38121371Y-2522608D01*
X38064495Y-2659919D01*
X38064493Y-2659927D01*
X38035500Y-2805683D01*
X37720029Y-2805683D01*
X37720029Y-1474676D01*
X37739714Y-1407637D01*
X37792518Y-1361882D01*
X37861676Y-1351938D01*
X37916914Y-1374358D01*
X38082442Y-1494620D01*
X38271782Y-1591095D01*
X38473870Y-1656757D01*
X38683754Y-1690000D01*
X38896246Y-1690000D01*
X39106127Y-1656757D01*
X39106130Y-1656757D01*
X39308217Y-1591095D01*
X39497554Y-1494622D01*
X39551716Y-1455270D01*
X39551717Y-1455270D01*
X38919409Y-822962D01*
X38982993Y-805925D01*
X39097007Y-740099D01*
X39190099Y-647007D01*
X39255925Y-532993D01*
X39272962Y-469408D01*
X39905270Y-1101717D01*
X39905270Y-1101716D01*
X39944626Y-1047549D01*
X39953548Y-1030038D01*
X41510500Y-1030038D01*
X41510500Y-1129961D01*
X41536362Y-1226481D01*
X41536363Y-1226484D01*
X41586321Y-1313015D01*
X41586323Y-1313018D01*
X41586324Y-1313019D01*
X41656981Y-1383676D01*
X41743518Y-1433638D01*
X41840038Y-1459500D01*
X41840040Y-1459500D01*
X41939960Y-1459500D01*
X41939962Y-1459500D01*
X42036482Y-1433638D01*
X42123019Y-1383676D01*
X42193676Y-1313019D01*
X42243638Y-1226482D01*
X42269500Y-1129962D01*
X42269500Y-1030038D01*
X42243638Y-933518D01*
X42193676Y-846981D01*
X42123019Y-776324D01*
X42123018Y-776323D01*
X42123015Y-776321D01*
X42036484Y-726363D01*
X42036483Y-726362D01*
X42036482Y-726362D01*
X41939962Y-700500D01*
X41840038Y-700500D01*
X41743518Y-726362D01*
X41743515Y-726363D01*
X41656984Y-776321D01*
X41656979Y-776325D01*
X41586325Y-846979D01*
X41586321Y-846984D01*
X41536363Y-933515D01*
X41536362Y-933518D01*
X41510500Y-1030038D01*
X39953548Y-1030038D01*
X39986371Y-965621D01*
X39986373Y-965616D01*
X40041095Y-858217D01*
X40106757Y-656130D01*
X40106757Y-656127D01*
X40140000Y-446246D01*
X40140000Y-265683D01*
X61495500Y-265683D01*
X61495500Y-414316D01*
X61524493Y-560072D01*
X61524495Y-560080D01*
X61581371Y-697391D01*
X61663939Y-820964D01*
X61663945Y-820971D01*
X61769028Y-926054D01*
X61769035Y-926060D01*
X61892608Y-1008628D01*
X61892609Y-1008628D01*
X61892610Y-1008629D01*
X62029920Y-1065505D01*
X62175683Y-1094499D01*
X62175687Y-1094500D01*
X62175688Y-1094500D01*
X62324313Y-1094500D01*
X62324314Y-1094499D01*
X62470080Y-1065505D01*
X62607390Y-1008629D01*
X62730966Y-926059D01*
X62836059Y-820966D01*
X62918629Y-697390D01*
X62975505Y-560080D01*
X63004500Y-414312D01*
X63004500Y-265688D01*
X62975505Y-119920D01*
X62918629Y17390D01*
X62836059Y140966D01*
X62836054Y140972D01*
X62730971Y246055D01*
X62730964Y246061D01*
X62607391Y328629D01*
X62470080Y385505D01*
X62470072Y385507D01*
X62324316Y414500D01*
X62324312Y414500D01*
X62175688Y414500D01*
X62175683Y414500D01*
X62029927Y385507D01*
X62029919Y385505D01*
X61892608Y328629D01*
X61769035Y246061D01*
X61769028Y246055D01*
X61663945Y140972D01*
X61663939Y140965D01*
X61581371Y17392D01*
X61524495Y-119919D01*
X61524493Y-119927D01*
X61495500Y-265683D01*
X40140000Y-265683D01*
X40140000Y-233753D01*
X40106757Y-23872D01*
X40106757Y-23869D01*
X40041095Y178218D01*
X39944624Y367551D01*
X39905270Y421718D01*
X39905269Y421718D01*
X39272962Y-210590D01*
X39255925Y-147007D01*
X39190099Y-32993D01*
X39097007Y60099D01*
X38982993Y125925D01*
X38919407Y142964D01*
X39551716Y775272D01*
X39497550Y814625D01*
X39398759Y864962D01*
X41490500Y864962D01*
X41490500Y765038D01*
X41515730Y670879D01*
X41516362Y668519D01*
X41516363Y668516D01*
X41566321Y581985D01*
X41566323Y581982D01*
X41566324Y581981D01*
X41636981Y511324D01*
X41723518Y461362D01*
X41820038Y435500D01*
X41820040Y435500D01*
X41919960Y435500D01*
X41919962Y435500D01*
X42016482Y461362D01*
X42103019Y511324D01*
X42173676Y581981D01*
X42223638Y668518D01*
X42249500Y765038D01*
X42249500Y864962D01*
X42223638Y961482D01*
X42173676Y1048019D01*
X42111733Y1109962D01*
X51040500Y1109962D01*
X51040500Y1010038D01*
X51053511Y961482D01*
X51066362Y913519D01*
X51066363Y913516D01*
X51116321Y826985D01*
X51116323Y826982D01*
X51116324Y826981D01*
X51186981Y756324D01*
X51273518Y706362D01*
X51370038Y680500D01*
X51370040Y680500D01*
X51469960Y680500D01*
X51469962Y680500D01*
X51566482Y706362D01*
X51653019Y756324D01*
X51723676Y826981D01*
X51773638Y913518D01*
X51799500Y1010038D01*
X51799500Y1109962D01*
X51773638Y1206482D01*
X51723676Y1293019D01*
X51653019Y1363676D01*
X51653018Y1363677D01*
X51653015Y1363679D01*
X51566484Y1413637D01*
X51566483Y1413638D01*
X51566482Y1413638D01*
X51469962Y1439500D01*
X51370038Y1439500D01*
X51273518Y1413638D01*
X51273515Y1413637D01*
X51186984Y1363679D01*
X51186979Y1363675D01*
X51116325Y1293021D01*
X51116321Y1293016D01*
X51066363Y1206485D01*
X51066362Y1206482D01*
X51040500Y1109962D01*
X42111733Y1109962D01*
X42103019Y1118676D01*
X42103018Y1118677D01*
X42103015Y1118679D01*
X42016484Y1168637D01*
X42016483Y1168638D01*
X42016482Y1168638D01*
X41919962Y1194500D01*
X41820038Y1194500D01*
X41723518Y1168638D01*
X41723515Y1168637D01*
X41636984Y1118679D01*
X41636979Y1118675D01*
X41566325Y1048021D01*
X41566321Y1048016D01*
X41516363Y961485D01*
X41516362Y961482D01*
X41490500Y864962D01*
X39398759Y864962D01*
X39308217Y911096D01*
X39106129Y976758D01*
X38896246Y1010000D01*
X38683754Y1010000D01*
X38473872Y976758D01*
X38473869Y976758D01*
X38271782Y911096D01*
X38082442Y814621D01*
X37916914Y694359D01*
X37851107Y670879D01*
X37783054Y686705D01*
X37734359Y736811D01*
X37720029Y794677D01*
X37720029Y2274317D01*
X38035500Y2274317D01*
X38035500Y2125684D01*
X38064493Y1979928D01*
X38064495Y1979920D01*
X38121371Y1842609D01*
X38203939Y1719036D01*
X38203945Y1719029D01*
X38309028Y1613946D01*
X38309035Y1613940D01*
X38432608Y1531372D01*
X38432609Y1531372D01*
X38432610Y1531371D01*
X38569920Y1474495D01*
X38715683Y1445501D01*
X38715687Y1445500D01*
X38715688Y1445500D01*
X38864313Y1445500D01*
X38864314Y1445501D01*
X39010080Y1474495D01*
X39147390Y1531371D01*
X39270966Y1613941D01*
X39376059Y1719034D01*
X39458629Y1842610D01*
X39465816Y1859962D01*
X45000500Y1859962D01*
X45000500Y1760038D01*
X45011487Y1719036D01*
X45026362Y1663519D01*
X45026363Y1663516D01*
X45076321Y1576985D01*
X45076323Y1576982D01*
X45076324Y1576981D01*
X45146981Y1506324D01*
X45233518Y1456362D01*
X45330038Y1430500D01*
X45330040Y1430500D01*
X45429960Y1430500D01*
X45429962Y1430500D01*
X45526482Y1456362D01*
X45613019Y1506324D01*
X45683676Y1576981D01*
X45733638Y1663518D01*
X45759500Y1760038D01*
X45759500Y1859962D01*
X45733638Y1956482D01*
X45683676Y2043019D01*
X45613019Y2113676D01*
X45613018Y2113677D01*
X45613015Y2113679D01*
X45526484Y2163637D01*
X45526482Y2163638D01*
X45429962Y2189500D01*
X45330038Y2189500D01*
X45233518Y2163638D01*
X45233515Y2163637D01*
X45146984Y2113679D01*
X45146979Y2113675D01*
X45076325Y2043021D01*
X45076321Y2043016D01*
X45026363Y1956485D01*
X45026362Y1956482D01*
X45000500Y1859962D01*
X39465816Y1859962D01*
X39515505Y1979920D01*
X39544500Y2125688D01*
X39544500Y2274312D01*
X39544499Y2274317D01*
X61495500Y2274317D01*
X61495500Y2125684D01*
X61524493Y1979928D01*
X61524495Y1979920D01*
X61581371Y1842609D01*
X61663939Y1719036D01*
X61663945Y1719029D01*
X61769028Y1613946D01*
X61769035Y1613940D01*
X61892608Y1531372D01*
X61892609Y1531372D01*
X61892610Y1531371D01*
X62029920Y1474495D01*
X62175683Y1445501D01*
X62175687Y1445500D01*
X62175688Y1445500D01*
X62324313Y1445500D01*
X62324314Y1445501D01*
X62470080Y1474495D01*
X62607390Y1531371D01*
X62730966Y1613941D01*
X62836059Y1719034D01*
X62918629Y1842610D01*
X62975505Y1979920D01*
X63004500Y2125688D01*
X63004500Y2274312D01*
X62975505Y2420080D01*
X62918629Y2557390D01*
X62836059Y2680966D01*
X62836054Y2680972D01*
X62730971Y2786055D01*
X62730964Y2786061D01*
X62607391Y2868629D01*
X62470080Y2925505D01*
X62470072Y2925507D01*
X62324316Y2954500D01*
X62324312Y2954500D01*
X62175688Y2954500D01*
X62175683Y2954500D01*
X62029927Y2925507D01*
X62029919Y2925505D01*
X61892608Y2868629D01*
X61769035Y2786061D01*
X61769028Y2786055D01*
X61663945Y2680972D01*
X61663939Y2680965D01*
X61581371Y2557392D01*
X61524495Y2420081D01*
X61524493Y2420073D01*
X61495500Y2274317D01*
X39544499Y2274317D01*
X39515505Y2420080D01*
X39458629Y2557390D01*
X39376059Y2680966D01*
X39376054Y2680972D01*
X39270971Y2786055D01*
X39270964Y2786061D01*
X39147391Y2868629D01*
X39010080Y2925505D01*
X39010072Y2925507D01*
X38864316Y2954500D01*
X38864312Y2954500D01*
X38715688Y2954500D01*
X38715683Y2954500D01*
X38569927Y2925507D01*
X38569919Y2925505D01*
X38432608Y2868629D01*
X38309035Y2786061D01*
X38309028Y2786055D01*
X38203945Y2680972D01*
X38203939Y2680965D01*
X38121371Y2557392D01*
X38064495Y2420081D01*
X38064493Y2420073D01*
X38035500Y2274317D01*
X37720029Y2274317D01*
X37720029Y3605324D01*
X37739714Y3672363D01*
X37792518Y3718118D01*
X37861676Y3728062D01*
X37916914Y3705642D01*
X38082442Y3585380D01*
X38271782Y3488905D01*
X38473870Y3423243D01*
X38683754Y3390000D01*
X38896246Y3390000D01*
X39106127Y3423243D01*
X39106130Y3423243D01*
X39308217Y3488905D01*
X39497554Y3585378D01*
X39551716Y3624730D01*
X39551717Y3624730D01*
X38919409Y4257038D01*
X38982993Y4274075D01*
X39097007Y4339901D01*
X39190099Y4432993D01*
X39255925Y4547007D01*
X39272962Y4610592D01*
X39905270Y3978283D01*
X39905270Y3978284D01*
X39944622Y4032446D01*
X40041095Y4221783D01*
X40106757Y4423870D01*
X40106757Y4423873D01*
X40140000Y4633754D01*
X40140000Y4846247D01*
X40106757Y5056128D01*
X40106757Y5056131D01*
X40041095Y5258218D01*
X39944624Y5447551D01*
X39905270Y5501718D01*
X39905269Y5501718D01*
X39272962Y4869410D01*
X39255925Y4932993D01*
X39190099Y5047007D01*
X39097007Y5140099D01*
X38982993Y5205925D01*
X38919407Y5222964D01*
X39551716Y5855272D01*
X39506985Y5887770D01*
X39506983Y5887773D01*
X39497556Y5894622D01*
X39497552Y5894624D01*
X39330068Y5979962D01*
X48790500Y5979962D01*
X48790500Y5880038D01*
X48807442Y5816811D01*
X48816362Y5783519D01*
X48816363Y5783516D01*
X48866321Y5696985D01*
X48866323Y5696982D01*
X48866324Y5696981D01*
X48936981Y5626324D01*
X49023518Y5576362D01*
X49120038Y5550500D01*
X49120040Y5550500D01*
X49219960Y5550500D01*
X49219962Y5550500D01*
X49316482Y5576362D01*
X49403019Y5626324D01*
X49473676Y5696981D01*
X49523638Y5783518D01*
X49536082Y5829962D01*
X51040500Y5829962D01*
X51040500Y5730038D01*
X51049358Y5696981D01*
X51066362Y5633519D01*
X51066363Y5633516D01*
X51116321Y5546985D01*
X51116323Y5546982D01*
X51116324Y5546981D01*
X51186981Y5476324D01*
X51273518Y5426362D01*
X51370038Y5400500D01*
X51370040Y5400500D01*
X51469960Y5400500D01*
X51469962Y5400500D01*
X51566482Y5426362D01*
X51653019Y5476324D01*
X51723676Y5546981D01*
X51773638Y5633518D01*
X51799500Y5730038D01*
X51799500Y5829962D01*
X56480500Y5829962D01*
X56480500Y5730038D01*
X56489358Y5696981D01*
X56506362Y5633519D01*
X56506363Y5633516D01*
X56556321Y5546985D01*
X56556323Y5546982D01*
X56556324Y5546981D01*
X56626981Y5476324D01*
X56713518Y5426362D01*
X56810038Y5400500D01*
X56810040Y5400500D01*
X56909960Y5400500D01*
X56909962Y5400500D01*
X57006482Y5426362D01*
X57093019Y5476324D01*
X57163676Y5546981D01*
X57213638Y5633518D01*
X57239500Y5730038D01*
X57239500Y5829962D01*
X57213638Y5926482D01*
X57163676Y6013019D01*
X57093019Y6083676D01*
X57093018Y6083677D01*
X57093015Y6083679D01*
X57006484Y6133637D01*
X57006483Y6133638D01*
X57006482Y6133638D01*
X56909962Y6159500D01*
X56810038Y6159500D01*
X56713518Y6133638D01*
X56713515Y6133637D01*
X56626984Y6083679D01*
X56626979Y6083675D01*
X56556325Y6013021D01*
X56556321Y6013016D01*
X56506363Y5926485D01*
X56506362Y5926482D01*
X56480500Y5829962D01*
X51799500Y5829962D01*
X51773638Y5926482D01*
X51723676Y6013019D01*
X51653019Y6083676D01*
X51653018Y6083677D01*
X51653015Y6083679D01*
X51566484Y6133637D01*
X51566483Y6133638D01*
X51566482Y6133638D01*
X51469962Y6159500D01*
X51370038Y6159500D01*
X51273518Y6133638D01*
X51273515Y6133637D01*
X51186984Y6083679D01*
X51186979Y6083675D01*
X51116325Y6013021D01*
X51116321Y6013016D01*
X51066363Y5926485D01*
X51066362Y5926482D01*
X51040500Y5829962D01*
X49536082Y5829962D01*
X49549500Y5880038D01*
X49549500Y5979962D01*
X49523638Y6076482D01*
X49473676Y6163019D01*
X49403019Y6233676D01*
X49403018Y6233677D01*
X49403015Y6233679D01*
X49316484Y6283637D01*
X49316483Y6283638D01*
X49316482Y6283638D01*
X49219962Y6309500D01*
X49120038Y6309500D01*
X49023518Y6283638D01*
X49023515Y6283637D01*
X48936984Y6233679D01*
X48936979Y6233675D01*
X48866325Y6163021D01*
X48866321Y6163016D01*
X48816363Y6076485D01*
X48816362Y6076482D01*
X48790500Y5979962D01*
X39330068Y5979962D01*
X39308217Y5991096D01*
X39106129Y6056758D01*
X38896246Y6090000D01*
X38683754Y6090000D01*
X38473872Y6056758D01*
X38473869Y6056758D01*
X38271782Y5991096D01*
X38082442Y5894621D01*
X37916914Y5774359D01*
X37851107Y5750879D01*
X37783054Y5766705D01*
X37734359Y5816811D01*
X37720029Y5874677D01*
X37720029Y7354317D01*
X38035500Y7354317D01*
X38035500Y7205684D01*
X38064493Y7059928D01*
X38064495Y7059920D01*
X38121371Y6922609D01*
X38203939Y6799036D01*
X38203945Y6799029D01*
X38309028Y6693946D01*
X38309035Y6693940D01*
X38432608Y6611372D01*
X38432609Y6611372D01*
X38432610Y6611371D01*
X38569920Y6554495D01*
X38715683Y6525501D01*
X38715687Y6525500D01*
X38715688Y6525500D01*
X38864313Y6525500D01*
X38864314Y6525501D01*
X39010080Y6554495D01*
X39147390Y6611371D01*
X39270966Y6693941D01*
X39376059Y6799034D01*
X39458629Y6922610D01*
X39515505Y7059920D01*
X39544500Y7205688D01*
X39544500Y7214962D01*
X53794011Y7214962D01*
X53794011Y7115038D01*
X53808778Y7059928D01*
X53819873Y7018519D01*
X53819874Y7018516D01*
X53869832Y6931985D01*
X53869834Y6931982D01*
X53869835Y6931981D01*
X53940492Y6861324D01*
X54027029Y6811362D01*
X54123549Y6785500D01*
X54123551Y6785500D01*
X54223471Y6785500D01*
X54223473Y6785500D01*
X54319993Y6811362D01*
X54406530Y6861324D01*
X54477187Y6931981D01*
X54527149Y7018518D01*
X54553011Y7115038D01*
X54553011Y7214962D01*
X54527149Y7311482D01*
X54502418Y7354317D01*
X61495500Y7354317D01*
X61495500Y7205684D01*
X61524493Y7059928D01*
X61524495Y7059920D01*
X61581371Y6922609D01*
X61663939Y6799036D01*
X61663945Y6799029D01*
X61769028Y6693946D01*
X61769035Y6693940D01*
X61892608Y6611372D01*
X61892609Y6611372D01*
X61892610Y6611371D01*
X62029920Y6554495D01*
X62175683Y6525501D01*
X62175687Y6525500D01*
X62175688Y6525500D01*
X62324313Y6525500D01*
X62324314Y6525501D01*
X62470080Y6554495D01*
X62607390Y6611371D01*
X62730966Y6693941D01*
X62836059Y6799034D01*
X62918629Y6922610D01*
X62975505Y7059920D01*
X63004500Y7205688D01*
X63004500Y7354312D01*
X62975505Y7500080D01*
X62918629Y7637390D01*
X62836059Y7760966D01*
X62836054Y7760972D01*
X62730971Y7866055D01*
X62730964Y7866061D01*
X62607391Y7948629D01*
X62470080Y8005505D01*
X62470072Y8005507D01*
X62324316Y8034500D01*
X62324312Y8034500D01*
X62175688Y8034500D01*
X62175683Y8034500D01*
X62029927Y8005507D01*
X62029919Y8005505D01*
X61892608Y7948629D01*
X61769035Y7866061D01*
X61769028Y7866055D01*
X61663945Y7760972D01*
X61663939Y7760965D01*
X61581371Y7637392D01*
X61524495Y7500081D01*
X61524493Y7500073D01*
X61495500Y7354317D01*
X54502418Y7354317D01*
X54477187Y7398019D01*
X54406530Y7468676D01*
X54406529Y7468677D01*
X54406526Y7468679D01*
X54319995Y7518637D01*
X54319994Y7518638D01*
X54319993Y7518638D01*
X54223473Y7544500D01*
X54123549Y7544500D01*
X54027029Y7518638D01*
X54027026Y7518637D01*
X53940495Y7468679D01*
X53940490Y7468675D01*
X53869836Y7398021D01*
X53869832Y7398016D01*
X53819874Y7311485D01*
X53819873Y7311482D01*
X53794011Y7214962D01*
X39544500Y7214962D01*
X39544500Y7354312D01*
X39515505Y7500080D01*
X39458629Y7637390D01*
X39376059Y7760966D01*
X39376054Y7760972D01*
X39270971Y7866055D01*
X39270964Y7866061D01*
X39147391Y7948629D01*
X39010080Y8005505D01*
X39010072Y8005507D01*
X38864316Y8034500D01*
X38864312Y8034500D01*
X38715688Y8034500D01*
X38715683Y8034500D01*
X38569927Y8005507D01*
X38569919Y8005505D01*
X38432608Y7948629D01*
X38309035Y7866061D01*
X38309028Y7866055D01*
X38203945Y7760972D01*
X38203939Y7760965D01*
X38121371Y7637392D01*
X38064495Y7500081D01*
X38064493Y7500073D01*
X38035500Y7354317D01*
X37720029Y7354317D01*
X37720029Y8685324D01*
X37739714Y8752363D01*
X37792518Y8798118D01*
X37861676Y8808062D01*
X37916914Y8785642D01*
X38082442Y8665380D01*
X38271782Y8568905D01*
X38473870Y8503243D01*
X38683754Y8470000D01*
X38896246Y8470000D01*
X39106127Y8503243D01*
X39106130Y8503243D01*
X39308217Y8568905D01*
X39497554Y8665378D01*
X39551716Y8704730D01*
X39551717Y8704730D01*
X38919409Y9337038D01*
X38982993Y9354075D01*
X39097007Y9419901D01*
X39190099Y9512993D01*
X39255925Y9627007D01*
X39272962Y9690592D01*
X39905270Y9058283D01*
X39905270Y9058284D01*
X39944626Y9112451D01*
X39953548Y9129962D01*
X49190500Y9129962D01*
X49190500Y9030039D01*
X49216362Y8933519D01*
X49216363Y8933516D01*
X49266321Y8846985D01*
X49266323Y8846982D01*
X49266324Y8846981D01*
X49336981Y8776324D01*
X49423518Y8726362D01*
X49520038Y8700500D01*
X49520040Y8700500D01*
X49619960Y8700500D01*
X49619962Y8700500D01*
X49716482Y8726362D01*
X49803019Y8776324D01*
X49873676Y8846981D01*
X49923638Y8933518D01*
X49949500Y9030038D01*
X49949500Y9129962D01*
X49923638Y9226482D01*
X49873676Y9313019D01*
X49803019Y9383676D01*
X49803018Y9383677D01*
X49803015Y9383679D01*
X49716484Y9433637D01*
X49716483Y9433638D01*
X49716482Y9433638D01*
X49619962Y9459500D01*
X49520038Y9459500D01*
X49423518Y9433638D01*
X49423515Y9433637D01*
X49336984Y9383679D01*
X49336979Y9383675D01*
X49266325Y9313021D01*
X49266321Y9313016D01*
X49216363Y9226485D01*
X49216362Y9226482D01*
X49190500Y9129962D01*
X39953548Y9129962D01*
X39986371Y9194379D01*
X39986373Y9194384D01*
X40041095Y9301783D01*
X40106757Y9503870D01*
X40106757Y9503873D01*
X40140000Y9713754D01*
X40140000Y9926247D01*
X40106757Y10136128D01*
X40106757Y10136131D01*
X40041095Y10338218D01*
X39944624Y10527552D01*
X39942695Y10530207D01*
X39942694Y10530210D01*
X39905271Y10581718D01*
X39905269Y10581718D01*
X39272962Y9949410D01*
X39255925Y10012993D01*
X39190099Y10127007D01*
X39097007Y10220099D01*
X38982993Y10285925D01*
X38919407Y10302964D01*
X39211405Y10594962D01*
X50140500Y10594962D01*
X50140500Y10495039D01*
X50166362Y10398519D01*
X50166363Y10398516D01*
X50216321Y10311985D01*
X50216323Y10311982D01*
X50216324Y10311981D01*
X50286981Y10241324D01*
X50373518Y10191362D01*
X50470038Y10165500D01*
X50470040Y10165500D01*
X50569960Y10165500D01*
X50569962Y10165500D01*
X50666482Y10191362D01*
X50753019Y10241324D01*
X50823676Y10311981D01*
X50873638Y10398518D01*
X50899500Y10495038D01*
X50899500Y10594962D01*
X50873638Y10691482D01*
X50823676Y10778019D01*
X50753019Y10848676D01*
X50753018Y10848677D01*
X50753015Y10848679D01*
X50666484Y10898637D01*
X50666483Y10898638D01*
X50666482Y10898638D01*
X50569962Y10924500D01*
X50470038Y10924500D01*
X50373518Y10898638D01*
X50373515Y10898637D01*
X50286984Y10848679D01*
X50286979Y10848675D01*
X50216325Y10778021D01*
X50216321Y10778016D01*
X50166363Y10691485D01*
X50166362Y10691482D01*
X50140500Y10594962D01*
X39211405Y10594962D01*
X39551716Y10935272D01*
X39497550Y10974625D01*
X39308217Y11071096D01*
X39106130Y11136758D01*
X39101398Y11137893D01*
X39101951Y11140200D01*
X39047627Y11165938D01*
X39010683Y11225242D01*
X39011666Y11295105D01*
X39050263Y11353346D01*
X39114221Y11381474D01*
X39130140Y11382500D01*
X39652559Y11382500D01*
X39659957Y11383972D01*
X39689748Y11389898D01*
X39731922Y11418078D01*
X39760102Y11460252D01*
X39767500Y11497442D01*
X39767500Y12434317D01*
X61495500Y12434317D01*
X61495500Y12285684D01*
X61524493Y12139928D01*
X61524495Y12139920D01*
X61581371Y12002609D01*
X61663939Y11879036D01*
X61663945Y11879029D01*
X61769028Y11773946D01*
X61769035Y11773940D01*
X61892608Y11691372D01*
X61892609Y11691372D01*
X61892610Y11691371D01*
X62029920Y11634495D01*
X62175683Y11605501D01*
X62175687Y11605500D01*
X62175688Y11605500D01*
X62324313Y11605500D01*
X62324314Y11605501D01*
X62470080Y11634495D01*
X62607390Y11691371D01*
X62730966Y11773941D01*
X62836059Y11879034D01*
X62918629Y12002610D01*
X62975505Y12139920D01*
X63004500Y12285688D01*
X63004500Y12434312D01*
X62975505Y12580080D01*
X62918629Y12717390D01*
X62836059Y12840966D01*
X62836054Y12840972D01*
X62730971Y12946055D01*
X62730964Y12946061D01*
X62607391Y13028629D01*
X62470080Y13085505D01*
X62470072Y13085507D01*
X62324316Y13114500D01*
X62324312Y13114500D01*
X62175688Y13114500D01*
X62175683Y13114500D01*
X62029927Y13085507D01*
X62029919Y13085505D01*
X61892608Y13028629D01*
X61769035Y12946061D01*
X61769028Y12946055D01*
X61663945Y12840972D01*
X61663939Y12840965D01*
X61581371Y12717392D01*
X61524495Y12580081D01*
X61524493Y12580073D01*
X61495500Y12434317D01*
X39767500Y12434317D01*
X39767500Y13222558D01*
X39767494Y13222586D01*
X39757719Y13271725D01*
X39759302Y13272041D01*
X39753336Y13327512D01*
X39784609Y13389992D01*
X39844696Y13425647D01*
X39875367Y13429500D01*
X62967332Y13429500D01*
X62979737Y13429500D01*
X62979756Y13429492D01*
G37*
G04 #@! TD.AperFunction*
M02*
