M48
; DRILL file {KiCad 9.0.0} date 2025-04-06T21:13:17-0400
; FORMAT={-:-/ absolute / metric / decimal}
; #@! TF.CreationDate,2025-04-06T21:13:17-04:00
; #@! TF.GenerationSoftware,Kicad,Pcbnew,9.0.0
; #@! TF.FileFunction,Plated,1,4,PTH
FMAT,2
METRIC
; #@! TA.AperFunction,Plated,PTH,ViaDrill
T1C0.200
; #@! TA.AperFunction,Plated,PTH,ViaDrill
T2C0.250
; #@! TA.AperFunction,Plated,PTH,ComponentDrill
T3C1.000
%
G90
G05
T1
X42.65Y9.79
X43.587Y-0.482
X44.18Y9.79
X44.195Y5.28
X46.43Y-5.79
X46.91Y0.86
X48.237Y8.995
X59.12Y-5.79
T2
X41.87Y0.815
X41.89Y-1.08
X43.385Y-3.96
X45.11Y-0.89
X45.38Y1.81
X49.17Y5.93
X49.57Y9.08
X50.52Y10.545
X51.42Y5.78
X51.42Y1.06
X52.04Y-3.24
X52.11Y-2.0
X54.174Y7.165
X56.085Y-3.968
X56.86Y5.78
X57.81Y-0.837
T3
X38.79Y12.36
X38.79Y9.82
X38.79Y7.28
X38.79Y4.74
X38.79Y2.2
X38.79Y-0.34
X38.79Y-2.88
X38.79Y-5.42
X62.25Y12.36
X62.25Y9.82
X62.25Y7.28
X62.25Y4.74
X62.25Y2.2
X62.25Y-0.34
X62.25Y-2.88
X62.25Y-5.42
M30
