G04 #@! TF.GenerationSoftware,KiCad,Pcbnew,9.0.0*
G04 #@! TF.CreationDate,2025-04-06T21:13:15-04:00*
G04 #@! TF.ProjectId,MiniCamel_riser,4d696e69-4361-46d6-956c-5f7269736572,2.1*
G04 #@! TF.SameCoordinates,PX16e3600PY6052340*
G04 #@! TF.FileFunction,Copper,L4,Bot*
G04 #@! TF.FilePolarity,Positive*
%FSLAX46Y46*%
G04 Gerber Fmt 4.6, Leading zero omitted, Abs format (unit mm)*
G04 Created by KiCad (PCBNEW 9.0.0) date 2025-04-06 21:13:15*
%MOMM*%
%LPD*%
G01*
G04 APERTURE LIST*
G04 Aperture macros list*
%AMRoundRect*
0 Rectangle with rounded corners*
0 $1 Rounding radius*
0 $2 $3 $4 $5 $6 $7 $8 $9 X,Y pos of 4 corners*
0 Add a 4 corners polygon primitive as box body*
4,1,4,$2,$3,$4,$5,$6,$7,$8,$9,$2,$3,0*
0 Add four circle primitives for the rounded corners*
1,1,$1+$1,$2,$3*
1,1,$1+$1,$4,$5*
1,1,$1+$1,$6,$7*
1,1,$1+$1,$8,$9*
0 Add four rect primitives between the rounded corners*
20,1,$1+$1,$2,$3,$4,$5,0*
20,1,$1+$1,$4,$5,$6,$7,0*
20,1,$1+$1,$6,$7,$8,$9,0*
20,1,$1+$1,$8,$9,$2,$3,0*%
G04 Aperture macros list end*
G04 #@! TA.AperFunction,ComponentPad*
%ADD10R,1.700000X1.700000*%
G04 #@! TD*
G04 #@! TA.AperFunction,ComponentPad*
%ADD11O,1.700000X1.700000*%
G04 #@! TD*
G04 #@! TA.AperFunction,SMDPad,CuDef*
%ADD12RoundRect,0.225000X-0.225000X-0.250000X0.225000X-0.250000X0.225000X0.250000X-0.225000X0.250000X0*%
G04 #@! TD*
G04 #@! TA.AperFunction,SMDPad,CuDef*
%ADD13RoundRect,0.225000X-0.250000X0.225000X-0.250000X-0.225000X0.250000X-0.225000X0.250000X0.225000X0*%
G04 #@! TD*
G04 #@! TA.AperFunction,SMDPad,CuDef*
%ADD14R,1.500000X1.000000*%
G04 #@! TD*
G04 #@! TA.AperFunction,SMDPad,CuDef*
%ADD15R,0.600000X1.200000*%
G04 #@! TD*
G04 #@! TA.AperFunction,SMDPad,CuDef*
%ADD16RoundRect,0.225000X0.250000X-0.225000X0.250000X0.225000X-0.250000X0.225000X-0.250000X-0.225000X0*%
G04 #@! TD*
G04 #@! TA.AperFunction,SMDPad,CuDef*
%ADD17RoundRect,0.225000X0.225000X0.250000X-0.225000X0.250000X-0.225000X-0.250000X0.225000X-0.250000X0*%
G04 #@! TD*
G04 #@! TA.AperFunction,SMDPad,CuDef*
%ADD18RoundRect,0.175000X-0.275000X-0.175000X0.275000X-0.175000X0.275000X0.175000X-0.275000X0.175000X0*%
G04 #@! TD*
G04 #@! TA.AperFunction,SMDPad,CuDef*
%ADD19RoundRect,0.150000X-0.150000X0.825000X-0.150000X-0.825000X0.150000X-0.825000X0.150000X0.825000X0*%
G04 #@! TD*
G04 #@! TA.AperFunction,ViaPad*
%ADD20C,0.460000*%
G04 #@! TD*
G04 #@! TA.AperFunction,ViaPad*
%ADD21C,0.450000*%
G04 #@! TD*
G04 #@! TA.AperFunction,Conductor*
%ADD22C,0.300000*%
G04 #@! TD*
G04 #@! TA.AperFunction,Conductor*
%ADD23C,0.200000*%
G04 #@! TD*
G04 #@! TA.AperFunction,Conductor*
%ADD24C,0.250000*%
G04 #@! TD*
G04 #@! TA.AperFunction,Conductor*
%ADD25C,0.500000*%
G04 #@! TD*
G04 #@! TA.AperFunction,Conductor*
%ADD26C,0.400000*%
G04 #@! TD*
G04 #@! TA.AperFunction,Conductor*
%ADD27C,0.127000*%
G04 #@! TD*
G04 #@! TA.AperFunction,Conductor*
%ADD28C,0.360000*%
G04 #@! TD*
G04 #@! TA.AperFunction,Conductor*
%ADD29C,0.180000*%
G04 #@! TD*
G04 APERTURE END LIST*
D10*
X38790000Y12360000D03*
D11*
X38790000Y9820000D03*
X38790000Y7280000D03*
X38790000Y4740000D03*
X38790000Y2200000D03*
X38790000Y-340000D03*
X38790000Y-2880000D03*
X38790000Y-5420000D03*
D10*
X62250000Y12360000D03*
D11*
X62250000Y9820000D03*
X62250000Y7280000D03*
X62250000Y4740000D03*
X62250000Y2200000D03*
X62250000Y-340000D03*
X62250000Y-2880000D03*
X62250000Y-5420000D03*
D12*
X42645000Y5280000D03*
X44195000Y5280000D03*
X42635000Y-1080000D03*
X44185000Y-1080000D03*
D13*
X48237044Y10545000D03*
X48237044Y8995000D03*
D14*
X42920000Y-5790000D03*
X45420000Y-5790000D03*
D15*
X44360000Y815000D03*
X43410000Y815000D03*
X42460000Y815000D03*
X42460000Y3015000D03*
X44360000Y3015000D03*
D14*
X55620000Y-5790000D03*
X58120000Y-5790000D03*
D16*
X44180000Y8240000D03*
X44180000Y9790000D03*
D17*
X50720000Y6760000D03*
X49170000Y6760000D03*
D13*
X42650000Y9790000D03*
X42650000Y8240000D03*
D16*
X53102956Y8995000D03*
X53102956Y10545000D03*
D18*
X49570000Y9770000D03*
X51770000Y9770000D03*
D19*
X46910000Y4390000D03*
X48180000Y4390000D03*
X49450000Y4390000D03*
X50720000Y4390000D03*
X51990000Y4390000D03*
X53260000Y4390000D03*
X54530000Y4390000D03*
X54530000Y-560000D03*
X53260000Y-560000D03*
X51990000Y-560000D03*
X50720000Y-560000D03*
X49450000Y-560000D03*
X48180000Y-560000D03*
X46910000Y-560000D03*
D20*
X46910000Y860000D03*
X59120000Y-5790000D03*
X46430000Y-5790000D03*
X42650000Y9790000D03*
X43587500Y-482500D03*
X44195000Y5280000D03*
X48237044Y8995000D03*
X44180000Y9790000D03*
D21*
X41870000Y815000D03*
X41890000Y-1080000D03*
X45110000Y-890000D03*
X57810000Y-837168D03*
X52110000Y-2000000D03*
X49570000Y9080000D03*
X54173511Y7165000D03*
X43385000Y-3960000D03*
X56085000Y-3967956D03*
X50520000Y10545000D03*
X52040000Y-3240000D03*
X51420000Y5780000D03*
X51420000Y1060000D03*
X56860000Y5780000D03*
X45380000Y1810000D03*
X49170000Y5930000D03*
D22*
X46910000Y-560000D02*
X46910000Y860000D01*
D23*
X51664000Y1816000D02*
X51990000Y1490000D01*
X45380000Y1810000D02*
X45386000Y1816000D01*
X45386000Y1816000D02*
X51664000Y1816000D01*
X51990000Y1490000D02*
X51990000Y-560000D01*
D22*
X58120000Y-5790000D02*
X59120000Y-5790000D01*
D24*
X45420000Y-5790000D02*
X46430000Y-5790000D01*
X43385000Y-3960000D02*
X43385000Y-5790000D01*
X43385000Y-5790000D02*
X42920000Y-5790000D01*
X56085000Y-3967956D02*
X56085000Y-5790000D01*
X56085000Y-5790000D02*
X55620000Y-5790000D01*
D23*
X56860000Y5780000D02*
X51420000Y5780000D01*
D25*
X41890000Y-1080000D02*
X42635000Y-1080000D01*
X41870000Y815000D02*
X42460000Y815000D01*
D22*
X38820000Y9790000D02*
X38790000Y9820000D01*
X43587500Y-482500D02*
X44185000Y-1080000D01*
X45110000Y-890000D02*
X44375000Y-890000D01*
X44375000Y-890000D02*
X44185000Y-1080000D01*
D23*
X42650000Y9790000D02*
X44180000Y9790000D01*
D26*
X44130000Y1940000D02*
X44360000Y1710000D01*
X42670000Y1940000D02*
X44130000Y1940000D01*
X42460000Y815000D02*
X42460000Y1730000D01*
D27*
X42460000Y-905000D02*
X42635000Y-1080000D01*
D26*
X44360000Y1710000D02*
X44360000Y815000D01*
X42460000Y815000D02*
X42460000Y-905000D01*
X42460000Y1730000D02*
X42670000Y1940000D01*
D22*
X43410000Y-305000D02*
X43587500Y-482500D01*
X43410000Y815000D02*
X43410000Y-305000D01*
D25*
X38790000Y-5420000D02*
X39410000Y-5420000D01*
D28*
X49570000Y9080000D02*
X49570000Y9770000D01*
D23*
X53102956Y9737044D02*
X53070000Y9770000D01*
D22*
X54173511Y7165000D02*
X53315000Y7165000D01*
D23*
X53102956Y8995000D02*
X53102956Y9737044D01*
D22*
X53315000Y7165000D02*
X53100000Y7380000D01*
D23*
X53070000Y9770000D02*
X51770000Y9770000D01*
D22*
X53100000Y8992044D02*
X53102956Y8995000D01*
X53100000Y7380000D02*
X53100000Y8992044D01*
D29*
X50520000Y10545000D02*
X53052956Y10545000D01*
X50520000Y10545000D02*
X48237044Y10545000D01*
X53052956Y10545000D02*
X53102956Y10595000D01*
D23*
X54530000Y-3000000D02*
X54530000Y-560000D01*
X54290000Y-3240000D02*
X54530000Y-3000000D01*
X51940000Y-3240000D02*
X54290000Y-3240000D01*
X50860000Y1060000D02*
X50720000Y920000D01*
X50720000Y920000D02*
X50720000Y-560000D01*
X51420000Y1060000D02*
X50860000Y1060000D01*
D28*
X42645000Y5280000D02*
X42460000Y5095000D01*
D27*
X42645000Y4970000D02*
X42635000Y4960000D01*
D28*
X42460000Y5095000D02*
X42460000Y3015000D01*
D27*
X42645000Y5280000D02*
X42645000Y4970000D01*
D25*
X46640000Y8240000D02*
X44180000Y8240000D01*
X46910000Y4390000D02*
X46910000Y7970000D01*
X46910000Y3180000D02*
X46745000Y3015000D01*
X46745000Y3015000D02*
X44360000Y3015000D01*
D22*
X42650000Y8240000D02*
X44180000Y8240000D01*
D25*
X46910000Y7970000D02*
X46640000Y8240000D01*
X46910000Y4390000D02*
X46910000Y3180000D01*
D24*
X50720000Y6760000D02*
X50720000Y4390000D01*
D22*
X49170000Y6760000D02*
X49170000Y5930000D01*
D23*
X54530000Y4390000D02*
X54530000Y3250000D01*
X59436138Y2830000D02*
X59672000Y3065862D01*
X54530000Y3250000D02*
X54950000Y2830000D01*
X60430000Y12360000D02*
X62250000Y12360000D01*
X59672000Y3065862D02*
X59672000Y11602000D01*
X59672000Y11602000D02*
X60430000Y12360000D01*
X54950000Y2830000D02*
X59436138Y2830000D01*
X59315862Y2174000D02*
X59587586Y2174000D01*
X53156138Y2800000D02*
X53348276Y2607862D01*
X51990000Y4390000D02*
X51990000Y3150000D01*
X59044138Y2174000D02*
X59315862Y2174000D01*
X53484138Y2472000D02*
X53540414Y2415724D01*
X54406552Y2174000D02*
X54678276Y2174000D01*
X53348276Y2607862D02*
X53484138Y2472000D01*
X52612690Y2800000D02*
X52884414Y2800000D01*
X59587586Y2174000D02*
X62224000Y2174000D01*
X62224000Y2174000D02*
X62250000Y2200000D01*
X52884414Y2800000D02*
X53156138Y2800000D01*
X53782138Y2174000D02*
X54406552Y2174000D01*
X52340000Y2800000D02*
X52612690Y2800000D01*
X52204138Y2935862D02*
X52340000Y2800000D01*
X53540414Y2415724D02*
X53676276Y2279862D01*
X53676276Y2279862D02*
X53782138Y2174000D01*
X52012000Y3128000D02*
X52204138Y2935862D01*
X54678276Y2174000D02*
X59044138Y2174000D01*
X51990000Y3150000D02*
X52012000Y3128000D01*
X59392000Y978000D02*
X59180000Y1190000D01*
X60440000Y-5420000D02*
X59392000Y-4372000D01*
X53260000Y740000D02*
X53260000Y-560000D01*
X59392000Y-4372000D02*
X59392000Y978000D01*
X62250000Y-5420000D02*
X60440000Y-5420000D01*
X53710000Y1190000D02*
X53260000Y740000D01*
X59180000Y1190000D02*
X53710000Y1190000D01*
X53212414Y2279862D02*
X53020276Y2472000D01*
X62250000Y-340000D02*
X60420000Y-340000D01*
X59855862Y1441862D02*
X59643862Y1653862D01*
X60050000Y920000D02*
X60048000Y922000D01*
X59643862Y1653862D02*
X59451724Y1846000D01*
X52204138Y2472000D02*
X51276414Y2472000D01*
X60050000Y30000D02*
X60050000Y920000D01*
X60048000Y1249724D02*
X59855862Y1441862D01*
X52748552Y2472000D02*
X52204138Y2472000D01*
X59180000Y1846000D02*
X53646276Y1846000D01*
X51276414Y2472000D02*
X50138000Y2472000D01*
X59451724Y1846000D02*
X59180000Y1846000D01*
X60048000Y922000D02*
X60048000Y978000D01*
X53020276Y2472000D02*
X52748552Y2472000D01*
X50138000Y2472000D02*
X49450000Y3160000D01*
X53646276Y1846000D02*
X53212414Y2279862D01*
X49450000Y3160000D02*
X49450000Y4390000D01*
X60048000Y978000D02*
X60048000Y1249724D01*
X60420000Y-340000D02*
X60050000Y30000D01*
X48180000Y3150000D02*
X48180000Y4390000D01*
X59720000Y1113862D02*
X59315862Y1518000D01*
X62250000Y-2880000D02*
X60440000Y-2880000D01*
X60440000Y-2880000D02*
X59720000Y-2160000D01*
X59315862Y1518000D02*
X53510414Y1518000D01*
X52884414Y2144000D02*
X49186000Y2144000D01*
X59720000Y-2160000D02*
X59720000Y1113862D01*
X53510414Y1518000D02*
X52884414Y2144000D01*
X49186000Y2144000D02*
X48180000Y3150000D01*
X53868414Y2551586D02*
X53918000Y2502000D01*
X53260000Y4390000D02*
X53260000Y3160000D01*
X58908276Y2502000D02*
X59180000Y2502000D01*
X53484138Y2935862D02*
X53620000Y2800000D01*
X60000000Y6840000D02*
X60440000Y7280000D01*
X53676276Y2743724D02*
X53812138Y2607862D01*
X53292000Y3128000D02*
X53484138Y2935862D01*
X53620000Y2800000D02*
X53676276Y2743724D01*
X54542414Y2502000D02*
X54814138Y2502000D01*
X59180000Y2502000D02*
X59451724Y2502000D01*
X54814138Y2502000D02*
X58908276Y2502000D01*
X53918000Y2502000D02*
X54270690Y2502000D01*
X59451724Y2502000D02*
X59572000Y2502000D01*
X53812138Y2607862D02*
X53868414Y2551586D01*
X53260000Y3160000D02*
X53292000Y3128000D01*
X60000000Y2930000D02*
X60000000Y6840000D01*
X54270690Y2502000D02*
X54542414Y2502000D01*
X59572000Y2502000D02*
X60000000Y2930000D01*
X60440000Y7280000D02*
X62250000Y7280000D01*
M02*
