%TF.GenerationSoftware,KiCad,Pcbnew,8.0.8*%
%TF.CreationDate,2025-02-26T19:38:44-05:00*%
%TF.ProjectId,MiniCamel_FrontPlate,4d696e69-4361-46d6-956c-5f46726f6e74,rev?*%
%TF.SameCoordinates,Original*%
%TF.FileFunction,Copper,L2,Bot*%
%TF.FilePolarity,Positive*%
%FSLAX46Y46*%
G04 Gerber Fmt 4.6, Leading zero omitted, Abs format (unit mm)*
G04 Created by KiCad (PCBNEW 8.0.8) date 2025-02-26 19:38:44*
%MOMM*%
%LPD*%
G01*
G04 APERTURE LIST*
%TA.AperFunction,ComponentPad*%
%ADD10C,4.064000*%
%TD*%
G04 APERTURE END LIST*
D10*
%TO.P,REF\u002A\u002A,1*%
%TO.N,GND*%
X81310000Y-71791723D03*
%TO.P,REF\u002A\u002A,2*%
X182460000Y-71791723D03*
%TO.P,REF\u002A\u002A,3*%
X81310000Y-109010000D03*
%TO.P,REF\u002A\u002A,4*%
X182460000Y-109010000D03*
%TD*%
%TA.AperFunction,Conductor*%
%TO.N,GND*%
G36*
X183304558Y-68710725D02*
G01*
X183571615Y-68726882D01*
X183586480Y-68728687D01*
X183845951Y-68776238D01*
X183860484Y-68779821D01*
X184112328Y-68858300D01*
X184126327Y-68863610D01*
X184366871Y-68971872D01*
X184380128Y-68978829D01*
X184605882Y-69115303D01*
X184618193Y-69123801D01*
X184733486Y-69214127D01*
X184825851Y-69286490D01*
X184837059Y-69296420D01*
X185023579Y-69482940D01*
X185033509Y-69494148D01*
X185196194Y-69701800D01*
X185204700Y-69714123D01*
X185341169Y-69939870D01*
X185348127Y-69953128D01*
X185456389Y-70193672D01*
X185461699Y-70207673D01*
X185540177Y-70459512D01*
X185543761Y-70474051D01*
X185591312Y-70733520D01*
X185593117Y-70748384D01*
X185609274Y-71015441D01*
X185609500Y-71022929D01*
X185609500Y-109697070D01*
X185609274Y-109704558D01*
X185593117Y-109971615D01*
X185591312Y-109986479D01*
X185543761Y-110245948D01*
X185540177Y-110260487D01*
X185461699Y-110512326D01*
X185456389Y-110526327D01*
X185348127Y-110766871D01*
X185341169Y-110780129D01*
X185204700Y-111005876D01*
X185196194Y-111018199D01*
X185033509Y-111225851D01*
X185023579Y-111237059D01*
X184837059Y-111423579D01*
X184825851Y-111433509D01*
X184618199Y-111596194D01*
X184605876Y-111604700D01*
X184380129Y-111741169D01*
X184366871Y-111748127D01*
X184126327Y-111856389D01*
X184112326Y-111861699D01*
X183860487Y-111940177D01*
X183845948Y-111943761D01*
X183586479Y-111991312D01*
X183571615Y-111993117D01*
X183304559Y-112009274D01*
X183297071Y-112009500D01*
X80440655Y-112009500D01*
X80433168Y-112009274D01*
X80163971Y-111992990D01*
X80149107Y-111991185D01*
X79887532Y-111943251D01*
X79872993Y-111939667D01*
X79619116Y-111860556D01*
X79605115Y-111855247D01*
X79362608Y-111746104D01*
X79349349Y-111739145D01*
X79121773Y-111601570D01*
X79109450Y-111593064D01*
X78900113Y-111429059D01*
X78888905Y-111419129D01*
X78700870Y-111231094D01*
X78690940Y-111219886D01*
X78679627Y-111205446D01*
X78526931Y-111010543D01*
X78518433Y-110998232D01*
X78380851Y-110770644D01*
X78373899Y-110757398D01*
X78264750Y-110514880D01*
X78259443Y-110500883D01*
X78180329Y-110246995D01*
X78176750Y-110232477D01*
X78128813Y-109970888D01*
X78127009Y-109956028D01*
X78110726Y-109686832D01*
X78110500Y-109679345D01*
X78110500Y-100057107D01*
X103589500Y-100057107D01*
X103589500Y-101808891D01*
X103623608Y-101936187D01*
X103656554Y-101993250D01*
X103689500Y-102050314D01*
X103782686Y-102143500D01*
X103881521Y-102200563D01*
X103896621Y-102209281D01*
X103896814Y-102209392D01*
X104024108Y-102243500D01*
X118845996Y-102243500D01*
X118846633Y-102243541D01*
X118854392Y-102243536D01*
X118854394Y-102243537D01*
X118919407Y-102243500D01*
X118985892Y-102243500D01*
X118985892Y-102243499D01*
X118986177Y-102243462D01*
X118986178Y-102243462D01*
X119048926Y-102226609D01*
X119048929Y-102226621D01*
X119048991Y-102226591D01*
X119113186Y-102209392D01*
X119113194Y-102209386D01*
X119113446Y-102209282D01*
X119113452Y-102209281D01*
X119150948Y-102187603D01*
X119169698Y-102176764D01*
X119169699Y-102176766D01*
X119169748Y-102176734D01*
X119227314Y-102143500D01*
X119227322Y-102143491D01*
X119227537Y-102143326D01*
X119227543Y-102143324D01*
X119273673Y-102097140D01*
X119273674Y-102097139D01*
X119273684Y-102097149D01*
X119273721Y-102097091D01*
X119320500Y-102050314D01*
X119320503Y-102050309D01*
X119320671Y-102050088D01*
X119320675Y-102050085D01*
X119353035Y-101993962D01*
X119353071Y-101993900D01*
X119381881Y-101943999D01*
X119386392Y-101936186D01*
X119386394Y-101936175D01*
X119386497Y-101935926D01*
X119386502Y-101935919D01*
X119403463Y-101872472D01*
X119403500Y-101872411D01*
X119403481Y-101872406D01*
X119420500Y-101808892D01*
X119420500Y-101808887D01*
X119420501Y-101808884D01*
X119420538Y-101808604D01*
X119420500Y-101742120D01*
X119420500Y-101669213D01*
X119420457Y-101668575D01*
X119420338Y-101460971D01*
X119419581Y-100133884D01*
X119419586Y-100058062D01*
X119389982Y-99909192D01*
X119331901Y-99768958D01*
X119247576Y-99642752D01*
X119140248Y-99535424D01*
X119014042Y-99451099D01*
X119014038Y-99451097D01*
X119014036Y-99451096D01*
X119014037Y-99451096D01*
X118873811Y-99393019D01*
X118873809Y-99393018D01*
X118873808Y-99393018D01*
X118724938Y-99363414D01*
X118650895Y-99363417D01*
X118650882Y-99363417D01*
X104433524Y-99362504D01*
X104433452Y-99362500D01*
X104425892Y-99362500D01*
X104360000Y-99362500D01*
X104356366Y-99362500D01*
X104356355Y-99362499D01*
X104286094Y-99362495D01*
X104286018Y-99362500D01*
X104284109Y-99362500D01*
X104135260Y-99392108D01*
X104135252Y-99392110D01*
X103995032Y-99450190D01*
X103868834Y-99534513D01*
X103761513Y-99641834D01*
X103677190Y-99768032D01*
X103619110Y-99908252D01*
X103619108Y-99908260D01*
X103589500Y-100057107D01*
X78110500Y-100057107D01*
X78110500Y-95740000D01*
X88744747Y-95740000D01*
X88763741Y-96054023D01*
X88763741Y-96054028D01*
X88763742Y-96054029D01*
X88820451Y-96363478D01*
X88820452Y-96363482D01*
X88820453Y-96363486D01*
X88914039Y-96663816D01*
X88914043Y-96663827D01*
X88914044Y-96663830D01*
X88914046Y-96663835D01*
X89043163Y-96950721D01*
X89172799Y-97165165D01*
X89205924Y-97219960D01*
X89399942Y-97467605D01*
X89622394Y-97690057D01*
X89870039Y-97884075D01*
X89870044Y-97884078D01*
X89870048Y-97884081D01*
X90139279Y-98046837D01*
X90426165Y-98175954D01*
X90426175Y-98175957D01*
X90426183Y-98175960D01*
X90626403Y-98238350D01*
X90726522Y-98269549D01*
X91035971Y-98326258D01*
X91350000Y-98345253D01*
X91664029Y-98326258D01*
X91973478Y-98269549D01*
X92273835Y-98175954D01*
X92560721Y-98046837D01*
X92829952Y-97884081D01*
X93077602Y-97690060D01*
X93300060Y-97467602D01*
X93494081Y-97219952D01*
X93656837Y-96950721D01*
X93785954Y-96663835D01*
X93879549Y-96363478D01*
X93936258Y-96054029D01*
X93955253Y-95740000D01*
X93936258Y-95425971D01*
X93879549Y-95116522D01*
X93785954Y-94816165D01*
X93656837Y-94529279D01*
X93494081Y-94260048D01*
X93494078Y-94260044D01*
X93494075Y-94260039D01*
X93300057Y-94012394D01*
X93077605Y-93789942D01*
X92829960Y-93595924D01*
X92829952Y-93595919D01*
X92560721Y-93433163D01*
X92273835Y-93304046D01*
X92273830Y-93304044D01*
X92273827Y-93304043D01*
X92273816Y-93304039D01*
X91973486Y-93210453D01*
X91973482Y-93210452D01*
X91973478Y-93210451D01*
X91664029Y-93153742D01*
X91664028Y-93153741D01*
X91664023Y-93153741D01*
X91350000Y-93134747D01*
X91035976Y-93153741D01*
X91035971Y-93153742D01*
X90726522Y-93210451D01*
X90726519Y-93210451D01*
X90726513Y-93210453D01*
X90426183Y-93304039D01*
X90426172Y-93304043D01*
X90426166Y-93304045D01*
X90426165Y-93304046D01*
X90139279Y-93433163D01*
X90067864Y-93476335D01*
X89870039Y-93595924D01*
X89622394Y-93789942D01*
X89399942Y-94012394D01*
X89205924Y-94260039D01*
X89043162Y-94529281D01*
X89043161Y-94529283D01*
X88914043Y-94816172D01*
X88914039Y-94816183D01*
X88820453Y-95116513D01*
X88820451Y-95116519D01*
X88820451Y-95116522D01*
X88795907Y-95250453D01*
X88763741Y-95425976D01*
X88744747Y-95740000D01*
X78110500Y-95740000D01*
X78110500Y-91134999D01*
X103980000Y-91134999D01*
X103980000Y-91135000D01*
X103999069Y-91340794D01*
X103999069Y-91340796D01*
X103999070Y-91340799D01*
X104050152Y-91520333D01*
X104055632Y-91539594D01*
X104147753Y-91724598D01*
X104147758Y-91724606D01*
X104272311Y-91889541D01*
X104403707Y-92009323D01*
X104425049Y-92028779D01*
X104558887Y-92111648D01*
X104595215Y-92134142D01*
X104600773Y-92137583D01*
X104793497Y-92212245D01*
X104996659Y-92250222D01*
X104996662Y-92250222D01*
X105203338Y-92250222D01*
X105203341Y-92250222D01*
X105406503Y-92212245D01*
X105599227Y-92137583D01*
X105774951Y-92028779D01*
X105927690Y-91889539D01*
X106052243Y-91724604D01*
X106144369Y-91539591D01*
X106200930Y-91340799D01*
X106220000Y-91135000D01*
X106219073Y-91124999D01*
X116620000Y-91124999D01*
X116620000Y-91125000D01*
X116639069Y-91330794D01*
X116639069Y-91330796D01*
X116639070Y-91330799D01*
X116692996Y-91520330D01*
X116695632Y-91529594D01*
X116787753Y-91714598D01*
X116787758Y-91714606D01*
X116912311Y-91879541D01*
X117043707Y-91999323D01*
X117065049Y-92018779D01*
X117198887Y-92101648D01*
X117235207Y-92124137D01*
X117240773Y-92127583D01*
X117433497Y-92202245D01*
X117636659Y-92240222D01*
X117636662Y-92240222D01*
X117843338Y-92240222D01*
X117843341Y-92240222D01*
X118046503Y-92202245D01*
X118239227Y-92127583D01*
X118414951Y-92018779D01*
X118567690Y-91879539D01*
X118692243Y-91714604D01*
X118784369Y-91529591D01*
X118840930Y-91330799D01*
X118860000Y-91125000D01*
X118840930Y-90919201D01*
X118784369Y-90720409D01*
X118697225Y-90545401D01*
X118692246Y-90535401D01*
X118692241Y-90535393D01*
X118567688Y-90370458D01*
X118414952Y-90231222D01*
X118414951Y-90231221D01*
X118255378Y-90132417D01*
X118239228Y-90122417D01*
X118239226Y-90122416D01*
X118154129Y-90089450D01*
X118046503Y-90047755D01*
X117843341Y-90009778D01*
X117636659Y-90009778D01*
X117433497Y-90047755D01*
X117379683Y-90068602D01*
X117240773Y-90122416D01*
X117240771Y-90122417D01*
X117065047Y-90231222D01*
X116912311Y-90370458D01*
X116787758Y-90535393D01*
X116787753Y-90535401D01*
X116695632Y-90720405D01*
X116639069Y-90919205D01*
X116620000Y-91124999D01*
X106219073Y-91124999D01*
X106200930Y-90929201D01*
X106144369Y-90730409D01*
X106127622Y-90696776D01*
X106052246Y-90545401D01*
X106052241Y-90545393D01*
X105927688Y-90380458D01*
X105774952Y-90241222D01*
X105774951Y-90241221D01*
X105708032Y-90199786D01*
X105599228Y-90132417D01*
X105599226Y-90132416D01*
X105514129Y-90099450D01*
X105406503Y-90057755D01*
X105203341Y-90019778D01*
X104996659Y-90019778D01*
X104793497Y-90057755D01*
X104739683Y-90078602D01*
X104600773Y-90132416D01*
X104600771Y-90132417D01*
X104425047Y-90241222D01*
X104272311Y-90380458D01*
X104147758Y-90545393D01*
X104147753Y-90545401D01*
X104055632Y-90730405D01*
X103999069Y-90929205D01*
X103980000Y-91134999D01*
X78110500Y-91134999D01*
X78110500Y-88609484D01*
X125695483Y-88609484D01*
X125695483Y-100590516D01*
X125695705Y-100605498D01*
X125697882Y-100678801D01*
X125714882Y-100794622D01*
X125714882Y-100794626D01*
X125714884Y-100794632D01*
X125752830Y-100936253D01*
X125752831Y-100936254D01*
X125752834Y-100936264D01*
X125798608Y-101046770D01*
X125803332Y-101058175D01*
X125876642Y-101185151D01*
X125876645Y-101185155D01*
X125876649Y-101185161D01*
X125956975Y-101289842D01*
X125956983Y-101289851D01*
X126060641Y-101393509D01*
X126060649Y-101393516D01*
X126060650Y-101393517D01*
X126076239Y-101405479D01*
X126165330Y-101473842D01*
X126165333Y-101473844D01*
X126165341Y-101473850D01*
X126292317Y-101547160D01*
X126414237Y-101597661D01*
X126555860Y-101635608D01*
X126671686Y-101652609D01*
X126720558Y-101654060D01*
X126744993Y-101654786D01*
X126759976Y-101655009D01*
X126760000Y-101655009D01*
X131360024Y-101655009D01*
X131375006Y-101654786D01*
X131448296Y-101652610D01*
X131448302Y-101652609D01*
X131448314Y-101652609D01*
X131496965Y-101645467D01*
X131564133Y-101635609D01*
X131564137Y-101635607D01*
X131564143Y-101635607D01*
X131705766Y-101597659D01*
X131827680Y-101547161D01*
X131954656Y-101473852D01*
X132059352Y-101393516D01*
X132163027Y-101289840D01*
X132243357Y-101185151D01*
X132316667Y-101058176D01*
X132367169Y-100936254D01*
X132405116Y-100794630D01*
X132422117Y-100678805D01*
X132424294Y-100605496D01*
X132424517Y-100590515D01*
X132424517Y-96079236D01*
X133978655Y-96079236D01*
X133978655Y-96079243D01*
X133998978Y-96428166D01*
X133998979Y-96428177D01*
X134059668Y-96772363D01*
X134059671Y-96772376D01*
X134159912Y-97107206D01*
X134298350Y-97428141D01*
X134473109Y-97730831D01*
X134587200Y-97884081D01*
X134681826Y-98011186D01*
X134921679Y-98265416D01*
X135086215Y-98403478D01*
X135189431Y-98490086D01*
X135481438Y-98682142D01*
X135793775Y-98839003D01*
X135793776Y-98839004D01*
X135793779Y-98839005D01*
X135793783Y-98839007D01*
X136122221Y-98958549D01*
X136122227Y-98958550D01*
X136122229Y-98958551D01*
X136462301Y-99039151D01*
X136462308Y-99039152D01*
X136462317Y-99039154D01*
X136809471Y-99079730D01*
X136809478Y-99079730D01*
X137158982Y-99079730D01*
X137158989Y-99079730D01*
X137506143Y-99039154D01*
X137506152Y-99039151D01*
X137506158Y-99039151D01*
X137780475Y-98974135D01*
X137846239Y-98958549D01*
X138174677Y-98839007D01*
X138487018Y-98682144D01*
X138505571Y-98669941D01*
X138779028Y-98490086D01*
X138779030Y-98490084D01*
X138779035Y-98490081D01*
X139046781Y-98265416D01*
X139286634Y-98011186D01*
X139304113Y-97987706D01*
X139359934Y-97945688D01*
X139429612Y-97940518D01*
X139491025Y-97973840D01*
X139524673Y-98035073D01*
X139525658Y-98040022D01*
X139772697Y-99427761D01*
X139773205Y-99430843D01*
X139791057Y-99548185D01*
X139791060Y-99548198D01*
X139807339Y-99619770D01*
X139807340Y-99619773D01*
X139807401Y-99620039D01*
X139808287Y-99622784D01*
X139899625Y-99924081D01*
X139929980Y-100024212D01*
X139929983Y-100024219D01*
X139964612Y-100106802D01*
X139966810Y-100112424D01*
X139968716Y-100117673D01*
X140100635Y-100364403D01*
X140201898Y-100553796D01*
X140203159Y-100556130D01*
X140204014Y-100557711D01*
X140204016Y-100557715D01*
X140228380Y-100590261D01*
X140235188Y-100600352D01*
X140257918Y-100637897D01*
X140257920Y-100637899D01*
X140571609Y-101020169D01*
X140618089Y-101069627D01*
X140620009Y-101070959D01*
X140640835Y-101089159D01*
X140643243Y-101091792D01*
X140643248Y-101091797D01*
X141025513Y-101405482D01*
X141025522Y-101405488D01*
X141087343Y-101448915D01*
X141093259Y-101452174D01*
X141093105Y-101452453D01*
X141105631Y-101459529D01*
X141105867Y-101459156D01*
X141109605Y-101461512D01*
X141109610Y-101461515D01*
X141109612Y-101461516D01*
X141545732Y-101694686D01*
X141627694Y-101728213D01*
X141633201Y-101730625D01*
X141639143Y-101733403D01*
X142112343Y-101876913D01*
X142116634Y-101878194D01*
X142139726Y-101881514D01*
X142157483Y-101884067D01*
X142169382Y-101886375D01*
X142211733Y-101896766D01*
X142703733Y-101945026D01*
X142747175Y-101947151D01*
X142750386Y-101947458D01*
X142750391Y-101947388D01*
X142754794Y-101947698D01*
X142754808Y-101947700D01*
X156110843Y-101935589D01*
X156131062Y-101937482D01*
X156133047Y-101937570D01*
X156133048Y-101937571D01*
X156157429Y-101938661D01*
X156175867Y-101940877D01*
X156200600Y-101945752D01*
X156230156Y-101943053D01*
X156246957Y-101942664D01*
X156276785Y-101943999D01*
X156756845Y-101896749D01*
X156781136Y-101893373D01*
X156796854Y-101891190D01*
X156796855Y-101891189D01*
X156796859Y-101891189D01*
X156815995Y-101884828D01*
X156836365Y-101879925D01*
X156856077Y-101876913D01*
X157329277Y-101733403D01*
X157410421Y-101699368D01*
X157416006Y-101697184D01*
X157423049Y-101694627D01*
X157858909Y-101461457D01*
X157859815Y-101460971D01*
X157894221Y-101435563D01*
X157903648Y-101429248D01*
X157942907Y-101405482D01*
X158325177Y-101091792D01*
X158373274Y-101046770D01*
X158375289Y-101043888D01*
X158393226Y-101023446D01*
X158396812Y-101020167D01*
X158710502Y-100637897D01*
X158756908Y-100571013D01*
X158756910Y-100571006D01*
X158760200Y-100564912D01*
X158760481Y-100565063D01*
X158765049Y-100556130D01*
X158766520Y-100553796D01*
X158766526Y-100553788D01*
X158999696Y-100117668D01*
X159033118Y-100035960D01*
X159035534Y-100030445D01*
X159038424Y-100024265D01*
X159181934Y-99551055D01*
X159183214Y-99546766D01*
X159189116Y-99505714D01*
X159191415Y-99493860D01*
X159201789Y-99451519D01*
X159201790Y-99451515D01*
X159204796Y-99420762D01*
X159206071Y-99411409D01*
X159209456Y-99392108D01*
X159445763Y-98044457D01*
X159476731Y-97981825D01*
X159536644Y-97945878D01*
X159606480Y-97948028D01*
X159664068Y-97987594D01*
X159667364Y-97991828D01*
X159681761Y-98011167D01*
X159681767Y-98011174D01*
X159681776Y-98011186D01*
X159921629Y-98265416D01*
X160086165Y-98403478D01*
X160189381Y-98490086D01*
X160481388Y-98682142D01*
X160793725Y-98839003D01*
X160793726Y-98839004D01*
X160793729Y-98839005D01*
X160793733Y-98839007D01*
X161122171Y-98958549D01*
X161122177Y-98958550D01*
X161122179Y-98958551D01*
X161462251Y-99039151D01*
X161462258Y-99039152D01*
X161462267Y-99039154D01*
X161809421Y-99079730D01*
X161809428Y-99079730D01*
X162158932Y-99079730D01*
X162158939Y-99079730D01*
X162506093Y-99039154D01*
X162506102Y-99039151D01*
X162506108Y-99039151D01*
X162780425Y-98974135D01*
X162846189Y-98958549D01*
X163174627Y-98839007D01*
X163486968Y-98682144D01*
X163505521Y-98669941D01*
X163778978Y-98490086D01*
X163778980Y-98490084D01*
X163778985Y-98490081D01*
X164046731Y-98265416D01*
X164286584Y-98011186D01*
X164458695Y-97780000D01*
X168914747Y-97780000D01*
X168933741Y-98094023D01*
X168933741Y-98094028D01*
X168933742Y-98094029D01*
X168990451Y-98403478D01*
X168990452Y-98403482D01*
X168990453Y-98403486D01*
X169084039Y-98703816D01*
X169084043Y-98703827D01*
X169084044Y-98703830D01*
X169084046Y-98703835D01*
X169213163Y-98990721D01*
X169266971Y-99079730D01*
X169375924Y-99259960D01*
X169569942Y-99507605D01*
X169792394Y-99730057D01*
X170040039Y-99924075D01*
X170040044Y-99924078D01*
X170040048Y-99924081D01*
X170309279Y-100086837D01*
X170596165Y-100215954D01*
X170596175Y-100215957D01*
X170596183Y-100215960D01*
X170796403Y-100278350D01*
X170896522Y-100309549D01*
X171205971Y-100366258D01*
X171520000Y-100385253D01*
X171834029Y-100366258D01*
X172143478Y-100309549D01*
X172443835Y-100215954D01*
X172730721Y-100086837D01*
X172999952Y-99924081D01*
X173018957Y-99909192D01*
X173199134Y-99768032D01*
X173247602Y-99730060D01*
X173470060Y-99507602D01*
X173664081Y-99259952D01*
X173826837Y-98990721D01*
X173955954Y-98703835D01*
X174049549Y-98403478D01*
X174106258Y-98094029D01*
X174125253Y-97780000D01*
X174106258Y-97465971D01*
X174049549Y-97156522D01*
X173955954Y-96856165D01*
X173826837Y-96569279D01*
X173664081Y-96300048D01*
X173664078Y-96300044D01*
X173664075Y-96300039D01*
X173470057Y-96052394D01*
X173247605Y-95829942D01*
X172999960Y-95635924D01*
X172999952Y-95635919D01*
X172730721Y-95473163D01*
X172443835Y-95344046D01*
X172443830Y-95344044D01*
X172443827Y-95344043D01*
X172443816Y-95344039D01*
X172143486Y-95250453D01*
X172143482Y-95250452D01*
X172143478Y-95250451D01*
X171834029Y-95193742D01*
X171834028Y-95193741D01*
X171834023Y-95193741D01*
X171520000Y-95174747D01*
X171205976Y-95193741D01*
X171205971Y-95193742D01*
X170896522Y-95250451D01*
X170896519Y-95250451D01*
X170896513Y-95250453D01*
X170596183Y-95344039D01*
X170596172Y-95344043D01*
X170309283Y-95473161D01*
X170309281Y-95473162D01*
X170040039Y-95635924D01*
X169792394Y-95829942D01*
X169569942Y-96052394D01*
X169375924Y-96300039D01*
X169213162Y-96569281D01*
X169213161Y-96569283D01*
X169084043Y-96856172D01*
X169084039Y-96856183D01*
X168990453Y-97156513D01*
X168990451Y-97156519D01*
X168990451Y-97156522D01*
X168971265Y-97261215D01*
X168933741Y-97465976D01*
X168914747Y-97780000D01*
X164458695Y-97780000D01*
X164495301Y-97730830D01*
X164670060Y-97428140D01*
X164808497Y-97107207D01*
X164908739Y-96772373D01*
X164969432Y-96428166D01*
X164989755Y-96079240D01*
X164988191Y-96052394D01*
X164984570Y-95990217D01*
X164969432Y-95730314D01*
X164969430Y-95730302D01*
X164908741Y-95386116D01*
X164908738Y-95386103D01*
X164808497Y-95051273D01*
X164670059Y-94730338D01*
X164495300Y-94427648D01*
X164286594Y-94147308D01*
X164286584Y-94147294D01*
X164046731Y-93893064D01*
X163778985Y-93668399D01*
X163778978Y-93668393D01*
X163486971Y-93476337D01*
X163174634Y-93319476D01*
X163174633Y-93319475D01*
X162846195Y-93199933D01*
X162846180Y-93199928D01*
X162506108Y-93119328D01*
X162506093Y-93119326D01*
X162158939Y-93078750D01*
X161809421Y-93078750D01*
X161505661Y-93114254D01*
X161462266Y-93119326D01*
X161462251Y-93119328D01*
X161122179Y-93199928D01*
X161122164Y-93199933D01*
X160793726Y-93319475D01*
X160793725Y-93319476D01*
X160481399Y-93476331D01*
X160481393Y-93476335D01*
X160432644Y-93508397D01*
X160365816Y-93528788D01*
X160298572Y-93509812D01*
X160252263Y-93457494D01*
X160241107Y-93392616D01*
X160250265Y-93299844D01*
X160252382Y-93268390D01*
X160249693Y-93243315D01*
X160249110Y-93224581D01*
X160250270Y-93198549D01*
X160201750Y-92706549D01*
X160196200Y-92666633D01*
X160189896Y-92647666D01*
X160184992Y-92627303D01*
X160181901Y-92607093D01*
X160059055Y-92202244D01*
X160038391Y-92134142D01*
X160036624Y-92129682D01*
X160007699Y-92056657D01*
X160007693Y-92056642D01*
X160000090Y-92041286D01*
X159999669Y-92040403D01*
X159999258Y-92039605D01*
X159989331Y-92019553D01*
X159984742Y-92012582D01*
X159766517Y-91604415D01*
X159766187Y-91603805D01*
X159764407Y-91600510D01*
X159739953Y-91567844D01*
X159733143Y-91557749D01*
X159710493Y-91520334D01*
X159710491Y-91520332D01*
X159710489Y-91520330D01*
X159396802Y-91138063D01*
X159384573Y-91124999D01*
X159351786Y-91089972D01*
X159351784Y-91089970D01*
X159351780Y-91089966D01*
X159351773Y-91089961D01*
X159348790Y-91087874D01*
X159328401Y-91069993D01*
X159325016Y-91066295D01*
X158942757Y-90752873D01*
X158942745Y-90752865D01*
X158881964Y-90713459D01*
X158875994Y-90709335D01*
X158858916Y-90696777D01*
X158423056Y-90463597D01*
X158423049Y-90463594D01*
X158423047Y-90463593D01*
X158339025Y-90429209D01*
X158333504Y-90426792D01*
X158331532Y-90425870D01*
X158329275Y-90424816D01*
X158329272Y-90424815D01*
X158329270Y-90424814D01*
X158329271Y-90424814D01*
X157856064Y-90281305D01*
X157800949Y-90272182D01*
X157791594Y-90270260D01*
X157779509Y-90267289D01*
X157756938Y-90261739D01*
X157264975Y-90213222D01*
X157264930Y-90213219D01*
X157215333Y-90210780D01*
X157215330Y-90210780D01*
X157213929Y-90210780D01*
X155329804Y-90212235D01*
X141857579Y-90222642D01*
X141836437Y-90220668D01*
X141822842Y-90220067D01*
X141817874Y-90219847D01*
X141797865Y-90217321D01*
X141783358Y-90214274D01*
X141777712Y-90213088D01*
X141777709Y-90213087D01*
X141761848Y-90214221D01*
X141761119Y-90214274D01*
X141752277Y-90214590D01*
X141701679Y-90214590D01*
X141696203Y-90214469D01*
X141691385Y-90214256D01*
X141691372Y-90214256D01*
X141211315Y-90261755D01*
X141171567Y-90267289D01*
X141171553Y-90267292D01*
X141153865Y-90273170D01*
X141133506Y-90278072D01*
X141112341Y-90281307D01*
X140639145Y-90424816D01*
X140557969Y-90458861D01*
X140552360Y-90461054D01*
X140545368Y-90463594D01*
X140545359Y-90463598D01*
X140109455Y-90696803D01*
X140108610Y-90697255D01*
X140108602Y-90697261D01*
X140093151Y-90708670D01*
X140087160Y-90712827D01*
X140025673Y-90752866D01*
X139643412Y-91066288D01*
X139643404Y-91066295D01*
X139643402Y-91066297D01*
X139618212Y-91089961D01*
X139593779Y-91112913D01*
X139593776Y-91112916D01*
X139592461Y-91114813D01*
X139574277Y-91135621D01*
X139571609Y-91138061D01*
X139571607Y-91138063D01*
X139257919Y-91520330D01*
X139257918Y-91520331D01*
X139212095Y-91586214D01*
X139208810Y-91592278D01*
X139208572Y-91592149D01*
X139203922Y-91601213D01*
X139201898Y-91604424D01*
X138968724Y-92040552D01*
X138934531Y-92124137D01*
X138932103Y-92129682D01*
X138930021Y-92134136D01*
X138930018Y-92134143D01*
X138786482Y-92607179D01*
X138785206Y-92611451D01*
X138785203Y-92611464D01*
X138779247Y-92652886D01*
X138776924Y-92664839D01*
X138766669Y-92706550D01*
X138718150Y-93198538D01*
X138718150Y-93198556D01*
X138720113Y-93245428D01*
X138720100Y-93256112D01*
X138718158Y-93299881D01*
X138727318Y-93392617D01*
X138714318Y-93461267D01*
X138666267Y-93511991D01*
X138598421Y-93528684D01*
X138535779Y-93508406D01*
X138487021Y-93476337D01*
X138174684Y-93319476D01*
X138174683Y-93319475D01*
X137846245Y-93199933D01*
X137846230Y-93199928D01*
X137506158Y-93119328D01*
X137506143Y-93119326D01*
X137158989Y-93078750D01*
X136809471Y-93078750D01*
X136505711Y-93114254D01*
X136462316Y-93119326D01*
X136462301Y-93119328D01*
X136122229Y-93199928D01*
X136122214Y-93199933D01*
X135793776Y-93319475D01*
X135793775Y-93319476D01*
X135481438Y-93476337D01*
X135189431Y-93668393D01*
X134921677Y-93893065D01*
X134921677Y-93893066D01*
X134681826Y-94147294D01*
X134681821Y-94147300D01*
X134681815Y-94147308D01*
X134473109Y-94427648D01*
X134298350Y-94730338D01*
X134159912Y-95051273D01*
X134059671Y-95386103D01*
X134059668Y-95386116D01*
X133998979Y-95730302D01*
X133998978Y-95730313D01*
X133978655Y-96079236D01*
X132424517Y-96079236D01*
X132424517Y-88609504D01*
X132424487Y-88607521D01*
X132424291Y-88594401D01*
X132422099Y-88521092D01*
X132405104Y-88405381D01*
X132367161Y-88263759D01*
X132316663Y-88141837D01*
X132243357Y-88014861D01*
X132243354Y-88014858D01*
X132243353Y-88014855D01*
X132163028Y-87910169D01*
X132163018Y-87910158D01*
X132059354Y-87806492D01*
X132059345Y-87806484D01*
X131954661Y-87726156D01*
X131954655Y-87726152D01*
X131905396Y-87697711D01*
X131827685Y-87652844D01*
X131705765Y-87602342D01*
X131705763Y-87602341D01*
X131705762Y-87602341D01*
X131564134Y-87564391D01*
X131564135Y-87564391D01*
X131448325Y-87547393D01*
X131448296Y-87547390D01*
X131375006Y-87545214D01*
X131360024Y-87544992D01*
X131360000Y-87544992D01*
X126760000Y-87544992D01*
X126759976Y-87544992D01*
X126744993Y-87545214D01*
X126671690Y-87547391D01*
X126555869Y-87564391D01*
X126555865Y-87564391D01*
X126414237Y-87602340D01*
X126414227Y-87602343D01*
X126292320Y-87652839D01*
X126292316Y-87652841D01*
X126165341Y-87726151D01*
X126165330Y-87726158D01*
X126060649Y-87806484D01*
X125956975Y-87910158D01*
X125876649Y-88014839D01*
X125876642Y-88014850D01*
X125803332Y-88141825D01*
X125803330Y-88141829D01*
X125752834Y-88263736D01*
X125752831Y-88263746D01*
X125714882Y-88405374D01*
X125714882Y-88405378D01*
X125697882Y-88521199D01*
X125695705Y-88594502D01*
X125695483Y-88609484D01*
X78110500Y-88609484D01*
X78110500Y-83270000D01*
X88744747Y-83270000D01*
X88763741Y-83584023D01*
X88763741Y-83584028D01*
X88763742Y-83584029D01*
X88820451Y-83893478D01*
X88820452Y-83893482D01*
X88820453Y-83893486D01*
X88914039Y-84193816D01*
X88914043Y-84193827D01*
X88914044Y-84193830D01*
X88914046Y-84193835D01*
X89043163Y-84480721D01*
X89093521Y-84564023D01*
X89205924Y-84749960D01*
X89399942Y-84997605D01*
X89622394Y-85220057D01*
X89870039Y-85414075D01*
X89870044Y-85414078D01*
X89870048Y-85414081D01*
X90139279Y-85576837D01*
X90426165Y-85705954D01*
X90426175Y-85705957D01*
X90426183Y-85705960D01*
X90626403Y-85768350D01*
X90726522Y-85799549D01*
X91035971Y-85856258D01*
X91350000Y-85875253D01*
X91664029Y-85856258D01*
X91973478Y-85799549D01*
X92273835Y-85705954D01*
X92560721Y-85576837D01*
X92829952Y-85414081D01*
X93077602Y-85220060D01*
X93300060Y-84997602D01*
X93494081Y-84749952D01*
X93656837Y-84480721D01*
X93785954Y-84193835D01*
X93879549Y-83893478D01*
X93936258Y-83584029D01*
X93955253Y-83270000D01*
X93936258Y-82955971D01*
X93879549Y-82646522D01*
X93785954Y-82346165D01*
X93656837Y-82059279D01*
X93494081Y-81790048D01*
X93494078Y-81790044D01*
X93494075Y-81790039D01*
X93300057Y-81542394D01*
X93077605Y-81319942D01*
X92829960Y-81125924D01*
X92829952Y-81125919D01*
X92560721Y-80963163D01*
X92273835Y-80834046D01*
X92273830Y-80834044D01*
X92273827Y-80834043D01*
X92273816Y-80834039D01*
X91973486Y-80740453D01*
X91973482Y-80740452D01*
X91973478Y-80740451D01*
X91664029Y-80683742D01*
X91664028Y-80683741D01*
X91664023Y-80683741D01*
X91350000Y-80664747D01*
X91035976Y-80683741D01*
X91035971Y-80683742D01*
X90726522Y-80740451D01*
X90726519Y-80740451D01*
X90726513Y-80740453D01*
X90426183Y-80834039D01*
X90426172Y-80834043D01*
X90139283Y-80963161D01*
X90139281Y-80963162D01*
X89870039Y-81125924D01*
X89622394Y-81319942D01*
X89399942Y-81542394D01*
X89205924Y-81790039D01*
X89043162Y-82059281D01*
X89043161Y-82059283D01*
X88914043Y-82346172D01*
X88914039Y-82346183D01*
X88820453Y-82646513D01*
X88763741Y-82955976D01*
X88744747Y-83270000D01*
X78110500Y-83270000D01*
X78110500Y-77879999D01*
X135969499Y-77879999D01*
X135969499Y-87080002D01*
X135974643Y-87151940D01*
X136015181Y-87289994D01*
X136092966Y-87411030D01*
X136092970Y-87411034D01*
X136201699Y-87505249D01*
X136201705Y-87505254D01*
X136242173Y-87523735D01*
X136332579Y-87565023D01*
X136332582Y-87565023D01*
X136332583Y-87565024D01*
X136474999Y-87585500D01*
X136475002Y-87585500D01*
X162445001Y-87585500D01*
X162516941Y-87580355D01*
X162654993Y-87539819D01*
X162776033Y-87462031D01*
X162870255Y-87353294D01*
X162930025Y-87222416D01*
X162950501Y-87080000D01*
X162950501Y-77880000D01*
X162945356Y-77808060D01*
X162904820Y-77670008D01*
X162827032Y-77548968D01*
X162768174Y-77497967D01*
X162718300Y-77454750D01*
X162718298Y-77454748D01*
X162718295Y-77454746D01*
X162718291Y-77454744D01*
X162587420Y-77394976D01*
X162587415Y-77394975D01*
X162445001Y-77374500D01*
X136474999Y-77374500D01*
X136474996Y-77374500D01*
X136403058Y-77379644D01*
X136265004Y-77420182D01*
X136143968Y-77497967D01*
X136143964Y-77497971D01*
X136049749Y-77606700D01*
X136049743Y-77606709D01*
X135989975Y-77737580D01*
X135989974Y-77737585D01*
X135969499Y-77879999D01*
X78110500Y-77879999D01*
X78110500Y-71022929D01*
X78110726Y-71015441D01*
X78126882Y-70748384D01*
X78128687Y-70733520D01*
X78176238Y-70474051D01*
X78179822Y-70459512D01*
X78258300Y-70207673D01*
X78263610Y-70193672D01*
X78371876Y-69953119D01*
X78378825Y-69939877D01*
X78515308Y-69714109D01*
X78523795Y-69701813D01*
X78686497Y-69494139D01*
X78696412Y-69482948D01*
X78882948Y-69296412D01*
X78894139Y-69286497D01*
X79101813Y-69123795D01*
X79114109Y-69115308D01*
X79339877Y-68978825D01*
X79353119Y-68971876D01*
X79593678Y-68863607D01*
X79607665Y-68858302D01*
X79859518Y-68779820D01*
X79874044Y-68776239D01*
X80133521Y-68728686D01*
X80148382Y-68726882D01*
X80415441Y-68710725D01*
X80422929Y-68710500D01*
X80485069Y-68710500D01*
X183234931Y-68710500D01*
X183297071Y-68710500D01*
X183304558Y-68710725D01*
G37*
%TD.AperFunction*%
%TD*%
M02*
