%TF.GenerationSoftware,KiCad,Pcbnew,8.0.8*%
%TF.CreationDate,2025-02-26T19:38:44-05:00*%
%TF.ProjectId,MiniCamel_FrontPlate,4d696e69-4361-46d6-956c-5f46726f6e74,rev?*%
%TF.SameCoordinates,Original*%
%TF.FileFunction,Soldermask,Bot*%
%TF.FilePolarity,Negative*%
%FSLAX46Y46*%
G04 Gerber Fmt 4.6, Leading zero omitted, Abs format (unit mm)*
G04 Created by KiCad (PCBNEW 8.0.8) date 2025-02-26 19:38:44*
%MOMM*%
%LPD*%
G01*
G04 APERTURE LIST*
%ADD10C,4.064000*%
G04 APERTURE END LIST*
D10*
%TO.C,REF\u002A\u002A*%
X81310000Y-71791723D03*
X182460000Y-71791723D03*
X81310000Y-109010000D03*
X182460000Y-109010000D03*
%TD*%
G36*
X183894393Y-68278564D02*
G01*
X183923989Y-68282168D01*
X184130043Y-68332958D01*
X184144339Y-68337412D01*
X184447789Y-68452497D01*
X184461443Y-68458642D01*
X184748793Y-68609455D01*
X184761608Y-68617202D01*
X185028707Y-68801569D01*
X185040493Y-68810804D01*
X185283405Y-69026006D01*
X185293993Y-69036594D01*
X185509195Y-69279506D01*
X185518430Y-69291292D01*
X185702797Y-69558391D01*
X185710544Y-69571206D01*
X185861357Y-69858556D01*
X185867502Y-69872210D01*
X185982587Y-70175660D01*
X185987042Y-70189956D01*
X186064712Y-70505063D01*
X186067411Y-70519791D01*
X186106645Y-70842889D01*
X186107535Y-70855964D01*
X186109986Y-71018245D01*
X186110000Y-71020118D01*
X186110000Y-109699881D01*
X186109986Y-109701754D01*
X186107535Y-109864035D01*
X186106645Y-109877110D01*
X186067411Y-110200208D01*
X186064712Y-110214936D01*
X185987042Y-110530043D01*
X185982587Y-110544339D01*
X185867502Y-110847789D01*
X185861357Y-110861443D01*
X185710544Y-111148793D01*
X185702797Y-111161608D01*
X185518430Y-111428707D01*
X185509195Y-111440493D01*
X185293993Y-111683405D01*
X185283405Y-111693993D01*
X185040493Y-111909195D01*
X185028707Y-111918430D01*
X184761608Y-112102797D01*
X184748793Y-112110544D01*
X184461443Y-112261357D01*
X184447789Y-112267502D01*
X184144339Y-112382587D01*
X184130043Y-112387042D01*
X183814936Y-112464712D01*
X183800208Y-112467411D01*
X183477110Y-112506645D01*
X183464035Y-112507535D01*
X183301755Y-112509986D01*
X183299882Y-112510000D01*
X80437805Y-112510000D01*
X80436008Y-112509987D01*
X80272656Y-112507619D01*
X80259507Y-112506728D01*
X79934304Y-112467242D01*
X79919575Y-112464543D01*
X79602373Y-112386360D01*
X79588077Y-112381905D01*
X79282617Y-112266060D01*
X79268962Y-112259915D01*
X78979689Y-112108093D01*
X78966875Y-112100346D01*
X78698012Y-111914763D01*
X78686225Y-111905528D01*
X78441695Y-111688892D01*
X78431107Y-111678304D01*
X78214471Y-111433774D01*
X78205236Y-111421987D01*
X78019653Y-111153124D01*
X78011906Y-111140310D01*
X77860084Y-110851037D01*
X77853939Y-110837382D01*
X77738094Y-110531922D01*
X77733639Y-110517626D01*
X77655456Y-110200424D01*
X77652757Y-110185695D01*
X77613271Y-109860492D01*
X77612380Y-109847343D01*
X77610013Y-109683992D01*
X77610000Y-109682195D01*
X77610000Y-100133007D01*
X104090000Y-100133007D01*
X104090000Y-101743000D01*
X118919999Y-101743000D01*
X118919999Y-101742999D01*
X118919081Y-100133925D01*
X118916853Y-100080653D01*
X118916852Y-100080648D01*
X118876092Y-99982238D01*
X118876088Y-99982231D01*
X118800768Y-99906911D01*
X118800761Y-99906907D01*
X118702351Y-99866147D01*
X118702346Y-99866146D01*
X118649073Y-99863918D01*
X104360011Y-99863000D01*
X104360009Y-99863000D01*
X104306808Y-99865594D01*
X104208526Y-99906304D01*
X104133304Y-99981526D01*
X104092594Y-100079808D01*
X104090000Y-100133007D01*
X77610000Y-100133007D01*
X77610000Y-95596522D01*
X89252448Y-95596522D01*
X89252448Y-95883477D01*
X89291521Y-96167756D01*
X89291522Y-96167762D01*
X89368941Y-96444072D01*
X89483261Y-96707263D01*
X89632356Y-96952440D01*
X89632363Y-96952450D01*
X89813447Y-97175032D01*
X90023161Y-97370892D01*
X90023168Y-97370898D01*
X90257591Y-97536372D01*
X90257597Y-97536376D01*
X90512383Y-97668395D01*
X90782759Y-97764487D01*
X90782762Y-97764488D01*
X91063721Y-97822871D01*
X91350000Y-97842453D01*
X91636278Y-97822871D01*
X91917237Y-97764488D01*
X91917240Y-97764487D01*
X92187616Y-97668395D01*
X92442402Y-97536376D01*
X92442408Y-97536372D01*
X92676831Y-97370898D01*
X92676838Y-97370892D01*
X92886552Y-97175032D01*
X93067636Y-96952450D01*
X93067643Y-96952440D01*
X93216738Y-96707263D01*
X93331058Y-96444072D01*
X93408477Y-96167762D01*
X93408478Y-96167756D01*
X93447552Y-95883477D01*
X93449999Y-95740000D01*
X93447552Y-95596522D01*
X93408478Y-95312243D01*
X93408477Y-95312237D01*
X93331058Y-95035927D01*
X93216738Y-94772736D01*
X93067643Y-94527559D01*
X93067636Y-94527549D01*
X92886552Y-94304967D01*
X92676838Y-94109107D01*
X92676831Y-94109101D01*
X92442408Y-93943627D01*
X92442402Y-93943623D01*
X92187616Y-93811604D01*
X91917240Y-93715512D01*
X91917237Y-93715511D01*
X91636278Y-93657128D01*
X91350000Y-93637547D01*
X91063721Y-93657128D01*
X90782762Y-93715511D01*
X90782759Y-93715512D01*
X90512383Y-93811604D01*
X90257597Y-93943623D01*
X90257591Y-93943627D01*
X90023168Y-94109101D01*
X90023161Y-94109107D01*
X89813447Y-94304967D01*
X89632363Y-94527549D01*
X89632356Y-94527559D01*
X89483261Y-94772736D01*
X89368941Y-95035927D01*
X89291522Y-95312237D01*
X89291521Y-95312243D01*
X89252448Y-95596522D01*
X77610000Y-95596522D01*
X77610000Y-91134999D01*
X103980000Y-91134999D01*
X103980000Y-91135000D01*
X103999069Y-91340794D01*
X104055632Y-91539594D01*
X104147753Y-91724598D01*
X104147758Y-91724606D01*
X104272311Y-91889541D01*
X104425047Y-92028777D01*
X104600771Y-92137582D01*
X104600773Y-92137583D01*
X104793498Y-92212244D01*
X104996662Y-92250222D01*
X105203338Y-92250222D01*
X105406500Y-92212244D01*
X105406501Y-92212244D01*
X105599226Y-92137583D01*
X105599228Y-92137582D01*
X105774952Y-92028777D01*
X105927688Y-91889541D01*
X106052241Y-91724606D01*
X106052246Y-91724598D01*
X106144367Y-91539594D01*
X106200930Y-91340794D01*
X106220000Y-91135000D01*
X106220000Y-91134999D01*
X106219073Y-91124999D01*
X116620000Y-91124999D01*
X116620000Y-91125000D01*
X116639069Y-91330794D01*
X116695632Y-91529594D01*
X116787753Y-91714598D01*
X116787758Y-91714606D01*
X116912311Y-91879541D01*
X117065047Y-92018777D01*
X117240771Y-92127582D01*
X117240773Y-92127583D01*
X117433498Y-92202244D01*
X117636662Y-92240222D01*
X117843338Y-92240222D01*
X118046500Y-92202244D01*
X118046501Y-92202244D01*
X118239226Y-92127583D01*
X118239228Y-92127582D01*
X118414952Y-92018777D01*
X118567688Y-91879541D01*
X118692241Y-91714606D01*
X118692246Y-91714598D01*
X118784367Y-91529594D01*
X118840930Y-91330794D01*
X118860000Y-91125000D01*
X118860000Y-91124999D01*
X118840930Y-90919205D01*
X118784367Y-90720405D01*
X118692246Y-90535401D01*
X118692241Y-90535393D01*
X118567688Y-90370458D01*
X118414952Y-90231222D01*
X118239228Y-90122417D01*
X118239226Y-90122416D01*
X118046501Y-90047755D01*
X117843338Y-90009778D01*
X117636662Y-90009778D01*
X117433499Y-90047755D01*
X117433498Y-90047755D01*
X117240773Y-90122416D01*
X117240771Y-90122417D01*
X117065047Y-90231222D01*
X116912311Y-90370458D01*
X116787758Y-90535393D01*
X116787753Y-90535401D01*
X116695632Y-90720405D01*
X116639069Y-90919205D01*
X116620000Y-91124999D01*
X106219073Y-91124999D01*
X106200930Y-90929205D01*
X106144367Y-90730405D01*
X106052246Y-90545401D01*
X106052241Y-90545393D01*
X105927688Y-90380458D01*
X105774952Y-90241222D01*
X105599228Y-90132417D01*
X105599226Y-90132416D01*
X105406501Y-90057755D01*
X105203338Y-90019778D01*
X104996662Y-90019778D01*
X104793499Y-90057755D01*
X104793498Y-90057755D01*
X104600773Y-90132416D01*
X104600771Y-90132417D01*
X104425047Y-90241222D01*
X104272311Y-90380458D01*
X104147758Y-90545393D01*
X104147753Y-90545401D01*
X104055632Y-90730405D01*
X103999069Y-90929205D01*
X103980000Y-91134999D01*
X77610000Y-91134999D01*
X77610000Y-88609495D01*
X126200983Y-88609495D01*
X126200983Y-100590505D01*
X126203159Y-100663796D01*
X126241107Y-100805425D01*
X126314417Y-100932399D01*
X126314419Y-100932402D01*
X126418089Y-101036072D01*
X126418092Y-101036074D01*
X126545066Y-101109384D01*
X126686695Y-101147332D01*
X126759987Y-101149509D01*
X131360013Y-101149509D01*
X131433300Y-101147333D01*
X131433306Y-101147332D01*
X131574933Y-101109383D01*
X131574938Y-101109380D01*
X131701903Y-101036078D01*
X131701911Y-101036072D01*
X131805579Y-100932402D01*
X131805582Y-100932398D01*
X131878892Y-100805425D01*
X131916840Y-100663795D01*
X131919017Y-100590504D01*
X131919017Y-95922097D01*
X134486707Y-95922097D01*
X134486707Y-96236382D01*
X134526092Y-96548145D01*
X134526094Y-96548154D01*
X134604249Y-96852547D01*
X134719930Y-97144727D01*
X134719934Y-97144735D01*
X134871327Y-97420119D01*
X134871339Y-97420137D01*
X135056043Y-97674360D01*
X135056051Y-97674370D01*
X135271170Y-97903450D01*
X135513324Y-98103777D01*
X135778657Y-98272162D01*
X135778663Y-98272165D01*
X136063005Y-98405967D01*
X136063010Y-98405969D01*
X136361887Y-98503079D01*
X136670596Y-98561970D01*
X136670593Y-98561970D01*
X136984225Y-98581702D01*
X136984235Y-98581702D01*
X137297864Y-98561970D01*
X137606572Y-98503079D01*
X137905449Y-98405969D01*
X137905454Y-98405967D01*
X138189796Y-98272165D01*
X138189802Y-98272162D01*
X138455135Y-98103777D01*
X138697289Y-97903450D01*
X138912408Y-97674370D01*
X138912416Y-97674360D01*
X139097120Y-97420137D01*
X139097132Y-97420119D01*
X139248525Y-97144735D01*
X139248529Y-97144727D01*
X139364210Y-96852547D01*
X139442365Y-96548154D01*
X139442367Y-96548145D01*
X139477631Y-96269004D01*
X139505562Y-96204960D01*
X139563684Y-96166184D01*
X139633544Y-96164987D01*
X139692961Y-96201748D01*
X139722734Y-96262813D01*
X140271490Y-99345438D01*
X140271998Y-99348519D01*
X140290931Y-99472968D01*
X140292277Y-99476892D01*
X140413984Y-99878365D01*
X140648524Y-100317027D01*
X140963042Y-100700307D01*
X141346436Y-101014920D01*
X141785021Y-101249408D01*
X142251306Y-101390821D01*
X142251484Y-101390892D01*
X142252085Y-101391067D01*
X142253508Y-101391489D01*
X142260562Y-101393628D01*
X142748246Y-101441465D01*
X142753822Y-101442200D01*
X156174092Y-101430032D01*
X156213421Y-101436397D01*
X156220500Y-101438757D01*
X156225338Y-101440482D01*
X156227656Y-101441363D01*
X156234628Y-101440205D01*
X156707859Y-101393627D01*
X156713853Y-101391810D01*
X156715497Y-101391323D01*
X156716554Y-101391018D01*
X156716842Y-101390903D01*
X157183978Y-101249233D01*
X157622006Y-101014901D01*
X158005377Y-100700307D01*
X158319895Y-100317028D01*
X158554447Y-99878322D01*
X158698634Y-99402881D01*
X158698774Y-99401456D01*
X158698777Y-99401431D01*
X158698778Y-99401417D01*
X158703568Y-99352420D01*
X158704843Y-99343069D01*
X159245320Y-96260759D01*
X159276288Y-96198126D01*
X159336201Y-96162179D01*
X159406037Y-96164329D01*
X159463625Y-96203895D01*
X159490479Y-96266634D01*
X159526042Y-96548145D01*
X159526044Y-96548154D01*
X159604199Y-96852547D01*
X159719880Y-97144727D01*
X159719884Y-97144735D01*
X159871277Y-97420119D01*
X159871289Y-97420137D01*
X160055993Y-97674360D01*
X160056001Y-97674370D01*
X160271120Y-97903450D01*
X160513274Y-98103777D01*
X160778607Y-98272162D01*
X160778613Y-98272165D01*
X161062955Y-98405967D01*
X161062960Y-98405969D01*
X161361837Y-98503079D01*
X161670546Y-98561970D01*
X161670543Y-98561970D01*
X161984175Y-98581702D01*
X161984185Y-98581702D01*
X162297814Y-98561970D01*
X162606522Y-98503079D01*
X162905399Y-98405969D01*
X162905404Y-98405967D01*
X163189746Y-98272165D01*
X163189752Y-98272162D01*
X163455085Y-98103777D01*
X163697239Y-97903450D01*
X163912358Y-97674370D01*
X163912366Y-97674360D01*
X163939857Y-97636522D01*
X169422448Y-97636522D01*
X169422448Y-97923477D01*
X169461521Y-98207756D01*
X169461522Y-98207762D01*
X169538941Y-98484072D01*
X169653261Y-98747263D01*
X169802356Y-98992440D01*
X169802363Y-98992450D01*
X169983447Y-99215032D01*
X170193161Y-99410892D01*
X170193168Y-99410898D01*
X170427591Y-99576372D01*
X170427597Y-99576376D01*
X170682383Y-99708395D01*
X170952759Y-99804487D01*
X170952762Y-99804488D01*
X171233721Y-99862871D01*
X171520000Y-99882453D01*
X171806278Y-99862871D01*
X172087237Y-99804488D01*
X172087240Y-99804487D01*
X172357616Y-99708395D01*
X172612402Y-99576376D01*
X172612408Y-99576372D01*
X172846831Y-99410898D01*
X172846838Y-99410892D01*
X173056552Y-99215032D01*
X173237636Y-98992450D01*
X173237643Y-98992440D01*
X173386738Y-98747263D01*
X173501058Y-98484072D01*
X173578477Y-98207762D01*
X173578478Y-98207756D01*
X173617552Y-97923477D01*
X173619999Y-97780000D01*
X173617552Y-97636522D01*
X173578478Y-97352243D01*
X173578477Y-97352237D01*
X173501058Y-97075927D01*
X173386738Y-96812736D01*
X173237643Y-96567559D01*
X173237636Y-96567549D01*
X173056552Y-96344967D01*
X172846838Y-96149107D01*
X172846831Y-96149101D01*
X172612408Y-95983627D01*
X172612402Y-95983623D01*
X172357616Y-95851604D01*
X172087240Y-95755512D01*
X172087237Y-95755511D01*
X171806278Y-95697128D01*
X171520000Y-95677547D01*
X171233721Y-95697128D01*
X170952762Y-95755511D01*
X170952759Y-95755512D01*
X170682383Y-95851604D01*
X170427597Y-95983623D01*
X170427591Y-95983627D01*
X170193168Y-96149101D01*
X170193161Y-96149107D01*
X169983447Y-96344967D01*
X169802363Y-96567549D01*
X169802356Y-96567559D01*
X169653261Y-96812736D01*
X169538941Y-97075927D01*
X169461522Y-97352237D01*
X169461521Y-97352243D01*
X169422448Y-97636522D01*
X163939857Y-97636522D01*
X164097070Y-97420137D01*
X164097082Y-97420119D01*
X164248475Y-97144735D01*
X164248479Y-97144727D01*
X164364160Y-96852547D01*
X164442315Y-96548154D01*
X164442317Y-96548145D01*
X164481702Y-96236381D01*
X164484169Y-96079240D01*
X164481702Y-95922098D01*
X164442317Y-95610334D01*
X164442315Y-95610325D01*
X164364160Y-95305932D01*
X164248479Y-95013752D01*
X164248475Y-95013744D01*
X164097082Y-94738360D01*
X164097070Y-94738342D01*
X163912366Y-94484119D01*
X163912358Y-94484109D01*
X163697239Y-94255029D01*
X163455085Y-94054702D01*
X163189752Y-93886317D01*
X163189746Y-93886314D01*
X162905404Y-93752512D01*
X162905399Y-93752510D01*
X162606523Y-93655400D01*
X162297815Y-93596510D01*
X162297811Y-93596509D01*
X161984185Y-93576779D01*
X161984175Y-93576779D01*
X161670548Y-93596509D01*
X161670544Y-93596510D01*
X161361836Y-93655400D01*
X161062960Y-93752510D01*
X161062955Y-93752512D01*
X160778613Y-93886314D01*
X160778607Y-93886317D01*
X160513274Y-94054702D01*
X160271120Y-94255029D01*
X160056001Y-94484109D01*
X160055993Y-94484119D01*
X159871289Y-94738342D01*
X159871277Y-94738360D01*
X159719884Y-95013744D01*
X159719879Y-95013756D01*
X159707832Y-95044182D01*
X159664850Y-95099267D01*
X159598911Y-95122369D01*
X159530948Y-95106154D01*
X159482542Y-95055770D01*
X159469059Y-94987214D01*
X159470404Y-94977117D01*
X159690880Y-93719757D01*
X159701960Y-93690488D01*
X159705124Y-93679277D01*
X159705390Y-93673881D01*
X159746598Y-93256391D01*
X159746604Y-93256356D01*
X159746631Y-93256050D01*
X159747309Y-93249175D01*
X159746684Y-93242833D01*
X159746629Y-93242206D01*
X159746614Y-93242119D01*
X159698779Y-92757055D01*
X159698771Y-92756902D01*
X159698729Y-92756559D01*
X159698600Y-92755258D01*
X159554569Y-92280590D01*
X159553907Y-92278884D01*
X159319929Y-91841254D01*
X159005317Y-91457861D01*
X158624142Y-91145330D01*
X158623009Y-91144303D01*
X158621554Y-91143168D01*
X158621029Y-91142804D01*
X158183980Y-90908987D01*
X157708499Y-90764788D01*
X157705249Y-90764594D01*
X157215347Y-90716280D01*
X157214368Y-90716280D01*
X141794295Y-90728192D01*
X141754995Y-90721832D01*
X141750938Y-90720480D01*
X141745255Y-90718430D01*
X141741233Y-90716868D01*
X141734459Y-90717961D01*
X141263126Y-90764598D01*
X141259892Y-90764794D01*
X140784437Y-90908987D01*
X140347516Y-91142737D01*
X140346446Y-91143478D01*
X140345871Y-91143925D01*
X140344670Y-91145007D01*
X139963070Y-91457888D01*
X139648505Y-91841224D01*
X139414152Y-92279559D01*
X139269821Y-92755217D01*
X139269708Y-92756369D01*
X139269644Y-92756889D01*
X139269631Y-92757159D01*
X139221292Y-93247313D01*
X139221024Y-93249204D01*
X139221309Y-93251200D01*
X139261894Y-93662058D01*
X139261085Y-93669521D01*
X139263714Y-93684288D01*
X139264403Y-93689273D01*
X139265228Y-93692787D01*
X139490416Y-94957775D01*
X139482785Y-95027226D01*
X139438818Y-95081528D01*
X139372472Y-95103438D01*
X139304813Y-95086001D01*
X139257322Y-95034753D01*
X139253042Y-95025152D01*
X139248527Y-95013748D01*
X139248525Y-95013744D01*
X139097132Y-94738360D01*
X139097120Y-94738342D01*
X138912416Y-94484119D01*
X138912408Y-94484109D01*
X138697289Y-94255029D01*
X138455135Y-94054702D01*
X138189802Y-93886317D01*
X138189796Y-93886314D01*
X137905454Y-93752512D01*
X137905449Y-93752510D01*
X137606573Y-93655400D01*
X137297865Y-93596510D01*
X137297861Y-93596509D01*
X136984235Y-93576779D01*
X136984225Y-93576779D01*
X136670598Y-93596509D01*
X136670594Y-93596510D01*
X136361886Y-93655400D01*
X136063010Y-93752510D01*
X136063005Y-93752512D01*
X135778663Y-93886314D01*
X135778657Y-93886317D01*
X135513324Y-94054702D01*
X135271170Y-94255029D01*
X135056051Y-94484109D01*
X135056043Y-94484119D01*
X134871339Y-94738342D01*
X134871327Y-94738360D01*
X134719934Y-95013744D01*
X134719930Y-95013752D01*
X134604249Y-95305932D01*
X134526094Y-95610325D01*
X134526092Y-95610334D01*
X134486707Y-95922097D01*
X131919017Y-95922097D01*
X131919017Y-88609521D01*
X131916825Y-88536201D01*
X131878881Y-88394576D01*
X131805577Y-88267604D01*
X131805575Y-88267601D01*
X131701903Y-88163927D01*
X131701901Y-88163926D01*
X131574929Y-88090617D01*
X131433306Y-88052668D01*
X131433300Y-88052667D01*
X131360013Y-88050492D01*
X126759987Y-88050492D01*
X126686695Y-88052668D01*
X126545066Y-88090616D01*
X126418092Y-88163926D01*
X126418089Y-88163928D01*
X126314419Y-88267598D01*
X126314417Y-88267601D01*
X126241107Y-88394575D01*
X126203159Y-88536204D01*
X126200983Y-88609495D01*
X77610000Y-88609495D01*
X77610000Y-87080000D01*
X136474999Y-87080000D01*
X162445001Y-87080000D01*
X162445001Y-77880000D01*
X136474999Y-77880000D01*
X136474999Y-87080000D01*
X77610000Y-87080000D01*
X77610000Y-83126522D01*
X89252448Y-83126522D01*
X89252448Y-83413477D01*
X89291521Y-83697756D01*
X89291522Y-83697762D01*
X89368941Y-83974072D01*
X89483261Y-84237263D01*
X89632356Y-84482440D01*
X89632363Y-84482450D01*
X89813447Y-84705032D01*
X90023161Y-84900892D01*
X90023168Y-84900898D01*
X90257591Y-85066372D01*
X90257597Y-85066376D01*
X90512383Y-85198395D01*
X90782759Y-85294487D01*
X90782762Y-85294488D01*
X91063721Y-85352871D01*
X91350000Y-85372453D01*
X91636278Y-85352871D01*
X91917237Y-85294488D01*
X91917240Y-85294487D01*
X92187616Y-85198395D01*
X92442402Y-85066376D01*
X92442408Y-85066372D01*
X92676831Y-84900898D01*
X92676838Y-84900892D01*
X92886552Y-84705032D01*
X93067636Y-84482450D01*
X93067643Y-84482440D01*
X93216738Y-84237263D01*
X93331058Y-83974072D01*
X93408477Y-83697762D01*
X93408478Y-83697756D01*
X93447552Y-83413477D01*
X93449999Y-83270000D01*
X93447552Y-83126522D01*
X93408478Y-82842243D01*
X93408477Y-82842237D01*
X93331058Y-82565927D01*
X93216738Y-82302736D01*
X93067643Y-82057559D01*
X93067636Y-82057549D01*
X92886552Y-81834967D01*
X92676838Y-81639107D01*
X92676831Y-81639101D01*
X92442408Y-81473627D01*
X92442402Y-81473623D01*
X92187616Y-81341604D01*
X91917240Y-81245512D01*
X91917237Y-81245511D01*
X91636278Y-81187128D01*
X91350000Y-81167547D01*
X91063721Y-81187128D01*
X90782762Y-81245511D01*
X90782759Y-81245512D01*
X90512383Y-81341604D01*
X90257597Y-81473623D01*
X90257591Y-81473627D01*
X90023168Y-81639101D01*
X90023161Y-81639107D01*
X89813447Y-81834967D01*
X89632363Y-82057549D01*
X89632356Y-82057559D01*
X89483261Y-82302736D01*
X89368941Y-82565927D01*
X89291522Y-82842237D01*
X89291521Y-82842243D01*
X89252448Y-83126522D01*
X77610000Y-83126522D01*
X77610000Y-71020118D01*
X77610014Y-71018246D01*
X77612464Y-70855965D01*
X77613354Y-70842889D01*
X77652588Y-70519791D01*
X77655287Y-70505063D01*
X77732957Y-70189956D01*
X77737412Y-70175660D01*
X77852497Y-69872210D01*
X77858642Y-69858556D01*
X78009455Y-69571206D01*
X78017202Y-69558391D01*
X78201569Y-69291292D01*
X78210804Y-69279506D01*
X78426006Y-69036594D01*
X78436594Y-69026006D01*
X78679506Y-68810804D01*
X78691292Y-68801569D01*
X78958391Y-68617202D01*
X78971206Y-68609455D01*
X79258556Y-68458642D01*
X79272210Y-68452497D01*
X79575660Y-68337412D01*
X79589956Y-68332957D01*
X79905063Y-68255287D01*
X79919791Y-68252588D01*
X80242889Y-68213354D01*
X80255965Y-68212464D01*
X80301931Y-68211770D01*
X80303883Y-68211756D01*
X183894393Y-68278564D01*
G37*
M02*
