%TF.GenerationSoftware,KiCad,Pcbnew,8.0.8*%
%TF.CreationDate,2025-02-26T19:38:44-05:00*%
%TF.ProjectId,MiniCamel_FrontPlate,4d696e69-4361-46d6-956c-5f46726f6e74,rev?*%
%TF.SameCoordinates,Original*%
%TF.FileFunction,Soldermask,Top*%
%TF.FilePolarity,Negative*%
%FSLAX46Y46*%
G04 Gerber Fmt 4.6, Leading zero omitted, Abs format (unit mm)*
G04 Created by KiCad (PCBNEW 8.0.8) date 2025-02-26 19:38:44*
%MOMM*%
%LPD*%
G01*
G04 APERTURE LIST*
%ADD10C,0.300000*%
%ADD11C,4.064000*%
G04 APERTURE END LIST*
D10*
G36*
X113373739Y-81604530D02*
G01*
X113295963Y-81839003D01*
X113199411Y-82042213D01*
X113084082Y-82214160D01*
X112913518Y-82385130D01*
X112713616Y-82507251D01*
X112484375Y-82580524D01*
X112279860Y-82603972D01*
X112225798Y-82604949D01*
X111310375Y-82604949D01*
X111104081Y-82582383D01*
X110906588Y-82504378D01*
X110742487Y-82370655D01*
X110699768Y-82319673D01*
X110600000Y-82150000D01*
X110545160Y-81941173D01*
X110546216Y-81734955D01*
X110562015Y-81637747D01*
X111046593Y-79306693D01*
X111111362Y-79098132D01*
X111215544Y-78905490D01*
X111341238Y-78747617D01*
X111455944Y-78637468D01*
X111624716Y-78513087D01*
X111801792Y-78424244D01*
X112010929Y-78366773D01*
X112180857Y-78353169D01*
X113096279Y-78353169D01*
X113303886Y-78368801D01*
X113517369Y-78432304D01*
X113679714Y-78544655D01*
X113790921Y-78705856D01*
X113850990Y-78915905D01*
X113862225Y-79119115D01*
X113840731Y-79353588D01*
X113320983Y-79353588D01*
X113320311Y-79134746D01*
X113246141Y-78949122D01*
X113070448Y-78857775D01*
X113005421Y-78853378D01*
X112547221Y-78853378D01*
X112355258Y-78897892D01*
X112214074Y-78994062D01*
X112086579Y-79147691D01*
X112016726Y-79329163D01*
X111528240Y-81676826D01*
X111534575Y-81875884D01*
X111587835Y-81977733D01*
X111748020Y-82089732D01*
X111858456Y-82104739D01*
X112316656Y-82104739D01*
X112512183Y-82065172D01*
X112672316Y-81946470D01*
X112784942Y-81774523D01*
X112851059Y-81604530D01*
X113373739Y-81604530D01*
G37*
G36*
X99530759Y-82564949D02*
G01*
X100413941Y-78313169D01*
X100662092Y-78313169D01*
X102189098Y-80290559D01*
X104535784Y-78313169D01*
X105042832Y-78313169D01*
X104159650Y-82564949D01*
X103180724Y-82564949D01*
X103702427Y-80054132D01*
X101803195Y-81655388D01*
X100575142Y-80045339D01*
X100051485Y-82564949D01*
X99530759Y-82564949D01*
G37*
D11*
%TO.C,REF\u002A\u002A*%
X81310000Y-71791723D03*
X182460000Y-71791723D03*
X81310000Y-109010000D03*
X182460000Y-109010000D03*
%TD*%
M02*
