%TF.GenerationSoftware,KiCad,Pcbnew,8.0.8*%
%TF.CreationDate,2025-02-26T19:38:46-05:00*%
%TF.ProjectId,MiniCamel_FrontPlate,4d696e69-4361-46d6-956c-5f46726f6e74,rev?*%
%TF.SameCoordinates,Original*%
%TF.FileFunction,Drillmap*%
%TF.FilePolarity,Positive*%
%FSLAX45Y45*%
G04 Gerber Fmt 4.5, Leading zero omitted, Abs format (unit mm)*
G04 Created by KiCad (PCBNEW 8.0.8) date 2025-02-26 19:38:46*
%MOMM*%
%LPD*%
G01*
G04 APERTURE LIST*
%ADD10C,0.200000*%
%ADD11C,0.254000*%
%ADD12C,0.000000*%
%ADD13C,2.499990*%
%ADD14C,0.100000*%
%ADD15C,0.304800*%
G04 APERTURE END LIST*
D10*
X17362000Y-9778000D02*
G75*
G02*
X16942000Y-9778000I-210000J0D01*
G01*
X16942000Y-9778000D02*
G75*
G02*
X17362000Y-9778000I210000J0D01*
G01*
X9345000Y-8327000D02*
G75*
G02*
X8925000Y-8327000I-210000J0D01*
G01*
X8925000Y-8327000D02*
G75*
G02*
X9345000Y-8327000I210000J0D01*
G01*
X9345000Y-9574000D02*
G75*
G02*
X8925000Y-9574000I-210000J0D01*
G01*
X8925000Y-9574000D02*
G75*
G02*
X9345000Y-9574000I210000J0D01*
G01*
D11*
X7761000Y-7101917D02*
X7761000Y-10699772D01*
X7761000Y-10968310D02*
X7761000Y-10699772D01*
X18330083Y-6821000D02*
X8041917Y-6821000D01*
X18330083Y-11251000D02*
X8043690Y-11251000D01*
X18611000Y-10699777D02*
X18611000Y-7101917D01*
X18611000Y-10970083D02*
X18611000Y-10699777D01*
X7761000Y-7101917D02*
G75*
G02*
X8041917Y-6821000I280918J-1D01*
G01*
X8043690Y-11251000D02*
G75*
G02*
X7761000Y-10968310I0J282690D01*
G01*
X18330083Y-6821000D02*
G75*
G02*
X18611000Y-7101917I-3J-280920D01*
G01*
X18611000Y-10970083D02*
G75*
G02*
X18330083Y-11251000I-280920J3D01*
G01*
D12*
G36*
X13136000Y-8805049D02*
G01*
X13136000Y-8805049D01*
G75*
G02*
X13191902Y-8860951I0J-55901D01*
G01*
X13191902Y-10059049D01*
G75*
G02*
X13136000Y-10114951I-55902J-1D01*
G01*
X12676000Y-10114951D01*
G75*
G02*
X12620098Y-10059049I0J55901D01*
G01*
X12620098Y-8860951D01*
G75*
G02*
X12676000Y-8805049I55902J1D01*
G01*
X13136000Y-8805049D01*
G37*
D13*
X13823422Y-9607924D02*
G75*
G02*
X13573423Y-9607924I-125000J0D01*
G01*
X13573423Y-9607924D02*
G75*
G02*
X13823422Y-9607924I125000J0D01*
G01*
X16323417Y-9607924D02*
G75*
G02*
X16073418Y-9607924I-125000J0D01*
G01*
X16073418Y-9607924D02*
G75*
G02*
X16323417Y-9607924I125000J0D01*
G01*
D12*
G36*
X15770733Y-9076480D02*
G01*
X15770835Y-9076531D01*
X15770936Y-9076505D01*
X15818257Y-9090856D01*
X15818333Y-9090932D01*
X15818460Y-9090932D01*
X15862046Y-9114250D01*
X15862122Y-9114326D01*
X15862224Y-9114377D01*
X15900451Y-9145720D01*
X15900502Y-9145822D01*
X15900603Y-9145873D01*
X15931972Y-9184100D01*
X15931998Y-9184201D01*
X15932074Y-9184277D01*
X15955391Y-9227889D01*
X15955417Y-9227991D01*
X15955467Y-9228092D01*
X15969818Y-9275387D01*
X15969818Y-9275514D01*
X15969869Y-9275616D01*
X15974721Y-9324816D01*
X15974695Y-9324917D01*
X15974721Y-9325019D01*
X15970479Y-9367996D01*
X15970479Y-9368021D01*
X15970479Y-9368046D01*
X15970276Y-9368377D01*
X15970098Y-9368732D01*
X15970072Y-9368732D01*
X15970047Y-9368758D01*
X15969590Y-9369113D01*
X15870403Y-9934771D01*
X15869869Y-9940232D01*
X15869819Y-9940308D01*
X15869819Y-9940435D01*
X15855468Y-9987756D01*
X15855391Y-9987832D01*
X15855391Y-9987933D01*
X15832074Y-10031545D01*
X15831998Y-10031621D01*
X15831973Y-10031723D01*
X15800604Y-10069950D01*
X15800502Y-10070001D01*
X15800451Y-10070102D01*
X15762224Y-10101471D01*
X15762123Y-10101497D01*
X15762046Y-10101573D01*
X15718460Y-10124890D01*
X15718333Y-10124890D01*
X15718257Y-10124966D01*
X15670937Y-10139317D01*
X15670835Y-10139317D01*
X15670733Y-10139368D01*
X15622727Y-10144093D01*
X15622702Y-10144067D01*
X15622677Y-10144093D01*
X15622321Y-10143966D01*
X15621940Y-10143839D01*
X15621940Y-10143813D01*
X15621915Y-10143813D01*
X15621000Y-10143000D01*
X14275435Y-10144220D01*
X14275359Y-10144194D01*
X14275308Y-10144194D01*
X14226108Y-10139368D01*
X14226007Y-10139317D01*
X14225905Y-10139317D01*
X14178585Y-10124966D01*
X14178509Y-10124890D01*
X14178407Y-10124890D01*
X14134795Y-10101573D01*
X14134719Y-10101497D01*
X14134618Y-10101471D01*
X14096391Y-10070102D01*
X14096340Y-10070001D01*
X14096238Y-10069950D01*
X14064869Y-10031723D01*
X14064844Y-10031621D01*
X14064768Y-10031545D01*
X14041450Y-9987933D01*
X14041450Y-9987832D01*
X14041374Y-9987756D01*
X14029131Y-9947370D01*
X14029131Y-9947293D01*
X14029081Y-9947217D01*
X14027176Y-9934695D01*
X13926439Y-9368808D01*
X13926465Y-9368783D01*
X13926439Y-9368732D01*
X13922121Y-9325019D01*
X13922172Y-9324917D01*
X13922121Y-9324816D01*
X13926973Y-9275616D01*
X13927023Y-9275514D01*
X13927023Y-9275387D01*
X13941374Y-9228092D01*
X13941451Y-9227991D01*
X13941451Y-9227889D01*
X13964768Y-9184277D01*
X13964844Y-9184201D01*
X13964869Y-9184100D01*
X13996238Y-9145873D01*
X13996340Y-9145822D01*
X13996391Y-9145720D01*
X14034618Y-9114377D01*
X14034719Y-9114326D01*
X14034796Y-9114250D01*
X14078382Y-9090932D01*
X14078509Y-9090932D01*
X14078585Y-9090856D01*
X14125905Y-9076505D01*
X14126007Y-9076531D01*
X14126109Y-9076480D01*
X14174115Y-9071730D01*
X14174140Y-9071755D01*
X14174165Y-9071730D01*
X14174521Y-9071857D01*
X14174902Y-9071984D01*
X14174927Y-9072009D01*
X14174953Y-9072009D01*
X14175842Y-9072822D01*
X15721432Y-9071628D01*
X15721483Y-9071628D01*
X15721533Y-9071628D01*
X15770733Y-9076480D01*
G37*
G36*
X16244500Y-8708000D02*
G01*
X13647500Y-8708000D01*
X13647500Y-7788000D01*
X16244500Y-7788000D01*
X16244500Y-8708000D01*
G37*
D14*
X10409000Y-10013300D02*
X10409000Y-10174300D01*
X10409000Y-10174300D02*
X11892000Y-10174300D01*
X11864908Y-9986392D02*
X10436000Y-9986300D01*
X11892000Y-10174300D02*
X11891908Y-10013392D01*
X10409000Y-10013300D02*
G75*
G02*
X10436000Y-9986300I27000J0D01*
G01*
X11864908Y-9986392D02*
G75*
G02*
X11891908Y-10013392I0J-27000D01*
G01*
D10*
D15*
X7978600Y-7026772D02*
X8283400Y-7331572D01*
X8283400Y-7026772D02*
X7978600Y-7331572D01*
X7978600Y-10748600D02*
X8283400Y-11053400D01*
X8283400Y-10748600D02*
X7978600Y-11053400D01*
X18093600Y-7026772D02*
X18398400Y-7331572D01*
X18398400Y-7026772D02*
X18093600Y-7331572D01*
X18093600Y-10748600D02*
X18398400Y-11053400D01*
X18398400Y-10748600D02*
X18093600Y-11053400D01*
D10*
X8009077Y-11575184D02*
X8009077Y-11375184D01*
X8009077Y-11375184D02*
X8056696Y-11375184D01*
X8056696Y-11375184D02*
X8085267Y-11384708D01*
X8085267Y-11384708D02*
X8104315Y-11403755D01*
X8104315Y-11403755D02*
X8113839Y-11422803D01*
X8113839Y-11422803D02*
X8123362Y-11460898D01*
X8123362Y-11460898D02*
X8123362Y-11489469D01*
X8123362Y-11489469D02*
X8113839Y-11527565D01*
X8113839Y-11527565D02*
X8104315Y-11546612D01*
X8104315Y-11546612D02*
X8085267Y-11565660D01*
X8085267Y-11565660D02*
X8056696Y-11575184D01*
X8056696Y-11575184D02*
X8009077Y-11575184D01*
X8209077Y-11575184D02*
X8209077Y-11441850D01*
X8209077Y-11479946D02*
X8218601Y-11460898D01*
X8218601Y-11460898D02*
X8228124Y-11451374D01*
X8228124Y-11451374D02*
X8247172Y-11441850D01*
X8247172Y-11441850D02*
X8266220Y-11441850D01*
X8332886Y-11575184D02*
X8332886Y-11441850D01*
X8332886Y-11375184D02*
X8323362Y-11384708D01*
X8323362Y-11384708D02*
X8332886Y-11394231D01*
X8332886Y-11394231D02*
X8342410Y-11384708D01*
X8342410Y-11384708D02*
X8332886Y-11375184D01*
X8332886Y-11375184D02*
X8332886Y-11394231D01*
X8456696Y-11575184D02*
X8437648Y-11565660D01*
X8437648Y-11565660D02*
X8428124Y-11546612D01*
X8428124Y-11546612D02*
X8428124Y-11375184D01*
X8561458Y-11575184D02*
X8542410Y-11565660D01*
X8542410Y-11565660D02*
X8532886Y-11546612D01*
X8532886Y-11546612D02*
X8532886Y-11375184D01*
X8790029Y-11575184D02*
X8790029Y-11375184D01*
X8790029Y-11375184D02*
X8856696Y-11518041D01*
X8856696Y-11518041D02*
X8923363Y-11375184D01*
X8923363Y-11375184D02*
X8923363Y-11575184D01*
X9104315Y-11575184D02*
X9104315Y-11470422D01*
X9104315Y-11470422D02*
X9094791Y-11451374D01*
X9094791Y-11451374D02*
X9075744Y-11441850D01*
X9075744Y-11441850D02*
X9037648Y-11441850D01*
X9037648Y-11441850D02*
X9018601Y-11451374D01*
X9104315Y-11565660D02*
X9085267Y-11575184D01*
X9085267Y-11575184D02*
X9037648Y-11575184D01*
X9037648Y-11575184D02*
X9018601Y-11565660D01*
X9018601Y-11565660D02*
X9009077Y-11546612D01*
X9009077Y-11546612D02*
X9009077Y-11527565D01*
X9009077Y-11527565D02*
X9018601Y-11508517D01*
X9018601Y-11508517D02*
X9037648Y-11498993D01*
X9037648Y-11498993D02*
X9085267Y-11498993D01*
X9085267Y-11498993D02*
X9104315Y-11489469D01*
X9199553Y-11441850D02*
X9199553Y-11641850D01*
X9199553Y-11451374D02*
X9218601Y-11441850D01*
X9218601Y-11441850D02*
X9256696Y-11441850D01*
X9256696Y-11441850D02*
X9275744Y-11451374D01*
X9275744Y-11451374D02*
X9285267Y-11460898D01*
X9285267Y-11460898D02*
X9294791Y-11479946D01*
X9294791Y-11479946D02*
X9294791Y-11537088D01*
X9294791Y-11537088D02*
X9285267Y-11556136D01*
X9285267Y-11556136D02*
X9275744Y-11565660D01*
X9275744Y-11565660D02*
X9256696Y-11575184D01*
X9256696Y-11575184D02*
X9218601Y-11575184D01*
X9218601Y-11575184D02*
X9199553Y-11565660D01*
X9380505Y-11556136D02*
X9390029Y-11565660D01*
X9390029Y-11565660D02*
X9380505Y-11575184D01*
X9380505Y-11575184D02*
X9370982Y-11565660D01*
X9370982Y-11565660D02*
X9380505Y-11556136D01*
X9380505Y-11556136D02*
X9380505Y-11575184D01*
X9380505Y-11451374D02*
X9390029Y-11460898D01*
X9390029Y-11460898D02*
X9380505Y-11470422D01*
X9380505Y-11470422D02*
X9370982Y-11460898D01*
X9370982Y-11460898D02*
X9380505Y-11451374D01*
X9380505Y-11451374D02*
X9380505Y-11470422D01*
X7548300Y-11803700D02*
X7748300Y-12003700D01*
X7748300Y-11803700D02*
X7548300Y-12003700D01*
X7990029Y-11795184D02*
X8113839Y-11795184D01*
X8113839Y-11795184D02*
X8047172Y-11871374D01*
X8047172Y-11871374D02*
X8075743Y-11871374D01*
X8075743Y-11871374D02*
X8094791Y-11880898D01*
X8094791Y-11880898D02*
X8104315Y-11890422D01*
X8104315Y-11890422D02*
X8113839Y-11909469D01*
X8113839Y-11909469D02*
X8113839Y-11957088D01*
X8113839Y-11957088D02*
X8104315Y-11976136D01*
X8104315Y-11976136D02*
X8094791Y-11985660D01*
X8094791Y-11985660D02*
X8075743Y-11995184D01*
X8075743Y-11995184D02*
X8018601Y-11995184D01*
X8018601Y-11995184D02*
X7999553Y-11985660D01*
X7999553Y-11985660D02*
X7990029Y-11976136D01*
X8199553Y-11976136D02*
X8209077Y-11985660D01*
X8209077Y-11985660D02*
X8199553Y-11995184D01*
X8199553Y-11995184D02*
X8190029Y-11985660D01*
X8190029Y-11985660D02*
X8199553Y-11976136D01*
X8199553Y-11976136D02*
X8199553Y-11995184D01*
X8332886Y-11795184D02*
X8351934Y-11795184D01*
X8351934Y-11795184D02*
X8370982Y-11804708D01*
X8370982Y-11804708D02*
X8380505Y-11814231D01*
X8380505Y-11814231D02*
X8390029Y-11833279D01*
X8390029Y-11833279D02*
X8399553Y-11871374D01*
X8399553Y-11871374D02*
X8399553Y-11918993D01*
X8399553Y-11918993D02*
X8390029Y-11957088D01*
X8390029Y-11957088D02*
X8380505Y-11976136D01*
X8380505Y-11976136D02*
X8370982Y-11985660D01*
X8370982Y-11985660D02*
X8351934Y-11995184D01*
X8351934Y-11995184D02*
X8332886Y-11995184D01*
X8332886Y-11995184D02*
X8313839Y-11985660D01*
X8313839Y-11985660D02*
X8304315Y-11976136D01*
X8304315Y-11976136D02*
X8294791Y-11957088D01*
X8294791Y-11957088D02*
X8285267Y-11918993D01*
X8285267Y-11918993D02*
X8285267Y-11871374D01*
X8285267Y-11871374D02*
X8294791Y-11833279D01*
X8294791Y-11833279D02*
X8304315Y-11814231D01*
X8304315Y-11814231D02*
X8313839Y-11804708D01*
X8313839Y-11804708D02*
X8332886Y-11795184D01*
X8570982Y-11861850D02*
X8570982Y-11995184D01*
X8523363Y-11785660D02*
X8475744Y-11928517D01*
X8475744Y-11928517D02*
X8599553Y-11928517D01*
X8704315Y-11880898D02*
X8685267Y-11871374D01*
X8685267Y-11871374D02*
X8675744Y-11861850D01*
X8675744Y-11861850D02*
X8666220Y-11842803D01*
X8666220Y-11842803D02*
X8666220Y-11833279D01*
X8666220Y-11833279D02*
X8675744Y-11814231D01*
X8675744Y-11814231D02*
X8685267Y-11804708D01*
X8685267Y-11804708D02*
X8704315Y-11795184D01*
X8704315Y-11795184D02*
X8742410Y-11795184D01*
X8742410Y-11795184D02*
X8761458Y-11804708D01*
X8761458Y-11804708D02*
X8770982Y-11814231D01*
X8770982Y-11814231D02*
X8780505Y-11833279D01*
X8780505Y-11833279D02*
X8780505Y-11842803D01*
X8780505Y-11842803D02*
X8770982Y-11861850D01*
X8770982Y-11861850D02*
X8761458Y-11871374D01*
X8761458Y-11871374D02*
X8742410Y-11880898D01*
X8742410Y-11880898D02*
X8704315Y-11880898D01*
X8704315Y-11880898D02*
X8685267Y-11890422D01*
X8685267Y-11890422D02*
X8675744Y-11899946D01*
X8675744Y-11899946D02*
X8666220Y-11918993D01*
X8666220Y-11918993D02*
X8666220Y-11957088D01*
X8666220Y-11957088D02*
X8675744Y-11976136D01*
X8675744Y-11976136D02*
X8685267Y-11985660D01*
X8685267Y-11985660D02*
X8704315Y-11995184D01*
X8704315Y-11995184D02*
X8742410Y-11995184D01*
X8742410Y-11995184D02*
X8761458Y-11985660D01*
X8761458Y-11985660D02*
X8770982Y-11976136D01*
X8770982Y-11976136D02*
X8780505Y-11957088D01*
X8780505Y-11957088D02*
X8780505Y-11918993D01*
X8780505Y-11918993D02*
X8770982Y-11899946D01*
X8770982Y-11899946D02*
X8761458Y-11890422D01*
X8761458Y-11890422D02*
X8742410Y-11880898D01*
X8866220Y-11995184D02*
X8866220Y-11861850D01*
X8866220Y-11880898D02*
X8875744Y-11871374D01*
X8875744Y-11871374D02*
X8894791Y-11861850D01*
X8894791Y-11861850D02*
X8923363Y-11861850D01*
X8923363Y-11861850D02*
X8942410Y-11871374D01*
X8942410Y-11871374D02*
X8951934Y-11890422D01*
X8951934Y-11890422D02*
X8951934Y-11995184D01*
X8951934Y-11890422D02*
X8961458Y-11871374D01*
X8961458Y-11871374D02*
X8980505Y-11861850D01*
X8980505Y-11861850D02*
X9009077Y-11861850D01*
X9009077Y-11861850D02*
X9028125Y-11871374D01*
X9028125Y-11871374D02*
X9037648Y-11890422D01*
X9037648Y-11890422D02*
X9037648Y-11995184D01*
X9132886Y-11995184D02*
X9132886Y-11861850D01*
X9132886Y-11880898D02*
X9142410Y-11871374D01*
X9142410Y-11871374D02*
X9161458Y-11861850D01*
X9161458Y-11861850D02*
X9190029Y-11861850D01*
X9190029Y-11861850D02*
X9209077Y-11871374D01*
X9209077Y-11871374D02*
X9218601Y-11890422D01*
X9218601Y-11890422D02*
X9218601Y-11995184D01*
X9218601Y-11890422D02*
X9228125Y-11871374D01*
X9228125Y-11871374D02*
X9247172Y-11861850D01*
X9247172Y-11861850D02*
X9275744Y-11861850D01*
X9275744Y-11861850D02*
X9294791Y-11871374D01*
X9294791Y-11871374D02*
X9304315Y-11890422D01*
X9304315Y-11890422D02*
X9304315Y-11995184D01*
X9694791Y-11785660D02*
X9523363Y-12042803D01*
X9951934Y-11795184D02*
X9970982Y-11795184D01*
X9970982Y-11795184D02*
X9990029Y-11804708D01*
X9990029Y-11804708D02*
X9999553Y-11814231D01*
X9999553Y-11814231D02*
X10009077Y-11833279D01*
X10009077Y-11833279D02*
X10018601Y-11871374D01*
X10018601Y-11871374D02*
X10018601Y-11918993D01*
X10018601Y-11918993D02*
X10009077Y-11957088D01*
X10009077Y-11957088D02*
X9999553Y-11976136D01*
X9999553Y-11976136D02*
X9990029Y-11985660D01*
X9990029Y-11985660D02*
X9970982Y-11995184D01*
X9970982Y-11995184D02*
X9951934Y-11995184D01*
X9951934Y-11995184D02*
X9932887Y-11985660D01*
X9932887Y-11985660D02*
X9923363Y-11976136D01*
X9923363Y-11976136D02*
X9913839Y-11957088D01*
X9913839Y-11957088D02*
X9904315Y-11918993D01*
X9904315Y-11918993D02*
X9904315Y-11871374D01*
X9904315Y-11871374D02*
X9913839Y-11833279D01*
X9913839Y-11833279D02*
X9923363Y-11814231D01*
X9923363Y-11814231D02*
X9932887Y-11804708D01*
X9932887Y-11804708D02*
X9951934Y-11795184D01*
X10104315Y-11976136D02*
X10113839Y-11985660D01*
X10113839Y-11985660D02*
X10104315Y-11995184D01*
X10104315Y-11995184D02*
X10094791Y-11985660D01*
X10094791Y-11985660D02*
X10104315Y-11976136D01*
X10104315Y-11976136D02*
X10104315Y-11995184D01*
X10304315Y-11995184D02*
X10190029Y-11995184D01*
X10247172Y-11995184D02*
X10247172Y-11795184D01*
X10247172Y-11795184D02*
X10228125Y-11823755D01*
X10228125Y-11823755D02*
X10209077Y-11842803D01*
X10209077Y-11842803D02*
X10190029Y-11852327D01*
X10380506Y-11814231D02*
X10390029Y-11804708D01*
X10390029Y-11804708D02*
X10409077Y-11795184D01*
X10409077Y-11795184D02*
X10456696Y-11795184D01*
X10456696Y-11795184D02*
X10475744Y-11804708D01*
X10475744Y-11804708D02*
X10485268Y-11814231D01*
X10485268Y-11814231D02*
X10494791Y-11833279D01*
X10494791Y-11833279D02*
X10494791Y-11852327D01*
X10494791Y-11852327D02*
X10485268Y-11880898D01*
X10485268Y-11880898D02*
X10370982Y-11995184D01*
X10370982Y-11995184D02*
X10494791Y-11995184D01*
X10618601Y-11795184D02*
X10637649Y-11795184D01*
X10637649Y-11795184D02*
X10656696Y-11804708D01*
X10656696Y-11804708D02*
X10666220Y-11814231D01*
X10666220Y-11814231D02*
X10675744Y-11833279D01*
X10675744Y-11833279D02*
X10685268Y-11871374D01*
X10685268Y-11871374D02*
X10685268Y-11918993D01*
X10685268Y-11918993D02*
X10675744Y-11957088D01*
X10675744Y-11957088D02*
X10666220Y-11976136D01*
X10666220Y-11976136D02*
X10656696Y-11985660D01*
X10656696Y-11985660D02*
X10637649Y-11995184D01*
X10637649Y-11995184D02*
X10618601Y-11995184D01*
X10618601Y-11995184D02*
X10599553Y-11985660D01*
X10599553Y-11985660D02*
X10590029Y-11976136D01*
X10590029Y-11976136D02*
X10580506Y-11957088D01*
X10580506Y-11957088D02*
X10570982Y-11918993D01*
X10570982Y-11918993D02*
X10570982Y-11871374D01*
X10570982Y-11871374D02*
X10580506Y-11833279D01*
X10580506Y-11833279D02*
X10590029Y-11814231D01*
X10590029Y-11814231D02*
X10599553Y-11804708D01*
X10599553Y-11804708D02*
X10618601Y-11795184D01*
X10809077Y-11795184D02*
X10828125Y-11795184D01*
X10828125Y-11795184D02*
X10847172Y-11804708D01*
X10847172Y-11804708D02*
X10856696Y-11814231D01*
X10856696Y-11814231D02*
X10866220Y-11833279D01*
X10866220Y-11833279D02*
X10875744Y-11871374D01*
X10875744Y-11871374D02*
X10875744Y-11918993D01*
X10875744Y-11918993D02*
X10866220Y-11957088D01*
X10866220Y-11957088D02*
X10856696Y-11976136D01*
X10856696Y-11976136D02*
X10847172Y-11985660D01*
X10847172Y-11985660D02*
X10828125Y-11995184D01*
X10828125Y-11995184D02*
X10809077Y-11995184D01*
X10809077Y-11995184D02*
X10790029Y-11985660D01*
X10790029Y-11985660D02*
X10780506Y-11976136D01*
X10780506Y-11976136D02*
X10770982Y-11957088D01*
X10770982Y-11957088D02*
X10761458Y-11918993D01*
X10761458Y-11918993D02*
X10761458Y-11871374D01*
X10761458Y-11871374D02*
X10770982Y-11833279D01*
X10770982Y-11833279D02*
X10780506Y-11814231D01*
X10780506Y-11814231D02*
X10790029Y-11804708D01*
X10790029Y-11804708D02*
X10809077Y-11795184D01*
X10951934Y-11795184D02*
X10951934Y-11833279D01*
X11028125Y-11795184D02*
X11028125Y-11833279D01*
X11323363Y-12071374D02*
X11313839Y-12061850D01*
X11313839Y-12061850D02*
X11294791Y-12033279D01*
X11294791Y-12033279D02*
X11285268Y-12014231D01*
X11285268Y-12014231D02*
X11275744Y-11985660D01*
X11275744Y-11985660D02*
X11266220Y-11938041D01*
X11266220Y-11938041D02*
X11266220Y-11899946D01*
X11266220Y-11899946D02*
X11275744Y-11852327D01*
X11275744Y-11852327D02*
X11285268Y-11823755D01*
X11285268Y-11823755D02*
X11294791Y-11804708D01*
X11294791Y-11804708D02*
X11313839Y-11776136D01*
X11313839Y-11776136D02*
X11323363Y-11766612D01*
X11485268Y-11861850D02*
X11485268Y-11995184D01*
X11437648Y-11785660D02*
X11390029Y-11928517D01*
X11390029Y-11928517D02*
X11513839Y-11928517D01*
X11742410Y-11995184D02*
X11742410Y-11795184D01*
X11828125Y-11995184D02*
X11828125Y-11890422D01*
X11828125Y-11890422D02*
X11818601Y-11871374D01*
X11818601Y-11871374D02*
X11799553Y-11861850D01*
X11799553Y-11861850D02*
X11770982Y-11861850D01*
X11770982Y-11861850D02*
X11751934Y-11871374D01*
X11751934Y-11871374D02*
X11742410Y-11880898D01*
X11951934Y-11995184D02*
X11932887Y-11985660D01*
X11932887Y-11985660D02*
X11923363Y-11976136D01*
X11923363Y-11976136D02*
X11913839Y-11957088D01*
X11913839Y-11957088D02*
X11913839Y-11899946D01*
X11913839Y-11899946D02*
X11923363Y-11880898D01*
X11923363Y-11880898D02*
X11932887Y-11871374D01*
X11932887Y-11871374D02*
X11951934Y-11861850D01*
X11951934Y-11861850D02*
X11980506Y-11861850D01*
X11980506Y-11861850D02*
X11999553Y-11871374D01*
X11999553Y-11871374D02*
X12009077Y-11880898D01*
X12009077Y-11880898D02*
X12018601Y-11899946D01*
X12018601Y-11899946D02*
X12018601Y-11957088D01*
X12018601Y-11957088D02*
X12009077Y-11976136D01*
X12009077Y-11976136D02*
X11999553Y-11985660D01*
X11999553Y-11985660D02*
X11980506Y-11995184D01*
X11980506Y-11995184D02*
X11951934Y-11995184D01*
X12132887Y-11995184D02*
X12113839Y-11985660D01*
X12113839Y-11985660D02*
X12104315Y-11966612D01*
X12104315Y-11966612D02*
X12104315Y-11795184D01*
X12285268Y-11985660D02*
X12266220Y-11995184D01*
X12266220Y-11995184D02*
X12228125Y-11995184D01*
X12228125Y-11995184D02*
X12209077Y-11985660D01*
X12209077Y-11985660D02*
X12199553Y-11966612D01*
X12199553Y-11966612D02*
X12199553Y-11890422D01*
X12199553Y-11890422D02*
X12209077Y-11871374D01*
X12209077Y-11871374D02*
X12228125Y-11861850D01*
X12228125Y-11861850D02*
X12266220Y-11861850D01*
X12266220Y-11861850D02*
X12285268Y-11871374D01*
X12285268Y-11871374D02*
X12294791Y-11890422D01*
X12294791Y-11890422D02*
X12294791Y-11909469D01*
X12294791Y-11909469D02*
X12199553Y-11928517D01*
X12370982Y-11985660D02*
X12390030Y-11995184D01*
X12390030Y-11995184D02*
X12428125Y-11995184D01*
X12428125Y-11995184D02*
X12447172Y-11985660D01*
X12447172Y-11985660D02*
X12456696Y-11966612D01*
X12456696Y-11966612D02*
X12456696Y-11957088D01*
X12456696Y-11957088D02*
X12447172Y-11938041D01*
X12447172Y-11938041D02*
X12428125Y-11928517D01*
X12428125Y-11928517D02*
X12399553Y-11928517D01*
X12399553Y-11928517D02*
X12380506Y-11918993D01*
X12380506Y-11918993D02*
X12370982Y-11899946D01*
X12370982Y-11899946D02*
X12370982Y-11890422D01*
X12370982Y-11890422D02*
X12380506Y-11871374D01*
X12380506Y-11871374D02*
X12399553Y-11861850D01*
X12399553Y-11861850D02*
X12428125Y-11861850D01*
X12428125Y-11861850D02*
X12447172Y-11871374D01*
X12523363Y-12071374D02*
X12532887Y-12061850D01*
X12532887Y-12061850D02*
X12551934Y-12033279D01*
X12551934Y-12033279D02*
X12561458Y-12014231D01*
X12561458Y-12014231D02*
X12570982Y-11985660D01*
X12570982Y-11985660D02*
X12580506Y-11938041D01*
X12580506Y-11938041D02*
X12580506Y-11899946D01*
X12580506Y-11899946D02*
X12570982Y-11852327D01*
X12570982Y-11852327D02*
X12561458Y-11823755D01*
X12561458Y-11823755D02*
X12551934Y-11804708D01*
X12551934Y-11804708D02*
X12532887Y-11776136D01*
X12532887Y-11776136D02*
X12523363Y-11766612D01*
M02*
